{
  "accessors": [
    {
      "bufferView": 0,
      "byteOffset": 0,
      "componentType": 5123,
      "count": 2136,
      "max": [
        2135.0
      ],
      "min": [
        0.0
      ],
      "name": "buffer-0-accessor-indices-buffer-0-mesh-0",
      "type": "SCALAR"
    },
    {
      "bufferView": 2,
      "byteOffset": 0,
      "componentType": 5126,
      "count": 2136,
      "max": [
        15.089539527893066,
        37.5875358581543,
        50.56899642944336
      ],
      "min": [
        -15.089539527893066,
        -40.67018127441406,
        -51.64155197143555
      ],
      "name": "buffer-0-accessor-position-buffer-0-mesh-0",
      "type": "VEC3"
    },
    {
      "bufferView": 2,
      "byteOffset": 25632,
      "componentType": 5126,
      "count": 2136,
      "max": [
        1.0,
        0.9906489849090576,
        1.0
      ],
      "min": [
        -1.0,
        -1.0,
        -1.0
      ],
      "name": "buffer-0-accessor-normal-buffer-0-mesh-0",
      "type": "VEC3"
    },
    {
      "bufferView": 1,
      "byteOffset": 0,
      "componentType": 5126,
      "count": 2136,
      "max": [
        0.8674740195274353,
        0.0
      ],
      "min": [
        0.0,
        -0.9610720276832581
      ],
      "name": "buffer-0-accessor-texcoord-buffer-0-mesh-0",
      "type": "VEC2"
    },
    {
      "bufferView": 3,
      "byteOffset": 0,
      "componentType": 5126,
      "count": 0,
      "max": [
        0.0,
        0.0,
        0.0,
        0.0
      ],
      "min": [
        0.0,
        0.0,
        0.0,
        0.0
      ],
      "name": "buffer-0-accessor-color-buffer-0-mesh-0",
      "type": "VEC4"
    }
  ],
  "asset": {
    "generator": "Obj2GltfConverter",
    "version": "2.0"
  },
  "bufferViews": [
    {
      "buffer": 0,
      "byteLength": 4272,
      "byteOffset": 0,
      "byteStride": 0,
      "name": "buffer-0-bufferview-ushort",
      "target": 34963
    },
    {
      "buffer": 0,
      "byteLength": 17088,
      "byteOffset": 4272,
      "byteStride": 8,
      "name": "buffer-0-bufferview-vec2",
      "target": 34962
    },
    {
      "buffer": 0,
      "byteLength": 51264,
      "byteOffset": 21360,
      "byteStride": 12,
      "name": "buffer-0-bufferview-vec3",
      "target": 34962
    },
    {
      "buffer": 0,
      "byteLength": 0,
      "byteOffset": 72624,
      "byteStride": 16,
      "name": "buffer-0-bufferview-vec4",
      "target": 34962
    }
  ],
  "buffers": [
    {
      "byteLength": 72624,
      "name": "buffer-0",
      "uri": "Mesh_Beagle.bin"
    }
  ],
  "images": [
    {
      "mimeType": "image/png",
      "name": "lambert2SG-image",
      "uri": "Tex_Beagle.png"
    }
  ],
  "materials": [
    {
      "alphaMode": "OPAQUE",
      "doubleSided": true,
      "name": "lambert2SG",
      "pbrMetallicRoughness": {
        "baseColorFactor": [
          1.0,
          1.0,
          1.0,
          1.0
        ],
        "baseColorTexture": {
          "index": 0,
          "texCoord": 0
        },
        "metallicFactor": 0.0,
        "roughnessFactor": 0.9699476628648295
      }
    }
  ],
  "meshes": [
    {
      "name": "buffer-0-mesh-0",
      "primitives": [
        {
          "attributes": {
            "POSITION": 1,
            "NORMAL": 2,
            "TEXCOORD_0": 3
          },
          "indices": 0,
          "material": 0,
          "mode": 4
        }
      ]
    }
  ],
  "nodes": [
    {
      "mesh": 0,
      "name": "node-0"
    }
  ],
  "samplers": [
    {
      "name": "lambert2SG-sampler",
      "wrapS": 10497,
      "wrapT": 10497
    }
  ],
  "scenes": [
    {
      "name": "scene-0",
      "nodes": [
        0
      ]
    }
  ],
  "textures": [
    {
      "name": "lambert2SG-texture",
      "sampler": 0,
      "source": 0
    }
  ]
}