<svg id="Layer_1" data-name="Layer 1" xmlns="http://www.w3.org/2000/svg" xmlns:xlink="http://www.w3.org/1999/xlink" viewBox="0 0 1080 756"><defs><style>.cls-1,.cls-3{fill:none;}.cls-2{clip-path:url(#clip-path);}.cls-3{stroke:#231f20;stroke-width:0.25px;}.cls-4{fill:#231f20;}</style><clipPath id="clip-path"><rect class="cls-1" width="1080" height="756"/></clipPath></defs><title>Untitled-3</title><g class="cls-2"><g class="cls-2"><line class="cls-3" x1="180" y1="-18.36" x2="180" y2="790.92"/><line class="cls-3" x1="720" y1="-20.88" x2="720" y2="788.4"/><line class="cls-3" x1="359.88" y1="-18.36" x2="359.88" y2="790.92"/><line class="cls-3" x1="899.87" y1="-20.88" x2="899.87" y2="788.4"/><line class="cls-3" x1="-16.92" y1="251.88" x2="1101.6" y2="251.88"/><line class="cls-3" x1="-11.52" y1="504.13" x2="1107" y2="504.13"/><line class="cls-3" x1="540" y1="-19.44" x2="540" y2="789.84"/></g><path class="cls-4" d="M201.41,280.39l.16,1.24a3.15,3.15,0,0,1-.86.13,1.76,1.76,0,0,1-1-.24,1.24,1.24,0,0,1-.5-.65,6.39,6.39,0,0,1-.14-1.65v-4.77h-.84v-1.1h.84V271.3l1.15-.85v2.9h1.16v1.1h-1.16v4.85a2.2,2.2,0,0,0,.1.86.58.58,0,0,0,.56.29A2.67,2.67,0,0,0,201.41,280.39Z"/><path class="cls-4" d="M202.06,277.5a5,5,0,0,1,.9-3.24,2.91,2.91,0,0,1,4.56,0,4.79,4.79,0,0,1,.92,3.15,5.17,5.17,0,0,1-.9,3.33,2.92,2.92,0,0,1-4.57,0A5,5,0,0,1,202.06,277.5Zm1.18,0a4,4,0,0,0,.59,2.39,1.74,1.74,0,0,0,1.45.79,1.7,1.7,0,0,0,1.4-.79,4.11,4.11,0,0,0,.58-2.39,4,4,0,0,0-.59-2.39,1.74,1.74,0,0,0-1.45-.79,1.69,1.69,0,0,0-1.4.79A4,4,0,0,0,203.24,277.5Z"/><path class="cls-4" d="M209.57,282.34l1.13.2a1.43,1.43,0,0,0,.46,1,1.65,1.65,0,0,0,1.09.33,1.9,1.9,0,0,0,1.21-.36,1.91,1.91,0,0,0,.61-1.09,10,10,0,0,0,.1-1.84,2.68,2.68,0,0,1-.84.81,2,2,0,0,1-1,.27,2.47,2.47,0,0,1-2-1,5,5,0,0,1-.93-3.18,6.23,6.23,0,0,1,.41-2.34,3.26,3.26,0,0,1,1.07-1.47,2.51,2.51,0,0,1,1.48-.47,2.05,2.05,0,0,1,1.09.3,2.64,2.64,0,0,1,.88.88v-1h1.07v7.17a8.28,8.28,0,0,1-.32,2.73,2.57,2.57,0,0,1-1,1.29,3,3,0,0,1-1.71.48,2.72,2.72,0,0,1-2-.72A2.54,2.54,0,0,1,209.57,282.34Zm1-5a4.16,4.16,0,0,0,.54,2.39,1.57,1.57,0,0,0,2.66,0,4,4,0,0,0,.55-2.35,3.9,3.9,0,0,0-.57-2.33,1.67,1.67,0,0,0-1.37-.76,1.56,1.56,0,0,0-1.26.76A3.94,3.94,0,0,0,210.52,277.35Z"/><path class="cls-4" d="M216.87,282.34l1.12.2a1.43,1.43,0,0,0,.47,1,1.63,1.63,0,0,0,1.09.33,1.87,1.87,0,0,0,1.2-.36,1.92,1.92,0,0,0,.62-1.09,11.09,11.09,0,0,0,.1-1.84,2.6,2.6,0,0,1-.85.81,2,2,0,0,1-1,.27,2.49,2.49,0,0,1-2-1,5.07,5.07,0,0,1-.92-3.18,6.23,6.23,0,0,1,.41-2.34,3.24,3.24,0,0,1,1.06-1.47,2.53,2.53,0,0,1,1.48-.47,2.06,2.06,0,0,1,1.1.3,2.73,2.73,0,0,1,.88.88v-1h1.06v7.17a8.35,8.35,0,0,1-.31,2.73,2.62,2.62,0,0,1-1,1.29,3,3,0,0,1-1.71.48,2.76,2.76,0,0,1-2-.72A2.57,2.57,0,0,1,216.87,282.34Zm.95-5a4.16,4.16,0,0,0,.54,2.39,1.56,1.56,0,0,0,2.65,0,4,4,0,0,0,.55-2.35,3.91,3.91,0,0,0-.56-2.33,1.68,1.68,0,0,0-1.37-.76,1.59,1.59,0,0,0-1.27.76A3.94,3.94,0,0,0,217.82,277.35Z"/><path class="cls-4" d="M224.35,281.65V270.2h1.15v11.45Z"/><path class="cls-4" d="M232,279l1.19.18a3.67,3.67,0,0,1-1.07,2,2.84,2.84,0,0,1-1.93.68,2.89,2.89,0,0,1-2.34-1.1,4.89,4.89,0,0,1-.89-3.17,5.19,5.19,0,0,1,.9-3.28,2.8,2.8,0,0,1,2.28-1.13,2.72,2.72,0,0,1,2.21,1.11,5.05,5.05,0,0,1,.88,3.21v.38h-5.08a3.64,3.64,0,0,0,.65,2.11,1.78,1.78,0,0,0,1.41.71C231,280.68,231.61,280.11,232,279Zm-3.79-2.28H232a3.21,3.21,0,0,0-.46-1.61,1.68,1.68,0,0,0-2.73-.13A2.82,2.82,0,0,0,228.16,276.7Z"/><path class="cls-4" d="M24.6,532.3v1.35H18.39a3.9,3.9,0,0,1,.5-1.84,10.09,10.09,0,0,1,1.9-2.4,13.65,13.65,0,0,0,2.12-2.49,3.39,3.39,0,0,0,.5-1.64,2,2,0,0,0-.52-1.42,1.65,1.65,0,0,0-1.26-.56,1.68,1.68,0,0,0-1.32.6,2.57,2.57,0,0,0-.51,1.71l-1.19-.15a3.85,3.85,0,0,1,.93-2.48,2.85,2.85,0,0,1,2.13-.83,2.56,2.56,0,0,1,2.18,1,3.54,3.54,0,0,1,.74,2.2,4.21,4.21,0,0,1-.58,2.1,15.77,15.77,0,0,1-2.2,2.67c-.69.71-1.13,1.19-1.33,1.44a4.71,4.71,0,0,0-.49.77Z"/><path class="cls-4" d="M27.6,527.43a2.18,2.18,0,0,1-1-.89,2.71,2.71,0,0,1-.36-1.45A3,3,0,0,1,27,523a2.51,2.51,0,0,1,1.93-.82,2.54,2.54,0,0,1,1.94.83,3,3,0,0,1,.78,2.16,2.67,2.67,0,0,1-.35,1.4,2.24,2.24,0,0,1-1,.89,2.62,2.62,0,0,1,1.31,1.09,3.47,3.47,0,0,1,.46,1.86,3.53,3.53,0,0,1-.89,2.5,3,3,0,0,1-4.4,0,3.62,3.62,0,0,1-.89-2.54,3.51,3.51,0,0,1,.47-1.89A2.37,2.37,0,0,1,27.6,527.43Zm-.6,2.91a2.46,2.46,0,0,0,.57,1.7,1.74,1.74,0,0,0,2.7,0,2.4,2.4,0,0,0,.55-1.67,2.48,2.48,0,0,0-.57-1.7,1.75,1.75,0,0,0-1.36-.64,1.69,1.69,0,0,0-1.34.64A2.42,2.42,0,0,0,27,530.34Zm.38-5.29a1.92,1.92,0,0,0,.45,1.34,1.4,1.4,0,0,0,1.09.5A1.37,1.37,0,0,0,30,526.4a1.81,1.81,0,0,0,.45-1.27,1.85,1.85,0,0,0-.46-1.31,1.37,1.37,0,0,0-1.08-.52,1.41,1.41,0,0,0-1.07.5A1.81,1.81,0,0,0,27.38,525.05Z"/><path class="cls-4" d="M738.9,271.81V270.2h1.15v1.61Zm0,9.84v-8.3h1.15v8.3Z"/><path class="cls-4" d="M742.13,281.65v-7.2h-1v-1.1h1v-.88a3.94,3.94,0,0,1,.21-1.47,1.51,1.51,0,0,1,.62-.74,2,2,0,0,1,1-.26,4.37,4.37,0,0,1,1.08.15l-.17,1.22a3.31,3.31,0,0,0-.68-.08.92.92,0,0,0-.74.27,1.76,1.76,0,0,0-.22,1v.76h1.33v1.1h-1.33v7.2Z"/><path class="cls-4" d="M751.61,280.39l.15,1.24a3.1,3.1,0,0,1-.86.13,1.71,1.71,0,0,1-1-.24,1.21,1.21,0,0,1-.51-.65,6.39,6.39,0,0,1-.14-1.65v-4.77h-.84v-1.1h.84V271.3l1.15-.85v2.9h1.17v1.1h-1.17v4.85a2.42,2.42,0,0,0,.1.86.58.58,0,0,0,.56.29A2.86,2.86,0,0,0,751.61,280.39Z"/><path class="cls-4" d="M752.69,281.65V270.2h1.15v4.1a2.82,2.82,0,0,1,.92-.85,2.29,2.29,0,0,1,1.13-.29,2.17,2.17,0,0,1,1.71.7,3.8,3.8,0,0,1,.63,2.53v5.26h-1.15v-5.26a2.45,2.45,0,0,0-.38-1.55,1.28,1.28,0,0,0-1.05-.46,1.64,1.64,0,0,0-1.28.6,3.28,3.28,0,0,0-.53,2.13v4.54Z"/><path class="cls-4" d="M760,271.81V270.2h1.15v1.61Zm0,9.84v-8.3h1.15v8.3Z"/><path class="cls-4" d="M762.9,281.65v-8.3h1v1.17a2.78,2.78,0,0,1,.92-1,2.35,2.35,0,0,1,1.24-.34,2.41,2.41,0,0,1,1,.22,2.05,2.05,0,0,1,.75.56,2.36,2.36,0,0,1,.43.9,7.81,7.81,0,0,1,.14,1.71v5.1h-1.15v-5a4,4,0,0,0-.16-1.34,1.3,1.3,0,0,0-1.25-.88,1.61,1.61,0,0,0-1.33.61,3.53,3.53,0,0,0-.49,2.12v4.54Z"/><path class="cls-4" d="M770,282.34l1.13.2a1.43,1.43,0,0,0,.47,1,1.62,1.62,0,0,0,1.08.33,1.67,1.67,0,0,0,1.82-1.45,9.73,9.73,0,0,0,.11-1.84,2.7,2.7,0,0,1-.85.81,2,2,0,0,1-1,.27,2.49,2.49,0,0,1-2-1,5.07,5.07,0,0,1-.92-3.18,6.23,6.23,0,0,1,.4-2.34,3.26,3.26,0,0,1,1.07-1.47,2.51,2.51,0,0,1,1.48-.47,2.09,2.09,0,0,1,1.1.3,2.84,2.84,0,0,1,.88.88v-1h1.06v7.17a8.35,8.35,0,0,1-.31,2.73,2.59,2.59,0,0,1-1,1.29,3,3,0,0,1-1.71.48,2.73,2.73,0,0,1-2-.72A2.61,2.61,0,0,1,770,282.34Zm1-5a4.16,4.16,0,0,0,.54,2.39,1.59,1.59,0,0,0,1.32.75,1.61,1.61,0,0,0,1.33-.73,5.21,5.21,0,0,0,0-4.68,1.7,1.7,0,0,0-1.37-.76,1.57,1.57,0,0,0-1.27.76A3.94,3.94,0,0,0,770.93,277.35Z"/><path class="cls-4" d="M777.05,279.16l1.15-.21a2.06,2.06,0,0,0,.55,1.3,1.69,1.69,0,0,0,1.21.43,1.64,1.64,0,0,0,1.15-.37,1.23,1.23,0,0,0,.41-.94.93.93,0,0,0-.35-.77,4.64,4.64,0,0,0-1.17-.47,8.28,8.28,0,0,1-1.8-.7,2,2,0,0,1-.7-.77,2.36,2.36,0,0,1-.25-1.11,2.28,2.28,0,0,1,.68-1.72,2.58,2.58,0,0,1,1.88-.67,2.93,2.93,0,0,1,1.33.28,2,2,0,0,1,.88.73,3.15,3.15,0,0,1,.42,1.32l-1.12.19a1.35,1.35,0,0,0-1.48-1.36,1.76,1.76,0,0,0-1.12.3,1,1,0,0,0-.36.77.85.85,0,0,0,.35.72,6.55,6.55,0,0,0,1.25.5,9.14,9.14,0,0,1,1.85.72,1.89,1.89,0,0,1,.66.74,2.51,2.51,0,0,1,.23,1.1,2.58,2.58,0,0,1-.75,1.93,2.84,2.84,0,0,1-2.06.74C778.26,281.84,777.31,281,777.05,279.16Z"/><path class="cls-4" d="M788.9,281.65l-2.09-8.3H788l1.08,4.79.41,1.78.35-1.71,1.08-4.86h1.2l1,4.81.34,1.59.39-1.6,1.16-4.8h1.13l-2.13,8.3h-1.2l-1.08-5-.26-1.41-1.38,6.38Z"/><path class="cls-4" d="M801.76,279l1.19.18a3.67,3.67,0,0,1-1.07,2,2.84,2.84,0,0,1-1.93.68,2.89,2.89,0,0,1-2.34-1.1,4.89,4.89,0,0,1-.89-3.17,5.19,5.19,0,0,1,.9-3.28,2.8,2.8,0,0,1,2.28-1.13,2.72,2.72,0,0,1,2.21,1.11,5.05,5.05,0,0,1,.88,3.21v.38H797.9a3.64,3.64,0,0,0,.65,2.11,1.78,1.78,0,0,0,1.41.71C800.82,280.68,801.42,280.11,801.76,279ZM798,276.7h3.8a3.21,3.21,0,0,0-.46-1.61,1.68,1.68,0,0,0-2.73-.13A2.82,2.82,0,0,0,798,276.7Z"/><path class="cls-4" d="M804.41,281.65v-8.3h1v1.26a3.67,3.67,0,0,1,.73-1.16,1.12,1.12,0,0,1,.75-.29,2,2,0,0,1,1.18.46l-.39,1.3a1.49,1.49,0,0,0-.84-.3,1,1,0,0,0-.67.26,1.32,1.32,0,0,0-.43.71,6.36,6.36,0,0,0-.22,1.71v4.35Z"/><path class="cls-4" d="M813.43,279l1.18.18a3.55,3.55,0,0,1-1.07,2,2.84,2.84,0,0,1-1.93.68,2.89,2.89,0,0,1-2.34-1.1,5,5,0,0,1-.89-3.17,5.19,5.19,0,0,1,.9-3.28,2.82,2.82,0,0,1,2.29-1.13,2.71,2.71,0,0,1,2.2,1.11,5.05,5.05,0,0,1,.88,3.21v.38h-5.08a3.5,3.5,0,0,0,.65,2.11,1.75,1.75,0,0,0,1.4.71C812.49,280.68,813.09,280.11,813.43,279Zm-3.79-2.28h3.79a3.11,3.11,0,0,0-.46-1.61,1.68,1.68,0,0,0-2.73-.13A2.82,2.82,0,0,0,809.64,276.7Z"/><path class="cls-4" d="M822.22,280.39l.16,1.24a3.21,3.21,0,0,1-.86.13,1.74,1.74,0,0,1-1-.24,1.19,1.19,0,0,1-.5-.65,6.39,6.39,0,0,1-.14-1.65v-4.77h-.84v-1.1h.84V271.3l1.15-.85v2.9h1.16v1.1h-1.16v4.85a2.2,2.2,0,0,0,.1.86.56.56,0,0,0,.55.29A2.86,2.86,0,0,0,822.22,280.39Z"/><path class="cls-4" d="M823.31,281.65V270.2h1.15v4.1a2.8,2.8,0,0,1,.91-.85,2.29,2.29,0,0,1,1.13-.29,2.18,2.18,0,0,1,1.72.7,3.8,3.8,0,0,1,.63,2.53v5.26H827.7v-5.26a2.52,2.52,0,0,0-.38-1.55,1.3,1.3,0,0,0-1.06-.46,1.64,1.64,0,0,0-1.28.6,3.28,3.28,0,0,0-.52,2.13v4.54Z"/><path class="cls-4" d="M835,280.62a4,4,0,0,1-1.2.91,3,3,0,0,1-1.3.31,2.3,2.3,0,0,1-1.69-.64,2.37,2.37,0,0,1-.63-1.73,2.62,2.62,0,0,1,.29-1.27,2.22,2.22,0,0,1,.82-.87,4.2,4.2,0,0,1,1.56-.46,8.87,8.87,0,0,0,2.06-.49V276a1.78,1.78,0,0,0-.31-1.2,1.64,1.64,0,0,0-1.32-.5,1.87,1.87,0,0,0-1.2.33,2.21,2.21,0,0,0-.59,1.26l-1.13-.19a3.18,3.18,0,0,1,1-2,3.29,3.29,0,0,1,2.12-.61,3,3,0,0,1,1.67.41,1.67,1.67,0,0,1,.77,1,7,7,0,0,1,.16,1.74v1.87a23.12,23.12,0,0,0,.08,2.48,3.94,3.94,0,0,0,.29,1h-1.2A3.63,3.63,0,0,1,835,280.62Zm-.09-3.14a7.34,7.34,0,0,1-1.88.54,3.33,3.33,0,0,0-1,.28,1.21,1.21,0,0,0-.45.45,1.48,1.48,0,0,0-.16.68,1.24,1.24,0,0,0,.37.95,1.38,1.38,0,0,0,1,.35,2,2,0,0,0,1.87-1.17,3.78,3.78,0,0,0,.25-1.56Z"/><path class="cls-4" d="M840.46,280.39l.16,1.24a3.15,3.15,0,0,1-.86.13,1.76,1.76,0,0,1-1-.24,1.24,1.24,0,0,1-.5-.65,6.39,6.39,0,0,1-.14-1.65v-4.77h-.84v-1.1h.84V271.3l1.15-.85v2.9h1.16v1.1H839.3v4.85a2.2,2.2,0,0,0,.1.86.58.58,0,0,0,.56.29A2.67,2.67,0,0,0,840.46,280.39Z"/><path class="cls-4" d="M849.78,279l1.19.18a3.61,3.61,0,0,1-1.07,2,2.84,2.84,0,0,1-1.93.68,2.89,2.89,0,0,1-2.34-1.1,4.89,4.89,0,0,1-.89-3.17,5.19,5.19,0,0,1,.9-3.28,2.8,2.8,0,0,1,2.28-1.13,2.72,2.72,0,0,1,2.21,1.11,5.05,5.05,0,0,1,.88,3.21v.38h-5.08a3.64,3.64,0,0,0,.65,2.11,1.78,1.78,0,0,0,1.41.71C848.84,280.68,849.44,280.11,849.78,279ZM846,276.7h3.8a3.21,3.21,0,0,0-.46-1.61,1.68,1.68,0,0,0-2.73-.13A2.82,2.82,0,0,0,846,276.7Z"/><path class="cls-4" d="M856.86,280.62a4,4,0,0,1-1.2.91,3,3,0,0,1-1.3.31,2.28,2.28,0,0,1-1.69-.64,2.34,2.34,0,0,1-.64-1.73,2.62,2.62,0,0,1,.3-1.27,2.27,2.27,0,0,1,.81-.87,4.33,4.33,0,0,1,1.57-.46,9,9,0,0,0,2.06-.49V276a1.84,1.84,0,0,0-.31-1.2,1.67,1.67,0,0,0-1.32-.5,1.83,1.83,0,0,0-1.2.33,2.21,2.21,0,0,0-.59,1.26l-1.13-.19a3.18,3.18,0,0,1,1-2,3.27,3.27,0,0,1,2.11-.61,3,3,0,0,1,1.68.41,1.67,1.67,0,0,1,.77,1,7,7,0,0,1,.16,1.74v1.87a23.12,23.12,0,0,0,.08,2.48,3.58,3.58,0,0,0,.29,1h-1.2A3.63,3.63,0,0,1,856.86,280.62Zm-.09-3.14a7.31,7.31,0,0,1-1.89.54,3.33,3.33,0,0,0-1,.28,1.21,1.21,0,0,0-.45.45,1.37,1.37,0,0,0-.16.68,1.24,1.24,0,0,0,.37.95,1.37,1.37,0,0,0,1,.35,2,2,0,0,0,1.12-.32,2,2,0,0,0,.76-.85,4,4,0,0,0,.25-1.56Z"/><path class="cls-4" d="M859.28,279.16l1.15-.21a2,2,0,0,0,.56,1.3,1.93,1.93,0,0,0,2.35.06,1.19,1.19,0,0,0,.41-.94.93.93,0,0,0-.35-.77,4.64,4.64,0,0,0-1.17-.47,8.28,8.28,0,0,1-1.8-.7,2,2,0,0,1-.7-.77,2.36,2.36,0,0,1-.25-1.11,2.31,2.31,0,0,1,.68-1.72,2.58,2.58,0,0,1,1.88-.67,2.93,2.93,0,0,1,1.33.28,2,2,0,0,1,.88.73,3,3,0,0,1,.42,1.32l-1.12.19a1.35,1.35,0,0,0-1.48-1.36,1.71,1.71,0,0,0-1.11.3.94.94,0,0,0-.37.77.87.87,0,0,0,.35.72,6.55,6.55,0,0,0,1.25.5,9.14,9.14,0,0,1,1.85.72,1.89,1.89,0,0,1,.66.74,2.51,2.51,0,0,1,.23,1.1,2.58,2.58,0,0,1-.75,1.93,2.84,2.84,0,0,1-2.06.74C860.49,281.84,859.54,281,859.28,279.16Z"/><path class="cls-4" d="M866.25,284.84l-.12-1.32a2,2,0,0,0,.65.13,1.13,1.13,0,0,0,.61-.15,1.14,1.14,0,0,0,.4-.46q0-.1.45-1.38l-2.59-8.31h1.24l1.42,4.8c.18.6.35,1.24.5,1.92.13-.64.28-1.27.47-1.89l1.45-4.83h1.15l-2.58,8.44a14.86,14.86,0,0,1-.8,2.19,2.06,2.06,0,0,1-.66.79,1.53,1.53,0,0,1-.84.25A1.94,1.94,0,0,1,866.25,284.84Z"/><path class="cls-4" d="M872.27,281.65v-1.6h1.31v1.6Z"/><path class="cls-4" d="M875.92,281.65v-1.6h1.31v1.6Z"/><path class="cls-4" d="M879.57,281.65v-1.6h1.31v1.6Z"/><path class="cls-4" d="M924.6,280.3v1.35h-6.21a3.9,3.9,0,0,1,.5-1.84,10.09,10.09,0,0,1,1.9-2.4,13.65,13.65,0,0,0,2.12-2.49,3.39,3.39,0,0,0,.5-1.64,2,2,0,0,0-.52-1.42,1.65,1.65,0,0,0-1.26-.56,1.68,1.68,0,0,0-1.32.6,2.57,2.57,0,0,0-.51,1.71l-1.19-.15a3.85,3.85,0,0,1,.93-2.48,2.85,2.85,0,0,1,2.13-.83,2.56,2.56,0,0,1,2.18,1,3.54,3.54,0,0,1,.74,2.2,4.21,4.21,0,0,1-.58,2.1,15.77,15.77,0,0,1-2.2,2.67c-.69.71-1.13,1.19-1.33,1.44a4.71,4.71,0,0,0-.49.77Z"/><path class="cls-4" d="M926,279l1.11-.12c.18,1.2.7,1.81,1.56,1.81a1.55,1.55,0,0,0,1.05-.4,3,3,0,0,0,.81-1.4,7.9,7.9,0,0,0,.32-2.35v-.28a2.94,2.94,0,0,1-1,1.1,2.27,2.27,0,0,1-1.25.41,2.52,2.52,0,0,1-2-1,4.19,4.19,0,0,1-.83-2.74,4.34,4.34,0,0,1,.86-2.84,2.65,2.65,0,0,1,2.1-1,2.6,2.6,0,0,1,1.63.58,3.63,3.63,0,0,1,1.18,1.7,10,10,0,0,1,.41,3.24,11.72,11.72,0,0,1-.45,3.67,3.9,3.9,0,0,1-1.2,1.9,2.7,2.7,0,0,1-1.71.6,2.41,2.41,0,0,1-1.79-.73A3.41,3.41,0,0,1,926,279Zm4.73-5.06a3,3,0,0,0-.55-1.93,1.58,1.58,0,0,0-1.26-.71,1.66,1.66,0,0,0-1.33.76,3.15,3.15,0,0,0-.58,2,2.7,2.7,0,0,0,.56,1.79,1.66,1.66,0,0,0,1.33.67,1.61,1.61,0,0,0,1.3-.67A3,3,0,0,0,930.72,273.94Z"/><g class="cls-2"><path class="cls-3" d="M520.47,18.06C479,92.7,437.56,165.12,386.78,236c7.21-4.18,16.63-7.44,23.85-11.11C439.86,210,465,189.56,491.66,172,476,186.29,460.28,202.26,441.5,214c21.4-11.15,44-24.36,57.9-42,6.25-7.92,6.37-17.8,13-25.42q-25.36,33.94-50,68.23l-73.84,99.81q-33,32.83-49.67,71.76c3.89-3.8,16.53-10.11,19.81-12.49,41.76-30.22,73.77-71,105.74-107.65-2.73,3-6.1,4.84-9.61,7.39-11.4,8.28-20.66,18.2-29.81,28,1.79,1,18.23-9.46,22.36-10.56,2.88,6.17-13.05,18.15-17.42,22.51,7-3.11,14-8.27,21.16-10.4-8.61,16.67-20,31.59-33,46.29,26.73-10,48.39-28.89,72.29-42.48,7.76,6.68-31.88,42.87-35.55,50.32,23.9-12.84,48.43-24,67-41.49q-62.29,92.09-131,181.28L279.61,634.28a423,423,0,0,1-76.24,80.22l16-18.91"/><path class="cls-3" d="M662.4,70.2c9.37-3.43,30.9-14.23,39.2-7.62-6.17,8.94-20.19,22.52-20.54,33.72q9.18-.93,18.4-1.21c7.15-.48,36.45-7,42.17-1.33-1.51,1.23-20.74,15.51-19,17.94,22.57-10.54,47.1-16,71.3-21.45a125.07,125.07,0,0,0-18.57,21.37c15.87-6.34,33.87-18,51.17-18.73-3.9,8-11.53,15.16-13.37,24,4.54,2.77,15.1-4.3,18-5.8,8.36-4.31,17.55-11.89,26.84-14.17-2.79,14.56-7.65,28.68-11.3,43q12,.23,21.67-8.87C906,113.25,943.5,94.31,983.37,82c-13.78,20.72-25.78,44.55-42,63.37,2.26-2.68,4.08-6.23,7-8.17a21.83,21.83,0,0,0,6.72-2.42c4.73-2.39,8.19-7.72,13.51-8.51q-.79,22.2-3.12,44.3-8.18,12.8.21,17.3C972.2,180.3,975.87,170.47,981,162"/></g></g></svg>