<svg id="Layer_1" data-name="Layer 1" xmlns="http://www.w3.org/2000/svg" xmlns:xlink="http://www.w3.org/1999/xlink" viewBox="0 0 1080 756"><defs><style>.cls-1,.cls-3{fill:none;}.cls-2{clip-path:url(#clip-path);}.cls-3{stroke:#231f20;stroke-width:0.25px;}.cls-4{fill:#231f20;}</style><clipPath id="clip-path"><rect class="cls-1" width="1080" height="756"/></clipPath></defs><title>Untitled-3</title><g class="cls-2"><g class="cls-2"><line class="cls-3" x1="180" y1="-18.36" x2="180" y2="790.92"/><line class="cls-3" x1="720" y1="-20.88" x2="720" y2="788.4"/><line class="cls-3" x1="359.88" y1="-18.36" x2="359.88" y2="790.92"/><line class="cls-3" x1="899.87" y1="-20.88" x2="899.87" y2="788.4"/><line class="cls-3" x1="-16.92" y1="251.88" x2="1101.6" y2="251.88"/><line class="cls-3" x1="-11.52" y1="504.13" x2="1107" y2="504.13"/><line class="cls-3" x1="540" y1="-19.44" x2="540" y2="789.84"/></g><path class="cls-4" d="M383.3,26.61l1.14.18a3.79,3.79,0,0,1-1,2.26,2.58,2.58,0,0,1-1.89.79,2.7,2.7,0,0,1-2.2-1.1,5.23,5.23,0,0,1-.86-3.25,5.09,5.09,0,0,1,.87-3.24,2.73,2.73,0,0,1,2.24-1.09,2.52,2.52,0,0,1,1.77.66,3.21,3.21,0,0,1,.93,2l-1.12.2a2.39,2.39,0,0,0-.57-1.25,1.3,1.3,0,0,0-1-.42,1.69,1.69,0,0,0-1.41.75,4,4,0,0,0-.56,2.4,4.38,4.38,0,0,0,.53,2.45,1.62,1.62,0,0,0,1.37.76,1.47,1.47,0,0,0,1.12-.5A2.74,2.74,0,0,0,383.3,26.61Z"/><path class="cls-4" d="M389.87,29.65V28.43a3,3,0,0,1-.94,1.05,2.16,2.16,0,0,1-1.22.36,2.18,2.18,0,0,1-1.37-.44,2.08,2.08,0,0,1-.77-1.1,7.09,7.09,0,0,1-.19-1.81V21.35h1.15V26a7.06,7.06,0,0,0,.13,1.72,1.32,1.32,0,0,0,.48.69,1.23,1.23,0,0,0,.79.26,1.66,1.66,0,0,0,1.36-.67,3.73,3.73,0,0,0,.45-2.15V21.35h1.16v8.3Z"/><path class="cls-4" d="M392.71,29.65v-8.3h1v1.26a3.67,3.67,0,0,1,.73-1.16,1.12,1.12,0,0,1,.75-.29,2,2,0,0,1,1.18.46l-.39,1.3a1.49,1.49,0,0,0-.84-.3,1,1,0,0,0-.67.26,1.32,1.32,0,0,0-.43.71,6.36,6.36,0,0,0-.22,1.71v4.35Z"/><path class="cls-4" d="M396.63,27.16l1.15-.21a2.06,2.06,0,0,0,.55,1.3,1.69,1.69,0,0,0,1.21.43,1.64,1.64,0,0,0,1.15-.37,1.23,1.23,0,0,0,.41-.94.93.93,0,0,0-.35-.77,4.64,4.64,0,0,0-1.17-.47,8.28,8.28,0,0,1-1.8-.7,2,2,0,0,1-.7-.77,2.36,2.36,0,0,1-.25-1.11,2.28,2.28,0,0,1,.68-1.72,2.58,2.58,0,0,1,1.88-.67,2.93,2.93,0,0,1,1.33.28,2,2,0,0,1,.88.73,3.15,3.15,0,0,1,.42,1.32l-1.12.19a1.35,1.35,0,0,0-1.48-1.36,1.76,1.76,0,0,0-1.12.3,1,1,0,0,0-.36.77.85.85,0,0,0,.35.72,6.55,6.55,0,0,0,1.25.5,9.14,9.14,0,0,1,1.85.72,1.89,1.89,0,0,1,.66.74,2.51,2.51,0,0,1,.23,1.1,2.58,2.58,0,0,1-.75,1.93,2.84,2.84,0,0,1-2.06.74C397.84,29.84,396.89,29,396.63,27.16Z"/><path class="cls-4" d="M403.2,25.5a5,5,0,0,1,.91-3.24,2.9,2.9,0,0,1,4.55,0,4.79,4.79,0,0,1,.92,3.15,5.17,5.17,0,0,1-.9,3.33,2.92,2.92,0,0,1-4.57,0A5,5,0,0,1,403.2,25.5Zm1.18,0a4,4,0,0,0,.59,2.39,1.74,1.74,0,0,0,1.45.79,1.7,1.7,0,0,0,1.4-.79,4.11,4.11,0,0,0,.58-2.39,4,4,0,0,0-.59-2.39,1.74,1.74,0,0,0-1.45-.79,1.69,1.69,0,0,0-1.4.79A4.08,4.08,0,0,0,404.38,25.5Z"/><path class="cls-4" d="M410.94,29.65v-8.3h1v1.26a3.5,3.5,0,0,1,.73-1.16,1.12,1.12,0,0,1,.74-.29,2,2,0,0,1,1.18.46l-.39,1.3a1.43,1.43,0,0,0-.83-.3,1,1,0,0,0-.68.26,1.45,1.45,0,0,0-.43.71,6.79,6.79,0,0,0-.21,1.71v4.35Z"/><path class="cls-4" d="M198.52,278.62l1.15-.19c.24,1.5.85,2.26,1.83,2.26a1.8,1.8,0,0,0,1.37-.67,2.6,2.6,0,0,0,.58-1.73,2.37,2.37,0,0,0-.54-1.62,1.68,1.68,0,0,0-1.3-.61,2.55,2.55,0,0,0-.81.16l.13-1.24.18,0a1.81,1.81,0,0,0,1.92-1.92,1.84,1.84,0,0,0-.45-1.29,1.42,1.42,0,0,0-1.08-.49,1.47,1.47,0,0,0-1.13.52,2.77,2.77,0,0,0-.58,1.55l-1.15-.25a3.82,3.82,0,0,1,1-2.22,2.66,2.66,0,0,1,3.79.09,2.94,2.94,0,0,1,.8,2.13,2.72,2.72,0,0,1-.34,1.38,2.43,2.43,0,0,1-.94.94,2.23,2.23,0,0,1,.93.52,2.66,2.66,0,0,1,.59,1,3.81,3.81,0,0,1,.22,1.34,3.65,3.65,0,0,1-.93,2.58,2.92,2.92,0,0,1-2.22,1,2.7,2.7,0,0,1-2-.87A3.71,3.71,0,0,1,198.52,278.62Z"/><path class="cls-4" d="M205.82,276a9.67,9.67,0,0,1,.78-4.37,2.46,2.46,0,0,1,2.29-1.48,2.4,2.4,0,0,1,2.12,1.2A8.89,8.89,0,0,1,212,276a9.68,9.68,0,0,1-.78,4.36,2.45,2.45,0,0,1-2.29,1.48,2.53,2.53,0,0,1-2.2-1.31A8.72,8.72,0,0,1,205.82,276Zm1.18,0a8.61,8.61,0,0,0,.54,3.74,1.56,1.56,0,0,0,1.37.95,1.53,1.53,0,0,0,1.32-1,13.22,13.22,0,0,0,0-7.48,1.59,1.59,0,0,0-1.39-.95,1.52,1.52,0,0,0-1.31,1A8.78,8.78,0,0,0,207,276Z"/><path class="cls-4" d="M739,29.75v-8.3h1v1.17a2.76,2.76,0,0,1,.91-1,2.45,2.45,0,0,1,2.26-.12,2.05,2.05,0,0,1,.75.56,2.21,2.21,0,0,1,.42.9,7.19,7.19,0,0,1,.14,1.7v5.11h-1.15V24.69a4.27,4.27,0,0,0-.15-1.33,1.44,1.44,0,0,0-.49-.66,1.34,1.34,0,0,0-.77-.23,1.61,1.61,0,0,0-1.32.62,3.46,3.46,0,0,0-.49,2.12v4.54Z"/><path class="cls-4" d="M750.91,27.07l1.19.18a3.6,3.6,0,0,1-1.07,2,2.84,2.84,0,0,1-1.93.67,2.88,2.88,0,0,1-2.34-1.09,5,5,0,0,1-.89-3.17,5.17,5.17,0,0,1,.9-3.28,2.8,2.8,0,0,1,2.28-1.13,2.72,2.72,0,0,1,2.21,1.11,5.05,5.05,0,0,1,.88,3.21V26h-5.08a3.67,3.67,0,0,0,.65,2.11,1.78,1.78,0,0,0,1.41.71C750,28.78,750.58,28.21,750.91,27.07Zm-3.79-2.27h3.8a3.11,3.11,0,0,0-.46-1.61,1.68,1.68,0,0,0-1.41-.77,1.66,1.66,0,0,0-1.32.64A2.82,2.82,0,0,0,747.12,24.8Z"/><path class="cls-4" d="M753.56,29.75v-8.3h1v1.26a3.56,3.56,0,0,1,.73-1.16,1.12,1.12,0,0,1,.75-.29,2,2,0,0,1,1.18.45L756.87,23a1.51,1.51,0,0,0-.84-.31,1,1,0,0,0-.67.26,1.37,1.37,0,0,0-.43.72,6.36,6.36,0,0,0-.22,1.71v4.35Z"/><path class="cls-4" d="M759.83,29.75l-2.59-8.3h1.22l1.46,5c.17.56.32,1.12.44,1.67.1-.44.24-1,.43-1.58l1.51-5.06h1.19l-2.59,8.3Z"/><path class="cls-4" d="M769.14,27.07l1.19.18a3.61,3.61,0,0,1-1.08,2,2.81,2.81,0,0,1-1.92.67A2.86,2.86,0,0,1,765,28.84a4.91,4.91,0,0,1-.9-3.17,5.11,5.11,0,0,1,.91-3.28,2.8,2.8,0,0,1,2.28-1.13,2.69,2.69,0,0,1,2.2,1.11,5.05,5.05,0,0,1,.89,3.21V26h-5.08a3.6,3.6,0,0,0,.65,2.11,1.77,1.77,0,0,0,1.41.71Q768.63,28.78,769.14,27.07Zm-3.79-2.27h3.8a3.21,3.21,0,0,0-.46-1.61,1.69,1.69,0,0,0-2.74-.13A2.88,2.88,0,0,0,765.35,24.8Z"/><path class="cls-4" d="M780.09,27.07l1.18.18a3.54,3.54,0,0,1-1.07,2,2.84,2.84,0,0,1-1.93.67,2.88,2.88,0,0,1-2.34-1.09,5,5,0,0,1-.89-3.17,5.17,5.17,0,0,1,.9-3.28,2.81,2.81,0,0,1,2.29-1.13,2.71,2.71,0,0,1,2.2,1.11,5.05,5.05,0,0,1,.88,3.21V26h-5.07a3.53,3.53,0,0,0,.65,2.11,1.75,1.75,0,0,0,1.4.71C779.15,28.78,779.75,28.21,780.09,27.07ZM776.3,24.8h3.79a3.11,3.11,0,0,0-.46-1.61,1.68,1.68,0,0,0-1.41-.77,1.66,1.66,0,0,0-1.32.64A2.76,2.76,0,0,0,776.3,24.8Z"/><path class="cls-4" d="M782.73,29.75v-8.3h1v1.17a2.78,2.78,0,0,1,.92-1,2.43,2.43,0,0,1,2.25-.12,2.05,2.05,0,0,1,.75.56,2.36,2.36,0,0,1,.43.9,7.77,7.77,0,0,1,.14,1.7v5.11h-1.15V24.69a3.93,3.93,0,0,0-.16-1.33,1.29,1.29,0,0,0-1.25-.89,1.59,1.59,0,0,0-1.32.62,3.45,3.45,0,0,0-.5,2.12v4.54Z"/><path class="cls-4" d="M794.44,29.75V28.7a2.36,2.36,0,0,1-.81.92,1.93,1.93,0,0,1-1.06.31,2.58,2.58,0,0,1-2.08-1.13,5.12,5.12,0,0,1-.88-3.2,6.56,6.56,0,0,1,.39-2.4,3.24,3.24,0,0,1,1-1.46,2.38,2.38,0,0,1,1.45-.48,1.94,1.94,0,0,1,1,.3,2.33,2.33,0,0,1,.81.84V18.29h1.17V29.75Zm-3.65-4.14a4.15,4.15,0,0,0,.56,2.39,1.58,1.58,0,0,0,1.3.78,1.55,1.55,0,0,0,1.27-.75,3.9,3.9,0,0,0,.54-2.27,4.63,4.63,0,0,0-.54-2.54,1.58,1.58,0,0,0-1.36-.8,1.49,1.49,0,0,0-1.25.77A4.37,4.37,0,0,0,790.79,25.61Z"/><path class="cls-4" d="M797.33,19.91V18.29h1.15v1.62Zm0,9.84v-8.3h1.15v8.3Z"/><path class="cls-4" d="M800.24,29.75v-8.3h1v1.17a2.78,2.78,0,0,1,.92-1,2.43,2.43,0,0,1,2.25-.12,2.05,2.05,0,0,1,.75.56,2.21,2.21,0,0,1,.42.9,7.08,7.08,0,0,1,.15,1.7v5.11h-1.15V24.69a3.93,3.93,0,0,0-.16-1.33,1.37,1.37,0,0,0-.49-.66,1.32,1.32,0,0,0-.77-.23,1.61,1.61,0,0,0-1.32.62,3.46,3.46,0,0,0-.49,2.12v4.54Z"/><path class="cls-4" d="M807.31,30.43l1.13.21a1.46,1.46,0,0,0,.47,1A1.62,1.62,0,0,0,810,32a1.82,1.82,0,0,0,1.21-.37,1.85,1.85,0,0,0,.61-1.08,10,10,0,0,0,.1-1.84,2.75,2.75,0,0,1-.84.8,2,2,0,0,1-1,.28,2.46,2.46,0,0,1-2-1,5,5,0,0,1-.92-3.17,6.2,6.2,0,0,1,.4-2.34,3.2,3.2,0,0,1,1.07-1.47,2.51,2.51,0,0,1,1.48-.47,2.09,2.09,0,0,1,1.1.3,2.73,2.73,0,0,1,.88.88v-1h1.06v7.17a8.64,8.64,0,0,1-.31,2.73,2.59,2.59,0,0,1-1,1.29,3,3,0,0,1-1.71.47,2.71,2.71,0,0,1-2-.71A2.62,2.62,0,0,1,807.31,30.43Zm1-5a4.16,4.16,0,0,0,.54,2.39,1.59,1.59,0,0,0,1.32.75,1.63,1.63,0,0,0,1.33-.74,3.92,3.92,0,0,0,.55-2.34,3.9,3.9,0,0,0-.57-2.33,1.64,1.64,0,0,0-1.37-.76,1.53,1.53,0,0,0-1.26.76A3.94,3.94,0,0,0,808.27,25.45Z"/><path class="cls-4" d="M814.39,27.26l1.15-.22a2.09,2.09,0,0,0,.55,1.31,1.94,1.94,0,0,0,2.36.06,1.25,1.25,0,0,0,.41-.95.92.92,0,0,0-.35-.76,4.27,4.27,0,0,0-1.17-.47,8.84,8.84,0,0,1-1.8-.7,2,2,0,0,1-.7-.78,2.32,2.32,0,0,1-.25-1.1,2.26,2.26,0,0,1,.68-1.72,2.54,2.54,0,0,1,1.88-.67,3,3,0,0,1,1.33.28,2.06,2.06,0,0,1,.88.73,3.3,3.3,0,0,1,.42,1.32l-1.12.19a1.35,1.35,0,0,0-1.48-1.36,1.76,1.76,0,0,0-1.12.3.94.94,0,0,0-.36.76.85.85,0,0,0,.35.73,6.55,6.55,0,0,0,1.25.5,9.4,9.4,0,0,1,1.85.72,1.89,1.89,0,0,1,.66.74,2.48,2.48,0,0,1,.23,1.1,2.58,2.58,0,0,1-.75,1.93,2.84,2.84,0,0,1-2.06.73C815.6,29.93,814.65,29,814.39,27.26Z"/><path class="cls-4" d="M824.6,27.26l1.15-.22a2.09,2.09,0,0,0,.55,1.31,1.94,1.94,0,0,0,2.36.06,1.25,1.25,0,0,0,.41-.95.92.92,0,0,0-.35-.76,4.27,4.27,0,0,0-1.17-.47,8.84,8.84,0,0,1-1.8-.7,2,2,0,0,1-.7-.78,2.32,2.32,0,0,1-.25-1.1,2.26,2.26,0,0,1,.68-1.72,2.54,2.54,0,0,1,1.88-.67,3,3,0,0,1,1.33.28,2.06,2.06,0,0,1,.88.73,3.3,3.3,0,0,1,.42,1.32l-1.12.19a1.35,1.35,0,0,0-1.48-1.36,1.76,1.76,0,0,0-1.12.3.94.94,0,0,0-.36.76.85.85,0,0,0,.35.73,6.55,6.55,0,0,0,1.25.5,9.4,9.4,0,0,1,1.85.72,1.89,1.89,0,0,1,.66.74,2.48,2.48,0,0,1,.23,1.1,2.58,2.58,0,0,1-.75,1.93,2.84,2.84,0,0,1-2.06.73C825.81,29.93,824.86,29,824.6,27.26Z"/><path class="cls-4" d="M831.61,29.75V18.29h1.15V22.4a2.73,2.73,0,0,1,.92-.85,2.25,2.25,0,0,1,1.12-.29,2.21,2.21,0,0,1,1.72.69,3.84,3.84,0,0,1,.63,2.54v5.26H836V24.49a2.5,2.5,0,0,0-.38-1.55,1.31,1.31,0,0,0-1.06-.47,1.62,1.62,0,0,0-1.27.6,3.27,3.27,0,0,0-.53,2.14v4.54Z"/><path class="cls-4" d="M843.36,29.75V28.53a3,3,0,0,1-.94,1,2.13,2.13,0,0,1-1.22.35,2.2,2.2,0,0,1-1.37-.43,2,2,0,0,1-.76-1.1,6.66,6.66,0,0,1-.19-1.81V21.45H840v4.6a7.62,7.62,0,0,0,.13,1.72,1.36,1.36,0,0,0,.48.69,1.23,1.23,0,0,0,.79.26,1.63,1.63,0,0,0,1.36-.68,3.69,3.69,0,0,0,.45-2.15V21.45h1.16v8.3Z"/><path class="cls-4" d="M850.61,29.75V28.7a2.36,2.36,0,0,1-.81.92,1.9,1.9,0,0,1-1.06.31,2.6,2.6,0,0,1-2.08-1.13,5.12,5.12,0,0,1-.88-3.2,6.56,6.56,0,0,1,.39-2.4,3.24,3.24,0,0,1,1-1.46,2.4,2.4,0,0,1,1.45-.48,2,2,0,0,1,1.06.3,2.39,2.39,0,0,1,.8.84V18.29h1.17V29.75ZM847,25.61a4.15,4.15,0,0,0,.56,2.39,1.6,1.6,0,0,0,1.3.78A1.56,1.56,0,0,0,850.1,28a3.9,3.9,0,0,0,.53-2.27,4.64,4.64,0,0,0-.53-2.54,1.59,1.59,0,0,0-1.36-.8,1.5,1.5,0,0,0-1.26.77A4.46,4.46,0,0,0,847,25.61Z"/><path class="cls-4" d="M857.91,29.75V28.7a2.36,2.36,0,0,1-.81.92,1.93,1.93,0,0,1-1.06.31A2.58,2.58,0,0,1,854,28.8a5.12,5.12,0,0,1-.88-3.2,6.56,6.56,0,0,1,.39-2.4,3.24,3.24,0,0,1,1-1.46,2.38,2.38,0,0,1,1.45-.48,1.94,1.94,0,0,1,1,.3,2.33,2.33,0,0,1,.81.84V18.29H859V29.75Zm-3.65-4.14a4.07,4.07,0,0,0,.56,2.39,1.58,1.58,0,0,0,1.3.78,1.55,1.55,0,0,0,1.27-.75,3.9,3.9,0,0,0,.54-2.27,4.63,4.63,0,0,0-.54-2.54,1.58,1.58,0,0,0-1.36-.8,1.49,1.49,0,0,0-1.25.77A4.37,4.37,0,0,0,854.26,25.61Z"/><path class="cls-4" d="M865.45,27.07l1.18.18a3.6,3.6,0,0,1-1.07,2,2.84,2.84,0,0,1-1.93.67,2.88,2.88,0,0,1-2.34-1.09,5,5,0,0,1-.89-3.17,5.17,5.17,0,0,1,.9-3.28,2.81,2.81,0,0,1,2.29-1.13,2.71,2.71,0,0,1,2.2,1.11,5.05,5.05,0,0,1,.88,3.21V26h-5.07a3.6,3.6,0,0,0,.64,2.11,1.78,1.78,0,0,0,1.41.71C864.5,28.78,865.11,28.21,865.45,27.07Zm-3.79-2.27h3.79a3.11,3.11,0,0,0-.46-1.61,1.68,1.68,0,0,0-1.41-.77,1.66,1.66,0,0,0-1.32.64A2.76,2.76,0,0,0,861.66,24.8Z"/><path class="cls-4" d="M868.09,29.75v-8.3h1v1.26a3.56,3.56,0,0,1,.73-1.16,1.12,1.12,0,0,1,.75-.29,2,2,0,0,1,1.18.45L871.4,23a1.51,1.51,0,0,0-.84-.31,1,1,0,0,0-.67.26,1.37,1.37,0,0,0-.43.72,6.79,6.79,0,0,0-.22,1.71v4.35Z"/><path class="cls-4" d="M743.4,47.92a4.43,4.43,0,0,1-1.2.91,3,3,0,0,1-1.3.3,2.27,2.27,0,0,1-1.7-.64,2.33,2.33,0,0,1-.63-1.72,2.66,2.66,0,0,1,.3-1.28,2.17,2.17,0,0,1,.81-.86,4,4,0,0,1,1.56-.46,8.64,8.64,0,0,0,2.06-.5v-.36a1.83,1.83,0,0,0-.3-1.19,1.67,1.67,0,0,0-1.32-.5,1.88,1.88,0,0,0-1.21.33,2.18,2.18,0,0,0-.58,1.25L738.77,43a3.13,3.13,0,0,1,1-2,3.26,3.26,0,0,1,2.11-.61,3.11,3.11,0,0,1,1.68.4,1.73,1.73,0,0,1,.77,1,6.92,6.92,0,0,1,.16,1.73v1.88a24.27,24.27,0,0,0,.07,2.48,3.7,3.7,0,0,0,.3,1h-1.21A3.33,3.33,0,0,1,743.4,47.92Zm-.1-3.14a7,7,0,0,1-1.88.53,3.59,3.59,0,0,0-1,.29,1.08,1.08,0,0,0-.45.45,1.37,1.37,0,0,0-.16.68,1.29,1.29,0,0,0,.36,1,1.45,1.45,0,0,0,1,.35,2,2,0,0,0,1.12-.32,1.92,1.92,0,0,0,.75-.85,3.78,3.78,0,0,0,.25-1.56Z"/><path class="cls-4" d="M745.82,46.46l1.15-.22a2.09,2.09,0,0,0,.55,1.31,1.94,1.94,0,0,0,2.36.06,1.24,1.24,0,0,0,.41-.94.93.93,0,0,0-.35-.77,4.27,4.27,0,0,0-1.17-.47,8.84,8.84,0,0,1-1.8-.7,1.89,1.89,0,0,1-.7-.78,2.32,2.32,0,0,1-.25-1.1,2.26,2.26,0,0,1,.68-1.72,2.54,2.54,0,0,1,1.88-.67,3,3,0,0,1,1.33.28,2.06,2.06,0,0,1,.88.73,3.3,3.3,0,0,1,.42,1.32l-1.12.19a1.35,1.35,0,0,0-1.48-1.36,1.76,1.76,0,0,0-1.12.3,1,1,0,0,0-.37.76.86.86,0,0,0,.36.73,6.55,6.55,0,0,0,1.25.5,9.4,9.4,0,0,1,1.85.72,1.89,1.89,0,0,1,.66.74,2.48,2.48,0,0,1,.23,1.1,2.55,2.55,0,0,1-.76,1.93,2.79,2.79,0,0,1-2.05.73C747,49.13,746.08,48.24,745.82,46.46Z"/><path class="cls-4" d="M761.12,46.27l1.19.18a3.6,3.6,0,0,1-1.07,2,2.84,2.84,0,0,1-1.93.67A2.88,2.88,0,0,1,757,48a5,5,0,0,1-.89-3.17,5.17,5.17,0,0,1,.9-3.28,2.81,2.81,0,0,1,2.29-1.13,2.71,2.71,0,0,1,2.2,1.11,5.05,5.05,0,0,1,.88,3.21v.38h-5.07a3.6,3.6,0,0,0,.64,2.11,1.78,1.78,0,0,0,1.41.71C760.18,48,760.79,47.41,761.12,46.27ZM757.34,44h3.79a3.11,3.11,0,0,0-.46-1.61,1.68,1.68,0,0,0-1.41-.77,1.66,1.66,0,0,0-1.32.64A2.76,2.76,0,0,0,757.34,44Z"/><path class="cls-4" d="M768.2,47.92a4.15,4.15,0,0,1-1.2.91,3,3,0,0,1-1.3.3,2.26,2.26,0,0,1-1.69-.64,2.33,2.33,0,0,1-.63-1.72,2.66,2.66,0,0,1,.29-1.28,2.17,2.17,0,0,1,.81-.86,4.14,4.14,0,0,1,1.57-.46,8.91,8.91,0,0,0,2.06-.5v-.36a1.77,1.77,0,0,0-.31-1.19,1.64,1.64,0,0,0-1.32-.5,1.85,1.85,0,0,0-1.2.33,2.18,2.18,0,0,0-.59,1.25L763.57,43a3.18,3.18,0,0,1,1-2,3.27,3.27,0,0,1,2.11-.61,3.07,3.07,0,0,1,1.68.4,1.69,1.69,0,0,1,.77,1,6.92,6.92,0,0,1,.16,1.73v1.88a23.12,23.12,0,0,0,.08,2.48,4.07,4.07,0,0,0,.29,1h-1.2A3.63,3.63,0,0,1,768.2,47.92Zm-.09-3.14a7,7,0,0,1-1.88.53,3.57,3.57,0,0,0-1,.29,1.21,1.21,0,0,0-.45.45,1.48,1.48,0,0,0-.16.68,1.26,1.26,0,0,0,.37,1,1.41,1.41,0,0,0,1,.35,2,2,0,0,0,1.13-.32,2.05,2.05,0,0,0,.75-.85,3.78,3.78,0,0,0,.25-1.56Z"/><path class="cls-4" d="M775.52,45.91l1.14.18a3.79,3.79,0,0,1-1,2.26,2.61,2.61,0,0,1-1.89.78,2.69,2.69,0,0,1-2.2-1.09,5.18,5.18,0,0,1-.86-3.25,5.14,5.14,0,0,1,.87-3.25,2.74,2.74,0,0,1,2.24-1.08,2.52,2.52,0,0,1,1.77.66,3.26,3.26,0,0,1,.93,2l-1.12.2a2.47,2.47,0,0,0-.57-1.26,1.34,1.34,0,0,0-1-.41,1.72,1.72,0,0,0-1.42.75,4.11,4.11,0,0,0-.55,2.4,4.32,4.32,0,0,0,.53,2.45,1.63,1.63,0,0,0,1.37.76,1.46,1.46,0,0,0,1.12-.51A2.68,2.68,0,0,0,775.52,45.91Z"/><path class="cls-4" d="M777.63,49V37.49h1.15V41.6a2.82,2.82,0,0,1,.92-.85,2.29,2.29,0,0,1,1.13-.29,2.2,2.2,0,0,1,1.71.69,3.84,3.84,0,0,1,.63,2.54V49H782V43.69a2.43,2.43,0,0,0-.38-1.55,1.29,1.29,0,0,0-1-.47,1.64,1.64,0,0,0-1.28.6,3.33,3.33,0,0,0-.53,2.14V49Z"/><path class="cls-4" d="M788.14,44.8a5,5,0,0,1,.9-3.24,2.91,2.91,0,0,1,4.56,0,4.79,4.79,0,0,1,.92,3.15,5.17,5.17,0,0,1-.9,3.33,2.94,2.94,0,0,1-4.57,0A5,5,0,0,1,788.14,44.8Zm1.18,0a4,4,0,0,0,.59,2.4,1.74,1.74,0,0,0,1.45.79,1.69,1.69,0,0,0,1.39-.8,4,4,0,0,0,.59-2.39,4,4,0,0,0-.59-2.39,1.75,1.75,0,0,0-1.45-.78,1.68,1.68,0,0,0-1.4.79A4,4,0,0,0,789.32,44.79Z"/><path class="cls-4" d="M796.2,49V41.74h-1V40.65h1v-.88a4,4,0,0,1,.2-1.47,1.56,1.56,0,0,1,.62-.74,1.92,1.92,0,0,1,1.06-.26,4.5,4.5,0,0,1,1.08.15L799,38.67a2.68,2.68,0,0,0-.68-.08.88.88,0,0,0-.73.27,1.66,1.66,0,0,0-.23,1v.77h1.33v1.09h-1.33V49Z"/><path class="cls-4" d="M805.73,47.69l.16,1.24a3.6,3.6,0,0,1-.86.13,1.76,1.76,0,0,1-1-.24,1.24,1.24,0,0,1-.5-.65,6.39,6.39,0,0,1-.14-1.65V41.74h-.84V40.65h.84V38.59l1.15-.84v2.9h1.16v1.09h-1.16v4.85a2.26,2.26,0,0,0,.1.87.57.57,0,0,0,.56.28A3.64,3.64,0,0,0,805.73,47.69Z"/><path class="cls-4" d="M806.82,49V37.49H808V41.6a2.82,2.82,0,0,1,.92-.85,2.26,2.26,0,0,1,1.13-.29,2.2,2.2,0,0,1,1.71.69,3.84,3.84,0,0,1,.63,2.54V49h-1.15V43.69a2.5,2.5,0,0,0-.38-1.55,1.31,1.31,0,0,0-1.06-.47,1.62,1.62,0,0,0-1.27.6,3.27,3.27,0,0,0-.53,2.14V49Z"/><path class="cls-4" d="M818.77,46.27l1.18.18a3.6,3.6,0,0,1-1.07,2,2.84,2.84,0,0,1-1.93.67A2.88,2.88,0,0,1,814.61,48a5,5,0,0,1-.89-3.17,5.17,5.17,0,0,1,.9-3.28,2.81,2.81,0,0,1,2.29-1.13,2.71,2.71,0,0,1,2.2,1.11,5.05,5.05,0,0,1,.88,3.21v.38h-5.07a3.6,3.6,0,0,0,.64,2.11A1.78,1.78,0,0,0,817,48C817.83,48,818.43,47.41,818.77,46.27ZM815,44h3.79a3.11,3.11,0,0,0-.46-1.61,1.68,1.68,0,0,0-1.41-.77,1.66,1.66,0,0,0-1.32.64A2.76,2.76,0,0,0,815,44Z"/><path class="cls-4" d="M821.42,49v-8.3h1v1.16a2.7,2.7,0,0,1,.88-1,2.17,2.17,0,0,1,1.18-.35,1.94,1.94,0,0,1,1.21.37,2,2,0,0,1,.71,1.08,3.1,3.1,0,0,1,.94-1.09,2,2,0,0,1,1.17-.36,1.89,1.89,0,0,1,1.54.67,3.22,3.22,0,0,1,.57,2.12V49H829.5V43.71a4.16,4.16,0,0,0-.13-1.26,1.13,1.13,0,0,0-.42-.57,1.07,1.07,0,0,0-.65-.21,1.49,1.49,0,0,0-1.22.59,3,3,0,0,0-.47,1.86V49h-1.15v-5.4a2.46,2.46,0,0,0-.32-1.46,1,1,0,0,0-.87-.42,1.46,1.46,0,0,0-1.24.64,4.2,4.2,0,0,0-.46,2.33V49Z"/><path class="cls-4" d="M840.42,47.92a4.15,4.15,0,0,1-1.2.91,3,3,0,0,1-1.3.3,2.25,2.25,0,0,1-1.69-.64,2.3,2.3,0,0,1-.64-1.72,2.66,2.66,0,0,1,.3-1.28,2.17,2.17,0,0,1,.81-.86,4.14,4.14,0,0,1,1.57-.46,8.91,8.91,0,0,0,2.06-.5v-.36a1.83,1.83,0,0,0-.31-1.19,1.65,1.65,0,0,0-1.32-.5,1.83,1.83,0,0,0-1.2.33,2.18,2.18,0,0,0-.59,1.25L835.79,43a3.18,3.18,0,0,1,1-2,3.27,3.27,0,0,1,2.11-.61,3.07,3.07,0,0,1,1.68.4,1.69,1.69,0,0,1,.77,1,6.92,6.92,0,0,1,.16,1.73v1.88a23.12,23.12,0,0,0,.08,2.48,3.67,3.67,0,0,0,.29,1h-1.2A3.63,3.63,0,0,1,840.42,47.92Zm-.09-3.14a7,7,0,0,1-1.88.53,3.57,3.57,0,0,0-1,.29,1.21,1.21,0,0,0-.45.45,1.37,1.37,0,0,0-.16.68,1.26,1.26,0,0,0,.37,1,1.41,1.41,0,0,0,1,.35,2,2,0,0,0,1.12-.32,2,2,0,0,0,.76-.85,3.78,3.78,0,0,0,.25-1.56Z"/><path class="cls-4" d="M843.29,49v-8.3h1v1.26a3.4,3.4,0,0,1,.73-1.16,1.12,1.12,0,0,1,.74-.29,1.92,1.92,0,0,1,1.18.46l-.39,1.3a1.43,1.43,0,0,0-.83-.3,1,1,0,0,0-.67.25,1.31,1.31,0,0,0-.43.72,6.36,6.36,0,0,0-.22,1.71V49Z"/><path class="cls-4" d="M852.3,46.27l1.19.18a3.6,3.6,0,0,1-1.07,2,2.84,2.84,0,0,1-1.93.67A2.88,2.88,0,0,1,848.15,48a5,5,0,0,1-.89-3.17,5.17,5.17,0,0,1,.9-3.28,2.81,2.81,0,0,1,2.29-1.13,2.71,2.71,0,0,1,2.2,1.11,5.05,5.05,0,0,1,.88,3.21v.38h-5.07a3.6,3.6,0,0,0,.64,2.11,1.78,1.78,0,0,0,1.41.71C851.36,48,852,47.41,852.3,46.27ZM848.52,44h3.79a3.11,3.11,0,0,0-.46-1.61,1.68,1.68,0,0,0-1.41-.77,1.66,1.66,0,0,0-1.32.64A2.76,2.76,0,0,0,848.52,44Z"/><path class="cls-4" d="M743.42,65.11l1.13.18a3.73,3.73,0,0,1-1,2.26,2.57,2.57,0,0,1-1.88.78,2.67,2.67,0,0,1-2.2-1.09,5.18,5.18,0,0,1-.87-3.25,5.12,5.12,0,0,1,.88-3.25,2.73,2.73,0,0,1,2.23-1.08,2.53,2.53,0,0,1,1.78.66,3.24,3.24,0,0,1,.93,2l-1.12.2a2.47,2.47,0,0,0-.57-1.26,1.34,1.34,0,0,0-1-.41,1.71,1.71,0,0,0-1.41.75,4.08,4.08,0,0,0-.56,2.4,4.31,4.31,0,0,0,.54,2.45,1.63,1.63,0,0,0,1.37.76,1.46,1.46,0,0,0,1.12-.51A2.71,2.71,0,0,0,743.42,65.11Z"/><path class="cls-4" d="M750,67.12a4.28,4.28,0,0,1-1.2.91,3,3,0,0,1-1.3.3,2.25,2.25,0,0,1-1.69-.64,2.3,2.3,0,0,1-.64-1.72,2.66,2.66,0,0,1,.3-1.28,2.17,2.17,0,0,1,.81-.86,4.31,4.31,0,0,1,1.56-.47,8.48,8.48,0,0,0,2.07-.49v-.36a1.83,1.83,0,0,0-.31-1.19,1.63,1.63,0,0,0-1.32-.5,1.83,1.83,0,0,0-1.2.33,2.18,2.18,0,0,0-.59,1.25l-1.13-.18a2.73,2.73,0,0,1,3.09-2.56,3,3,0,0,1,1.68.4,1.73,1.73,0,0,1,.77,1,6.92,6.92,0,0,1,.16,1.73v1.88a23.12,23.12,0,0,0,.08,2.48,3.67,3.67,0,0,0,.29,1h-1.2A3.63,3.63,0,0,1,750,67.12ZM749.87,64a7,7,0,0,1-1.89.53,3.59,3.59,0,0,0-1,.29,1.15,1.15,0,0,0-.45.45,1.37,1.37,0,0,0-.16.68,1.26,1.26,0,0,0,.37.95,1.41,1.41,0,0,0,1,.35,2.06,2.06,0,0,0,1.12-.32,2,2,0,0,0,.76-.85,4,4,0,0,0,.25-1.56Z"/><path class="cls-4" d="M757.28,68.15V66.93a2.86,2.86,0,0,1-.94,1,2.13,2.13,0,0,1-1.22.35,2.2,2.2,0,0,1-1.37-.43,2.1,2.1,0,0,1-.76-1.1A6.71,6.71,0,0,1,752.8,65V59.85H754v4.6a7.88,7.88,0,0,0,.12,1.72,1.36,1.36,0,0,0,.48.69,1.25,1.25,0,0,0,.79.26,1.62,1.62,0,0,0,1.36-.68,3.67,3.67,0,0,0,.46-2.15V59.85h1.15v8.3Z"/><path class="cls-4" d="M762.69,66.89l.15,1.24a3.48,3.48,0,0,1-.86.12,1.71,1.71,0,0,1-1-.23,1.2,1.2,0,0,1-.51-.66,6.39,6.39,0,0,1-.13-1.64V60.94h-.85V59.85h.85V57.79l1.14-.84v2.9h1.17v1.09h-1.17v4.85a2.49,2.49,0,0,0,.1.87.57.57,0,0,0,.56.28A3.92,3.92,0,0,0,762.69,66.89Z"/><path class="cls-4" d="M768.42,65.47l1.19.18a3.67,3.67,0,0,1-1.07,2,2.84,2.84,0,0,1-1.93.67,2.88,2.88,0,0,1-2.34-1.09,4.91,4.91,0,0,1-.89-3.17,5.15,5.15,0,0,1,.9-3.28,2.8,2.8,0,0,1,2.28-1.13,2.72,2.72,0,0,1,2.21,1.11,5.11,5.11,0,0,1,.88,3.21v.38h-5.08a3.67,3.67,0,0,0,.65,2.11,1.78,1.78,0,0,0,1.41.71Q767.91,67.18,768.42,65.47Zm-3.79-2.27h3.8a3.21,3.21,0,0,0-.46-1.61,1.69,1.69,0,0,0-2.74-.13A2.88,2.88,0,0,0,764.63,63.2Z"/><path class="cls-4" d="M771.07,68.15v-8.3h1v1.26a3.56,3.56,0,0,1,.73-1.16,1.12,1.12,0,0,1,.75-.29,2,2,0,0,1,1.18.45l-.39,1.31a1.51,1.51,0,0,0-.84-.31,1,1,0,0,0-.67.26,1.31,1.31,0,0,0-.43.72,6.36,6.36,0,0,0-.22,1.71v4.35Z"/><path class="cls-4" d="M775.44,58.31V56.69h1.15v1.62Zm0,9.84v-8.3h1.15v8.3Z"/><path class="cls-4" d="M777.76,68.15V67l4.34-6.06c-.5,0-.93.05-1.31.05H778V59.85h5.57v.93L779.89,66l-.71,1c.51,0,1-.07,1.45-.07h3.15v1.22Z"/><path class="cls-4" d="M789.56,65.47l1.19.18a3.67,3.67,0,0,1-1.07,2,2.84,2.84,0,0,1-1.93.67,2.88,2.88,0,0,1-2.34-1.09,4.91,4.91,0,0,1-.89-3.17,5.15,5.15,0,0,1,.9-3.28,2.8,2.8,0,0,1,2.28-1.13,2.72,2.72,0,0,1,2.21,1.11,5.05,5.05,0,0,1,.88,3.21v.38H785.7a3.67,3.67,0,0,0,.65,2.11,1.78,1.78,0,0,0,1.41.71Q789.05,67.18,789.56,65.47Zm-3.79-2.27h3.8a3.21,3.21,0,0,0-.46-1.61,1.68,1.68,0,0,0-1.41-.77,1.66,1.66,0,0,0-1.32.64A2.82,2.82,0,0,0,785.77,63.2Z"/><path class="cls-4" d="M796.62,68.15V67.1a2.36,2.36,0,0,1-.81.92,1.93,1.93,0,0,1-1.06.31,2.58,2.58,0,0,1-2.08-1.13,5.12,5.12,0,0,1-.88-3.2,6.48,6.48,0,0,1,.39-2.4,3.24,3.24,0,0,1,1-1.46,2.38,2.38,0,0,1,1.45-.48,1.94,1.94,0,0,1,1.05.3,2.33,2.33,0,0,1,.81.84V56.69h1.17V68.15ZM793,64a4.17,4.17,0,0,0,.56,2.4,1.58,1.58,0,0,0,1.3.78,1.55,1.55,0,0,0,1.27-.75,3.9,3.9,0,0,0,.54-2.27,4.63,4.63,0,0,0-.54-2.54,1.58,1.58,0,0,0-1.36-.8,1.49,1.49,0,0,0-1.25.77A4.36,4.36,0,0,0,793,64Z"/><path class="cls-4" d="M799.84,68.15V66.54h1.32v1.61a3.06,3.06,0,0,1-.28,1.45,1.93,1.93,0,0,1-.79.81l-.32-.6a1.25,1.25,0,0,0,.53-.56,2.79,2.79,0,0,0,.19-1.1Z"/><path class="cls-4" d="M558.81,281.77V270.32H560v11.45Z"/><path class="cls-4" d="M566.41,279.1l1.19.18a3.64,3.64,0,0,1-1.07,2,2.84,2.84,0,0,1-1.93.67,2.89,2.89,0,0,1-2.34-1.1,4.92,4.92,0,0,1-.89-3.16,5.15,5.15,0,0,1,.9-3.28,2.8,2.8,0,0,1,2.28-1.13,2.72,2.72,0,0,1,2.21,1.11,5.05,5.05,0,0,1,.88,3.21V278h-5.08a3.62,3.62,0,0,0,.65,2.11,1.75,1.75,0,0,0,1.41.71C565.47,280.8,566.08,280.24,566.41,279.1Zm-3.79-2.27h3.8a3.08,3.08,0,0,0-.46-1.61,1.68,1.68,0,0,0-2.73-.13A2.82,2.82,0,0,0,562.62,276.83Z"/><path class="cls-4" d="M573.49,280.75a4.33,4.33,0,0,1-1.2.91,3,3,0,0,1-1.3.3,2.25,2.25,0,0,1-1.69-.64,2.36,2.36,0,0,1-.64-1.73,2.62,2.62,0,0,1,.3-1.27,2.27,2.27,0,0,1,.81-.87,4.54,4.54,0,0,1,1.57-.46,9,9,0,0,0,2.06-.49v-.36a1.79,1.79,0,0,0-.31-1.19,1.61,1.61,0,0,0-1.32-.5,1.85,1.85,0,0,0-1.2.33A2.18,2.18,0,0,0,570,276l-1.13-.19a3.12,3.12,0,0,1,1-1.94,3.22,3.22,0,0,1,2.11-.61,3,3,0,0,1,1.68.4,1.69,1.69,0,0,1,.77,1,6.87,6.87,0,0,1,.16,1.73v1.88a23.12,23.12,0,0,0,.08,2.48,3.51,3.51,0,0,0,.29,1h-1.2A3.48,3.48,0,0,1,573.49,280.75Zm-.09-3.14a7,7,0,0,1-1.88.53,3.27,3.27,0,0,0-1,.29,1.08,1.08,0,0,0-.45.45,1.33,1.33,0,0,0-.16.67,1.23,1.23,0,0,0,.37.95,1.37,1.37,0,0,0,1,.36,2.06,2.06,0,0,0,1.12-.32,2,2,0,0,0,.76-.86,3.72,3.72,0,0,0,.25-1.56Z"/><path class="cls-4" d="M578.26,281.77l-2.59-8.29h1.22l1.46,5c.17.56.32,1.12.44,1.67.1-.44.24-1,.43-1.58l1.51-5.06h1.19l-2.59,8.29Z"/><path class="cls-4" d="M582.92,271.94v-1.62h1.15v1.62Zm0,9.83v-8.29h1.15v8.29Z"/><path class="cls-4" d="M585.84,281.77v-8.29h1v1.17a2.54,2.54,0,0,1,.91-1,2.28,2.28,0,0,1,1.25-.34,2.36,2.36,0,0,1,1,.21,2.08,2.08,0,0,1,.75.57,2.36,2.36,0,0,1,.43.9,7.77,7.77,0,0,1,.14,1.7v5.1h-1.15v-5a4,4,0,0,0-.16-1.34,1.28,1.28,0,0,0-.48-.65,1.37,1.37,0,0,0-.77-.23,1.6,1.6,0,0,0-1.32.62,3.45,3.45,0,0,0-.5,2.12v4.53Z"/><path class="cls-4" d="M592.91,282.46l1.12.2a1.46,1.46,0,0,0,.47,1,1.63,1.63,0,0,0,1.09.32,1.69,1.69,0,0,0,1.82-1.44,11.18,11.18,0,0,0,.1-1.84,2.67,2.67,0,0,1-.85.8,2,2,0,0,1-1,.27,2.46,2.46,0,0,1-2-1,5.07,5.07,0,0,1-.92-3.18,6.14,6.14,0,0,1,.41-2.33,3.19,3.19,0,0,1,1.06-1.47,2.53,2.53,0,0,1,1.48-.47,2.18,2.18,0,0,1,1.1.29,2.87,2.87,0,0,1,.88.89v-1h1.06v7.17a8.43,8.43,0,0,1-.31,2.73,2.71,2.71,0,0,1-1,1.29,3.1,3.1,0,0,1-1.72.47,2.79,2.79,0,0,1-2-.71A2.58,2.58,0,0,1,592.91,282.46Zm1-5a4.18,4.18,0,0,0,.54,2.39,1.59,1.59,0,0,0,1.32.75,1.62,1.62,0,0,0,1.33-.74,3.92,3.92,0,0,0,.55-2.34,4,4,0,0,0-.56-2.33,1.66,1.66,0,0,0-1.37-.76,1.56,1.56,0,0,0-1.27.76A3.92,3.92,0,0,0,593.86,277.48Z"/><path class="cls-4" d="M603.64,277.62a5,5,0,0,1,.9-3.24,2.93,2.93,0,0,1,4.56,0,4.8,4.8,0,0,1,.92,3.16,5.17,5.17,0,0,1-.9,3.33,2.93,2.93,0,0,1-4.57,0A5,5,0,0,1,603.64,277.62Zm1.18,0a4,4,0,0,0,.59,2.4,1.75,1.75,0,0,0,1.45.78,1.67,1.67,0,0,0,1.39-.79,5.14,5.14,0,0,0,0-4.78,1.75,1.75,0,0,0-1.45-.78,1.68,1.68,0,0,0-1.4.79A4,4,0,0,0,604.82,277.62Z"/><path class="cls-4" d="M611.38,281.77v-8.29h1v1.17a2.63,2.63,0,0,1,.92-1,2.27,2.27,0,0,1,1.24-.34,2.37,2.37,0,0,1,1,.21,2.08,2.08,0,0,1,.75.57,2.36,2.36,0,0,1,.43.9,7.77,7.77,0,0,1,.14,1.7v5.1h-1.15v-5a4,4,0,0,0-.16-1.34,1.28,1.28,0,0,0-.48-.65,1.37,1.37,0,0,0-.77-.23,1.59,1.59,0,0,0-1.32.62,3.45,3.45,0,0,0-.5,2.12v4.53Z"/><path class="cls-4" d="M623.32,279.1l1.19.18a3.65,3.65,0,0,1-1.08,2,2.81,2.81,0,0,1-1.92.67,2.86,2.86,0,0,1-2.34-1.1,4.86,4.86,0,0,1-.9-3.16,5.09,5.09,0,0,1,.91-3.28,2.8,2.8,0,0,1,2.28-1.13,2.69,2.69,0,0,1,2.2,1.11,5.05,5.05,0,0,1,.89,3.21V278h-5.08a3.55,3.55,0,0,0,.65,2.11,1.74,1.74,0,0,0,1.41.71C622.38,280.8,623,280.24,623.32,279.1Zm-3.79-2.27h3.8a3.18,3.18,0,0,0-.46-1.61,1.66,1.66,0,0,0-1.42-.77,1.68,1.68,0,0,0-1.32.64A2.88,2.88,0,0,0,619.53,276.83Z"/><path class="cls-4" d="M626.3,281.77v-1.6h1.32v1.6a3.11,3.11,0,0,1-.28,1.46,1.87,1.87,0,0,1-.79.81l-.32-.6a1.25,1.25,0,0,0,.53-.56,2.81,2.81,0,0,0,.19-1.11Z"/><path class="cls-4" d="M738.53,529.5a5,5,0,0,1,.9-3.24,2.91,2.91,0,0,1,4.56,0,4.79,4.79,0,0,1,.92,3.15,5.17,5.17,0,0,1-.9,3.33,2.92,2.92,0,0,1-4.57,0A5,5,0,0,1,738.53,529.5Zm1.18,0a4,4,0,0,0,.59,2.39,1.74,1.74,0,0,0,1.45.79,1.67,1.67,0,0,0,1.39-.79,4,4,0,0,0,.59-2.39,4,4,0,0,0-.59-2.39,1.74,1.74,0,0,0-1.45-.79,1.68,1.68,0,0,0-1.4.79A4,4,0,0,0,739.71,529.5Z"/><path class="cls-4" d="M746.27,533.65v-8.3h1v1.17a2.78,2.78,0,0,1,.92-1,2.43,2.43,0,0,1,2.25-.12,2.05,2.05,0,0,1,.75.56,2.36,2.36,0,0,1,.43.9,7.81,7.81,0,0,1,.14,1.71v5.1h-1.15v-5a4,4,0,0,0-.16-1.34,1.27,1.27,0,0,0-1.25-.88,1.58,1.58,0,0,0-1.32.61,3.45,3.45,0,0,0-.5,2.12v4.54Z"/><path class="cls-4" d="M753.52,533.65V522.2h1.15v11.45Z"/><path class="cls-4" d="M756.44,536.84l-.13-1.32a2.06,2.06,0,0,0,.66.13,1.15,1.15,0,0,0,.61-.15A1.13,1.13,0,0,0,758,535q.06-.1.45-1.38l-2.58-8.31h1.24l1.42,4.8c.18.6.34,1.24.49,1.92.13-.64.29-1.27.47-1.89l1.45-4.83h1.16l-2.58,8.44a16.16,16.16,0,0,1-.8,2.19,2.07,2.07,0,0,1-.67.79,1.53,1.53,0,0,1-.84.25A1.85,1.85,0,0,1,756.44,536.84Z"/><path class="cls-4" d="M766.25,529.5a5,5,0,0,1,.9-3.24,2.91,2.91,0,0,1,4.56,0,4.79,4.79,0,0,1,.91,3.15,5.17,5.17,0,0,1-.89,3.33,2.92,2.92,0,0,1-4.57,0A5,5,0,0,1,766.25,529.5Zm1.18,0a3.92,3.92,0,0,0,.59,2.39,1.74,1.74,0,0,0,1.45.79,1.67,1.67,0,0,0,1.39-.79,4,4,0,0,0,.59-2.39,4,4,0,0,0-.59-2.39,1.75,1.75,0,0,0-1.45-.79,1.68,1.68,0,0,0-1.4.79A4,4,0,0,0,767.43,529.5Z"/><path class="cls-4" d="M774,533.65v-8.3h1v1.17a2.78,2.78,0,0,1,.92-1,2.35,2.35,0,0,1,1.24-.34,2.41,2.41,0,0,1,1,.22,2.05,2.05,0,0,1,.75.56,2.36,2.36,0,0,1,.43.9,7.81,7.81,0,0,1,.14,1.71v5.1h-1.15v-5a4,4,0,0,0-.16-1.34,1.3,1.3,0,0,0-1.25-.88,1.61,1.61,0,0,0-1.33.61,3.53,3.53,0,0,0-.49,2.12v4.54Z"/><path class="cls-4" d="M785.93,531l1.19.18a3.62,3.62,0,0,1-1.08,2,2.83,2.83,0,0,1-1.92.68,2.86,2.86,0,0,1-2.34-1.1,4.89,4.89,0,0,1-.9-3.17,5.13,5.13,0,0,1,.91-3.28,2.8,2.8,0,0,1,2.28-1.13,2.71,2.71,0,0,1,2.2,1.11,5.05,5.05,0,0,1,.89,3.21v.38h-5.08a3.57,3.57,0,0,0,.65,2.11,1.75,1.75,0,0,0,1.4.71C785,532.68,785.59,532.11,785.93,531Zm-3.79-2.28h3.8a3.21,3.21,0,0,0-.46-1.61,1.69,1.69,0,0,0-1.42-.77,1.72,1.72,0,0,0-1.32.64A2.88,2.88,0,0,0,782.14,528.7Z"/><path class="cls-4" d="M788.91,533.65v-1.6h1.32v1.6a3.13,3.13,0,0,1-.28,1.46,1.85,1.85,0,0,1-.79.8l-.32-.6a1.2,1.2,0,0,0,.53-.56,2.72,2.72,0,0,0,.19-1.1Z"/><path class="cls-4" d="M923.26,533.65v-1a2.36,2.36,0,0,1-.81.92,1.94,1.94,0,0,1-1.06.32,2.57,2.57,0,0,1-2.08-1.14,5.1,5.1,0,0,1-.88-3.2,6.56,6.56,0,0,1,.39-2.4,3.29,3.29,0,0,1,1-1.46,2.38,2.38,0,0,1,1.45-.48,1.94,1.94,0,0,1,1.05.3,2.51,2.51,0,0,1,.81.84v-4.1h1.17v11.45Zm-3.65-4.14a4.15,4.15,0,0,0,.56,2.39,1.58,1.58,0,0,0,1.3.78,1.55,1.55,0,0,0,1.27-.75,3.9,3.9,0,0,0,.54-2.27,4.66,4.66,0,0,0-.54-2.54,1.6,1.6,0,0,0-1.36-.8,1.52,1.52,0,0,0-1.25.77A4.37,4.37,0,0,0,919.61,529.51Z"/><path class="cls-4" d="M930.8,531l1.18.18a3.55,3.55,0,0,1-1.07,2,2.84,2.84,0,0,1-1.93.68,2.89,2.89,0,0,1-2.34-1.1,5,5,0,0,1-.89-3.17,5.19,5.19,0,0,1,.9-3.28,2.82,2.82,0,0,1,2.29-1.13,2.71,2.71,0,0,1,2.2,1.11,5.05,5.05,0,0,1,.88,3.21v.38h-5.08a3.5,3.5,0,0,0,.65,2.11,1.75,1.75,0,0,0,1.4.71C929.86,532.68,930.46,532.11,930.8,531ZM927,528.7h3.79a3.11,3.11,0,0,0-.46-1.61,1.68,1.68,0,0,0-2.73-.13A2.82,2.82,0,0,0,927,528.7Z"/><path class="cls-4" d="M937.88,532.62a4.14,4.14,0,0,1-1.21.91,3,3,0,0,1-1.29.31,2.31,2.31,0,0,1-1.7-.64,2.37,2.37,0,0,1-.63-1.73,2.73,2.73,0,0,1,.29-1.27,2.22,2.22,0,0,1,.82-.87,4.2,4.2,0,0,1,1.56-.46,8.87,8.87,0,0,0,2.06-.49V528a1.78,1.78,0,0,0-.31-1.2,1.64,1.64,0,0,0-1.32-.5,1.87,1.87,0,0,0-1.2.33,2.21,2.21,0,0,0-.58,1.26l-1.14-.19a3.18,3.18,0,0,1,1-2,3.29,3.29,0,0,1,2.12-.61,3,3,0,0,1,1.68.41,1.75,1.75,0,0,1,.77,1,7.53,7.53,0,0,1,.16,1.74v1.87a24.27,24.27,0,0,0,.07,2.48,3.94,3.94,0,0,0,.29,1h-1.2A3.33,3.33,0,0,1,937.88,532.62Zm-.1-3.14a7.34,7.34,0,0,1-1.88.54,3.42,3.42,0,0,0-1,.28,1.21,1.21,0,0,0-.45.45,1.48,1.48,0,0,0-.16.68,1.28,1.28,0,0,0,.37,1,1.39,1.39,0,0,0,1,.35,2,2,0,0,0,1.87-1.17,3.78,3.78,0,0,0,.25-1.56Z"/><path class="cls-4" d="M940.74,533.65v-8.3h1v1.26a3.67,3.67,0,0,1,.73-1.16,1.12,1.12,0,0,1,.75-.29,2,2,0,0,1,1.18.46l-.39,1.3a1.49,1.49,0,0,0-.84-.3,1,1,0,0,0-.67.26,1.38,1.38,0,0,0-.43.71,6.36,6.36,0,0,0-.22,1.71v4.35Z"/><path class="cls-4" d="M953.16,533.65v-1a2.26,2.26,0,0,1-.8.92,1.94,1.94,0,0,1-1.06.32,2.6,2.6,0,0,1-2.09-1.14,5.16,5.16,0,0,1-.87-3.2,6.56,6.56,0,0,1,.39-2.4,3.22,3.22,0,0,1,1-1.46,2.35,2.35,0,0,1,1.44-.48,2,2,0,0,1,1.06.3,2.51,2.51,0,0,1,.81.84v-4.1h1.16v11.45Zm-3.64-4.14a4.16,4.16,0,0,0,.55,2.39,1.61,1.61,0,0,0,1.31.78,1.55,1.55,0,0,0,1.27-.75,3.9,3.9,0,0,0,.54-2.27,4.66,4.66,0,0,0-.54-2.54,1.6,1.6,0,0,0-1.36-.8,1.52,1.52,0,0,0-1.25.77A4.37,4.37,0,0,0,949.52,529.51Z"/><path class="cls-4" d="M960.7,531l1.19.18a3.67,3.67,0,0,1-1.07,2,2.84,2.84,0,0,1-1.93.68,2.89,2.89,0,0,1-2.34-1.1,4.89,4.89,0,0,1-.89-3.17,5.19,5.19,0,0,1,.9-3.28,2.8,2.8,0,0,1,2.28-1.13,2.72,2.72,0,0,1,2.21,1.11,5.05,5.05,0,0,1,.88,3.21v.38h-5.08a3.64,3.64,0,0,0,.65,2.11,1.78,1.78,0,0,0,1.41.71C959.76,532.68,960.36,532.11,960.7,531Zm-3.79-2.28h3.8a3.21,3.21,0,0,0-.46-1.61,1.68,1.68,0,0,0-2.73-.13A2.82,2.82,0,0,0,956.91,528.7Z"/><path class="cls-4" d="M967.78,532.62a4,4,0,0,1-1.2.91,3,3,0,0,1-1.3.31,2.28,2.28,0,0,1-1.69-.64,2.34,2.34,0,0,1-.64-1.73,2.62,2.62,0,0,1,.3-1.27,2.27,2.27,0,0,1,.81-.87,4.33,4.33,0,0,1,1.56-.46,9,9,0,0,0,2.07-.49V528a1.84,1.84,0,0,0-.31-1.2,1.67,1.67,0,0,0-1.32-.5,1.83,1.83,0,0,0-1.2.33,2.21,2.21,0,0,0-.59,1.26l-1.13-.19a3.18,3.18,0,0,1,1-2,3.27,3.27,0,0,1,2.11-.61,3,3,0,0,1,1.68.41,1.71,1.71,0,0,1,.77,1,7,7,0,0,1,.16,1.74v1.87a23.12,23.12,0,0,0,.08,2.48,3.58,3.58,0,0,0,.29,1H968A3.63,3.63,0,0,1,967.78,532.62Zm-.09-3.14a7.31,7.31,0,0,1-1.89.54,3.33,3.33,0,0,0-1,.28,1.21,1.21,0,0,0-.45.45,1.37,1.37,0,0,0-.16.68,1.24,1.24,0,0,0,.37,1,1.37,1.37,0,0,0,1,.35,2,2,0,0,0,1.12-.32,2,2,0,0,0,.76-.85,4,4,0,0,0,.25-1.56Z"/><path class="cls-4" d="M970.65,533.65v-8.3h1v1.26a3.5,3.5,0,0,1,.73-1.16,1.12,1.12,0,0,1,.74-.29,2,2,0,0,1,1.18.46l-.39,1.3a1.43,1.43,0,0,0-.83-.3,1,1,0,0,0-.67.26,1.32,1.32,0,0,0-.43.71,6.36,6.36,0,0,0-.22,1.71v4.35Z"/><path class="cls-4" d="M979.72,533.65h-1.07V522.2h1.15v4.08a2.8,2.8,0,0,1,.84-.84,2,2,0,0,1,1-.28,2.38,2.38,0,0,1,1.45.48,3.18,3.18,0,0,1,1,1.45,6.28,6.28,0,0,1,.39,2.35,5.22,5.22,0,0,1-.88,3.25,2.59,2.59,0,0,1-2.07,1.15,1.94,1.94,0,0,1-1.06-.31,2.56,2.56,0,0,1-.82-.92Zm0-4.21a5.85,5.85,0,0,0,.24,1.93,2.12,2.12,0,0,0,.66,1,1.5,1.5,0,0,0,1,.34,1.55,1.55,0,0,0,1.26-.8,5.49,5.49,0,0,0,0-4.79,1.56,1.56,0,0,0-1.31-.77,1.58,1.58,0,0,0-1.27.8A4.08,4.08,0,0,0,979.7,529.44Z"/><path class="cls-4" d="M990.61,531l1.19.18a3.62,3.62,0,0,1-1.08,2,2.83,2.83,0,0,1-1.92.68,2.86,2.86,0,0,1-2.34-1.1,4.89,4.89,0,0,1-.9-3.17,5.19,5.19,0,0,1,.9-3.28,2.84,2.84,0,0,1,2.29-1.13,2.71,2.71,0,0,1,2.2,1.11,5.05,5.05,0,0,1,.89,3.21v.38h-5.08a3.57,3.57,0,0,0,.65,2.11,1.75,1.75,0,0,0,1.4.71C989.67,532.68,990.27,532.11,990.61,531Zm-3.79-2.28h3.8a3.21,3.21,0,0,0-.46-1.61,1.69,1.69,0,0,0-1.42-.77,1.72,1.72,0,0,0-1.32.64A2.88,2.88,0,0,0,986.82,528.7Z"/><path class="cls-4" d="M993.22,533.65V522.2h1.15v11.45Z"/><path class="cls-4" d="M995.73,529.5a5,5,0,0,1,.91-3.24,2.91,2.91,0,0,1,4.56,0,4.85,4.85,0,0,1,.91,3.15,5.17,5.17,0,0,1-.9,3.33,2.92,2.92,0,0,1-4.57,0A5,5,0,0,1,995.73,529.5Zm1.18,0a4,4,0,0,0,.59,2.39,1.75,1.75,0,0,0,1.45.79,1.69,1.69,0,0,0,1.4-.79,4,4,0,0,0,.58-2.39,4,4,0,0,0-.59-2.39,1.74,1.74,0,0,0-1.45-.79,1.69,1.69,0,0,0-1.4.79A4.08,4.08,0,0,0,996.91,529.5Z"/><path class="cls-4" d="M1005.37,533.65l-2.59-8.3H1004l1.46,5c.17.56.32,1.12.44,1.67.1-.44.24-1,.43-1.58l1.51-5.06H1009l-2.59,8.3Z"/><path class="cls-4" d="M1014.68,531l1.19.18a3.62,3.62,0,0,1-1.08,2,2.83,2.83,0,0,1-1.92.68,2.86,2.86,0,0,1-2.34-1.1,4.89,4.89,0,0,1-.9-3.17,5.13,5.13,0,0,1,.91-3.28,2.8,2.8,0,0,1,2.28-1.13,2.71,2.71,0,0,1,2.2,1.11,5.05,5.05,0,0,1,.89,3.21v.38h-5.08a3.57,3.57,0,0,0,.65,2.11,1.75,1.75,0,0,0,1.41.71C1013.74,532.68,1014.34,532.11,1014.68,531Zm-3.79-2.28h3.8a3.21,3.21,0,0,0-.46-1.61,1.69,1.69,0,0,0-1.42-.77,1.72,1.72,0,0,0-1.32.64A2.88,2.88,0,0,0,1010.89,528.7Z"/><path class="cls-4" d="M1021.73,533.65v-1a2.26,2.26,0,0,1-.8.92,1.94,1.94,0,0,1-1.06.32,2.57,2.57,0,0,1-2.08-1.14,5.1,5.1,0,0,1-.88-3.2,6.56,6.56,0,0,1,.39-2.4,3.22,3.22,0,0,1,1-1.46,2.35,2.35,0,0,1,1.44-.48,2,2,0,0,1,1.06.3,2.51,2.51,0,0,1,.81.84v-4.1h1.16v11.45Zm-3.64-4.14a4.16,4.16,0,0,0,.55,2.39,1.61,1.61,0,0,0,1.31.78,1.55,1.55,0,0,0,1.27-.75,3.9,3.9,0,0,0,.54-2.27,4.66,4.66,0,0,0-.54-2.54,1.6,1.6,0,0,0-1.36-.8,1.52,1.52,0,0,0-1.25.77A4.37,4.37,0,0,0,1018.09,529.51Z"/><path class="cls-4" d="M923.3,549.81l1.14.18a3.79,3.79,0,0,1-1,2.26,2.58,2.58,0,0,1-1.89.79,2.7,2.7,0,0,1-2.2-1.1,5.23,5.23,0,0,1-.86-3.25,5.09,5.09,0,0,1,.87-3.24,2.73,2.73,0,0,1,2.24-1.09,2.52,2.52,0,0,1,1.77.66,3.21,3.21,0,0,1,.93,2l-1.12.2a2.39,2.39,0,0,0-.57-1.25,1.3,1.3,0,0,0-1-.42,1.69,1.69,0,0,0-1.41.75,4,4,0,0,0-.56,2.4,4.38,4.38,0,0,0,.53,2.45,1.62,1.62,0,0,0,1.37.76,1.47,1.47,0,0,0,1.12-.5A2.74,2.74,0,0,0,923.3,549.81Z"/><path class="cls-4" d="M925,548.7a5,5,0,0,1,.9-3.24,2.91,2.91,0,0,1,4.56,0,4.79,4.79,0,0,1,.91,3.15,5.17,5.17,0,0,1-.9,3.33,2.91,2.91,0,0,1-4.56,0A5,5,0,0,1,925,548.7Zm1.18,0a4,4,0,0,0,.58,2.39,1.75,1.75,0,0,0,1.46.79,1.69,1.69,0,0,0,1.39-.79,4,4,0,0,0,.58-2.39,4,4,0,0,0-.58-2.39,1.75,1.75,0,0,0-1.46-.79,1.7,1.7,0,0,0-1.4.79A4.09,4.09,0,0,0,926.16,548.7Z"/><path class="cls-4" d="M932.71,552.85v-8.3h1v1.17a2.7,2.7,0,0,1,.92-1,2.33,2.33,0,0,1,1.24-.34,2.44,2.44,0,0,1,1,.22,2.05,2.05,0,0,1,.75.56,2.21,2.21,0,0,1,.42.9,7.23,7.23,0,0,1,.14,1.71v5.1h-1.14V547.8a4.28,4.28,0,0,0-.16-1.34,1.3,1.3,0,0,0-.49-.65,1.27,1.27,0,0,0-.77-.23,1.6,1.6,0,0,0-1.32.61,3.46,3.46,0,0,0-.49,2.12v4.54Z"/><path class="cls-4" d="M940,552.85v-8.3h1v1.17a2.76,2.76,0,0,1,.91-1,2.36,2.36,0,0,1,1.25-.34,2.44,2.44,0,0,1,1,.22,2.05,2.05,0,0,1,.75.56,2.21,2.21,0,0,1,.42.9,7.81,7.81,0,0,1,.14,1.71v5.1h-1.15V547.8a4.34,4.34,0,0,0-.15-1.34,1.36,1.36,0,0,0-.49-.65,1.27,1.27,0,0,0-.77-.23,1.6,1.6,0,0,0-1.32.61,3.46,3.46,0,0,0-.49,2.12v4.54Z"/><path class="cls-4" d="M952,550.18l1.19.18a3.67,3.67,0,0,1-1.07,2,2.84,2.84,0,0,1-1.93.68,2.89,2.89,0,0,1-2.34-1.1,4.89,4.89,0,0,1-.89-3.17,5.19,5.19,0,0,1,.9-3.28,2.8,2.8,0,0,1,2.28-1.13,2.72,2.72,0,0,1,2.21,1.11,5.05,5.05,0,0,1,.88,3.21v.38h-5.08a3.64,3.64,0,0,0,.65,2.11,1.78,1.78,0,0,0,1.41.71C951,551.88,951.61,551.31,952,550.18Zm-3.79-2.28H952a3.21,3.21,0,0,0-.46-1.61,1.68,1.68,0,0,0-1.41-.77,1.67,1.67,0,0,0-1.32.65A2.77,2.77,0,0,0,948.16,547.9Z"/><path class="cls-4" d="M959.05,549.81l1.14.18a3.79,3.79,0,0,1-1,2.26,2.58,2.58,0,0,1-1.89.79,2.7,2.7,0,0,1-2.2-1.1,5.23,5.23,0,0,1-.86-3.25,5.09,5.09,0,0,1,.87-3.24,2.73,2.73,0,0,1,2.24-1.09,2.52,2.52,0,0,1,1.77.66,3.21,3.21,0,0,1,.93,2l-1.12.2a2.39,2.39,0,0,0-.57-1.25,1.3,1.3,0,0,0-1-.42,1.69,1.69,0,0,0-1.41.75,4,4,0,0,0-.56,2.4,4.38,4.38,0,0,0,.53,2.45,1.62,1.62,0,0,0,1.37.76,1.47,1.47,0,0,0,1.12-.5A2.74,2.74,0,0,0,959.05,549.81Z"/><path class="cls-4" d="M963.73,551.59l.15,1.24a3.1,3.1,0,0,1-.86.13,1.76,1.76,0,0,1-1-.24,1.24,1.24,0,0,1-.5-.65,6.39,6.39,0,0,1-.14-1.65v-4.77h-.84v-1.1h.84v-2l1.15-.85v2.9h1.17v1.1h-1.17v4.85a2.42,2.42,0,0,0,.1.86.58.58,0,0,0,.56.29A2.86,2.86,0,0,0,963.73,551.59Z"/><path class="cls-4" d="M964.81,543V541.4H966V543Zm0,9.84v-8.3H966v8.3Z"/><path class="cls-4" d="M967.29,548.7a5,5,0,0,1,.9-3.24,2.91,2.91,0,0,1,4.56,0,4.79,4.79,0,0,1,.91,3.15,5.23,5.23,0,0,1-.89,3.33,2.92,2.92,0,0,1-4.57,0A5,5,0,0,1,967.29,548.7Zm1.18,0a4,4,0,0,0,.58,2.39,1.77,1.77,0,0,0,1.46.79,1.69,1.69,0,0,0,1.39-.79,4,4,0,0,0,.58-2.39,4,4,0,0,0-.58-2.39,1.75,1.75,0,0,0-1.45-.79,1.68,1.68,0,0,0-1.4.79A4,4,0,0,0,968.47,548.7Z"/><path class="cls-4" d="M975,552.85v-8.3h1v1.17a2.78,2.78,0,0,1,.92-1,2.33,2.33,0,0,1,1.24-.34,2.41,2.41,0,0,1,1,.22,2.05,2.05,0,0,1,.75.56,2.36,2.36,0,0,1,.43.9,7.81,7.81,0,0,1,.14,1.71v5.1H979.4V547.8a4,4,0,0,0-.16-1.34,1.3,1.3,0,0,0-1.26-.88,1.6,1.6,0,0,0-1.32.61,3.53,3.53,0,0,0-.49,2.12v4.54Z"/><path class="cls-4" d="M982.68,552.85v-1.6H984v1.6Z"/><path class="cls-4" d="M918.52,278.74l1.15-.19c.24,1.51.85,2.26,1.83,2.26a1.76,1.76,0,0,0,1.37-.67,2.56,2.56,0,0,0,.58-1.73,2.34,2.34,0,0,0-.54-1.61,1.65,1.65,0,0,0-1.3-.61,2.81,2.81,0,0,0-.81.15l.13-1.23h.18a1.9,1.9,0,0,0,1.39-.52,1.88,1.88,0,0,0,.53-1.39,1.81,1.81,0,0,0-.45-1.29,1.39,1.39,0,0,0-1.08-.49,1.46,1.46,0,0,0-1.13.51,2.8,2.8,0,0,0-.58,1.55l-1.15-.25a3.82,3.82,0,0,1,1-2.22,2.57,2.57,0,0,1,1.86-.75,2.53,2.53,0,0,1,1.93.85,2.93,2.93,0,0,1,.8,2.12,2.72,2.72,0,0,1-.34,1.38,2.45,2.45,0,0,1-.94.95,2.11,2.11,0,0,1,.93.51,2.66,2.66,0,0,1,.59,1,3.81,3.81,0,0,1,.22,1.34,3.66,3.66,0,0,1-.93,2.59,3,3,0,0,1-2.22,1,2.67,2.67,0,0,1-2-.88A3.68,3.68,0,0,1,918.52,278.74Z"/><path class="cls-4" d="M930.16,281.77H929v-9a6.52,6.52,0,0,1-1.07,1,7.46,7.46,0,0,1-1.24.74v-1.36a7.13,7.13,0,0,0,1.69-1.34,5,5,0,0,0,1-1.54h.75Z"/><g class="cls-2"><path class="cls-3" d="M165.36,289.47,160,274.38s-15.6,50.21,10.2,73.83,54.91,23.62,56.91,23.62"/><path class="cls-3" d="M168.35,309.36c-.33,2.09-.85,1.6-1.57-1.44q-8.62-12.57-18-15.08a70.8,70.8,0,0,0-27.88-3.53,8.66,8.66,0,0,1-8.32-1.17c-14.48-8-28.71-21.83-43.41-24.7-14-2.73-26.67,5.36-39.38,26.18"/><path class="cls-3" d="M5.76,281.78s32.28,0,34.79,5.25,0-5.25,0-5.25H32.87s25.22-17.4,66.18,3.36"/><path class="cls-3" d="M112.62,600.89c1.26-1.67,2.76,5.22,3.54,7.77a53.59,53.59,0,0,0,6,13.68c2.4,3.62,4.67,7.8,7,11.54,1.94,3,3.06,3.91,5,6.51.52.71,2.19,1.82,2.67,1.38,1-.91-.41-5.21-.62-6-1.16-4.26-3-6.34-4.28-10.25,3.17,6.62,6.3,11.82,9.9,15.28s6.87,8,10.51,9.7c3.91,1.84,7.83.62,11.76.77"/><path class="cls-3" d="M148.07,689.25s-1.43,19.57,23.27,24.5c0,0,6.64,17.15,19.66,24.14"/><path class="cls-3" d="M235.82,370.27c-.17.32,0,.73-.11,1.07.13,0,12.07.56,10.31.37,2.56,0,4.41.4,5.53,1.18,2.8.05,5.59.07,8.39.08q13.94.24,27.88.29,3.42.08,6.82,0c3.28.24,5.65,1,8.79,1.48A38.2,38.2,0,0,0,310,375c10.73-.07,22.8-1,33.17-1.62s21.64-1.62,32.24-1.93c5.9-.18,12.91-.9,18.77-.62"/><path class="cls-3" d="M478.45,373.23c-7.91.31-14.91,2.15-22.6,2.36a18,18,0,0,1,2-.71c-7.41-.44-16.27.82-23.06,1.83-6.38.94-5.54,1.76-12,.71-5.27-.85-8.26-.08-13.71.06-2.53.06-26.67.2-27.17-.61"/><path class="cls-3" d="M328.62,379.23c4.22.18,8.16,1.3,12.41,1.15.59-1.84,6.42-1.18,9.68-1.15,6.74.06,12.4-1.48,18.87-2.19a2.72,2.72,0,0,1,2.26-.08c12-1,23.42-2.69,35.51-3.57-6.93.5,16.36-.8,17.17-1,3.43-.72,5.58-2.12,9.61-2.57.36,1.16-1.2,2.33,1.37,3.09,1.65.49,3.76.19,5.55.22,5.34.1,9.05,1.48,14.12,1.86,2.47.19,6.53,0,7.14,1.2"/><path class="cls-3" d="M488.17,376.84a63.72,63.72,0,0,1-9.56.6c-11.24-.05-21.49.86-32.65,1.28-8.94.34-17.64.08-26.42.54-6.33.33-13.31,0-19.71,0"/><path class="cls-3" d="M472.31,368.48q-.9-3.37,7.29-5.84A248.75,248.75,0,0,1,503,349a3.1,3.1,0,0,0-1.1,1.33,23.17,23.17,0,0,1,4.7-2.94A22.77,22.77,0,0,1,513,344.8c1.27-.93,1.24-2.34,3.76-3-1.15,1-2.17,2.83-4.86,3.32,1-1.08,1.92-3,4-3.86,1.57-.68,5-.75,5.87-1.69.38-.41-.15-1.38-.38-1.76-.62-1-1.67-3.11-3-4s-2.33-.3-2.78-1.85c-.58-2,.07-3.19-2.58-5-1.91-1.3-2.7-2.85-6.08-3.83l-.22.55"/></g></g></svg>