<svg id="Layer_1" data-name="Layer 1" xmlns="http://www.w3.org/2000/svg" xmlns:xlink="http://www.w3.org/1999/xlink" viewBox="0 0 1080 756"><defs><style>.cls-1,.cls-3{fill:none;}.cls-2{clip-path:url(#clip-path);}.cls-3{stroke:#231f20;stroke-width:0.25px;}.cls-4{fill:#231f20;}</style><clipPath id="clip-path"><rect class="cls-1" width="1080" height="756"/></clipPath></defs><title>Untitled-3</title><g class="cls-2"><g class="cls-2"><line class="cls-3" x1="180" y1="-18.36" x2="180" y2="790.92"/><line class="cls-3" x1="720" y1="-20.88" x2="720" y2="788.4"/><line class="cls-3" x1="359.88" y1="-18.36" x2="359.88" y2="790.92"/><line class="cls-3" x1="899.87" y1="-20.88" x2="899.87" y2="788.4"/><line class="cls-3" x1="-16.92" y1="251.88" x2="1101.6" y2="251.88"/><line class="cls-3" x1="-11.52" y1="504.13" x2="1107" y2="504.13"/><line class="cls-3" x1="540" y1="-19.44" x2="540" y2="789.84"/></g><path class="cls-4" d="M378.79,19.81V18.2h1.15v1.61Zm0,9.84v-8.3h1.15v8.3Z"/><path class="cls-4" d="M381.71,29.65v-8.3h1v1.17a2.76,2.76,0,0,1,.91-1,2.36,2.36,0,0,1,1.25-.34,2.44,2.44,0,0,1,1,.22,2.1,2.1,0,0,1,.74.56,2.22,2.22,0,0,1,.43.9,7.81,7.81,0,0,1,.14,1.71v5.1h-1.15v-5a4,4,0,0,0-.16-1.34,1.27,1.27,0,0,0-1.25-.88,1.59,1.59,0,0,0-1.32.61,3.45,3.45,0,0,0-.5,2.12v4.54Z"/><path class="cls-4" d="M388.56,27.16l1.15-.21a2,2,0,0,0,.55,1.3,1.94,1.94,0,0,0,2.36.06,1.23,1.23,0,0,0,.41-.94.91.91,0,0,0-.36-.77,4.64,4.64,0,0,0-1.17-.47,8.35,8.35,0,0,1-1.79-.7,2,2,0,0,1-.71-.77,2.48,2.48,0,0,1-.25-1.11,2.31,2.31,0,0,1,.68-1.72,2.61,2.61,0,0,1,1.89-.67,3,3,0,0,1,1.33.28,2.13,2.13,0,0,1,.88.73,3.3,3.3,0,0,1,.42,1.32l-1.13.19a1.34,1.34,0,0,0-1.47-1.36,1.74,1.74,0,0,0-1.12.3.94.94,0,0,0-.37.77.87.87,0,0,0,.35.72,6.77,6.77,0,0,0,1.26.5,9.4,9.4,0,0,1,1.85.72,1.8,1.8,0,0,1,.65.74,2.38,2.38,0,0,1,.24,1.1,2.55,2.55,0,0,1-.76,1.93,2.82,2.82,0,0,1-2.06.74C389.76,29.84,388.82,29,388.56,27.16Z"/><path class="cls-4" d="M400,26.61l1.13.18a3.79,3.79,0,0,1-1,2.26,2.55,2.55,0,0,1-1.89.79,2.7,2.7,0,0,1-2.2-1.1,5.23,5.23,0,0,1-.86-3.25,5.09,5.09,0,0,1,.87-3.24,2.73,2.73,0,0,1,2.24-1.09,2.55,2.55,0,0,1,1.78.66,3.2,3.2,0,0,1,.92,2l-1.11.2a2.39,2.39,0,0,0-.57-1.25,1.32,1.32,0,0,0-1-.42,1.69,1.69,0,0,0-1.41.75,4.12,4.12,0,0,0-.56,2.4,4.29,4.29,0,0,0,.54,2.45,1.59,1.59,0,0,0,1.37.76,1.48,1.48,0,0,0,1.12-.5A2.74,2.74,0,0,0,400,26.61Z"/><path class="cls-4" d="M402.13,29.65v-8.3h1v1.26a3.5,3.5,0,0,1,.73-1.16,1.12,1.12,0,0,1,.74-.29,2,2,0,0,1,1.18.46l-.39,1.3a1.43,1.43,0,0,0-.83-.3,1,1,0,0,0-.68.26,1.37,1.37,0,0,0-.42.71,6.36,6.36,0,0,0-.22,1.71v4.35Z"/><path class="cls-4" d="M406.5,19.81V18.2h1.14v1.61Zm0,9.84v-8.3h1.14v8.3Z"/><path class="cls-4" d="M410.46,29.65h-1.07V18.2h1.16v4.08a2.66,2.66,0,0,1,.83-.84,2,2,0,0,1,1-.28,2.4,2.4,0,0,1,1.45.48,3.26,3.26,0,0,1,1,1.45,6.28,6.28,0,0,1,.39,2.35,5.28,5.28,0,0,1-.88,3.25,2.59,2.59,0,0,1-2.07,1.15,2,2,0,0,1-1.07-.31,2.65,2.65,0,0,1-.82-.92Zm0-4.21a5.9,5.9,0,0,0,.23,1.93,2.13,2.13,0,0,0,.67,1,1.46,1.46,0,0,0,.95.34,1.56,1.56,0,0,0,1.27-.8,4.24,4.24,0,0,0,.55-2.4,4.29,4.29,0,0,0-.53-2.39,1.45,1.45,0,0,0-2.58,0A4,4,0,0,0,410.45,25.44Z"/><path class="cls-4" d="M421.35,27l1.19.18a3.61,3.61,0,0,1-1.07,2,2.84,2.84,0,0,1-1.93.68,2.89,2.89,0,0,1-2.34-1.1,5,5,0,0,1-.89-3.17,5.19,5.19,0,0,1,.9-3.28,2.81,2.81,0,0,1,2.29-1.13,2.71,2.71,0,0,1,2.2,1.11,5.05,5.05,0,0,1,.88,3.21v.38H417.5a3.57,3.57,0,0,0,.64,2.11,1.78,1.78,0,0,0,1.41.71C420.41,28.68,421,28.11,421.35,27Zm-3.78-2.28h3.79a3.11,3.11,0,0,0-.46-1.61,1.68,1.68,0,0,0-2.73-.13A2.76,2.76,0,0,0,417.57,24.7Z"/><path class="cls-4" d="M432.08,28.62a4.1,4.1,0,0,1-1.2.91,3,3,0,0,1-1.3.31,2.28,2.28,0,0,1-1.69-.64,2.34,2.34,0,0,1-.64-1.73,2.62,2.62,0,0,1,.3-1.27,2.27,2.27,0,0,1,.81-.87,4.33,4.33,0,0,1,1.56-.46,9,9,0,0,0,2.07-.49V24a1.84,1.84,0,0,0-.31-1.2,1.67,1.67,0,0,0-1.32-.5,1.83,1.83,0,0,0-1.2.33,2.21,2.21,0,0,0-.59,1.26l-1.13-.19a3.18,3.18,0,0,1,1-1.95,3.26,3.26,0,0,1,2.11-.61,3,3,0,0,1,1.68.41,1.71,1.71,0,0,1,.77,1,7,7,0,0,1,.16,1.74v1.87a23.12,23.12,0,0,0,.08,2.48,3.58,3.58,0,0,0,.29,1h-1.2A3.63,3.63,0,0,1,432.08,28.62ZM432,25.48a7.31,7.31,0,0,1-1.89.54,3.33,3.33,0,0,0-1,.28,1.21,1.21,0,0,0-.45.45,1.37,1.37,0,0,0-.16.68,1.24,1.24,0,0,0,.37.95,1.37,1.37,0,0,0,1,.35,2,2,0,0,0,1.12-.32,2,2,0,0,0,.76-.85A4,4,0,0,0,432,26Z"/><path class="cls-4" d="M438.15,27.16,439.3,27a2.06,2.06,0,0,0,.55,1.3,1.94,1.94,0,0,0,2.36.06,1.23,1.23,0,0,0,.41-.94.93.93,0,0,0-.35-.77,4.64,4.64,0,0,0-1.17-.47,8.28,8.28,0,0,1-1.8-.7,1.93,1.93,0,0,1-.7-.77,2.36,2.36,0,0,1-.25-1.11,2.28,2.28,0,0,1,.68-1.72,2.58,2.58,0,0,1,1.88-.67,3,3,0,0,1,1.33.28,2.06,2.06,0,0,1,.88.73,3.3,3.3,0,0,1,.42,1.32l-1.12.19a1.35,1.35,0,0,0-1.48-1.36,1.76,1.76,0,0,0-1.12.3,1,1,0,0,0-.36.77.85.85,0,0,0,.35.72,6.55,6.55,0,0,0,1.25.5,9.4,9.4,0,0,1,1.85.72,1.89,1.89,0,0,1,.66.74,2.51,2.51,0,0,1,.23,1.1,2.58,2.58,0,0,1-.75,1.93,2.84,2.84,0,0,1-2.06.74C439.36,29.84,438.41,29,438.15,27.16Z"/><path class="cls-4" d="M449.49,32.83V28.77a2.33,2.33,0,0,1-.76.77,1.89,1.89,0,0,1-1,.3,2.6,2.6,0,0,1-2.11-1.16,5.2,5.2,0,0,1-.89-3.26,5.68,5.68,0,0,1,.75-3,2.36,2.36,0,0,1,2.12-1.22,2,2,0,0,1,1.13.33,2.73,2.73,0,0,1,.85,1V21.35h1V32.83Zm-3.57-7.35a4.16,4.16,0,0,0,.57,2.41,1.61,1.61,0,0,0,1.34.79,1.53,1.53,0,0,0,1.24-.76,4,4,0,0,0,.53-2.27,4.53,4.53,0,0,0-.56-2.54,1.63,1.63,0,0,0-1.35-.84,1.5,1.5,0,0,0-1.24.78A4.42,4.42,0,0,0,445.92,25.48Z"/><path class="cls-4" d="M456.91,29.65V28.43a3,3,0,0,1-.94,1.05,2.13,2.13,0,0,1-1.22.36,2.2,2.2,0,0,1-1.37-.44,2,2,0,0,1-.76-1.1,6.6,6.6,0,0,1-.2-1.81V21.35h1.15V26a7.62,7.62,0,0,0,.13,1.72,1.32,1.32,0,0,0,.48.69,1.23,1.23,0,0,0,.79.26,1.65,1.65,0,0,0,1.36-.67,3.73,3.73,0,0,0,.45-2.15V21.35h1.16v8.3Z"/><path class="cls-4" d="M464.18,28.62a4,4,0,0,1-1.2.91,3,3,0,0,1-1.3.31A2.28,2.28,0,0,1,460,29.2a2.38,2.38,0,0,1-.64-1.73,2.62,2.62,0,0,1,.3-1.27,2.27,2.27,0,0,1,.81-.87,4.33,4.33,0,0,1,1.57-.46,9,9,0,0,0,2.06-.49V24a1.78,1.78,0,0,0-.31-1.2,1.64,1.64,0,0,0-1.32-.5,1.85,1.85,0,0,0-1.2.33,2.21,2.21,0,0,0-.59,1.26l-1.13-.19a3.18,3.18,0,0,1,1-1.95,3.27,3.27,0,0,1,2.11-.61,3,3,0,0,1,1.68.41,1.67,1.67,0,0,1,.77,1,7,7,0,0,1,.16,1.74v1.87a23.12,23.12,0,0,0,.08,2.48,3.58,3.58,0,0,0,.29,1h-1.2A3.63,3.63,0,0,1,464.18,28.62Zm-.09-3.14a7.34,7.34,0,0,1-1.88.54,3.33,3.33,0,0,0-1,.28,1.21,1.21,0,0,0-.45.45,1.37,1.37,0,0,0-.16.68,1.24,1.24,0,0,0,.37.95,1.37,1.37,0,0,0,1,.35,2.07,2.07,0,0,0,1.88-1.17,3.78,3.78,0,0,0,.25-1.56Z"/><path class="cls-4" d="M467.05,29.65v-8.3h1v1.26a3.5,3.5,0,0,1,.73-1.16,1.12,1.12,0,0,1,.75-.29,2,2,0,0,1,1.18.46l-.4,1.3a1.43,1.43,0,0,0-.83-.3,1,1,0,0,0-.67.26,1.32,1.32,0,0,0-.43.71,6.36,6.36,0,0,0-.22,1.71v4.35Z"/><path class="cls-4" d="M476.07,27l1.18.18a3.61,3.61,0,0,1-1.07,2,2.84,2.84,0,0,1-1.93.68,2.89,2.89,0,0,1-2.34-1.1,5,5,0,0,1-.89-3.17,5.19,5.19,0,0,1,.9-3.28,2.81,2.81,0,0,1,2.29-1.13,2.71,2.71,0,0,1,2.2,1.11,5.05,5.05,0,0,1,.88,3.21v.38h-5.07a3.57,3.57,0,0,0,.64,2.11,1.78,1.78,0,0,0,1.41.71C475.12,28.68,475.73,28.11,476.07,27Zm-3.79-2.28h3.79a3.11,3.11,0,0,0-.46-1.61,1.68,1.68,0,0,0-2.73-.13A2.76,2.76,0,0,0,472.28,24.7Z"/><path class="cls-4" d="M482.36,19.81V18.2h1.15v1.61Zm0,9.84v-8.3h1.15v8.3Z"/><path class="cls-4" d="M485.28,29.65v-8.3h1v1.17a2.76,2.76,0,0,1,.91-1,2.36,2.36,0,0,1,1.25-.34,2.44,2.44,0,0,1,1,.22,2.1,2.1,0,0,1,.74.56,2.22,2.22,0,0,1,.43.9,7.81,7.81,0,0,1,.14,1.71v5.1h-1.15v-5a4.34,4.34,0,0,0-.15-1.34,1.36,1.36,0,0,0-.49-.65,1.27,1.27,0,0,0-.77-.23,1.6,1.6,0,0,0-1.32.61,3.45,3.45,0,0,0-.5,2.12v4.54Z"/><path class="cls-4" d="M498.78,28.39l.16,1.24a3.15,3.15,0,0,1-.86.13,1.76,1.76,0,0,1-1-.24,1.24,1.24,0,0,1-.5-.65,6.39,6.39,0,0,1-.14-1.65V22.45h-.84v-1.1h.84V19.3l1.15-.85v2.9h1.16v1.1h-1.16V27.3a2.2,2.2,0,0,0,.1.86.58.58,0,0,0,.56.29A2.67,2.67,0,0,0,498.78,28.39Z"/><path class="cls-4" d="M499.87,29.65V18.2H501v4.1a2.82,2.82,0,0,1,.92-.85,2.26,2.26,0,0,1,1.13-.29,2.17,2.17,0,0,1,1.71.7,3.8,3.8,0,0,1,.63,2.53v5.26h-1.15V24.39a2.52,2.52,0,0,0-.38-1.55,1.3,1.3,0,0,0-1.06-.46,1.62,1.62,0,0,0-1.27.6,3.22,3.22,0,0,0-.53,2.13v4.54Z"/><path class="cls-4" d="M511.82,27l1.18.18a3.61,3.61,0,0,1-1.07,2,2.84,2.84,0,0,1-1.93.68,2.89,2.89,0,0,1-2.34-1.1,5,5,0,0,1-.89-3.17,5.19,5.19,0,0,1,.9-3.28A2.81,2.81,0,0,1,510,21.16a2.71,2.71,0,0,1,2.2,1.11,5.05,5.05,0,0,1,.88,3.21v.38H508A3.57,3.57,0,0,0,508.6,28a1.78,1.78,0,0,0,1.41.71C510.88,28.68,511.48,28.11,511.82,27ZM508,24.7h3.79a3.11,3.11,0,0,0-.46-1.61,1.68,1.68,0,0,0-2.73-.13A2.76,2.76,0,0,0,508,24.7Z"/><path class="cls-4" d="M378.35,46.36l1.15-.21a2,2,0,0,0,.55,1.3,1.94,1.94,0,0,0,2.36.06,1.23,1.23,0,0,0,.41-.94.91.91,0,0,0-.36-.77,4.64,4.64,0,0,0-1.17-.47,8.35,8.35,0,0,1-1.79-.7,2,2,0,0,1-.71-.77,2.36,2.36,0,0,1-.25-1.11,2.31,2.31,0,0,1,.68-1.72,2.58,2.58,0,0,1,1.88-.67,3.14,3.14,0,0,1,1.34.28,2.13,2.13,0,0,1,.88.73,3.3,3.3,0,0,1,.42,1.32l-1.13.19a1.34,1.34,0,0,0-1.47-1.36,1.74,1.74,0,0,0-1.12.3.94.94,0,0,0-.37.77.87.87,0,0,0,.35.72,6.46,6.46,0,0,0,1.26.5,9.4,9.4,0,0,1,1.85.72,1.8,1.8,0,0,1,.65.74,2.39,2.39,0,0,1,.24,1.11,2.58,2.58,0,0,1-.76,1.92,2.82,2.82,0,0,1-2.06.74C379.55,49,378.61,48.15,378.35,46.36Z"/><path class="cls-4" d="M389.78,47.83a4.1,4.1,0,0,1-1.2.9,3,3,0,0,1-1.3.31,2.3,2.3,0,0,1-1.69-.64,2.37,2.37,0,0,1-.63-1.73,2.62,2.62,0,0,1,.29-1.27,2.22,2.22,0,0,1,.82-.87,4.2,4.2,0,0,1,1.56-.46,8.87,8.87,0,0,0,2.06-.49v-.36a1.78,1.78,0,0,0-.31-1.2,1.64,1.64,0,0,0-1.32-.5,1.87,1.87,0,0,0-1.2.33,2.21,2.21,0,0,0-.59,1.26l-1.13-.19a3.18,3.18,0,0,1,1-2,3.29,3.29,0,0,1,2.12-.61,3,3,0,0,1,1.67.41,1.7,1.7,0,0,1,.77,1,7,7,0,0,1,.16,1.74v1.87a23.12,23.12,0,0,0,.08,2.48,3.94,3.94,0,0,0,.29,1H390A3.64,3.64,0,0,1,389.78,47.83Zm-.09-3.15a7.34,7.34,0,0,1-1.88.54,3.33,3.33,0,0,0-1,.28,1.21,1.21,0,0,0-.45.45,1.51,1.51,0,0,0-.16.68,1.24,1.24,0,0,0,.37.95,1.38,1.38,0,0,0,1,.35,2,2,0,0,0,1.87-1.17,3.78,3.78,0,0,0,.25-1.56Z"/><path class="cls-4" d="M392.65,48.85v-8.3h1v1.17a2.78,2.78,0,0,1,.92-1,2.33,2.33,0,0,1,1.24-.34,2.44,2.44,0,0,1,1,.22,2.05,2.05,0,0,1,.75.56,2.21,2.21,0,0,1,.42.9,7.23,7.23,0,0,1,.14,1.71v5.1H397V43.8a4.28,4.28,0,0,0-.16-1.34,1.3,1.3,0,0,0-.49-.65,1.27,1.27,0,0,0-.77-.23,1.6,1.6,0,0,0-1.32.61,3.46,3.46,0,0,0-.49,2.12v4.54Z"/><path class="cls-4" d="M404.35,48.85V47.8a2.26,2.26,0,0,1-.8.92,1.94,1.94,0,0,1-1.06.32,2.57,2.57,0,0,1-2.08-1.14,5.1,5.1,0,0,1-.88-3.2,6.56,6.56,0,0,1,.39-2.4,3.22,3.22,0,0,1,1-1.46,2.35,2.35,0,0,1,1.44-.48,1.9,1.9,0,0,1,1.06.31,2.39,2.39,0,0,1,.81.83V37.4h1.16V48.85Zm-3.64-4.14a4.16,4.16,0,0,0,.55,2.39,1.61,1.61,0,0,0,1.31.78,1.55,1.55,0,0,0,1.27-.75,3.88,3.88,0,0,0,.54-2.27,4.66,4.66,0,0,0-.54-2.54,1.6,1.6,0,0,0-1.36-.8,1.52,1.52,0,0,0-1.25.77A4.37,4.37,0,0,0,400.71,44.71Z"/><path class="cls-4" d="M407.6,48.85v-1.6h1.32v1.6Z"/><path class="cls-4" d="M199.1,281.77V270.32h6.34v1.35h-5.1v3.55h4.41v1.35h-4.41v5.2Z"/><path class="cls-4" d="M206.43,277.62a5,5,0,0,1,.9-3.24,2.93,2.93,0,0,1,4.56,0,4.8,4.8,0,0,1,.91,3.16,5.23,5.23,0,0,1-.89,3.33,2.93,2.93,0,0,1-4.57,0A5,5,0,0,1,206.43,277.62Zm1.18,0a4,4,0,0,0,.59,2.4,1.75,1.75,0,0,0,1.45.78A1.67,1.67,0,0,0,211,280a5.21,5.21,0,0,0,0-4.78,1.76,1.76,0,0,0-1.45-.78,1.68,1.68,0,0,0-1.4.79A4,4,0,0,0,207.61,277.62Z"/><path class="cls-4" d="M218.62,281.77v-1.22a3,3,0,0,1-.94,1.06,2.23,2.23,0,0,1-1.22.35,2.18,2.18,0,0,1-1.37-.43,2.12,2.12,0,0,1-.77-1.1,7.14,7.14,0,0,1-.19-1.81v-5.14h1.15v4.6a7,7,0,0,0,.13,1.71,1.38,1.38,0,0,0,.48.7,1.29,1.29,0,0,0,.79.26,1.67,1.67,0,0,0,1.36-.68,3.71,3.71,0,0,0,.45-2.15v-4.44h1.16v8.29Z"/><path class="cls-4" d="M221.46,281.77v-8.29h1v1.25a3.67,3.67,0,0,1,.73-1.16,1.11,1.11,0,0,1,.75-.28,2,2,0,0,1,1.18.45l-.39,1.31a1.43,1.43,0,0,0-.84-.31,1,1,0,0,0-.67.26,1.31,1.31,0,0,0-.43.72,6.31,6.31,0,0,0-.22,1.71v4.34Z"/><path class="cls-4" d="M230.73,281.77l-2.09-8.29h1.19l1.09,4.79.4,1.78.36-1.71,1.08-4.86H234l1,4.81.34,1.59.39-1.61,1.16-4.79H238l-2.13,8.29h-1.2l-1.08-5-.26-1.41-1.38,6.38Z"/><path class="cls-4" d="M238.51,277.62a5,5,0,0,1,.9-3.24,2.93,2.93,0,0,1,4.56,0,4.8,4.8,0,0,1,.91,3.16,5.17,5.17,0,0,1-.9,3.33,2.92,2.92,0,0,1-4.56,0A5,5,0,0,1,238.51,277.62Zm1.18,0a4,4,0,0,0,.58,2.4,1.77,1.77,0,0,0,1.46.78,1.69,1.69,0,0,0,1.39-.79,5.21,5.21,0,0,0,0-4.78,1.77,1.77,0,0,0-1.46-.78,1.67,1.67,0,0,0-1.39.79A4,4,0,0,0,239.69,277.62Z"/><path class="cls-4" d="M247.3,281.77h-1.07V270.32h1.15v4.09a2.66,2.66,0,0,1,.83-.84,2,2,0,0,1,1-.28,2.4,2.4,0,0,1,1.45.48,3.22,3.22,0,0,1,1,1.44,6.32,6.32,0,0,1,.39,2.35,5.25,5.25,0,0,1-.88,3.26,2.58,2.58,0,0,1-2.07,1.14,1.91,1.91,0,0,1-1.07-.31,2.55,2.55,0,0,1-.81-.92Zm0-4.21a6.14,6.14,0,0,0,.23,1.93,2.11,2.11,0,0,0,.67,1,1.45,1.45,0,0,0,2.22-.47,5.58,5.58,0,0,0,0-4.79,1.46,1.46,0,0,0-2.58,0A4,4,0,0,0,247.28,277.56Z"/><path class="cls-4" d="M254.59,281.77h-1.07V270.32h1.16v4.09a2.47,2.47,0,0,1,.83-.84,2,2,0,0,1,1-.28,2.4,2.4,0,0,1,1.45.48,3.22,3.22,0,0,1,1,1.44,6.32,6.32,0,0,1,.39,2.35,5.25,5.25,0,0,1-.89,3.26,2.55,2.55,0,0,1-2.06,1.14,1.89,1.89,0,0,1-1.07-.31,2.57,2.57,0,0,1-.82-.92Zm0-4.21a5.86,5.86,0,0,0,.23,1.93,2.11,2.11,0,0,0,.67,1,1.5,1.5,0,0,0,1,.33,1.54,1.54,0,0,0,1.27-.8,4.2,4.2,0,0,0,.55-2.39,4.31,4.31,0,0,0-.53-2.4,1.56,1.56,0,0,0-1.31-.76,1.54,1.54,0,0,0-1.27.8A3.94,3.94,0,0,0,254.58,277.56Z"/><path class="cls-4" d="M260.8,281.77V270.32H262v11.45Z"/><path class="cls-4" d="M263.71,285l-.12-1.32a2.2,2.2,0,0,0,.65.12,1.13,1.13,0,0,0,.61-.15,1,1,0,0,0,.39-.46c0-.07.19-.53.46-1.37l-2.59-8.31h1.24l1.42,4.8c.18.6.34,1.24.5,1.92.13-.65.28-1.28.46-1.89l1.46-4.83h1.15l-2.58,8.43a14.66,14.66,0,0,1-.8,2.2,2.23,2.23,0,0,1-.66.79,1.53,1.53,0,0,1-.85.24A2.1,2.1,0,0,1,263.71,285Z"/><path class="cls-4" d="M273.92,281.77V270.32h1.15v11.45Z"/><path class="cls-4" d="M276.88,271.94v-1.62H278v1.62Zm0,9.83v-8.29H278v8.29Z"/><path class="cls-4" d="M279.79,281.77v-8.29h1v1.17a2.61,2.61,0,0,1,.91-1,2.3,2.3,0,0,1,1.25-.34,2.44,2.44,0,0,1,1,.21,2.08,2.08,0,0,1,.75.57,2.21,2.21,0,0,1,.42.9,7.19,7.19,0,0,1,.14,1.7v5.1h-1.15v-5a4.39,4.39,0,0,0-.15-1.34,1.36,1.36,0,0,0-.49-.65,1.34,1.34,0,0,0-.77-.23,1.61,1.61,0,0,0-1.32.62,3.46,3.46,0,0,0-.49,2.12v4.53Z"/><path class="cls-4" d="M291.73,279.1l1.19.18a3.64,3.64,0,0,1-1.07,2,2.84,2.84,0,0,1-1.93.67,2.89,2.89,0,0,1-2.34-1.1,4.92,4.92,0,0,1-.89-3.16,5.15,5.15,0,0,1,.9-3.28,2.81,2.81,0,0,1,2.29-1.13,2.72,2.72,0,0,1,2.2,1.11,5.05,5.05,0,0,1,.88,3.21V278h-5.07a3.55,3.55,0,0,0,.64,2.11,1.75,1.75,0,0,0,1.41.71C290.79,280.8,291.4,280.24,291.73,279.1ZM288,276.83h3.79a3.08,3.08,0,0,0-.46-1.61,1.68,1.68,0,0,0-2.73-.13A2.76,2.76,0,0,0,288,276.83Z"/><path class="cls-4" d="M293.94,279.29l1.15-.22a2,2,0,0,0,.55,1.31,1.69,1.69,0,0,0,1.2.42,1.67,1.67,0,0,0,1.16-.37,1.21,1.21,0,0,0,.41-.94.89.89,0,0,0-.36-.76,4.27,4.27,0,0,0-1.17-.47,8.23,8.23,0,0,1-1.79-.71,2,2,0,0,1-.71-.77,2.44,2.44,0,0,1-.25-1.1,2.34,2.34,0,0,1,.68-1.73,2.61,2.61,0,0,1,1.89-.66,3.13,3.13,0,0,1,1.33.27,2.22,2.22,0,0,1,.88.74,3.2,3.2,0,0,1,.42,1.32l-1.13.18a1.34,1.34,0,0,0-1.47-1.35,1.68,1.68,0,0,0-1.12.3.91.91,0,0,0-.37.76.85.85,0,0,0,.35.72,6.09,6.09,0,0,0,1.26.5,9.9,9.9,0,0,1,1.85.73,1.77,1.77,0,0,1,.65.73,2.39,2.39,0,0,1,.24,1.11,2.61,2.61,0,0,1-.76,1.93,2.82,2.82,0,0,1-2.06.73C295.14,282,294.2,281.07,293.94,279.29Z"/><path class="cls-4" d="M304.16,277.62a5,5,0,0,1,.9-3.24,2.93,2.93,0,0,1,4.56,0,4.8,4.8,0,0,1,.91,3.16,5.17,5.17,0,0,1-.9,3.33,2.92,2.92,0,0,1-4.56,0A5,5,0,0,1,304.16,277.62Zm1.18,0a4,4,0,0,0,.58,2.4,1.77,1.77,0,0,0,1.46.78,1.69,1.69,0,0,0,1.39-.79,5.21,5.21,0,0,0,0-4.78,1.77,1.77,0,0,0-1.46-.78,1.7,1.7,0,0,0-1.4.79A4.05,4.05,0,0,0,305.34,277.62Z"/><path class="cls-4" d="M312.21,281.77v-7.2h-1v-1.09h1v-.89a4.1,4.1,0,0,1,.2-1.46,1.56,1.56,0,0,1,.63-.75,2,2,0,0,1,1-.26,4.37,4.37,0,0,1,1.08.15l-.17,1.22a3.39,3.39,0,0,0-.68-.08.92.92,0,0,0-.74.27,1.71,1.71,0,0,0-.22,1v.77h1.33v1.09h-1.33v7.2Z"/><path class="cls-4" d="M203.3,301v-1.22a2.87,2.87,0,0,1-.93,1.06,2.23,2.23,0,0,1-1.22.35,2.2,2.2,0,0,1-1.38-.43,2.1,2.1,0,0,1-.76-1.1,6.71,6.71,0,0,1-.19-1.81v-5.14H200v4.6a7,7,0,0,0,.13,1.71,1.31,1.31,0,0,0,.47.7,1.34,1.34,0,0,0,.8.26,1.67,1.67,0,0,0,1.36-.68,3.71,3.71,0,0,0,.45-2.15v-4.44h1.16V301Z"/><path class="cls-4" d="M206.15,301v-8.29h1v1.17a2.61,2.61,0,0,1,.91-1,2.28,2.28,0,0,1,1.25-.34,2.44,2.44,0,0,1,1,.21,2,2,0,0,1,1.17,1.47,7.77,7.77,0,0,1,.14,1.7V301h-1.15v-5.05a4.39,4.39,0,0,0-.15-1.34,1.36,1.36,0,0,0-.49-.65,1.34,1.34,0,0,0-.77-.23,1.61,1.61,0,0,0-1.32.62,3.46,3.46,0,0,0-.49,2.12V301Z"/><path class="cls-4" d="M218.09,298.3l1.19.18a3.6,3.6,0,0,1-1.07,2,2.84,2.84,0,0,1-1.93.67,2.89,2.89,0,0,1-2.34-1.1,4.86,4.86,0,0,1-.89-3.16,5.15,5.15,0,0,1,.9-3.28,2.8,2.8,0,0,1,2.28-1.13,2.72,2.72,0,0,1,2.21,1.11,5.05,5.05,0,0,1,.88,3.21v.37h-5.08a3.62,3.62,0,0,0,.65,2.11,1.75,1.75,0,0,0,1.41.71C217.15,300,217.75,299.44,218.09,298.3ZM214.3,296h3.8a3.08,3.08,0,0,0-.46-1.61,1.68,1.68,0,0,0-2.73-.13A2.82,2.82,0,0,0,214.3,296Z"/><path class="cls-4" d="M222.64,301l-2.59-8.29h1.22l1.47,5c.16.56.31,1.12.44,1.67.1-.44.24-1,.42-1.58l1.52-5.06h1.18L223.72,301Z"/><path class="cls-4" d="M232,298.3l1.19.18a3.67,3.67,0,0,1-1.07,2,2.84,2.84,0,0,1-1.93.67,2.89,2.89,0,0,1-2.34-1.1,4.86,4.86,0,0,1-.89-3.16,5.15,5.15,0,0,1,.9-3.28,2.8,2.8,0,0,1,2.28-1.13,2.72,2.72,0,0,1,2.21,1.11,5.05,5.05,0,0,1,.88,3.21v.37h-5.08a3.62,3.62,0,0,0,.65,2.11,1.75,1.75,0,0,0,1.41.71C231,300,231.61,299.44,232,298.3ZM228.16,296H232a3.18,3.18,0,0,0-.46-1.61,1.68,1.68,0,0,0-2.73-.13A2.82,2.82,0,0,0,228.16,296Z"/><path class="cls-4" d="M234.6,301v-8.29h1v1.17a2.63,2.63,0,0,1,.92-1,2.24,2.24,0,0,1,1.24-.34,2.4,2.4,0,0,1,1,.21,2,2,0,0,1,1.17,1.47,7.19,7.19,0,0,1,.14,1.7V301H239v-5.05a4.32,4.32,0,0,0-.16-1.34,1.3,1.3,0,0,0-.49-.65,1.34,1.34,0,0,0-.77-.23,1.61,1.61,0,0,0-1.32.62,3.46,3.46,0,0,0-.49,2.12V301Z"/><path class="cls-4" d="M245.51,301V289.52h1.15V301Z"/><path class="cls-4" d="M253.11,298.3l1.19.18a3.61,3.61,0,0,1-1.08,2,2.83,2.83,0,0,1-1.92.67,2.86,2.86,0,0,1-2.34-1.1,4.86,4.86,0,0,1-.9-3.16,5.15,5.15,0,0,1,.9-3.28,2.84,2.84,0,0,1,2.29-1.13,2.71,2.71,0,0,1,2.2,1.11,5.05,5.05,0,0,1,.89,3.21v.37h-5.08a3.55,3.55,0,0,0,.65,2.11,1.72,1.72,0,0,0,1.4.71C252.17,300,252.77,299.44,253.11,298.3ZM249.32,296h3.8a3.18,3.18,0,0,0-.46-1.61,1.66,1.66,0,0,0-1.42-.77,1.68,1.68,0,0,0-1.32.64A2.88,2.88,0,0,0,249.32,296Z"/><path class="cls-4" d="M255.76,301v-8.29h1v1.17a2.61,2.61,0,0,1,.91-1,2.28,2.28,0,0,1,1.25-.34,2.44,2.44,0,0,1,1,.21,2,2,0,0,1,1.17,1.47,7.77,7.77,0,0,1,.14,1.7V301h-1.15v-5.05a4.39,4.39,0,0,0-.15-1.34,1.36,1.36,0,0,0-.49-.65,1.34,1.34,0,0,0-.77-.23,1.61,1.61,0,0,0-1.32.62,3.46,3.46,0,0,0-.49,2.12V301Z"/><path class="cls-4" d="M262.83,301.66l1.12.2a1.46,1.46,0,0,0,.47,1,1.63,1.63,0,0,0,1.09.32,1.69,1.69,0,0,0,1.82-1.44,10.12,10.12,0,0,0,.1-1.84,2.75,2.75,0,0,1-.84.8,2.07,2.07,0,0,1-1,.27,2.47,2.47,0,0,1-2-1,5.07,5.07,0,0,1-.92-3.18,6.14,6.14,0,0,1,.41-2.33,3.19,3.19,0,0,1,1.06-1.47,2.53,2.53,0,0,1,1.48-.47,2.15,2.15,0,0,1,1.1.29,2.77,2.77,0,0,1,.88.89v-1h1.06v7.17a8.39,8.39,0,0,1-.31,2.73,2.71,2.71,0,0,1-1,1.29,3.09,3.09,0,0,1-1.71.47,2.76,2.76,0,0,1-2-.71A2.55,2.55,0,0,1,262.83,301.66Zm.95-5a4.18,4.18,0,0,0,.54,2.39,1.59,1.59,0,0,0,1.32.75,1.63,1.63,0,0,0,1.34-.74,4,4,0,0,0,.54-2.34,3.91,3.91,0,0,0-.56-2.33,1.66,1.66,0,0,0-1.37-.76,1.53,1.53,0,0,0-1.26.76A3.84,3.84,0,0,0,263.78,296.68Z"/><path class="cls-4" d="M272.91,299.72l.16,1.24a3.54,3.54,0,0,1-.86.12,1.76,1.76,0,0,1-1-.24,1.17,1.17,0,0,1-.5-.65,6.29,6.29,0,0,1-.14-1.65v-4.77h-.84v-1.09h.84v-2.06l1.15-.84v2.9h1.16v1.09h-1.16v4.85a2.26,2.26,0,0,0,.1.87.57.57,0,0,0,.56.28A3.64,3.64,0,0,0,272.91,299.72Z"/><path class="cls-4" d="M274,301V289.52h1.15v4.11a2.86,2.86,0,0,1,.92-.86,2.26,2.26,0,0,1,1.13-.28,2.2,2.2,0,0,1,1.71.69,3.84,3.84,0,0,1,.63,2.54V301h-1.15v-5.25a2.5,2.5,0,0,0-.38-1.55,1.31,1.31,0,0,0-1.06-.47,1.62,1.62,0,0,0-1.27.6,3.22,3.22,0,0,0-.53,2.13V301Z"/><path class="cls-4" d="M280.85,298.49l1.15-.22a2.09,2.09,0,0,0,.55,1.31,1.69,1.69,0,0,0,1.2.42,1.65,1.65,0,0,0,1.16-.37,1.21,1.21,0,0,0,.41-.94.91.91,0,0,0-.35-.76,4.27,4.27,0,0,0-1.17-.47,8.15,8.15,0,0,1-1.8-.71,1.93,1.93,0,0,1-.7-.77,2.54,2.54,0,0,1,.43-2.83,2.58,2.58,0,0,1,1.88-.66,3.1,3.1,0,0,1,1.33.27,2.16,2.16,0,0,1,.88.74,3.2,3.2,0,0,1,.42,1.32l-1.12.18a1.35,1.35,0,0,0-1.48-1.35,1.76,1.76,0,0,0-1.12.3.93.93,0,0,0-.36.76.82.82,0,0,0,.35.72,5.38,5.38,0,0,0,1.25.5,9.9,9.9,0,0,1,1.85.73,1.87,1.87,0,0,1,.66.73,2.53,2.53,0,0,1,.23,1.11,2.61,2.61,0,0,1-.75,1.93,2.84,2.84,0,0,1-2.06.73C282.06,301.16,281.11,300.27,280.85,298.49Z"/><path class="cls-4" d="M288.22,301v-1.6h1.31V301Z"/><path class="cls-4" d="M199.85,29.65h-1.07V18.2h1.15v4.09a2.66,2.66,0,0,1,.83-.84,2,2,0,0,1,1-.28,2.4,2.4,0,0,1,1.45.48,3.22,3.22,0,0,1,1,1.44,6.32,6.32,0,0,1,.39,2.35,5.25,5.25,0,0,1-.88,3.26,2.58,2.58,0,0,1-2.07,1.14,1.91,1.91,0,0,1-1.07-.31,2.55,2.55,0,0,1-.81-.92Zm0-4.21a6.14,6.14,0,0,0,.23,1.93,2.17,2.17,0,0,0,.67,1,1.45,1.45,0,0,0,2.22-.47,4.2,4.2,0,0,0,.55-2.39,4.22,4.22,0,0,0-.53-2.4,1.46,1.46,0,0,0-2.58,0A4,4,0,0,0,199.83,25.44Z"/><path class="cls-4" d="M205.65,25.5a5,5,0,0,1,.9-3.24,2.93,2.93,0,0,1,4.56,0,4.8,4.8,0,0,1,.92,3.16,5.17,5.17,0,0,1-.9,3.33,2.83,2.83,0,0,1-2.29,1.09,2.86,2.86,0,0,1-2.28-1.1A5,5,0,0,1,205.65,25.5Zm1.18,0a4,4,0,0,0,.59,2.4,1.75,1.75,0,0,0,1.45.78,1.67,1.67,0,0,0,1.39-.79,4,4,0,0,0,.59-2.39,4,4,0,0,0-.59-2.39,1.75,1.75,0,0,0-1.45-.78,1.68,1.68,0,0,0-1.4.79A4,4,0,0,0,206.83,25.5Z"/><path class="cls-4" d="M212.64,29.65l2.48-4.31-2.29-4h1.44l1,1.94c.19.36.35.67.47.93.2-.35.37-.65.53-.9l1.14-2h1.37l-2.34,3.89,2.52,4.4h-1.41l-1.4-2.58-.36-.69L214,29.65Z"/><path class="cls-4" d="M219.51,26.22V24.8h3.54v1.42Z"/><path class="cls-4" d="M223.87,27.17,225,27a2.09,2.09,0,0,0,.55,1.31,1.69,1.69,0,0,0,1.2.42,1.65,1.65,0,0,0,1.16-.37,1.21,1.21,0,0,0,.41-.94.91.91,0,0,0-.35-.76,4.27,4.27,0,0,0-1.17-.47,8.15,8.15,0,0,1-1.8-.71,1.93,1.93,0,0,1-.7-.77,2.54,2.54,0,0,1,.43-2.83,2.58,2.58,0,0,1,1.88-.66,3.1,3.1,0,0,1,1.33.27,2.08,2.08,0,0,1,.88.74,3.2,3.2,0,0,1,.42,1.32l-1.12.18a1.35,1.35,0,0,0-1.48-1.35,1.76,1.76,0,0,0-1.12.29,1,1,0,0,0-.37.77.83.83,0,0,0,.36.72,5.66,5.66,0,0,0,1.25.5,9.9,9.9,0,0,1,1.85.73,1.87,1.87,0,0,1,.66.73,2.53,2.53,0,0,1,.23,1.11,2.58,2.58,0,0,1-.76,1.93,2.79,2.79,0,0,1-2,.73C225.08,29.84,224.13,29,223.87,27.17Z"/><path class="cls-4" d="M230.88,29.65V18.2H232v4.11a2.84,2.84,0,0,1,.91-.86,2.31,2.31,0,0,1,1.13-.28,2.21,2.21,0,0,1,1.72.69,3.84,3.84,0,0,1,.63,2.54v5.25h-1.15V24.4a2.5,2.5,0,0,0-.38-1.55,1.31,1.31,0,0,0-1.06-.47,1.66,1.66,0,0,0-1.28.6,3.28,3.28,0,0,0-.52,2.13v4.54Z"/><path class="cls-4" d="M242.6,28.63a4.33,4.33,0,0,1-1.2.91,3,3,0,0,1-1.3.3,2.26,2.26,0,0,1-1.69-.64,2.36,2.36,0,0,1-.63-1.73,2.73,2.73,0,0,1,.29-1.27,2.22,2.22,0,0,1,.82-.87,4.2,4.2,0,0,1,1.56-.46,8.87,8.87,0,0,0,2.06-.49V24a1.73,1.73,0,0,0-.31-1.19,1.61,1.61,0,0,0-1.32-.5,1.87,1.87,0,0,0-1.2.33,2.18,2.18,0,0,0-.59,1.25L238,23.72a3.12,3.12,0,0,1,1-1.94,3.23,3.23,0,0,1,2.12-.61,3,3,0,0,1,1.68.4,1.71,1.71,0,0,1,.76,1,6.87,6.87,0,0,1,.16,1.73v1.88a23.12,23.12,0,0,0,.08,2.48,3.87,3.87,0,0,0,.29,1h-1.2A3.48,3.48,0,0,1,242.6,28.63Zm-.09-3.14a7,7,0,0,1-1.88.53,3.27,3.27,0,0,0-1,.29,1.08,1.08,0,0,0-.45.45,1.44,1.44,0,0,0-.16.67,1.23,1.23,0,0,0,.37.95,1.4,1.4,0,0,0,1,.36,2.09,2.09,0,0,0,1.12-.32,2,2,0,0,0,.75-.86,3.72,3.72,0,0,0,.25-1.56Z"/><path class="cls-4" d="M249.88,29.65v-1a2.33,2.33,0,0,1-.81.91,1.84,1.84,0,0,1-1.06.32,2.57,2.57,0,0,1-2.08-1.14,5.08,5.08,0,0,1-.88-3.2,6.47,6.47,0,0,1,.39-2.39,3.18,3.18,0,0,1,1-1.46,2.4,2.4,0,0,1,1.45-.48,1.94,1.94,0,0,1,1,.3,2.33,2.33,0,0,1,.81.84V18.2H251V29.65Zm-3.65-4.14a4.13,4.13,0,0,0,.56,2.39,1.58,1.58,0,0,0,1.3.78,1.55,1.55,0,0,0,1.27-.75,3.86,3.86,0,0,0,.54-2.26,4.63,4.63,0,0,0-.54-2.54,1.58,1.58,0,0,0-1.36-.8,1.5,1.5,0,0,0-1.25.76A4.39,4.39,0,0,0,246.23,25.51Z"/><path class="cls-4" d="M252.33,25.5a5,5,0,0,1,.9-3.24,2.93,2.93,0,0,1,4.56,0,4.8,4.8,0,0,1,.92,3.16,5.17,5.17,0,0,1-.9,3.33,2.83,2.83,0,0,1-2.29,1.09,2.86,2.86,0,0,1-2.28-1.1A5,5,0,0,1,252.33,25.5Zm1.18,0a4,4,0,0,0,.59,2.4,1.75,1.75,0,0,0,1.45.78,1.67,1.67,0,0,0,1.39-.79,4,4,0,0,0,.59-2.39,4,4,0,0,0-.59-2.39,1.75,1.75,0,0,0-1.45-.78,1.68,1.68,0,0,0-1.4.79A4,4,0,0,0,253.51,25.5Z"/><path class="cls-4" d="M261.32,29.65l-2.09-8.29h1.19l1.08,4.79.41,1.78.35-1.71,1.08-4.86h1.2l1,4.81.34,1.58.39-1.6,1.16-4.79h1.13l-2.13,8.29h-1.2l-1.08-5-.26-1.41-1.38,6.38Z"/><path class="cls-4" d="M18.4,530.74l1.15-.19c.24,1.51.85,2.26,1.82,2.26a1.74,1.74,0,0,0,1.37-.67,2.51,2.51,0,0,0,.58-1.73,2.33,2.33,0,0,0-.53-1.61,1.65,1.65,0,0,0-1.3-.61,2.93,2.93,0,0,0-.82.15l.14-1.23H21a1.9,1.9,0,0,0,1.39-.52,1.88,1.88,0,0,0,.53-1.39,1.81,1.81,0,0,0-.45-1.29,1.4,1.4,0,0,0-1.09-.49,1.46,1.46,0,0,0-1.12.51,2.8,2.8,0,0,0-.58,1.55l-1.15-.25a3.76,3.76,0,0,1,1-2.22,2.65,2.65,0,0,1,3.79.1,3,3,0,0,1,.8,2.12,2.72,2.72,0,0,1-.34,1.38,2.45,2.45,0,0,1-.94,1,2,2,0,0,1,.92.51,2.53,2.53,0,0,1,.59,1,3.8,3.8,0,0,1,.23,1.34,3.66,3.66,0,0,1-.93,2.59,3,3,0,0,1-2.23,1,2.7,2.7,0,0,1-2-.88A3.73,3.73,0,0,1,18.4,530.74Z"/><path class="cls-4" d="M29.39,533.77V531H25.32v-1.29l4.28-7.42h.95v7.42h1.27V531H30.55v2.74Zm0-4v-5.16l-2.93,5.16Z"/><path class="cls-4" d="M559,533.77V522.32h4.16a4.49,4.49,0,0,1,1.93.32,2.47,2.47,0,0,1,1,1.07,3.65,3.65,0,0,1,.4,1.73,3.17,3.17,0,0,1-.68,2.1,3.21,3.21,0,0,1-2,1,3.17,3.17,0,0,1,.79.64,7.6,7.6,0,0,1,1,1.46l1.64,3.11h-1.56l-1.26-2.38a15.23,15.23,0,0,0-1.09-1.88,2.2,2.2,0,0,0-.72-.65,2.16,2.16,0,0,0-1-.17h-1.44v5.08Zm1.24-6.39h2.67a3.27,3.27,0,0,0,1.33-.22,1.63,1.63,0,0,0,.72-.66,2,2,0,0,0,.26-1,1.82,1.82,0,0,0-.5-1.37,2.08,2.08,0,0,0-1.51-.49h-3Z"/><path class="cls-4" d="M568.32,523.94v-1.62h1.15v1.62Zm0,9.83v-8.29h1.15v8.29Z"/><path class="cls-4" d="M575.64,533.77v-1a2.39,2.39,0,0,1-.8.91,1.89,1.89,0,0,1-1.07.32,2.58,2.58,0,0,1-2.08-1.14,5.14,5.14,0,0,1-.88-3.2,6.47,6.47,0,0,1,.39-2.39,3.18,3.18,0,0,1,1-1.46,2.4,2.4,0,0,1,1.45-.48,2,2,0,0,1,1.06.3,2.39,2.39,0,0,1,.8.84v-4.11h1.17v11.45ZM572,529.63a4.13,4.13,0,0,0,.56,2.39,1.6,1.6,0,0,0,1.3.78,1.56,1.56,0,0,0,1.28-.75,3.86,3.86,0,0,0,.54-2.26,4.63,4.63,0,0,0-.54-2.54,1.59,1.59,0,0,0-1.36-.8,1.49,1.49,0,0,0-1.25.76A4.38,4.38,0,0,0,572,529.63Z"/><path class="cls-4" d="M578.3,534.46l1.13.2a1.46,1.46,0,0,0,.47,1A1.62,1.62,0,0,0,581,536a1.88,1.88,0,0,0,1.21-.36,1.8,1.8,0,0,0,.61-1.08,9.8,9.8,0,0,0,.11-1.84,2.67,2.67,0,0,1-.85.8,2,2,0,0,1-1,.27,2.46,2.46,0,0,1-2-1,5.07,5.07,0,0,1-.92-3.18,6.15,6.15,0,0,1,.4-2.33,3.2,3.2,0,0,1,1.07-1.47,2.51,2.51,0,0,1,1.48-.47,2.18,2.18,0,0,1,1.1.29,2.87,2.87,0,0,1,.88.89v-1h1.06v7.17a8.43,8.43,0,0,1-.31,2.73,2.67,2.67,0,0,1-1,1.29,3,3,0,0,1-1.71.47,2.77,2.77,0,0,1-2-.71A2.62,2.62,0,0,1,578.3,534.46Zm1-5a4.18,4.18,0,0,0,.54,2.39,1.59,1.59,0,0,0,1.32.75,1.62,1.62,0,0,0,1.33-.74,3.92,3.92,0,0,0,.55-2.34,4,4,0,0,0-.56-2.33,1.67,1.67,0,0,0-1.37-.76,1.56,1.56,0,0,0-1.27.76A3.92,3.92,0,0,0,579.26,529.48Z"/><path class="cls-4" d="M590.48,531.1l1.18.18a3.58,3.58,0,0,1-1.07,2,2.84,2.84,0,0,1-1.93.67,2.89,2.89,0,0,1-2.34-1.1,4.92,4.92,0,0,1-.89-3.16,5.15,5.15,0,0,1,.9-3.28,2.82,2.82,0,0,1,2.29-1.13,2.71,2.71,0,0,1,2.2,1.11,5.05,5.05,0,0,1,.88,3.21V530h-5.08a3.48,3.48,0,0,0,.65,2.11,1.72,1.72,0,0,0,1.4.71C589.54,532.8,590.14,532.24,590.48,531.1Zm-3.79-2.27h3.79a3.08,3.08,0,0,0-.46-1.61,1.68,1.68,0,0,0-2.73-.13A2.76,2.76,0,0,0,586.69,528.83Z"/><path class="cls-4" d="M592.68,531.29l1.15-.22a2.09,2.09,0,0,0,.55,1.31,1.69,1.69,0,0,0,1.2.42,1.65,1.65,0,0,0,1.16-.37,1.21,1.21,0,0,0,.41-.94.91.91,0,0,0-.35-.76,4.24,4.24,0,0,0-1.18-.47,8.23,8.23,0,0,1-1.79-.71,2,2,0,0,1-.71-.77,2.44,2.44,0,0,1-.24-1.1,2.33,2.33,0,0,1,.67-1.73,2.62,2.62,0,0,1,1.89-.66,3.1,3.1,0,0,1,1.33.27,2.16,2.16,0,0,1,.88.74,3.2,3.2,0,0,1,.42,1.32l-1.12.18a1.35,1.35,0,0,0-1.48-1.35,1.7,1.7,0,0,0-1.12.3.94.94,0,0,0-.37.76.83.83,0,0,0,.36.72,5.66,5.66,0,0,0,1.25.5,9.9,9.9,0,0,1,1.85.73,1.77,1.77,0,0,1,.65.73,2.39,2.39,0,0,1,.24,1.11,2.58,2.58,0,0,1-.76,1.93,2.79,2.79,0,0,1-2.05.73C593.89,534,592.94,533.07,592.68,531.29Z"/><path class="cls-4" d="M607.77,532.75a4.52,4.52,0,0,1-1.21.91,2.94,2.94,0,0,1-1.29.3,2.27,2.27,0,0,1-1.7-.64,2.36,2.36,0,0,1-.63-1.73,2.73,2.73,0,0,1,.29-1.27,2.22,2.22,0,0,1,.82-.87,4.4,4.4,0,0,1,1.56-.46,8.87,8.87,0,0,0,2.06-.49v-.36a1.8,1.8,0,0,0-.3-1.19,1.64,1.64,0,0,0-1.33-.5,1.87,1.87,0,0,0-1.2.33,2.18,2.18,0,0,0-.58,1.25l-1.14-.19a3.12,3.12,0,0,1,1-1.94,3.25,3.25,0,0,1,2.12-.61,3,3,0,0,1,1.68.4,1.77,1.77,0,0,1,.77,1,7.37,7.37,0,0,1,.16,1.73v1.88a24.27,24.27,0,0,0,.07,2.48,3.87,3.87,0,0,0,.29,1H608A3.2,3.2,0,0,1,607.77,532.75Zm-.1-3.14a7,7,0,0,1-1.88.53,3.36,3.36,0,0,0-1,.29,1.08,1.08,0,0,0-.45.45,1.44,1.44,0,0,0-.16.67,1.26,1.26,0,0,0,.37,1,1.4,1.4,0,0,0,1,.36,2.09,2.09,0,0,0,1.12-.32,2,2,0,0,0,.75-.86,3.72,3.72,0,0,0,.25-1.56Z"/><path class="cls-4" d="M610.63,533.77v-8.29h1v1.17a2.63,2.63,0,0,1,.92-1,2.24,2.24,0,0,1,1.24-.34,2.4,2.4,0,0,1,1,.21,2.08,2.08,0,0,1,.75.57,2.36,2.36,0,0,1,.43.9,7.77,7.77,0,0,1,.14,1.7v5.1H615v-5a4,4,0,0,0-.16-1.34,1.3,1.3,0,0,0-.49-.65,1.32,1.32,0,0,0-.77-.23,1.61,1.61,0,0,0-1.32.62,3.53,3.53,0,0,0-.49,2.12v4.53Z"/><path class="cls-4" d="M622.34,533.77v-1a2.33,2.33,0,0,1-.81.91,1.86,1.86,0,0,1-1.06.32,2.57,2.57,0,0,1-2.08-1.14,5.08,5.08,0,0,1-.88-3.2,6.47,6.47,0,0,1,.39-2.39,3.11,3.11,0,0,1,1-1.46,2.38,2.38,0,0,1,1.45-.48,1.94,1.94,0,0,1,1.05.3,2.33,2.33,0,0,1,.81.84v-4.11h1.16v11.45Zm-3.65-4.14a4.05,4.05,0,0,0,.56,2.39,1.58,1.58,0,0,0,1.3.78,1.55,1.55,0,0,0,1.27-.75,3.86,3.86,0,0,0,.54-2.26,4.63,4.63,0,0,0-.54-2.54,1.58,1.58,0,0,0-1.36-.8,1.5,1.5,0,0,0-1.25.76A4.39,4.39,0,0,0,618.69,529.63Z"/><path class="cls-4" d="M628.88,533.77v-8.29h1v1.25a3.67,3.67,0,0,1,.73-1.16,1.13,1.13,0,0,1,.75-.28,2,2,0,0,1,1.18.45l-.39,1.31a1.43,1.43,0,0,0-.84-.31,1,1,0,0,0-.67.26,1.44,1.44,0,0,0-.43.72,6.73,6.73,0,0,0-.22,1.71v4.34Z"/><path class="cls-4" d="M632.8,529.62a5,5,0,0,1,.91-3.24,2.93,2.93,0,0,1,4.56,0,4.8,4.8,0,0,1,.91,3.16,5.17,5.17,0,0,1-.9,3.33A2.83,2.83,0,0,1,636,534a2.86,2.86,0,0,1-2.28-1.1A5,5,0,0,1,632.8,529.62Zm1.18,0a4,4,0,0,0,.59,2.4,1.76,1.76,0,0,0,1.45.78,1.69,1.69,0,0,0,1.4-.79,5.17,5.17,0,0,0,0-4.78,1.75,1.75,0,0,0-1.45-.78,1.69,1.69,0,0,0-1.4.79A4,4,0,0,0,634,529.62Z"/><path class="cls-4" d="M645,533.77v-1.22a2.89,2.89,0,0,1-.94,1.06,2.17,2.17,0,0,1-1.21.35,2.2,2.2,0,0,1-1.38-.43,2.1,2.1,0,0,1-.76-1.1,6.71,6.71,0,0,1-.19-1.81v-5.14h1.15v4.6a7,7,0,0,0,.13,1.71,1.29,1.29,0,0,0,1.26,1,1.65,1.65,0,0,0,1.36-.68,3.62,3.62,0,0,0,.46-2.15v-4.44H646v8.29Z"/><path class="cls-4" d="M647.61,534.46l1.12.2a1.5,1.5,0,0,0,.47,1,1.65,1.65,0,0,0,1.09.32,1.9,1.9,0,0,0,1.21-.36,1.85,1.85,0,0,0,.61-1.08,10.12,10.12,0,0,0,.1-1.84,2.75,2.75,0,0,1-.84.8,2.07,2.07,0,0,1-1,.27,2.48,2.48,0,0,1-2-1,5.07,5.07,0,0,1-.92-3.18,6.14,6.14,0,0,1,.41-2.33,3.2,3.2,0,0,1,1.07-1.47,2.51,2.51,0,0,1,1.48-.47,2.14,2.14,0,0,1,1.09.29,2.77,2.77,0,0,1,.88.89v-1h1.07v7.17a8.37,8.37,0,0,1-.32,2.73,2.71,2.71,0,0,1-1,1.29,3,3,0,0,1-1.71.47,2.76,2.76,0,0,1-2-.71A2.55,2.55,0,0,1,647.61,534.46Zm.95-5a4.18,4.18,0,0,0,.54,2.39,1.59,1.59,0,0,0,1.33.75,1.63,1.63,0,0,0,1.33-.74,4,4,0,0,0,.54-2.34,3.91,3.91,0,0,0-.56-2.33,1.64,1.64,0,0,0-1.37-.76,1.53,1.53,0,0,0-1.26.76A3.84,3.84,0,0,0,648.56,529.48Z"/><path class="cls-4" d="M655.13,533.77V522.32h1.15v4.11a2.86,2.86,0,0,1,.92-.86,2.28,2.28,0,0,1,1.13-.28A2.2,2.2,0,0,1,660,526a3.84,3.84,0,0,1,.63,2.54v5.25h-1.15v-5.25a2.43,2.43,0,0,0-.38-1.55,1.29,1.29,0,0,0-1-.47,1.64,1.64,0,0,0-1.28.6,3.28,3.28,0,0,0-.53,2.13v4.54Z"/><path class="cls-4" d="M561.41,551.72l.16,1.24a3.54,3.54,0,0,1-.86.12,1.76,1.76,0,0,1-1-.24,1.17,1.17,0,0,1-.5-.65,6.29,6.29,0,0,1-.14-1.65v-4.77h-.84v-1.09h.84v-2.06l1.15-.84v2.9h1.16v1.09h-1.16v4.85a2.26,2.26,0,0,0,.1.87.57.57,0,0,0,.56.28A3.64,3.64,0,0,0,561.41,551.72Z"/><path class="cls-4" d="M567.15,550.3l1.19.18a3.61,3.61,0,0,1-1.08,2,2.83,2.83,0,0,1-1.92.67,2.86,2.86,0,0,1-2.34-1.1,4.86,4.86,0,0,1-.9-3.16,5.15,5.15,0,0,1,.9-3.28,2.84,2.84,0,0,1,2.29-1.13,2.71,2.71,0,0,1,2.2,1.11,5.05,5.05,0,0,1,.89,3.21v.37h-5.08a3.55,3.55,0,0,0,.65,2.11,1.72,1.72,0,0,0,1.4.71C566.21,552,566.81,551.44,567.15,550.3ZM563.36,548h3.8a3.28,3.28,0,0,0-.46-1.61,1.69,1.69,0,0,0-2.74-.13A2.88,2.88,0,0,0,563.36,548Z"/><path class="cls-4" d="M569.05,553l2.48-4.3-2.29-4h1.44l1,1.94.48.93c.19-.35.37-.65.52-.9l1.14-2h1.37l-2.34,3.89,2.52,4.4H574l-1.4-2.58-.36-.69L570.45,553Z"/><path class="cls-4" d="M578.92,551.72l.16,1.24a3.61,3.61,0,0,1-.86.12,1.76,1.76,0,0,1-1-.24,1.13,1.13,0,0,1-.5-.65,6.29,6.29,0,0,1-.14-1.65v-4.77h-.84v-1.09h.84v-2.06l1.15-.84v2.9h1.16v1.09h-1.16v4.85a2.26,2.26,0,0,0,.1.87.56.56,0,0,0,.55.28A3.92,3.92,0,0,0,578.92,551.72Z"/><path class="cls-4" d="M584.46,553v-1.22a2.89,2.89,0,0,1-.94,1.06,2.35,2.35,0,0,1-2.59-.08,2.1,2.1,0,0,1-.76-1.1,6.71,6.71,0,0,1-.19-1.81v-5.14h1.14v4.6a7.58,7.58,0,0,0,.13,1.71,1.38,1.38,0,0,0,.48.7,1.31,1.31,0,0,0,.79.26,1.65,1.65,0,0,0,1.36-.68,3.7,3.7,0,0,0,.46-2.15v-4.44h1.15V553Z"/><path class="cls-4" d="M587.3,553v-8.29h1v1.25a3.67,3.67,0,0,1,.73-1.16,1.13,1.13,0,0,1,.75-.28,2,2,0,0,1,1.18.45l-.39,1.31a1.43,1.43,0,0,0-.84-.31,1,1,0,0,0-.67.26,1.37,1.37,0,0,0-.43.72,6.79,6.79,0,0,0-.22,1.71V553Z"/><path class="cls-4" d="M596.32,550.3l1.19.18a3.61,3.61,0,0,1-1.08,2,2.81,2.81,0,0,1-1.92.67,2.86,2.86,0,0,1-2.34-1.1,4.86,4.86,0,0,1-.9-3.16,5.09,5.09,0,0,1,.91-3.28,2.8,2.8,0,0,1,2.28-1.13,2.69,2.69,0,0,1,2.2,1.11,5.05,5.05,0,0,1,.89,3.21v.37h-5.08a3.55,3.55,0,0,0,.65,2.11,1.74,1.74,0,0,0,1.41.71C595.38,552,596,551.44,596.32,550.3ZM592.53,548h3.8a3.18,3.18,0,0,0-.46-1.61,1.66,1.66,0,0,0-1.42-.77,1.68,1.68,0,0,0-1.32.64A2.88,2.88,0,0,0,592.53,548Z"/><path class="cls-4" d="M598.52,550.49l1.15-.22a2,2,0,0,0,.56,1.31,1.69,1.69,0,0,0,1.2.42,1.64,1.64,0,0,0,1.15-.37,1.18,1.18,0,0,0,.41-.94.88.88,0,0,0-.35-.76,4.27,4.27,0,0,0-1.17-.47,8.15,8.15,0,0,1-1.8-.71,2,2,0,0,1-.7-.77,2.54,2.54,0,0,1,.43-2.83,2.58,2.58,0,0,1,1.88-.66,3.07,3.07,0,0,1,1.33.27,2.09,2.09,0,0,1,.88.74,2.93,2.93,0,0,1,.42,1.32l-1.12.18a1.35,1.35,0,0,0-1.48-1.35,1.71,1.71,0,0,0-1.11.3.91.91,0,0,0-.37.76.85.85,0,0,0,.35.72,5.38,5.38,0,0,0,1.25.5,9.6,9.6,0,0,1,1.85.73,1.87,1.87,0,0,1,.66.73,2.53,2.53,0,0,1,.23,1.11,2.61,2.61,0,0,1-.75,1.93,2.82,2.82,0,0,1-2.06.73C599.73,553.16,598.78,552.27,598.52,550.49Z"/><path class="cls-4" d="M613.59,553v-1a2.33,2.33,0,0,1-.81.91,1.86,1.86,0,0,1-1.06.32,2.57,2.57,0,0,1-2.08-1.14,5.07,5.07,0,0,1-.88-3.19,6.48,6.48,0,0,1,.39-2.4,3.11,3.11,0,0,1,1-1.46,2.38,2.38,0,0,1,1.45-.48,1.94,1.94,0,0,1,1.05.3,2.33,2.33,0,0,1,.81.84v-4.11h1.16V553Zm-3.65-4.14a4.05,4.05,0,0,0,.56,2.39,1.58,1.58,0,0,0,1.3.78,1.55,1.55,0,0,0,1.27-.75,3.86,3.86,0,0,0,.54-2.26,4.63,4.63,0,0,0-.54-2.54,1.58,1.58,0,0,0-1.36-.8,1.49,1.49,0,0,0-1.25.77A4.33,4.33,0,0,0,609.94,548.83Z"/><path class="cls-4" d="M621.12,550.3l1.19.18a3.6,3.6,0,0,1-1.07,2,2.84,2.84,0,0,1-1.93.67,2.89,2.89,0,0,1-2.34-1.1,4.92,4.92,0,0,1-.89-3.16,5.15,5.15,0,0,1,.9-3.28,2.81,2.81,0,0,1,2.29-1.13,2.71,2.71,0,0,1,2.2,1.11,5.05,5.05,0,0,1,.88,3.21v.37h-5.07a3.55,3.55,0,0,0,.64,2.11,1.75,1.75,0,0,0,1.41.71C620.18,552,620.79,551.44,621.12,550.3ZM617.34,548h3.79a3.08,3.08,0,0,0-.46-1.61,1.68,1.68,0,0,0-2.73-.13A2.76,2.76,0,0,0,617.34,548Z"/><path class="cls-4" d="M623.73,553V541.52h1.15V553Z"/><path class="cls-4" d="M626.69,543.14v-1.62h1.15v1.62Zm0,9.83v-8.29h1.15V553Z"/><path class="cls-4" d="M629.6,553v-8.29h1v1.17a2.63,2.63,0,0,1,.92-1,2.24,2.24,0,0,1,1.24-.34,2.4,2.4,0,0,1,1,.21,2,2,0,0,1,1.17,1.47,7.19,7.19,0,0,1,.14,1.7V553H634v-5.05a4.32,4.32,0,0,0-.16-1.34,1.3,1.3,0,0,0-.49-.65,1.34,1.34,0,0,0-.77-.23,1.61,1.61,0,0,0-1.32.62,3.46,3.46,0,0,0-.49,2.12V553Z"/><path class="cls-4" d="M641.55,550.3l1.18.18a3.54,3.54,0,0,1-1.07,2,2.84,2.84,0,0,1-1.93.67,2.89,2.89,0,0,1-2.34-1.1,4.92,4.92,0,0,1-.89-3.16,5.15,5.15,0,0,1,.9-3.28,2.82,2.82,0,0,1,2.29-1.13,2.71,2.71,0,0,1,2.2,1.11,5.05,5.05,0,0,1,.88,3.21v.37h-5.08a3.48,3.48,0,0,0,.65,2.11,1.72,1.72,0,0,0,1.4.71C640.61,552,641.21,551.44,641.55,550.3ZM637.76,548h3.79a3.08,3.08,0,0,0-.46-1.61,1.68,1.68,0,0,0-2.73-.13A2.82,2.82,0,0,0,637.76,548Z"/><path class="cls-4" d="M648.62,552a4.33,4.33,0,0,1-1.2.91,3,3,0,0,1-1.3.3,2.26,2.26,0,0,1-1.69-.64,2.36,2.36,0,0,1-.63-1.73,2.73,2.73,0,0,1,.29-1.27,2.22,2.22,0,0,1,.82-.87,4.4,4.4,0,0,1,1.56-.46,8.87,8.87,0,0,0,2.06-.49v-.36a1.75,1.75,0,0,0-.31-1.19,1.61,1.61,0,0,0-1.32-.5,1.87,1.87,0,0,0-1.2.33,2.24,2.24,0,0,0-.59,1.25L644,547a3.12,3.12,0,0,1,1-1.94,3.23,3.23,0,0,1,2.12-.61,3,3,0,0,1,1.68.4,1.77,1.77,0,0,1,.77,1,7.37,7.37,0,0,1,.16,1.73v1.88a24.27,24.27,0,0,0,.07,2.48,3.87,3.87,0,0,0,.29,1h-1.2A3.48,3.48,0,0,1,648.62,552Zm-.09-3.14a7,7,0,0,1-1.88.53,3.36,3.36,0,0,0-1,.29,1.08,1.08,0,0,0-.45.45,1.44,1.44,0,0,0-.16.67,1.26,1.26,0,0,0,.37,1,1.4,1.4,0,0,0,1,.36,2.09,2.09,0,0,0,1.12-.32,2,2,0,0,0,.75-.86,3.7,3.7,0,0,0,.25-1.55Z"/><path class="cls-4" d="M654.05,551.72l.16,1.24a3.54,3.54,0,0,1-.86.12,1.76,1.76,0,0,1-1-.24,1.17,1.17,0,0,1-.5-.65,6.29,6.29,0,0,1-.14-1.65v-4.77h-.84v-1.09h.84v-2.06l1.15-.84v2.9h1.16v1.09h-1.16v4.85a2.26,2.26,0,0,0,.1.87.57.57,0,0,0,.56.28A3.64,3.64,0,0,0,654.05,551.72Z"/><path class="cls-4" d="M659.79,550.3l1.19.18a3.61,3.61,0,0,1-1.08,2,2.83,2.83,0,0,1-1.92.67,2.86,2.86,0,0,1-2.34-1.1,4.86,4.86,0,0,1-.9-3.16,5.15,5.15,0,0,1,.9-3.28,2.84,2.84,0,0,1,2.29-1.13,2.71,2.71,0,0,1,2.2,1.11,5.05,5.05,0,0,1,.89,3.21v.37h-5.08a3.55,3.55,0,0,0,.65,2.11,1.72,1.72,0,0,0,1.4.71C658.85,552,659.45,551.44,659.79,550.3ZM656,548h3.8a3.18,3.18,0,0,0-.46-1.61,1.66,1.66,0,0,0-1.42-.77,1.68,1.68,0,0,0-1.32.64A2.88,2.88,0,0,0,656,548Z"/><path class="cls-4" d="M666.05,553V541.52h1.15V553Z"/><path class="cls-4" d="M669,543.14v-1.62h1.15v1.62Zm0,9.83v-8.29h1.15V553Z"/><path class="cls-4" d="M671.94,553V541.52h1.15v6.54l2.73-3.38h1.5l-2.61,3.08,2.86,5.21h-1.41l-2.26-4.25-.81,1V553Z"/><path class="cls-4" d="M683.12,550.3l1.19.18a3.6,3.6,0,0,1-1.07,2,2.84,2.84,0,0,1-1.93.67,2.89,2.89,0,0,1-2.34-1.1,4.92,4.92,0,0,1-.89-3.16,5.15,5.15,0,0,1,.9-3.28,2.81,2.81,0,0,1,2.29-1.13,2.71,2.71,0,0,1,2.2,1.11,5.05,5.05,0,0,1,.88,3.21v.37h-5.07a3.55,3.55,0,0,0,.64,2.11,1.75,1.75,0,0,0,1.41.71C682.18,552,682.79,551.44,683.12,550.3ZM679.34,548h3.79a3.08,3.08,0,0,0-.46-1.61,1.68,1.68,0,0,0-2.73-.13A2.76,2.76,0,0,0,679.34,548Z"/><path class="cls-4" d="M558.85,575.35V563.88h1.06V565a2.61,2.61,0,0,1,.87-1,2,2,0,0,1,1.09-.3,2.36,2.36,0,0,1,1.45.48,3.2,3.2,0,0,1,1,1.45,6,6,0,0,1,.4,2.34,5.25,5.25,0,0,1-.89,3.26,2.58,2.58,0,0,1-2.08,1.14,1.89,1.89,0,0,1-1-.27,2.38,2.38,0,0,1-.8-.78v4Zm1-7.28a4.11,4.11,0,0,0,.54,2.37,1.46,1.46,0,0,0,2.58,0,5.62,5.62,0,0,0,0-4.85,1.42,1.42,0,0,0-2.57.06A4.33,4.33,0,0,0,559.9,568.07Z"/><path class="cls-4" d="M570.58,571.15a4.64,4.64,0,0,1-1.2.91,3,3,0,0,1-1.3.3,2.27,2.27,0,0,1-1.7-.64,2.36,2.36,0,0,1-.63-1.73,2.62,2.62,0,0,1,.3-1.27,2.27,2.27,0,0,1,.81-.87,4.4,4.4,0,0,1,1.56-.46,8.74,8.74,0,0,0,2.06-.49v-.36a1.81,1.81,0,0,0-.3-1.19,1.63,1.63,0,0,0-1.32-.5,1.88,1.88,0,0,0-1.21.33,2.18,2.18,0,0,0-.58,1.25l-1.13-.19a3.1,3.1,0,0,1,1-1.94,3.2,3.2,0,0,1,2.11-.61,3,3,0,0,1,1.68.4,1.77,1.77,0,0,1,.77,1,7.37,7.37,0,0,1,.16,1.73v1.88a24.27,24.27,0,0,0,.07,2.48,3.53,3.53,0,0,0,.3,1h-1.21A3.2,3.2,0,0,1,570.58,571.15Zm-.1-3.14a7,7,0,0,1-1.88.53,3.28,3.28,0,0,0-1,.29,1,1,0,0,0-.45.45,1.34,1.34,0,0,0-.16.68,1.25,1.25,0,0,0,.36.94,1.41,1.41,0,0,0,1,.36,2.09,2.09,0,0,0,1.12-.32,1.9,1.9,0,0,0,.75-.86,3.7,3.7,0,0,0,.25-1.55Z"/><path class="cls-4" d="M573.45,572.17v-8.29h1v1.25a3.8,3.8,0,0,1,.73-1.16,1.13,1.13,0,0,1,.75-.28,2,2,0,0,1,1.18.45l-.39,1.31a1.43,1.43,0,0,0-.84-.31,1,1,0,0,0-.67.26,1.44,1.44,0,0,0-.43.72,6.79,6.79,0,0,0-.22,1.71v4.34Z"/><path class="cls-4" d="M582.24,571.15a4.33,4.33,0,0,1-1.2.91,3,3,0,0,1-1.3.3,2.25,2.25,0,0,1-1.69-.64,2.32,2.32,0,0,1-.64-1.73,2.62,2.62,0,0,1,.3-1.27,2.27,2.27,0,0,1,.81-.87,4.54,4.54,0,0,1,1.57-.46,9,9,0,0,0,2.06-.49v-.36a1.81,1.81,0,0,0-.31-1.19,1.62,1.62,0,0,0-1.32-.5,1.85,1.85,0,0,0-1.2.33,2.18,2.18,0,0,0-.59,1.25l-1.13-.19a3.15,3.15,0,0,1,1-1.94,3.22,3.22,0,0,1,2.11-.61,3,3,0,0,1,1.68.4,1.69,1.69,0,0,1,.77,1,6.87,6.87,0,0,1,.16,1.73v1.88a23.12,23.12,0,0,0,.08,2.48,3.51,3.51,0,0,0,.29,1h-1.2A3.48,3.48,0,0,1,582.24,571.15Zm-.09-3.14a7,7,0,0,1-1.88.53,3.27,3.27,0,0,0-1,.29,1.08,1.08,0,0,0-.45.45,1.34,1.34,0,0,0-.16.68,1.22,1.22,0,0,0,.37.94,1.37,1.37,0,0,0,1,.36,2.06,2.06,0,0,0,1.12-.32,2,2,0,0,0,.76-.86,3.7,3.7,0,0,0,.25-1.55Z"/><path class="cls-4" d="M589.52,572.17v-1a2.33,2.33,0,0,1-.81.91,1.86,1.86,0,0,1-1.06.32,2.57,2.57,0,0,1-2.08-1.14,5.07,5.07,0,0,1-.88-3.19,6.48,6.48,0,0,1,.39-2.4,3.11,3.11,0,0,1,1-1.46,2.38,2.38,0,0,1,1.45-.48,1.94,1.94,0,0,1,1,.3,2.33,2.33,0,0,1,.81.84v-4.11h1.16v11.45ZM585.87,568a4.05,4.05,0,0,0,.56,2.39,1.59,1.59,0,0,0,1.3.79,1.55,1.55,0,0,0,1.27-.75,3.9,3.9,0,0,0,.54-2.27,4.63,4.63,0,0,0-.54-2.54,1.58,1.58,0,0,0-1.36-.8,1.49,1.49,0,0,0-1.25.77A4.33,4.33,0,0,0,585.87,568Z"/><path class="cls-4" d="M592,568a5,5,0,0,1,.9-3.25,2.93,2.93,0,0,1,4.56,0,4.8,4.8,0,0,1,.91,3.16,5.23,5.23,0,0,1-.89,3.33,2.93,2.93,0,0,1-4.57,0A4.94,4.94,0,0,1,592,568Zm1.18,0a4,4,0,0,0,.58,2.4,1.78,1.78,0,0,0,1.46.79,1.7,1.7,0,0,0,1.39-.8,5.21,5.21,0,0,0,0-4.78,1.77,1.77,0,0,0-1.46-.78,1.67,1.67,0,0,0-1.39.79A4,4,0,0,0,593.15,568Z"/><path class="cls-4" d="M599,572.17l2.49-4.3-2.29-4h1.44l1,1.94q.3.54.48.93l.52-.9,1.15-2h1.37l-2.35,3.89,2.53,4.4h-1.41l-1.4-2.58-.37-.69-1.79,3.27Z"/><path class="cls-4" d="M606.62,572.17v-1.6h1.32v1.6Z"/><path class="cls-4" d="M921.42,533.77v-10.1h-3.09v-1.35h7.44v1.35h-3.11v10.1Z"/><path class="cls-4" d="M926.58,523.94v-1.62h1.15v1.62Zm0,9.83v-8.29h1.15v8.29Z"/><path class="cls-4" d="M933.9,533.77v-1a2.33,2.33,0,0,1-.81.91A1.84,1.84,0,0,1,932,534a2.58,2.58,0,0,1-2.08-1.14,5.08,5.08,0,0,1-.88-3.2,6.47,6.47,0,0,1,.39-2.39,3.18,3.18,0,0,1,1-1.46,2.4,2.4,0,0,1,1.45-.48,2,2,0,0,1,1.06.3,2.39,2.39,0,0,1,.8.84v-4.11H935v11.45Zm-3.65-4.14a4.13,4.13,0,0,0,.56,2.39,1.6,1.6,0,0,0,1.3.78,1.56,1.56,0,0,0,1.28-.75,3.87,3.87,0,0,0,.53-2.26,4.64,4.64,0,0,0-.53-2.54,1.59,1.59,0,0,0-1.36-.8,1.51,1.51,0,0,0-1.26.76A4.48,4.48,0,0,0,930.25,529.63Z"/><path class="cls-4" d="M941.44,531.1l1.19.18a3.65,3.65,0,0,1-1.08,2,2.83,2.83,0,0,1-1.92.67,2.86,2.86,0,0,1-2.34-1.1,4.86,4.86,0,0,1-.9-3.16,5.15,5.15,0,0,1,.9-3.28,2.84,2.84,0,0,1,2.29-1.13,2.71,2.71,0,0,1,2.2,1.11,5.05,5.05,0,0,1,.89,3.21V530h-5.08a3.55,3.55,0,0,0,.65,2.11,1.72,1.72,0,0,0,1.4.71C940.5,532.8,941.1,532.24,941.44,531.1Zm-3.79-2.27h3.8a3.28,3.28,0,0,0-.46-1.61,1.69,1.69,0,0,0-2.74-.13A2.88,2.88,0,0,0,937.65,528.83Z"/><path class="cls-4" d="M949,533.77l-2.09-8.29h1.19l1.08,4.79.41,1.78.35-1.71,1.08-4.86h1.2l1,4.81.34,1.59.39-1.61,1.16-4.79h1.13l-2.13,8.29h-1.2l-1.08-5-.26-1.41-1.38,6.38Z"/><path class="cls-4" d="M961.63,532.75a4.33,4.33,0,0,1-1.2.91,3,3,0,0,1-1.3.3,2.26,2.26,0,0,1-1.69-.64,2.36,2.36,0,0,1-.63-1.73,2.62,2.62,0,0,1,.29-1.27,2.22,2.22,0,0,1,.82-.87,4.4,4.4,0,0,1,1.56-.46,8.87,8.87,0,0,0,2.06-.49v-.36a1.73,1.73,0,0,0-.31-1.19,1.61,1.61,0,0,0-1.32-.5,1.87,1.87,0,0,0-1.2.33,2.18,2.18,0,0,0-.59,1.25l-1.13-.19a3.12,3.12,0,0,1,1-1.94,3.22,3.22,0,0,1,2.11-.61,3,3,0,0,1,1.68.4,1.69,1.69,0,0,1,.77,1,6.87,6.87,0,0,1,.16,1.73v1.88a23.12,23.12,0,0,0,.08,2.48,3.87,3.87,0,0,0,.29,1h-1.2A3.48,3.48,0,0,1,961.63,532.75Zm-.09-3.14a7,7,0,0,1-1.88.53,3.27,3.27,0,0,0-1,.29,1.08,1.08,0,0,0-.45.45,1.44,1.44,0,0,0-.16.67,1.23,1.23,0,0,0,.37,1,1.38,1.38,0,0,0,1,.36,2.09,2.09,0,0,0,1.12-.32,2,2,0,0,0,.75-.86,3.72,3.72,0,0,0,.25-1.56Z"/><path class="cls-4" d="M964.06,531.29l1.14-.22a2.1,2.1,0,0,0,.56,1.31,1.69,1.69,0,0,0,1.2.42,1.67,1.67,0,0,0,1.16-.37,1.2,1.2,0,0,0,.4-.94.88.88,0,0,0-.35-.76,4.27,4.27,0,0,0-1.17-.47,8.61,8.61,0,0,1-1.8-.71,2,2,0,0,1-.7-.77,2.54,2.54,0,0,1,.43-2.83,2.58,2.58,0,0,1,1.88-.66,3.14,3.14,0,0,1,1.34.27,2.13,2.13,0,0,1,.87.74,3,3,0,0,1,.43,1.32l-1.13.18a1.35,1.35,0,0,0-1.48-1.35,1.65,1.65,0,0,0-1.11.3.91.91,0,0,0-.37.76.85.85,0,0,0,.35.72,5.91,5.91,0,0,0,1.25.5,9.79,9.79,0,0,1,1.86.73,1.84,1.84,0,0,1,.65.73,2.39,2.39,0,0,1,.23,1.11,2.61,2.61,0,0,1-.75,1.93,2.82,2.82,0,0,1-2.06.73C965.26,534,964.32,533.07,964.06,531.29Z"/><path class="cls-4" d="M971.06,533.77V522.32h1.15v4.11a2.86,2.86,0,0,1,.92-.86,2.28,2.28,0,0,1,1.13-.28A2.2,2.2,0,0,1,976,526a3.84,3.84,0,0,1,.63,2.54v5.25h-1.15v-5.25a2.43,2.43,0,0,0-.38-1.55,1.29,1.29,0,0,0-1.05-.47,1.64,1.64,0,0,0-1.28.6,3.28,3.28,0,0,0-.53,2.13v4.54Z"/><path class="cls-4" d="M983,531.1l1.19.18a3.65,3.65,0,0,1-1.08,2,2.83,2.83,0,0,1-1.92.67,2.86,2.86,0,0,1-2.34-1.1,4.86,4.86,0,0,1-.9-3.16,5.15,5.15,0,0,1,.9-3.28,2.84,2.84,0,0,1,2.29-1.13,2.71,2.71,0,0,1,2.2,1.11,5.05,5.05,0,0,1,.89,3.21V530h-5.08a3.55,3.55,0,0,0,.65,2.11,1.72,1.72,0,0,0,1.4.71C982.07,532.8,982.67,532.24,983,531.1Zm-3.79-2.27H983a3.28,3.28,0,0,0-.46-1.61,1.69,1.69,0,0,0-2.74-.13A2.88,2.88,0,0,0,979.22,528.83Z"/><path class="cls-4" d="M985.21,531.29l1.15-.22a2.09,2.09,0,0,0,.55,1.31,1.7,1.7,0,0,0,1.2.42,1.65,1.65,0,0,0,1.16-.37,1.21,1.21,0,0,0,.41-.94.91.91,0,0,0-.35-.76,4.27,4.27,0,0,0-1.17-.47,8.15,8.15,0,0,1-1.8-.71,1.93,1.93,0,0,1-.7-.77,2.54,2.54,0,0,1,.43-2.83,2.58,2.58,0,0,1,1.88-.66,3.1,3.1,0,0,1,1.33.27,2.16,2.16,0,0,1,.88.74,3.2,3.2,0,0,1,.42,1.32l-1.12.18a1.35,1.35,0,0,0-1.48-1.35,1.7,1.7,0,0,0-1.12.3.93.93,0,0,0-.36.76.82.82,0,0,0,.35.72,5.91,5.91,0,0,0,1.25.5,9.6,9.6,0,0,1,1.85.73,1.87,1.87,0,0,1,.66.73,2.53,2.53,0,0,1,.23,1.11,2.61,2.61,0,0,1-.75,1.93,2.84,2.84,0,0,1-2.06.73C986.42,534,985.47,533.07,985.21,531.29Z"/><path class="cls-4" d="M995.87,537V525.48h1.06v1.07a2.66,2.66,0,0,1,.87-1,2,2,0,0,1,1.09-.3,2.38,2.38,0,0,1,1.45.48,3.22,3.22,0,0,1,1,1.44,6.3,6.3,0,0,1,.39,2.34,5.26,5.26,0,0,1-.88,3.27,2.59,2.59,0,0,1-2.08,1.14,2,2,0,0,1-1-.27,2.55,2.55,0,0,1-.79-.78v4Zm1-7.28a4.2,4.2,0,0,0,.53,2.37,1.47,1.47,0,0,0,2.59,0,5.72,5.72,0,0,0,0-4.85,1.42,1.42,0,0,0-2.57.06A4.33,4.33,0,0,0,996.92,529.67Z"/><path class="cls-4" d="M1003.17,533.77v-8.29h1v1.25a3.67,3.67,0,0,1,.73-1.16,1.13,1.13,0,0,1,.75-.28,2,2,0,0,1,1.18.45l-.39,1.31a1.43,1.43,0,0,0-.84-.31,1,1,0,0,0-.67.26,1.44,1.44,0,0,0-.43.72,6.73,6.73,0,0,0-.22,1.71v4.34Z"/><path class="cls-4" d="M1012.18,531.1l1.19.18a3.65,3.65,0,0,1-1.08,2,2.81,2.81,0,0,1-1.92.67,2.86,2.86,0,0,1-2.34-1.1,4.86,4.86,0,0,1-.9-3.16,5.09,5.09,0,0,1,.91-3.28,2.8,2.8,0,0,1,2.28-1.13,2.69,2.69,0,0,1,2.2,1.11,5.05,5.05,0,0,1,.89,3.21V530h-5.08a3.55,3.55,0,0,0,.65,2.11,1.74,1.74,0,0,0,1.41.71C1011.24,532.8,1011.84,532.24,1012.18,531.1Zm-3.79-2.27h3.8a3.18,3.18,0,0,0-.46-1.61,1.66,1.66,0,0,0-1.42-.77,1.68,1.68,0,0,0-1.32.64A2.88,2.88,0,0,0,1008.39,528.83Z"/><path class="cls-4" d="M1014.38,531.29l1.15-.22a2,2,0,0,0,.56,1.31,1.69,1.69,0,0,0,1.2.42,1.64,1.64,0,0,0,1.15-.37,1.18,1.18,0,0,0,.41-.94.88.88,0,0,0-.35-.76,4.27,4.27,0,0,0-1.17-.47,8.15,8.15,0,0,1-1.8-.71,2,2,0,0,1-.7-.77,2.54,2.54,0,0,1,.43-2.83,2.58,2.58,0,0,1,1.88-.66,3.07,3.07,0,0,1,1.33.27,2.09,2.09,0,0,1,.88.74,2.93,2.93,0,0,1,.42,1.32l-1.12.18a1.35,1.35,0,0,0-1.48-1.35,1.65,1.65,0,0,0-1.11.3.91.91,0,0,0-.37.76.85.85,0,0,0,.35.72,5.91,5.91,0,0,0,1.25.5,9.6,9.6,0,0,1,1.85.73,1.87,1.87,0,0,1,.66.73,2.53,2.53,0,0,1,.23,1.11,2.61,2.61,0,0,1-.75,1.93,2.82,2.82,0,0,1-2.06.73C1015.59,534,1014.64,533.07,1014.38,531.29Z"/><path class="cls-4" d="M1026,531.1l1.19.18a3.65,3.65,0,0,1-1.08,2,2.83,2.83,0,0,1-1.92.67,2.86,2.86,0,0,1-2.34-1.1,4.86,4.86,0,0,1-.9-3.16,5.09,5.09,0,0,1,.91-3.28,2.8,2.8,0,0,1,2.28-1.13,2.71,2.71,0,0,1,2.2,1.11,5.05,5.05,0,0,1,.89,3.21V530h-5.08a3.55,3.55,0,0,0,.65,2.11,1.72,1.72,0,0,0,1.41.71C1025.1,532.8,1025.7,532.24,1026,531.1Zm-3.79-2.27h3.8a3.18,3.18,0,0,0-.46-1.61,1.66,1.66,0,0,0-1.42-.77,1.68,1.68,0,0,0-1.32.64A2.88,2.88,0,0,0,1022.25,528.83Z"/><path class="cls-4" d="M1028.69,533.77v-8.29h1v1.17a2.61,2.61,0,0,1,.91-1,2.28,2.28,0,0,1,1.25-.34,2.44,2.44,0,0,1,1,.21,2.08,2.08,0,0,1,.75.57,2.21,2.21,0,0,1,.42.9,7.19,7.19,0,0,1,.14,1.7v5.1h-1.15v-5a4.39,4.39,0,0,0-.15-1.34,1.36,1.36,0,0,0-.49-.65,1.34,1.34,0,0,0-.77-.23,1.61,1.61,0,0,0-1.32.62,3.46,3.46,0,0,0-.49,2.12v4.53Z"/><path class="cls-4" d="M1040.44,530.73l1.13.18a3.82,3.82,0,0,1-1,2.27,2.57,2.57,0,0,1-1.89.78,2.7,2.7,0,0,1-2.2-1.1,5.2,5.2,0,0,1-.86-3.24,5.1,5.1,0,0,1,.87-3.25,2.75,2.75,0,0,1,2.24-1.08,2.55,2.55,0,0,1,1.78.66,3.17,3.17,0,0,1,.92,2l-1.11.21a2.47,2.47,0,0,0-.57-1.26,1.31,1.31,0,0,0-1-.41,1.69,1.69,0,0,0-1.41.75,4.06,4.06,0,0,0-.56,2.39,4.35,4.35,0,0,0,.54,2.46,1.61,1.61,0,0,0,1.37.75,1.45,1.45,0,0,0,1.12-.5A2.74,2.74,0,0,0,1040.44,530.73Z"/><path class="cls-4" d="M1047.2,531.1l1.18.18a3.58,3.58,0,0,1-1.07,2,2.84,2.84,0,0,1-1.93.67,2.89,2.89,0,0,1-2.34-1.1,4.92,4.92,0,0,1-.89-3.16,5.15,5.15,0,0,1,.9-3.28,2.82,2.82,0,0,1,2.29-1.13,2.71,2.71,0,0,1,2.2,1.11,5.05,5.05,0,0,1,.88,3.21V530h-5.08a3.48,3.48,0,0,0,.65,2.11,1.72,1.72,0,0,0,1.4.71C1046.26,532.8,1046.86,532.24,1047.2,531.1Zm-3.79-2.27h3.79a3.08,3.08,0,0,0-.46-1.61,1.68,1.68,0,0,0-2.73-.13A2.76,2.76,0,0,0,1043.41,528.83Z"/><path class="cls-4" d="M923.28,552a4.33,4.33,0,0,1-1.2.91,3,3,0,0,1-1.3.3,2.25,2.25,0,0,1-1.69-.64,2.32,2.32,0,0,1-.64-1.73,2.62,2.62,0,0,1,.3-1.27,2.27,2.27,0,0,1,.81-.87,4.54,4.54,0,0,1,1.56-.46,9,9,0,0,0,2.07-.49v-.36a1.81,1.81,0,0,0-.31-1.19,1.63,1.63,0,0,0-1.32-.5,1.83,1.83,0,0,0-1.2.33,2.18,2.18,0,0,0-.59,1.25l-1.13-.19a3.12,3.12,0,0,1,1-1.94,3.22,3.22,0,0,1,2.11-.61,3,3,0,0,1,1.68.4,1.73,1.73,0,0,1,.77,1,6.87,6.87,0,0,1,.16,1.73v1.88a23.12,23.12,0,0,0,.08,2.48,3.51,3.51,0,0,0,.29,1h-1.2A3.48,3.48,0,0,1,923.28,552Zm-.09-3.14a7,7,0,0,1-1.89.53,3.28,3.28,0,0,0-1,.29,1.08,1.08,0,0,0-.45.45,1.33,1.33,0,0,0-.16.67,1.23,1.23,0,0,0,.37,1,1.37,1.37,0,0,0,1,.36,2.06,2.06,0,0,0,1.12-.32,2,2,0,0,0,.76-.86,3.86,3.86,0,0,0,.25-1.55Z"/><path class="cls-4" d="M927.4,553l-2.09-8.29h1.19l1.09,4.79.4,1.78.36-1.71,1.08-4.86h1.19l1,4.81.34,1.59.39-1.61,1.16-4.79h1.13L932.52,553h-1.2l-1.08-5-.26-1.41L928.61,553Z"/><path class="cls-4" d="M940.05,552a4.52,4.52,0,0,1-1.21.91,2.91,2.91,0,0,1-1.29.3,2.27,2.27,0,0,1-1.7-.64,2.36,2.36,0,0,1-.63-1.73,2.62,2.62,0,0,1,.3-1.27,2.13,2.13,0,0,1,.81-.87,4.4,4.4,0,0,1,1.56-.46,8.74,8.74,0,0,0,2.06-.49v-.36a1.81,1.81,0,0,0-.3-1.19,1.63,1.63,0,0,0-1.32-.5,1.88,1.88,0,0,0-1.21.33,2.18,2.18,0,0,0-.58,1.25l-1.14-.19a3.17,3.17,0,0,1,1-1.94,3.25,3.25,0,0,1,2.12-.61,3,3,0,0,1,1.68.4,1.77,1.77,0,0,1,.77,1,7.37,7.37,0,0,1,.16,1.73v1.88a24.27,24.27,0,0,0,.07,2.48,3.87,3.87,0,0,0,.29,1h-1.2A3.2,3.2,0,0,1,940.05,552Zm-.1-3.14a7,7,0,0,1-1.88.53,3.46,3.46,0,0,0-1,.29,1,1,0,0,0-.44.45,1.33,1.33,0,0,0-.16.67,1.26,1.26,0,0,0,.36,1,1.41,1.41,0,0,0,1,.36,2.09,2.09,0,0,0,1.12-.32,1.9,1.9,0,0,0,.75-.86,3.7,3.7,0,0,0,.25-1.55Z"/><path class="cls-4" d="M942.88,556.17l-.13-1.32a2.26,2.26,0,0,0,.66.12,1.21,1.21,0,0,0,.6-.14,1.18,1.18,0,0,0,.4-.47c0-.07.19-.53.45-1.37l-2.59-8.31h1.25l1.42,4.8c.17.6.34,1.24.49,1.92.13-.65.29-1.28.47-1.89l1.45-4.83h1.16l-2.58,8.43a14.35,14.35,0,0,1-.81,2.2,2,2,0,0,1-.66.79,1.53,1.53,0,0,1-.84.24A2,2,0,0,1,942.88,556.17Z"/><path class="cls-4" d="M948.88,553v-1.6h1.31V553Z"/><path class="cls-4" d="M918.33,26.62l1.15-.19c.24,1.5.85,2.26,1.83,2.26a1.8,1.8,0,0,0,1.37-.67,2.6,2.6,0,0,0,.57-1.73,2.36,2.36,0,0,0-.53-1.62,1.68,1.68,0,0,0-1.3-.61,2.55,2.55,0,0,0-.81.16l.13-1.24.18,0a1.81,1.81,0,0,0,1.92-1.92,1.84,1.84,0,0,0-.45-1.29,1.42,1.42,0,0,0-1.08-.49,1.47,1.47,0,0,0-1.13.52,2.77,2.77,0,0,0-.58,1.55l-1.15-.25a3.82,3.82,0,0,1,1-2.22,2.66,2.66,0,0,1,3.79.09,3,3,0,0,1,.8,2.13,2.72,2.72,0,0,1-.34,1.38,2.43,2.43,0,0,1-.94.94,2.23,2.23,0,0,1,.93.52,2.66,2.66,0,0,1,.59,1,3.81,3.81,0,0,1,.22,1.34,3.65,3.65,0,0,1-.93,2.58,2.92,2.92,0,0,1-2.22,1,2.7,2.7,0,0,1-2-.87A3.71,3.71,0,0,1,918.33,26.62Z"/><path class="cls-4" d="M925.63,26.65l1.21-.13a2.85,2.85,0,0,0,.64,1.63,1.51,1.51,0,0,0,1.15.54,1.72,1.72,0,0,0,1.41-.76,3.22,3.22,0,0,0,.6-2.06,2.8,2.8,0,0,0-.58-1.9,1.78,1.78,0,0,0-1.44-.68,1.83,1.83,0,0,0-1,.29,2.13,2.13,0,0,0-.72.82l-1.09-.17.92-5.89h4.66v1.35h-3.75l-.5,3.08a2.69,2.69,0,0,1,1.77-.72,2.66,2.66,0,0,1,2.06,1,4,4,0,0,1,.87,2.71,4.77,4.77,0,0,1-.87,2.88,2.91,2.91,0,0,1-4.4.36A3.64,3.64,0,0,1,925.63,26.65Z"/><g class="cls-2"><path class="cls-3" d="M1026,345.42c-.19,3.59.22,22.35.21,19.06a285.75,285.75,0,0,1-2.74,48.12,165.93,165.93,0,0,1-10.54,34.75c-3.16,7.88-6.25,16.88-11,24-1.45,2.2-7.34,7.18-7.14,10.32"/></g><line class="cls-3" x1="955.17" y1="376.11" x2="955.17" y2="382.11"/><g class="cls-2"><path class="cls-3" d="M922.17,261.42s-13.33-11.85,8.4,88.32,0,123.57,0,123.57h.48l.84-1.32h.34l-.5.6"/><path class="cls-3" d="M937.17,276.51s-5.55,22.35-8,29.7-3.11,9-3.11,9v3.3a1,1,0,0,0,.66-1.56c-.66-1.2,0-1.68,0-1.68s.72-.24.36.36-1.56,2.88-1.56,2.88"/><path class="cls-3" d="M900.18,117.53s18.19,50.44,26.59,88.84,10.3,63,10.3,63,5.51,67.62,0,91.11,0,16.29,0,16.29"/><path class="cls-3" d="M1062,382.24c-6.13,0-12.13.35-18.25.58-7.47.28-15.08,1.19-22.53,2-2.47.26-5.1.2-7.52.69-2.93.58-5.67,2-8.7,2.17"/><path class="cls-3" d="M961.29,385.24c2.82-.46,5.73,1.19,8.45,1.7,4.71.87,9.45.69,14.22.72,9.55.06,18.9-2.49,28.33-2.42"/><path class="cls-3" d="M944.64,474.7h67.9a14,14,0,0,1,6.5,0,47.88,47.88,0,0,1-11.45-1.16c-3-.61-10.38-.81-12.12-3.5a6.38,6.38,0,0,1,4.46-1.35"/></g></g></svg>