<svg id="Layer_1" data-name="Layer 1" xmlns="http://www.w3.org/2000/svg" xmlns:xlink="http://www.w3.org/1999/xlink" viewBox="0 0 1080 756"><defs><style>.cls-1,.cls-3{fill:none;}.cls-2{clip-path:url(#clip-path);}.cls-3{stroke:#231f20;stroke-width:0.25px;}.cls-4{fill:#231f20;}</style><clipPath id="clip-path"><rect class="cls-1" width="1080" height="756"/></clipPath></defs><title>Untitled-3</title><g class="cls-2"><g class="cls-2"><line class="cls-3" x1="180" y1="-18.36" x2="180" y2="790.92"/><line class="cls-3" x1="720" y1="-20.88" x2="720" y2="788.4"/><line class="cls-3" x1="359.88" y1="-18.36" x2="359.88" y2="790.92"/><line class="cls-3" x1="899.87" y1="-20.88" x2="899.87" y2="788.4"/><line class="cls-3" x1="-16.92" y1="251.88" x2="1101.6" y2="251.88"/><line class="cls-3" x1="-11.52" y1="504.13" x2="1107" y2="504.13"/><line class="cls-3" x1="540" y1="-19.44" x2="540" y2="789.84"/></g><path class="cls-4" d="M738.7,276.64v-1.3l6.22-3.22v1.39L740,276l4.93,2.49v1.4Z"/><path class="cls-4" d="M746.29,282.34l1.12.2a1.48,1.48,0,0,0,.47,1,1.63,1.63,0,0,0,1.09.33,1.9,1.9,0,0,0,1.21-.36,1.91,1.91,0,0,0,.61-1.09,10,10,0,0,0,.1-1.84,2.68,2.68,0,0,1-.84.81,2.07,2.07,0,0,1-1,.27,2.51,2.51,0,0,1-2-1,5.07,5.07,0,0,1-.92-3.18,6.23,6.23,0,0,1,.41-2.34,3.18,3.18,0,0,1,1.07-1.47,2.51,2.51,0,0,1,1.48-.47,2.05,2.05,0,0,1,1.09.3,2.73,2.73,0,0,1,.88.88v-1h1.06v7.17a8.35,8.35,0,0,1-.31,2.73,2.62,2.62,0,0,1-1,1.29A3,3,0,0,1,749,285a2.72,2.72,0,0,1-2-.72A2.54,2.54,0,0,1,746.29,282.34Zm1-5a4.16,4.16,0,0,0,.54,2.39,1.59,1.59,0,0,0,1.33.75,1.62,1.62,0,0,0,1.33-.73,4,4,0,0,0,.54-2.35,3.91,3.91,0,0,0-.56-2.33,1.68,1.68,0,0,0-1.37-.76,1.56,1.56,0,0,0-1.26.76A3.86,3.86,0,0,0,747.24,277.35Z"/><path class="cls-4" d="M753.77,281.65V270.2h1.15v11.45Z"/><path class="cls-4" d="M756.29,277.5a5,5,0,0,1,.9-3.24,2.91,2.91,0,0,1,4.56,0,4.79,4.79,0,0,1,.91,3.15,5.23,5.23,0,0,1-.89,3.33,2.92,2.92,0,0,1-4.57,0A5,5,0,0,1,756.29,277.5Zm1.18,0a4,4,0,0,0,.58,2.39,1.77,1.77,0,0,0,1.46.79,1.69,1.69,0,0,0,1.39-.79,4,4,0,0,0,.58-2.39,4,4,0,0,0-.58-2.39,1.75,1.75,0,0,0-1.45-.79,1.68,1.68,0,0,0-1.4.79A4,4,0,0,0,757.47,277.5Z"/><path class="cls-4" d="M763.58,279.16l1.15-.21a2,2,0,0,0,.55,1.3,1.94,1.94,0,0,0,2.36.06,1.23,1.23,0,0,0,.41-.94.93.93,0,0,0-.35-.77,5,5,0,0,0-1.18-.47,8.35,8.35,0,0,1-1.79-.7,2,2,0,0,1-.71-.77,2.48,2.48,0,0,1-.25-1.11,2.31,2.31,0,0,1,.68-1.72,2.61,2.61,0,0,1,1.89-.67,3,3,0,0,1,1.33.28,2.13,2.13,0,0,1,.88.73,3.3,3.3,0,0,1,.42,1.32l-1.13.19a1.34,1.34,0,0,0-1.47-1.36,1.76,1.76,0,0,0-1.12.3.94.94,0,0,0-.37.77.86.86,0,0,0,.36.72,6.25,6.25,0,0,0,1.25.5,9.4,9.4,0,0,1,1.85.72,1.8,1.8,0,0,1,.65.74,2.38,2.38,0,0,1,.24,1.1,2.55,2.55,0,0,1-.76,1.93,2.82,2.82,0,0,1-2.06.74C764.78,281.84,763.84,281,763.58,279.16Z"/><path class="cls-4" d="M770.14,279.16l1.15-.21a2.06,2.06,0,0,0,.55,1.3,1.94,1.94,0,0,0,2.36.06,1.23,1.23,0,0,0,.41-.94.93.93,0,0,0-.35-.77,4.64,4.64,0,0,0-1.17-.47,8.28,8.28,0,0,1-1.8-.7,1.93,1.93,0,0,1-.7-.77,2.36,2.36,0,0,1-.25-1.11,2.28,2.28,0,0,1,.68-1.72,2.58,2.58,0,0,1,1.88-.67,3,3,0,0,1,1.33.28,2.06,2.06,0,0,1,.88.73,3.3,3.3,0,0,1,.42,1.32l-1.12.19a1.35,1.35,0,0,0-1.48-1.36,1.76,1.76,0,0,0-1.12.3,1,1,0,0,0-.36.77.85.85,0,0,0,.35.72,6.55,6.55,0,0,0,1.25.5,9.4,9.4,0,0,1,1.85.72,1.89,1.89,0,0,1,.66.74,2.51,2.51,0,0,1,.23,1.1,2.58,2.58,0,0,1-.75,1.93,2.84,2.84,0,0,1-2.06.74C771.35,281.84,770.4,281,770.14,279.16Z"/><path class="cls-4" d="M781.58,280.62a4.23,4.23,0,0,1-1.2.91,3,3,0,0,1-1.3.31,2.31,2.31,0,0,1-1.7-.64,2.37,2.37,0,0,1-.63-1.73,2.62,2.62,0,0,1,.3-1.27,2.27,2.27,0,0,1,.81-.87,4.2,4.2,0,0,1,1.56-.46,8.74,8.74,0,0,0,2.06-.49V276a1.85,1.85,0,0,0-.3-1.2,1.67,1.67,0,0,0-1.32-.5,1.88,1.88,0,0,0-1.21.33,2.21,2.21,0,0,0-.58,1.26l-1.13-.19a3.13,3.13,0,0,1,1-2,3.26,3.26,0,0,1,2.11-.61,3,3,0,0,1,1.68.41,1.75,1.75,0,0,1,.77,1,7.53,7.53,0,0,1,.16,1.74v1.87a24.27,24.27,0,0,0,.07,2.48,3.6,3.6,0,0,0,.3,1h-1.21A3.33,3.33,0,0,1,781.58,280.62Zm-.1-3.14a7.34,7.34,0,0,1-1.88.54,3.33,3.33,0,0,0-1,.28,1.08,1.08,0,0,0-.45.45,1.37,1.37,0,0,0-.16.68,1.27,1.27,0,0,0,.36.95,1.41,1.41,0,0,0,1,.35,2,2,0,0,0,1.12-.32,1.87,1.87,0,0,0,.75-.85,3.78,3.78,0,0,0,.25-1.56Z"/><path class="cls-4" d="M784.45,281.65v-8.3h1v1.26a3.67,3.67,0,0,1,.73-1.16,1.14,1.14,0,0,1,.75-.29,2,2,0,0,1,1.18.46l-.39,1.3a1.49,1.49,0,0,0-.84-.3,1,1,0,0,0-.67.26,1.45,1.45,0,0,0-.43.71,6.79,6.79,0,0,0-.22,1.71v4.35Z"/><path class="cls-4" d="M788.77,284.84l-.12-1.32a2,2,0,0,0,.66.13,1.11,1.11,0,0,0,.6-.15,1.14,1.14,0,0,0,.4-.46q0-.1.45-1.38l-2.59-8.31h1.24l1.43,4.8c.17.6.34,1.24.49,1.92.13-.64.28-1.27.47-1.89l1.45-4.83h1.16l-2.58,8.44A14.54,14.54,0,0,1,791,284a2,2,0,0,1-.66.79,1.53,1.53,0,0,1-.84.25A1.94,1.94,0,0,1,788.77,284.84Z"/><path class="cls-4" d="M801.45,276.64l-6.22,3.24v-1.4l4.93-2.49-4.93-2.48v-1.39l6.22,3.22Z"/></g></svg>