<svg id="Layer_1" data-name="Layer 1" xmlns="http://www.w3.org/2000/svg" xmlns:xlink="http://www.w3.org/1999/xlink" viewBox="0 0 1080 756"><defs><style>.cls-1,.cls-3{fill:none;}.cls-2{clip-path:url(#clip-path);}.cls-3{stroke:#231f20;stroke-width:0.25px;}.cls-4{fill:#231f20;}</style><clipPath id="clip-path"><rect class="cls-1" width="1080" height="756"/></clipPath></defs><title>Untitled-3</title><g class="cls-2"><g class="cls-2"><line class="cls-3" x1="180" y1="-18.36" x2="180" y2="790.92"/><line class="cls-3" x1="720" y1="-20.88" x2="720" y2="788.4"/><line class="cls-3" x1="359.88" y1="-18.36" x2="359.88" y2="790.92"/><line class="cls-3" x1="899.87" y1="-20.88" x2="899.87" y2="788.4"/><line class="cls-3" x1="-16.92" y1="251.88" x2="1101.6" y2="251.88"/><line class="cls-3" x1="-11.52" y1="504.13" x2="1107" y2="504.13"/><line class="cls-3" x1="540" y1="-19.44" x2="540" y2="789.84"/></g><path class="cls-4" d="M18.7,276.64v-1.3l6.22-3.22v1.39L20,276l4.93,2.49v1.4Z"/><path class="cls-4" d="M26.52,271.81V270.2h1.14v1.61Zm0,9.84v-8.3h1.14v8.3Z"/><path class="cls-4" d="M29.44,281.65v-8.3h1v1.16a2.69,2.69,0,0,1,.88-1,2.15,2.15,0,0,1,1.18-.35,2,2,0,0,1,1.21.37,2,2,0,0,1,.71,1.08,3.14,3.14,0,0,1,.93-1.08,2,2,0,0,1,1.18-.37,1.93,1.93,0,0,1,1.54.67,3.22,3.22,0,0,1,.56,2.12v5.7H37.52v-5.23a4.55,4.55,0,0,0-.13-1.27,1.17,1.17,0,0,0-.42-.57,1.12,1.12,0,0,0-.66-.2,1.46,1.46,0,0,0-1.21.59,2.91,2.91,0,0,0-.48,1.85v4.83H33.48v-5.4a2.48,2.48,0,0,0-.32-1.45,1,1,0,0,0-.87-.42A1.47,1.47,0,0,0,31,275a4.31,4.31,0,0,0-.45,2.33v4.31Z"/><path class="cls-4" d="M40.13,282.34l1.13.2a1.43,1.43,0,0,0,.47,1,1.62,1.62,0,0,0,1.08.33A1.88,1.88,0,0,0,44,283.5a1.91,1.91,0,0,0,.61-1.09,10,10,0,0,0,.1-1.84,2.68,2.68,0,0,1-.84.81,2,2,0,0,1-1,.27,2.47,2.47,0,0,1-2-1,5,5,0,0,1-.92-3.18,6.23,6.23,0,0,1,.4-2.34,3.26,3.26,0,0,1,1.07-1.47,2.51,2.51,0,0,1,1.48-.47,2.09,2.09,0,0,1,1.1.3,2.84,2.84,0,0,1,.88.88v-1H45.9v7.17a8.64,8.64,0,0,1-.31,2.73,2.59,2.59,0,0,1-1,1.29,3,3,0,0,1-1.71.48,2.72,2.72,0,0,1-2-.72A2.61,2.61,0,0,1,40.13,282.34Zm1-5a4.16,4.16,0,0,0,.54,2.39,1.59,1.59,0,0,0,1.32.75,1.61,1.61,0,0,0,1.33-.73,4,4,0,0,0,.55-2.35,3.9,3.9,0,0,0-.57-2.33,1.67,1.67,0,0,0-1.37-.76,1.56,1.56,0,0,0-1.26.76A3.94,3.94,0,0,0,41.09,277.35Z"/><path class="cls-4" d="M53.73,276.64l-6.22,3.24v-1.4L52.44,276l-4.93-2.48v-1.39l6.22,3.22Z"/><path class="cls-4" d="M22.18,533.65v-2.74H18.11v-1.29l4.28-7.42h.95v7.42h1.27v1.29H23.34v2.74Zm0-4v-5.17l-2.93,5.17Z"/><path class="cls-4" d="M29.48,533.65v-2.74H25.41v-1.29l4.28-7.42h.94v7.42h1.28v1.29H30.63v2.74Zm0-4v-5.17l-2.94,5.17Z"/><path class="cls-4" d="M738.46,277.5a5,5,0,0,1,.9-3.24,2.91,2.91,0,0,1,4.56,0,4.79,4.79,0,0,1,.92,3.15,5.17,5.17,0,0,1-.9,3.33,2.92,2.92,0,0,1-4.57,0A5,5,0,0,1,738.46,277.5Zm1.18,0a4,4,0,0,0,.59,2.39,1.74,1.74,0,0,0,1.45.79,1.67,1.67,0,0,0,1.39-.79,4,4,0,0,0,.59-2.39,4,4,0,0,0-.59-2.39,1.74,1.74,0,0,0-1.45-.79,1.68,1.68,0,0,0-1.4.79A4,4,0,0,0,739.64,277.5Z"/><path class="cls-4" d="M746.2,281.65v-8.3h1v1.26a3.67,3.67,0,0,1,.73-1.16,1.14,1.14,0,0,1,.75-.29,2,2,0,0,1,1.18.46l-.39,1.3a1.49,1.49,0,0,0-.84-.3,1,1,0,0,0-.67.26,1.45,1.45,0,0,0-.43.71,6.79,6.79,0,0,0-.22,1.71v4.35Z"/><path class="cls-4" d="M751.62,281.65h-1.07V270.2h1.15v4.08a2.8,2.8,0,0,1,.84-.84,2,2,0,0,1,1-.28,2.4,2.4,0,0,1,1.45.48,3.26,3.26,0,0,1,1,1.45,6.28,6.28,0,0,1,.39,2.35,5.22,5.22,0,0,1-.88,3.25,2.59,2.59,0,0,1-2.07,1.15,2,2,0,0,1-1.07-.31,2.63,2.63,0,0,1-.81-.92Zm0-4.21a6.18,6.18,0,0,0,.23,1.93,2.13,2.13,0,0,0,.67,1,1.5,1.5,0,0,0,1,.34,1.56,1.56,0,0,0,1.26-.8,5.58,5.58,0,0,0,0-4.79,1.56,1.56,0,0,0-1.31-.77,1.58,1.58,0,0,0-1.27.8A4.08,4.08,0,0,0,751.6,277.44Z"/><path class="cls-4" d="M757.41,279.16l1.15-.21a2,2,0,0,0,.56,1.3,1.93,1.93,0,0,0,2.35.06,1.19,1.19,0,0,0,.41-.94.9.9,0,0,0-.35-.77,4.64,4.64,0,0,0-1.17-.47,8.28,8.28,0,0,1-1.8-.7,2,2,0,0,1-.7-.77,2.36,2.36,0,0,1-.25-1.11,2.31,2.31,0,0,1,.68-1.72,2.58,2.58,0,0,1,1.88-.67,2.93,2.93,0,0,1,1.33.28,2,2,0,0,1,.88.73,3,3,0,0,1,.42,1.32l-1.12.19a1.35,1.35,0,0,0-1.48-1.36,1.71,1.71,0,0,0-1.11.3.94.94,0,0,0-.37.77.87.87,0,0,0,.35.72,6.55,6.55,0,0,0,1.25.5,9.14,9.14,0,0,1,1.85.72,1.82,1.82,0,0,1,.66.74,2.51,2.51,0,0,1,.23,1.1,2.58,2.58,0,0,1-.75,1.93,2.82,2.82,0,0,1-2.06.74C758.62,281.84,757.67,281,757.41,279.16Z"/><path class="cls-4" d="M767.63,277.5a5,5,0,0,1,.91-3.24,2.9,2.9,0,0,1,4.55,0,4.79,4.79,0,0,1,.92,3.15,5.17,5.17,0,0,1-.9,3.33,2.92,2.92,0,0,1-4.57,0A5,5,0,0,1,767.63,277.5Zm1.18,0a4,4,0,0,0,.59,2.39,1.74,1.74,0,0,0,1.45.79,1.7,1.7,0,0,0,1.4-.79,4.11,4.11,0,0,0,.58-2.39,4,4,0,0,0-.59-2.39,1.74,1.74,0,0,0-1.45-.79,1.69,1.69,0,0,0-1.4.79A4,4,0,0,0,768.81,277.5Z"/><path class="cls-4" d="M775.69,281.65v-7.2h-1v-1.1h1v-.88a4.2,4.2,0,0,1,.2-1.47,1.56,1.56,0,0,1,.62-.74,2,2,0,0,1,1.06-.26,4.37,4.37,0,0,1,1.08.15l-.17,1.22a3.39,3.39,0,0,0-.68-.08.9.9,0,0,0-.74.27,1.69,1.69,0,0,0-.22,1v.76h1.32v1.1h-1.32v7.2Z"/><path class="cls-4" d="M782.62,281.65V270.2h1.15v11.45Z"/><path class="cls-4" d="M785.58,271.81V270.2h1.15v1.61Zm0,9.84v-8.3h1.15v8.3Z"/><path class="cls-4" d="M788.27,282.34l1.12.2a1.43,1.43,0,0,0,.47,1,1.63,1.63,0,0,0,1.09.33,1.87,1.87,0,0,0,1.2-.36,1.92,1.92,0,0,0,.62-1.09,11.09,11.09,0,0,0,.1-1.84,2.6,2.6,0,0,1-.85.81,2,2,0,0,1-1,.27,2.49,2.49,0,0,1-2-1,5.07,5.07,0,0,1-.92-3.18,6,6,0,0,1,.41-2.34,3.24,3.24,0,0,1,1.06-1.47,2.53,2.53,0,0,1,1.48-.47,2.09,2.09,0,0,1,1.1.3,2.84,2.84,0,0,1,.88.88v-1H794v7.17a8.35,8.35,0,0,1-.31,2.73,2.62,2.62,0,0,1-1,1.29A3,3,0,0,1,791,285a2.73,2.73,0,0,1-2-.72A2.57,2.57,0,0,1,788.27,282.34Zm1-5a4.16,4.16,0,0,0,.54,2.39,1.59,1.59,0,0,0,1.32.75,1.61,1.61,0,0,0,1.33-.73,5.21,5.21,0,0,0,0-4.68,1.7,1.7,0,0,0-1.37-.76,1.59,1.59,0,0,0-1.27.76A3.94,3.94,0,0,0,789.22,277.35Z"/><path class="cls-4" d="M795.79,281.65V270.2h1.15v4.1a2.73,2.73,0,0,1,.92-.85,2.25,2.25,0,0,1,1.12-.29,2.18,2.18,0,0,1,1.72.7,3.8,3.8,0,0,1,.63,2.53v5.26h-1.15v-5.26a2.52,2.52,0,0,0-.38-1.55,1.3,1.3,0,0,0-1.06-.46,1.66,1.66,0,0,0-1.28.6,3.28,3.28,0,0,0-.52,2.13v4.54Z"/><path class="cls-4" d="M805.65,280.39l.15,1.24a3.09,3.09,0,0,1-.85.13,1.72,1.72,0,0,1-1-.24,1.21,1.21,0,0,1-.51-.65,6.54,6.54,0,0,1-.13-1.65v-4.77h-.85v-1.1h.85V271.3l1.14-.85v2.9h1.17v1.1h-1.17v4.85a2.14,2.14,0,0,0,.11.86.56.56,0,0,0,.55.29A2.86,2.86,0,0,0,805.65,280.39Z"/><path class="cls-4" d="M810.34,281.65V270.2h1.15v11.45Z"/><path class="cls-4" d="M813.3,271.81V270.2h1.15v1.61Zm0,9.84v-8.3h1.15v8.3Z"/><path class="cls-4" d="M816.23,281.65V270.2h1.15v6.54l2.74-3.39h1.49l-2.6,3.08,2.86,5.22h-1.41l-2.26-4.25-.82,1v3.29Z"/><path class="cls-4" d="M827.42,279l1.19.18a3.67,3.67,0,0,1-1.07,2,2.84,2.84,0,0,1-1.93.68,2.89,2.89,0,0,1-2.34-1.1,4.89,4.89,0,0,1-.89-3.17,5.19,5.19,0,0,1,.9-3.28,2.8,2.8,0,0,1,2.28-1.13,2.72,2.72,0,0,1,2.21,1.11,5.11,5.11,0,0,1,.88,3.21v.38h-5.08a3.64,3.64,0,0,0,.65,2.11,1.78,1.78,0,0,0,1.41.71C826.48,280.68,827.08,280.11,827.42,279Zm-3.79-2.28h3.8a3.21,3.21,0,0,0-.46-1.61,1.69,1.69,0,0,0-1.42-.77,1.72,1.72,0,0,0-1.32.64A2.88,2.88,0,0,0,823.63,276.7Z"/><path class="cls-4" d="M833.27,279.16l1.15-.21a2,2,0,0,0,.56,1.3,1.93,1.93,0,0,0,2.35.06,1.19,1.19,0,0,0,.41-.94.93.93,0,0,0-.35-.77,4.64,4.64,0,0,0-1.17-.47,8.28,8.28,0,0,1-1.8-.7,2,2,0,0,1-.7-.77,2.36,2.36,0,0,1-.25-1.11,2.31,2.31,0,0,1,.68-1.72,2.58,2.58,0,0,1,1.88-.67,2.93,2.93,0,0,1,1.33.28,2,2,0,0,1,.88.73,3,3,0,0,1,.42,1.32l-1.12.19a1.35,1.35,0,0,0-1.48-1.36,1.71,1.71,0,0,0-1.11.3.94.94,0,0,0-.37.77.87.87,0,0,0,.35.72,6.55,6.55,0,0,0,1.25.5,9.14,9.14,0,0,1,1.85.72,1.89,1.89,0,0,1,.66.74,2.51,2.51,0,0,1,.23,1.1,2.58,2.58,0,0,1-.75,1.93,2.82,2.82,0,0,1-2.06.74C834.48,281.84,833.53,281,833.27,279.16Z"/><path class="cls-4" d="M844.71,280.62a4.1,4.1,0,0,1-1.2.91,3,3,0,0,1-1.3.31,2.28,2.28,0,0,1-1.69-.64,2.34,2.34,0,0,1-.64-1.73,2.62,2.62,0,0,1,.3-1.27,2.27,2.27,0,0,1,.81-.87,4.33,4.33,0,0,1,1.56-.46,9,9,0,0,0,2.07-.49V276a1.85,1.85,0,0,0-.3-1.2,1.67,1.67,0,0,0-1.32-.5,1.83,1.83,0,0,0-1.2.33,2.21,2.21,0,0,0-.59,1.26l-1.13-.19a3.18,3.18,0,0,1,1-2,3.26,3.26,0,0,1,2.11-.61,3,3,0,0,1,1.68.41,1.71,1.71,0,0,1,.77,1,7,7,0,0,1,.16,1.74v1.87a23.12,23.12,0,0,0,.08,2.48,3.58,3.58,0,0,0,.29,1H845A3.63,3.63,0,0,1,844.71,280.62Zm-.09-3.14a7.31,7.31,0,0,1-1.89.54,3.33,3.33,0,0,0-1,.28,1.21,1.21,0,0,0-.45.45,1.37,1.37,0,0,0-.16.68,1.24,1.24,0,0,0,.37.95,1.37,1.37,0,0,0,1,.35,2,2,0,0,0,1.12-.32,2,2,0,0,0,.76-.85,4,4,0,0,0,.25-1.56Z"/><path class="cls-4" d="M849.48,281.65l-2.59-8.3h1.22l1.46,5c.17.56.32,1.12.44,1.67.1-.44.24-1,.42-1.58l1.52-5.06h1.19l-2.59,8.3Z"/><path class="cls-4" d="M858.79,279l1.19.18a3.62,3.62,0,0,1-1.08,2,2.83,2.83,0,0,1-1.92.68,2.86,2.86,0,0,1-2.34-1.1,4.89,4.89,0,0,1-.9-3.17,5.19,5.19,0,0,1,.9-3.28,2.84,2.84,0,0,1,2.29-1.13,2.71,2.71,0,0,1,2.2,1.11,5.05,5.05,0,0,1,.89,3.21v.38h-5.08a3.57,3.57,0,0,0,.65,2.11,1.75,1.75,0,0,0,1.4.71C857.85,280.68,858.45,280.11,858.79,279ZM855,276.7h3.8a3.21,3.21,0,0,0-.46-1.61,1.69,1.69,0,0,0-1.42-.77,1.72,1.72,0,0,0-1.32.64A2.88,2.88,0,0,0,855,276.7Z"/><path class="cls-4" d="M738.9,301.83V290.35H740v1.08a2.7,2.7,0,0,1,.87-1,2,2,0,0,1,1.09-.3,2.38,2.38,0,0,1,1.45.48,3.26,3.26,0,0,1,1,1.45,6.3,6.3,0,0,1,.39,2.34,5.23,5.23,0,0,1-.88,3.26,2.61,2.61,0,0,1-2.08,1.15,1.87,1.87,0,0,1-1-.28,2.51,2.51,0,0,1-.79-.77v4Zm1.05-7.28a4.24,4.24,0,0,0,.53,2.37,1.47,1.47,0,0,0,2.59,0,5.69,5.69,0,0,0,0-4.84,1.42,1.42,0,0,0-2.57.06A4.33,4.33,0,0,0,740,294.55Z"/><path class="cls-4" d="M745.76,294.5a5,5,0,0,1,.9-3.24,2.91,2.91,0,0,1,4.56,0,4.79,4.79,0,0,1,.91,3.15,5.17,5.17,0,0,1-.9,3.33,2.91,2.91,0,0,1-4.56,0A5,5,0,0,1,745.76,294.5Zm1.18,0a4,4,0,0,0,.58,2.39,1.75,1.75,0,0,0,1.46.79,1.69,1.69,0,0,0,1.39-.79,4,4,0,0,0,.58-2.39,4,4,0,0,0-.58-2.39,1.75,1.75,0,0,0-1.46-.79,1.67,1.67,0,0,0-1.39.79A4,4,0,0,0,746.94,294.5Z"/><path class="cls-4" d="M753.49,288.81V287.2h1.15v1.61Zm0,9.84v-8.3h1.15v8.3Z"/><path class="cls-4" d="M756.41,298.65v-8.3h1v1.17a2.76,2.76,0,0,1,.91-1,2.36,2.36,0,0,1,1.25-.34,2.44,2.44,0,0,1,1,.22,2.1,2.1,0,0,1,.74.56,2.22,2.22,0,0,1,.43.9,7.81,7.81,0,0,1,.14,1.71v5.1h-1.15v-5a4,4,0,0,0-.16-1.34,1.27,1.27,0,0,0-1.25-.88,1.6,1.6,0,0,0-1.32.61,3.45,3.45,0,0,0-.5,2.12v4.54Z"/><path class="cls-4" d="M766.27,297.39l.15,1.24a3.15,3.15,0,0,1-.86.13,1.76,1.76,0,0,1-1-.24,1.24,1.24,0,0,1-.5-.65,6.39,6.39,0,0,1-.14-1.65v-4.77h-.84v-1.1H764V288.3l1.15-.85v2.9h1.17v1.1H765.1v4.85a2.42,2.42,0,0,0,.1.86.58.58,0,0,0,.56.29A2.86,2.86,0,0,0,766.27,297.39Z"/><path class="cls-4" d="M766.91,296.16l1.14-.21a2.07,2.07,0,0,0,.56,1.3,1.94,1.94,0,0,0,2.36.06,1.23,1.23,0,0,0,.41-.94.91.91,0,0,0-.36-.77,4.64,4.64,0,0,0-1.17-.47,8.74,8.74,0,0,1-1.8-.7,2,2,0,0,1-.7-.77,2.36,2.36,0,0,1-.25-1.11,2.31,2.31,0,0,1,.68-1.72,2.58,2.58,0,0,1,1.88-.67,3,3,0,0,1,1.34.28,2.13,2.13,0,0,1,.88.73,3.3,3.3,0,0,1,.42,1.32l-1.13.19a1.34,1.34,0,0,0-1.47-1.36,1.74,1.74,0,0,0-1.12.3.94.94,0,0,0-.37.77.87.87,0,0,0,.35.72,6.46,6.46,0,0,0,1.26.5,9.4,9.4,0,0,1,1.85.72,1.8,1.8,0,0,1,.65.74,2.38,2.38,0,0,1,.23,1.1,2.58,2.58,0,0,1-.75,1.93,2.82,2.82,0,0,1-2.06.74C768.11,298.84,767.17,298,766.91,296.16Z"/><path class="cls-4" d="M774.27,298.65v-1.6h1.32v1.6Z"/><path class="cls-4" d="M562.22,281.65v-2.74h-4.07v-1.29l4.28-7.42h1v7.42h1.27v1.29h-1.27v2.74Zm0-4v-5.17l-2.94,5.17Z"/><path class="cls-4" d="M565.82,278.65l1.21-.13a2.85,2.85,0,0,0,.64,1.63,1.51,1.51,0,0,0,1.15.54,1.72,1.72,0,0,0,1.41-.76,3.22,3.22,0,0,0,.6-2.06,2.8,2.8,0,0,0-.58-1.9,1.78,1.78,0,0,0-1.44-.68,1.83,1.83,0,0,0-1,.29,2.13,2.13,0,0,0-.72.82l-1.09-.17.92-5.89h4.66v1.35h-3.75l-.5,3.08a2.69,2.69,0,0,1,1.77-.72,2.66,2.66,0,0,1,2.06,1,4,4,0,0,1,.87,2.71,4.77,4.77,0,0,1-.87,2.88,2.76,2.76,0,0,1-2.34,1.2,2.79,2.79,0,0,1-2.06-.84A3.64,3.64,0,0,1,565.82,278.65Z"/><g class="cls-2"><path class="cls-3" d="M127.8,52.2A14.06,14.06,0,0,0,117,57.6"/><path class="cls-3" d="M253.8,54l-36-1.8"/><path class="cls-3" d="M183.6,149.4,370.8,79.2"/><path class="cls-3" d="M147.6,154.8a14.41,14.41,0,0,0-7.2,3.6"/><path class="cls-3" d="M190.8,118.8c19.41-11.52,37.58-10.69,59.4-12.6"/><path class="cls-3" d="M415.8,81c-16.63,1.94-33.39,4.68-50.15,3.33-.09-.51-.17-1-.25-1.53"/><path class="cls-3" d="M432,82.8c-28,5.65-55.54,13.11-82.95,21a172.33,172.33,0,0,1-37.69,6.65c-14.44,1.07-28.84,2.58-43.16,4.71"/><path class="cls-3" d="M522,77.4a144.82,144.82,0,0,0,27-3.6"/><path class="cls-3" d="M367.2,90c87.74.71,175.22-2.06,262.8-7.2"/><path class="cls-3" d="M306,95.4q-10.22,1.77,15.36-.71c42.3-2.39,84.47-4.38,126.84-4.69"/><path class="cls-3" d="M414,124.2c-3.88.92-7,1.89-10.8,1.8"/><path class="cls-3" d="M343.8,183.6c9.85-.66,17.91-.45,27.44,1.71,11.29,2.56,23.1,1.22,34.59,1q41-.84,82-.9"/></g><line class="cls-3" x1="442.8" y1="180" x2="442.8" y2="205.2"/><line class="cls-3" x1="432" y1="106.2" x2="423" y2="120.6"/><g class="cls-2"><path class="cls-3" d="M426.6,340.2,318.6,288"/><path class="cls-3" d="M489.6,349.2a302.15,302.15,0,0,1-37.8,36"/><path class="cls-3" d="M367.2,430.2c-1.62-12.28-11.32-26.52-16.2-37.8"/><path class="cls-3" d="M356.4,259.2a10.8,10.8,0,0,1,7.2,1.8"/><path class="cls-3" d="M432,336.6q-20.6,51.27-45,100.8"/></g><line class="cls-3" x1="358.2" y1="504" x2="358.2" y2="505.8"/><g class="cls-2"><path class="cls-3" d="M392.4,327.6l-9-66.6"/><path class="cls-3" d="M432,547.2a29.59,29.59,0,0,1-1.8,14.4"/><path class="cls-3" d="M433.8,239.4c.71-3.39-25.81,33.39-14.4,18"/><path class="cls-3" d="M381.6,531a426.78,426.78,0,0,0,30.6-50.4"/></g><line class="cls-3" x1="354.6" y1="579.6" x2="345.6" y2="588.6"/><g class="cls-2"><path class="cls-3" d="M378,284.4a31,31,0,0,0,9-7.2"/><path class="cls-3" d="M230.4,541.8c23.48-16.45,40.07-36.75,57.6-59.4"/></g><line class="cls-3" x1="126" y1="574.2" x2="138.6" y2="574.2"/><g class="cls-2"><path class="cls-3" d="M90,57.68l93.56,29.63s89.58,7.83,104.54,8.92S408.61,110.7,408.61,110.7H505.8c29.71,0,102.59-8,88.19.12s-75.47,6.44-123.28,15.31a484.79,484.79,0,0,0-83.82,23.39L288.1,167.4s53.9,34.2,84.5,46.8,43.82,24.85,43.82,24.85-23.9,61.53-28.52,75.05-42.39,35-42.39,35c-2.54,18.09,3.51,9.08,0,28.88s-7.11-5.43-12.51,33.28S318.55,477,318.55,486s-50.33,26.93-59.34,36-32.35,25.19-50.41,32.41-90,5.6-10.8,7.24,192.61,17.86,198.9,17.86,35.84,4.59,54.82,4.59h38"/><path class="cls-3" d="M657,99c33.52-5.06,69.91-8,100.8-23.4"/><path class="cls-3" d="M594,111.6c55.75-3.15,108.41-5.35,162-21.6"/><path class="cls-3" d="M802.8,75.6a168,168,0,0,1,21.6-5.4"/></g><line class="cls-3" x1="910.8" y1="75.6" x2="918" y2="75.6"/><line class="cls-3" x1="900" y1="97.2" x2="898.2" y2="97.2"/><g class="cls-2"><path class="cls-3" d="M959.4,108,927,113.4"/><path class="cls-3" d="M606.6,163.8l-54,7.2"/><path class="cls-3" d="M963,563.4c-135.43,21.27-272.64,27.67-409.4,34.86a1494.25,1494.25,0,0,0-197.67,11,97.84,97.84,0,0,0-57,12.37c12.22-1.55,27.27-13.2,38.16-19.49,16-9.23,29.88-20.05,48.38-23.76q18.46-6.1,36.58,4.12a150.88,150.88,0,0,1,38.28,20.12A23.6,23.6,0,0,1,464,617.83a9.08,9.08,0,0,0,8.43-.37c-12.39-5.84-35.49-1.6-49.18,1.31-7.76,1.65-18,9.67-25.94,10.6,5.89-4.07,11.83-6.34,18.4-9.11-28-.48-57.72,7.24-83.32,18.28,7.88-3.69,15.5-14.24,21.26-20.67,2.17-2.43,24.38-25,21.42-32.46C337.67,593.2,300.94,604.57,266.4,621"/></g></g></svg>