<svg id="Layer_1" data-name="Layer 1" xmlns="http://www.w3.org/2000/svg" xmlns:xlink="http://www.w3.org/1999/xlink" viewBox="0 0 1080 756"><defs><style>.cls-1,.cls-3{fill:none;}.cls-2{clip-path:url(#clip-path);}.cls-3{stroke:#231f20;stroke-width:0.25px;}.cls-4{fill:#231f20;}</style><clipPath id="clip-path"><rect class="cls-1" width="1080" height="756"/></clipPath></defs><title>Untitled-3</title><g class="cls-2"><g class="cls-2"><line class="cls-3" x1="180" y1="-18.36" x2="180" y2="790.92"/><line class="cls-3" x1="720" y1="-20.88" x2="720" y2="788.4"/><line class="cls-3" x1="359.88" y1="-18.36" x2="359.88" y2="790.92"/><line class="cls-3" x1="899.87" y1="-20.88" x2="899.87" y2="788.4"/><line class="cls-3" x1="-16.92" y1="251.88" x2="1101.6" y2="251.88"/><line class="cls-3" x1="-11.52" y1="504.13" x2="1107" y2="504.13"/><line class="cls-3" x1="540" y1="-19.44" x2="540" y2="789.84"/></g><path class="cls-4" d="M203.05,278.61l1.14.18a3.79,3.79,0,0,1-1,2.26,2.58,2.58,0,0,1-1.89.79,2.7,2.7,0,0,1-2.2-1.1,5.16,5.16,0,0,1-.86-3.25,5.09,5.09,0,0,1,.87-3.24,2.73,2.73,0,0,1,2.24-1.09,2.52,2.52,0,0,1,1.77.66,3.26,3.26,0,0,1,.93,2L203,276a2.39,2.39,0,0,0-.57-1.25,1.3,1.3,0,0,0-1-.42,1.69,1.69,0,0,0-1.41.75,4,4,0,0,0-.56,2.4,4.38,4.38,0,0,0,.53,2.45,1.62,1.62,0,0,0,1.37.76,1.48,1.48,0,0,0,1.12-.5A2.74,2.74,0,0,0,203.05,278.61Z"/><path class="cls-4" d="M204.73,277.5a5,5,0,0,1,.9-3.24,2.91,2.91,0,0,1,4.56,0,4.79,4.79,0,0,1,.91,3.15,5.17,5.17,0,0,1-.9,3.33,2.91,2.91,0,0,1-4.56,0A5,5,0,0,1,204.73,277.5Zm1.18,0a4,4,0,0,0,.58,2.39,1.75,1.75,0,0,0,1.45.79,1.69,1.69,0,0,0,1.4-.79,4,4,0,0,0,.58-2.39,3.92,3.92,0,0,0-.59-2.39,1.74,1.74,0,0,0-1.45-.79,1.69,1.69,0,0,0-1.4.79A4.09,4.09,0,0,0,205.91,277.5Z"/><path class="cls-4" d="M212.46,281.65v-8.3h1v1.17a2.7,2.7,0,0,1,.92-1,2.33,2.33,0,0,1,1.24-.34,2.44,2.44,0,0,1,1,.22,2.05,2.05,0,0,1,.75.56,2.21,2.21,0,0,1,.42.9,7.23,7.23,0,0,1,.14,1.71v5.1h-1.15v-5a4.34,4.34,0,0,0-.15-1.34,1.36,1.36,0,0,0-.49-.65,1.27,1.27,0,0,0-.77-.23,1.6,1.6,0,0,0-1.32.61,3.46,3.46,0,0,0-.49,2.12v4.54Z"/><path class="cls-4" d="M221.66,281.65l-2.59-8.3h1.22l1.46,5c.17.56.32,1.12.44,1.67.1-.44.24-1,.42-1.58l1.52-5.06h1.19l-2.59,8.3Z"/><path class="cls-4" d="M231,279l1.19.18a3.62,3.62,0,0,1-1.08,2,2.83,2.83,0,0,1-1.92.68,2.86,2.86,0,0,1-2.34-1.1,4.89,4.89,0,0,1-.9-3.17,5.19,5.19,0,0,1,.9-3.28,2.82,2.82,0,0,1,2.29-1.13,2.71,2.71,0,0,1,2.2,1.11,5.05,5.05,0,0,1,.88,3.21v.38h-5.08a3.57,3.57,0,0,0,.65,2.11,1.75,1.75,0,0,0,1.4.71C230,280.68,230.63,280.11,231,279Zm-3.79-2.28H231a3.2,3.2,0,0,0-.47-1.61,1.68,1.68,0,0,0-2.73-.13A2.82,2.82,0,0,0,227.18,276.7Z"/><path class="cls-4" d="M233.62,281.65v-8.3h1v1.17a2.76,2.76,0,0,1,.91-1,2.36,2.36,0,0,1,1.25-.34,2.44,2.44,0,0,1,1,.22,2.1,2.1,0,0,1,.74.56,2.22,2.22,0,0,1,.43.9,7.81,7.81,0,0,1,.14,1.71v5.1H238v-5a4,4,0,0,0-.16-1.34,1.27,1.27,0,0,0-1.25-.88,1.59,1.59,0,0,0-1.32.61,3.45,3.45,0,0,0-.5,2.12v4.54Z"/><path class="cls-4" d="M243.48,280.39l.15,1.24a3.15,3.15,0,0,1-.86.13,1.76,1.76,0,0,1-1-.24,1.24,1.24,0,0,1-.5-.65,6.39,6.39,0,0,1-.14-1.65v-4.77h-.84v-1.1h.84V271.3l1.15-.85v2.9h1.17v1.1h-1.17v4.85a2.42,2.42,0,0,0,.1.86.58.58,0,0,0,.56.29A2.86,2.86,0,0,0,243.48,280.39Z"/><path class="cls-4" d="M244.56,271.81V270.2h1.15v1.61Zm0,9.84v-8.3h1.15v8.3Z"/><path class="cls-4" d="M247,277.5a5,5,0,0,1,.9-3.24,2.91,2.91,0,0,1,4.56,0,4.79,4.79,0,0,1,.91,3.15,5.17,5.17,0,0,1-.9,3.33,2.91,2.91,0,0,1-4.56,0A5,5,0,0,1,247,277.5Zm1.18,0a4,4,0,0,0,.58,2.39,1.75,1.75,0,0,0,1.46.79,1.69,1.69,0,0,0,1.39-.79,4,4,0,0,0,.58-2.39,4,4,0,0,0-.58-2.39,1.75,1.75,0,0,0-1.46-.79,1.67,1.67,0,0,0-1.39.79A4,4,0,0,0,248.22,277.5Z"/><path class="cls-4" d="M254.77,281.65v-8.3h1v1.17a2.78,2.78,0,0,1,.92-1,2.33,2.33,0,0,1,1.24-.34,2.41,2.41,0,0,1,1,.22,2.05,2.05,0,0,1,.75.56,2.36,2.36,0,0,1,.43.9,7.81,7.81,0,0,1,.14,1.71v5.1h-1.15v-5a4,4,0,0,0-.16-1.34,1.3,1.3,0,0,0-.49-.65,1.25,1.25,0,0,0-.77-.23,1.6,1.6,0,0,0-1.32.61,3.46,3.46,0,0,0-.49,2.12v4.54Z"/><path class="cls-4" d="M261.62,279.16l1.15-.21a2,2,0,0,0,.56,1.3,1.93,1.93,0,0,0,2.35.06,1.19,1.19,0,0,0,.41-.94.9.9,0,0,0-.35-.77,4.64,4.64,0,0,0-1.17-.47,8.28,8.28,0,0,1-1.8-.7,2,2,0,0,1-.7-.77,2.36,2.36,0,0,1-.25-1.11,2.31,2.31,0,0,1,.68-1.72,2.58,2.58,0,0,1,1.88-.67,2.93,2.93,0,0,1,1.33.28,2,2,0,0,1,.88.73,3,3,0,0,1,.42,1.32l-1.12.19a1.35,1.35,0,0,0-1.48-1.36,1.71,1.71,0,0,0-1.11.3.94.94,0,0,0-.37.77.87.87,0,0,0,.35.72,6.55,6.55,0,0,0,1.25.5,9.14,9.14,0,0,1,1.85.72,1.82,1.82,0,0,1,.66.74,2.51,2.51,0,0,1,.23,1.1,2.58,2.58,0,0,1-.75,1.93,2.82,2.82,0,0,1-2.06.74C262.83,281.84,261.88,281,261.62,279.16Z"/><path class="cls-4" d="M271.84,277.5a5,5,0,0,1,.91-3.24,2.9,2.9,0,0,1,4.55,0,4.79,4.79,0,0,1,.92,3.15,5.17,5.17,0,0,1-.9,3.33,2.92,2.92,0,0,1-4.57,0A5,5,0,0,1,271.84,277.5Zm1.18,0a4,4,0,0,0,.59,2.39,1.74,1.74,0,0,0,1.45.79,1.7,1.7,0,0,0,1.4-.79,4.11,4.11,0,0,0,.58-2.39,4,4,0,0,0-.59-2.39,1.74,1.74,0,0,0-1.45-.79,1.69,1.69,0,0,0-1.4.79A4,4,0,0,0,273,277.5Z"/><path class="cls-4" d="M279.9,281.65v-7.2h-1v-1.1h1v-.88a4.2,4.2,0,0,1,.2-1.47,1.56,1.56,0,0,1,.62-.74,2,2,0,0,1,1.06-.26,4.37,4.37,0,0,1,1.08.15l-.17,1.22a3.39,3.39,0,0,0-.68-.08.9.9,0,0,0-.74.27,1.69,1.69,0,0,0-.22,1v.76h1.32v1.1h-1.32v7.2Z"/><path class="cls-4" d="M198.61,300.85v-8.3h1v1.16a2.69,2.69,0,0,1,.88-1,2.15,2.15,0,0,1,1.18-.35,2,2,0,0,1,1.21.37,2,2,0,0,1,.71,1.08,3.14,3.14,0,0,1,.93-1.08,2,2,0,0,1,1.18-.37,1.93,1.93,0,0,1,1.54.67,3.22,3.22,0,0,1,.56,2.12v5.7h-1.14v-5.23a4.55,4.55,0,0,0-.13-1.27,1.17,1.17,0,0,0-.42-.57,1.1,1.1,0,0,0-.66-.2,1.46,1.46,0,0,0-1.21.59,2.91,2.91,0,0,0-.47,1.85v4.83h-1.15v-5.4a2.48,2.48,0,0,0-.32-1.45,1,1,0,0,0-.87-.42,1.47,1.47,0,0,0-1.25.63,4.31,4.31,0,0,0-.45,2.33v4.31Z"/><path class="cls-4" d="M209.09,296.7a5,5,0,0,1,.91-3.24,2.9,2.9,0,0,1,4.55,0,4.79,4.79,0,0,1,.92,3.15,5.17,5.17,0,0,1-.9,3.33,2.92,2.92,0,0,1-4.57,0A5,5,0,0,1,209.09,296.7Zm1.18,0a4,4,0,0,0,.59,2.39,1.74,1.74,0,0,0,1.45.79,1.7,1.7,0,0,0,1.4-.79,4.11,4.11,0,0,0,.58-2.39,4,4,0,0,0-.59-2.39,1.74,1.74,0,0,0-1.45-.79,1.69,1.69,0,0,0-1.4.79A4,4,0,0,0,210.27,296.7Z"/><path class="cls-4" d="M221.23,300.85V299.8a2.26,2.26,0,0,1-.8.92,1.94,1.94,0,0,1-1.06.32,2.58,2.58,0,0,1-2.09-1.14,5.16,5.16,0,0,1-.87-3.2,6.79,6.79,0,0,1,.38-2.4,3.31,3.31,0,0,1,1.05-1.46,2.35,2.35,0,0,1,1.44-.48,1.93,1.93,0,0,1,1.06.31,2.48,2.48,0,0,1,.81.83v-4.1h1.16v11.45Zm-3.65-4.14a4.15,4.15,0,0,0,.56,2.39,1.61,1.61,0,0,0,1.31.78,1.55,1.55,0,0,0,1.27-.75,3.88,3.88,0,0,0,.54-2.27,4.66,4.66,0,0,0-.54-2.54,1.6,1.6,0,0,0-1.36-.8,1.52,1.52,0,0,0-1.25.77A4.36,4.36,0,0,0,217.58,296.71Z"/><path class="cls-4" d="M228.77,298.18l1.19.18a3.67,3.67,0,0,1-1.07,2A2.84,2.84,0,0,1,227,301a2.89,2.89,0,0,1-2.34-1.1,4.89,4.89,0,0,1-.89-3.17,5.19,5.19,0,0,1,.9-3.28,2.8,2.8,0,0,1,2.28-1.13,2.72,2.72,0,0,1,2.21,1.11,5.05,5.05,0,0,1,.88,3.21v.38h-5.08a3.64,3.64,0,0,0,.65,2.11,1.78,1.78,0,0,0,1.41.71C227.83,299.88,228.43,299.31,228.77,298.18ZM225,295.9h3.8a3.21,3.21,0,0,0-.46-1.61,1.68,1.68,0,0,0-2.74-.12A2.83,2.83,0,0,0,225,295.9Z"/><path class="cls-4" d="M231.42,300.85v-8.3h1v1.26a3.67,3.67,0,0,1,.73-1.16,1.12,1.12,0,0,1,.75-.29,2,2,0,0,1,1.18.46l-.39,1.3a1.49,1.49,0,0,0-.84-.3,1,1,0,0,0-.67.26,1.32,1.32,0,0,0-.43.71,6.36,6.36,0,0,0-.22,1.71v4.35Z"/><path class="cls-4" d="M235.79,300.85v-8.3h1v1.17a2.76,2.76,0,0,1,.91-1,2.36,2.36,0,0,1,1.25-.34,2.44,2.44,0,0,1,1,.22,2.05,2.05,0,0,1,.75.56,2.21,2.21,0,0,1,.42.9,7.81,7.81,0,0,1,.14,1.71v5.1h-1.15V295.8a4.34,4.34,0,0,0-.15-1.34,1.36,1.36,0,0,0-.49-.65,1.27,1.27,0,0,0-.77-.23,1.6,1.6,0,0,0-1.32.61,3.46,3.46,0,0,0-.49,2.12v4.54Z"/><path class="cls-4" d="M243.08,291V289.4h1.15V291Zm0,9.84v-8.3h1.15v8.3Z"/><path class="cls-4" d="M245.55,298.36l1.15-.21a2,2,0,0,0,.56,1.3,1.93,1.93,0,0,0,2.35.06,1.19,1.19,0,0,0,.41-.94.9.9,0,0,0-.35-.77,4.64,4.64,0,0,0-1.17-.47,8.28,8.28,0,0,1-1.8-.7,2,2,0,0,1-.7-.77,2.36,2.36,0,0,1-.25-1.11,2.31,2.31,0,0,1,.68-1.72,2.58,2.58,0,0,1,1.88-.67,3.07,3.07,0,0,1,1.33.28,2,2,0,0,1,.88.73,3,3,0,0,1,.42,1.32l-1.12.19a1.35,1.35,0,0,0-1.48-1.36,1.71,1.71,0,0,0-1.11.3.94.94,0,0,0-.37.77.87.87,0,0,0,.35.72,6.55,6.55,0,0,0,1.25.5,9.14,9.14,0,0,1,1.85.72,1.89,1.89,0,0,1,.66.74,2.53,2.53,0,0,1,.23,1.11,2.57,2.57,0,0,1-.75,1.92,2.82,2.82,0,0,1-2.06.74C246.76,301,245.81,300.15,245.55,298.36Z"/><path class="cls-4" d="M255.12,299.59l.16,1.24a3.15,3.15,0,0,1-.86.13,1.76,1.76,0,0,1-1-.24,1.24,1.24,0,0,1-.5-.65,6.39,6.39,0,0,1-.14-1.65v-4.77H252v-1.1h.84V290.5l1.15-.85v2.9h1.16v1.1H254v4.85a2.2,2.2,0,0,0,.1.86.58.58,0,0,0,.56.29A2.67,2.67,0,0,0,255.12,299.59Z"/><path class="cls-4" d="M259.82,300.85V289.4H261v11.45Z"/><path class="cls-4" d="M267.42,298.18l1.19.18a3.62,3.62,0,0,1-1.08,2,2.82,2.82,0,0,1-1.92.68,2.88,2.88,0,0,1-2.34-1.1,4.89,4.89,0,0,1-.9-3.17,5.13,5.13,0,0,1,.91-3.28,2.8,2.8,0,0,1,2.28-1.13,2.69,2.69,0,0,1,2.2,1.11,5.05,5.05,0,0,1,.89,3.21v.38h-5.08a3.57,3.57,0,0,0,.65,2.11,1.77,1.77,0,0,0,1.41.71C266.48,299.88,267.08,299.31,267.42,298.18Zm-3.79-2.28h3.8a3.21,3.21,0,0,0-.46-1.61,1.68,1.68,0,0,0-2.74-.12A2.83,2.83,0,0,0,263.63,295.9Z"/><path class="cls-4" d="M269.84,301.54l1.13.2a1.43,1.43,0,0,0,.47,1,1.62,1.62,0,0,0,1.08.33,1.88,1.88,0,0,0,1.21-.36,1.91,1.91,0,0,0,.61-1.09,10,10,0,0,0,.1-1.84,2.68,2.68,0,0,1-.84.81,2,2,0,0,1-1,.27,2.47,2.47,0,0,1-2-1,5,5,0,0,1-.92-3.18,6.23,6.23,0,0,1,.4-2.34,3.26,3.26,0,0,1,1.07-1.47,2.51,2.51,0,0,1,1.48-.47,2.09,2.09,0,0,1,1.1.3,2.84,2.84,0,0,1,.88.88v-1h1.06v7.17a8.64,8.64,0,0,1-.31,2.73,2.59,2.59,0,0,1-1,1.29,3,3,0,0,1-1.71.48,2.72,2.72,0,0,1-2-.72A2.6,2.6,0,0,1,269.84,301.54Zm1-5a4.16,4.16,0,0,0,.54,2.39,1.59,1.59,0,0,0,1.32.75A1.62,1.62,0,0,0,274,299a4,4,0,0,0,.55-2.35,3.9,3.9,0,0,0-.57-2.33,1.67,1.67,0,0,0-1.37-.76,1.56,1.56,0,0,0-1.26.76A3.94,3.94,0,0,0,270.8,296.55Z"/><path class="cls-4" d="M277.37,291V289.4h1.14V291Zm0,9.84v-8.3h1.14v8.3Z"/><path class="cls-4" d="M281.33,300.85h-1.07V289.4h1.16v4.08a2.77,2.77,0,0,1,.83-.84,2,2,0,0,1,1-.28,2.4,2.4,0,0,1,1.45.48,3.26,3.26,0,0,1,1,1.45,6.28,6.28,0,0,1,.39,2.35,5.22,5.22,0,0,1-.88,3.25,2.59,2.59,0,0,1-2.07,1.15,2,2,0,0,1-1.07-.31,2.65,2.65,0,0,1-.82-.92Zm0-4.21a6.18,6.18,0,0,0,.23,1.93,2.13,2.13,0,0,0,.67,1,1.48,1.48,0,0,0,.95.34,1.56,1.56,0,0,0,1.27-.8,4.24,4.24,0,0,0,.55-2.4,4.29,4.29,0,0,0-.53-2.39,1.45,1.45,0,0,0-2.58,0A4,4,0,0,0,281.32,296.64Z"/><path class="cls-4" d="M287.58,291V289.4h1.15V291Zm0,9.84v-8.3h1.15v8.3Z"/><path class="cls-4" d="M290.45,300.85V289.4h1.15v11.45Z"/><path class="cls-4" d="M293.41,291V289.4h1.14V291Zm0,9.84v-8.3h1.14v8.3Z"/><path class="cls-4" d="M298.88,299.59l.16,1.24a3.21,3.21,0,0,1-.86.13,1.76,1.76,0,0,1-1-.24,1.19,1.19,0,0,1-.5-.65,6.39,6.39,0,0,1-.14-1.65v-4.77h-.84v-1.1h.84V290.5l1.15-.85v2.9h1.16v1.1h-1.16v4.85a2.2,2.2,0,0,0,.1.86.56.56,0,0,0,.55.29A2.86,2.86,0,0,0,298.88,299.59Z"/><path class="cls-4" d="M299.93,304l-.13-1.32a2.06,2.06,0,0,0,.66.13,1.13,1.13,0,0,0,.61-.15,1.06,1.06,0,0,0,.39-.46c0-.07.19-.53.46-1.38l-2.59-8.31h1.24l1.42,4.8c.18.6.34,1.24.49,1.92.13-.64.29-1.27.47-1.89l1.46-4.83h1.15L303,301a16.16,16.16,0,0,1-.8,2.19,2.07,2.07,0,0,1-.67.79,1.49,1.49,0,0,1-.84.25A1.89,1.89,0,0,1,299.93,304Z"/><path class="cls-4" d="M200.81,323.42a16.64,16.64,0,0,1-1.56-3.32,12.12,12.12,0,0,1-.71-4.21,14.19,14.19,0,0,1,2.27-7.49h.83a25.94,25.94,0,0,0-1.21,2.85,14.5,14.5,0,0,0-.52,2.22,15.34,15.34,0,0,0-.19,2.44,16.4,16.4,0,0,0,1.92,7.51Z"/><path class="cls-4" d="M207.42,320.05v-1.22a2.86,2.86,0,0,1-.94,1.05,2.13,2.13,0,0,1-1.22.36,2.2,2.2,0,0,1-1.37-.44,2.08,2.08,0,0,1-.76-1.09,6.79,6.79,0,0,1-.19-1.82v-5.14h1.14v4.6a7.62,7.62,0,0,0,.13,1.72,1.32,1.32,0,0,0,.48.69,1.26,1.26,0,0,0,.79.27,1.65,1.65,0,0,0,1.36-.68,3.7,3.7,0,0,0,.46-2.15v-4.45h1.15v8.3Z"/><path class="cls-4" d="M210.26,320.05v-8.3h1v1.17a2.78,2.78,0,0,1,.92-1,2.43,2.43,0,0,1,2.25-.12,2.05,2.05,0,0,1,.75.56,2.36,2.36,0,0,1,.43.9,7.81,7.81,0,0,1,.14,1.71v5.1h-1.15V315a4,4,0,0,0-.16-1.34,1.27,1.27,0,0,0-1.25-.88,1.58,1.58,0,0,0-1.32.61,3.45,3.45,0,0,0-.5,2.12v4.54Z"/><path class="cls-4" d="M217.88,320.05v-7.2h-1v-1.1h1v-.88a4.2,4.2,0,0,1,.2-1.47,1.58,1.58,0,0,1,.63-.74,2,2,0,0,1,1-.26,4.37,4.37,0,0,1,1.08.15l-.17,1.22a3.31,3.31,0,0,0-.68-.08.92.92,0,0,0-.74.27,1.69,1.69,0,0,0-.22,1v.76h1.33v1.1H219v7.2Z"/><path class="cls-4" d="M220.77,315.9a5,5,0,0,1,.9-3.24,2.91,2.91,0,0,1,4.56,0,4.79,4.79,0,0,1,.92,3.15,5.17,5.17,0,0,1-.9,3.33,2.92,2.92,0,0,1-4.57,0A5,5,0,0,1,220.77,315.9Zm1.18,0a4,4,0,0,0,.59,2.39,1.74,1.74,0,0,0,1.45.79,1.7,1.7,0,0,0,1.4-.79,4.11,4.11,0,0,0,.58-2.39,4,4,0,0,0-.59-2.39,1.74,1.74,0,0,0-1.45-.79,1.69,1.69,0,0,0-1.4.79A4,4,0,0,0,222,315.9Z"/><path class="cls-4" d="M228.51,320.05v-8.3h1V313a3.35,3.35,0,0,1,.73-1.16,1.12,1.12,0,0,1,.74-.29,2,2,0,0,1,1.18.46l-.39,1.3a1.43,1.43,0,0,0-.83-.3,1,1,0,0,0-.68.26,1.45,1.45,0,0,0-.43.71,6.81,6.81,0,0,0-.21,1.72v4.34Z"/><path class="cls-4" d="M235.44,318.79l.15,1.24a3.1,3.1,0,0,1-.86.13,1.76,1.76,0,0,1-1-.24,1.24,1.24,0,0,1-.5-.65,6.39,6.39,0,0,1-.14-1.65v-4.77h-.84v-1.1h.84V309.7l1.15-.85v2.9h1.17v1.1h-1.17v4.85a2.42,2.42,0,0,0,.1.86.58.58,0,0,0,.56.29A2.86,2.86,0,0,0,235.44,318.79Z"/><path class="cls-4" d="M241,320.05v-1.22a3,3,0,0,1-.94,1.05,2.16,2.16,0,0,1-1.22.36,2.21,2.21,0,0,1-1.38-.44,2.08,2.08,0,0,1-.76-1.09,6.79,6.79,0,0,1-.19-1.82v-5.14h1.15v4.6a7.06,7.06,0,0,0,.13,1.72,1.22,1.22,0,0,0,.48.69,1.24,1.24,0,0,0,.79.27,1.67,1.67,0,0,0,1.36-.68,3.71,3.71,0,0,0,.45-2.15v-4.45H242v8.3Z"/><path class="cls-4" d="M243.82,320.05v-8.3h1v1.17a2.76,2.76,0,0,1,.91-1,2.39,2.39,0,0,1,1.25-.34,2.44,2.44,0,0,1,1,.22,2.05,2.05,0,0,1,.75.56,2.21,2.21,0,0,1,.42.9,7.23,7.23,0,0,1,.14,1.71v5.1h-1.15V315a4.34,4.34,0,0,0-.15-1.34,1.36,1.36,0,0,0-.49-.65,1.27,1.27,0,0,0-.77-.23,1.6,1.6,0,0,0-1.32.61,3.46,3.46,0,0,0-.49,2.12v4.54Z"/><path class="cls-4" d="M255.55,319a4.27,4.27,0,0,1-1.21.9,3,3,0,0,1-1.29.31,2.31,2.31,0,0,1-1.7-.64,2.37,2.37,0,0,1-.63-1.73,2.73,2.73,0,0,1,.29-1.27,2.22,2.22,0,0,1,.82-.87,4.2,4.2,0,0,1,1.56-.46,8.87,8.87,0,0,0,2.06-.49v-.36a1.85,1.85,0,0,0-.3-1.2,1.68,1.68,0,0,0-1.33-.5,1.87,1.87,0,0,0-1.2.33,2.21,2.21,0,0,0-.58,1.26l-1.14-.19a3.18,3.18,0,0,1,1-1.95,3.3,3.3,0,0,1,2.12-.61,3,3,0,0,1,1.68.41,1.79,1.79,0,0,1,.77,1,7.53,7.53,0,0,1,.16,1.74v1.87a24.27,24.27,0,0,0,.07,2.48,3.94,3.94,0,0,0,.29,1h-1.2A3.33,3.33,0,0,1,255.55,319Zm-.1-3.15a7.34,7.34,0,0,1-1.88.54,3.42,3.42,0,0,0-1,.28,1.21,1.21,0,0,0-.45.45,1.51,1.51,0,0,0-.16.68,1.28,1.28,0,0,0,.37.95,1.39,1.39,0,0,0,1,.35,2,2,0,0,0,1.12-.32,1.93,1.93,0,0,0,.75-.85,3.78,3.78,0,0,0,.25-1.56Z"/><path class="cls-4" d="M261,318.79l.15,1.24a3.15,3.15,0,0,1-.86.13,1.76,1.76,0,0,1-1-.24,1.24,1.24,0,0,1-.5-.65,6.39,6.39,0,0,1-.14-1.65v-4.77h-.84v-1.1h.84V309.7l1.15-.85v2.9H261v1.1h-1.17v4.85a2.42,2.42,0,0,0,.1.86.58.58,0,0,0,.56.29A2.86,2.86,0,0,0,261,318.79Z"/><path class="cls-4" d="M266.71,317.38l1.19.18a3.62,3.62,0,0,1-1.08,2,2.83,2.83,0,0,1-1.92.68,2.86,2.86,0,0,1-2.34-1.1,4.89,4.89,0,0,1-.9-3.17,5.13,5.13,0,0,1,.91-3.28,2.8,2.8,0,0,1,2.28-1.13,2.71,2.71,0,0,1,2.2,1.11,5.05,5.05,0,0,1,.89,3.21v.38h-5.08a3.57,3.57,0,0,0,.65,2.11,1.75,1.75,0,0,0,1.41.71C265.77,319.08,266.37,318.51,266.71,317.38Zm-3.79-2.28h3.8a3.21,3.21,0,0,0-.46-1.61,1.68,1.68,0,0,0-2.74-.12A2.83,2.83,0,0,0,262.92,315.1Z"/><path class="cls-4" d="M269.32,320.05V308.6h1.15v11.45Z"/><path class="cls-4" d="M272.23,323.24l-.12-1.32a2,2,0,0,0,.66.13,1.11,1.11,0,0,0,.6-.15,1.14,1.14,0,0,0,.4-.46q0-.1.45-1.38l-2.59-8.31h1.24l1.43,4.8c.17.6.34,1.24.49,1.92.13-.64.28-1.27.47-1.89l1.45-4.83h1.16l-2.58,8.44a14.54,14.54,0,0,1-.81,2.19,2,2,0,0,1-.66.79,1.53,1.53,0,0,1-.84.25A1.94,1.94,0,0,1,272.23,323.24Z"/><path class="cls-4" d="M279.29,323.42h-.83a16.38,16.38,0,0,0,1.91-7.51,15.34,15.34,0,0,0-.19-2.44,14.5,14.5,0,0,0-.52-2.22,25.48,25.48,0,0,0-1.2-2.85h.83a14.18,14.18,0,0,1,2.26,7.49,12.67,12.67,0,0,1-.67,4.15A16.1,16.1,0,0,1,279.29,323.42Z"/><path class="cls-4" d="M286.85,323.23V311.75h1.06v1.08a2.7,2.7,0,0,1,.87-1,2,2,0,0,1,1.09-.3,2.36,2.36,0,0,1,1.45.48,3.26,3.26,0,0,1,1,1.45,6.09,6.09,0,0,1,.4,2.34,5.23,5.23,0,0,1-.89,3.26,2.61,2.61,0,0,1-2.08,1.15,1.81,1.81,0,0,1-1-.28,2.44,2.44,0,0,1-.8-.77v4Zm1-7.28a4.15,4.15,0,0,0,.54,2.37,1.46,1.46,0,0,0,2.58,0,5.6,5.6,0,0,0,0-4.84,1.42,1.42,0,0,0-2.57.06A4.33,4.33,0,0,0,287.9,316Z"/><path class="cls-4" d="M294.15,320.05v-8.3h1V313a3.5,3.5,0,0,1,.73-1.16,1.12,1.12,0,0,1,.74-.29,2,2,0,0,1,1.18.46l-.39,1.3a1.43,1.43,0,0,0-.83-.3,1,1,0,0,0-.68.26,1.45,1.45,0,0,0-.43.71,6.81,6.81,0,0,0-.21,1.72v4.34Z"/><path class="cls-4" d="M303.16,317.38l1.19.18a3.67,3.67,0,0,1-1.07,2,2.84,2.84,0,0,1-1.93.68,2.89,2.89,0,0,1-2.34-1.1,4.89,4.89,0,0,1-.89-3.17,5.19,5.19,0,0,1,.9-3.28,2.8,2.8,0,0,1,2.28-1.13,2.72,2.72,0,0,1,2.21,1.11,5.05,5.05,0,0,1,.88,3.21v.38H299.3a3.64,3.64,0,0,0,.65,2.11,1.78,1.78,0,0,0,1.41.71C302.22,319.08,302.82,318.51,303.16,317.38Zm-3.79-2.28h3.8a3.21,3.21,0,0,0-.46-1.61,1.68,1.68,0,0,0-1.41-.77,1.67,1.67,0,0,0-1.32.65A2.77,2.77,0,0,0,299.37,315.1Z"/><path class="cls-4" d="M307.71,320.05l-2.59-8.3h1.22l1.47,5c.16.56.31,1.12.44,1.67.09-.43.24-1,.42-1.58l1.52-5.06h1.18l-2.58,8.3Z"/><path class="cls-4" d="M316.8,319a4.1,4.1,0,0,1-1.2.9,3,3,0,0,1-1.3.31,2.3,2.3,0,0,1-1.69-.64,2.37,2.37,0,0,1-.63-1.73,2.62,2.62,0,0,1,.29-1.27,2.27,2.27,0,0,1,.81-.87,4.33,4.33,0,0,1,1.57-.46,9,9,0,0,0,2.06-.49v-.36a1.78,1.78,0,0,0-.31-1.2,1.64,1.64,0,0,0-1.32-.5,1.87,1.87,0,0,0-1.2.33,2.21,2.21,0,0,0-.59,1.26l-1.13-.19a3.18,3.18,0,0,1,1-1.95,3.27,3.27,0,0,1,2.11-.61,3,3,0,0,1,1.68.41,1.7,1.7,0,0,1,.77,1,7,7,0,0,1,.16,1.74v1.87a23.12,23.12,0,0,0,.08,2.48,3.94,3.94,0,0,0,.29,1H317A3.64,3.64,0,0,1,316.8,319Zm-.09-3.15a7.34,7.34,0,0,1-1.88.54,3.33,3.33,0,0,0-1,.28,1.21,1.21,0,0,0-.45.45,1.51,1.51,0,0,0-.16.68,1.24,1.24,0,0,0,.37.95,1.37,1.37,0,0,0,1,.35,2,2,0,0,0,1.88-1.17,3.78,3.78,0,0,0,.25-1.56Z"/><path class="cls-4" d="M319.67,310.21V308.6h1.15v1.61Zm0,9.84v-8.3h1.15v8.3Z"/><path class="cls-4" d="M322.55,320.05V308.6h1.14v11.45Z"/><path class="cls-4" d="M198.6,339.25V331h1v1.17a2.7,2.7,0,0,1,.92-1,2.33,2.33,0,0,1,1.24-.34,2.29,2.29,0,0,1,1,.22,2.05,2.05,0,0,1,.75.56,2.21,2.21,0,0,1,.42.9,7.23,7.23,0,0,1,.14,1.71v5.1H203V334.2a4.28,4.28,0,0,0-.16-1.34,1.36,1.36,0,0,0-.49-.65,1.28,1.28,0,0,0-.77-.24,1.61,1.61,0,0,0-1.32.62,3.46,3.46,0,0,0-.49,2.12v4.54Z"/><path class="cls-4" d="M205.46,335.1a5,5,0,0,1,.9-3.24,2.91,2.91,0,0,1,4.56,0,4.79,4.79,0,0,1,.91,3.15,5.17,5.17,0,0,1-.89,3.33,2.92,2.92,0,0,1-4.57,0A5,5,0,0,1,205.46,335.1Zm1.18,0a3.92,3.92,0,0,0,.59,2.39,1.74,1.74,0,0,0,1.45.79,1.7,1.7,0,0,0,1.39-.79,4,4,0,0,0,.59-2.39,4,4,0,0,0-.59-2.39,1.75,1.75,0,0,0-1.45-.79,1.68,1.68,0,0,0-1.4.79A4,4,0,0,0,206.64,335.1Z"/><path class="cls-4" d="M216.85,339.25V331h1v1.16a2.69,2.69,0,0,1,.88-1,2.15,2.15,0,0,1,1.18-.35,2,2,0,0,1,1.21.37,2,2,0,0,1,.71,1.08,3.19,3.19,0,0,1,.94-1.09,2,2,0,0,1,1.17-.36,1.92,1.92,0,0,1,1.54.67,3.22,3.22,0,0,1,.57,2.12v5.7h-1.15V334a4.19,4.19,0,0,0-.13-1.27,1.13,1.13,0,0,0-.42-.57,1.1,1.1,0,0,0-.65-.21,1.47,1.47,0,0,0-1.22.6,3,3,0,0,0-.47,1.85v4.83h-1.15v-5.4a2.48,2.48,0,0,0-.32-1.45,1,1,0,0,0-.87-.43,1.46,1.46,0,0,0-1.24.64,4.2,4.2,0,0,0-.46,2.33v4.31Z"/><path class="cls-4" d="M232.2,338.22a4,4,0,0,1-1.2.91,3,3,0,0,1-1.3.31,2.25,2.25,0,0,1-1.69-.65,2.3,2.3,0,0,1-.64-1.72,2.69,2.69,0,0,1,.3-1.28,2.24,2.24,0,0,1,.81-.86,4.33,4.33,0,0,1,1.57-.46,8.42,8.42,0,0,0,2.06-.5v-.35a1.84,1.84,0,0,0-.31-1.2,1.65,1.65,0,0,0-1.32-.5,1.85,1.85,0,0,0-1.2.33,2.21,2.21,0,0,0-.59,1.26l-1.13-.19a3.18,3.18,0,0,1,1-1.95,3.27,3.27,0,0,1,2.11-.61,3,3,0,0,1,1.68.41,1.67,1.67,0,0,1,.77,1,7,7,0,0,1,.16,1.74v1.87a23.12,23.12,0,0,0,.08,2.48,3.67,3.67,0,0,0,.29,1h-1.2A3.63,3.63,0,0,1,232.2,338.22Zm-.09-3.14a7.34,7.34,0,0,1-1.88.54,3.33,3.33,0,0,0-1,.28,1.21,1.21,0,0,0-.45.45,1.37,1.37,0,0,0-.16.68,1.26,1.26,0,0,0,.37,1,1.37,1.37,0,0,0,1,.35,2,2,0,0,0,1.12-.32,2,2,0,0,0,.76-.85,3.78,3.78,0,0,0,.25-1.56Z"/><path class="cls-4" d="M237.63,338l.16,1.24a3.21,3.21,0,0,1-.86.13,1.76,1.76,0,0,1-1-.24,1.19,1.19,0,0,1-.5-.65,6.39,6.39,0,0,1-.14-1.65V332h-.84V331h.84V328.9l1.15-.85V331h1.16V332h-1.16v4.86a2.23,2.23,0,0,0,.1.86.56.56,0,0,0,.55.28A2.7,2.7,0,0,0,237.63,338Z"/><path class="cls-4" d="M241.28,338l.16,1.24a3.21,3.21,0,0,1-.86.13,1.74,1.74,0,0,1-1-.24,1.26,1.26,0,0,1-.51-.65,6.54,6.54,0,0,1-.13-1.65V332h-.85V331H239V328.9l1.15-.85V331h1.16V332h-1.16v4.86a2.23,2.23,0,0,0,.1.86.56.56,0,0,0,.55.28A2.7,2.7,0,0,0,241.28,338Z"/><path class="cls-4" d="M247,336.58l1.19.18a3.61,3.61,0,0,1-1.07,2,2.84,2.84,0,0,1-1.93.68,2.89,2.89,0,0,1-2.34-1.1,5,5,0,0,1-.89-3.17,5.19,5.19,0,0,1,.9-3.28,2.81,2.81,0,0,1,2.29-1.13,2.71,2.71,0,0,1,2.2,1.11,5.05,5.05,0,0,1,.88,3.21v.38h-5.07a3.6,3.6,0,0,0,.64,2.11,1.78,1.78,0,0,0,1.41.71C246.07,338.28,246.68,337.71,247,336.58Zm-3.78-2.28H247a3.11,3.11,0,0,0-.46-1.61,1.68,1.68,0,0,0-1.41-.77,1.66,1.66,0,0,0-1.32.64A2.76,2.76,0,0,0,243.23,334.3Z"/><path class="cls-4" d="M249.66,339.25V331h1v1.26a3.67,3.67,0,0,1,.73-1.16,1.12,1.12,0,0,1,.75-.29,2,2,0,0,1,1.18.46l-.39,1.3a1.49,1.49,0,0,0-.84-.3,1,1,0,0,0-.67.25,1.45,1.45,0,0,0-.43.72,6.36,6.36,0,0,0-.22,1.71v4.35Z"/><path class="cls-4" d="M257.68,339.25V327.79h1.15v4.11a2.73,2.73,0,0,1,.92-.85,2.25,2.25,0,0,1,1.12-.29,2.18,2.18,0,0,1,1.72.7,3.8,3.8,0,0,1,.63,2.53v5.26h-1.15V334a2.52,2.52,0,0,0-.38-1.55,1.31,1.31,0,0,0-1.06-.47,1.64,1.64,0,0,0-1.28.61,3.28,3.28,0,0,0-.52,2.13v4.54Z"/><path class="cls-4" d="M264.54,335.1a5,5,0,0,1,.9-3.24,2.91,2.91,0,0,1,4.56,0,4.79,4.79,0,0,1,.91,3.15,5.17,5.17,0,0,1-.9,3.33,2.91,2.91,0,0,1-4.56,0A5,5,0,0,1,264.54,335.1Zm1.18,0a4,4,0,0,0,.58,2.39,1.75,1.75,0,0,0,1.46.79,1.71,1.71,0,0,0,1.39-.79,4,4,0,0,0,.58-2.39,4,4,0,0,0-.58-2.39,1.75,1.75,0,0,0-1.46-.79,1.67,1.67,0,0,0-1.39.79A4,4,0,0,0,265.72,335.1Z"/><path class="cls-4" d="M273.53,339.25l-2.09-8.3h1.19l1.08,4.79.4,1.78.36-1.71,1.08-4.86h1.19l1,4.81.35,1.59.39-1.6,1.16-4.8h1.12l-2.12,8.3h-1.2l-1.09-5-.26-1.41-1.37,6.38Z"/><path class="cls-4" d="M285.39,339.25V331h1v1.17a2.76,2.76,0,0,1,.91-1,2.39,2.39,0,0,1,1.25-.34,2.29,2.29,0,0,1,1,.22,2.05,2.05,0,0,1,.75.56,2.21,2.21,0,0,1,.42.9,7.23,7.23,0,0,1,.14,1.71v5.1h-1.15V334.2a4.34,4.34,0,0,0-.15-1.34,1.36,1.36,0,0,0-.49-.65,1.28,1.28,0,0,0-.77-.24,1.61,1.61,0,0,0-1.32.62,3.46,3.46,0,0,0-.49,2.12v4.54Z"/><path class="cls-4" d="M297.33,336.58l1.19.18a3.61,3.61,0,0,1-1.07,2,2.84,2.84,0,0,1-1.93.68,2.89,2.89,0,0,1-2.34-1.1,5,5,0,0,1-.89-3.17,5.19,5.19,0,0,1,.9-3.28,2.81,2.81,0,0,1,2.29-1.13,2.71,2.71,0,0,1,2.2,1.11,5.05,5.05,0,0,1,.88,3.21v.38h-5.07a3.6,3.6,0,0,0,.64,2.11,1.78,1.78,0,0,0,1.41.71C296.39,338.28,297,337.71,297.33,336.58Zm-3.78-2.28h3.79a3.11,3.11,0,0,0-.46-1.61,1.68,1.68,0,0,0-1.41-.77,1.66,1.66,0,0,0-1.32.64A2.76,2.76,0,0,0,293.55,334.3Z"/><path class="cls-4" d="M301.24,339.25l-2.09-8.3h1.19l1.08,4.79.4,1.78.36-1.71,1.08-4.86h1.19l1,4.81.35,1.59.39-1.6,1.16-4.8h1.12l-2.12,8.3h-1.2l-1.09-5-.25-1.41-1.38,6.38Z"/><path class="cls-4" d="M201.16,357.19l.16,1.24a3.21,3.21,0,0,1-.86.13,1.76,1.76,0,0,1-1-.24,1.24,1.24,0,0,1-.5-.65,6.39,6.39,0,0,1-.14-1.65v-4.77H198v-1.1h.84v-2l1.15-.85v2.9h1.16v1.1H200v4.85a2.23,2.23,0,0,0,.1.86.57.57,0,0,0,.56.29A2.67,2.67,0,0,0,201.16,357.19Z"/><path class="cls-4" d="M202.25,358.45V347h1.15v4.1a2.73,2.73,0,0,1,.92-.85,2.25,2.25,0,0,1,1.12-.29,2.18,2.18,0,0,1,1.72.7,3.8,3.8,0,0,1,.63,2.53v5.26h-1.15v-5.26a2.52,2.52,0,0,0-.38-1.55,1.31,1.31,0,0,0-1.06-.47,1.67,1.67,0,0,0-1.28.61,3.28,3.28,0,0,0-.52,2.13v4.54Z"/><path class="cls-4" d="M214.19,355.78l1.19.18a3.61,3.61,0,0,1-1.07,2,2.84,2.84,0,0,1-1.93.68,2.89,2.89,0,0,1-2.34-1.1,5,5,0,0,1-.89-3.17,5.19,5.19,0,0,1,.9-3.28,2.8,2.8,0,0,1,2.28-1.13,2.72,2.72,0,0,1,2.21,1.11,5.05,5.05,0,0,1,.88,3.21v.38h-5.08a3.67,3.67,0,0,0,.65,2.11,1.78,1.78,0,0,0,1.41.71C213.25,357.48,213.86,356.91,214.19,355.78Zm-3.78-2.28h3.79a3.11,3.11,0,0,0-.46-1.61,1.68,1.68,0,0,0-1.41-.77,1.66,1.66,0,0,0-1.32.64A2.76,2.76,0,0,0,210.41,353.5Z"/><path class="cls-4" d="M220.5,358.45v-8.3h1v1.16a2.69,2.69,0,0,1,.88-1,2.15,2.15,0,0,1,1.18-.35,2,2,0,0,1,1.21.37,2,2,0,0,1,.71,1.08,3.14,3.14,0,0,1,.93-1.08,2,2,0,0,1,1.18-.37,1.92,1.92,0,0,1,1.54.67,3.22,3.22,0,0,1,.57,2.12v5.7h-1.15v-5.23a4.55,4.55,0,0,0-.13-1.27,1.17,1.17,0,0,0-.42-.57,1.1,1.1,0,0,0-.65-.21,1.47,1.47,0,0,0-1.22.6,2.91,2.91,0,0,0-.47,1.85v4.83h-1.15v-5.4a2.48,2.48,0,0,0-.32-1.45,1,1,0,0,0-.87-.43,1.48,1.48,0,0,0-1.25.64,4.31,4.31,0,0,0-.45,2.33v4.31Z"/><path class="cls-4" d="M236.07,355.78l1.19.18a3.62,3.62,0,0,1-1.08,2,2.83,2.83,0,0,1-1.92.68,2.86,2.86,0,0,1-2.34-1.1,4.89,4.89,0,0,1-.9-3.17,5.19,5.19,0,0,1,.9-3.28,2.84,2.84,0,0,1,2.29-1.13,2.71,2.71,0,0,1,2.2,1.11,5.05,5.05,0,0,1,.89,3.21v.38h-5.08a3.6,3.6,0,0,0,.65,2.11,1.75,1.75,0,0,0,1.4.71C235.13,357.48,235.73,356.91,236.07,355.78Zm-3.79-2.28h3.8a3.21,3.21,0,0,0-.46-1.61,1.69,1.69,0,0,0-2.74-.13A2.88,2.88,0,0,0,232.28,353.5Z"/><path class="cls-4" d="M243.12,358.45V357.4a2.26,2.26,0,0,1-.8.92,1.94,1.94,0,0,1-1.06.32,2.6,2.6,0,0,1-2.09-1.14,5.18,5.18,0,0,1-.87-3.2,6.56,6.56,0,0,1,.39-2.4,3.22,3.22,0,0,1,1-1.46,2.35,2.35,0,0,1,1.44-.48,2,2,0,0,1,1.06.3,2.42,2.42,0,0,1,.81.84V347h1.16v11.45Zm-3.64-4.14a4.16,4.16,0,0,0,.55,2.39,1.61,1.61,0,0,0,1.31.78,1.55,1.55,0,0,0,1.27-.75,3.9,3.9,0,0,0,.54-2.27,4.66,4.66,0,0,0-.54-2.54,1.6,1.6,0,0,0-1.36-.8,1.52,1.52,0,0,0-1.25.77A4.37,4.37,0,0,0,239.48,354.31Z"/><path class="cls-4" d="M246,348.61V347h1.15v1.61Zm0,9.84v-8.3h1.15v8.3Z"/><path class="cls-4" d="M253.36,357.42a4.23,4.23,0,0,1-1.2.91,3,3,0,0,1-1.3.31,2.31,2.31,0,0,1-1.7-.64,2.37,2.37,0,0,1-.63-1.73,2.62,2.62,0,0,1,.3-1.27,2.2,2.2,0,0,1,.81-.87,4.2,4.2,0,0,1,1.56-.46,8.18,8.18,0,0,0,2.06-.5v-.35a1.85,1.85,0,0,0-.3-1.2,1.67,1.67,0,0,0-1.32-.5,1.88,1.88,0,0,0-1.21.33,2.21,2.21,0,0,0-.58,1.26l-1.13-.19a3.13,3.13,0,0,1,1-1.95,3.26,3.26,0,0,1,2.11-.61,3,3,0,0,1,1.68.41,1.71,1.71,0,0,1,.77,1,7,7,0,0,1,.16,1.74V355a24.27,24.27,0,0,0,.07,2.48,3.7,3.7,0,0,0,.3,1h-1.21A3.33,3.33,0,0,1,253.36,357.42Zm-.1-3.14a7.34,7.34,0,0,1-1.88.54,3.33,3.33,0,0,0-1,.28,1.08,1.08,0,0,0-.45.45,1.37,1.37,0,0,0-.16.68,1.29,1.29,0,0,0,.36.95,1.41,1.41,0,0,0,1,.35,2,2,0,0,0,1.12-.32,1.92,1.92,0,0,0,.75-.85,3.78,3.78,0,0,0,.25-1.56Z"/><path class="cls-4" d="M259.87,348.61V347H261v1.61Zm0,9.84v-8.3H261v8.3Z"/><path class="cls-4" d="M262.34,356l1.15-.21a2.06,2.06,0,0,0,.55,1.3,1.69,1.69,0,0,0,1.21.43,1.64,1.64,0,0,0,1.15-.37,1.23,1.23,0,0,0,.41-.94.93.93,0,0,0-.35-.77,4.64,4.64,0,0,0-1.17-.47,8.28,8.28,0,0,1-1.8-.7,2,2,0,0,1-.7-.77,2.36,2.36,0,0,1-.25-1.11,2.28,2.28,0,0,1,.68-1.72,2.58,2.58,0,0,1,1.88-.67,2.93,2.93,0,0,1,1.33.28,2,2,0,0,1,.88.73,3.15,3.15,0,0,1,.42,1.32l-1.12.19a1.35,1.35,0,0,0-1.48-1.36,1.76,1.76,0,0,0-1.12.3,1,1,0,0,0-.36.77.85.85,0,0,0,.35.72,6.55,6.55,0,0,0,1.25.5,9.14,9.14,0,0,1,1.85.72,1.89,1.89,0,0,1,.66.74A2.51,2.51,0,0,1,268,356a2.58,2.58,0,0,1-.75,1.93,2.84,2.84,0,0,1-2.06.74C263.55,358.64,262.6,357.75,262.34,356Z"/><path class="cls-4" d="M275.21,361.82a17.2,17.2,0,0,1-1.57-3.32,12.36,12.36,0,0,1-.7-4.21,14.1,14.1,0,0,1,2.27-7.49H276a25.94,25.94,0,0,0-1.21,2.85,14.5,14.5,0,0,0-.52,2.22,15.34,15.34,0,0,0-.19,2.44,16.4,16.4,0,0,0,1.92,7.51Z"/><path class="cls-4" d="M277.37,361.63V350.15h1.06v1.08a2.77,2.77,0,0,1,.86-1,2,2,0,0,1,1.1-.3,2.38,2.38,0,0,1,1.45.48,3.26,3.26,0,0,1,1,1.45,6.3,6.3,0,0,1,.39,2.34,5.23,5.23,0,0,1-.88,3.26,2.62,2.62,0,0,1-2.09,1.15,2,2,0,0,1-1-.28,2.54,2.54,0,0,1-.8-.77v4Zm1-7.28a4.15,4.15,0,0,0,.54,2.37,1.47,1.47,0,0,0,2.59,0,5.65,5.65,0,0,0,0-4.84,1.54,1.54,0,0,0-1.3-.78,1.58,1.58,0,0,0-1.27.84A4.31,4.31,0,0,0,278.41,354.35Z"/><path class="cls-4" d="M284.23,354.3a5,5,0,0,1,.9-3.24,2.91,2.91,0,0,1,4.56,0,4.79,4.79,0,0,1,.91,3.15,5.17,5.17,0,0,1-.9,3.33,2.91,2.91,0,0,1-4.56,0A5,5,0,0,1,284.23,354.3Zm1.18,0a4,4,0,0,0,.58,2.39,1.75,1.75,0,0,0,1.45.79,1.72,1.72,0,0,0,1.4-.79,4,4,0,0,0,.58-2.39,3.92,3.92,0,0,0-.59-2.39,1.74,1.74,0,0,0-1.45-.79,1.69,1.69,0,0,0-1.4.79A4.09,4.09,0,0,0,285.41,354.3Z"/><path class="cls-4" d="M291.51,356l1.15-.21a2.07,2.07,0,0,0,.56,1.3,1.65,1.65,0,0,0,1.2.43,1.62,1.62,0,0,0,1.15-.37,1.19,1.19,0,0,0,.41-.94.9.9,0,0,0-.35-.77,4.64,4.64,0,0,0-1.17-.47,8.28,8.28,0,0,1-1.8-.7,2,2,0,0,1-.7-.77,2.36,2.36,0,0,1-.25-1.11,2.31,2.31,0,0,1,.68-1.72,2.58,2.58,0,0,1,1.88-.67,2.93,2.93,0,0,1,1.33.28,2,2,0,0,1,.88.73,3.15,3.15,0,0,1,.43,1.32l-1.13.19a1.35,1.35,0,0,0-1.48-1.36,1.71,1.71,0,0,0-1.11.3.94.94,0,0,0-.37.77.87.87,0,0,0,.35.72,6.55,6.55,0,0,0,1.25.5,9.31,9.31,0,0,1,1.86.72,1.87,1.87,0,0,1,.65.74,2.51,2.51,0,0,1,.23,1.1,2.58,2.58,0,0,1-.75,1.93,2.82,2.82,0,0,1-2.06.74C292.72,358.64,291.78,357.75,291.51,356Z"/><path class="cls-4" d="M298.52,348.61V347h1.15v1.61Zm0,9.84v-8.3h1.15v8.3Z"/><path class="cls-4" d="M304,357.19l.16,1.24a3.21,3.21,0,0,1-.86.13,1.72,1.72,0,0,1-1-.24,1.21,1.21,0,0,1-.51-.65,6.54,6.54,0,0,1-.13-1.65v-4.77h-.85v-1.1h.85v-2l1.14-.85v2.9H304v1.1h-1.17v4.85a2.17,2.17,0,0,0,.11.86.56.56,0,0,0,.55.29A2.86,2.86,0,0,0,304,357.19Z"/><path class="cls-4" d="M305.08,348.61V347h1.15v1.61Zm0,9.84v-8.3h1.15v8.3Z"/><path class="cls-4" d="M309.9,358.45l-2.59-8.3h1.22l1.46,5c.17.56.32,1.12.44,1.67.1-.44.24-1,.43-1.58l1.51-5.06h1.19l-2.59,8.3Z"/><path class="cls-4" d="M319.21,355.78l1.19.18a3.62,3.62,0,0,1-1.08,2,2.83,2.83,0,0,1-1.92.68,2.86,2.86,0,0,1-2.34-1.1,4.89,4.89,0,0,1-.9-3.17,5.13,5.13,0,0,1,.91-3.28,2.8,2.8,0,0,1,2.28-1.13,2.71,2.71,0,0,1,2.2,1.11,5.05,5.05,0,0,1,.89,3.21v.38h-5.08a3.6,3.6,0,0,0,.65,2.11,1.75,1.75,0,0,0,1.41.71C318.27,357.48,318.87,356.91,319.21,355.78Zm-3.79-2.28h3.8a3.21,3.21,0,0,0-.46-1.61,1.69,1.69,0,0,0-2.74-.13A2.88,2.88,0,0,0,315.42,353.5Z"/><path class="cls-4" d="M322.31,361.82h-.83a16.4,16.4,0,0,0,1.92-7.51,16.6,16.6,0,0,0-.19-2.44,14.5,14.5,0,0,0-.52-2.22,24.1,24.1,0,0,0-1.21-2.85h.83a14.19,14.19,0,0,1,2.27,7.49,12.67,12.67,0,0,1-.68,4.15A15.62,15.62,0,0,1,322.31,361.82Z"/><path class="cls-4" d="M326.56,358.45v-1.6h1.31v1.6a3.28,3.28,0,0,1-.27,1.46,1.82,1.82,0,0,1-.8.8l-.32-.6a1.16,1.16,0,0,0,.53-.56,2.69,2.69,0,0,0,.2-1.1Z"/><path class="cls-4" d="M198.16,529.37a5,5,0,0,1,.91-3.24,2.9,2.9,0,0,1,4.55,0,4.79,4.79,0,0,1,.92,3.15,5.17,5.17,0,0,1-.9,3.33,2.92,2.92,0,0,1-4.57,0A5,5,0,0,1,198.16,529.37Zm1.18,0a4,4,0,0,0,.59,2.39,1.74,1.74,0,0,0,1.45.79,1.7,1.7,0,0,0,1.4-.79,4.11,4.11,0,0,0,.58-2.39,4,4,0,0,0-.59-2.39,1.74,1.74,0,0,0-1.45-.79,1.69,1.69,0,0,0-1.4.79A4.08,4.08,0,0,0,199.34,529.37Z"/><path class="cls-4" d="M205.9,533.52v-8.3h1v1.26a3.5,3.5,0,0,1,.73-1.16,1.12,1.12,0,0,1,.74-.29,2,2,0,0,1,1.18.46l-.39,1.3a1.43,1.43,0,0,0-.83-.3,1,1,0,0,0-.68.26,1.45,1.45,0,0,0-.43.71,6.79,6.79,0,0,0-.21,1.71v4.35Z"/><path class="cls-4" d="M209.9,533.52v-1.6h1.31v1.6a3.28,3.28,0,0,1-.27,1.46,1.87,1.87,0,0,1-.8.8l-.32-.6a1.2,1.2,0,0,0,.53-.56,2.72,2.72,0,0,0,.19-1.1Z"/><path class="cls-4" d="M198.85,32.83V21.35h1.06v1.08a2.7,2.7,0,0,1,.87-1,2,2,0,0,1,1.09-.3,2.36,2.36,0,0,1,1.45.48,3.26,3.26,0,0,1,1,1.45,6.09,6.09,0,0,1,.4,2.34,5.23,5.23,0,0,1-.89,3.26,2.59,2.59,0,0,1-2.08,1.15,1.81,1.81,0,0,1-1-.28,2.44,2.44,0,0,1-.8-.77v4Zm1.05-7.28a4.15,4.15,0,0,0,.54,2.37,1.56,1.56,0,0,0,1.3.76,1.54,1.54,0,0,0,1.28-.79,4.29,4.29,0,0,0,.56-2.44,4.26,4.26,0,0,0-.54-2.4,1.42,1.42,0,0,0-2.57.06A4.33,4.33,0,0,0,199.9,25.55Z"/><path class="cls-4" d="M210.58,28.62a4.23,4.23,0,0,1-1.2.91,3,3,0,0,1-1.3.31,2.31,2.31,0,0,1-1.7-.64,2.37,2.37,0,0,1-.63-1.73,2.62,2.62,0,0,1,.3-1.27,2.27,2.27,0,0,1,.81-.87,4.2,4.2,0,0,1,1.56-.46,8.74,8.74,0,0,0,2.06-.49V24a1.85,1.85,0,0,0-.3-1.2,1.67,1.67,0,0,0-1.32-.5,1.88,1.88,0,0,0-1.21.33,2.21,2.21,0,0,0-.58,1.26L206,23.72a3.13,3.13,0,0,1,1-1.95,3.26,3.26,0,0,1,2.11-.61,3,3,0,0,1,1.68.41,1.75,1.75,0,0,1,.77,1,7.53,7.53,0,0,1,.16,1.74v1.87a24.27,24.27,0,0,0,.07,2.48,3.6,3.6,0,0,0,.3,1h-1.21A3.33,3.33,0,0,1,210.58,28.62Zm-.1-3.14a7.34,7.34,0,0,1-1.88.54,3.33,3.33,0,0,0-1,.28,1.08,1.08,0,0,0-.45.45,1.37,1.37,0,0,0-.16.68,1.27,1.27,0,0,0,.36.95,1.41,1.41,0,0,0,1,.35,2,2,0,0,0,1.12-.32,1.87,1.87,0,0,0,.75-.85,3.78,3.78,0,0,0,.25-1.56Z"/><path class="cls-4" d="M217.85,29.65v-1a2.34,2.34,0,0,1-.8.92,2,2,0,0,1-1.07.32,2.58,2.58,0,0,1-2.08-1.14,5.16,5.16,0,0,1-.88-3.2,6.56,6.56,0,0,1,.39-2.4,3.23,3.23,0,0,1,1.05-1.46,2.35,2.35,0,0,1,1.44-.48,2,2,0,0,1,1.06.3,2.71,2.71,0,0,1,.81.84V18.2h1.16V29.65Zm-3.65-4.14a4.15,4.15,0,0,0,.56,2.39,1.6,1.6,0,0,0,1.3.78,1.56,1.56,0,0,0,1.28-.75,3.9,3.9,0,0,0,.54-2.27,4.66,4.66,0,0,0-.54-2.54,1.61,1.61,0,0,0-1.36-.8,1.5,1.5,0,0,0-1.25.77A4.36,4.36,0,0,0,214.2,25.51Z"/><path class="cls-4" d="M225.15,29.65v-1a2.36,2.36,0,0,1-.81.92,1.91,1.91,0,0,1-1.06.32,2.58,2.58,0,0,1-2.08-1.14,5.1,5.1,0,0,1-.88-3.2,6.56,6.56,0,0,1,.39-2.4,3.29,3.29,0,0,1,1-1.46,2.4,2.4,0,0,1,1.45-.48,1.94,1.94,0,0,1,1.05.3,2.51,2.51,0,0,1,.81.84V18.2h1.17V29.65Zm-3.65-4.14a4.15,4.15,0,0,0,.56,2.39,1.6,1.6,0,0,0,1.3.78,1.53,1.53,0,0,0,1.27-.75,3.9,3.9,0,0,0,.54-2.27,4.66,4.66,0,0,0-.54-2.54,1.59,1.59,0,0,0-1.36-.8,1.52,1.52,0,0,0-1.25.77A4.37,4.37,0,0,0,221.5,25.51Z"/><path class="cls-4" d="M228,19.81V18.2h1.15v1.61Zm0,9.84v-8.3h1.15v8.3Z"/><path class="cls-4" d="M231,29.65v-8.3h1v1.17a2.78,2.78,0,0,1,.92-1,2.33,2.33,0,0,1,1.24-.34,2.41,2.41,0,0,1,1,.22,2.05,2.05,0,0,1,.75.56,2.36,2.36,0,0,1,.43.9,7.81,7.81,0,0,1,.14,1.71v5.1h-1.15v-5a4,4,0,0,0-.16-1.34,1.3,1.3,0,0,0-1.26-.88,1.6,1.6,0,0,0-1.32.61,3.53,3.53,0,0,0-.49,2.12v4.54Z"/><path class="cls-4" d="M238,30.34l1.13.2a1.43,1.43,0,0,0,.47,1,1.62,1.62,0,0,0,1.08.33,1.88,1.88,0,0,0,1.21-.36,1.91,1.91,0,0,0,.61-1.09,10,10,0,0,0,.1-1.84,2.58,2.58,0,0,1-.84.81,2,2,0,0,1-1,.27,2.47,2.47,0,0,1-2-1,5,5,0,0,1-.92-3.18,6.23,6.23,0,0,1,.4-2.34,3.26,3.26,0,0,1,1.07-1.47,2.51,2.51,0,0,1,1.48-.47,2.09,2.09,0,0,1,1.1.3,2.84,2.84,0,0,1,.88.88v-1h1.06v7.17a8.64,8.64,0,0,1-.31,2.73,2.59,2.59,0,0,1-1,1.29,3,3,0,0,1-1.71.48,2.72,2.72,0,0,1-2-.72A2.61,2.61,0,0,1,238,30.34Zm1-5a4.16,4.16,0,0,0,.54,2.39,1.59,1.59,0,0,0,1.32.75,1.61,1.61,0,0,0,1.33-.73,4,4,0,0,0,.55-2.35,4,4,0,0,0-.56-2.33,1.7,1.7,0,0,0-1.37-.76,1.56,1.56,0,0,0-1.27.76A3.94,3.94,0,0,0,239,25.35Z"/><path class="cls-4" d="M22.22,281.77V279H18.15v-1.29l4.28-7.42h.95v7.42h1.27V279H23.38v2.74Zm0-4v-5.16l-2.93,5.16Z"/><path class="cls-4" d="M31.8,273.12l-1.15.11a2.8,2.8,0,0,0-.48-1.26,1.42,1.42,0,0,0-1.11-.54,1.82,1.82,0,0,0-1.61,1.25,7.54,7.54,0,0,0-.53,3.19,2.87,2.87,0,0,1,1-1.14,2.28,2.28,0,0,1,1.27-.39,2.48,2.48,0,0,1,1.95,1,4.13,4.13,0,0,1,.83,2.7,5,5,0,0,1-.42,2.08,3.08,3.08,0,0,1-1.07,1.38A2.51,2.51,0,0,1,29,282a2.78,2.78,0,0,1-2.34-1.28,7.51,7.51,0,0,1-.92-4.28,8.86,8.86,0,0,1,.94-4.73,2.83,2.83,0,0,1,2.42-1.41,2.44,2.44,0,0,1,1.79.73A3.51,3.51,0,0,1,31.8,273.12Zm-4.71,4.94a3.17,3.17,0,0,0,.59,2,1.69,1.69,0,0,0,1.36.75,1.49,1.49,0,0,0,1.21-.71,3.14,3.14,0,0,0,.54-2,3,3,0,0,0-.53-1.89,1.61,1.61,0,0,0-1.3-.67,1.69,1.69,0,0,0-1.31.66A2.76,2.76,0,0,0,27.09,278.06Z"/><path class="cls-4" d="M919.1,536.7V525.22h1.06v1.08a2.7,2.7,0,0,1,.87-1,2,2,0,0,1,1.09-.3,2.36,2.36,0,0,1,1.45.48,3.26,3.26,0,0,1,1,1.45,6.09,6.09,0,0,1,.4,2.34,5.23,5.23,0,0,1-.89,3.26,2.59,2.59,0,0,1-2.08,1.15,1.81,1.81,0,0,1-1-.28,2.44,2.44,0,0,1-.8-.77v4Zm1-7.28a4.15,4.15,0,0,0,.54,2.37,1.56,1.56,0,0,0,1.3.76,1.54,1.54,0,0,0,1.28-.79,5.6,5.6,0,0,0,0-4.84,1.42,1.42,0,0,0-2.57.06A4.33,4.33,0,0,0,920.15,529.42Z"/><path class="cls-4" d="M930.85,533.52V532.3a2.86,2.86,0,0,1-.94,1.05,2.13,2.13,0,0,1-1.21.36,2.21,2.21,0,0,1-1.38-.44,2.06,2.06,0,0,1-.76-1.1,6.66,6.66,0,0,1-.19-1.81v-5.14h1.15v4.6a7.82,7.82,0,0,0,.12,1.72,1.32,1.32,0,0,0,.48.69,1.26,1.26,0,0,0,.79.27,1.65,1.65,0,0,0,1.36-.68,3.64,3.64,0,0,0,.46-2.15v-4.45h1.15v8.3Z"/><path class="cls-4" d="M936.26,532.26l.15,1.24a3.1,3.1,0,0,1-.86.13,1.71,1.71,0,0,1-1-.24,1.21,1.21,0,0,1-.51-.65,6.54,6.54,0,0,1-.13-1.65v-4.77h-.85v-1.1H934v-2.05l1.14-.85v2.9h1.17v1.1h-1.17v4.85a2.14,2.14,0,0,0,.11.86.56.56,0,0,0,.55.29A2.86,2.86,0,0,0,936.26,532.26Z"/><path class="cls-4" d="M943.55,532.26l.16,1.24a3.15,3.15,0,0,1-.86.13,1.76,1.76,0,0,1-1-.24,1.24,1.24,0,0,1-.5-.65,6.39,6.39,0,0,1-.14-1.65v-4.77h-.84v-1.1h.84v-2.05l1.15-.85v2.9h1.16v1.1h-1.16v4.85a2.2,2.2,0,0,0,.1.86.58.58,0,0,0,.56.29A2.67,2.67,0,0,0,943.55,532.26Z"/><path class="cls-4" d="M944.64,533.52V522.07h1.15v4.1a2.82,2.82,0,0,1,.92-.85,2.26,2.26,0,0,1,1.13-.29,2.17,2.17,0,0,1,1.71.7,3.8,3.8,0,0,1,.63,2.53v5.26H949v-5.26a2.52,2.52,0,0,0-.38-1.55,1.3,1.3,0,0,0-1.06-.46,1.62,1.62,0,0,0-1.27.6,3.22,3.22,0,0,0-.53,2.13v4.54Z"/><path class="cls-4" d="M951.94,523.68v-1.61h1.15v1.61Zm0,9.84v-8.3h1.15v8.3Z"/><path class="cls-4" d="M954.85,533.52v-8.3h1v1.17a2.78,2.78,0,0,1,.92-1,2.33,2.33,0,0,1,1.24-.34,2.41,2.41,0,0,1,1,.22,2.05,2.05,0,0,1,.75.56,2.21,2.21,0,0,1,.42.9,7.11,7.11,0,0,1,.15,1.71v5.1h-1.15v-5a4.28,4.28,0,0,0-.16-1.34,1.3,1.3,0,0,0-.49-.65,1.27,1.27,0,0,0-.77-.23,1.6,1.6,0,0,0-1.32.61A3.46,3.46,0,0,0,956,529v4.54Z"/><path class="cls-4" d="M961.92,534.21l1.13.2a1.39,1.39,0,0,0,.47,1,1.62,1.62,0,0,0,1.08.33,1.88,1.88,0,0,0,1.21-.36,1.91,1.91,0,0,0,.61-1.09,10,10,0,0,0,.1-1.84,2.68,2.68,0,0,1-.84.81,2,2,0,0,1-1,.27,2.47,2.47,0,0,1-2-1,5,5,0,0,1-.92-3.18,6.23,6.23,0,0,1,.4-2.34,3.26,3.26,0,0,1,1.07-1.47,2.51,2.51,0,0,1,1.48-.47,2.09,2.09,0,0,1,1.1.3,2.71,2.71,0,0,1,.87.88v-1h1.07v7.17a8.64,8.64,0,0,1-.31,2.73,2.59,2.59,0,0,1-1,1.29,3,3,0,0,1-1.71.48,2.72,2.72,0,0,1-2-.72A2.61,2.61,0,0,1,961.92,534.21Zm1-5a4.08,4.08,0,0,0,.54,2.39,1.59,1.59,0,0,0,1.32.75,1.62,1.62,0,0,0,1.33-.73,4,4,0,0,0,.55-2.35,3.9,3.9,0,0,0-.57-2.33,1.67,1.67,0,0,0-1.37-.76,1.56,1.56,0,0,0-1.26.76A3.94,3.94,0,0,0,962.88,529.22Z"/><path class="cls-4" d="M969,531l1.15-.21a2.06,2.06,0,0,0,.55,1.3,1.94,1.94,0,0,0,2.36.06,1.23,1.23,0,0,0,.41-.94.93.93,0,0,0-.35-.77A4.64,4.64,0,0,0,972,530a8.28,8.28,0,0,1-1.8-.7,1.93,1.93,0,0,1-.7-.77,2.36,2.36,0,0,1-.25-1.11,2.28,2.28,0,0,1,.68-1.72,2.58,2.58,0,0,1,1.88-.67,3,3,0,0,1,1.33.28,2.06,2.06,0,0,1,.88.73,3.3,3.3,0,0,1,.42,1.32l-1.12.19a1.35,1.35,0,0,0-1.48-1.36,1.76,1.76,0,0,0-1.12.3,1,1,0,0,0-.37.77.86.86,0,0,0,.36.72,6.25,6.25,0,0,0,1.25.5,9.4,9.4,0,0,1,1.85.72,1.89,1.89,0,0,1,.66.74,2.51,2.51,0,0,1,.23,1.1,2.55,2.55,0,0,1-.76,1.93,2.8,2.8,0,0,1-2,.74C970.21,533.71,969.26,532.82,969,531Z"/><path class="cls-4" d="M979.66,523.68v-1.61h1.14v1.61Zm0,9.84v-8.3h1.14v8.3Z"/><path class="cls-4" d="M982.57,533.52v-8.3h1v1.17a2.7,2.7,0,0,1,.92-1,2.33,2.33,0,0,1,1.24-.34,2.44,2.44,0,0,1,1,.22,2.05,2.05,0,0,1,.75.56,2.21,2.21,0,0,1,.42.9,7.23,7.23,0,0,1,.14,1.71v5.1H987v-5a4.28,4.28,0,0,0-.16-1.34,1.36,1.36,0,0,0-.49-.65,1.27,1.27,0,0,0-.77-.23,1.6,1.6,0,0,0-1.32.61,3.46,3.46,0,0,0-.49,2.12v4.54Z"/><path class="cls-4" d="M996.08,532.26l.15,1.24a3.09,3.09,0,0,1-.85.13,1.72,1.72,0,0,1-1-.24,1.21,1.21,0,0,1-.51-.65,6.54,6.54,0,0,1-.13-1.65v-4.77h-.85v-1.1h.85v-2.05l1.14-.85v2.9h1.17v1.1h-1.17v4.85a2.14,2.14,0,0,0,.11.86.56.56,0,0,0,.55.29A2.86,2.86,0,0,0,996.08,532.26Z"/><path class="cls-4" d="M997.16,533.52V522.07h1.15v4.1a2.82,2.82,0,0,1,.92-.85,2.29,2.29,0,0,1,1.13-.29,2.16,2.16,0,0,1,1.71.7,3.8,3.8,0,0,1,.63,2.53v5.26h-1.15v-5.26a2.45,2.45,0,0,0-.38-1.55,1.27,1.27,0,0,0-1-.46,1.64,1.64,0,0,0-1.28.6,3.28,3.28,0,0,0-.53,2.13v4.54Z"/><path class="cls-4" d="M1009.11,530.85l1.19.18a3.62,3.62,0,0,1-1.08,2,2.83,2.83,0,0,1-1.92.68,2.86,2.86,0,0,1-2.34-1.1,4.89,4.89,0,0,1-.9-3.17,5.19,5.19,0,0,1,.9-3.28,2.84,2.84,0,0,1,2.29-1.13,2.71,2.71,0,0,1,2.2,1.11,5.05,5.05,0,0,1,.89,3.21v.38h-5.08a3.57,3.57,0,0,0,.65,2.11,1.75,1.75,0,0,0,1.4.71C1008.17,532.55,1008.77,532,1009.11,530.85Zm-3.79-2.28h3.8a3.21,3.21,0,0,0-.46-1.61,1.69,1.69,0,0,0-1.42-.77,1.72,1.72,0,0,0-1.32.64A2.88,2.88,0,0,0,1005.32,528.57Z"/><path class="cls-4" d="M1011.76,523.68v-1.61h1.15v1.61Zm0,9.84v-8.3h1.15v8.3Z"/><path class="cls-4" d="M1014.67,533.52v-8.3h1v1.26a3.67,3.67,0,0,1,.73-1.16,1.12,1.12,0,0,1,.75-.29,2,2,0,0,1,1.18.46l-.39,1.3a1.49,1.49,0,0,0-.84-.3,1,1,0,0,0-.67.26,1.38,1.38,0,0,0-.43.71,6.36,6.36,0,0,0-.22,1.71v4.35Z"/><path class="cls-4" d="M1022.69,536.7V525.22h1.06v1.08a2.7,2.7,0,0,1,.87-1,2,2,0,0,1,1.09-.3,2.38,2.38,0,0,1,1.45.48,3.26,3.26,0,0,1,1,1.45,6.3,6.3,0,0,1,.39,2.34,5.23,5.23,0,0,1-.88,3.26,2.61,2.61,0,0,1-2.09,1.15,1.86,1.86,0,0,1-1-.28,2.51,2.51,0,0,1-.79-.77v4Zm1-7.28a4.24,4.24,0,0,0,.53,2.37,1.47,1.47,0,0,0,2.59,0,4.3,4.3,0,0,0,.55-2.44,4.35,4.35,0,0,0-.53-2.4,1.43,1.43,0,0,0-2.58.06A4.42,4.42,0,0,0,1023.74,529.42Z"/><path class="cls-4" d="M1030,533.52V522.07h1.14v11.45Z"/><path class="cls-4" d="M1037.33,532.5a4.27,4.27,0,0,1-1.21.9,2.92,2.92,0,0,1-1.29.31,2.31,2.31,0,0,1-1.7-.64,2.37,2.37,0,0,1-.63-1.73,2.62,2.62,0,0,1,.3-1.27,2.27,2.27,0,0,1,.81-.87,4.2,4.2,0,0,1,1.56-.46,8.74,8.74,0,0,0,2.06-.49v-.36a1.85,1.85,0,0,0-.3-1.2,1.67,1.67,0,0,0-1.32-.5,1.88,1.88,0,0,0-1.21.33,2.21,2.21,0,0,0-.58,1.26l-1.13-.19a3.13,3.13,0,0,1,1-2,3.26,3.26,0,0,1,2.11-.61,3,3,0,0,1,1.68.41,1.74,1.74,0,0,1,.77,1,7.53,7.53,0,0,1,.16,1.74V530a24.27,24.27,0,0,0,.07,2.48,3.6,3.6,0,0,0,.3,1h-1.21A3.33,3.33,0,0,1,1037.33,532.5Zm-.1-3.15a7.34,7.34,0,0,1-1.88.54,3.33,3.33,0,0,0-1,.28,1.08,1.08,0,0,0-.45.45,1.37,1.37,0,0,0-.16.68,1.27,1.27,0,0,0,.36,1,1.41,1.41,0,0,0,1,.35,2,2,0,0,0,1.12-.32,1.87,1.87,0,0,0,.75-.85,3.78,3.78,0,0,0,.25-1.56Z"/><path class="cls-4" d="M1044.65,530.48l1.13.18a3.79,3.79,0,0,1-1,2.26,2.55,2.55,0,0,1-1.89.79,2.7,2.7,0,0,1-2.2-1.1,5.23,5.23,0,0,1-.86-3.25,5.09,5.09,0,0,1,.87-3.24A2.73,2.73,0,0,1,1043,525a2.55,2.55,0,0,1,1.78.66,3.2,3.2,0,0,1,.92,2l-1.11.2a2.39,2.39,0,0,0-.57-1.25,1.32,1.32,0,0,0-1-.42,1.69,1.69,0,0,0-1.41.75,4.12,4.12,0,0,0-.56,2.4,4.29,4.29,0,0,0,.54,2.45,1.59,1.59,0,0,0,1.37.76,1.48,1.48,0,0,0,1.12-.5A2.74,2.74,0,0,0,1044.65,530.48Z"/><path class="cls-4" d="M1051.41,530.85l1.18.18a3.55,3.55,0,0,1-1.07,2,2.84,2.84,0,0,1-1.93.68,2.89,2.89,0,0,1-2.34-1.1,5,5,0,0,1-.89-3.17,5.19,5.19,0,0,1,.9-3.28,2.81,2.81,0,0,1,2.29-1.13,2.71,2.71,0,0,1,2.2,1.11,5.05,5.05,0,0,1,.88,3.21v.38h-5.07a3.5,3.5,0,0,0,.65,2.11,1.75,1.75,0,0,0,1.4.71C1050.47,532.55,1051.07,532,1051.41,530.85Zm-3.79-2.28h3.79A3.11,3.11,0,0,0,1051,527a1.68,1.68,0,0,0-2.73-.13A2.76,2.76,0,0,0,1047.62,528.57Z"/><path class="cls-4" d="M918.66,548.57a5,5,0,0,1,.91-3.24,2.9,2.9,0,0,1,4.55,0,4.79,4.79,0,0,1,.92,3.15,5.17,5.17,0,0,1-.9,3.33,2.92,2.92,0,0,1-4.57,0A5,5,0,0,1,918.66,548.57Zm1.18,0a4,4,0,0,0,.59,2.39,1.74,1.74,0,0,0,1.45.79,1.7,1.7,0,0,0,1.4-.79,4,4,0,0,0,.58-2.39,4,4,0,0,0-.59-2.39,1.74,1.74,0,0,0-1.45-.79,1.69,1.69,0,0,0-1.4.79A4.08,4.08,0,0,0,919.84,548.57Z"/><path class="cls-4" d="M926.72,552.72v-7.2h-1v-1.1h1v-.88a4.2,4.2,0,0,1,.2-1.47,1.62,1.62,0,0,1,.62-.74,2,2,0,0,1,1.06-.26,4.37,4.37,0,0,1,1.08.15l-.17,1.22a3.39,3.39,0,0,0-.68-.08.9.9,0,0,0-.74.27,1.69,1.69,0,0,0-.22,1v.76h1.33v1.1h-1.33v7.2Z"/><path class="cls-4" d="M936.26,551.46l.15,1.24a3.1,3.1,0,0,1-.86.13,1.71,1.71,0,0,1-1-.24,1.21,1.21,0,0,1-.51-.65,6.54,6.54,0,0,1-.13-1.65v-4.77h-.85v-1.1H934v-2l1.14-.85v2.9h1.17v1.1h-1.17v4.85a2.14,2.14,0,0,0,.11.86.56.56,0,0,0,.55.29A2.86,2.86,0,0,0,936.26,551.46Z"/><path class="cls-4" d="M942,550.05l1.19.18a3.67,3.67,0,0,1-1.07,2,2.84,2.84,0,0,1-1.93.68,2.89,2.89,0,0,1-2.34-1.1,4.89,4.89,0,0,1-.89-3.17,5.19,5.19,0,0,1,.9-3.28,2.8,2.8,0,0,1,2.28-1.13,2.72,2.72,0,0,1,2.21,1.11,5.11,5.11,0,0,1,.88,3.21v.38h-5.08a3.64,3.64,0,0,0,.65,2.11,1.78,1.78,0,0,0,1.41.71C941.05,551.75,941.65,551.18,942,550.05Zm-3.79-2.28H942a3.21,3.21,0,0,0-.46-1.61,1.68,1.68,0,0,0-2.74-.12A2.83,2.83,0,0,0,938.2,547.77Z"/><path class="cls-4" d="M944.64,552.72v-8.3h1v1.17a2.7,2.7,0,0,1,.92-1,2.33,2.33,0,0,1,1.24-.34,2.44,2.44,0,0,1,1,.22,2.05,2.05,0,0,1,.75.56,2.21,2.21,0,0,1,.42.9,7.23,7.23,0,0,1,.14,1.71v5.1H949v-5.05a4.28,4.28,0,0,0-.16-1.34,1.36,1.36,0,0,0-.49-.65,1.27,1.27,0,0,0-.77-.23,1.6,1.6,0,0,0-1.32.61,3.46,3.46,0,0,0-.49,2.12v4.54Z"/><path class="cls-4" d="M951.49,550.23l1.15-.21a2.06,2.06,0,0,0,.55,1.3,1.68,1.68,0,0,0,1.2.43,1.65,1.65,0,0,0,1.16-.37,1.23,1.23,0,0,0,.41-.94.93.93,0,0,0-.35-.77,4.64,4.64,0,0,0-1.17-.47,8.28,8.28,0,0,1-1.8-.7,1.93,1.93,0,0,1-.7-.77,2.36,2.36,0,0,1-.25-1.11,2.28,2.28,0,0,1,.68-1.72,2.58,2.58,0,0,1,1.88-.67,3.1,3.1,0,0,1,1.33.28,2.06,2.06,0,0,1,.88.73,3.3,3.3,0,0,1,.42,1.32l-1.12.19a1.35,1.35,0,0,0-1.48-1.36,1.76,1.76,0,0,0-1.12.3,1,1,0,0,0-.36.77.85.85,0,0,0,.35.72,6.55,6.55,0,0,0,1.25.5,9.14,9.14,0,0,1,1.85.72,1.89,1.89,0,0,1,.66.74,2.53,2.53,0,0,1,.23,1.11,2.57,2.57,0,0,1-.75,1.92,2.84,2.84,0,0,1-2.06.74C952.7,552.91,951.75,552,951.49,550.23Z"/><path class="cls-4" d="M958.5,542.88v-1.61h1.15v1.61Zm0,9.84v-8.3h1.15v8.3Z"/><path class="cls-4" d="M961,548.57a5,5,0,0,1,.9-3.24,2.91,2.91,0,0,1,4.56,0,4.79,4.79,0,0,1,.91,3.15,5.17,5.17,0,0,1-.9,3.33,2.91,2.91,0,0,1-4.56,0A5,5,0,0,1,961,548.57Zm1.18,0a4,4,0,0,0,.58,2.39,1.75,1.75,0,0,0,1.46.79,1.69,1.69,0,0,0,1.39-.79,4,4,0,0,0,.58-2.39,4,4,0,0,0-.58-2.39,1.75,1.75,0,0,0-1.46-.79,1.7,1.7,0,0,0-1.4.79A4.09,4.09,0,0,0,962.16,548.57Z"/><path class="cls-4" d="M968.71,552.72v-8.3h1v1.17a2.7,2.7,0,0,1,.92-1,2.33,2.33,0,0,1,1.24-.34,2.44,2.44,0,0,1,1,.22,2.05,2.05,0,0,1,.75.56,2.21,2.21,0,0,1,.42.9,7.23,7.23,0,0,1,.14,1.71v5.1h-1.14v-5.05a4.28,4.28,0,0,0-.16-1.34,1.3,1.3,0,0,0-.49-.65,1.27,1.27,0,0,0-.77-.23,1.6,1.6,0,0,0-1.32.61,3.46,3.46,0,0,0-.49,2.12v4.54Z"/><path class="cls-4" d="M981.87,556.09a16.09,16.09,0,0,1-1.57-3.32,12.36,12.36,0,0,1-.71-4.21,14.12,14.12,0,0,1,2.28-7.49h.83a24.1,24.1,0,0,0-1.21,2.85,14.47,14.47,0,0,0-.53,2.22,16.6,16.6,0,0,0-.19,2.44,16.29,16.29,0,0,0,1.93,7.51Z"/><path class="cls-4" d="M984,552.72v-8.3h1v1.17a2.78,2.78,0,0,1,.92-1,2.33,2.33,0,0,1,1.24-.34,2.41,2.41,0,0,1,1,.22,2.05,2.05,0,0,1,.75.56,2.36,2.36,0,0,1,.43.9,7.81,7.81,0,0,1,.14,1.71v5.1H988.4v-5.05a4,4,0,0,0-.16-1.34,1.3,1.3,0,0,0-1.26-.88,1.6,1.6,0,0,0-1.32.61,3.53,3.53,0,0,0-.49,2.12v4.54Z"/><path class="cls-4" d="M996,550.05l1.19.18a3.62,3.62,0,0,1-1.08,2,2.83,2.83,0,0,1-1.92.68,2.86,2.86,0,0,1-2.34-1.1,4.89,4.89,0,0,1-.9-3.17,5.19,5.19,0,0,1,.9-3.28,2.84,2.84,0,0,1,2.29-1.13,2.71,2.71,0,0,1,2.2,1.11,5.05,5.05,0,0,1,.89,3.21v.38h-5.08a3.57,3.57,0,0,0,.65,2.11,1.75,1.75,0,0,0,1.4.71C995,551.75,995.63,551.18,996,550.05Zm-3.79-2.28H996a3.32,3.32,0,0,0-.46-1.61,1.68,1.68,0,0,0-2.74-.12A2.83,2.83,0,0,0,992.18,547.77Z"/><path class="cls-4" d="M998.39,553.41l1.13.2a1.43,1.43,0,0,0,.46,1,1.67,1.67,0,0,0,1.09.33,1.88,1.88,0,0,0,1.21-.36,1.91,1.91,0,0,0,.61-1.09,10,10,0,0,0,.1-1.84,2.68,2.68,0,0,1-.84.81,2,2,0,0,1-1,.27,2.45,2.45,0,0,1-2-1,5,5,0,0,1-.93-3.18,6.23,6.23,0,0,1,.41-2.34,3.26,3.26,0,0,1,1.07-1.47,2.51,2.51,0,0,1,1.48-.47,2.05,2.05,0,0,1,1.09.3,2.64,2.64,0,0,1,.88.88v-1h1.07v7.17a8.28,8.28,0,0,1-.32,2.73,2.57,2.57,0,0,1-1,1.29,3,3,0,0,1-1.71.48,2.76,2.76,0,0,1-2-.71A2.6,2.6,0,0,1,998.39,553.41Zm1-5a4.16,4.16,0,0,0,.54,2.39,1.57,1.57,0,0,0,2.66,0,4,4,0,0,0,.55-2.35,3.9,3.9,0,0,0-.57-2.33,1.67,1.67,0,0,0-1.37-.76,1.56,1.56,0,0,0-1.26.76A3.94,3.94,0,0,0,999.34,548.42Z"/><path class="cls-4" d="M1010.34,551.7a4.1,4.1,0,0,1-1.2.9,3,3,0,0,1-1.3.31,2.3,2.3,0,0,1-1.69-.64,2.37,2.37,0,0,1-.63-1.73,2.62,2.62,0,0,1,.29-1.27,2.27,2.27,0,0,1,.81-.87,4.33,4.33,0,0,1,1.57-.46,9,9,0,0,0,2.06-.49v-.36a1.78,1.78,0,0,0-.31-1.2,1.64,1.64,0,0,0-1.32-.5,1.87,1.87,0,0,0-1.2.33,2.21,2.21,0,0,0-.59,1.26l-1.13-.19a3.18,3.18,0,0,1,1-1.95,3.27,3.27,0,0,1,2.11-.61,3,3,0,0,1,1.68.41,1.7,1.7,0,0,1,.77,1,7,7,0,0,1,.16,1.74v1.87a23.12,23.12,0,0,0,.08,2.48,3.94,3.94,0,0,0,.29,1h-1.2A3.64,3.64,0,0,1,1010.34,551.7Zm-.09-3.15a7.34,7.34,0,0,1-1.88.54,3.33,3.33,0,0,0-1,.28,1.21,1.21,0,0,0-.45.45,1.51,1.51,0,0,0-.16.68,1.24,1.24,0,0,0,.37,1,1.37,1.37,0,0,0,1,.35,2,2,0,0,0,1.88-1.17,3.78,3.78,0,0,0,.25-1.56Z"/><path class="cls-4" d="M1015.77,551.46l.16,1.24a3.15,3.15,0,0,1-.86.13,1.76,1.76,0,0,1-1-.24,1.24,1.24,0,0,1-.5-.65,6.39,6.39,0,0,1-.14-1.65v-4.77h-.84v-1.1h.84v-2l1.15-.85v2.9h1.16v1.1h-1.16v4.85a2.2,2.2,0,0,0,.1.86.58.58,0,0,0,.56.29A2.67,2.67,0,0,0,1015.77,551.46Z"/><path class="cls-4" d="M1016.86,542.88v-1.61H1018v1.61Zm0,9.84v-8.3H1018v8.3Z"/><path class="cls-4" d="M1021.67,552.72l-2.58-8.3h1.21l1.47,5c.17.56.31,1.12.44,1.67.1-.44.24-1,.42-1.58l1.52-5.06h1.19l-2.59,8.3Z"/><path class="cls-4" d="M1031,550.05l1.19.18a3.61,3.61,0,0,1-1.07,2,2.84,2.84,0,0,1-1.93.68,2.89,2.89,0,0,1-2.34-1.1,5,5,0,0,1-.89-3.17,5.19,5.19,0,0,1,.9-3.28,2.8,2.8,0,0,1,2.28-1.13,2.72,2.72,0,0,1,2.21,1.11,5.05,5.05,0,0,1,.88,3.21v.38h-5.08a3.64,3.64,0,0,0,.65,2.11,1.78,1.78,0,0,0,1.41.71C1030,551.75,1030.65,551.18,1031,550.05Zm-3.78-2.28H1031a3.11,3.11,0,0,0-.46-1.61,1.68,1.68,0,0,0-1.41-.77,1.67,1.67,0,0,0-1.32.65A2.71,2.71,0,0,0,1027.2,547.77Z"/><path class="cls-4" d="M1034.09,556.09h-.83a16.51,16.51,0,0,0,1.91-7.51,15.34,15.34,0,0,0-.19-2.44,14.5,14.5,0,0,0-.52-2.22,25.48,25.48,0,0,0-1.2-2.85h.83a14.18,14.18,0,0,1,2.26,7.49,12.41,12.41,0,0,1-.68,4.15A16.1,16.1,0,0,1,1034.09,556.09Z"/><path class="cls-4" d="M1038.36,552.72v-1.6h1.31v1.6Z"/><path class="cls-4" d="M558.41,529.37a5,5,0,0,1,.91-3.24,2.91,2.91,0,0,1,4.56,0,4.85,4.85,0,0,1,.91,3.15,5.17,5.17,0,0,1-.9,3.33,2.92,2.92,0,0,1-4.57,0A5,5,0,0,1,558.41,529.37Zm1.18,0a4,4,0,0,0,.59,2.39,1.74,1.74,0,0,0,1.45.79,1.7,1.7,0,0,0,1.4-.79,4,4,0,0,0,.58-2.39A4,4,0,0,0,563,527a1.74,1.74,0,0,0-1.45-.79,1.69,1.69,0,0,0-1.4.79A4.08,4.08,0,0,0,559.59,529.37Z"/><path class="cls-4" d="M566.47,533.52v-7.2h-1v-1.1h1v-.88a4.2,4.2,0,0,1,.2-1.47,1.62,1.62,0,0,1,.62-.74,2,2,0,0,1,1.06-.26,4.37,4.37,0,0,1,1.08.15l-.17,1.22a3.39,3.39,0,0,0-.68-.08.9.9,0,0,0-.74.27,1.69,1.69,0,0,0-.22,1v.76H569v1.1h-1.33v7.2Z"/><path class="cls-4" d="M569.89,533.52v-7.2h-1v-1.1h1v-.88a3.94,3.94,0,0,1,.21-1.47,1.51,1.51,0,0,1,.62-.74,2,2,0,0,1,1-.26,4.37,4.37,0,0,1,1.08.15l-.17,1.22a3.31,3.31,0,0,0-.68-.08.92.92,0,0,0-.74.27,1.76,1.76,0,0,0-.22,1v.76h1.33v1.1H571v7.2Z"/><path class="cls-4" d="M572.78,531l1.14-.21a2.07,2.07,0,0,0,.56,1.3,1.94,1.94,0,0,0,2.36.06,1.23,1.23,0,0,0,.41-.94.91.91,0,0,0-.36-.77,4.64,4.64,0,0,0-1.17-.47,8.74,8.74,0,0,1-1.8-.7,2,2,0,0,1-.7-.77,2.36,2.36,0,0,1-.25-1.11,2.31,2.31,0,0,1,.68-1.72,2.58,2.58,0,0,1,1.88-.67,3,3,0,0,1,1.34.28,2.13,2.13,0,0,1,.88.73,3.3,3.3,0,0,1,.42,1.32l-1.13.19a1.34,1.34,0,0,0-1.47-1.36,1.74,1.74,0,0,0-1.12.3.94.94,0,0,0-.37.77.87.87,0,0,0,.35.72,6.46,6.46,0,0,0,1.26.5,9.4,9.4,0,0,1,1.85.72,1.8,1.8,0,0,1,.65.74,2.38,2.38,0,0,1,.23,1.1,2.58,2.58,0,0,1-.75,1.93,2.82,2.82,0,0,1-2.06.74C574,533.71,573,532.82,572.78,531Z"/><path class="cls-4" d="M584.43,530.85l1.19.18a3.67,3.67,0,0,1-1.07,2,2.84,2.84,0,0,1-1.93.68,2.89,2.89,0,0,1-2.34-1.1,4.89,4.89,0,0,1-.89-3.17,5.19,5.19,0,0,1,.9-3.28,2.8,2.8,0,0,1,2.28-1.13,2.72,2.72,0,0,1,2.21,1.11,5.05,5.05,0,0,1,.88,3.21v.38h-5.08a3.64,3.64,0,0,0,.65,2.11,1.78,1.78,0,0,0,1.41.71C583.49,532.55,584.09,532,584.43,530.85Zm-3.79-2.28h3.8A3.21,3.21,0,0,0,584,527a1.68,1.68,0,0,0-2.73-.13A2.82,2.82,0,0,0,580.64,528.57Z"/><path class="cls-4" d="M589.64,532.26l.16,1.24a3.15,3.15,0,0,1-.86.13,1.76,1.76,0,0,1-1-.24,1.24,1.24,0,0,1-.5-.65,6.39,6.39,0,0,1-.14-1.65v-4.77h-.84v-1.1h.84v-2.05l1.15-.85v2.9h1.16v1.1h-1.16v4.85a2.2,2.2,0,0,0,.1.86.58.58,0,0,0,.56.29A2.67,2.67,0,0,0,589.64,532.26Z"/><path class="cls-4" d="M598.81,532.5a4.27,4.27,0,0,1-1.21.9,2.92,2.92,0,0,1-1.29.31,2.31,2.31,0,0,1-1.7-.64,2.37,2.37,0,0,1-.63-1.73,2.62,2.62,0,0,1,.3-1.27,2.19,2.19,0,0,1,.81-.87,4.2,4.2,0,0,1,1.56-.46,8.74,8.74,0,0,0,2.06-.49v-.36a1.85,1.85,0,0,0-.3-1.2,1.67,1.67,0,0,0-1.32-.5,1.88,1.88,0,0,0-1.21.33,2.21,2.21,0,0,0-.58,1.26l-1.14-.19a3.19,3.19,0,0,1,1-2,3.26,3.26,0,0,1,2.11-.61,3,3,0,0,1,1.68.41,1.79,1.79,0,0,1,.77,1,7.53,7.53,0,0,1,.16,1.74V530a24.27,24.27,0,0,0,.07,2.48,3.6,3.6,0,0,0,.3,1H599A3.33,3.33,0,0,1,598.81,532.5Zm-.1-3.15a7.34,7.34,0,0,1-1.88.54,3.33,3.33,0,0,0-1,.28,1.08,1.08,0,0,0-.45.45,1.37,1.37,0,0,0-.16.68,1.27,1.27,0,0,0,.36,1,1.41,1.41,0,0,0,1,.35,2,2,0,0,0,1.12-.32,1.87,1.87,0,0,0,.75-.85,3.78,3.78,0,0,0,.25-1.56Z"/><path class="cls-4" d="M601.67,533.52v-8.3h1v1.17a2.78,2.78,0,0,1,.92-1,2.43,2.43,0,0,1,2.25-.12,2.05,2.05,0,0,1,.75.56,2.36,2.36,0,0,1,.43.9,7.81,7.81,0,0,1,.14,1.71v5.1h-1.15v-5a4,4,0,0,0-.16-1.34,1.27,1.27,0,0,0-1.25-.88,1.58,1.58,0,0,0-1.32.61,3.45,3.45,0,0,0-.5,2.12v4.54Z"/><path class="cls-4" d="M613.38,533.52v-1a2.36,2.36,0,0,1-.81.92,1.91,1.91,0,0,1-1.06.32,2.57,2.57,0,0,1-2.08-1.14,5.1,5.1,0,0,1-.88-3.2,6.56,6.56,0,0,1,.39-2.4,3.29,3.29,0,0,1,1-1.46,2.4,2.4,0,0,1,1.45-.48,1.94,1.94,0,0,1,1.05.3,2.51,2.51,0,0,1,.81.84v-4.1h1.17v11.45Zm-3.65-4.14a4.15,4.15,0,0,0,.56,2.39,1.58,1.58,0,0,0,1.3.78,1.55,1.55,0,0,0,1.27-.75,3.9,3.9,0,0,0,.54-2.27,4.66,4.66,0,0,0-.54-2.54,1.6,1.6,0,0,0-1.36-.8,1.52,1.52,0,0,0-1.25.77A4.37,4.37,0,0,0,609.73,529.38Z"/><path class="cls-4" d="M619.92,533.52V522.07h1.15v4.1a2.8,2.8,0,0,1,.91-.85,2.29,2.29,0,0,1,1.13-.29,2.18,2.18,0,0,1,1.72.7,3.8,3.8,0,0,1,.63,2.53v5.26h-1.15v-5.26a2.45,2.45,0,0,0-.39-1.55,1.27,1.27,0,0,0-1-.46,1.64,1.64,0,0,0-1.28.6,3.28,3.28,0,0,0-.52,2.13v4.54Z"/><path class="cls-4" d="M631.64,532.5a4.1,4.1,0,0,1-1.2.9,3,3,0,0,1-1.3.31,2.3,2.3,0,0,1-1.69-.64,2.37,2.37,0,0,1-.63-1.73,2.62,2.62,0,0,1,.29-1.27,2.27,2.27,0,0,1,.81-.87,4.33,4.33,0,0,1,1.57-.46,9,9,0,0,0,2.06-.49v-.36a1.78,1.78,0,0,0-.31-1.2,1.64,1.64,0,0,0-1.32-.5,1.87,1.87,0,0,0-1.2.33,2.21,2.21,0,0,0-.59,1.26l-1.13-.19a3.18,3.18,0,0,1,1-2,3.27,3.27,0,0,1,2.11-.61,3,3,0,0,1,1.68.41,1.7,1.7,0,0,1,.77,1,7,7,0,0,1,.16,1.74V530a23.12,23.12,0,0,0,.08,2.48,3.94,3.94,0,0,0,.29,1h-1.2A3.64,3.64,0,0,1,631.64,532.5Zm-.09-3.15a7.34,7.34,0,0,1-1.88.54,3.33,3.33,0,0,0-1,.28,1.21,1.21,0,0,0-.45.45,1.48,1.48,0,0,0-.16.68,1.24,1.24,0,0,0,.37,1,1.37,1.37,0,0,0,1,.35,2,2,0,0,0,1.88-1.17,3.78,3.78,0,0,0,.25-1.56Z"/><path class="cls-4" d="M639,530.48l1.14.18a3.79,3.79,0,0,1-1,2.26,2.58,2.58,0,0,1-1.89.79,2.7,2.7,0,0,1-2.2-1.1,5.23,5.23,0,0,1-.86-3.25,5.09,5.09,0,0,1,.87-3.24,2.73,2.73,0,0,1,2.24-1.09,2.52,2.52,0,0,1,1.77.66,3.21,3.21,0,0,1,.93,2l-1.12.2a2.39,2.39,0,0,0-.57-1.25,1.3,1.3,0,0,0-1-.42,1.69,1.69,0,0,0-1.41.75,4,4,0,0,0-.56,2.4,4.38,4.38,0,0,0,.53,2.45,1.62,1.62,0,0,0,1.37.76,1.48,1.48,0,0,0,1.12-.5A2.74,2.74,0,0,0,639,530.48Z"/><path class="cls-4" d="M641.1,533.52V522.07h1.15v6.54l2.73-3.39h1.5l-2.61,3.08,2.86,5.22h-1.41l-2.26-4.25-.81,1v3.29Z"/><path class="cls-4" d="M647.6,536.71l-.13-1.32a2.06,2.06,0,0,0,.66.13,1.09,1.09,0,0,0,.6-.15,1.07,1.07,0,0,0,.4-.46q.06-.1.45-1.38L647,525.22h1.24l1.42,4.8c.18.6.34,1.24.49,1.92.13-.64.29-1.27.47-1.89l1.45-4.83h1.16l-2.58,8.44a16.16,16.16,0,0,1-.8,2.19,2.07,2.07,0,0,1-.67.79,1.53,1.53,0,0,1-.84.25A1.85,1.85,0,0,1,647.6,536.71Z"/><path class="cls-4" d="M653.59,533.52v-1.6h1.31v1.6a3.28,3.28,0,0,1-.27,1.46,1.82,1.82,0,0,1-.8.8l-.32-.6a1.16,1.16,0,0,0,.53-.56,2.69,2.69,0,0,0,.2-1.1Z"/><path class="cls-4" d="M922.22,29.65V26.91h-4.07V25.62l4.28-7.42h1v7.42h1.27v1.29h-1.27v2.74Zm0-4V20.45l-2.94,5.17Z"/><path class="cls-4" d="M925.9,19.7V18.34H932v1.1a17,17,0,0,0-2.39,4.6,19.56,19.56,0,0,0-1.19,5.61h-1.18a16.86,16.86,0,0,1,.46-3.35,19.74,19.74,0,0,1,1.19-3.65,15.81,15.81,0,0,1,1.62-2.95Z"/><line class="cls-3" x1="152.57" y1="367.33" x2="158.76" y2="372.54"/><g class="cls-2"><path class="cls-3" d="M18.07,421.3s19.7-12.7,40.68-15.44"/><path class="cls-3" d="M44.89,413c-3.1,0-6.39-.34-9.44.4l2.12-.67c.88-.21,1.76-.38,2.66-.51a1.1,1.1,0,0,0,0-.89c-.62-.69-2.71-.07-3.44,0a52.69,52.69,0,0,0-13.08,5.72c-1.92,1.12-3.81,2.28-5.67,3.5"/><path class="cls-3" d="M28.23,429.82a4.75,4.75,0,0,1,3.66-2.05,88.2,88.2,0,0,1,13.71-4.23,3.23,3.23,0,0,1,2.89-.18c.13-.05.6-.32.71-.34.5-.09,1,0,1.54-.17.78-.22,1.46-.88,2.35-1-1.83.18-3.63-.16-5.43.33"/><path class="cls-3" d="M47.66,493.25c5.65,0,11.33.09,16.94-.68a13.66,13.66,0,0,0,3.77-1c.91-.37,2.69-.53,3.31-1.38-.61-.18-1.69-.29-2.17.26.44,1.09,4.13,1,4.43,1a52.66,52.66,0,0,0,15.92-1.21A26.84,26.84,0,0,0,96,488c.57-.27,1.36-.28,1.51-1.08a5.5,5.5,0,0,0-3.88-.49,79,79,0,0,0-12.1.84c-5.94.59-11.87.54-17.81.89,7.67-.1,15.32.61,23,.18A106.39,106.39,0,0,1,98.1,488c1.79.1,2-.32,4.65-.93l8.27-1.3q7.44-.62,14.9-.75c2.56-.41,4.94-1.66,7.51-2,1.36-.16,1.92,0,3-.68.55-.35.29-.39.72-.5-5.67.83-11.4.8-17.07,1.58a123.21,123.21,0,0,0-15.41,3.3c-2.6.7-5.26.72-7.82,1.63a10.67,10.67,0,0,1-4,.39c2.89-.1,6.45.21,9.19.28,5.94.14,11.88.08,17.83.08,2.87,0,5.85.24,8.72.09,3.27-.18,6.43-1.74,9.57-2.6a101.28,101.28,0,0,1,14.09-2.44,110.22,110.22,0,0,0,14.89-3c3.08-.84,6.9-2.72,10.15-2.37-1.18,0-1.9.12-2.7-.69"/><path class="cls-3" d="M178.18,487.37c.68.29.08.24-1.82-.15q-5.06-.51-10.14-.52c-5.57-.18-11-1.47-16.57-1.41-4.39.06-9.19-.6-13.47.63-3.78,1.09-7.45,2.64-11.23,3.73s-7.17,2.37-10.8,3.49a36.92,36.92,0,0,0-4.5,1.47,20.34,20.34,0,0,1-4.28,1.74,27.44,27.44,0,0,1-5.94.31"/><path class="cls-3" d="M190,491.21c2.83,0,5.86.37,8.67-.07,6.81-1.07,13.64-2.91,20.34-4.61a35.18,35.18,0,0,1,8-1.51c2.35,0,4.71,0,7.06,0,6.89,0,13.77-.09,20.66,0,5.68.06,11.33.4,17,.35a87.6,87.6,0,0,1,16.06,1.37c1.43.31,2.88.55,4.33.72l.5-.21a10,10,0,0,1,4.1-.53c4.12-.13,8.43-.24,12.57,0,2.79.16,4.85,2.55,7.44,3.14a9.54,9.54,0,0,0,3.53-.09c.64-.13,1.32-.72,2-.61l45-1s-29.58-4.84,16-12.37c0,0,5.32-.34,8.05,2.06s2.74-2.79,2.74-2.79"/><path class="cls-3" d="M579.38,424.46l.77,1.19-.77,1v1.71s-27.53,28.7-82.17,35.54S521,447.18,521,447.18,565,438.06,585.08,439s13.57,4.73,13.57,4.73"/></g><polyline class="cls-3" points="352.76 346.97 510.03 323.88 589 313.62"/><g class="cls-2"><path class="cls-3" d="M516.16,386.16s11.93-20.59,127.14-10.29"/><path class="cls-3" d="M702,386.27s-82.52,9.55-99.55-15.81"/><path class="cls-3" d="M544.69,362.3c3,0,6.11,0,9.17,0,3.87,0,7.5-.94,11.36-.92a36.7,36.7,0,0,0,8.18-.84,22.39,22.39,0,0,1,3.65-.91c1.35-.07,2.74,0,4.08,0a20.4,20.4,0,0,0-5.06-.25,85.56,85.56,0,0,0-12,.36c-3.73.52-7.67,1-11.18,2.61-4,1.82-7.87,4.7-12.08,5.89"/></g></g></svg>