<svg id="Layer_1" data-name="Layer 1" xmlns="http://www.w3.org/2000/svg" xmlns:xlink="http://www.w3.org/1999/xlink" viewBox="0 0 1080 756"><defs><style>.cls-1,.cls-3{fill:none;}.cls-2{clip-path:url(#clip-path);}.cls-3{stroke:#231f20;stroke-width:0.25px;}.cls-4{fill:#231f20;}</style><clipPath id="clip-path"><rect class="cls-1" width="1080" height="756"/></clipPath></defs><title>Untitled-3</title><g class="cls-2"><g class="cls-2"><line class="cls-3" x1="180" y1="-18.36" x2="180" y2="790.92"/><line class="cls-3" x1="720" y1="-20.88" x2="720" y2="788.4"/><line class="cls-3" x1="359.88" y1="-18.36" x2="359.88" y2="790.92"/><line class="cls-3" x1="899.87" y1="-20.88" x2="899.87" y2="788.4"/><line class="cls-3" x1="-16.92" y1="251.88" x2="1101.6" y2="251.88"/><line class="cls-3" x1="-11.52" y1="504.13" x2="1107" y2="504.13"/><line class="cls-3" x1="540" y1="-19.44" x2="540" y2="789.84"/></g><path class="cls-4" d="M20.23,281.65l-2.09-8.3h1.19l1.09,4.79.4,1.78.36-1.71,1.08-4.86h1.19l1,4.81.34,1.59.39-1.6,1.16-4.8h1.13l-2.13,8.3h-1.2l-1.08-5-.26-1.41-1.38,6.38Z"/><path class="cls-4" d="M28.45,271.81V270.2h1.14v1.61Zm0,9.84v-8.3h1.14v8.3Z"/><path class="cls-4" d="M35.77,281.65v-1a2.36,2.36,0,0,1-.81.92,1.94,1.94,0,0,1-1.06.32,2.57,2.57,0,0,1-2.08-1.14,5.1,5.1,0,0,1-.88-3.2,6.56,6.56,0,0,1,.39-2.4,3.22,3.22,0,0,1,1-1.46,2.38,2.38,0,0,1,1.45-.48,1.94,1.94,0,0,1,1,.3,2.51,2.51,0,0,1,.81.84v-4.1h1.16v11.45Zm-3.65-4.14a4.07,4.07,0,0,0,.56,2.39,1.58,1.58,0,0,0,1.3.78,1.55,1.55,0,0,0,1.27-.75,3.9,3.9,0,0,0,.54-2.27,4.66,4.66,0,0,0-.54-2.54,1.6,1.6,0,0,0-1.36-.8,1.52,1.52,0,0,0-1.25.77A4.37,4.37,0,0,0,32.12,277.51Z"/><path class="cls-4" d="M41.22,280.39l.16,1.24a3.21,3.21,0,0,1-.86.13,1.72,1.72,0,0,1-1-.24,1.21,1.21,0,0,1-.51-.65,6.54,6.54,0,0,1-.13-1.65v-4.77h-.85v-1.1h.85V271.3l1.14-.85v2.9h1.17v1.1H40.05v4.85a2.14,2.14,0,0,0,.11.86.56.56,0,0,0,.55.29A2.86,2.86,0,0,0,41.22,280.39Z"/><path class="cls-4" d="M42.3,281.65V270.2h1.15v4.1a2.82,2.82,0,0,1,.92-.85,2.29,2.29,0,0,1,1.13-.29,2.16,2.16,0,0,1,1.71.7,3.8,3.8,0,0,1,.63,2.53v5.26H46.7v-5.26a2.45,2.45,0,0,0-.39-1.55,1.27,1.27,0,0,0-1.05-.46A1.64,1.64,0,0,0,44,275a3.28,3.28,0,0,0-.53,2.13v4.54Z"/><path class="cls-4" d="M198.4,26.65l1.21-.12a2.88,2.88,0,0,0,.64,1.63,1.54,1.54,0,0,0,1.15.53,1.74,1.74,0,0,0,1.41-.75,3.24,3.24,0,0,0,.6-2.06,2.89,2.89,0,0,0-.58-1.91,1.81,1.81,0,0,0-1.44-.68,1.74,1.74,0,0,0-1,.3,2,2,0,0,0-.72.82l-1.09-.18.92-5.88h4.66v1.34h-3.75l-.5,3.08a2.69,2.69,0,0,1,1.77-.72,2.64,2.64,0,0,1,2.05,1,4,4,0,0,1,.87,2.71,4.77,4.77,0,0,1-.87,2.88,2.89,2.89,0,0,1-4.39.35A3.62,3.62,0,0,1,198.4,26.65Z"/><path class="cls-4" d="M209.39,29.65V26.91h-4.07V25.62l4.28-7.42h1v7.42h1.27v1.29h-1.27v2.74Zm0-4V20.46l-2.93,5.16Z"/><path class="cls-4" d="M563.43,27l1.19.18a3.64,3.64,0,0,1-1.07,2,2.84,2.84,0,0,1-1.93.67,2.89,2.89,0,0,1-2.34-1.1,4.92,4.92,0,0,1-.89-3.16,5.15,5.15,0,0,1,.9-3.28,2.78,2.78,0,0,1,2.29-1.13,2.71,2.71,0,0,1,2.2,1.11,5.05,5.05,0,0,1,.88,3.21v.37h-5.07a3.55,3.55,0,0,0,.64,2.11,1.75,1.75,0,0,0,1.41.71C562.49,28.68,563.1,28.12,563.43,27Zm-3.78-2.27h3.79A3.08,3.08,0,0,0,563,23.1a1.68,1.68,0,0,0-2.73-.13A2.76,2.76,0,0,0,559.65,24.71Z"/><path class="cls-4" d="M570.51,28.63a4.33,4.33,0,0,1-1.2.91,3,3,0,0,1-1.3.3,2.25,2.25,0,0,1-1.69-.64,2.36,2.36,0,0,1-.64-1.73,2.62,2.62,0,0,1,.3-1.27,2.27,2.27,0,0,1,.81-.87,4.33,4.33,0,0,1,1.57-.46,9,9,0,0,0,2.06-.49V24a1.73,1.73,0,0,0-.31-1.19,1.61,1.61,0,0,0-1.32-.5,1.85,1.85,0,0,0-1.2.33,2.18,2.18,0,0,0-.59,1.25l-1.13-.19a3.12,3.12,0,0,1,1-1.94,3.22,3.22,0,0,1,2.11-.61,3,3,0,0,1,1.68.4,1.69,1.69,0,0,1,.77,1,6.87,6.87,0,0,1,.16,1.73v1.88a23.12,23.12,0,0,0,.08,2.48,3.51,3.51,0,0,0,.29,1h-1.2A3.48,3.48,0,0,1,570.51,28.63Zm-.09-3.14a7,7,0,0,1-1.88.53,3.27,3.27,0,0,0-1,.29,1.08,1.08,0,0,0-.45.45,1.33,1.33,0,0,0-.16.67,1.23,1.23,0,0,0,.37.95,1.37,1.37,0,0,0,1,.36,2.1,2.1,0,0,0,1.13-.32,2,2,0,0,0,.75-.86,3.72,3.72,0,0,0,.25-1.56Z"/><path class="cls-4" d="M572.93,27.17l1.15-.22a2,2,0,0,0,.56,1.31,1.69,1.69,0,0,0,1.2.42,1.64,1.64,0,0,0,1.15-.37,1.18,1.18,0,0,0,.41-.94.88.88,0,0,0-.35-.76,4.27,4.27,0,0,0-1.17-.47,8.15,8.15,0,0,1-1.8-.71,2,2,0,0,1-.7-.77,2.54,2.54,0,0,1,.43-2.83,2.58,2.58,0,0,1,1.88-.66,3.07,3.07,0,0,1,1.33.27,2,2,0,0,1,.88.74,3,3,0,0,1,.43,1.32l-1.13.18a1.35,1.35,0,0,0-1.48-1.35,1.71,1.71,0,0,0-1.11.29.94.94,0,0,0-.37.77.85.85,0,0,0,.35.72,5.91,5.91,0,0,0,1.25.5,9.79,9.79,0,0,1,1.86.73,1.84,1.84,0,0,1,.65.73,2.53,2.53,0,0,1,.23,1.11,2.61,2.61,0,0,1-.75,1.93,2.82,2.82,0,0,1-2.06.73C574.14,29.84,573.2,29,572.93,27.17Z"/><path class="cls-4" d="M579.9,32.85l-.12-1.32a2.2,2.2,0,0,0,.66.12,1.11,1.11,0,0,0,.6-.15,1.08,1.08,0,0,0,.4-.46c0-.07.18-.53.45-1.37l-2.59-8.31h1.24l1.43,4.8c.17.6.34,1.24.49,1.92a18.64,18.64,0,0,1,.47-1.89l1.45-4.83h1.16L583,29.79a14.35,14.35,0,0,1-.81,2.2,2,2,0,0,1-.66.79,1.53,1.53,0,0,1-.84.24A2.1,2.1,0,0,1,579.9,32.85Z"/><path class="cls-4" d="M594.58,28.63a4.33,4.33,0,0,1-1.2.91,3,3,0,0,1-1.3.3,2.26,2.26,0,0,1-1.69-.64,2.36,2.36,0,0,1-.64-1.73,2.62,2.62,0,0,1,.3-1.27,2.27,2.27,0,0,1,.81-.87,4.33,4.33,0,0,1,1.57-.46,9,9,0,0,0,2.06-.49V24a1.73,1.73,0,0,0-.31-1.19,1.61,1.61,0,0,0-1.32-.5,1.85,1.85,0,0,0-1.2.33,2.18,2.18,0,0,0-.59,1.25L590,23.72a3.12,3.12,0,0,1,1-1.94,3.22,3.22,0,0,1,2.11-.61,3,3,0,0,1,1.68.4,1.69,1.69,0,0,1,.77,1,6.87,6.87,0,0,1,.16,1.73v1.88a23.12,23.12,0,0,0,.08,2.48,3.87,3.87,0,0,0,.29,1h-1.2A3.48,3.48,0,0,1,594.58,28.63Zm-.09-3.14a7,7,0,0,1-1.88.53,3.27,3.27,0,0,0-1,.29,1.08,1.08,0,0,0-.45.45,1.44,1.44,0,0,0-.16.67,1.23,1.23,0,0,0,.37.95,1.37,1.37,0,0,0,1,.36,2.1,2.1,0,0,0,1.13-.32,2,2,0,0,0,.75-.86,3.72,3.72,0,0,0,.25-1.56Z"/><path class="cls-4" d="M597.45,29.65V21.36h1v1.17a2.56,2.56,0,0,1,.92-1,2.24,2.24,0,0,1,1.24-.34,2.44,2.44,0,0,1,1,.21,2.08,2.08,0,0,1,.75.57,2.21,2.21,0,0,1,.42.9,7.19,7.19,0,0,1,.14,1.7v5.1h-1.14v-5a4.28,4.28,0,0,0-.16-1.34,1.36,1.36,0,0,0-.49-.65,1.34,1.34,0,0,0-.77-.23,1.61,1.61,0,0,0-1.32.62,3.46,3.46,0,0,0-.49,2.12v4.53Z"/><path class="cls-4" d="M609.15,29.65v-1a2.23,2.23,0,0,1-.8.91,1.86,1.86,0,0,1-1.06.32,2.58,2.58,0,0,1-2.09-1.14,5.14,5.14,0,0,1-.87-3.2,6.69,6.69,0,0,1,.38-2.39,3.19,3.19,0,0,1,1-1.46,2.35,2.35,0,0,1,1.44-.48,2,2,0,0,1,1.06.3,2.51,2.51,0,0,1,.81.84V18.2h1.16V29.65Zm-3.65-4.14a4.13,4.13,0,0,0,.56,2.39,1.61,1.61,0,0,0,1.31.78,1.55,1.55,0,0,0,1.27-.75,3.86,3.86,0,0,0,.54-2.26,4.63,4.63,0,0,0-.54-2.54,1.58,1.58,0,0,0-1.36-.8,1.49,1.49,0,0,0-1.25.76A4.38,4.38,0,0,0,605.5,25.51Z"/><path class="cls-4" d="M620.12,28.63a4.33,4.33,0,0,1-1.2.91,3,3,0,0,1-1.3.3,2.25,2.25,0,0,1-1.69-.64,2.32,2.32,0,0,1-.64-1.73,2.62,2.62,0,0,1,.3-1.27,2.27,2.27,0,0,1,.81-.87,4.33,4.33,0,0,1,1.57-.46,9,9,0,0,0,2.06-.49V24a1.79,1.79,0,0,0-.31-1.19,1.62,1.62,0,0,0-1.32-.5,1.85,1.85,0,0,0-1.2.33,2.18,2.18,0,0,0-.59,1.25l-1.13-.19a3.12,3.12,0,0,1,1-1.94,3.22,3.22,0,0,1,2.11-.61,3,3,0,0,1,1.68.4,1.69,1.69,0,0,1,.77,1,6.87,6.87,0,0,1,.16,1.73v1.88a23.12,23.12,0,0,0,.08,2.48,3.51,3.51,0,0,0,.29,1h-1.2A3.48,3.48,0,0,1,620.12,28.63ZM620,25.49a7,7,0,0,1-1.88.53,3.27,3.27,0,0,0-1,.29,1.08,1.08,0,0,0-.45.45,1.33,1.33,0,0,0-.16.67,1.23,1.23,0,0,0,.37.95,1.37,1.37,0,0,0,1,.36,2.06,2.06,0,0,0,1.12-.32,2,2,0,0,0,.76-.86A3.72,3.72,0,0,0,620,26Z"/><path class="cls-4" d="M623,29.65V18.2h1.15V29.65Z"/><path class="cls-4" d="M625.86,29.65V18.2H627V29.65Z"/><path class="cls-4" d="M628.38,25.5a5,5,0,0,1,.9-3.24,2.93,2.93,0,0,1,4.56,0,4.8,4.8,0,0,1,.91,3.16,5.17,5.17,0,0,1-.89,3.33,2.93,2.93,0,0,1-4.57,0A5,5,0,0,1,628.38,25.5Zm1.18,0a4,4,0,0,0,.59,2.4,1.75,1.75,0,0,0,1.45.78,1.67,1.67,0,0,0,1.39-.79,4,4,0,0,0,.59-2.39,4,4,0,0,0-.59-2.39,1.76,1.76,0,0,0-1.45-.78,1.68,1.68,0,0,0-1.4.79A4,4,0,0,0,629.56,25.5Z"/><path class="cls-4" d="M637.37,29.65l-2.09-8.29h1.19l1.08,4.79.4,1.78.36-1.71,1.08-4.86h1.19l1,4.81.34,1.58.39-1.6,1.16-4.79h1.12l-2.12,8.29h-1.2l-1.09-5L640,23.27l-1.38,6.38Z"/><path class="cls-4" d="M650.23,27l1.19.18a3.65,3.65,0,0,1-1.08,2,2.81,2.81,0,0,1-1.92.67,2.89,2.89,0,0,1-2.34-1.1,4.86,4.86,0,0,1-.9-3.16,5.15,5.15,0,0,1,.91-3.28,2.78,2.78,0,0,1,2.28-1.13,2.72,2.72,0,0,1,2.21,1.11,5.11,5.11,0,0,1,.88,3.21v.37h-5.08A3.55,3.55,0,0,0,647,28a1.75,1.75,0,0,0,1.41.71C649.29,28.68,649.89,28.12,650.23,27Zm-3.79-2.27h3.8a3.18,3.18,0,0,0-.46-1.61,1.66,1.66,0,0,0-1.42-.77A1.68,1.68,0,0,0,647,23,2.88,2.88,0,0,0,646.44,24.71Z"/><path class="cls-4" d="M657.29,29.65v-1a2.33,2.33,0,0,1-.81.91,1.86,1.86,0,0,1-1.06.32,2.57,2.57,0,0,1-2.08-1.14,5.08,5.08,0,0,1-.88-3.2,6.47,6.47,0,0,1,.39-2.39,3.18,3.18,0,0,1,1-1.46,2.38,2.38,0,0,1,1.45-.48,1.94,1.94,0,0,1,1,.3,2.33,2.33,0,0,1,.81.84V18.2h1.16V29.65Zm-3.65-4.14a4.05,4.05,0,0,0,.56,2.39,1.58,1.58,0,0,0,1.3.78,1.55,1.55,0,0,0,1.27-.75,3.86,3.86,0,0,0,.54-2.26,4.63,4.63,0,0,0-.54-2.54,1.58,1.58,0,0,0-1.36-.8,1.5,1.5,0,0,0-1.25.76A4.39,4.39,0,0,0,653.64,25.51Z"/><path class="cls-4" d="M666.39,28.4l.15,1.24a3.48,3.48,0,0,1-.86.12,1.71,1.71,0,0,1-1-.24,1.14,1.14,0,0,1-.51-.65,6.43,6.43,0,0,1-.13-1.65V22.45h-.85V21.36h.85V19.3l1.14-.84v2.9h1.17v1.09h-1.17V27.3a2.2,2.2,0,0,0,.11.87.55.55,0,0,0,.55.28A3.92,3.92,0,0,0,666.39,28.4Z"/><path class="cls-4" d="M667,25.5a5,5,0,0,1,.9-3.24,2.93,2.93,0,0,1,4.56,0,4.8,4.8,0,0,1,.91,3.16,5.17,5.17,0,0,1-.9,3.33,2.92,2.92,0,0,1-4.56,0A5,5,0,0,1,667,25.5Zm1.18,0a4,4,0,0,0,.58,2.4,1.76,1.76,0,0,0,1.45.78,1.69,1.69,0,0,0,1.4-.79,4,4,0,0,0,.58-2.39,4,4,0,0,0-.58-2.39,1.78,1.78,0,0,0-1.46-.78,1.7,1.7,0,0,0-1.4.79A4.05,4.05,0,0,0,668.22,25.5Z"/><path class="cls-4" d="M679.47,29.65H678.4V18.2h1.16v4.09a2.47,2.47,0,0,1,.83-.84,2,2,0,0,1,1-.28,2.4,2.4,0,0,1,1.45.48,3.22,3.22,0,0,1,1,1.44,6.32,6.32,0,0,1,.39,2.35,5.25,5.25,0,0,1-.89,3.26,2.55,2.55,0,0,1-2.06,1.14,1.89,1.89,0,0,1-1.07-.31,2.57,2.57,0,0,1-.82-.92Zm0-4.21a5.86,5.86,0,0,0,.23,1.93,2.17,2.17,0,0,0,.67,1,1.5,1.5,0,0,0,.95.33,1.54,1.54,0,0,0,1.27-.8,4.2,4.2,0,0,0,.55-2.39,4.31,4.31,0,0,0-.53-2.4,1.56,1.56,0,0,0-1.31-.76,1.54,1.54,0,0,0-1.27.8A3.94,3.94,0,0,0,679.46,25.44Z"/><path class="cls-4" d="M690.36,27l1.19.18a3.64,3.64,0,0,1-1.07,2,2.84,2.84,0,0,1-1.93.67,2.89,2.89,0,0,1-2.34-1.1,4.92,4.92,0,0,1-.89-3.16,5.15,5.15,0,0,1,.9-3.28,2.78,2.78,0,0,1,2.28-1.13,2.72,2.72,0,0,1,2.21,1.11,5.05,5.05,0,0,1,.88,3.21v.37H686.5a3.62,3.62,0,0,0,.65,2.11,1.75,1.75,0,0,0,1.41.71C689.42,28.68,690,28.12,690.36,27Zm-3.78-2.27h3.79a3.08,3.08,0,0,0-.46-1.61,1.68,1.68,0,0,0-2.73-.13A2.76,2.76,0,0,0,686.58,24.71Z"/><path class="cls-4" d="M560,48.85,558,40.56h1.19l1.09,4.79.4,1.78.36-1.71,1.08-4.86h1.19l1,4.81.34,1.59.39-1.61,1.16-4.79h1.13l-2.13,8.29H564l-1.08-5-.26-1.41-1.38,6.38Z"/><path class="cls-4" d="M568.25,48.85V37.4h1.15v4.11a2.86,2.86,0,0,1,.92-.86,2.28,2.28,0,0,1,1.13-.28,2.22,2.22,0,0,1,1.72.69,3.9,3.9,0,0,1,.62,2.54v5.25h-1.14V43.6a2.43,2.43,0,0,0-.39-1.55,1.28,1.28,0,0,0-1-.47,1.64,1.64,0,0,0-1.28.6,3.28,3.28,0,0,0-.53,2.13v4.54Z"/><path class="cls-4" d="M580,47.83a4.33,4.33,0,0,1-1.2.91,3,3,0,0,1-1.3.3,2.25,2.25,0,0,1-1.69-.64,2.32,2.32,0,0,1-.64-1.73,2.62,2.62,0,0,1,.3-1.27,2.27,2.27,0,0,1,.81-.87,4.54,4.54,0,0,1,1.57-.46,9,9,0,0,0,2.06-.49v-.36a1.79,1.79,0,0,0-.31-1.19,1.63,1.63,0,0,0-1.32-.5,1.83,1.83,0,0,0-1.2.33,2.18,2.18,0,0,0-.59,1.25l-1.13-.19a3.12,3.12,0,0,1,1-1.94,3.22,3.22,0,0,1,2.11-.61,3,3,0,0,1,1.68.4,1.69,1.69,0,0,1,.77,1,6.87,6.87,0,0,1,.16,1.73v1.88a23.12,23.12,0,0,0,.08,2.48,3.51,3.51,0,0,0,.29,1h-1.2A3.48,3.48,0,0,1,580,47.83Zm-.09-3.14a7,7,0,0,1-1.89.53,3.28,3.28,0,0,0-1,.29,1.08,1.08,0,0,0-.45.45,1.33,1.33,0,0,0-.16.67,1.23,1.23,0,0,0,.37.95,1.37,1.37,0,0,0,1,.36,2.06,2.06,0,0,0,1.12-.32,2,2,0,0,0,.76-.86,3.86,3.86,0,0,0,.25-1.55Z"/><path class="cls-4" d="M585.41,47.6l.16,1.24a3.61,3.61,0,0,1-.86.12,1.74,1.74,0,0,1-1-.24,1.13,1.13,0,0,1-.5-.65,5.86,5.86,0,0,1-.14-1.65V41.65h-.85V40.56h.85V38.5l1.15-.84v2.9h1.16v1.09h-1.16V46.5a2.26,2.26,0,0,0,.1.87.56.56,0,0,0,.55.28A3.92,3.92,0,0,0,585.41,47.6Z"/><path class="cls-4" d="M591.15,46.18l1.18.18a3.6,3.6,0,0,1-1.07,2,2.84,2.84,0,0,1-1.93.67,2.89,2.89,0,0,1-2.34-1.1,4.92,4.92,0,0,1-.89-3.16,5.15,5.15,0,0,1,.9-3.28,2.81,2.81,0,0,1,2.29-1.13,2.71,2.71,0,0,1,2.2,1.11,5.05,5.05,0,0,1,.88,3.21v.37h-5.07a3.55,3.55,0,0,0,.64,2.11,1.75,1.75,0,0,0,1.41.71C590.21,47.88,590.81,47.32,591.15,46.18Zm-3.79-2.27h3.79a3.08,3.08,0,0,0-.46-1.61,1.68,1.68,0,0,0-2.73-.13A2.76,2.76,0,0,0,587.36,43.91Z"/><path class="cls-4" d="M595.69,48.85l-2.58-8.29h1.22l1.46,5c.17.56.31,1.12.44,1.67.1-.44.24-1,.42-1.58l1.52-5.06h1.19l-2.59,8.29Z"/><path class="cls-4" d="M605,46.18l1.19.18a3.6,3.6,0,0,1-1.07,2,2.84,2.84,0,0,1-1.93.67,2.89,2.89,0,0,1-2.34-1.1,4.92,4.92,0,0,1-.89-3.16,5.15,5.15,0,0,1,.9-3.28,2.81,2.81,0,0,1,2.29-1.13,2.71,2.71,0,0,1,2.2,1.11,5.05,5.05,0,0,1,.88,3.21v.37h-5.07a3.55,3.55,0,0,0,.64,2.11,1.75,1.75,0,0,0,1.41.71C604.06,47.88,604.67,47.32,605,46.18Zm-3.78-2.27H605a3.08,3.08,0,0,0-.46-1.61,1.68,1.68,0,0,0-2.73-.13A2.76,2.76,0,0,0,601.22,43.91Z"/><path class="cls-4" d="M607.65,48.85V40.56h1v1.25a3.67,3.67,0,0,1,.73-1.16,1.11,1.11,0,0,1,.75-.28,2,2,0,0,1,1.18.45L611,42.13a1.43,1.43,0,0,0-.84-.31,1,1,0,0,0-.67.26,1.37,1.37,0,0,0-.43.72,6.73,6.73,0,0,0-.22,1.71v4.34Z"/><path class="cls-4" d="M611.68,48.85v-1.6H613v1.6Z"/><path class="cls-4" d="M739,533.65V522.2h3.53a3.62,3.62,0,0,1,1.69.33,2.55,2.55,0,0,1,1,1,3.18,3.18,0,0,1,.4,1.56,3,3,0,0,1-.35,1.42,2.61,2.61,0,0,1-1,1,2.55,2.55,0,0,1,1.29,1,3.12,3.12,0,0,1,.47,1.77,3.79,3.79,0,0,1-.42,1.82,2.67,2.67,0,0,1-1.14,1.14,4.35,4.35,0,0,1-2,.36Zm1.24-6.64h2a4.16,4.16,0,0,0,1.13-.11,1.45,1.45,0,0,0,.75-.55,1.9,1.9,0,0,0,.26-1.05,2,2,0,0,0-.24-1,1.33,1.33,0,0,0-.63-.57,4.59,4.59,0,0,0-1.42-.15h-1.89Zm0,5.29h2.34a3.48,3.48,0,0,0,1.14-.14,1.54,1.54,0,0,0,.81-.67,2.52,2.52,0,0,0,0-2.27,1.56,1.56,0,0,0-.72-.65,3.53,3.53,0,0,0-1.41-.21h-2.18Z"/><path class="cls-4" d="M752,532.62a4,4,0,0,1-1.2.91,3,3,0,0,1-1.3.31,2.28,2.28,0,0,1-1.69-.64,2.34,2.34,0,0,1-.64-1.73,2.62,2.62,0,0,1,.3-1.27,2.27,2.27,0,0,1,.81-.87,4.33,4.33,0,0,1,1.57-.46,9,9,0,0,0,2.06-.49V528a1.84,1.84,0,0,0-.31-1.2,1.67,1.67,0,0,0-1.32-.5,1.83,1.83,0,0,0-1.2.33,2.21,2.21,0,0,0-.59,1.26l-1.13-.19a3.18,3.18,0,0,1,1-2,3.27,3.27,0,0,1,2.11-.61,3,3,0,0,1,1.68.41,1.71,1.71,0,0,1,.77,1,7,7,0,0,1,.16,1.74v1.87a23.12,23.12,0,0,0,.08,2.48,3.58,3.58,0,0,0,.29,1h-1.2A3.63,3.63,0,0,1,752,532.62Zm-.09-3.14a7.31,7.31,0,0,1-1.89.54,3.33,3.33,0,0,0-1,.28,1.21,1.21,0,0,0-.45.45,1.37,1.37,0,0,0-.16.68,1.24,1.24,0,0,0,.37,1,1.37,1.37,0,0,0,1,.35,2,2,0,0,0,1.12-.32,2,2,0,0,0,.76-.85,4,4,0,0,0,.25-1.56Z"/><path class="cls-4" d="M754.45,531.16l1.15-.21a2,2,0,0,0,.56,1.3,1.93,1.93,0,0,0,2.35.06,1.19,1.19,0,0,0,.41-.94.93.93,0,0,0-.35-.77,4.64,4.64,0,0,0-1.17-.47,8.28,8.28,0,0,1-1.8-.7,2,2,0,0,1-.7-.77,2.36,2.36,0,0,1-.25-1.11,2.31,2.31,0,0,1,.68-1.72,2.58,2.58,0,0,1,1.88-.67,2.93,2.93,0,0,1,1.33.28,2,2,0,0,1,.88.73,3.15,3.15,0,0,1,.42,1.32l-1.12.19a1.35,1.35,0,0,0-1.48-1.36,1.76,1.76,0,0,0-1.12.3,1,1,0,0,0-.36.77.87.87,0,0,0,.35.72,6.55,6.55,0,0,0,1.25.5,9.14,9.14,0,0,1,1.85.72,1.89,1.89,0,0,1,.66.74,2.51,2.51,0,0,1,.23,1.1,2.58,2.58,0,0,1-.75,1.93,2.84,2.84,0,0,1-2.06.74C755.66,533.84,754.71,533,754.45,531.16Z"/><path class="cls-4" d="M766.11,531l1.19.18a3.62,3.62,0,0,1-1.08,2,2.83,2.83,0,0,1-1.92.68,2.86,2.86,0,0,1-2.34-1.1,4.89,4.89,0,0,1-.9-3.17,5.19,5.19,0,0,1,.9-3.28,2.84,2.84,0,0,1,2.29-1.13,2.71,2.71,0,0,1,2.2,1.11,5.05,5.05,0,0,1,.89,3.21v.38h-5.08a3.57,3.57,0,0,0,.65,2.11,1.75,1.75,0,0,0,1.4.71C765.17,532.68,765.77,532.11,766.11,531Zm-3.79-2.28h3.8a3.21,3.21,0,0,0-.46-1.61,1.69,1.69,0,0,0-1.42-.77,1.72,1.72,0,0,0-1.32.64A2.88,2.88,0,0,0,762.32,528.7Z"/><path class="cls-4" d="M776.86,533.65v-1.22a3,3,0,0,1-.94,1.05,2.13,2.13,0,0,1-1.22.36,2.2,2.2,0,0,1-1.37-.44,2,2,0,0,1-.76-1.1,6.66,6.66,0,0,1-.19-1.81v-5.14h1.14V530a7.62,7.62,0,0,0,.13,1.72,1.32,1.32,0,0,0,.48.69,1.23,1.23,0,0,0,.79.26,1.65,1.65,0,0,0,1.36-.67,3.73,3.73,0,0,0,.45-2.15v-4.45h1.16v8.3Z"/><path class="cls-4" d="M779.7,533.65v-8.3h1v1.17a2.78,2.78,0,0,1,.92-1,2.33,2.33,0,0,1,1.24-.34,2.41,2.41,0,0,1,1,.22,2.05,2.05,0,0,1,.75.56,2.36,2.36,0,0,1,.43.9,7.81,7.81,0,0,1,.14,1.71v5.1h-1.15v-5a4,4,0,0,0-.16-1.34,1.3,1.3,0,0,0-1.26-.88,1.6,1.6,0,0,0-1.32.61,3.53,3.53,0,0,0-.49,2.12v4.54Z"/><path class="cls-4" d="M787,523.81V522.2h1.15v1.61Zm0,9.84v-8.3h1.15v8.3Z"/><path class="cls-4" d="M792.48,532.39l.15,1.24a3.1,3.1,0,0,1-.86.13,1.76,1.76,0,0,1-1-.24,1.24,1.24,0,0,1-.5-.65,6.39,6.39,0,0,1-.14-1.65v-4.77h-.84v-1.1h.84V523.3l1.15-.85v2.9h1.17v1.1h-1.17v4.85a2.42,2.42,0,0,0,.1.86.58.58,0,0,0,.56.29A2.86,2.86,0,0,0,792.48,532.39Z"/><path class="cls-4" d="M793.92,533.65v-1.6h1.31v1.6Z"/><path class="cls-4" d="M918.27,530.65l1.21-.13a2.93,2.93,0,0,0,.64,1.63,1.53,1.53,0,0,0,1.15.54,1.76,1.76,0,0,0,1.42-.76,3.28,3.28,0,0,0,.59-2.06,2.85,2.85,0,0,0-.57-1.9,1.84,1.84,0,0,0-2.42-.39,2.08,2.08,0,0,0-.73.82l-1.08-.17.91-5.89h4.66v1.35h-3.74l-.51,3.08a2.69,2.69,0,0,1,1.78-.72,2.64,2.64,0,0,1,2,1,4,4,0,0,1,.87,2.71,4.77,4.77,0,0,1-.87,2.88,2.75,2.75,0,0,1-2.34,1.2,2.81,2.81,0,0,1-2.06-.84A3.64,3.64,0,0,1,918.27,530.65Z"/><path class="cls-4" d="M925.57,530.65l1.21-.13a2.93,2.93,0,0,0,.64,1.63,1.51,1.51,0,0,0,1.15.54,1.72,1.72,0,0,0,1.41-.76,3.22,3.22,0,0,0,.6-2.06A2.8,2.8,0,0,0,930,528a1.78,1.78,0,0,0-1.44-.68,1.83,1.83,0,0,0-1,.29,2.13,2.13,0,0,0-.72.82l-1.09-.17.92-5.89h4.66v1.35H927.6l-.5,3.08a2.69,2.69,0,0,1,1.78-.72,2.65,2.65,0,0,1,2,1,4,4,0,0,1,.87,2.71,4.77,4.77,0,0,1-.87,2.88,2.76,2.76,0,0,1-2.34,1.2,2.79,2.79,0,0,1-2.06-.84A3.64,3.64,0,0,1,925.57,530.65Z"/><g class="cls-2"><path class="cls-3" d="M125.1,589.87c2.56,0,5.11,0,7.67,0,3.24,0,5.52-.77,8.57-1.83,1.09-.38,3.39-.12,3.95-1,1.47-.87,4.11,0,5.67-.07,2.76-.06,5-1.48,7.69-2,1.69-.37,3.42-.24,5.09-.81s3.15-1.82,4.8-2.57a46.21,46.21,0,0,0,12-7.35c4-3.64,8.33-6.54,12.4-10.07,5.42-4.71,11.26-8.53,16.25-14.06a85.46,85.46,0,0,0,10.15-13.14c2.63-4.32,5.61-8,7.89-12.72a44.61,44.61,0,0,1,3.59-6.91"/></g><polyline class="cls-3" points="161.88 593.6 190.53 620.55 257.75 683.31 315.99 738.68"/><polyline class="cls-3" points="341.09 636.68 244.75 553.68 161.68 485.37 196.39 632.57"/><polyline class="cls-3" points="231.17 669.67 232.69 502.86 261.31 701.56"/><polyline class="cls-3" points="204.94 622.27 204.94 512.47 204.94 511.27 204.94 511.87"/><g class="cls-2"><path class="cls-3" d="M90.41,665.25q-.84,1.65,2.71-.26,22.71-5,45.71-8.45,21.72-3.67,43.68-5.29a3.42,3.42,0,0,1,2.71.13c-13.15.9-26.09,4-39.16,5.57,7.84,0,15.85-1,23.64-1.43q9.78-.6,19.56-1a4.93,4.93,0,0,1,2.55-.1"/></g></g></svg>