<svg id="Layer_1" data-name="Layer 1" xmlns="http://www.w3.org/2000/svg" xmlns:xlink="http://www.w3.org/1999/xlink" viewBox="0 0 1080 756"><defs><style>.cls-1,.cls-3{fill:none;}.cls-2{clip-path:url(#clip-path);}.cls-3{stroke:#231f20;stroke-width:0.25px;}.cls-4{fill:#231f20;}</style><clipPath id="clip-path"><rect class="cls-1" width="1080" height="756"/></clipPath></defs><title>Untitled-3</title><g class="cls-2"><g class="cls-2"><line class="cls-3" x1="180" y1="-18.36" x2="180" y2="790.92"/><line class="cls-3" x1="720" y1="-20.88" x2="720" y2="788.4"/><line class="cls-3" x1="359.88" y1="-18.36" x2="359.88" y2="790.92"/><line class="cls-3" x1="899.87" y1="-20.88" x2="899.87" y2="788.4"/><line class="cls-3" x1="-16.92" y1="251.88" x2="1101.6" y2="251.88"/><line class="cls-3" x1="-11.52" y1="504.13" x2="1107" y2="504.13"/><line class="cls-3" x1="540" y1="-19.44" x2="540" y2="789.84"/></g><path class="cls-4" d="M380.11,533.65l-2.09-8.3h1.19l1.08,4.79.4,1.78.36-1.71,1.08-4.86h1.19l1,4.81.35,1.59.39-1.6,1.16-4.8h1.12l-2.12,8.3H384l-1.09-5-.26-1.41-1.37,6.38Z"/><path class="cls-4" d="M387.88,529.5a5,5,0,0,1,.91-3.24,2.9,2.9,0,0,1,4.55,0,4.79,4.79,0,0,1,.92,3.15,5.17,5.17,0,0,1-.9,3.33,2.92,2.92,0,0,1-4.57,0A5,5,0,0,1,387.88,529.5Zm1.18,0a4,4,0,0,0,.59,2.39,1.74,1.74,0,0,0,1.45.79,1.7,1.7,0,0,0,1.4-.79,4.11,4.11,0,0,0,.58-2.39,4,4,0,0,0-.59-2.39,1.74,1.74,0,0,0-1.45-.79,1.69,1.69,0,0,0-1.4.79A4,4,0,0,0,389.06,529.5Z"/><path class="cls-4" d="M400.07,533.65v-1.22a3,3,0,0,1-.94,1.05,2.13,2.13,0,0,1-1.22.36,2.2,2.2,0,0,1-1.37-.44,2.06,2.06,0,0,1-.76-1.1,6.66,6.66,0,0,1-.19-1.81v-5.14h1.14V530a7.62,7.62,0,0,0,.13,1.72,1.32,1.32,0,0,0,.48.69,1.25,1.25,0,0,0,.79.26,1.65,1.65,0,0,0,1.36-.67,3.72,3.72,0,0,0,.46-2.15v-4.45h1.15v8.3Z"/><path class="cls-4" d="M402.88,533.65V522.2H404v11.45Z"/><path class="cls-4" d="M410.23,533.65v-1a2.26,2.26,0,0,1-.8.92,1.94,1.94,0,0,1-1.06.32,2.57,2.57,0,0,1-2.08-1.14,5.1,5.1,0,0,1-.88-3.2,6.56,6.56,0,0,1,.39-2.4,3.22,3.22,0,0,1,1-1.46,2.35,2.35,0,0,1,1.44-.48,2,2,0,0,1,1.06.3,2.51,2.51,0,0,1,.81.84v-4.1h1.16v11.45Zm-3.64-4.14a4.16,4.16,0,0,0,.55,2.39,1.61,1.61,0,0,0,1.31.78,1.55,1.55,0,0,0,1.27-.75,3.9,3.9,0,0,0,.54-2.27,4.66,4.66,0,0,0-.54-2.54,1.6,1.6,0,0,0-1.36-.8,1.52,1.52,0,0,0-1.25.77A4.37,4.37,0,0,0,406.59,529.51Z"/><path class="cls-4" d="M416.77,533.65v-8.3h1v1.17a2.78,2.78,0,0,1,.92-1,2.33,2.33,0,0,1,1.24-.34,2.41,2.41,0,0,1,1,.22,2.05,2.05,0,0,1,.75.56,2.36,2.36,0,0,1,.43.9,7.81,7.81,0,0,1,.14,1.71v5.1h-1.15v-5a4,4,0,0,0-.16-1.34,1.3,1.3,0,0,0-1.26-.88,1.6,1.6,0,0,0-1.32.61,3.53,3.53,0,0,0-.49,2.12v4.54Z"/><path class="cls-4" d="M423.63,529.5a5,5,0,0,1,.91-3.24,2.9,2.9,0,0,1,4.55,0,4.79,4.79,0,0,1,.92,3.15,5.17,5.17,0,0,1-.9,3.33,2.92,2.92,0,0,1-4.57,0A5,5,0,0,1,423.63,529.5Zm1.18,0a4,4,0,0,0,.59,2.39,1.74,1.74,0,0,0,1.45.79,1.7,1.7,0,0,0,1.4-.79,4.11,4.11,0,0,0,.58-2.39,4,4,0,0,0-.59-2.39,1.74,1.74,0,0,0-1.45-.79,1.69,1.69,0,0,0-1.4.79A4,4,0,0,0,424.81,529.5Z"/><path class="cls-4" d="M433.93,532.39l.16,1.24a3.21,3.21,0,0,1-.86.13,1.74,1.74,0,0,1-1-.24,1.21,1.21,0,0,1-.51-.65,6.54,6.54,0,0,1-.13-1.65v-4.77h-.85v-1.1h.85V523.3l1.15-.85v2.9h1.16v1.1h-1.16v4.85a2.2,2.2,0,0,0,.1.86.56.56,0,0,0,.55.29A2.86,2.86,0,0,0,433.93,532.39Z"/><path class="cls-4" d="M439.72,533.65h-1.07V522.2h1.15v4.08a2.8,2.8,0,0,1,.84-.84,2,2,0,0,1,1-.28,2.38,2.38,0,0,1,1.45.48,3.18,3.18,0,0,1,1,1.45,6.28,6.28,0,0,1,.39,2.35,5.22,5.22,0,0,1-.88,3.25,2.59,2.59,0,0,1-2.07,1.15,1.94,1.94,0,0,1-1.06-.31,2.56,2.56,0,0,1-.82-.92Zm0-4.21a5.85,5.85,0,0,0,.24,1.93,2.12,2.12,0,0,0,.66,1,1.5,1.5,0,0,0,1,.34,1.55,1.55,0,0,0,1.26-.8,5.49,5.49,0,0,0,0-4.79,1.56,1.56,0,0,0-1.31-.77,1.58,1.58,0,0,0-1.27.8A4.08,4.08,0,0,0,439.7,529.44Z"/><path class="cls-4" d="M450.61,531l1.19.18a3.62,3.62,0,0,1-1.08,2,2.83,2.83,0,0,1-1.92.68,2.86,2.86,0,0,1-2.34-1.1,4.89,4.89,0,0,1-.9-3.17,5.19,5.19,0,0,1,.9-3.28,2.84,2.84,0,0,1,2.29-1.13,2.71,2.71,0,0,1,2.2,1.11,5.05,5.05,0,0,1,.89,3.21v.38h-5.08a3.57,3.57,0,0,0,.65,2.11,1.75,1.75,0,0,0,1.4.71C449.67,532.68,450.27,532.11,450.61,531Zm-3.79-2.28h3.8a3.21,3.21,0,0,0-.46-1.61,1.69,1.69,0,0,0-1.42-.77,1.72,1.72,0,0,0-1.32.64A2.88,2.88,0,0,0,446.82,528.7Z"/><path class="cls-4" d="M453.22,533.65V522.2h1.15v11.45Z"/><path class="cls-4" d="M456.17,523.81V522.2h1.15v1.61Zm0,9.84v-8.3h1.15v8.3Z"/><path class="cls-4" d="M463.73,531l1.19.18a3.61,3.61,0,0,1-1.07,2,2.84,2.84,0,0,1-1.93.68,2.89,2.89,0,0,1-2.34-1.1,5,5,0,0,1-.89-3.17,5.19,5.19,0,0,1,.9-3.28,2.81,2.81,0,0,1,2.29-1.13,2.72,2.72,0,0,1,2.2,1.11,5.05,5.05,0,0,1,.88,3.21v.38h-5.07a3.57,3.57,0,0,0,.64,2.11,1.78,1.78,0,0,0,1.41.71C462.79,532.68,463.4,532.11,463.73,531ZM460,528.7h3.79a3.11,3.11,0,0,0-.46-1.61,1.68,1.68,0,0,0-2.73-.13A2.76,2.76,0,0,0,460,528.7Z"/><path class="cls-4" d="M468.28,533.65l-2.58-8.3h1.21l1.47,5c.16.56.31,1.12.44,1.67.1-.44.24-1,.42-1.58l1.52-5.06H472l-2.59,8.3Z"/><path class="cls-4" d="M477.59,531l1.19.18a3.61,3.61,0,0,1-1.07,2,2.84,2.84,0,0,1-1.93.68,2.89,2.89,0,0,1-2.34-1.1,4.89,4.89,0,0,1-.89-3.17,5.19,5.19,0,0,1,.9-3.28,2.8,2.8,0,0,1,2.28-1.13,2.72,2.72,0,0,1,2.21,1.11,5.05,5.05,0,0,1,.88,3.21v.38h-5.08a3.64,3.64,0,0,0,.65,2.11,1.78,1.78,0,0,0,1.41.71C476.65,532.68,477.25,532.11,477.59,531Zm-3.79-2.28h3.8a3.11,3.11,0,0,0-.46-1.61,1.68,1.68,0,0,0-2.73-.13A2.82,2.82,0,0,0,473.8,528.7Z"/><path class="cls-4" d="M488.32,532.62a4.23,4.23,0,0,1-1.2.91,3,3,0,0,1-1.3.31,2.32,2.32,0,0,1-1.7-.64,2.37,2.37,0,0,1-.63-1.73,2.62,2.62,0,0,1,.3-1.27,2.27,2.27,0,0,1,.81-.87,4.33,4.33,0,0,1,1.56-.46,9,9,0,0,0,2.07-.49V528a1.85,1.85,0,0,0-.3-1.2,1.67,1.67,0,0,0-1.32-.5,1.83,1.83,0,0,0-1.2.33,2.21,2.21,0,0,0-.59,1.26l-1.13-.19a3.18,3.18,0,0,1,1-2,3.26,3.26,0,0,1,2.11-.61,3,3,0,0,1,1.68.41,1.71,1.71,0,0,1,.77,1,7,7,0,0,1,.16,1.74v1.87c0,1.31,0,2.14.07,2.48a3.6,3.6,0,0,0,.3,1h-1.21A3.64,3.64,0,0,1,488.32,532.62Zm-.09-3.14a7.44,7.44,0,0,1-1.89.54,3.33,3.33,0,0,0-1,.28,1.21,1.21,0,0,0-.45.45,1.37,1.37,0,0,0-.16.68,1.24,1.24,0,0,0,.37,1,1.37,1.37,0,0,0,1,.35,2,2,0,0,0,1.12-.32,2,2,0,0,0,.76-.85,4,4,0,0,0,.25-1.56Z"/><path class="cls-4" d="M495.16,533.65v-7.2h-1v-1.1h1v-.88a4,4,0,0,1,.2-1.47,1.56,1.56,0,0,1,.62-.74A2,2,0,0,1,497,522a4.37,4.37,0,0,1,1.08.15l-.17,1.22a3.39,3.39,0,0,0-.68-.08.9.9,0,0,0-.74.27,1.67,1.67,0,0,0-.23,1v.76h1.33v1.1H496.3v7.2Z"/><path class="cls-4" d="M502.94,533.65v-1.22a3,3,0,0,1-.94,1.05,2.16,2.16,0,0,1-1.22.36,2.2,2.2,0,0,1-1.37-.44,2.08,2.08,0,0,1-.77-1.1,7.09,7.09,0,0,1-.19-1.81v-5.14h1.15V530a7.06,7.06,0,0,0,.13,1.72,1.32,1.32,0,0,0,.48.69,1.23,1.23,0,0,0,.79.26,1.66,1.66,0,0,0,1.36-.67,3.73,3.73,0,0,0,.45-2.15v-4.45H504v8.3Z"/><path class="cls-4" d="M505.74,533.65V522.2h1.15v11.45Z"/><path class="cls-4" d="M508.66,533.65V522.2h1.14v11.45Z"/><path class="cls-4" d="M378.81,552.85V541.4H380v11.45Z"/><path class="cls-4" d="M381.77,543V541.4h1.14V543Zm0,9.84v-8.3h1.14v8.3Z"/><path class="cls-4" d="M385.73,552.85h-1.07V541.4h1.16v4.08a2.77,2.77,0,0,1,.83-.84,2,2,0,0,1,1-.28,2.4,2.4,0,0,1,1.45.48,3.26,3.26,0,0,1,1,1.45,6.28,6.28,0,0,1,.39,2.35,5.22,5.22,0,0,1-.88,3.25,2.59,2.59,0,0,1-2.07,1.15,2,2,0,0,1-1.07-.31,2.65,2.65,0,0,1-.82-.92Zm0-4.21a5.9,5.9,0,0,0,.23,1.93,2.13,2.13,0,0,0,.67,1,1.48,1.48,0,0,0,.95.34,1.56,1.56,0,0,0,1.27-.8,4.24,4.24,0,0,0,.55-2.4,4.29,4.29,0,0,0-.53-2.39,1.45,1.45,0,0,0-2.58,0A4,4,0,0,0,385.72,548.64Z"/><path class="cls-4" d="M392,552.85v-8.3h1v1.26a3.35,3.35,0,0,1,.73-1.16,1.12,1.12,0,0,1,.74-.29,2,2,0,0,1,1.18.46l-.39,1.3a1.43,1.43,0,0,0-.83-.3,1,1,0,0,0-.68.26,1.45,1.45,0,0,0-.43.71,6.79,6.79,0,0,0-.22,1.71v4.35Z"/><path class="cls-4" d="M400.77,551.83a4.1,4.1,0,0,1-1.2.9,3,3,0,0,1-1.3.31,2.3,2.3,0,0,1-1.69-.64,2.37,2.37,0,0,1-.63-1.73,2.62,2.62,0,0,1,.29-1.27,2.27,2.27,0,0,1,.81-.87,4.33,4.33,0,0,1,1.57-.46,9,9,0,0,0,2.06-.49v-.36a1.78,1.78,0,0,0-.31-1.2,1.64,1.64,0,0,0-1.32-.5,1.85,1.85,0,0,0-1.2.33,2.21,2.21,0,0,0-.59,1.26l-1.13-.19a3.18,3.18,0,0,1,1-1.95,3.27,3.27,0,0,1,2.11-.61,3,3,0,0,1,1.68.41,1.7,1.7,0,0,1,.77,1,7,7,0,0,1,.16,1.74v1.87a23.12,23.12,0,0,0,.08,2.48,3.94,3.94,0,0,0,.29,1H401A3.64,3.64,0,0,1,400.77,551.83Zm-.09-3.15a7.34,7.34,0,0,1-1.88.54,3.33,3.33,0,0,0-1,.28,1.21,1.21,0,0,0-.45.45,1.51,1.51,0,0,0-.16.68,1.24,1.24,0,0,0,.37,1,1.37,1.37,0,0,0,1,.35,2,2,0,0,0,1.88-1.17,3.78,3.78,0,0,0,.25-1.56Z"/><path class="cls-4" d="M403.64,552.85v-8.3h1v1.26a3.67,3.67,0,0,1,.73-1.16,1.12,1.12,0,0,1,.75-.29,2,2,0,0,1,1.18.46l-.39,1.3a1.49,1.49,0,0,0-.84-.3,1,1,0,0,0-.67.26,1.32,1.32,0,0,0-.43.71,6.36,6.36,0,0,0-.22,1.71v4.35Z"/><path class="cls-4" d="M408,556l-.13-1.32a2.06,2.06,0,0,0,.66.13,1.13,1.13,0,0,0,.61-.15,1.06,1.06,0,0,0,.39-.46c0-.07.19-.53.46-1.38l-2.59-8.31h1.24l1.42,4.8c.18.6.34,1.24.49,1.92.13-.64.29-1.27.47-1.89l1.46-4.83h1.15L411,553a16.16,16.16,0,0,1-.8,2.19,2.07,2.07,0,0,1-.67.79,1.49,1.49,0,0,1-.84.25A1.89,1.89,0,0,1,408,556Z"/><path class="cls-4" d="M419.47,552.85l-2.09-8.3h1.19l1.09,4.79.4,1.78.36-1.71,1.08-4.86h1.19l1,4.81L424,551l.39-1.6,1.16-4.8h1.13l-2.13,8.3h-1.2l-1.08-5-.26-1.41-1.37,6.38Z"/><path class="cls-4" d="M432.12,551.83a4.27,4.27,0,0,1-1.21.9,2.92,2.92,0,0,1-1.29.31,2.31,2.31,0,0,1-1.7-.64,2.37,2.37,0,0,1-.63-1.73,2.62,2.62,0,0,1,.3-1.27,2.13,2.13,0,0,1,.81-.87,4.2,4.2,0,0,1,1.56-.46,8.74,8.74,0,0,0,2.06-.49v-.36a1.85,1.85,0,0,0-.3-1.2,1.67,1.67,0,0,0-1.32-.5,1.88,1.88,0,0,0-1.21.33,2.21,2.21,0,0,0-.58,1.26l-1.14-.19a3.23,3.23,0,0,1,1-1.95,3.3,3.3,0,0,1,2.12-.61,3,3,0,0,1,1.68.41,1.79,1.79,0,0,1,.77,1,7.53,7.53,0,0,1,.16,1.74v1.87a24.27,24.27,0,0,0,.07,2.48,3.94,3.94,0,0,0,.29,1h-1.2A3.33,3.33,0,0,1,432.12,551.83Zm-.1-3.15a7.34,7.34,0,0,1-1.88.54,3.51,3.51,0,0,0-1,.28,1.12,1.12,0,0,0-.44.45,1.39,1.39,0,0,0-.16.68,1.27,1.27,0,0,0,.36,1,1.41,1.41,0,0,0,1,.35,2,2,0,0,0,1.12-.32,1.87,1.87,0,0,0,.75-.85,3.78,3.78,0,0,0,.25-1.56Z"/><path class="cls-4" d="M434.54,550.36l1.15-.21a2,2,0,0,0,.55,1.3,1.94,1.94,0,0,0,2.36.06,1.23,1.23,0,0,0,.41-.94.93.93,0,0,0-.35-.77,4.77,4.77,0,0,0-1.18-.47,8.35,8.35,0,0,1-1.79-.7,2,2,0,0,1-.71-.77,2.48,2.48,0,0,1-.25-1.11,2.31,2.31,0,0,1,.68-1.72,2.63,2.63,0,0,1,1.89-.67,3.1,3.1,0,0,1,1.33.28,2.13,2.13,0,0,1,.88.73,3.3,3.3,0,0,1,.42,1.32l-1.13.19a1.34,1.34,0,0,0-1.47-1.36,1.76,1.76,0,0,0-1.12.3,1,1,0,0,0-.37.77.86.86,0,0,0,.36.72,6.25,6.25,0,0,0,1.25.5,9.4,9.4,0,0,1,1.85.72,1.8,1.8,0,0,1,.65.74,2.39,2.39,0,0,1,.24,1.11,2.54,2.54,0,0,1-.76,1.92,2.8,2.8,0,0,1-2.05.74C435.75,553,434.8,552.15,434.54,550.36Z"/><path class="cls-4" d="M449.65,549.81l1.13.18a3.79,3.79,0,0,1-1,2.26,2.55,2.55,0,0,1-1.89.79,2.7,2.7,0,0,1-2.2-1.1,5.23,5.23,0,0,1-.86-3.25,5.09,5.09,0,0,1,.87-3.24,2.73,2.73,0,0,1,2.24-1.09,2.55,2.55,0,0,1,1.78.66,3.2,3.2,0,0,1,.92,2l-1.11.2a2.39,2.39,0,0,0-.57-1.25,1.32,1.32,0,0,0-1-.42,1.69,1.69,0,0,0-1.41.75,4.12,4.12,0,0,0-.56,2.4,4.29,4.29,0,0,0,.54,2.45,1.59,1.59,0,0,0,1.37.76,1.48,1.48,0,0,0,1.12-.5A2.74,2.74,0,0,0,449.65,549.81Z"/><path class="cls-4" d="M451.32,548.7a5,5,0,0,1,.9-3.24,2.91,2.91,0,0,1,4.56,0,4.79,4.79,0,0,1,.92,3.15,5.17,5.17,0,0,1-.9,3.33,2.92,2.92,0,0,1-4.57,0A5,5,0,0,1,451.32,548.7Zm1.18,0a4,4,0,0,0,.59,2.39,1.74,1.74,0,0,0,1.45.79,1.67,1.67,0,0,0,1.39-.79,4,4,0,0,0,.59-2.39,4,4,0,0,0-.59-2.39,1.75,1.75,0,0,0-1.45-.79,1.68,1.68,0,0,0-1.4.79A4,4,0,0,0,452.5,548.7Z"/><path class="cls-4" d="M459.05,552.85v-8.3h1v1.17a2.78,2.78,0,0,1,.92-1,2.43,2.43,0,0,1,2.25-.12,2.05,2.05,0,0,1,.75.56,2.36,2.36,0,0,1,.43.9,7.81,7.81,0,0,1,.14,1.71v5.1h-1.15V547.8a4,4,0,0,0-.16-1.34,1.27,1.27,0,0,0-1.25-.88,1.58,1.58,0,0,0-1.32.61,3.45,3.45,0,0,0-.5,2.12v4.54Z"/><path class="cls-4" d="M468.91,551.59l.16,1.24a3.15,3.15,0,0,1-.86.13,1.76,1.76,0,0,1-1-.24,1.24,1.24,0,0,1-.5-.65,6.39,6.39,0,0,1-.14-1.65v-4.77h-.84v-1.1h.84v-2l1.15-.85v2.9h1.16v1.1h-1.16v4.85a2.2,2.2,0,0,0,.1.86.58.58,0,0,0,.56.29A2.67,2.67,0,0,0,468.91,551.59Z"/><path class="cls-4" d="M474.43,551.83a4.38,4.38,0,0,1-1.2.9,3,3,0,0,1-1.3.31,2.32,2.32,0,0,1-1.7-.64,2.37,2.37,0,0,1-.63-1.73,2.62,2.62,0,0,1,.3-1.27,2.27,2.27,0,0,1,.81-.87,4.27,4.27,0,0,1,1.56-.46,9,9,0,0,0,2.07-.49v-.36a1.85,1.85,0,0,0-.3-1.2,1.67,1.67,0,0,0-1.32-.5,1.83,1.83,0,0,0-1.2.33,2.15,2.15,0,0,0-.59,1.26l-1.13-.19a3.18,3.18,0,0,1,1-1.95,3.26,3.26,0,0,1,2.11-.61,3,3,0,0,1,1.68.41,1.74,1.74,0,0,1,.77,1,7,7,0,0,1,.16,1.74v1.87a24.27,24.27,0,0,0,.07,2.48,3.6,3.6,0,0,0,.3,1h-1.21A3.65,3.65,0,0,1,474.43,551.83Zm-.09-3.15a7.44,7.44,0,0,1-1.89.54,3.33,3.33,0,0,0-1,.28,1.15,1.15,0,0,0-.45.45,1.39,1.39,0,0,0-.16.68,1.24,1.24,0,0,0,.37,1,1.37,1.37,0,0,0,1,.35,2,2,0,0,0,1.12-.32,2,2,0,0,0,.76-.85,4,4,0,0,0,.25-1.56Z"/><path class="cls-4" d="M477.3,543V541.4h1.15V543Zm0,9.84v-8.3h1.15v8.3Z"/><path class="cls-4" d="M480.21,552.85v-8.3h1v1.17a2.7,2.7,0,0,1,.92-1,2.33,2.33,0,0,1,1.24-.34,2.44,2.44,0,0,1,1,.22,2.05,2.05,0,0,1,.75.56,2.21,2.21,0,0,1,.42.9,7.23,7.23,0,0,1,.14,1.71v5.1h-1.14V547.8a4.28,4.28,0,0,0-.16-1.34,1.3,1.3,0,0,0-.49-.65,1.27,1.27,0,0,0-.77-.23,1.6,1.6,0,0,0-1.32.61,3.46,3.46,0,0,0-.49,2.12v4.54Z"/><path class="cls-4" d="M492.16,550.18l1.18.18a3.55,3.55,0,0,1-1.07,2,2.84,2.84,0,0,1-1.93.68,2.89,2.89,0,0,1-2.34-1.1,5,5,0,0,1-.89-3.17,5.19,5.19,0,0,1,.9-3.28,2.82,2.82,0,0,1,2.29-1.13,2.71,2.71,0,0,1,2.2,1.11,5.05,5.05,0,0,1,.88,3.21v.38H488.3a3.5,3.5,0,0,0,.65,2.11,1.75,1.75,0,0,0,1.4.71C491.22,551.88,491.82,551.31,492.16,550.18Zm-3.79-2.28h3.79a3.11,3.11,0,0,0-.46-1.61,1.68,1.68,0,0,0-1.41-.77,1.67,1.67,0,0,0-1.32.65A2.71,2.71,0,0,0,488.37,547.9Z"/><path class="cls-4" d="M499.21,552.85V551.8a2.42,2.42,0,0,1-.8.92,2,2,0,0,1-1.07.32,2.58,2.58,0,0,1-2.08-1.14,5.16,5.16,0,0,1-.88-3.2,6.56,6.56,0,0,1,.39-2.4,3.29,3.29,0,0,1,1-1.46,2.4,2.4,0,0,1,1.45-.48,1.93,1.93,0,0,1,1.06.31,2.45,2.45,0,0,1,.8.83v-4.1h1.17v11.45Zm-3.65-4.14a4.15,4.15,0,0,0,.56,2.39,1.6,1.6,0,0,0,1.3.78,1.56,1.56,0,0,0,1.28-.75,3.88,3.88,0,0,0,.54-2.27,4.66,4.66,0,0,0-.54-2.54,1.61,1.61,0,0,0-1.36-.8,1.5,1.5,0,0,0-1.25.77A4.36,4.36,0,0,0,495.56,548.71Z"/><path class="cls-4" d="M502.44,552.85v-1.6h1.31v1.6a3.28,3.28,0,0,1-.27,1.46,1.87,1.87,0,0,1-.8.8l-.32-.6a1.2,1.2,0,0,0,.53-.56,2.69,2.69,0,0,0,.2-1.1Z"/><path class="cls-4" d="M203.31,278.67l1.13.18a3.82,3.82,0,0,1-1,2.27,2.57,2.57,0,0,1-1.89.78,2.67,2.67,0,0,1-2.2-1.1,5.2,5.2,0,0,1-.86-3.24,5.12,5.12,0,0,1,.87-3.25,2.75,2.75,0,0,1,2.24-1.08,2.55,2.55,0,0,1,1.78.66,3.17,3.17,0,0,1,.92,2l-1.11.21a2.47,2.47,0,0,0-.57-1.26,1.31,1.31,0,0,0-1-.41,1.69,1.69,0,0,0-1.41.75,4.06,4.06,0,0,0-.56,2.39,4.35,4.35,0,0,0,.54,2.46,1.62,1.62,0,0,0,1.37.76,1.47,1.47,0,0,0,1.12-.51A2.78,2.78,0,0,0,203.31,278.67Z"/><path class="cls-4" d="M205,277.57a5,5,0,0,1,.9-3.25,2.93,2.93,0,0,1,4.56,0,4.8,4.8,0,0,1,.91,3.16,5.23,5.23,0,0,1-.89,3.33,2.93,2.93,0,0,1-4.57,0A4.94,4.94,0,0,1,205,277.57Zm1.18,0a4,4,0,0,0,.59,2.4,1.76,1.76,0,0,0,1.45.79,1.69,1.69,0,0,0,1.39-.8,5.21,5.21,0,0,0,0-4.78,1.76,1.76,0,0,0-1.45-.78,1.68,1.68,0,0,0-1.4.79A4,4,0,0,0,206.16,277.56Z"/><path class="cls-4" d="M212.71,281.71v-8.29h1v1.17a2.63,2.63,0,0,1,.92-1,2.27,2.27,0,0,1,1.24-.34,2.4,2.4,0,0,1,1,.21,2.19,2.19,0,0,1,.75.57,2.36,2.36,0,0,1,.43.9,7.77,7.77,0,0,1,.14,1.7v5.1h-1.15v-5a4,4,0,0,0-.16-1.34,1.29,1.29,0,0,0-.49-.65,1.32,1.32,0,0,0-.77-.23,1.61,1.61,0,0,0-1.32.62,3.53,3.53,0,0,0-.49,2.12v4.53Z"/><path class="cls-4" d="M222.57,280.46l.16,1.24a3.61,3.61,0,0,1-.86.12,1.76,1.76,0,0,1-1-.24,1.17,1.17,0,0,1-.5-.65,6.29,6.29,0,0,1-.14-1.65v-4.77h-.84v-1.09h.84v-2.06l1.15-.84v2.9h1.16v1.09h-1.16v4.85a2.26,2.26,0,0,0,.1.87.57.57,0,0,0,.56.28A3.64,3.64,0,0,0,222.57,280.46Z"/><path class="cls-4" d="M228.31,279l1.19.18a3.61,3.61,0,0,1-1.08,2,3.06,3.06,0,0,1-4.26-.43,4.86,4.86,0,0,1-.9-3.16,5.15,5.15,0,0,1,.9-3.28,2.82,2.82,0,0,1,2.29-1.13,2.71,2.71,0,0,1,2.2,1.11,5.05,5.05,0,0,1,.88,3.21v.37h-5.08a3.55,3.55,0,0,0,.65,2.11,1.73,1.73,0,0,0,1.4.72C227.37,280.75,228,280.18,228.31,279Zm-3.79-2.27h3.8a3.17,3.17,0,0,0-.47-1.61,1.68,1.68,0,0,0-2.73-.13A2.82,2.82,0,0,0,224.52,276.77Z"/><path class="cls-4" d="M231,281.71v-8.29h1v1.17a2.61,2.61,0,0,1,.91-1,2.28,2.28,0,0,1,1.25-.34,2.44,2.44,0,0,1,1,.21,2.25,2.25,0,0,1,.74.57,2.22,2.22,0,0,1,.43.9,7.77,7.77,0,0,1,.14,1.7v5.1h-1.15v-5a4,4,0,0,0-.16-1.34,1.33,1.33,0,0,0-.48-.65,1.37,1.37,0,0,0-.77-.23,1.6,1.6,0,0,0-1.32.62,3.45,3.45,0,0,0-.5,2.12v4.53Z"/><path class="cls-4" d="M240.82,280.46l.15,1.24a3.54,3.54,0,0,1-.86.12,1.76,1.76,0,0,1-1-.24,1.17,1.17,0,0,1-.5-.65,6.29,6.29,0,0,1-.14-1.65v-4.77h-.84v-1.09h.84v-2.06l1.15-.84v2.9h1.17v1.09h-1.17v4.85a2.49,2.49,0,0,0,.1.87.57.57,0,0,0,.56.28A3.92,3.92,0,0,0,240.82,280.46Z"/><path class="cls-4" d="M24.5,273.06l-1.15.11a2.7,2.7,0,0,0-.48-1.25,1.4,1.4,0,0,0-1.11-.55,1.82,1.82,0,0,0-1.61,1.25,7.54,7.54,0,0,0-.53,3.19,3,3,0,0,1,1-1.14,2.28,2.28,0,0,1,1.27-.39,2.45,2.45,0,0,1,1.95,1,4.13,4.13,0,0,1,.83,2.7,5,5,0,0,1-.42,2.08,3,3,0,0,1-1.07,1.38,2.51,2.51,0,0,1-1.45.45,2.79,2.79,0,0,1-2.34-1.28,7.59,7.59,0,0,1-.92-4.28,8.86,8.86,0,0,1,.94-4.73,2.83,2.83,0,0,1,2.42-1.41,2.44,2.44,0,0,1,1.79.73A3.45,3.45,0,0,1,24.5,273.06ZM19.8,278a3.17,3.17,0,0,0,.58,2,1.71,1.71,0,0,0,1.36.75A1.51,1.51,0,0,0,23,280a3.2,3.2,0,0,0,.53-2A3,3,0,0,0,23,276.2a1.59,1.59,0,0,0-1.3-.67,1.65,1.65,0,0,0-1.3.66A2.7,2.7,0,0,0,19.8,278Z"/><path class="cls-4" d="M31.8,273.06l-1.15.11a2.7,2.7,0,0,0-.48-1.25,1.4,1.4,0,0,0-1.11-.55,1.85,1.85,0,0,0-1.62,1.25,7.86,7.86,0,0,0-.53,3.19,3,3,0,0,1,1-1.14,2.34,2.34,0,0,1,1.28-.39,2.48,2.48,0,0,1,1.95,1A4.13,4.13,0,0,1,32,278a5,5,0,0,1-.42,2.08,3.15,3.15,0,0,1-1.07,1.38,2.51,2.51,0,0,1-1.45.45,2.78,2.78,0,0,1-2.34-1.28,7.51,7.51,0,0,1-.92-4.28,8.86,8.86,0,0,1,.94-4.73,2.83,2.83,0,0,1,2.42-1.41,2.44,2.44,0,0,1,1.79.73A3.51,3.51,0,0,1,31.8,273.06ZM27.09,278a3.17,3.17,0,0,0,.59,2,1.69,1.69,0,0,0,1.36.75,1.49,1.49,0,0,0,1.21-.71,3.14,3.14,0,0,0,.54-2,3,3,0,0,0-.53-1.89,1.61,1.61,0,0,0-1.3-.67,1.67,1.67,0,0,0-1.31.66A2.76,2.76,0,0,0,27.09,278Z"/><path class="cls-4" d="M558.41,531.16l1.14-.21a2.07,2.07,0,0,0,.56,1.3,1.94,1.94,0,0,0,2.36.06,1.23,1.23,0,0,0,.41-.94.91.91,0,0,0-.36-.77,4.64,4.64,0,0,0-1.17-.47,8.74,8.74,0,0,1-1.8-.7,2,2,0,0,1-.7-.77,2.36,2.36,0,0,1-.25-1.11,2.31,2.31,0,0,1,.68-1.72,2.58,2.58,0,0,1,1.88-.67,3,3,0,0,1,1.34.28,2.13,2.13,0,0,1,.88.73,3.3,3.3,0,0,1,.42,1.32l-1.13.19a1.34,1.34,0,0,0-1.47-1.36,1.74,1.74,0,0,0-1.12.3.94.94,0,0,0-.37.77.87.87,0,0,0,.35.72,6.46,6.46,0,0,0,1.26.5,9.4,9.4,0,0,1,1.85.72,1.8,1.8,0,0,1,.65.74,2.38,2.38,0,0,1,.23,1.1,2.58,2.58,0,0,1-.75,1.93,2.82,2.82,0,0,1-2.06.74C559.61,533.84,558.67,533,558.41,531.16Z"/><path class="cls-4" d="M568,532.39l.15,1.24a3.1,3.1,0,0,1-.86.13,1.76,1.76,0,0,1-1-.24,1.24,1.24,0,0,1-.5-.65,6.39,6.39,0,0,1-.14-1.65v-4.77h-.84v-1.1h.84V523.3l1.15-.85v2.9H568v1.1h-1.17v4.85a2.42,2.42,0,0,0,.1.86.58.58,0,0,0,.56.29A2.86,2.86,0,0,0,568,532.39Z"/><path class="cls-4" d="M573.49,532.62a4,4,0,0,1-1.2.91,3,3,0,0,1-1.3.31,2.28,2.28,0,0,1-1.69-.64,2.38,2.38,0,0,1-.64-1.73,2.62,2.62,0,0,1,.3-1.27,2.27,2.27,0,0,1,.81-.87,4.33,4.33,0,0,1,1.57-.46,9,9,0,0,0,2.06-.49V528a1.84,1.84,0,0,0-.31-1.2,1.64,1.64,0,0,0-1.32-.5,1.85,1.85,0,0,0-1.2.33,2.21,2.21,0,0,0-.59,1.26l-1.13-.19a3.18,3.18,0,0,1,1-2,3.27,3.27,0,0,1,2.11-.61,3,3,0,0,1,1.68.41,1.67,1.67,0,0,1,.77,1,7,7,0,0,1,.16,1.74v1.87a23.12,23.12,0,0,0,.08,2.48,3.58,3.58,0,0,0,.29,1h-1.2A3.63,3.63,0,0,1,573.49,532.62Zm-.09-3.14a7.34,7.34,0,0,1-1.88.54,3.33,3.33,0,0,0-1,.28,1.21,1.21,0,0,0-.45.45,1.37,1.37,0,0,0-.16.68,1.24,1.24,0,0,0,.37,1,1.37,1.37,0,0,0,1,.35,2,2,0,0,0,1.12-.32,2,2,0,0,0,.76-.85,3.78,3.78,0,0,0,.25-1.56Z"/><path class="cls-4" d="M578.92,532.39l.16,1.24a3.21,3.21,0,0,1-.86.13,1.76,1.76,0,0,1-1-.24,1.19,1.19,0,0,1-.5-.65,6.39,6.39,0,0,1-.14-1.65v-4.77h-.84v-1.1h.84V523.3l1.15-.85v2.9h1.16v1.1h-1.16v4.85a2.2,2.2,0,0,0,.1.86.56.56,0,0,0,.55.29A2.86,2.86,0,0,0,578.92,532.39Z"/><path class="cls-4" d="M580,523.81V522.2h1.15v1.61Zm0,9.84v-8.3h1.15v8.3Z"/><path class="cls-4" d="M587.38,530.61l1.13.18a3.79,3.79,0,0,1-1,2.26,2.56,2.56,0,0,1-1.89.79,2.7,2.7,0,0,1-2.2-1.1,5.23,5.23,0,0,1-.86-3.25,5.09,5.09,0,0,1,.87-3.24,2.73,2.73,0,0,1,2.24-1.09,2.52,2.52,0,0,1,1.77.66,3.21,3.21,0,0,1,.93,2l-1.12.2a2.39,2.39,0,0,0-.57-1.25,1.3,1.3,0,0,0-1-.42,1.69,1.69,0,0,0-1.41.75,4,4,0,0,0-.56,2.4,4.38,4.38,0,0,0,.53,2.45,1.62,1.62,0,0,0,1.37.76,1.5,1.5,0,0,0,1.13-.5A2.89,2.89,0,0,0,587.38,530.61Z"/><path class="cls-4" d="M594.39,533.65l-2.09-8.3h1.19l1.08,4.79.4,1.78.36-1.71,1.08-4.86h1.19l1,4.81.35,1.59.39-1.6,1.16-4.8h1.12l-2.12,8.3h-1.2l-1.09-5-.26-1.41-1.37,6.38Z"/><path class="cls-4" d="M602.16,529.5a5,5,0,0,1,.91-3.24,2.9,2.9,0,0,1,4.55,0,4.79,4.79,0,0,1,.92,3.15,5.17,5.17,0,0,1-.9,3.33,2.92,2.92,0,0,1-4.57,0A5,5,0,0,1,602.16,529.5Zm1.18,0a4,4,0,0,0,.59,2.39,1.74,1.74,0,0,0,1.45.79,1.7,1.7,0,0,0,1.4-.79,4,4,0,0,0,.58-2.39,4,4,0,0,0-.59-2.39,1.74,1.74,0,0,0-1.45-.79,1.69,1.69,0,0,0-1.4.79A4.08,4.08,0,0,0,603.34,529.5Z"/><path class="cls-4" d="M609.9,533.65v-8.3h1v1.26a3.5,3.5,0,0,1,.73-1.16,1.12,1.12,0,0,1,.74-.29,2,2,0,0,1,1.18.46l-.39,1.3a1.43,1.43,0,0,0-.83-.3,1,1,0,0,0-.67.26,1.32,1.32,0,0,0-.43.71,6.36,6.36,0,0,0-.22,1.71v4.35Z"/><path class="cls-4" d="M618.67,533.65v-1a2.34,2.34,0,0,1-.8.92,2,2,0,0,1-1.07.32,2.58,2.58,0,0,1-2.08-1.14,5.16,5.16,0,0,1-.88-3.2,6.56,6.56,0,0,1,.39-2.4,3.23,3.23,0,0,1,1-1.46,2.35,2.35,0,0,1,1.44-.48,2,2,0,0,1,1.06.3,2.71,2.71,0,0,1,.81.84v-4.1h1.16v11.45ZM615,529.51a4.15,4.15,0,0,0,.56,2.39,1.61,1.61,0,0,0,1.3.78,1.56,1.56,0,0,0,1.28-.75,3.9,3.9,0,0,0,.54-2.27,4.66,4.66,0,0,0-.54-2.54,1.61,1.61,0,0,0-1.36-.8,1.5,1.5,0,0,0-1.25.77A4.36,4.36,0,0,0,615,529.51Z"/><path class="cls-4" d="M621.52,536.84l-.12-1.32a2,2,0,0,0,.66.13,1.11,1.11,0,0,0,.6-.15,1.14,1.14,0,0,0,.4-.46q0-.1.45-1.38l-2.59-8.31h1.24l1.43,4.8c.17.6.34,1.24.49,1.92.13-.64.28-1.27.47-1.89l1.45-4.83h1.16l-2.58,8.44a14.54,14.54,0,0,1-.81,2.19,2,2,0,0,1-.66.79,1.53,1.53,0,0,1-.84.25A1.94,1.94,0,0,1,621.52,536.84Z"/><path class="cls-4" d="M631.77,533.65V522.2h1.15v4.1a2.82,2.82,0,0,1,.92-.85,2.29,2.29,0,0,1,1.13-.29,2.17,2.17,0,0,1,1.71.7,3.8,3.8,0,0,1,.63,2.53v5.26h-1.15v-5.26a2.45,2.45,0,0,0-.38-1.55,1.28,1.28,0,0,0-1-.46,1.64,1.64,0,0,0-1.28.6,3.28,3.28,0,0,0-.53,2.13v4.54Z"/><path class="cls-4" d="M638.63,529.5a5,5,0,0,1,.91-3.24,2.9,2.9,0,0,1,4.55,0,4.79,4.79,0,0,1,.92,3.15,5.17,5.17,0,0,1-.9,3.33,2.92,2.92,0,0,1-4.57,0A5,5,0,0,1,638.63,529.5Zm1.18,0a4,4,0,0,0,.59,2.39,1.74,1.74,0,0,0,1.45.79,1.7,1.7,0,0,0,1.4-.79,4.11,4.11,0,0,0,.58-2.39,4,4,0,0,0-.59-2.39,1.74,1.74,0,0,0-1.45-.79,1.69,1.69,0,0,0-1.4.79A4,4,0,0,0,639.81,529.5Z"/><path class="cls-4" d="M645.93,529.5a5,5,0,0,1,.9-3.24,2.91,2.91,0,0,1,4.56,0,4.79,4.79,0,0,1,.91,3.15,5.23,5.23,0,0,1-.89,3.33,2.92,2.92,0,0,1-4.57,0A5,5,0,0,1,645.93,529.5Zm1.18,0a3.92,3.92,0,0,0,.59,2.39,1.74,1.74,0,0,0,1.45.79,1.67,1.67,0,0,0,1.39-.79,4,4,0,0,0,.58-2.39,4,4,0,0,0-.58-2.39,1.75,1.75,0,0,0-1.45-.79,1.68,1.68,0,0,0-1.4.79A4,4,0,0,0,647.11,529.5Z"/><path class="cls-4" d="M658.07,533.65v-1a2.42,2.42,0,0,1-.8.92,2,2,0,0,1-1.07.32,2.58,2.58,0,0,1-2.08-1.14,5.16,5.16,0,0,1-.88-3.2,6.56,6.56,0,0,1,.39-2.4,3.29,3.29,0,0,1,1-1.46,2.4,2.4,0,0,1,1.45-.48,2,2,0,0,1,1.06.3,2.58,2.58,0,0,1,.8.84v-4.1h1.17v11.45Zm-3.65-4.14a4.15,4.15,0,0,0,.56,2.39,1.6,1.6,0,0,0,1.3.78,1.56,1.56,0,0,0,1.28-.75,3.9,3.9,0,0,0,.54-2.27,4.66,4.66,0,0,0-.54-2.54,1.61,1.61,0,0,0-1.36-.8,1.49,1.49,0,0,0-1.25.77A4.36,4.36,0,0,0,654.42,529.51Z"/><path class="cls-4" d="M661.3,533.65v-1.6h1.31v1.6a3.28,3.28,0,0,1-.27,1.46,1.87,1.87,0,0,1-.8.8l-.32-.6a1.2,1.2,0,0,0,.53-.56,2.87,2.87,0,0,0,.2-1.1Z"/><path class="cls-4" d="M738.88,281.71V270.26H740v6.54l2.74-3.38h1.49l-2.6,3.08,2.86,5.21H743.1l-2.26-4.25-.82,1v3.29Z"/><path class="cls-4" d="M745.41,271.88v-1.62h1.15v1.62Zm0,9.83v-8.29h1.15v8.29Z"/><path class="cls-4" d="M748.33,281.71v-8.29h1v1.17a2.61,2.61,0,0,1,.91-1,2.28,2.28,0,0,1,1.25-.34,2.44,2.44,0,0,1,1,.21,2,2,0,0,1,1.17,1.47,7.77,7.77,0,0,1,.14,1.7v5.1H752.7v-5a4.39,4.39,0,0,0-.15-1.34,1.41,1.41,0,0,0-.49-.65,1.34,1.34,0,0,0-.77-.23,1.61,1.61,0,0,0-1.32.62,3.46,3.46,0,0,0-.49,2.12v4.53Z"/><path class="cls-4" d="M760,281.71v-1a2.39,2.39,0,0,1-.8.91,1.89,1.89,0,0,1-1.07.32,2.58,2.58,0,0,1-2.08-1.14,5.13,5.13,0,0,1-.88-3.19,6.48,6.48,0,0,1,.39-2.4,3.18,3.18,0,0,1,1-1.46,2.4,2.4,0,0,1,1.45-.48,2,2,0,0,1,1.06.3,2.51,2.51,0,0,1,.81.84v-4.11h1.16v11.45Zm-3.65-4.14a4.13,4.13,0,0,0,.56,2.39,1.61,1.61,0,0,0,1.3.79,1.56,1.56,0,0,0,1.28-.75,3.9,3.9,0,0,0,.54-2.27,4.63,4.63,0,0,0-.54-2.54,1.59,1.59,0,0,0-1.36-.8,1.48,1.48,0,0,0-1.25.77A4.32,4.32,0,0,0,756.38,277.57Z"/><path class="cls-4" d="M766.13,277.57a5,5,0,0,1,.91-3.25,2.92,2.92,0,0,1,4.55,0,4.8,4.8,0,0,1,.92,3.16,5.17,5.17,0,0,1-.9,3.33,2.93,2.93,0,0,1-4.57,0A5,5,0,0,1,766.13,277.57Zm1.18,0a4,4,0,0,0,.59,2.4,1.76,1.76,0,0,0,1.45.79,1.72,1.72,0,0,0,1.4-.8,4.11,4.11,0,0,0,.58-2.39,4,4,0,0,0-.59-2.39,1.75,1.75,0,0,0-1.45-.78,1.69,1.69,0,0,0-1.4.79A4,4,0,0,0,767.31,277.56Z"/><path class="cls-4" d="M774.19,281.71v-7.2h-1v-1.09h1v-.89a4.1,4.1,0,0,1,.2-1.46,1.59,1.59,0,0,1,.62-.75,2,2,0,0,1,1.06-.25,4.85,4.85,0,0,1,1.08.14l-.17,1.22a3.39,3.39,0,0,0-.68-.08.9.9,0,0,0-.74.27,1.71,1.71,0,0,0-.22,1v.77h1.32v1.09h-1.32v7.2Z"/><path class="cls-4" d="M780.72,279.23l1.15-.22a2,2,0,0,0,.55,1.31,1.69,1.69,0,0,0,1.2.43,1.65,1.65,0,0,0,1.16-.38,1.21,1.21,0,0,0,.41-.94.91.91,0,0,0-.35-.76,4.55,4.55,0,0,0-1.18-.47,8.94,8.94,0,0,1-1.79-.7,2.13,2.13,0,0,1-.71-.78,2.44,2.44,0,0,1-.25-1.1,2.34,2.34,0,0,1,.68-1.73,2.61,2.61,0,0,1,1.89-.66,3.1,3.1,0,0,1,1.33.27,2.22,2.22,0,0,1,.88.74,3.2,3.2,0,0,1,.42,1.32l-1.13.19a1.34,1.34,0,0,0-1.47-1.36,1.76,1.76,0,0,0-1.12.3.94.94,0,0,0-.37.76.83.83,0,0,0,.36.72,5.17,5.17,0,0,0,1.25.5,9.9,9.9,0,0,1,1.85.73,1.77,1.77,0,0,1,.65.73,2.39,2.39,0,0,1,.24,1.11,2.58,2.58,0,0,1-.76,1.93,2.82,2.82,0,0,1-2.06.73C781.92,281.9,781,281,780.72,279.23Z"/><path class="cls-4" d="M792.38,279l1.18.18a3.6,3.6,0,0,1-1.07,2,3.07,3.07,0,0,1-4.27-.43,4.92,4.92,0,0,1-.89-3.16,5.15,5.15,0,0,1,.9-3.28,2.81,2.81,0,0,1,2.29-1.13,2.71,2.71,0,0,1,2.2,1.11,5.05,5.05,0,0,1,.88,3.21v.37h-5.07a3.55,3.55,0,0,0,.64,2.11,1.76,1.76,0,0,0,1.41.72C791.43,280.75,792,280.18,792.38,279Zm-3.79-2.27h3.79a3.08,3.08,0,0,0-.46-1.61,1.68,1.68,0,0,0-2.73-.13A2.76,2.76,0,0,0,788.59,276.77Z"/><path class="cls-4" d="M795,281.71v-8.29h1v1.15a2.58,2.58,0,0,1,.88-1,2.17,2.17,0,0,1,1.18-.35,1.94,1.94,0,0,1,1.21.37,2,2,0,0,1,.71,1.07,3.06,3.06,0,0,1,.94-1.08,2,2,0,0,1,1.17-.36,1.91,1.91,0,0,1,1.54.66,3.25,3.25,0,0,1,.57,2.13v5.69h-1.15v-5.23a4.16,4.16,0,0,0-.13-1.26,1.2,1.2,0,0,0-.42-.58,1.14,1.14,0,0,0-.65-.2,1.49,1.49,0,0,0-1.22.59,3,3,0,0,0-.47,1.86v4.82h-1.15v-5.39a2.52,2.52,0,0,0-.32-1.46,1,1,0,0,0-.87-.42,1.43,1.43,0,0,0-1.24.64,4.16,4.16,0,0,0-.46,2.32v4.31Z"/><path class="cls-4" d="M806,271.88v-1.62h1.15v1.62Zm0,9.83v-8.29h1.15v8.29Z"/><path class="cls-4" d="M808.43,278.28v-1.42H812v1.42Z"/><path class="cls-4" d="M815.8,280.46l.15,1.24a3.48,3.48,0,0,1-.86.12,1.76,1.76,0,0,1-1-.24,1.17,1.17,0,0,1-.5-.65,6.29,6.29,0,0,1-.14-1.65v-4.77h-.84v-1.09h.84v-2.06l1.15-.84v2.9h1.17v1.09h-1.17v4.85a2.49,2.49,0,0,0,.1.87.57.57,0,0,0,.56.28A3.92,3.92,0,0,0,815.8,280.46Z"/><path class="cls-4" d="M816.88,281.71V270.26H818v4.11a3,3,0,0,1,.92-.86,2.28,2.28,0,0,1,1.13-.28,2.2,2.2,0,0,1,1.71.69,3.84,3.84,0,0,1,.63,2.54v5.25h-1.15v-5.25a2.43,2.43,0,0,0-.38-1.55,1.29,1.29,0,0,0-1-.47,1.64,1.64,0,0,0-1.28.6,3.28,3.28,0,0,0-.53,2.13v4.54Z"/><path class="cls-4" d="M828.83,279l1.19.18a3.61,3.61,0,0,1-1.08,2,3.06,3.06,0,0,1-4.26-.43,4.86,4.86,0,0,1-.9-3.16,5.15,5.15,0,0,1,.9-3.28,2.84,2.84,0,0,1,2.29-1.13,2.71,2.71,0,0,1,2.2,1.11,5.05,5.05,0,0,1,.88,3.21v.37H825a3.55,3.55,0,0,0,.65,2.11,1.73,1.73,0,0,0,1.4.72C827.89,280.75,828.49,280.18,828.83,279ZM825,276.77h3.8a3.28,3.28,0,0,0-.46-1.61,1.69,1.69,0,0,0-1.42-.77,1.67,1.67,0,0,0-1.32.64A2.88,2.88,0,0,0,825,276.77Z"/><path class="cls-4" d="M831.48,281.71v-8.29h1v1.25a3.45,3.45,0,0,1,.73-1.16,1.1,1.1,0,0,1,.74-.28,2,2,0,0,1,1.18.45l-.39,1.31a1.38,1.38,0,0,0-.83-.31,1.05,1.05,0,0,0-.68.26,1.44,1.44,0,0,0-.43.72,6.79,6.79,0,0,0-.22,1.71v4.34Z"/><path class="cls-4" d="M840.49,279l1.19.18a3.67,3.67,0,0,1-1.07,2,3.07,3.07,0,0,1-4.27-.43,4.86,4.86,0,0,1-.89-3.16,5.15,5.15,0,0,1,.9-3.28,2.8,2.8,0,0,1,2.28-1.13,2.72,2.72,0,0,1,2.21,1.11,5.11,5.11,0,0,1,.88,3.21v.37h-5.08a3.62,3.62,0,0,0,.65,2.11,1.76,1.76,0,0,0,1.41.72Q840,280.75,840.49,279Zm-3.79-2.27h3.8a3.18,3.18,0,0,0-.46-1.61,1.66,1.66,0,0,0-1.42-.77,1.68,1.68,0,0,0-1.32.64A2.88,2.88,0,0,0,836.7,276.77Z"/><path class="cls-4" d="M743.28,299.89a4.33,4.33,0,0,1-1.2.91,3,3,0,0,1-1.3.3,2.25,2.25,0,0,1-1.69-.64,2.32,2.32,0,0,1-.64-1.73,2.62,2.62,0,0,1,.3-1.27,2.27,2.27,0,0,1,.81-.87,4.33,4.33,0,0,1,1.56-.46,9,9,0,0,0,2.07-.49v-.36a1.84,1.84,0,0,0-.31-1.2,1.67,1.67,0,0,0-1.32-.5,1.83,1.83,0,0,0-1.2.34,2.18,2.18,0,0,0-.59,1.25l-1.13-.19a3.12,3.12,0,0,1,1-1.94,3.22,3.22,0,0,1,2.11-.61,3,3,0,0,1,1.68.4,1.73,1.73,0,0,1,.77,1,6.87,6.87,0,0,1,.16,1.73v1.88a23.12,23.12,0,0,0,.08,2.48,3.51,3.51,0,0,0,.29,1h-1.2A3.48,3.48,0,0,1,743.28,299.89Zm-.09-3.14a7.37,7.37,0,0,1-1.89.53,3.28,3.28,0,0,0-1,.29,1.08,1.08,0,0,0-.45.45,1.33,1.33,0,0,0-.16.67,1.23,1.23,0,0,0,.37.95,1.37,1.37,0,0,0,1,.36,2.06,2.06,0,0,0,1.12-.32,2,2,0,0,0,.76-.86,3.88,3.88,0,0,0,.25-1.56Z"/><path class="cls-4" d="M746.15,300.91v-8.29h1v1.17a2.61,2.61,0,0,1,.91-1,2.28,2.28,0,0,1,1.25-.34,2.44,2.44,0,0,1,1,.21,2.08,2.08,0,0,1,.75.57,2.21,2.21,0,0,1,.42.9,7.77,7.77,0,0,1,.14,1.7v5.1h-1.15v-5.05a4.34,4.34,0,0,0-.15-1.34,1.36,1.36,0,0,0-.49-.65,1.34,1.34,0,0,0-.77-.23,1.61,1.61,0,0,0-1.32.62,3.46,3.46,0,0,0-.49,2.12v4.53Z"/><path class="cls-4" d="M757.85,300.91v-1a2.31,2.31,0,0,1-.8.91,1.89,1.89,0,0,1-1.07.32A2.58,2.58,0,0,1,753.9,300a5.14,5.14,0,0,1-.88-3.2,6.47,6.47,0,0,1,.39-2.39,3.13,3.13,0,0,1,1.05-1.46,2.35,2.35,0,0,1,1.44-.48,2,2,0,0,1,1.06.3,2.51,2.51,0,0,1,.81.84v-4.11h1.16v11.45Zm-3.65-4.14a4.13,4.13,0,0,0,.56,2.39,1.6,1.6,0,0,0,1.3.78,1.56,1.56,0,0,0,1.28-.75,3.86,3.86,0,0,0,.54-2.26,4.63,4.63,0,0,0-.54-2.54,1.6,1.6,0,0,0-1.36-.81,1.5,1.5,0,0,0-1.25.77A4.38,4.38,0,0,0,754.2,296.77Z"/><path class="cls-4" d="M764,298.43l1.14-.22a2.1,2.1,0,0,0,.56,1.31,1.69,1.69,0,0,0,1.2.42,1.62,1.62,0,0,0,1.15-.37,1.18,1.18,0,0,0,.41-.94.88.88,0,0,0-.35-.76,4,4,0,0,0-1.17-.47,8.61,8.61,0,0,1-1.8-.71,2,2,0,0,1-.7-.77,2.54,2.54,0,0,1,.43-2.83,2.58,2.58,0,0,1,1.88-.66,3.14,3.14,0,0,1,1.34.27,2.05,2.05,0,0,1,.87.74,3,3,0,0,1,.43,1.32l-1.13.18a1.35,1.35,0,0,0-1.48-1.36,1.71,1.71,0,0,0-1.11.3.94.94,0,0,0-.37.77.85.85,0,0,0,.35.72,5.91,5.91,0,0,0,1.25.5,9.13,9.13,0,0,1,1.86.73,1.84,1.84,0,0,1,.65.73,2.39,2.39,0,0,1,.23,1.11,2.61,2.61,0,0,1-.75,1.93,2.82,2.82,0,0,1-2.06.73C765.15,301.1,764.21,300.21,764,298.43Z"/><path class="cls-4" d="M771,300.91V289.46h1.15v4.11a2.86,2.86,0,0,1,.92-.86,2.28,2.28,0,0,1,1.13-.28,2.2,2.2,0,0,1,1.71.69,3.84,3.84,0,0,1,.63,2.54v5.25h-1.15v-5.25a2.43,2.43,0,0,0-.38-1.55,1.29,1.29,0,0,0-1.05-.47,1.64,1.64,0,0,0-1.28.6,3.28,3.28,0,0,0-.53,2.13v4.54Z"/><path class="cls-4" d="M778.21,304.11l-.12-1.32a2.2,2.2,0,0,0,.65.12,1.13,1.13,0,0,0,.61-.15,1,1,0,0,0,.39-.46c0-.07.19-.53.46-1.37l-2.59-8.31h1.24l1.42,4.8c.18.6.34,1.24.5,1.92.13-.65.28-1.28.46-1.89l1.46-4.83h1.15l-2.58,8.43a14.66,14.66,0,0,1-.8,2.2,2.23,2.23,0,0,1-.66.79,1.53,1.53,0,0,1-.85.24A2.1,2.1,0,0,1,778.21,304.11Z"/><path class="cls-4" d="M784.2,300.91v-1.6h1.32v1.6a3.11,3.11,0,0,1-.28,1.46,1.93,1.93,0,0,1-.79.81l-.32-.6a1.25,1.25,0,0,0,.53-.56,2.81,2.81,0,0,0,.19-1.11Z"/><path class="cls-4" d="M923.28,28.88a4.1,4.1,0,0,1-1.2.9,3,3,0,0,1-1.3.31,2.28,2.28,0,0,1-1.69-.64,2.34,2.34,0,0,1-.64-1.73,2.62,2.62,0,0,1,.3-1.27,2.27,2.27,0,0,1,.81-.87,4.33,4.33,0,0,1,1.56-.46,8.4,8.4,0,0,0,2.07-.5v-.35a1.84,1.84,0,0,0-.31-1.2,1.67,1.67,0,0,0-1.32-.5,1.83,1.83,0,0,0-1.2.33,2.21,2.21,0,0,0-.59,1.26L918.65,24a3.18,3.18,0,0,1,1-1.95,3.27,3.27,0,0,1,2.11-.61,3,3,0,0,1,1.68.41,1.71,1.71,0,0,1,.77,1,7,7,0,0,1,.16,1.74v1.87a23.12,23.12,0,0,0,.08,2.48,3.58,3.58,0,0,0,.29,1h-1.2A3.64,3.64,0,0,1,923.28,28.88Zm-.09-3.15a7.31,7.31,0,0,1-1.89.54,3.33,3.33,0,0,0-1,.28,1.21,1.21,0,0,0-.45.45,1.37,1.37,0,0,0-.16.68,1.24,1.24,0,0,0,.37.95,1.37,1.37,0,0,0,1,.35,2,2,0,0,0,1.12-.32,2,2,0,0,0,.76-.85,4,4,0,0,0,.25-1.56Z"/><path class="cls-4" d="M934.25,26.86l1.13.18a3.73,3.73,0,0,1-1,2.26,2.54,2.54,0,0,1-1.88.79,2.67,2.67,0,0,1-2.2-1.1,5.16,5.16,0,0,1-.87-3.25,5.09,5.09,0,0,1,.87-3.24,2.75,2.75,0,0,1,2.24-1.09,2.53,2.53,0,0,1,1.78.66,3.26,3.26,0,0,1,.93,2l-1.12.2a2.39,2.39,0,0,0-.57-1.25,1.32,1.32,0,0,0-1-.42,1.69,1.69,0,0,0-1.41.75,4.1,4.1,0,0,0-.56,2.4,4.29,4.29,0,0,0,.54,2.45,1.59,1.59,0,0,0,1.37.76,1.48,1.48,0,0,0,1.12-.5A2.74,2.74,0,0,0,934.25,26.86Z"/><path class="cls-4" d="M936.36,29.9V18.45h1.15v4.1a2.73,2.73,0,0,1,.92-.85,2.25,2.25,0,0,1,1.12-.29,2.18,2.18,0,0,1,1.72.7,3.8,3.8,0,0,1,.63,2.53V29.9h-1.15V24.64a2.52,2.52,0,0,0-.38-1.55,1.31,1.31,0,0,0-1.06-.47,1.63,1.63,0,0,0-1.27.61,3.22,3.22,0,0,0-.53,2.13V29.9Z"/><path class="cls-4" d="M948.3,27.23l1.19.18a3.61,3.61,0,0,1-1.07,2,2.84,2.84,0,0,1-1.93.68,2.89,2.89,0,0,1-2.34-1.1,5,5,0,0,1-.89-3.17,5.19,5.19,0,0,1,.9-3.28,2.81,2.81,0,0,1,2.29-1.13,2.71,2.71,0,0,1,2.2,1.11,5.05,5.05,0,0,1,.88,3.21v.38h-5.07a3.57,3.57,0,0,0,.64,2.11,1.78,1.78,0,0,0,1.41.71C947.36,28.93,948,28.36,948.3,27.23ZM944.52,25h3.79a3.11,3.11,0,0,0-.46-1.61,1.68,1.68,0,0,0-2.73-.13A2.76,2.76,0,0,0,944.52,25Z"/><path class="cls-4" d="M955.38,28.88a4.1,4.1,0,0,1-1.2.9,3,3,0,0,1-1.3.31,2.28,2.28,0,0,1-1.69-.64,2.38,2.38,0,0,1-.64-1.73,2.62,2.62,0,0,1,.3-1.27,2.27,2.27,0,0,1,.81-.87,4.33,4.33,0,0,1,1.57-.46,8.42,8.42,0,0,0,2.06-.5v-.35a1.78,1.78,0,0,0-.31-1.2,1.64,1.64,0,0,0-1.32-.5,1.85,1.85,0,0,0-1.2.33,2.21,2.21,0,0,0-.59,1.26L950.75,24a3.18,3.18,0,0,1,1-1.95,3.27,3.27,0,0,1,2.11-.61,3,3,0,0,1,1.68.41,1.67,1.67,0,0,1,.77,1,7,7,0,0,1,.16,1.74v1.87a23.12,23.12,0,0,0,.08,2.48,3.58,3.58,0,0,0,.29,1h-1.2A3.64,3.64,0,0,1,955.38,28.88Zm-.09-3.15a7.34,7.34,0,0,1-1.88.54,3.33,3.33,0,0,0-1,.28,1.21,1.21,0,0,0-.45.45,1.37,1.37,0,0,0-.16.68,1.24,1.24,0,0,0,.37.95,1.37,1.37,0,0,0,1,.35A2,2,0,0,0,955,27.81a3.78,3.78,0,0,0,.25-1.56Z"/><path class="cls-4" d="M958.25,33.08V21.6h1.06v1.08a2.7,2.7,0,0,1,.87-1,2,2,0,0,1,1.09-.3,2.36,2.36,0,0,1,1.45.48,3.26,3.26,0,0,1,1,1.45,6.09,6.09,0,0,1,.4,2.34,5.23,5.23,0,0,1-.89,3.26,2.61,2.61,0,0,1-2.08,1.15,1.81,1.81,0,0,1-1-.28,2.44,2.44,0,0,1-.8-.77v4Zm1-7.28a4.15,4.15,0,0,0,.54,2.37,1.46,1.46,0,0,0,2.58,0A4.29,4.29,0,0,0,963,25.7a4.26,4.26,0,0,0-.54-2.4,1.42,1.42,0,0,0-2.57.06A4.33,4.33,0,0,0,959.3,25.8Z"/><path class="cls-4" d="M971.76,28.64l.15,1.24a3.1,3.1,0,0,1-.86.13,1.71,1.71,0,0,1-1-.24,1.21,1.21,0,0,1-.51-.65,6.54,6.54,0,0,1-.13-1.65V22.7h-.85V21.6h.85V19.55l1.14-.85v2.9h1.17v1.1h-1.17v4.85a2.14,2.14,0,0,0,.11.86.56.56,0,0,0,.55.29A2.86,2.86,0,0,0,971.76,28.64Z"/><path class="cls-4" d="M972.84,29.9V21.6h1v1.26a3.67,3.67,0,0,1,.73-1.16,1.12,1.12,0,0,1,.75-.29,2,2,0,0,1,1.18.46l-.39,1.3a1.49,1.49,0,0,0-.84-.3,1,1,0,0,0-.67.25,1.45,1.45,0,0,0-.43.72,6.79,6.79,0,0,0-.22,1.71V29.9Z"/><path class="cls-4" d="M977.21,20.06V18.45h1.15v1.61Zm0,9.84V21.6h1.15v8.3Z"/><path class="cls-4" d="M984.58,26.86l1.13.18a3.79,3.79,0,0,1-1,2.26,2.55,2.55,0,0,1-1.89.79,2.7,2.7,0,0,1-2.2-1.1,5.23,5.23,0,0,1-.86-3.25,5.09,5.09,0,0,1,.87-3.24,2.73,2.73,0,0,1,2.24-1.09,2.55,2.55,0,0,1,1.78.66,3.2,3.2,0,0,1,.92,2l-1.11.2a2.39,2.39,0,0,0-.57-1.25,1.32,1.32,0,0,0-1-.42,1.69,1.69,0,0,0-1.41.75,4.1,4.1,0,0,0-.56,2.4,4.29,4.29,0,0,0,.54,2.45,1.59,1.59,0,0,0,1.37.76,1.5,1.5,0,0,0,1.12-.5A2.74,2.74,0,0,0,984.58,26.86Z"/><path class="cls-4" d="M986.71,29.9V18.45h1.15V25l2.74-3.39h1.49l-2.6,3.08,2.86,5.22h-1.42l-2.26-4.25-.81,1V29.9Z"/><path class="cls-4" d="M923.26,49.1V48.05a2.36,2.36,0,0,1-.81.92,1.94,1.94,0,0,1-1.06.32,2.57,2.57,0,0,1-2.08-1.14,5.12,5.12,0,0,1-.88-3.2,6.56,6.56,0,0,1,.39-2.4,3.29,3.29,0,0,1,1-1.46,2.4,2.4,0,0,1,1.45-.48,1.94,1.94,0,0,1,1.05.3,2.51,2.51,0,0,1,.81.84v-4.1h1.17V49.1ZM919.61,45a4.15,4.15,0,0,0,.56,2.39,1.58,1.58,0,0,0,1.3.78,1.55,1.55,0,0,0,1.27-.75,3.9,3.9,0,0,0,.54-2.27,4.63,4.63,0,0,0-.54-2.54,1.6,1.6,0,0,0-1.36-.8,1.52,1.52,0,0,0-1.25.77A4.37,4.37,0,0,0,919.61,45ZM929,48.13c.87,0,1.47-.57,1.81-1.7l1.18.18a3.55,3.55,0,0,1-1.07,2,2.84,2.84,0,0,1-1.93.68,2.89,2.89,0,0,1-2.34-1.1,5,5,0,0,1-.89-3.17,5.19,5.19,0,0,1,.9-3.28,2.81,2.81,0,0,1,2.29-1.13,2.71,2.71,0,0,1,2.2,1.11,5.05,5.05,0,0,1,.88,3.21v.38h-5.07a3.6,3.6,0,0,0,.64,2.11,1.78,1.78,0,0,0,1.41.71Zm-2-4h3.79a3.11,3.11,0,0,0-.46-1.61,1.68,1.68,0,0,0-2.73-.13A2.76,2.76,0,0,0,927,44.15Zm6.75,5V41.9h-1V40.8h1V40a3.14,3.14,0,0,1,.48-2,1.62,1.62,0,0,1,1.33-.6,3.68,3.68,0,0,1,1.17.18l-.18,1.19a2.87,2.87,0,0,0-.62-.07,1,1,0,0,0-.82.28,2.32,2.32,0,0,0-.22,1.23v.54h1.32v1.1H934.9v7.2Zm3.33-9.84V37.65h1.15v1.61Zm0,9.84V40.8h1.15v8.3Zm2.91,0V40.8h1V42a2.78,2.78,0,0,1,.92-1,2.33,2.33,0,0,1,1.24-.34,2.41,2.41,0,0,1,1,.22,2.05,2.05,0,0,1,.75.56,2.36,2.36,0,0,1,.43.9,7.81,7.81,0,0,1,.14,1.71v5.1h-1.15V44.05a4,4,0,0,0-.16-1.34,1.25,1.25,0,0,0-.49-.65,1.26,1.26,0,0,0-.77-.24,1.61,1.61,0,0,0-1.32.62,3.53,3.53,0,0,0-.49,2.12V49.1Zm7.3-9.84V37.65h1.15v1.61Zm0,9.84V40.8h1.15v8.3Zm5-1.2a2.67,2.67,0,0,0,.5-.06l.16,1.24a3.15,3.15,0,0,1-.86.13,1.76,1.76,0,0,1-1-.24,1.24,1.24,0,0,1-.5-.65,6.39,6.39,0,0,1-.14-1.65V41.9h-.84V40.8h.84v-2l1.15-.85v2.9h1.16v1.1h-1.16v4.85a2.23,2.23,0,0,0,.1.86.58.58,0,0,0,.56.29Zm4.43.23c.87,0,1.47-.57,1.81-1.7l1.19.18a3.62,3.62,0,0,1-1.08,2,2.83,2.83,0,0,1-1.92.68,2.86,2.86,0,0,1-2.34-1.1,4.89,4.89,0,0,1-.9-3.17,5.19,5.19,0,0,1,.9-3.28,2.82,2.82,0,0,1,2.29-1.13,2.71,2.71,0,0,1,2.2,1.11,5.05,5.05,0,0,1,.88,3.21v.38h-5.08a3.6,3.6,0,0,0,.65,2.11,1.75,1.75,0,0,0,1.4.71Zm-2-4h3.8a3.2,3.2,0,0,0-.47-1.61,1.68,1.68,0,0,0-2.73-.13A2.88,2.88,0,0,0,954.72,44.15Zm6.4,5V37.65h1.14V49.1Zm3.65,3.37a1.85,1.85,0,0,1-.74-.18L963.9,51a2.06,2.06,0,0,0,.66.13,1.13,1.13,0,0,0,.61-.15,1.06,1.06,0,0,0,.39-.46q.06-.1.45-1.38l-2.58-8.31h1.24l1.42,4.8c.18.6.34,1.24.49,1.92.13-.64.29-1.27.47-1.89l1.46-4.83h1.15l-2.58,8.44a16.16,16.16,0,0,1-.8,2.19,2.07,2.07,0,0,1-.67.79,1.51,1.51,0,0,1-.84.25ZM970,49.1V47.5h1.31v1.6Z"/><path class="cls-4" d="M924.5,525l-1.15.11a2.8,2.8,0,0,0-.48-1.25,1.43,1.43,0,0,0-1.11-.55,1.82,1.82,0,0,0-1.61,1.25,7.57,7.57,0,0,0-.53,3.19,2.85,2.85,0,0,1,1-1.13,2.28,2.28,0,0,1,1.27-.39,2.46,2.46,0,0,1,2,1,4.18,4.18,0,0,1,.83,2.71,5,5,0,0,1-.42,2.08,3.13,3.13,0,0,1-1.07,1.38,2.5,2.5,0,0,1-1.45.44,2.77,2.77,0,0,1-2.34-1.28,7.55,7.55,0,0,1-.92-4.27,8.86,8.86,0,0,1,.94-4.73,2.83,2.83,0,0,1,2.42-1.41,2.41,2.41,0,0,1,1.79.73A3.42,3.42,0,0,1,924.5,525Zm-4.7,5a3.14,3.14,0,0,0,.58,2,1.69,1.69,0,0,0,1.36.76A1.53,1.53,0,0,0,923,532a3.26,3.26,0,0,0,.53-2,3,3,0,0,0-.53-1.89,1.59,1.59,0,0,0-1.3-.67,1.63,1.63,0,0,0-1.3.67A2.69,2.69,0,0,0,919.8,529.94Z"/><path class="cls-4" d="M925.9,523.7v-1.36H932v1.1a17,17,0,0,0-2.39,4.6,19.56,19.56,0,0,0-1.19,5.61h-1.18a16.86,16.86,0,0,1,.46-3.35,19.74,19.74,0,0,1,1.19-3.65,15.81,15.81,0,0,1,1.62-2.95Z"/><g class="cls-2"><path class="cls-3" d="M424.44,77.79l0-1.05a401.75,401.75,0,0,0-1,71,433,433,0,0,0,7.94,53.57q2.29,14.28,9.11,24.17c6.08,9.14,14.11,15,22.29,17.24,4.42,1.22,9.44,2.66,13.95,2.36"/></g><polyline class="cls-3" points="485.88 19.28 432.2 164 414.12 213.26"/><g class="cls-2"><path class="cls-3" d="M601.2,76.43c3.37-1,7.33-.63,10.8-.6"/><path class="cls-3" d="M644.2,47.72a3.36,3.36,0,0,1-1.75-.68c-.17-.09-2.2-1.4-2.75-1.31,10.53-1.39,21.2-1.13,31.78-1.93a19.11,19.11,0,0,0,3.85-.55,2.62,2.62,0,0,1,.71-.17c-2.1.07-4.18-.06-6.28.19a8.39,8.39,0,0,1-4.16-.35c-.4-.16-2.17-.91-2-1.46a.71.71,0,0,0,.68-.47c-.31-.25-.6-.52-.92-.75a10.13,10.13,0,0,1,2.86-.05q4.69-.09,9.39.13c1.28.12,2.09.42,3.23.6a29.64,29.64,0,0,1-6.18.49c2.66,0,5.39-.18,8,0a26.87,26.87,0,0,1-6.22-1.22,10.23,10.23,0,0,1,1.11,0"/></g><line class="cls-3" x1="660.76" y1="18.12" x2="701.55" y2="18.12"/><g class="cls-2"><path class="cls-3" d="M790.16,27.63c-.79-2.57-2.36-5.47-4.71-6.71C774,14.61,764.76,12,752,11c-4.34-.34-8.31,2.57-12.45,3.4,0,.62-.44,1.45-1.18.89-.37-.29-.09-1.53-.1-2"/></g></g></svg>