<svg id="Layer_1" data-name="Layer 1" xmlns="http://www.w3.org/2000/svg" xmlns:xlink="http://www.w3.org/1999/xlink" viewBox="0 0 1080 756"><defs><style>.cls-1,.cls-3{fill:none;}.cls-2{clip-path:url(#clip-path);}.cls-3{stroke:#231f20;stroke-width:0.25px;}.cls-4{fill:#231f20;}</style><clipPath id="clip-path"><rect class="cls-1" width="1080" height="756"/></clipPath></defs><title>Untitled-3</title><g class="cls-2"><g class="cls-2"><line class="cls-3" x1="180" y1="-18.36" x2="180" y2="790.92"/><line class="cls-3" x1="720" y1="-20.88" x2="720" y2="788.4"/><line class="cls-3" x1="359.88" y1="-18.36" x2="359.88" y2="790.92"/><line class="cls-3" x1="899.87" y1="-20.88" x2="899.87" y2="788.4"/><line class="cls-3" x1="-16.92" y1="251.88" x2="1101.6" y2="251.88"/><line class="cls-3" x1="-11.52" y1="504.13" x2="1107" y2="504.13"/><line class="cls-3" x1="540" y1="-19.44" x2="540" y2="789.84"/></g><path class="cls-4" d="M203.28,28.62a4,4,0,0,1-1.2.91,3,3,0,0,1-1.3.31,2.28,2.28,0,0,1-1.69-.64,2.34,2.34,0,0,1-.64-1.73,2.62,2.62,0,0,1,.3-1.27,2.27,2.27,0,0,1,.81-.87,4.33,4.33,0,0,1,1.56-.46,9,9,0,0,0,2.07-.49V24a1.84,1.84,0,0,0-.31-1.2,1.67,1.67,0,0,0-1.32-.5,1.83,1.83,0,0,0-1.2.33,2.21,2.21,0,0,0-.59,1.26l-1.13-.19a3.18,3.18,0,0,1,1-1.95,3.27,3.27,0,0,1,2.11-.61,3,3,0,0,1,1.68.41,1.71,1.71,0,0,1,.77,1,7,7,0,0,1,.16,1.74v1.87a23.12,23.12,0,0,0,.08,2.48,3.58,3.58,0,0,0,.29,1h-1.2A3.63,3.63,0,0,1,203.28,28.62Zm-.09-3.14a7.31,7.31,0,0,1-1.89.54,3.33,3.33,0,0,0-1,.28,1.21,1.21,0,0,0-.45.45,1.37,1.37,0,0,0-.16.68,1.24,1.24,0,0,0,.37.95,1.37,1.37,0,0,0,1,.35,2,2,0,0,0,1.12-.32,2,2,0,0,0,.76-.85,4,4,0,0,0,.25-1.56Z"/><path class="cls-4" d="M210.6,29.65V28.43a2.86,2.86,0,0,1-.94,1.05,2.13,2.13,0,0,1-1.21.36,2.21,2.21,0,0,1-1.38-.44,2.06,2.06,0,0,1-.76-1.1,6.66,6.66,0,0,1-.19-1.81V21.35h1.15V26a7.82,7.82,0,0,0,.12,1.72,1.32,1.32,0,0,0,.48.69,1.25,1.25,0,0,0,.79.26A1.64,1.64,0,0,0,210,28a3.64,3.64,0,0,0,.46-2.15V21.35h1.15v8.3Z"/><path class="cls-4" d="M216,28.39l.15,1.24a3.1,3.1,0,0,1-.86.13,1.71,1.71,0,0,1-1-.24,1.21,1.21,0,0,1-.51-.65,6.54,6.54,0,0,1-.13-1.65V22.45h-.85v-1.1h.85V19.3l1.14-.85v2.9H216v1.1h-1.17V27.3a2.14,2.14,0,0,0,.11.86.56.56,0,0,0,.55.29A2.86,2.86,0,0,0,216,28.39Z"/><path class="cls-4" d="M216.66,25.5a5,5,0,0,1,.9-3.24,2.91,2.91,0,0,1,4.56,0,4.79,4.79,0,0,1,.91,3.15,5.17,5.17,0,0,1-.9,3.33,2.91,2.91,0,0,1-4.56,0A5,5,0,0,1,216.66,25.5Zm1.18,0a4,4,0,0,0,.58,2.39,1.75,1.75,0,0,0,1.46.79,1.69,1.69,0,0,0,1.39-.79,4,4,0,0,0,.58-2.39,4,4,0,0,0-.58-2.39,1.75,1.75,0,0,0-1.46-.79,1.7,1.7,0,0,0-1.4.79A4.09,4.09,0,0,0,217.84,25.5Z"/><path class="cls-4" d="M224.71,29.65v-7.2h-1v-1.1h1v-.88a4.2,4.2,0,0,1,.2-1.47,1.58,1.58,0,0,1,.63-.74,2,2,0,0,1,1.05-.26,4.37,4.37,0,0,1,1.08.15l-.17,1.22a3.39,3.39,0,0,0-.68-.08.92.92,0,0,0-.74.27,1.69,1.69,0,0,0-.22,1v.76h1.33v1.1h-1.33v7.2Z"/><path class="cls-4" d="M227.6,25.5a5,5,0,0,1,.9-3.24,2.91,2.91,0,0,1,4.56,0,4.79,4.79,0,0,1,.92,3.15,5.17,5.17,0,0,1-.9,3.33,2.92,2.92,0,0,1-4.57,0A5,5,0,0,1,227.6,25.5Zm1.18,0a4,4,0,0,0,.59,2.39,1.74,1.74,0,0,0,1.45.79,1.67,1.67,0,0,0,1.39-.79,4,4,0,0,0,.59-2.39,4,4,0,0,0-.59-2.39,1.74,1.74,0,0,0-1.45-.79,1.69,1.69,0,0,0-1.4.79A4,4,0,0,0,228.78,25.5Z"/><path class="cls-4" d="M239.79,26.61l1.13.18a3.79,3.79,0,0,1-1,2.26,2.55,2.55,0,0,1-1.89.79,2.66,2.66,0,0,1-2.19-1.1,5.16,5.16,0,0,1-.87-3.25,5.09,5.09,0,0,1,.87-3.24,2.73,2.73,0,0,1,2.24-1.09,2.55,2.55,0,0,1,1.78.66,3.2,3.2,0,0,1,.92,2l-1.11.2a2.39,2.39,0,0,0-.57-1.25,1.32,1.32,0,0,0-1-.42,1.69,1.69,0,0,0-1.41.75,4.12,4.12,0,0,0-.56,2.4,4.29,4.29,0,0,0,.54,2.45,1.59,1.59,0,0,0,1.37.76,1.48,1.48,0,0,0,1.12-.5A2.74,2.74,0,0,0,239.79,26.61Z"/><path class="cls-4" d="M246.35,29.65V28.43a2.86,2.86,0,0,1-.94,1.05,2.13,2.13,0,0,1-1.21.36,2.21,2.21,0,0,1-1.38-.44,2.06,2.06,0,0,1-.76-1.1,6.66,6.66,0,0,1-.19-1.81V21.35H243V26a7.82,7.82,0,0,0,.12,1.72,1.32,1.32,0,0,0,.48.69,1.25,1.25,0,0,0,.79.26,1.64,1.64,0,0,0,1.36-.67,3.64,3.64,0,0,0,.46-2.15V21.35h1.15v8.3Z"/><path class="cls-4" d="M248.75,27.16,249.9,27a2.06,2.06,0,0,0,.55,1.3,1.94,1.94,0,0,0,2.36.06,1.23,1.23,0,0,0,.41-.94.93.93,0,0,0-.35-.77,4.64,4.64,0,0,0-1.17-.47,8.28,8.28,0,0,1-1.8-.7,1.93,1.93,0,0,1-.7-.77,2.36,2.36,0,0,1-.25-1.11,2.31,2.31,0,0,1,.67-1.72,2.63,2.63,0,0,1,1.89-.67,3,3,0,0,1,1.33.28,2.06,2.06,0,0,1,.88.73,3.3,3.3,0,0,1,.42,1.32l-1.12.19a1.35,1.35,0,0,0-1.48-1.36,1.76,1.76,0,0,0-1.12.3,1,1,0,0,0-.37.77.86.86,0,0,0,.36.72,6.25,6.25,0,0,0,1.25.5,9.4,9.4,0,0,1,1.85.72,1.89,1.89,0,0,1,.66.74,2.51,2.51,0,0,1,.23,1.1,2.55,2.55,0,0,1-.76,1.93,2.8,2.8,0,0,1-2,.74C250,29.84,249,29,248.75,27.16Z"/><path class="cls-4" d="M204.5,525.24l-1.15.11a2.8,2.8,0,0,0-.48-1.25,1.43,1.43,0,0,0-1.11-.55,1.82,1.82,0,0,0-1.61,1.25,7.57,7.57,0,0,0-.53,3.19,2.85,2.85,0,0,1,1-1.13,2.28,2.28,0,0,1,1.27-.39,2.46,2.46,0,0,1,2,1,4.18,4.18,0,0,1,.83,2.71,5,5,0,0,1-.42,2.08,3.13,3.13,0,0,1-1.07,1.38,2.5,2.5,0,0,1-1.45.44,2.77,2.77,0,0,1-2.34-1.28,7.55,7.55,0,0,1-.92-4.27,8.86,8.86,0,0,1,.94-4.73,2.83,2.83,0,0,1,2.42-1.41,2.41,2.41,0,0,1,1.79.73A3.42,3.42,0,0,1,204.5,525.24Zm-4.7,5a3.14,3.14,0,0,0,.58,2,1.69,1.69,0,0,0,1.36.76,1.53,1.53,0,0,0,1.22-.71,3.26,3.26,0,0,0,.53-2,3,3,0,0,0-.53-1.89,1.59,1.59,0,0,0-1.3-.67,1.63,1.63,0,0,0-1.3.67A2.69,2.69,0,0,0,199.8,530.19Z"/><path class="cls-4" d="M207.6,527.68a2.18,2.18,0,0,1-1-.89,2.71,2.71,0,0,1-.36-1.45,3,3,0,0,1,.77-2.12,2.51,2.51,0,0,1,1.93-.82,2.54,2.54,0,0,1,1.94.83,3,3,0,0,1,.78,2.16,2.67,2.67,0,0,1-.35,1.4,2.24,2.24,0,0,1-1,.89,2.62,2.62,0,0,1,1.31,1.09,3.47,3.47,0,0,1,.46,1.86,3.53,3.53,0,0,1-.89,2.5,3,3,0,0,1-4.4,0,3.62,3.62,0,0,1-.89-2.54,3.51,3.51,0,0,1,.47-1.89A2.37,2.37,0,0,1,207.6,527.68Zm-.6,2.91a2.46,2.46,0,0,0,.57,1.7,1.74,1.74,0,0,0,2.7,0,2.4,2.4,0,0,0,.55-1.67,2.48,2.48,0,0,0-.57-1.7,1.75,1.75,0,0,0-1.36-.64,1.69,1.69,0,0,0-1.34.64A2.42,2.42,0,0,0,207,530.59Zm.38-5.29a1.92,1.92,0,0,0,.45,1.34,1.4,1.4,0,0,0,1.09.5,1.37,1.37,0,0,0,1.07-.49,1.81,1.81,0,0,0,.45-1.27,1.85,1.85,0,0,0-.46-1.31,1.37,1.37,0,0,0-1.08-.52,1.41,1.41,0,0,0-1.07.5A1.81,1.81,0,0,0,207.38,525.3Z"/><path class="cls-4" d="M745.16,532.39l.15,1.24a3.1,3.1,0,0,1-.86.13,1.76,1.76,0,0,1-1-.24,1.24,1.24,0,0,1-.5-.65,6.39,6.39,0,0,1-.14-1.65v-4.77H742v-1.1h.84V523.3l1.15-.85v2.9h1.17v1.1H744v4.85a2.42,2.42,0,0,0,.1.86.58.58,0,0,0,.56.29A2.86,2.86,0,0,0,745.16,532.39Z"/><path class="cls-4" d="M746.24,533.65V522.2h1.15v4.1a2.82,2.82,0,0,1,.92-.85,2.29,2.29,0,0,1,1.13-.29,2.17,2.17,0,0,1,1.71.7,3.8,3.8,0,0,1,.63,2.53v5.26h-1.15v-5.26a2.52,2.52,0,0,0-.38-1.55,1.28,1.28,0,0,0-1-.46,1.64,1.64,0,0,0-1.28.6,3.28,3.28,0,0,0-.53,2.13v4.54Z"/><path class="cls-4" d="M758.19,531l1.19.18a3.62,3.62,0,0,1-1.08,2,2.83,2.83,0,0,1-1.92.68,2.86,2.86,0,0,1-2.34-1.1,4.89,4.89,0,0,1-.9-3.17,5.19,5.19,0,0,1,.9-3.28,2.82,2.82,0,0,1,2.29-1.13,2.71,2.71,0,0,1,2.2,1.11,5.05,5.05,0,0,1,.88,3.21v.38h-5.08A3.57,3.57,0,0,0,755,532a1.75,1.75,0,0,0,1.4.71C757.25,532.68,757.85,532.11,758.19,531Zm-3.79-2.28h3.8a3.2,3.2,0,0,0-.47-1.61A1.68,1.68,0,0,0,755,527,2.82,2.82,0,0,0,754.4,528.7Z"/><path class="cls-4" d="M767.05,532.39l.15,1.24a3.1,3.1,0,0,1-.86.13,1.71,1.71,0,0,1-1-.24,1.21,1.21,0,0,1-.51-.65,6.39,6.39,0,0,1-.14-1.65v-4.77h-.84v-1.1h.84V523.3l1.15-.85v2.9h1.17v1.1h-1.17v4.85a2.42,2.42,0,0,0,.1.86.58.58,0,0,0,.56.29A2.86,2.86,0,0,0,767.05,532.39Z"/><path class="cls-4" d="M768.13,523.81V522.2h1.15v1.61Zm0,9.84v-8.3h1.15v8.3Z"/><path class="cls-4" d="M775.7,531l1.18.18a3.61,3.61,0,0,1-1.07,2,2.84,2.84,0,0,1-1.93.68,2.89,2.89,0,0,1-2.34-1.1,5,5,0,0,1-.89-3.17,5.19,5.19,0,0,1,.9-3.28,2.81,2.81,0,0,1,2.29-1.13,2.71,2.71,0,0,1,2.2,1.11,5.05,5.05,0,0,1,.88,3.21v.38h-5.07a3.57,3.57,0,0,0,.64,2.11,1.78,1.78,0,0,0,1.41.71C774.75,532.68,775.36,532.11,775.7,531Zm-3.79-2.28h3.79a3.11,3.11,0,0,0-.46-1.61,1.68,1.68,0,0,0-2.73-.13A2.76,2.76,0,0,0,771.91,528.7Z"/><path class="cls-4" d="M777.9,531.16l1.15-.21a2,2,0,0,0,.55,1.3,1.94,1.94,0,0,0,2.36.06,1.23,1.23,0,0,0,.41-.94.93.93,0,0,0-.35-.77,5,5,0,0,0-1.18-.47,8.35,8.35,0,0,1-1.79-.7,2,2,0,0,1-.71-.77,2.48,2.48,0,0,1-.25-1.11,2.31,2.31,0,0,1,.68-1.72,2.61,2.61,0,0,1,1.89-.67,3,3,0,0,1,1.33.28,2.13,2.13,0,0,1,.88.73,3.3,3.3,0,0,1,.42,1.32l-1.13.19a1.34,1.34,0,0,0-1.47-1.36,1.76,1.76,0,0,0-1.12.3,1,1,0,0,0-.37.77.86.86,0,0,0,.36.72,6.25,6.25,0,0,0,1.25.5,9.4,9.4,0,0,1,1.85.72,1.8,1.8,0,0,1,.65.74,2.38,2.38,0,0,1,.24,1.1,2.55,2.55,0,0,1-.76,1.93,2.82,2.82,0,0,1-2.06.74C779.1,533.84,778.16,533,777.9,531.16Z"/><path class="cls-4" d="M791.12,532.39l.15,1.24a3.1,3.1,0,0,1-.86.13,1.71,1.71,0,0,1-1-.24,1.21,1.21,0,0,1-.51-.65,6.39,6.39,0,0,1-.14-1.65v-4.77H788v-1.1h.84V523.3l1.15-.85v2.9h1.17v1.1H790v4.85a2.42,2.42,0,0,0,.1.86.58.58,0,0,0,.56.29A2.86,2.86,0,0,0,791.12,532.39Z"/><path class="cls-4" d="M792.2,533.65V522.2h1.15v4.1a2.82,2.82,0,0,1,.92-.85,2.29,2.29,0,0,1,1.13-.29,2.17,2.17,0,0,1,1.71.7,3.8,3.8,0,0,1,.63,2.53v5.26h-1.15v-5.26a2.45,2.45,0,0,0-.38-1.55,1.28,1.28,0,0,0-1.05-.46,1.64,1.64,0,0,0-1.28.6,3.28,3.28,0,0,0-.53,2.13v4.54Z"/><path class="cls-4" d="M803.93,532.62a4.23,4.23,0,0,1-1.2.91,3,3,0,0,1-1.3.31,2.32,2.32,0,0,1-1.7-.64,2.37,2.37,0,0,1-.63-1.73,2.62,2.62,0,0,1,.3-1.27,2.27,2.27,0,0,1,.81-.87,4.27,4.27,0,0,1,1.56-.46,9,9,0,0,0,2.07-.49V528a1.85,1.85,0,0,0-.3-1.2,1.67,1.67,0,0,0-1.32-.5,1.83,1.83,0,0,0-1.2.33,2.15,2.15,0,0,0-.59,1.26l-1.13-.19a3.18,3.18,0,0,1,1-2,3.26,3.26,0,0,1,2.11-.61,3,3,0,0,1,1.68.41,1.71,1.71,0,0,1,.77,1,7,7,0,0,1,.16,1.74v1.87a24.27,24.27,0,0,0,.07,2.48,3.6,3.6,0,0,0,.3,1h-1.21A3.64,3.64,0,0,1,803.93,532.62Zm-.09-3.14A7.44,7.44,0,0,1,802,530a3.33,3.33,0,0,0-1,.28,1.15,1.15,0,0,0-.45.45,1.37,1.37,0,0,0-.16.68,1.24,1.24,0,0,0,.37,1,1.37,1.37,0,0,0,1,.35,2,2,0,0,0,1.12-.32,2,2,0,0,0,.76-.85,4,4,0,0,0,.25-1.56Z"/><path class="cls-4" d="M809.36,532.39l.16,1.24a3.21,3.21,0,0,1-.86.13,1.72,1.72,0,0,1-1-.24,1.21,1.21,0,0,1-.51-.65,6.54,6.54,0,0,1-.13-1.65v-4.77h-.85v-1.1h.85V523.3l1.15-.85v2.9h1.16v1.1H808.2v4.85a2.2,2.2,0,0,0,.1.86.56.56,0,0,0,.55.29A2.86,2.86,0,0,0,809.36,532.39Z"/><path class="cls-4" d="M815.15,533.65h-1.07V522.2h1.15v4.08a2.8,2.8,0,0,1,.84-.84,2,2,0,0,1,1-.28,2.38,2.38,0,0,1,1.45.48,3.18,3.18,0,0,1,1,1.45,6.28,6.28,0,0,1,.39,2.35,5.22,5.22,0,0,1-.88,3.25,2.59,2.59,0,0,1-2.07,1.15,1.94,1.94,0,0,1-1.06-.31,2.56,2.56,0,0,1-.82-.92Zm0-4.21a5.85,5.85,0,0,0,.24,1.93,2.12,2.12,0,0,0,.66,1,1.5,1.5,0,0,0,1,.34,1.56,1.56,0,0,0,1.26-.8,5.58,5.58,0,0,0,0-4.79,1.56,1.56,0,0,0-1.31-.77,1.58,1.58,0,0,0-1.27.8A4.08,4.08,0,0,0,815.13,529.44Z"/><path class="cls-4" d="M821.39,523.81V522.2h1.15v1.61Zm0,9.84v-8.3h1.15v8.3Z"/><path class="cls-4" d="M824.3,533.65v-8.3h1v1.17a2.78,2.78,0,0,1,.92-1,2.43,2.43,0,0,1,2.25-.12,2.05,2.05,0,0,1,.75.56,2.36,2.36,0,0,1,.43.9,7.81,7.81,0,0,1,.14,1.71v5.1h-1.15v-5a4,4,0,0,0-.16-1.34,1.27,1.27,0,0,0-1.25-.88A1.58,1.58,0,0,0,826,527a3.45,3.45,0,0,0-.5,2.12v4.54Z"/><path class="cls-4" d="M836,533.65v-1a2.36,2.36,0,0,1-.81.92,1.91,1.91,0,0,1-1.06.32,2.57,2.57,0,0,1-2.08-1.14,5.1,5.1,0,0,1-.88-3.2,6.56,6.56,0,0,1,.39-2.4,3.29,3.29,0,0,1,1-1.46,2.38,2.38,0,0,1,1.45-.48,1.94,1.94,0,0,1,1.05.3,2.51,2.51,0,0,1,.81.84v-4.1h1.17v11.45Zm-3.65-4.14a4.15,4.15,0,0,0,.56,2.39,1.58,1.58,0,0,0,1.3.78,1.55,1.55,0,0,0,1.27-.75,3.9,3.9,0,0,0,.54-2.27,4.66,4.66,0,0,0-.54-2.54,1.6,1.6,0,0,0-1.36-.8,1.52,1.52,0,0,0-1.25.77A4.37,4.37,0,0,0,832.36,529.51Z"/><path class="cls-4" d="M839.26,533.65v-1.6h1.31v1.6Z"/><path class="cls-4" d="M924.5,21l-1.15.11a2.8,2.8,0,0,0-.48-1.25,1.43,1.43,0,0,0-1.11-.55,1.82,1.82,0,0,0-1.61,1.25,7.57,7.57,0,0,0-.53,3.19,2.85,2.85,0,0,1,1-1.13,2.28,2.28,0,0,1,1.27-.39,2.46,2.46,0,0,1,2,1,4.18,4.18,0,0,1,.83,2.71,5,5,0,0,1-.42,2.08,3.13,3.13,0,0,1-1.07,1.38,2.5,2.5,0,0,1-1.45.44,2.77,2.77,0,0,1-2.34-1.28,7.55,7.55,0,0,1-.92-4.27,8.86,8.86,0,0,1,.94-4.73,2.83,2.83,0,0,1,2.42-1.41,2.41,2.41,0,0,1,1.79.73A3.42,3.42,0,0,1,924.5,21Zm-4.7,5a3.14,3.14,0,0,0,.58,2,1.69,1.69,0,0,0,1.36.76A1.53,1.53,0,0,0,923,28a3.26,3.26,0,0,0,.53-2,3,3,0,0,0-.53-1.89,1.59,1.59,0,0,0-1.3-.67,1.63,1.63,0,0,0-1.3.67A2.69,2.69,0,0,0,919.8,25.94Z"/><path class="cls-4" d="M926,27l1.11-.12c.18,1.2.7,1.81,1.56,1.81a1.55,1.55,0,0,0,1.05-.4,3,3,0,0,0,.81-1.4,7.9,7.9,0,0,0,.32-2.35v-.28a2.94,2.94,0,0,1-1,1.1,2.27,2.27,0,0,1-1.25.41,2.52,2.52,0,0,1-2-1,4.19,4.19,0,0,1-.83-2.74,4.34,4.34,0,0,1,.86-2.84,2.65,2.65,0,0,1,2.1-1,2.6,2.6,0,0,1,1.63.58,3.63,3.63,0,0,1,1.18,1.7,10,10,0,0,1,.41,3.24,11.72,11.72,0,0,1-.45,3.67,3.9,3.9,0,0,1-1.2,1.9,2.7,2.7,0,0,1-1.71.6,2.41,2.41,0,0,1-1.79-.73A3.41,3.41,0,0,1,926,27Zm4.73-5.06a3,3,0,0,0-.55-1.93,1.58,1.58,0,0,0-1.26-.71,1.66,1.66,0,0,0-1.33.76,3.15,3.15,0,0,0-.58,2,2.7,2.7,0,0,0,.56,1.79,1.66,1.66,0,0,0,1.33.67,1.61,1.61,0,0,0,1.3-.67A3,3,0,0,0,930.72,21.94Z"/><g class="cls-2"><path class="cls-3" d="M57.6,50.4a559.59,559.59,0,0,1-13,59.16c-.55-4.32,1.74-7.23,1.93-11.2.28-5.8-1.55-12.66-1.49-18.77.24,9.54,0,18.93-.44,28.49s-3.71,26.92-.09,36.71c1.64-5.34,1.77-11.06,3.77-16.28C51.58,139,45.63,152,50.36,162.82a12.69,12.69,0,0,1,3.31-4.63c3.92,4.88-1.91,22.73-2.65,29.09,2.9-2.26,4-7,4.86-10.65.21,9.67-1.78,19.16-1.7,28.78,3.61-2.49,4.86-7.41,8.47-10.48-.94,3-8.65,9.41-5.66,12.55a35.13,35.13,0,0,0,17.07-5.26,2.92,2.92,0,0,0,0,2.64c14.77,2.77,31.86,1.9,46.56,2.14"/><path class="cls-3" d="M225,280.8c9.51.61,21-1,30.17-1.32,22.71-.78,45.38-.24,68-3.26,9.19-1.23,13.67-1.2,23.67-.45q34.94,3.54,69.58,9.17A100.39,100.39,0,0,1,454,292.68c-17.51,6.84,15.53-11.36,6.14-6.61a184,184,0,0,1,40-15.05A79.15,79.15,0,0,1,477,282.49c-7.77,3.52-20.08,10.44-29.16,12.84,11.87-6.65,28.59-6.79,41.8-9.14-14,1.51-29.43,5.38-43.56,3.5-.3-4.87,118.27-9.85,88-8.22l53.26-2.38a212.61,212.61,0,0,1,28.22,0c9-2.57,41.1-14.57,43.48.74-7.64,7.43-15.15,14-24.58,19.12,16-8.91,37.32-10.35,54.84-13.87q9.59-1.6,19-4.14c9.3-.33,18.51,1.71,28,1.49,22.12-.52,44.08-3.68,66.24-3.43,10.72.13,21.78.81,32.46,0-5-.83-10.34,2.11-14.09,5.21,24.89.72,49.62,6.75,73.54,13.32a4.77,4.77,0,0,0-3.86.92c7.91,1.89,20.09.45,27.63.43-2.79,0,26.08-2.45,23.46,1.4,4,.69,7.92.4,12.11.36,2,0,34.38-.09,26.34,3.55l4.7-.56a70.52,70.52,0,0,1,42.2,1.17q9.18,19.26-.48,38.85-1.86,9.76-3.42,19.58a4,4,0,0,1,2.7-2.34c-.64,15.53-3.13,33.94,2.51,48.9a97.33,97.33,0,0,0,11.15,19,155,155,0,0,1,6.45,17.72"/></g></g></svg>