<svg id="Layer_1" data-name="Layer 1" xmlns="http://www.w3.org/2000/svg" xmlns:xlink="http://www.w3.org/1999/xlink" viewBox="0 0 1080 756"><defs><style>.cls-1,.cls-3{fill:none;}.cls-2{clip-path:url(#clip-path);}.cls-3{stroke:#231f20;stroke-width:0.25px;}.cls-4{fill:#231f20;}</style><clipPath id="clip-path"><rect class="cls-1" width="1080" height="756"/></clipPath></defs><title>Untitled-3</title><g class="cls-2"><g class="cls-2"><line class="cls-3" x1="180" y1="-18.36" x2="180" y2="790.92"/><line class="cls-3" x1="720" y1="-20.88" x2="720" y2="788.4"/><line class="cls-3" x1="359.88" y1="-18.36" x2="359.88" y2="790.92"/><line class="cls-3" x1="899.87" y1="-20.88" x2="899.87" y2="788.4"/><line class="cls-3" x1="-16.92" y1="251.88" x2="1101.6" y2="251.88"/><line class="cls-3" x1="-11.52" y1="504.13" x2="1107" y2="504.13"/><line class="cls-3" x1="540" y1="-19.44" x2="540" y2="789.84"/></g><path class="cls-4" d="M18.6,19.7V18.35h6.07v1.09A17.43,17.43,0,0,0,22.28,24a19.71,19.71,0,0,0-1.19,5.61H19.91a17.05,17.05,0,0,1,.46-3.35,20.24,20.24,0,0,1,1.19-3.65,16.14,16.14,0,0,1,1.63-2.95Z"/><path class="cls-4" d="M27.6,23.44a2.25,2.25,0,0,1-1-.9,2.68,2.68,0,0,1-.36-1.44A3,3,0,0,1,27,19a2.55,2.55,0,0,1,1.93-.82,2.51,2.51,0,0,1,1.94.84,3,3,0,0,1,.78,2.15,2.67,2.67,0,0,1-.35,1.4,2.26,2.26,0,0,1-1,.9,2.55,2.55,0,0,1,1.31,1.08A3.53,3.53,0,0,1,32,26.39a3.49,3.49,0,0,1-.89,2.49,3,3,0,0,1-4.4,0,3.6,3.6,0,0,1-.89-2.53,3.54,3.54,0,0,1,.47-1.9A2.36,2.36,0,0,1,27.6,23.44ZM27,26.35a2.48,2.48,0,0,0,.57,1.7,1.71,1.71,0,0,0,1.35.64,1.76,1.76,0,0,0,1.35-.62,2.82,2.82,0,0,0,0-3.37,1.76,1.76,0,0,0-1.36-.65,1.72,1.72,0,0,0-1.34.64A2.45,2.45,0,0,0,27,26.35Zm.38-5.29a1.94,1.94,0,0,0,.45,1.34,1.4,1.4,0,0,0,1.09.5A1.38,1.38,0,0,0,30,22.4a1.79,1.79,0,0,0,.45-1.27A1.87,1.87,0,0,0,30,19.82a1.39,1.39,0,0,0-1.08-.51,1.41,1.41,0,0,0-1.07.5A1.79,1.79,0,0,0,27.38,21.06Z"/><path class="cls-4" d="M738.85,32.83V21.36h1.06v1.07a2.73,2.73,0,0,1,.86-1,2,2,0,0,1,1.1-.3,2.38,2.38,0,0,1,1.45.48,3.22,3.22,0,0,1,1,1.44,6.3,6.3,0,0,1,.39,2.34,5.26,5.26,0,0,1-.88,3.27,2.6,2.6,0,0,1-2.09,1.14,1.94,1.94,0,0,1-1-.27,2.45,2.45,0,0,1-.79-.78v4Zm1-7.28a4.13,4.13,0,0,0,.54,2.37,1.56,1.56,0,0,0,1.3.76A1.58,1.58,0,0,0,743,27.9a4.3,4.3,0,0,0,.55-2.44,4.39,4.39,0,0,0-.53-2.41,1.43,1.43,0,0,0-2.58.06A4.33,4.33,0,0,0,739.89,25.55Z"/><path class="cls-4" d="M746.14,29.65V21.36h1v1.25a3.67,3.67,0,0,1,.73-1.16,1.11,1.11,0,0,1,.75-.28,2,2,0,0,1,1.18.45l-.39,1.31a1.43,1.43,0,0,0-.84-.31,1,1,0,0,0-.67.26,1.37,1.37,0,0,0-.43.72,6.73,6.73,0,0,0-.22,1.71v4.34Z"/><path class="cls-4" d="M750.51,19.82V18.2h1.15v1.62Zm0,9.83V21.36h1.15v8.29Z"/><path class="cls-4" d="M753.43,29.65V21.36h1v1.15a2.67,2.67,0,0,1,.88-1,2.17,2.17,0,0,1,1.18-.35,1.87,1.87,0,0,1,1.92,1.44,3.16,3.16,0,0,1,.94-1.08,2,2,0,0,1,1.17-.36,1.91,1.91,0,0,1,1.54.66,3.25,3.25,0,0,1,.57,2.13v5.69h-1.15V24.42a4.16,4.16,0,0,0-.13-1.26,1.2,1.2,0,0,0-.42-.58,1.14,1.14,0,0,0-.65-.2,1.51,1.51,0,0,0-1.22.59,3,3,0,0,0-.47,1.86v4.82h-1.15V24.26a2.53,2.53,0,0,0-.31-1.46,1.06,1.06,0,0,0-.88-.42A1.43,1.43,0,0,0,755,23a4.16,4.16,0,0,0-.46,2.32v4.31Z"/><path class="cls-4" d="M768.78,28.63a4.33,4.33,0,0,1-1.2.91,3,3,0,0,1-1.3.3,2.26,2.26,0,0,1-1.69-.64,2.36,2.36,0,0,1-.63-1.73,2.62,2.62,0,0,1,.29-1.27,2.22,2.22,0,0,1,.82-.87,4.2,4.2,0,0,1,1.56-.46,8.87,8.87,0,0,0,2.06-.49V24a1.73,1.73,0,0,0-.31-1.19,1.61,1.61,0,0,0-1.32-.5,1.87,1.87,0,0,0-1.2.33,2.18,2.18,0,0,0-.59,1.25l-1.13-.19a3.12,3.12,0,0,1,1-1.94,3.23,3.23,0,0,1,2.12-.61,3,3,0,0,1,1.67.4,1.69,1.69,0,0,1,.77,1,6.87,6.87,0,0,1,.16,1.73v1.88a23.12,23.12,0,0,0,.08,2.48,3.87,3.87,0,0,0,.29,1H769A3.48,3.48,0,0,1,768.78,28.63Zm-.09-3.14a7,7,0,0,1-1.88.53,3.27,3.27,0,0,0-1,.29,1.08,1.08,0,0,0-.45.45,1.44,1.44,0,0,0-.16.67,1.23,1.23,0,0,0,.37.95,1.38,1.38,0,0,0,1,.36,2.09,2.09,0,0,0,1.12-.32,2,2,0,0,0,.75-.86,3.72,3.72,0,0,0,.25-1.56Z"/><path class="cls-4" d="M771.61,29.65V18.2h1.15V29.65Z"/><path class="cls-4" d="M778.21,32.83V21.36h1.07v1.07a2.73,2.73,0,0,1,.86-1,2,2,0,0,1,1.09-.3,2.36,2.36,0,0,1,1.45.48,3.24,3.24,0,0,1,1.05,1.44,6.3,6.3,0,0,1,.39,2.34,5.26,5.26,0,0,1-.89,3.27,2.58,2.58,0,0,1-2.08,1.14,1.94,1.94,0,0,1-1-.27,2.58,2.58,0,0,1-.8-.78v4Zm1-7.28a4.13,4.13,0,0,0,.54,2.37,1.56,1.56,0,0,0,1.3.76,1.58,1.58,0,0,0,1.29-.78,4.3,4.3,0,0,0,.55-2.44,4.3,4.3,0,0,0-.54-2.41,1.42,1.42,0,0,0-2.57.06A4.33,4.33,0,0,0,779.26,25.55Z"/><path class="cls-4" d="M790,29.65V28.43a3,3,0,0,1-.93,1.06,2.23,2.23,0,0,1-1.22.35,2.2,2.2,0,0,1-1.38-.43,2.1,2.1,0,0,1-.76-1.1,6.71,6.71,0,0,1-.19-1.81V21.36h1.15V26a7,7,0,0,0,.13,1.71,1.29,1.29,0,0,0,1.27,1,1.67,1.67,0,0,0,1.36-.68,3.71,3.71,0,0,0,.45-2.15V21.36H791v8.29Z"/><path class="cls-4" d="M792.36,27.17l1.15-.22a2.09,2.09,0,0,0,.55,1.31,1.72,1.72,0,0,0,1.2.42,1.65,1.65,0,0,0,1.16-.37,1.21,1.21,0,0,0,.41-.94.91.91,0,0,0-.35-.76,4.27,4.27,0,0,0-1.17-.47,8.15,8.15,0,0,1-1.8-.71,1.93,1.93,0,0,1-.7-.77,2.54,2.54,0,0,1,.43-2.83,2.58,2.58,0,0,1,1.88-.66,3.1,3.1,0,0,1,1.33.27,2.08,2.08,0,0,1,.88.74,3.2,3.2,0,0,1,.42,1.32l-1.12.18a1.35,1.35,0,0,0-1.48-1.35,1.76,1.76,0,0,0-1.12.29,1,1,0,0,0-.36.77.82.82,0,0,0,.35.72,5.91,5.91,0,0,0,1.25.5,9.6,9.6,0,0,1,1.85.73,1.87,1.87,0,0,1,.66.73,2.53,2.53,0,0,1,.23,1.11,2.61,2.61,0,0,1-.75,1.93,2.84,2.84,0,0,1-2.06.73C793.57,29.84,792.62,29,792.36,27.17Z"/><path class="cls-4" d="M799.37,29.65V18.2h1.15v4.11a2.86,2.86,0,0,1,.92-.86,2.26,2.26,0,0,1,1.13-.28,2.2,2.2,0,0,1,1.71.69,3.84,3.84,0,0,1,.63,2.54v5.25h-1.15V24.4a2.5,2.5,0,0,0-.38-1.55,1.31,1.31,0,0,0-1.06-.47,1.62,1.62,0,0,0-1.27.6,3.22,3.22,0,0,0-.53,2.13v4.54Z"/><path class="cls-4" d="M809.88,25.5a5,5,0,0,1,.9-3.24,2.93,2.93,0,0,1,4.56,0,4.8,4.8,0,0,1,.91,3.16,5.17,5.17,0,0,1-.9,3.33,2.92,2.92,0,0,1-4.56,0A5,5,0,0,1,809.88,25.5Zm1.18,0a4,4,0,0,0,.58,2.4,1.77,1.77,0,0,0,1.46.78,1.69,1.69,0,0,0,1.39-.79,4,4,0,0,0,.58-2.39,4,4,0,0,0-.58-2.39,1.77,1.77,0,0,0-1.46-.78,1.67,1.67,0,0,0-1.39.79A4,4,0,0,0,811.06,25.5Z"/><path class="cls-4" d="M817.93,29.65v-7.2h-1V21.36h1v-.89a3.85,3.85,0,0,1,.21-1.46,1.49,1.49,0,0,1,.62-.75,2,2,0,0,1,1-.26,4.37,4.37,0,0,1,1.08.15l-.17,1.22a3.31,3.31,0,0,0-.68-.08.92.92,0,0,0-.74.27,1.78,1.78,0,0,0-.22,1v.77h1.33v1.09h-1.33v7.2Z"/><path class="cls-4" d="M827.47,28.4l.16,1.24a3.61,3.61,0,0,1-.86.12,1.74,1.74,0,0,1-1-.24,1.13,1.13,0,0,1-.5-.65,6.29,6.29,0,0,1-.14-1.65V22.45h-.84V21.36h.84V19.3l1.15-.84v2.9h1.16v1.09h-1.16V27.3a2.26,2.26,0,0,0,.1.87.56.56,0,0,0,.55.28A3.92,3.92,0,0,0,827.47,28.4Z"/><path class="cls-4" d="M828.56,29.65V18.2h1.15v4.11a2.84,2.84,0,0,1,.91-.86,2.28,2.28,0,0,1,1.13-.28,2.21,2.21,0,0,1,1.72.69,3.84,3.84,0,0,1,.63,2.54v5.25H833V24.4a2.5,2.5,0,0,0-.38-1.55,1.31,1.31,0,0,0-1.06-.47,1.64,1.64,0,0,0-1.28.6,3.28,3.28,0,0,0-.52,2.13v4.54Z"/><path class="cls-4" d="M840.5,27l1.19.18a3.7,3.7,0,0,1-1.07,2,2.84,2.84,0,0,1-1.93.67,2.89,2.89,0,0,1-2.34-1.1,4.86,4.86,0,0,1-.89-3.16,5.15,5.15,0,0,1,.9-3.28,2.78,2.78,0,0,1,2.28-1.13,2.72,2.72,0,0,1,2.21,1.11,5.05,5.05,0,0,1,.88,3.21v.37h-5.08a3.62,3.62,0,0,0,.65,2.11,1.75,1.75,0,0,0,1.41.71C839.56,28.68,840.16,28.12,840.5,27Zm-3.79-2.27h3.8a3.18,3.18,0,0,0-.46-1.61,1.68,1.68,0,0,0-2.73-.13A2.82,2.82,0,0,0,836.71,24.71Z"/><path class="cls-4" d="M738.81,48.85V37.4H740V48.85Z"/><path class="cls-4" d="M746.41,46.18l1.19.18a3.61,3.61,0,0,1-1.08,2,2.83,2.83,0,0,1-1.92.67,2.86,2.86,0,0,1-2.34-1.1,4.86,4.86,0,0,1-.9-3.16,5.15,5.15,0,0,1,.9-3.28,2.84,2.84,0,0,1,2.29-1.13,2.71,2.71,0,0,1,2.2,1.11,5.05,5.05,0,0,1,.89,3.21v.37h-5.08a3.55,3.55,0,0,0,.65,2.11,1.72,1.72,0,0,0,1.4.71C745.47,47.88,746.07,47.32,746.41,46.18Zm-3.79-2.27h3.8A3.18,3.18,0,0,0,746,42.3a1.66,1.66,0,0,0-1.42-.77,1.68,1.68,0,0,0-1.32.64A2.88,2.88,0,0,0,742.62,43.91Z"/><path class="cls-4" d="M751.62,47.6l.16,1.24a3.61,3.61,0,0,1-.86.12,1.74,1.74,0,0,1-1-.24,1.18,1.18,0,0,1-.51-.65,6.43,6.43,0,0,1-.13-1.65V41.65h-.85V40.56h.85V38.5l1.15-.84v2.9h1.16v1.09h-1.16V46.5a2.26,2.26,0,0,0,.1.87.56.56,0,0,0,.55.28A3.92,3.92,0,0,0,751.62,47.6Z"/><path class="cls-4" d="M755.27,47.6l.15,1.24a3.47,3.47,0,0,1-.85.12,1.72,1.72,0,0,1-1-.24,1.14,1.14,0,0,1-.51-.65,6.43,6.43,0,0,1-.13-1.65V41.65h-.85V40.56H753V38.5l1.14-.84v2.9h1.17v1.09H754.1V46.5a2.2,2.2,0,0,0,.11.87.55.55,0,0,0,.55.28A3.92,3.92,0,0,0,755.27,47.6Z"/><path class="cls-4" d="M761,46.18l1.19.18a3.67,3.67,0,0,1-1.07,2,2.84,2.84,0,0,1-1.93.67,2.89,2.89,0,0,1-2.34-1.1,4.86,4.86,0,0,1-.89-3.16,5.15,5.15,0,0,1,.9-3.28,2.8,2.8,0,0,1,2.28-1.13,2.72,2.72,0,0,1,2.21,1.11,5.05,5.05,0,0,1,.88,3.21v.37h-5.08a3.62,3.62,0,0,0,.65,2.11,1.75,1.75,0,0,0,1.41.71C760.06,47.88,760.66,47.32,761,46.18Zm-3.79-2.27H761a3.18,3.18,0,0,0-.46-1.61,1.68,1.68,0,0,0-2.73-.13A2.82,2.82,0,0,0,757.21,43.91Z"/><path class="cls-4" d="M763.65,48.85V40.56h1v1.25a3.67,3.67,0,0,1,.73-1.16,1.11,1.11,0,0,1,.75-.28,2,2,0,0,1,1.18.45L767,42.13a1.43,1.43,0,0,0-.84-.31,1,1,0,0,0-.67.26,1.37,1.37,0,0,0-.43.72,6.31,6.31,0,0,0-.22,1.71v4.34Z"/><path class="cls-4" d="M767.57,46.37l1.15-.22a2,2,0,0,0,.56,1.31,1.69,1.69,0,0,0,1.2.42,1.64,1.64,0,0,0,1.15-.37,1.18,1.18,0,0,0,.41-.94.91.91,0,0,0-.35-.76,4.27,4.27,0,0,0-1.17-.47,8.15,8.15,0,0,1-1.8-.71,2,2,0,0,1-.7-.77,2.54,2.54,0,0,1,.43-2.83,2.58,2.58,0,0,1,1.88-.66,3.07,3.07,0,0,1,1.33.27,2.09,2.09,0,0,1,.88.74A2.93,2.93,0,0,1,773,42.7l-1.12.18a1.35,1.35,0,0,0-1.48-1.35,1.65,1.65,0,0,0-1.11.3.91.91,0,0,0-.37.76.85.85,0,0,0,.35.72,5.91,5.91,0,0,0,1.25.5,9.6,9.6,0,0,1,1.85.73,1.87,1.87,0,0,1,.66.73,2.53,2.53,0,0,1,.23,1.11,2.61,2.61,0,0,1-.75,1.93,2.84,2.84,0,0,1-2.06.73C768.78,49,767.83,48.15,767.57,46.37Z"/><path class="cls-4" d="M778.23,39V37.4h1.15V39Zm0,9.83V40.56h1.15v8.29Z"/><path class="cls-4" d="M781.14,48.85V40.56h1v1.17a2.63,2.63,0,0,1,.92-1,2.27,2.27,0,0,1,1.24-.34,2.4,2.4,0,0,1,1,.21,2.19,2.19,0,0,1,.75.57,2.36,2.36,0,0,1,.43.9,7.77,7.77,0,0,1,.14,1.7v5.1h-1.15V43.8a4,4,0,0,0-.16-1.34,1.25,1.25,0,0,0-.49-.65,1.32,1.32,0,0,0-.77-.23,1.61,1.61,0,0,0-1.32.62,3.53,3.53,0,0,0-.49,2.12v4.53Z"/><path class="cls-4" d="M791,47.6l.16,1.24a3.61,3.61,0,0,1-.86.12,1.76,1.76,0,0,1-1-.24,1.17,1.17,0,0,1-.5-.65,6.29,6.29,0,0,1-.14-1.65V41.65h-.84V40.56h.84V38.5l1.15-.84v2.9H791v1.09h-1.16V46.5a2.26,2.26,0,0,0,.1.87.57.57,0,0,0,.56.28A4,4,0,0,0,791,47.6Z"/><path class="cls-4" d="M791.65,44.71a5,5,0,0,1,.9-3.25,2.93,2.93,0,0,1,4.56,0,4.8,4.8,0,0,1,.92,3.16,5.17,5.17,0,0,1-.9,3.33A2.83,2.83,0,0,1,794.84,49a2.86,2.86,0,0,1-2.28-1.1A5,5,0,0,1,791.65,44.71Zm1.18,0a4,4,0,0,0,.59,2.4,1.75,1.75,0,0,0,1.45.78,1.67,1.67,0,0,0,1.39-.79,4,4,0,0,0,.59-2.39,4,4,0,0,0-.59-2.39,1.75,1.75,0,0,0-1.45-.78,1.68,1.68,0,0,0-1.4.79A4,4,0,0,0,792.83,44.7Z"/><path class="cls-4" d="M805.6,47.6l.15,1.24a3.48,3.48,0,0,1-.86.12,1.76,1.76,0,0,1-1-.24,1.17,1.17,0,0,1-.5-.65,6.29,6.29,0,0,1-.14-1.65V41.65h-.84V40.56h.84V38.5l1.15-.84v2.9h1.17v1.09h-1.17V46.5a2.49,2.49,0,0,0,.1.87.57.57,0,0,0,.56.28A3.92,3.92,0,0,0,805.6,47.6Z"/><path class="cls-4" d="M806.68,48.85V37.4h1.15v4.11a2.86,2.86,0,0,1,.92-.86,2.28,2.28,0,0,1,1.13-.28,2.2,2.2,0,0,1,1.71.69,3.84,3.84,0,0,1,.63,2.54v5.25h-1.15V43.6a2.43,2.43,0,0,0-.38-1.55,1.29,1.29,0,0,0-1.05-.47,1.64,1.64,0,0,0-1.28.6,3.28,3.28,0,0,0-.53,2.13v4.54Z"/><path class="cls-4" d="M818.63,46.18l1.19.18a3.61,3.61,0,0,1-1.08,2,2.83,2.83,0,0,1-1.92.67,2.86,2.86,0,0,1-2.34-1.1,4.86,4.86,0,0,1-.9-3.16,5.15,5.15,0,0,1,.9-3.28,2.82,2.82,0,0,1,2.29-1.13,2.71,2.71,0,0,1,2.2,1.11,5.05,5.05,0,0,1,.88,3.21v.37h-5.08a3.55,3.55,0,0,0,.65,2.11,1.72,1.72,0,0,0,1.4.71C817.69,47.88,818.29,47.32,818.63,46.18Zm-3.79-2.27h3.8a3.17,3.17,0,0,0-.47-1.61,1.68,1.68,0,0,0-2.73-.13A2.88,2.88,0,0,0,814.84,43.91Z"/><path class="cls-4" d="M824.48,46.37l1.15-.22a2.09,2.09,0,0,0,.55,1.31,1.69,1.69,0,0,0,1.2.42,1.65,1.65,0,0,0,1.16-.37,1.21,1.21,0,0,0,.41-.94.91.91,0,0,0-.35-.76,4.39,4.39,0,0,0-1.18-.47,8.23,8.23,0,0,1-1.79-.71,2,2,0,0,1-.71-.77,2.44,2.44,0,0,1-.25-1.1,2.34,2.34,0,0,1,.68-1.73,2.62,2.62,0,0,1,1.89-.66,3.1,3.1,0,0,1,1.33.27,2.16,2.16,0,0,1,.88.74,3.2,3.2,0,0,1,.42,1.32l-1.12.18a1.35,1.35,0,0,0-1.48-1.35,1.7,1.7,0,0,0-1.12.3.94.94,0,0,0-.37.76.83.83,0,0,0,.36.72,5.66,5.66,0,0,0,1.25.5,9.9,9.9,0,0,1,1.85.73,1.77,1.77,0,0,1,.65.73,2.39,2.39,0,0,1,.24,1.11,2.58,2.58,0,0,1-.76,1.93,2.79,2.79,0,0,1-2,.73C825.69,49,824.74,48.15,824.48,46.37Z"/><path class="cls-4" d="M834.05,47.6l.16,1.24a3.61,3.61,0,0,1-.86.12,1.74,1.74,0,0,1-1-.24,1.14,1.14,0,0,1-.51-.65,6.43,6.43,0,0,1-.13-1.65V41.65h-.85V40.56h.85V38.5l1.15-.84v2.9h1.16v1.09h-1.16V46.5a2.26,2.26,0,0,0,.1.87.56.56,0,0,0,.55.28A3.92,3.92,0,0,0,834.05,47.6Z"/><path class="cls-4" d="M834.7,44.71a5,5,0,0,1,.9-3.25,2.93,2.93,0,0,1,4.56,0,4.8,4.8,0,0,1,.91,3.16,5.17,5.17,0,0,1-.9,3.33,2.92,2.92,0,0,1-4.56,0A4.94,4.94,0,0,1,834.7,44.71Zm1.18,0a4,4,0,0,0,.58,2.4,1.77,1.77,0,0,0,1.46.78,1.69,1.69,0,0,0,1.39-.79,4,4,0,0,0,.58-2.39,4,4,0,0,0-.58-2.39,1.77,1.77,0,0,0-1.46-.78,1.67,1.67,0,0,0-1.39.79A4,4,0,0,0,835.88,44.7Z"/><path class="cls-4" d="M842.43,48.85V40.56h1v1.17a2.63,2.63,0,0,1,.92-1,2.24,2.24,0,0,1,1.24-.34,2.4,2.4,0,0,1,1,.21,2.19,2.19,0,0,1,.75.57,2.36,2.36,0,0,1,.43.9,7.77,7.77,0,0,1,.14,1.7v5.1h-1.15V43.8a4,4,0,0,0-.16-1.34,1.3,1.3,0,0,0-.49-.65,1.32,1.32,0,0,0-.77-.23,1.61,1.61,0,0,0-1.32.62,3.53,3.53,0,0,0-.49,2.12v4.53Z"/><path class="cls-4" d="M854.38,46.18l1.19.18a3.61,3.61,0,0,1-1.08,2,2.83,2.83,0,0,1-1.92.67,2.86,2.86,0,0,1-2.34-1.1,4.86,4.86,0,0,1-.9-3.16,5.15,5.15,0,0,1,.9-3.28,2.82,2.82,0,0,1,2.29-1.13,2.71,2.71,0,0,1,2.2,1.11,5.05,5.05,0,0,1,.88,3.21v.37h-5.08a3.55,3.55,0,0,0,.65,2.11,1.72,1.72,0,0,0,1.4.71C853.44,47.88,854,47.32,854.38,46.18Zm-3.79-2.27h3.8a3.17,3.17,0,0,0-.47-1.61,1.68,1.68,0,0,0-2.73-.13A2.82,2.82,0,0,0,850.59,43.91Z"/><path class="cls-4" d="M857.36,48.85v-1.6h1.31v1.6a3.25,3.25,0,0,1-.27,1.46,1.89,1.89,0,0,1-.8.81l-.32-.6a1.22,1.22,0,0,0,.54-.56,2.81,2.81,0,0,0,.19-1.11Z"/><path class="cls-4" d="M865.38,48.85h-1.07V37.4h1.15v4.09a2.58,2.58,0,0,1,.84-.84,1.92,1.92,0,0,1,1-.28,2.38,2.38,0,0,1,1.45.48,3.22,3.22,0,0,1,1,1.44,6.32,6.32,0,0,1,.39,2.35,5.25,5.25,0,0,1-.88,3.26A2.58,2.58,0,0,1,867.26,49a1.86,1.86,0,0,1-1.06-.31,2.48,2.48,0,0,1-.82-.92Zm0-4.21a5.81,5.81,0,0,0,.24,1.93,2,2,0,0,0,.66,1,1.45,1.45,0,0,0,2.22-.47,4.2,4.2,0,0,0,.55-2.39,4.22,4.22,0,0,0-.53-2.4,1.46,1.46,0,0,0-2.58,0A4,4,0,0,0,865.36,44.64Z"/><path class="cls-4" d="M871.62,39V37.4h1.15V39Zm0,9.83V40.56h1.15v8.29Z"/><path class="cls-4" d="M874.31,49.54l1.12.2a1.46,1.46,0,0,0,.47,1,1.63,1.63,0,0,0,1.09.32,1.69,1.69,0,0,0,1.82-1.44,10.12,10.12,0,0,0,.1-1.84,2.75,2.75,0,0,1-.84.8,2.07,2.07,0,0,1-1,.27,2.47,2.47,0,0,1-2-1,5.07,5.07,0,0,1-.92-3.18,6.14,6.14,0,0,1,.41-2.33,3.19,3.19,0,0,1,1.06-1.47,2.53,2.53,0,0,1,1.48-.47,2.15,2.15,0,0,1,1.1.29,2.77,2.77,0,0,1,.88.89v-1h1.06v7.17a8.39,8.39,0,0,1-.31,2.73,2.71,2.71,0,0,1-1,1.29,3.09,3.09,0,0,1-1.71.47,2.76,2.76,0,0,1-2-.71A2.55,2.55,0,0,1,874.31,49.54Zm1-5A4.18,4.18,0,0,0,875.8,47a1.59,1.59,0,0,0,1.32.75,1.63,1.63,0,0,0,1.34-.74,4,4,0,0,0,.54-2.34,3.91,3.91,0,0,0-.56-2.33,1.66,1.66,0,0,0-1.37-.76,1.56,1.56,0,0,0-1.27.76A3.92,3.92,0,0,0,875.26,44.56Z"/><path class="cls-4" d="M743.28,67a4.52,4.52,0,0,1-1.21.91,2.94,2.94,0,0,1-1.29.3,2.27,2.27,0,0,1-1.7-.64,2.36,2.36,0,0,1-.63-1.73,2.62,2.62,0,0,1,.3-1.27,2.13,2.13,0,0,1,.81-.87,4.4,4.4,0,0,1,1.56-.46,8.74,8.74,0,0,0,2.06-.49v-.36a1.81,1.81,0,0,0-.3-1.19,1.63,1.63,0,0,0-1.32-.5,1.88,1.88,0,0,0-1.21.33,2.18,2.18,0,0,0-.58,1.25l-1.14-.19a3.12,3.12,0,0,1,1-1.94,3.25,3.25,0,0,1,2.12-.61,3,3,0,0,1,1.68.4,1.77,1.77,0,0,1,.77,1,7.37,7.37,0,0,1,.16,1.73v1.88a24.27,24.27,0,0,0,.07,2.48,3.87,3.87,0,0,0,.29,1h-1.2A3.2,3.2,0,0,1,743.28,67Zm-.1-3.14a7,7,0,0,1-1.88.53,3.46,3.46,0,0,0-1,.29,1.08,1.08,0,0,0-.45.45,1.44,1.44,0,0,0-.16.67,1.26,1.26,0,0,0,.37,1,1.4,1.4,0,0,0,1,.36,2.09,2.09,0,0,0,1.12-.32,2,2,0,0,0,.75-.86,3.7,3.7,0,0,0,.25-1.55Z"/><path class="cls-4" d="M746.14,68.05V59.76h1V61a3.67,3.67,0,0,1,.73-1.16,1.11,1.11,0,0,1,.75-.28,2,2,0,0,1,1.18.45l-.39,1.31a1.43,1.43,0,0,0-.84-.31,1,1,0,0,0-.67.26,1.37,1.37,0,0,0-.43.72,6.79,6.79,0,0,0-.22,1.71v4.34Z"/><path class="cls-4" d="M750.52,68.05V59.76h1v1.15a2.58,2.58,0,0,1,.88-1,2.15,2.15,0,0,1,1.18-.35,1.94,1.94,0,0,1,1.21.37,2,2,0,0,1,.71,1.07,3.14,3.14,0,0,1,.93-1.08,2.08,2.08,0,0,1,1.18-.36,1.93,1.93,0,0,1,1.54.66,3.25,3.25,0,0,1,.57,2.13v5.69H758.6V62.82a4.52,4.52,0,0,0-.13-1.26,1.2,1.2,0,0,0-.42-.58,1.17,1.17,0,0,0-.66-.2,1.49,1.49,0,0,0-1.21.59,2.92,2.92,0,0,0-.47,1.86v4.82h-1.15V62.66a2.52,2.52,0,0,0-.32-1.46,1,1,0,0,0-.87-.42,1.45,1.45,0,0,0-1.25.64,4.26,4.26,0,0,0-.45,2.32v4.31Z"/><path class="cls-4" d="M765.09,71.23V59.76h1.06v1.07a2.66,2.66,0,0,1,.87-1,2,2,0,0,1,1.09-.3,2.38,2.38,0,0,1,1.45.48,3.2,3.2,0,0,1,1,1.45,6.2,6.2,0,0,1,.4,2.33,5.26,5.26,0,0,1-.89,3.27A2.59,2.59,0,0,1,768,68.24a2,2,0,0,1-1-.27,2.44,2.44,0,0,1-.79-.78v4Zm1-7.28a4.2,4.2,0,0,0,.53,2.37,1.47,1.47,0,0,0,2.59,0,5.62,5.62,0,0,0,0-4.85,1.42,1.42,0,0,0-2.57.06A4.33,4.33,0,0,0,766.14,64Z"/><path class="cls-4" d="M777,65.38l1.19.18a3.6,3.6,0,0,1-1.07,2,3.07,3.07,0,0,1-4.27-.43A4.92,4.92,0,0,1,772,64a5.15,5.15,0,0,1,.9-3.28,2.8,2.8,0,0,1,2.28-1.13,2.72,2.72,0,0,1,2.21,1.11,5.05,5.05,0,0,1,.88,3.21v.37h-5.08a3.62,3.62,0,0,0,.65,2.11,1.75,1.75,0,0,0,1.41.71C776.09,67.08,776.7,66.52,777,65.38Zm-3.78-2.27H777a3.08,3.08,0,0,0-.46-1.61,1.68,1.68,0,0,0-2.73-.13A2.76,2.76,0,0,0,773.25,63.11Z"/><path class="cls-4" d="M782.25,66.8,782.4,68a3.54,3.54,0,0,1-.86.12,1.76,1.76,0,0,1-1-.24,1.17,1.17,0,0,1-.5-.65,6.29,6.29,0,0,1-.14-1.65V60.85h-.84V59.76h.84V57.7l1.15-.84v2.9h1.17v1.09h-1.17V65.7a2.49,2.49,0,0,0,.1.87.57.57,0,0,0,.56.28A3.92,3.92,0,0,0,782.25,66.8Z"/><path class="cls-4" d="M785.89,66.8l.16,1.24a3.54,3.54,0,0,1-.86.12,1.76,1.76,0,0,1-1-.24,1.17,1.17,0,0,1-.5-.65,6.29,6.29,0,0,1-.14-1.65V60.85h-.84V59.76h.84V57.7l1.15-.84v2.9h1.16v1.09h-1.16V65.7a2.26,2.26,0,0,0,.1.87.57.57,0,0,0,.56.28A3.64,3.64,0,0,0,785.89,66.8Z"/><path class="cls-4" d="M787,58.22V56.6h1.15v1.62Zm0,9.83V59.76h1.15v8.29Z"/><path class="cls-4" d="M789.89,68.05V59.76h1v1.17a2.63,2.63,0,0,1,.92-1,2.24,2.24,0,0,1,1.24-.34,2.4,2.4,0,0,1,1,.21,2.19,2.19,0,0,1,.75.57,2.36,2.36,0,0,1,.43.9,7.77,7.77,0,0,1,.14,1.7v5.1h-1.15V63a4,4,0,0,0-.16-1.34,1.29,1.29,0,0,0-.49-.65,1.32,1.32,0,0,0-.77-.23,1.61,1.61,0,0,0-1.32.62,3.53,3.53,0,0,0-.49,2.12v4.53Z"/><path class="cls-4" d="M797,68.74l1.13.2a1.46,1.46,0,0,0,.47,1,1.62,1.62,0,0,0,1.08.32,1.88,1.88,0,0,0,1.21-.36,1.85,1.85,0,0,0,.61-1.08,9.8,9.8,0,0,0,.11-1.84,2.78,2.78,0,0,1-.85.8,2,2,0,0,1-1,.27,2.46,2.46,0,0,1-2-1,5,5,0,0,1-.92-3.18,6.15,6.15,0,0,1,.4-2.33A3.2,3.2,0,0,1,798.21,60a2.51,2.51,0,0,1,1.48-.47,2.18,2.18,0,0,1,1.1.29,2.87,2.87,0,0,1,.88.89v-1h1.06v7.17a8.64,8.64,0,0,1-.31,2.73,2.67,2.67,0,0,1-1,1.29,3,3,0,0,1-1.71.47,2.76,2.76,0,0,1-2-.71A2.62,2.62,0,0,1,797,68.74Zm1-5a4.18,4.18,0,0,0,.54,2.39,1.59,1.59,0,0,0,1.32.75,1.62,1.62,0,0,0,1.33-.74,3.92,3.92,0,0,0,.55-2.34,4,4,0,0,0-.56-2.33,1.67,1.67,0,0,0-1.37-.76,1.55,1.55,0,0,0-1.27.76A3.92,3.92,0,0,0,797.92,63.76Z"/><path class="cls-4" d="M810.7,66.8l.15,1.24a3.47,3.47,0,0,1-.85.12,1.72,1.72,0,0,1-1-.24,1.14,1.14,0,0,1-.51-.65,6.43,6.43,0,0,1-.13-1.65V60.85h-.85V59.76h.85V57.7l1.14-.84v2.9h1.17v1.09h-1.17V65.7a2.2,2.2,0,0,0,.11.87.55.55,0,0,0,.55.28A3.92,3.92,0,0,0,810.7,66.8Z"/><path class="cls-4" d="M811.78,68.05V56.6h1.15v4.11a2.86,2.86,0,0,1,.92-.86,2.28,2.28,0,0,1,1.13-.28,2.19,2.19,0,0,1,1.71.69,3.84,3.84,0,0,1,.63,2.54v5.25h-1.15V62.8a2.43,2.43,0,0,0-.38-1.55,1.28,1.28,0,0,0-1-.47,1.64,1.64,0,0,0-1.28.6,3.28,3.28,0,0,0-.53,2.13v4.54Z"/><path class="cls-4" d="M823.73,65.38l1.19.18a3.61,3.61,0,0,1-1.08,2,3.06,3.06,0,0,1-4.26-.43,4.86,4.86,0,0,1-.9-3.16,5.15,5.15,0,0,1,.9-3.28,2.84,2.84,0,0,1,2.29-1.13,2.71,2.71,0,0,1,2.2,1.11,5.05,5.05,0,0,1,.89,3.21v.37h-5.08a3.55,3.55,0,0,0,.65,2.11,1.72,1.72,0,0,0,1.4.71C822.79,67.08,823.39,66.52,823.73,65.38Zm-3.79-2.27h3.8a3.18,3.18,0,0,0-.46-1.61,1.66,1.66,0,0,0-1.42-.77,1.68,1.68,0,0,0-1.32.64A2.88,2.88,0,0,0,819.94,63.11Z"/><path class="cls-4" d="M834.48,65l1.13.18a3.76,3.76,0,0,1-1,2.27,2.57,2.57,0,0,1-1.88.78,2.64,2.64,0,0,1-2.2-1.1,5.13,5.13,0,0,1-.87-3.24,5.12,5.12,0,0,1,.87-3.25,2.75,2.75,0,0,1,2.24-1.08,2.53,2.53,0,0,1,1.78.66,3.23,3.23,0,0,1,.93,2l-1.12.21a2.47,2.47,0,0,0-.57-1.26,1.31,1.31,0,0,0-1-.41,1.69,1.69,0,0,0-1.41.75,4.06,4.06,0,0,0-.56,2.39,4.35,4.35,0,0,0,.54,2.46,1.61,1.61,0,0,0,1.37.75,1.45,1.45,0,0,0,1.12-.5A2.71,2.71,0,0,0,834.48,65Z"/><path class="cls-4" d="M836.59,68.05V59.76h1V61a3.5,3.5,0,0,1,.73-1.16,1.1,1.1,0,0,1,.74-.28,2,2,0,0,1,1.18.45l-.39,1.31a1.38,1.38,0,0,0-.83-.31,1,1,0,0,0-.67.26A1.31,1.31,0,0,0,838,62a6.36,6.36,0,0,0-.22,1.71v4.34Z"/><path class="cls-4" d="M840.52,63.91a5,5,0,0,1,.9-3.25,2.93,2.93,0,0,1,4.56,0,4.8,4.8,0,0,1,.91,3.16,5.23,5.23,0,0,1-.89,3.33,2.93,2.93,0,0,1-4.57,0A4.94,4.94,0,0,1,840.52,63.91Zm1.18,0a4,4,0,0,0,.58,2.4,1.77,1.77,0,0,0,1.46.78,1.69,1.69,0,0,0,1.39-.79,5.21,5.21,0,0,0,0-4.78,1.77,1.77,0,0,0-1.46-.78,1.67,1.67,0,0,0-1.39.79A4,4,0,0,0,841.7,63.9Z"/><path class="cls-4" d="M849.51,68.05l-2.09-8.29h1.19l1.08,4.79.4,1.78.36-1.71,1.08-4.86h1.19l1,4.81.35,1.59.39-1.61,1.16-4.79h1.12l-2.12,8.29h-1.2l-1.09-5-.26-1.41-1.37,6.38Z"/><path class="cls-4" d="M862.13,68.05V67a2.33,2.33,0,0,1-.81.91,1.84,1.84,0,0,1-1.06.32,2.57,2.57,0,0,1-2.08-1.14,5.07,5.07,0,0,1-.88-3.19,6.48,6.48,0,0,1,.39-2.4,3.18,3.18,0,0,1,1-1.46,2.4,2.4,0,0,1,1.45-.48,1.94,1.94,0,0,1,1.05.3,2.33,2.33,0,0,1,.81.84V56.6h1.17V68.05Zm-3.65-4.14A4.13,4.13,0,0,0,859,66.3a1.58,1.58,0,0,0,1.3.78,1.55,1.55,0,0,0,1.27-.75,3.86,3.86,0,0,0,.54-2.26,4.63,4.63,0,0,0-.54-2.54,1.58,1.58,0,0,0-1.36-.8,1.49,1.49,0,0,0-1.25.77A4.33,4.33,0,0,0,858.48,63.91Z"/><path class="cls-4" d="M865.35,68.05v-1.6h1.32v1.6a3.11,3.11,0,0,1-.28,1.46,1.87,1.87,0,0,1-.79.81l-.32-.6a1.25,1.25,0,0,0,.53-.56,2.81,2.81,0,0,0,.19-1.11Z"/><path class="cls-4" d="M743.5,84.58l1.18.18a3.6,3.6,0,0,1-1.07,2,3.07,3.07,0,0,1-4.27-.43,4.92,4.92,0,0,1-.89-3.16,5.15,5.15,0,0,1,.9-3.28,2.81,2.81,0,0,1,2.29-1.13,2.71,2.71,0,0,1,2.2,1.11,5.05,5.05,0,0,1,.88,3.21v.37h-5.07a3.55,3.55,0,0,0,.64,2.11,1.76,1.76,0,0,0,1.41.72C742.55,86.29,743.16,85.72,743.5,84.58Zm-3.79-2.27h3.79A3.08,3.08,0,0,0,743,80.7a1.68,1.68,0,0,0-2.73-.13A2.76,2.76,0,0,0,739.71,82.31Z"/><path class="cls-4" d="M750.57,86.23a4.33,4.33,0,0,1-1.2.91,3,3,0,0,1-1.3.3,2.26,2.26,0,0,1-1.69-.64,2.36,2.36,0,0,1-.63-1.73A2.62,2.62,0,0,1,746,83.8a2.27,2.27,0,0,1,.81-.87,4.54,4.54,0,0,1,1.57-.46,9,9,0,0,0,2.06-.49v-.36a1.75,1.75,0,0,0-.31-1.19,1.61,1.61,0,0,0-1.32-.5,1.85,1.85,0,0,0-1.2.33,2.18,2.18,0,0,0-.59,1.25l-1.13-.19a3.15,3.15,0,0,1,1-1.94,3.22,3.22,0,0,1,2.11-.61,3,3,0,0,1,1.68.4,1.69,1.69,0,0,1,.77,1,6.87,6.87,0,0,1,.16,1.73v1.88a23.12,23.12,0,0,0,.08,2.48,3.87,3.87,0,0,0,.29,1h-1.2A3.48,3.48,0,0,1,750.57,86.23Zm-.09-3.14a7,7,0,0,1-1.88.53,3.27,3.27,0,0,0-1,.29,1.08,1.08,0,0,0-.45.45A1.45,1.45,0,0,0,747,85a1.22,1.22,0,0,0,.37.94,1.37,1.37,0,0,0,1,.36,2.1,2.1,0,0,0,1.13-.32,2,2,0,0,0,.75-.86,3.7,3.7,0,0,0,.25-1.55Z"/><path class="cls-4" d="M757.89,84.21l1.14.18a3.82,3.82,0,0,1-1,2.27,2.61,2.61,0,0,1-1.89.78,2.67,2.67,0,0,1-2.2-1.1,6.52,6.52,0,0,1,0-6.49,2.74,2.74,0,0,1,2.24-1.08,2.52,2.52,0,0,1,1.77.66,3.23,3.23,0,0,1,.93,2l-1.12.21a2.47,2.47,0,0,0-.57-1.26,1.3,1.3,0,0,0-1-.41,1.72,1.72,0,0,0-1.42.75,4.07,4.07,0,0,0-.55,2.39,4.45,4.45,0,0,0,.53,2.46,1.63,1.63,0,0,0,1.37.76,1.46,1.46,0,0,0,1.12-.51A2.71,2.71,0,0,0,757.89,84.21Z"/><path class="cls-4" d="M760,87.25V75.8h1.15v4.11a3,3,0,0,1,.92-.86,2.28,2.28,0,0,1,1.13-.28,2.2,2.2,0,0,1,1.71.69,3.84,3.84,0,0,1,.63,2.54v5.25h-1.15V82a2.43,2.43,0,0,0-.38-1.55,1.29,1.29,0,0,0-1-.47,1.64,1.64,0,0,0-1.28.6,3.28,3.28,0,0,0-.53,2.13v4.54Z"/><path class="cls-4" d="M771,87.25V75.8h1.15v4.11a3,3,0,0,1,.91-.86,2.31,2.31,0,0,1,1.13-.28,2.21,2.21,0,0,1,1.72.69,3.84,3.84,0,0,1,.63,2.54v5.25h-1.15V82a2.5,2.5,0,0,0-.38-1.55A1.31,1.31,0,0,0,773.9,80a1.66,1.66,0,0,0-1.28.6,3.28,3.28,0,0,0-.52,2.13v4.54Z"/><path class="cls-4" d="M782.89,84.58l1.19.18a3.6,3.6,0,0,1-1.07,2,3.07,3.07,0,0,1-4.27-.43,4.86,4.86,0,0,1-.89-3.16,5.15,5.15,0,0,1,.9-3.28A2.8,2.8,0,0,1,781,78.77a2.72,2.72,0,0,1,2.21,1.11,5.05,5.05,0,0,1,.88,3.21v.37H779a3.62,3.62,0,0,0,.65,2.11,1.76,1.76,0,0,0,1.41.72Q782.38,86.29,782.89,84.58Zm-3.79-2.27h3.8a3.08,3.08,0,0,0-.46-1.61,1.68,1.68,0,0,0-2.73-.13A2.82,2.82,0,0,0,779.1,82.31Z"/><path class="cls-4" d="M790,86.23a4.33,4.33,0,0,1-1.2.91,3,3,0,0,1-1.3.3,2.25,2.25,0,0,1-1.69-.64,2.32,2.32,0,0,1-.64-1.73,2.62,2.62,0,0,1,.3-1.27,2.27,2.27,0,0,1,.81-.87,4.54,4.54,0,0,1,1.57-.46,9,9,0,0,0,2.06-.49v-.36a1.81,1.81,0,0,0-.31-1.19,1.63,1.63,0,0,0-1.32-.5,1.83,1.83,0,0,0-1.2.33,2.18,2.18,0,0,0-.59,1.25l-1.13-.19a3.15,3.15,0,0,1,1-1.94,3.22,3.22,0,0,1,2.11-.61,3,3,0,0,1,1.68.4,1.69,1.69,0,0,1,.77,1A6.87,6.87,0,0,1,791,81.9v1.88a23.12,23.12,0,0,0,.08,2.48,3.51,3.51,0,0,0,.29,1h-1.2A3.48,3.48,0,0,1,790,86.23Zm-.09-3.14a7,7,0,0,1-1.88.53,3.27,3.27,0,0,0-1,.29,1.08,1.08,0,0,0-.45.45,1.34,1.34,0,0,0-.16.68,1.22,1.22,0,0,0,.37.94,1.37,1.37,0,0,0,1,.36,2.06,2.06,0,0,0,1.12-.32,2,2,0,0,0,.76-.86,3.86,3.86,0,0,0,.25-1.55Z"/><path class="cls-4" d="M797.25,87.25v-1a2.33,2.33,0,0,1-.81.91,1.86,1.86,0,0,1-1.06.32,2.57,2.57,0,0,1-2.08-1.14,5.07,5.07,0,0,1-.88-3.19,6.48,6.48,0,0,1,.39-2.4,3.11,3.11,0,0,1,1-1.46,2.35,2.35,0,0,1,1.44-.48,2,2,0,0,1,1.06.3,2.33,2.33,0,0,1,.81.84V75.8h1.16V87.25Zm-3.65-4.14a4.05,4.05,0,0,0,.56,2.39,1.59,1.59,0,0,0,1.3.79,1.55,1.55,0,0,0,1.27-.75,3.9,3.9,0,0,0,.54-2.27,4.63,4.63,0,0,0-.54-2.54,1.58,1.58,0,0,0-1.36-.8,1.49,1.49,0,0,0-1.25.77A4.33,4.33,0,0,0,793.6,83.11Z"/><path class="cls-4" d="M808.43,84.58l1.19.18a3.67,3.67,0,0,1-1.07,2,3.07,3.07,0,0,1-4.27-.43,4.86,4.86,0,0,1-.89-3.16,5.15,5.15,0,0,1,.9-3.28,2.8,2.8,0,0,1,2.28-1.13,2.72,2.72,0,0,1,2.21,1.11,5.05,5.05,0,0,1,.88,3.21v.37h-5.08a3.62,3.62,0,0,0,.65,2.11,1.76,1.76,0,0,0,1.41.72Q807.92,86.29,808.43,84.58Zm-3.79-2.27h3.8A3.18,3.18,0,0,0,808,80.7a1.68,1.68,0,0,0-2.73-.13A2.82,2.82,0,0,0,804.64,82.31Z"/><path class="cls-4" d="M815.51,86.23a4.64,4.64,0,0,1-1.2.91,3,3,0,0,1-1.3.3,2.25,2.25,0,0,1-1.69-.64,2.32,2.32,0,0,1-.64-1.73,2.62,2.62,0,0,1,.3-1.27,2.27,2.27,0,0,1,.81-.87,4.54,4.54,0,0,1,1.56-.46,9,9,0,0,0,2.07-.49v-.36a1.81,1.81,0,0,0-.3-1.19,1.63,1.63,0,0,0-1.32-.5,1.83,1.83,0,0,0-1.2.33,2.18,2.18,0,0,0-.59,1.25l-1.13-.19a3.15,3.15,0,0,1,1-1.94,3.2,3.2,0,0,1,2.11-.61,3,3,0,0,1,1.68.4,1.73,1.73,0,0,1,.77,1,6.87,6.87,0,0,1,.16,1.73v1.88a23.12,23.12,0,0,0,.08,2.48,3.51,3.51,0,0,0,.29,1h-1.2A3.19,3.19,0,0,1,815.51,86.23Zm-.09-3.14a7,7,0,0,1-1.89.53,3.28,3.28,0,0,0-1,.29,1.08,1.08,0,0,0-.45.45,1.34,1.34,0,0,0-.16.68,1.22,1.22,0,0,0,.37.94,1.37,1.37,0,0,0,1,.36,2.06,2.06,0,0,0,1.12-.32,2,2,0,0,0,.76-.86,3.86,3.86,0,0,0,.25-1.55Z"/><path class="cls-4" d="M822.83,84.21l1.13.18a3.76,3.76,0,0,1-1,2.27,2.57,2.57,0,0,1-1.88.78,2.66,2.66,0,0,1-2.2-1.1A5.13,5.13,0,0,1,818,83.1a5.06,5.06,0,0,1,.88-3.25,2.73,2.73,0,0,1,2.23-1.08,2.53,2.53,0,0,1,1.78.66,3.23,3.23,0,0,1,.93,2l-1.12.21a2.47,2.47,0,0,0-.57-1.26,1.31,1.31,0,0,0-1-.41,1.7,1.7,0,0,0-1.41.75,4.06,4.06,0,0,0-.56,2.39,4.35,4.35,0,0,0,.54,2.46,1.63,1.63,0,0,0,1.37.76,1.46,1.46,0,0,0,1.12-.51A2.71,2.71,0,0,0,822.83,84.21Z"/><path class="cls-4" d="M824.94,87.25V75.8h1.15v4.11a3,3,0,0,1,.92-.86,2.26,2.26,0,0,1,1.13-.28,2.2,2.2,0,0,1,1.71.69,3.84,3.84,0,0,1,.63,2.54v5.25h-1.15V82a2.5,2.5,0,0,0-.38-1.55,1.31,1.31,0,0,0-1.06-.47,1.62,1.62,0,0,0-1.27.6,3.22,3.22,0,0,0-.53,2.13v4.54Z"/><path class="cls-4" d="M838.45,86l.15,1.24a3.47,3.47,0,0,1-.85.12,1.72,1.72,0,0,1-1-.24,1.14,1.14,0,0,1-.51-.65,6.43,6.43,0,0,1-.13-1.65V80.05h-.85V79h.85V76.9l1.14-.84V79h1.17v1.09h-1.17V84.9a2.2,2.2,0,0,0,.11.87.55.55,0,0,0,.55.28A3.92,3.92,0,0,0,838.45,86Z"/><path class="cls-4" d="M844,86.23a4.33,4.33,0,0,1-1.2.91,3,3,0,0,1-1.3.3,2.26,2.26,0,0,1-1.69-.64,2.36,2.36,0,0,1-.63-1.73,2.62,2.62,0,0,1,.29-1.27,2.22,2.22,0,0,1,.82-.87,4.4,4.4,0,0,1,1.56-.46,8.87,8.87,0,0,0,2.06-.49v-.36a1.75,1.75,0,0,0-.31-1.19,1.61,1.61,0,0,0-1.32-.5,1.87,1.87,0,0,0-1.2.33,2.18,2.18,0,0,0-.59,1.25l-1.13-.19a3.15,3.15,0,0,1,1-1.94,3.22,3.22,0,0,1,2.11-.61,3,3,0,0,1,1.68.4,1.69,1.69,0,0,1,.77,1A6.87,6.87,0,0,1,845,81.9v1.88a23.12,23.12,0,0,0,.08,2.48,3.87,3.87,0,0,0,.29,1h-1.2A3.48,3.48,0,0,1,844,86.23Zm-.09-3.14a7,7,0,0,1-1.88.53,3.27,3.27,0,0,0-1,.29,1.08,1.08,0,0,0-.45.45,1.45,1.45,0,0,0-.16.68,1.22,1.22,0,0,0,.37.94,1.38,1.38,0,0,0,1,.36,2.09,2.09,0,0,0,1.12-.32,2,2,0,0,0,.75-.86,3.7,3.7,0,0,0,.25-1.55Z"/><path class="cls-4" d="M846.83,77.42V75.8H848v1.62Zm0,9.83V79H848v8.29Z"/><path class="cls-4" d="M849.71,87.25V75.8h1.14V87.25Z"/><path class="cls-4" d="M858.87,86l.16,1.24a3.61,3.61,0,0,1-.86.12,1.74,1.74,0,0,1-1-.24,1.18,1.18,0,0,1-.51-.65,6.43,6.43,0,0,1-.13-1.65V80.05h-.85V79h.85V76.9l1.15-.84V79h1.16v1.09h-1.16V84.9a2.26,2.26,0,0,0,.1.87.56.56,0,0,0,.55.28A3.92,3.92,0,0,0,858.87,86Z"/><path class="cls-4" d="M860,87.25V75.8h1.14v4.11a3.09,3.09,0,0,1,.92-.86,2.28,2.28,0,0,1,1.13-.28,2.21,2.21,0,0,1,1.72.69A3.84,3.84,0,0,1,865.5,82v5.25h-1.15V82a2.43,2.43,0,0,0-.39-1.55,1.28,1.28,0,0,0-1.05-.47,1.64,1.64,0,0,0-1.28.6,3.28,3.28,0,0,0-.53,2.13v4.54Z"/><path class="cls-4" d="M871.9,84.58l1.19.18a3.61,3.61,0,0,1-1.08,2,2.81,2.81,0,0,1-1.92.67,2.85,2.85,0,0,1-2.34-1.1,4.86,4.86,0,0,1-.9-3.16,5.15,5.15,0,0,1,.91-3.28A2.8,2.8,0,0,1,870,78.77a2.72,2.72,0,0,1,2.21,1.11,5.11,5.11,0,0,1,.88,3.21v.37H868a3.55,3.55,0,0,0,.65,2.11,1.75,1.75,0,0,0,1.41.72Q871.39,86.29,871.9,84.58Zm-3.79-2.27h3.8a3.18,3.18,0,0,0-.46-1.61,1.66,1.66,0,0,0-1.42-.77,1.68,1.68,0,0,0-1.32.64A2.88,2.88,0,0,0,868.11,82.31Z"/><path class="cls-4" d="M738.4,104l1.15-.22a2.09,2.09,0,0,0,.55,1.31,1.69,1.69,0,0,0,1.2.42,1.65,1.65,0,0,0,1.16-.37,1.21,1.21,0,0,0,.41-.94.91.91,0,0,0-.35-.76,4,4,0,0,0-1.17-.47,8.15,8.15,0,0,1-1.8-.71,1.93,1.93,0,0,1-.7-.77,2.54,2.54,0,0,1,.43-2.83,2.58,2.58,0,0,1,1.88-.66,3.1,3.1,0,0,1,1.33.27,2.08,2.08,0,0,1,.88.74,3.2,3.2,0,0,1,.42,1.32l-1.12.18a1.36,1.36,0,0,0-1.48-1.36,1.76,1.76,0,0,0-1.12.3,1,1,0,0,0-.36.77.82.82,0,0,0,.35.72,5.91,5.91,0,0,0,1.25.5,9.22,9.22,0,0,1,1.85.73,1.87,1.87,0,0,1,.66.73,2.53,2.53,0,0,1,.23,1.11,2.61,2.61,0,0,1-.75,1.93,2.84,2.84,0,0,1-2.06.73C739.61,106.64,738.66,105.75,738.4,104Z"/><path class="cls-4" d="M749.84,105.43a4.64,4.64,0,0,1-1.2.91,3,3,0,0,1-1.3.3,2.28,2.28,0,0,1-1.7-.64,2.36,2.36,0,0,1-.63-1.73,2.62,2.62,0,0,1,.3-1.27,2.27,2.27,0,0,1,.81-.87,4.2,4.2,0,0,1,1.56-.46,9,9,0,0,0,2.07-.49v-.36a1.85,1.85,0,0,0-.3-1.2,1.67,1.67,0,0,0-1.32-.5,1.88,1.88,0,0,0-1.21.34,2.18,2.18,0,0,0-.58,1.25l-1.13-.19a3.07,3.07,0,0,1,1-1.94A3.2,3.2,0,0,1,748.3,98a3,3,0,0,1,1.68.4,1.73,1.73,0,0,1,.77,1,6.87,6.87,0,0,1,.16,1.73V103a24.27,24.27,0,0,0,.07,2.48,3.53,3.53,0,0,0,.3,1h-1.21A3.49,3.49,0,0,1,749.84,105.43Zm-.09-3.14a7.5,7.5,0,0,1-1.89.53,3.28,3.28,0,0,0-1,.29,1,1,0,0,0-.45.45,1.33,1.33,0,0,0-.16.67,1.26,1.26,0,0,0,.36,1,1.41,1.41,0,0,0,1,.36,2.06,2.06,0,0,0,1.12-.32,2,2,0,0,0,.76-.86,3.88,3.88,0,0,0,.25-1.56Z"/><path class="cls-4" d="M752.71,106.45V98.16h1v1.15a2.5,2.5,0,0,1,.88-1A2.06,2.06,0,0,1,755.8,98a1.87,1.87,0,0,1,1.92,1.44,3.27,3.27,0,0,1,.94-1.08,2,2,0,0,1,1.17-.36,1.93,1.93,0,0,1,1.55.66,3.31,3.31,0,0,1,.56,2.13v5.69h-1.15v-5.23a4.16,4.16,0,0,0-.13-1.26,1.09,1.09,0,0,0-.42-.58,1.14,1.14,0,0,0-.65-.2,1.51,1.51,0,0,0-1.22.59,3,3,0,0,0-.47,1.86v4.82h-1.15v-5.39a2.53,2.53,0,0,0-.31-1.46,1,1,0,0,0-.87-.42,1.44,1.44,0,0,0-1.25.64,4.16,4.16,0,0,0-.46,2.32v4.31Z"/><path class="cls-4" d="M768.28,103.78l1.19.18a3.57,3.57,0,0,1-1.07,2,2.79,2.79,0,0,1-1.93.68,2.89,2.89,0,0,1-2.34-1.1,4.93,4.93,0,0,1-.89-3.16,5.15,5.15,0,0,1,.9-3.28A2.78,2.78,0,0,1,766.42,98a2.72,2.72,0,0,1,2.21,1.11,5.05,5.05,0,0,1,.88,3.21v.37h-5.08a3.62,3.62,0,0,0,.65,2.11,1.75,1.75,0,0,0,1.41.71C767.34,105.48,768,104.92,768.28,103.78Zm-3.78-2.27h3.79a3.08,3.08,0,0,0-.46-1.61,1.66,1.66,0,0,0-2.73-.13A2.76,2.76,0,0,0,764.5,101.51Z"/><path class="cls-4" d="M771.27,106.45v-1.6h1.31v1.6a3.25,3.25,0,0,1-.27,1.46,2,2,0,0,1-.8.81l-.32-.6a1.25,1.25,0,0,0,.53-.56,2.78,2.78,0,0,0,.2-1.11Z"/><path class="cls-4" d="M782.64,106.45v-1a2.33,2.33,0,0,1-.81.91,1.86,1.86,0,0,1-1.06.32,2.57,2.57,0,0,1-2.08-1.14,5.08,5.08,0,0,1-.88-3.2,6.47,6.47,0,0,1,.39-2.39,3.11,3.11,0,0,1,1-1.46,2.38,2.38,0,0,1,1.45-.48,1.94,1.94,0,0,1,1,.3,2.33,2.33,0,0,1,.81.84V95h1.16v11.45ZM779,102.31a4.05,4.05,0,0,0,.56,2.39,1.58,1.58,0,0,0,1.3.78,1.55,1.55,0,0,0,1.27-.75,3.86,3.86,0,0,0,.54-2.26,4.63,4.63,0,0,0-.54-2.54,1.59,1.59,0,0,0-1.36-.81,1.52,1.52,0,0,0-1.25.77A4.39,4.39,0,0,0,779,102.31Z"/><path class="cls-4" d="M785.09,102.3a5,5,0,0,1,.9-3.24,2.93,2.93,0,0,1,4.56,0,4.8,4.8,0,0,1,.91,3.16,5.23,5.23,0,0,1-.89,3.33,2.93,2.93,0,0,1-4.57,0A5,5,0,0,1,785.09,102.3Zm1.18,0a4,4,0,0,0,.58,2.4,1.78,1.78,0,0,0,1.46.78,1.69,1.69,0,0,0,1.39-.79,5.21,5.21,0,0,0,0-4.78,1.77,1.77,0,0,0-1.45-.79,1.69,1.69,0,0,0-1.4.8A4,4,0,0,0,786.27,102.3Z"/><path class="cls-4" d="M792.82,106.45V98.16h1v1.17a2.63,2.63,0,0,1,.92-1A2.24,2.24,0,0,1,796,98a2.4,2.4,0,0,1,1,.21,2.08,2.08,0,0,1,.75.57,2.36,2.36,0,0,1,.43.9,7.77,7.77,0,0,1,.14,1.7v5.1H797.2v-5a4,4,0,0,0-.16-1.34,1.25,1.25,0,0,0-.49-.65,1.32,1.32,0,0,0-.77-.23,1.61,1.61,0,0,0-1.32.62,3.53,3.53,0,0,0-.49,2.12v4.53Z"/><path class="cls-4" d="M800,96.64V95h1.25v1.29a3.77,3.77,0,0,1-.27,1.64,1.86,1.86,0,0,1-.8.82l-.28-.55c.46-.23.69-.75.71-1.56Z"/><path class="cls-4" d="M805.6,105.2l.15,1.24a3.48,3.48,0,0,1-.86.12,1.76,1.76,0,0,1-1-.24,1.17,1.17,0,0,1-.5-.65,6.29,6.29,0,0,1-.14-1.65V99.25h-.84V98.16h.84V96.1l1.15-.84v2.9h1.17v1.09h-1.17v4.85a2.49,2.49,0,0,0,.1.87.57.57,0,0,0,.56.28A3.92,3.92,0,0,0,805.6,105.2Z"/><path class="cls-4" d="M811.58,106.45l-2.08-8.29h1.19l1.08,4.79.4,1.78.36-1.71,1.08-4.86h1.19l1,4.81.35,1.58.38-1.6,1.17-4.79h1.12l-2.12,8.29h-1.2l-1.09-5-.26-1.41-1.37,6.38Z"/><path class="cls-4" d="M819.36,102.3a5,5,0,0,1,.9-3.24,2.93,2.93,0,0,1,4.56,0,4.8,4.8,0,0,1,.92,3.16,5.17,5.17,0,0,1-.9,3.33,2.83,2.83,0,0,1-2.29,1.09,2.86,2.86,0,0,1-2.28-1.1A5,5,0,0,1,819.36,102.3Zm1.18,0a4,4,0,0,0,.59,2.4,1.75,1.75,0,0,0,1.45.78,1.7,1.7,0,0,0,1.4-.79,4.11,4.11,0,0,0,.58-2.39,4,4,0,0,0-.59-2.39,1.76,1.76,0,0,0-1.45-.79,1.7,1.7,0,0,0-1.4.8A4,4,0,0,0,820.54,102.3Z"/><path class="cls-4" d="M827.1,106.45V98.16h1v1.25a3.35,3.35,0,0,1,.73-1.16,1.1,1.1,0,0,1,.74-.28,2,2,0,0,1,1.18.45l-.39,1.31a1.38,1.38,0,0,0-.83-.31,1.05,1.05,0,0,0-.68.26,1.44,1.44,0,0,0-.43.72,6.68,6.68,0,0,0-.21,1.71v4.34Z"/><path class="cls-4" d="M831.46,106.45V98.16h1v1.25a3.67,3.67,0,0,1,.73-1.16A1.13,1.13,0,0,1,834,98a2,2,0,0,1,1.18.45l-.39,1.31a1.43,1.43,0,0,0-.84-.31,1,1,0,0,0-.67.26,1.37,1.37,0,0,0-.43.72,6.67,6.67,0,0,0-.22,1.71v4.34Z"/><path class="cls-4" d="M835.79,109.65l-.12-1.32a2.2,2.2,0,0,0,.65.12,1.13,1.13,0,0,0,.61-.15,1.08,1.08,0,0,0,.4-.46c0-.07.18-.53.45-1.37l-2.59-8.31h1.24l1.42,4.8c.18.6.35,1.24.5,1.92a18.64,18.64,0,0,1,.47-1.89l1.45-4.83h1.15l-2.58,8.43a14.66,14.66,0,0,1-.8,2.2,2.14,2.14,0,0,1-.66.79,1.53,1.53,0,0,1-.84.24A2.1,2.1,0,0,1,835.79,109.65Z"/><path class="cls-4" d="M843,103.61l-.35-6.07V95h1.43v2.54l-.33,6.07Zm-.29,2.84v-1.6h1.32v1.6Z"/><path class="cls-4" d="M558.7,24.64v-1.3l6.22-3.22v1.39L560,24l4.93,2.49v1.4Z"/><path class="cls-4" d="M566.52,32.83V21.35h1.06v1.08a2.77,2.77,0,0,1,.86-1,2,2,0,0,1,1.1-.3,2.4,2.4,0,0,1,1.45.48,3.26,3.26,0,0,1,1,1.45,6.3,6.3,0,0,1,.39,2.34,5.23,5.23,0,0,1-.88,3.26,2.62,2.62,0,0,1-2.09,1.15,1.86,1.86,0,0,1-1-.28,2.54,2.54,0,0,1-.8-.77v4Zm1-7.28a4.15,4.15,0,0,0,.54,2.37,1.47,1.47,0,0,0,2.59,0,4.3,4.3,0,0,0,.55-2.44,4.26,4.26,0,0,0-.54-2.4,1.54,1.54,0,0,0-1.3-.78,1.58,1.58,0,0,0-1.27.84A4.33,4.33,0,0,0,567.56,25.55Z"/><path class="cls-4" d="M579.88,24.64l-6.22,3.24v-1.4L578.59,24l-4.93-2.48V20.12l6.22,3.22Z"/><path class="cls-4" d="M918.7,276.57v-1.3l6.22-3.22v1.4L920,275.92l4.93,2.5v1.4Z"/><path class="cls-4" d="M925.66,281.77l2.72-11.84h.94l-2.73,11.84Z"/><path class="cls-4" d="M930.16,284.76V273.29h1.07v1.07a2.73,2.73,0,0,1,.86-1,2,2,0,0,1,1.09-.3,2.36,2.36,0,0,1,1.45.48,3.24,3.24,0,0,1,1,1.44,6.3,6.3,0,0,1,.39,2.34,5.26,5.26,0,0,1-.89,3.27,2.58,2.58,0,0,1-2.08,1.14,1.94,1.94,0,0,1-1-.27,2.58,2.58,0,0,1-.8-.78v4Zm1.05-7.28a4.15,4.15,0,0,0,.54,2.37,1.56,1.56,0,0,0,1.3.76,1.58,1.58,0,0,0,1.29-.78,5.67,5.67,0,0,0,0-4.85,1.42,1.42,0,0,0-2.57.06A4.33,4.33,0,0,0,931.21,277.48Z"/><path class="cls-4" d="M943.53,276.57l-6.22,3.25v-1.4l4.93-2.5-4.93-2.47v-1.4l6.22,3.22Z"/><path class="cls-4" d="M558.6,523.7v-1.36h6.07v1.1a17.27,17.27,0,0,0-2.39,4.6,19.56,19.56,0,0,0-1.19,5.61h-1.18a16.86,16.86,0,0,1,.46-3.35,19.74,19.74,0,0,1,1.19-3.65,15.81,15.81,0,0,1,1.63-2.95Z"/><path class="cls-4" d="M566,531l1.11-.12c.18,1.2.7,1.81,1.56,1.81a1.55,1.55,0,0,0,1.05-.4,3,3,0,0,0,.81-1.4,7.9,7.9,0,0,0,.32-2.35v-.28a2.94,2.94,0,0,1-1,1.1,2.27,2.27,0,0,1-1.25.41,2.52,2.52,0,0,1-2-1,4.19,4.19,0,0,1-.83-2.74,4.34,4.34,0,0,1,.86-2.84,2.65,2.65,0,0,1,2.1-1,2.6,2.6,0,0,1,1.63.58,3.63,3.63,0,0,1,1.18,1.7,10,10,0,0,1,.41,3.24,11.72,11.72,0,0,1-.45,3.67,3.9,3.9,0,0,1-1.2,1.9,2.7,2.7,0,0,1-1.71.6,2.41,2.41,0,0,1-1.79-.73A3.41,3.41,0,0,1,566,531Zm4.73-5.06a3,3,0,0,0-.55-1.93,1.58,1.58,0,0,0-1.26-.71,1.66,1.66,0,0,0-1.33.76,3.15,3.15,0,0,0-.58,2,2.7,2.7,0,0,0,.56,1.79,1.66,1.66,0,0,0,1.33.67,1.61,1.61,0,0,0,1.3-.67A3,3,0,0,0,570.72,525.94Z"/><g class="cls-2"><path class="cls-3" d="M521.88,390.7l-1.2-99.07V274.68a13.08,13.08,0,0,1,0-5.56l-.26-17"/><path class="cls-3" d="M195.3,608.2l1-1.17,24.13,23.32,17.45,16.54,56.4,53.67,1.19,1.17h0c0,.52,1.44,1.43,1.44,1.43s-.48.66,0,.66S300,706,300,706l19.84,18.69v.33l.95,1.17"/><path class="cls-3" d="M247.09,724c.06-.16.25-.28.56-.37,1-.57,2-1.16,3-1.71.44-.22.86-.45,1.25-.69a9.47,9.47,0,0,0,1-1c.67-.65,1.37-1.29,2-2,.33-.46.65-.91,1-1.37a16.29,16.29,0,0,0,1.44-1.59c.76-1.17,1.33-2.38,2-3.56.34-.58,1.15-1.34,1.42-1.94a9,9,0,0,1,1-1.66,4.91,4.91,0,0,0,.79-1.47c.35-1,1.37-2,1.83-3,.37-.8,1-1.68,1.34-2.49A14.55,14.55,0,0,0,267,697a4.34,4.34,0,0,0,.49-1.08,9.81,9.81,0,0,1,1.64-2.82,6.87,6.87,0,0,0,1.38-3.37,27.16,27.16,0,0,1,.66-4.54,6.74,6.74,0,0,0,.08-1.85,10,10,0,0,1,.55-2.36,9.7,9.7,0,0,0-.08-3c0-.6,0-1.21,0-1.81"/><path class="cls-3" d="M308.2,687.1a6.21,6.21,0,0,1-2.08-.14c-2.3-.82,2.15-2.34,2.89-2.64,4.71-1.86,10.1-3.35,15.18-4.88,1.08-.32,11.5-4.05,12.1-3.47"/><path class="cls-3" d="M299.14,710.74H279.35l-22.46.32H238.73a17.8,17.8,0,0,1-3.3.31H215l-25.88.39H171.22l-1.65.25H143.89l-4.3.49h-26s22.06,0,29.31-.53,2.23.27,2.23.27l4.74-.09,8.16-.36s19.11.71,21,.36a19.32,19.32,0,0,1,4.78,0l30.82-.36,19.35-.54h18.16l16-.34h18.39s12.63-.27,12.63-.68"/><path class="cls-3" d="M468,390.82s1.32.13,5.3.3,8,.58,8,.58l13.19,1.12,15.69,1.08"/><path class="cls-3" d="M297.5,522v.42l.39.66-.2,1.33v8.51l-.19.75.19,2.25V537l-.43,55.89.31,1.41v.41l-.31,3.53v13.85l.31,3.53v4.71l-.31.88v1.47l-.29,1.86v7.37l.46.35v11a.15.15,0,0,1,.21.16V646l-.21.31v1.37l.46,4.26v3.13c0,.17-.25.3-.25.62v.46l-.44,30.93s.23-.25.23.15v25.38L297,717s-.12-2,0,.33.43,1.27.43,1.27v7.72"/></g></g></svg>