<svg id="Layer_1" data-name="Layer 1" xmlns="http://www.w3.org/2000/svg" xmlns:xlink="http://www.w3.org/1999/xlink" viewBox="0 0 1080 756"><defs><style>.cls-1,.cls-3{fill:none;}.cls-2{clip-path:url(#clip-path);}.cls-3{stroke:#231f20;stroke-width:0.25px;}.cls-4{fill:#231f20;}</style><clipPath id="clip-path"><rect class="cls-1" width="1080" height="756"/></clipPath></defs><title>Untitled-3</title><g class="cls-2"><g class="cls-2"><line class="cls-3" x1="180" y1="-18.36" x2="180" y2="790.92"/><line class="cls-3" x1="720" y1="-20.88" x2="720" y2="788.4"/><line class="cls-3" x1="359.88" y1="-18.36" x2="359.88" y2="790.92"/><line class="cls-3" x1="899.87" y1="-20.88" x2="899.87" y2="788.4"/><line class="cls-3" x1="-16.92" y1="251.88" x2="1101.6" y2="251.88"/><line class="cls-3" x1="-11.52" y1="504.13" x2="1107" y2="504.13"/><line class="cls-3" x1="540" y1="-19.44" x2="540" y2="789.84"/></g><path class="cls-4" d="M378.64,24.64v-1.3l6.22-3.22v1.4L379.93,24l4.93,2.5v1.4Z"/><path class="cls-4" d="M386,27.17l1.15-.22a2.09,2.09,0,0,0,.55,1.31,1.69,1.69,0,0,0,1.2.42,1.65,1.65,0,0,0,1.16-.37,1.21,1.21,0,0,0,.41-.94.91.91,0,0,0-.35-.76,4.27,4.27,0,0,0-1.17-.47,8.15,8.15,0,0,1-1.8-.71,1.93,1.93,0,0,1-.7-.77,2.54,2.54,0,0,1,.43-2.83,2.58,2.58,0,0,1,1.88-.66,3.1,3.1,0,0,1,1.33.27,2.08,2.08,0,0,1,.88.74,3.2,3.2,0,0,1,.42,1.32l-1.12.18a1.35,1.35,0,0,0-1.48-1.35,1.76,1.76,0,0,0-1.12.29,1,1,0,0,0-.36.77.82.82,0,0,0,.35.72,5.91,5.91,0,0,0,1.25.5,9.9,9.9,0,0,1,1.85.73,1.87,1.87,0,0,1,.66.73,2.53,2.53,0,0,1,.23,1.11,2.61,2.61,0,0,1-.75,1.93,2.84,2.84,0,0,1-2.06.73C387.22,29.84,386.27,29,386,27.17Z"/><path class="cls-4" d="M394.92,29.65l-2.59-8.29h1.22l1.46,5c.17.56.32,1.12.44,1.67.1-.44.24-1,.43-1.58l1.51-5.06h1.19L396,29.65Z"/><path class="cls-4" d="M399.35,30.34l1.13.2a1.46,1.46,0,0,0,.47,1,1.62,1.62,0,0,0,1.08.32,1.88,1.88,0,0,0,1.21-.36,1.8,1.8,0,0,0,.61-1.08,9.8,9.8,0,0,0,.11-1.84,2.78,2.78,0,0,1-.85.8,2,2,0,0,1-1,.27,2.46,2.46,0,0,1-2-1,5.07,5.07,0,0,1-.92-3.18,6.15,6.15,0,0,1,.4-2.33,3.2,3.2,0,0,1,1.07-1.47,2.51,2.51,0,0,1,1.48-.47,2.18,2.18,0,0,1,1.1.29,2.87,2.87,0,0,1,.88.89v-1h1.06v7.17a8.43,8.43,0,0,1-.31,2.73,2.67,2.67,0,0,1-1,1.29,3,3,0,0,1-1.71.47,2.77,2.77,0,0,1-2-.71A2.62,2.62,0,0,1,399.35,30.34Zm1-5a4.18,4.18,0,0,0,.54,2.39,1.59,1.59,0,0,0,1.32.75,1.62,1.62,0,0,0,1.33-.74,3.92,3.92,0,0,0,.55-2.34,4,4,0,0,0-.56-2.33,1.67,1.67,0,0,0-1.37-.76,1.55,1.55,0,0,0-1.27.76A3.92,3.92,0,0,0,400.31,25.36Z"/><path class="cls-4" d="M413,24.64l-6.22,3.25v-1.4l4.93-2.5-4.93-2.47v-1.4L413,23.34Z"/><path class="cls-4" d="M22.87,281.65H21.71v-9a5.74,5.74,0,0,1-1.07.95,6.55,6.55,0,0,1-1.23.74V273a7.25,7.25,0,0,0,1.68-1.33,5.11,5.11,0,0,0,1-1.54h.75Z"/><path class="cls-4" d="M25.82,276a9.67,9.67,0,0,1,.78-4.37,2.46,2.46,0,0,1,2.29-1.48,2.4,2.4,0,0,1,2.12,1.2A8.89,8.89,0,0,1,32,276a9.68,9.68,0,0,1-.78,4.36,2.45,2.45,0,0,1-2.29,1.48,2.53,2.53,0,0,1-2.2-1.31A8.72,8.72,0,0,1,25.82,276ZM27,276a8.61,8.61,0,0,0,.54,3.74,1.56,1.56,0,0,0,1.37.95,1.53,1.53,0,0,0,1.32-1,13.22,13.22,0,0,0,0-7.48,1.59,1.59,0,0,0-1.39-.95,1.52,1.52,0,0,0-1.31,1A8.78,8.78,0,0,0,27,276Z"/><path class="cls-4" d="M39.09,273,38,273.1a2.79,2.79,0,0,0-.49-1.25,1.4,1.4,0,0,0-1.11-.55c-.67,0-1.2.42-1.61,1.25a7.73,7.73,0,0,0-.53,3.19,2.93,2.93,0,0,1,1-1.13,2.31,2.31,0,0,1,1.27-.39,2.46,2.46,0,0,1,2,1,4.12,4.12,0,0,1,.84,2.71,5,5,0,0,1-.42,2.08,3.21,3.21,0,0,1-1.08,1.38,2.47,2.47,0,0,1-1.44.44A2.78,2.78,0,0,1,34,280.56a7.55,7.55,0,0,1-.92-4.27,8.84,8.84,0,0,1,.95-4.73,2.81,2.81,0,0,1,2.42-1.41,2.42,2.42,0,0,1,1.79.73A3.42,3.42,0,0,1,39.09,273Zm-4.7,4.95a3.14,3.14,0,0,0,.59,2,1.68,1.68,0,0,0,1.36.76,1.53,1.53,0,0,0,1.21-.71,3.19,3.19,0,0,0,.54-2,3,3,0,0,0-.54-1.89,1.58,1.58,0,0,0-1.29-.67,1.65,1.65,0,0,0-1.31.67A2.74,2.74,0,0,0,34.39,277.94Z"/><path class="cls-4" d="M559.11,29.65v-7.2h-1V21.36h1v-.89a3.85,3.85,0,0,1,.21-1.46,1.49,1.49,0,0,1,.62-.75,2,2,0,0,1,1-.26,4.37,4.37,0,0,1,1.08.15l-.17,1.22a3.31,3.31,0,0,0-.68-.08.92.92,0,0,0-.74.27,1.71,1.71,0,0,0-.22,1v.77h1.33v1.09h-1.33v7.2Z"/><path class="cls-4" d="M566.89,29.65V28.43a3,3,0,0,1-.93,1.06,2.23,2.23,0,0,1-1.22.35,2.2,2.2,0,0,1-1.38-.43,2.1,2.1,0,0,1-.76-1.1,6.71,6.71,0,0,1-.19-1.81V21.36h1.15V26a7,7,0,0,0,.13,1.71,1.29,1.29,0,0,0,1.27,1,1.67,1.67,0,0,0,1.36-.68,3.71,3.71,0,0,0,.45-2.15V21.36h1.15v8.29Z"/><path class="cls-4" d="M569.7,29.65V18.2h1.15V29.65Z"/><path class="cls-4" d="M572.61,29.65V18.2h1.15V29.65Z"/><path class="cls-4" d="M575.53,32.85l-.13-1.32a2.32,2.32,0,0,0,.66.12,1.11,1.11,0,0,0,.6-.15,1,1,0,0,0,.4-.46c0-.07.19-.53.45-1.37l-2.59-8.31h1.25l1.42,4.8c.18.6.34,1.24.49,1.92.13-.65.29-1.28.47-1.89L580,21.36h1.16l-2.58,8.43a15.92,15.92,0,0,1-.8,2.2,2.15,2.15,0,0,1-.67.79,1.53,1.53,0,0,1-.84.24A2,2,0,0,1,575.53,32.85Z"/><path class="cls-4" d="M585.33,27.17l1.15-.22a2.09,2.09,0,0,0,.55,1.31,1.69,1.69,0,0,0,1.2.42,1.65,1.65,0,0,0,1.16-.37,1.21,1.21,0,0,0,.41-.94.91.91,0,0,0-.35-.76,4.27,4.27,0,0,0-1.17-.47,8.15,8.15,0,0,1-1.8-.71,1.93,1.93,0,0,1-.7-.77,2.54,2.54,0,0,1,.43-2.83,2.58,2.58,0,0,1,1.88-.66,3.1,3.1,0,0,1,1.33.27,2.08,2.08,0,0,1,.88.74,3.2,3.2,0,0,1,.42,1.32l-1.12.18a1.35,1.35,0,0,0-1.48-1.35,1.76,1.76,0,0,0-1.12.29,1,1,0,0,0-.36.77.82.82,0,0,0,.35.72,5.91,5.91,0,0,0,1.25.5,9.9,9.9,0,0,1,1.85.73,1.87,1.87,0,0,1,.66.73,2.53,2.53,0,0,1,.23,1.11,2.61,2.61,0,0,1-.75,1.93,2.84,2.84,0,0,1-2.06.73C586.54,29.84,585.59,29,585.33,27.17Z"/><path class="cls-4" d="M596.79,26.61l1.13.18a3.76,3.76,0,0,1-1,2.27,2.57,2.57,0,0,1-1.88.78,2.68,2.68,0,0,1-2.2-1.1A5.13,5.13,0,0,1,592,25.5a5.1,5.1,0,0,1,.87-3.25,2.73,2.73,0,0,1,2.23-1.08,2.53,2.53,0,0,1,1.78.66,3.23,3.23,0,0,1,.93,2l-1.12.21a2.47,2.47,0,0,0-.57-1.26,1.31,1.31,0,0,0-1-.41,1.71,1.71,0,0,0-1.41.75,4.06,4.06,0,0,0-.56,2.39,4.35,4.35,0,0,0,.54,2.46,1.62,1.62,0,0,0,1.37.75,1.45,1.45,0,0,0,1.12-.5A2.74,2.74,0,0,0,596.79,26.61Z"/><path class="cls-4" d="M603.33,28.63a4.48,4.48,0,0,1-1.2.91,3,3,0,0,1-1.3.3,2.25,2.25,0,0,1-1.69-.64,2.32,2.32,0,0,1-.64-1.73,2.62,2.62,0,0,1,.3-1.27,2.27,2.27,0,0,1,.81-.87,4.33,4.33,0,0,1,1.56-.46,9,9,0,0,0,2.07-.49V24a1.79,1.79,0,0,0-.31-1.19,1.63,1.63,0,0,0-1.32-.5,1.83,1.83,0,0,0-1.2.33,2.18,2.18,0,0,0-.59,1.25l-1.13-.19a3.12,3.12,0,0,1,1-1.94,3.22,3.22,0,0,1,2.11-.61,3,3,0,0,1,1.68.4,1.73,1.73,0,0,1,.77,1,6.87,6.87,0,0,1,.16,1.73v1.88a23.12,23.12,0,0,0,.08,2.48,3.51,3.51,0,0,0,.29,1h-1.2A3.48,3.48,0,0,1,603.33,28.63Zm-.09-3.14a7,7,0,0,1-1.89.53,3.28,3.28,0,0,0-1,.29,1.08,1.08,0,0,0-.45.45,1.33,1.33,0,0,0-.16.67,1.23,1.23,0,0,0,.37.95,1.37,1.37,0,0,0,1,.36,2.06,2.06,0,0,0,1.12-.32,2,2,0,0,0,.76-.86,3.88,3.88,0,0,0,.25-1.56Z"/><path class="cls-4" d="M606.16,29.65V18.2h1.15V29.65Z"/><path class="cls-4" d="M613.54,28.63a4.33,4.33,0,0,1-1.2.91,3,3,0,0,1-1.3.3,2.25,2.25,0,0,1-1.69-.64,2.32,2.32,0,0,1-.64-1.73,2.62,2.62,0,0,1,.3-1.27,2.27,2.27,0,0,1,.81-.87,4.33,4.33,0,0,1,1.57-.46,9,9,0,0,0,2.06-.49V24a1.79,1.79,0,0,0-.31-1.19,1.62,1.62,0,0,0-1.32-.5,1.83,1.83,0,0,0-1.2.33,2.18,2.18,0,0,0-.59,1.25l-1.13-.19a3.12,3.12,0,0,1,1-1.94,3.22,3.22,0,0,1,2.11-.61,3,3,0,0,1,1.68.4,1.69,1.69,0,0,1,.77,1,6.87,6.87,0,0,1,.16,1.73v1.88a23.12,23.12,0,0,0,.08,2.48,3.51,3.51,0,0,0,.29,1h-1.2A3.48,3.48,0,0,1,613.54,28.63Zm-.09-3.14a7,7,0,0,1-1.88.53,3.27,3.27,0,0,0-1,.29,1.08,1.08,0,0,0-.45.45,1.33,1.33,0,0,0-.16.67,1.23,1.23,0,0,0,.37.95,1.37,1.37,0,0,0,1,.36,2.06,2.06,0,0,0,1.12-.32,2,2,0,0,0,.76-.86,3.72,3.72,0,0,0,.25-1.56Z"/><path class="cls-4" d="M617.46,29.65h-1.07V18.2h1.16v4.09a2.47,2.47,0,0,1,.83-.84,2,2,0,0,1,1-.28,2.4,2.4,0,0,1,1.45.48,3.22,3.22,0,0,1,1,1.44,6.32,6.32,0,0,1,.39,2.35,5.31,5.31,0,0,1-.88,3.26,2.58,2.58,0,0,1-2.07,1.14,1.89,1.89,0,0,1-1.07-.31,2.57,2.57,0,0,1-.82-.92Zm0-4.21a5.86,5.86,0,0,0,.23,1.93,2.17,2.17,0,0,0,.67,1,1.5,1.5,0,0,0,.95.33,1.54,1.54,0,0,0,1.27-.8,4.2,4.2,0,0,0,.55-2.39,4.31,4.31,0,0,0-.53-2.4,1.56,1.56,0,0,0-1.31-.76,1.54,1.54,0,0,0-1.27.8A3.94,3.94,0,0,0,617.45,25.44Z"/><path class="cls-4" d="M623.67,29.65V18.2h1.15V29.65Z"/><path class="cls-4" d="M631.27,27l1.19.18a3.65,3.65,0,0,1-1.08,2,2.83,2.83,0,0,1-1.92.67,2.86,2.86,0,0,1-2.34-1.1,4.86,4.86,0,0,1-.9-3.16,5.15,5.15,0,0,1,.9-3.28,2.81,2.81,0,0,1,2.29-1.13,2.71,2.71,0,0,1,2.2,1.11,5.05,5.05,0,0,1,.89,3.21v.37h-5.08a3.55,3.55,0,0,0,.65,2.11,1.72,1.72,0,0,0,1.4.71C630.33,28.68,630.93,28.12,631.27,27Zm-3.79-2.27h3.8a3.28,3.28,0,0,0-.46-1.61,1.69,1.69,0,0,0-2.74-.13A2.88,2.88,0,0,0,627.48,24.71Z"/><path class="cls-4" d="M634.25,29.65v-1.6h1.32v1.6a3.24,3.24,0,0,1-.28,1.46,1.93,1.93,0,0,1-.79.81l-.33-.6a1.22,1.22,0,0,0,.54-.56,2.81,2.81,0,0,0,.19-1.11Z"/><path class="cls-4" d="M645.64,28.63a4.33,4.33,0,0,1-1.2.91,3,3,0,0,1-1.3.3,2.26,2.26,0,0,1-1.69-.64,2.36,2.36,0,0,1-.63-1.73,2.62,2.62,0,0,1,.29-1.27,2.27,2.27,0,0,1,.81-.87,4.33,4.33,0,0,1,1.57-.46,9,9,0,0,0,2.06-.49V24a1.73,1.73,0,0,0-.31-1.19,1.61,1.61,0,0,0-1.32-.5,1.87,1.87,0,0,0-1.2.33,2.18,2.18,0,0,0-.59,1.25L641,23.72a3.12,3.12,0,0,1,1-1.94,3.22,3.22,0,0,1,2.11-.61,3,3,0,0,1,1.68.4,1.69,1.69,0,0,1,.77,1,6.87,6.87,0,0,1,.16,1.73v1.88a23.12,23.12,0,0,0,.08,2.48,3.87,3.87,0,0,0,.29,1h-1.2A3.48,3.48,0,0,1,645.64,28.63Zm-.09-3.14a7,7,0,0,1-1.88.53,3.27,3.27,0,0,0-1,.29,1.08,1.08,0,0,0-.45.45,1.44,1.44,0,0,0-.16.67,1.23,1.23,0,0,0,.37.95,1.37,1.37,0,0,0,1,.36,2.1,2.1,0,0,0,1.13-.32,2,2,0,0,0,.75-.86,3.72,3.72,0,0,0,.25-1.56Z"/><path class="cls-4" d="M648.47,29.65V18.2h1.15V29.65Z"/><path class="cls-4" d="M652.68,29.65l-2.09-8.29h1.19l1.08,4.79.4,1.78.36-1.71,1.08-4.86h1.19l1,4.81.34,1.58.39-1.6,1.16-4.79h1.12l-2.12,8.29h-1.2l-1.09-5-.25-1.41-1.38,6.38Z"/><path class="cls-4" d="M665.32,28.63a4.33,4.33,0,0,1-1.2.91,3,3,0,0,1-1.3.3,2.26,2.26,0,0,1-1.69-.64,2.36,2.36,0,0,1-.63-1.73,2.62,2.62,0,0,1,.29-1.27,2.27,2.27,0,0,1,.81-.87,4.33,4.33,0,0,1,1.57-.46,9,9,0,0,0,2.06-.49V24a1.73,1.73,0,0,0-.31-1.19,1.61,1.61,0,0,0-1.32-.5,1.85,1.85,0,0,0-1.2.33,2.18,2.18,0,0,0-.59,1.25l-1.13-.19a3.12,3.12,0,0,1,1-1.94,3.22,3.22,0,0,1,2.11-.61,3,3,0,0,1,1.68.4,1.69,1.69,0,0,1,.77,1,6.87,6.87,0,0,1,.16,1.73v1.88a23.12,23.12,0,0,0,.08,2.48,3.87,3.87,0,0,0,.29,1h-1.2A3.48,3.48,0,0,1,665.32,28.63Zm-.09-3.14a7,7,0,0,1-1.88.53,3.27,3.27,0,0,0-1,.29,1.08,1.08,0,0,0-.45.45,1.44,1.44,0,0,0-.16.67,1.23,1.23,0,0,0,.37.95,1.37,1.37,0,0,0,1,.36,2.1,2.1,0,0,0,1.13-.32,2,2,0,0,0,.75-.86,3.72,3.72,0,0,0,.25-1.56Z"/><path class="cls-4" d="M668.15,32.85,668,31.53a2.2,2.2,0,0,0,.65.12,1.13,1.13,0,0,0,.61-.15,1,1,0,0,0,.39-.46c0-.07.19-.53.46-1.37l-2.59-8.31h1.24l1.42,4.8c.18.6.34,1.24.5,1.92.13-.65.28-1.28.46-1.89l1.46-4.83h1.15l-2.58,8.43a14.66,14.66,0,0,1-.8,2.2,2.14,2.14,0,0,1-.66.79,1.53,1.53,0,0,1-.85.24A2.1,2.1,0,0,1,668.15,32.85Z"/><path class="cls-4" d="M674.31,27.17l1.15-.22a2,2,0,0,0,.55,1.31,1.69,1.69,0,0,0,1.2.42,1.67,1.67,0,0,0,1.16-.37,1.21,1.21,0,0,0,.41-.94.89.89,0,0,0-.36-.76,4.27,4.27,0,0,0-1.17-.47,8.23,8.23,0,0,1-1.79-.71,2,2,0,0,1-.71-.77,2.44,2.44,0,0,1-.25-1.1,2.34,2.34,0,0,1,.68-1.73,2.61,2.61,0,0,1,1.89-.66,3.13,3.13,0,0,1,1.33.27,2.15,2.15,0,0,1,.88.74,3.2,3.2,0,0,1,.42,1.32l-1.13.18a1.34,1.34,0,0,0-1.47-1.35,1.74,1.74,0,0,0-1.12.29.94.94,0,0,0-.37.77.85.85,0,0,0,.35.72,6.09,6.09,0,0,0,1.26.5,9.9,9.9,0,0,1,1.85.73,1.77,1.77,0,0,1,.65.73,2.39,2.39,0,0,1,.24,1.11,2.58,2.58,0,0,1-.76,1.93,2.82,2.82,0,0,1-2.06.73C675.51,29.84,674.57,29,674.31,27.17Z"/><path class="cls-4" d="M558.79,48.85V40.56h1v1.25a3.67,3.67,0,0,1,.73-1.16,1.11,1.11,0,0,1,.75-.28,2,2,0,0,1,1.18.45l-.39,1.31a1.43,1.43,0,0,0-.84-.31,1,1,0,0,0-.67.26,1.37,1.37,0,0,0-.43.72,6.31,6.31,0,0,0-.22,1.71v4.34Z"/><path class="cls-4" d="M567.81,46.18l1.19.18a3.61,3.61,0,0,1-1.08,2A2.83,2.83,0,0,1,566,49a2.86,2.86,0,0,1-2.34-1.1,4.86,4.86,0,0,1-.9-3.16,5.15,5.15,0,0,1,.9-3.28A2.82,2.82,0,0,1,566,40.37a2.71,2.71,0,0,1,2.2,1.11,5.05,5.05,0,0,1,.88,3.21v.37H564a3.55,3.55,0,0,0,.65,2.11,1.72,1.72,0,0,0,1.4.71C566.87,47.88,567.47,47.32,567.81,46.18ZM564,43.91h3.8a3.17,3.17,0,0,0-.47-1.61,1.68,1.68,0,0,0-2.73-.13A2.82,2.82,0,0,0,564,43.91Z"/><path class="cls-4" d="M570.42,48.85V37.4h1.15V48.85Z"/><path class="cls-4" d="M573.37,39V37.4h1.15V39Zm0,9.83V40.56h1.15v8.29Z"/><path class="cls-4" d="M580.71,47.83a4.33,4.33,0,0,1-1.2.91,3,3,0,0,1-1.3.3,2.26,2.26,0,0,1-1.69-.64,2.36,2.36,0,0,1-.63-1.73,2.62,2.62,0,0,1,.29-1.27,2.22,2.22,0,0,1,.82-.87,4.4,4.4,0,0,1,1.56-.46,8.87,8.87,0,0,0,2.06-.49v-.36a1.73,1.73,0,0,0-.31-1.19,1.61,1.61,0,0,0-1.32-.5,1.87,1.87,0,0,0-1.2.33,2.18,2.18,0,0,0-.59,1.25l-1.13-.19a3.12,3.12,0,0,1,1-1.94,3.22,3.22,0,0,1,2.11-.61,3,3,0,0,1,1.68.4,1.69,1.69,0,0,1,.77,1,6.87,6.87,0,0,1,.16,1.73v1.88a23.12,23.12,0,0,0,.08,2.48,3.87,3.87,0,0,0,.29,1H581A3.48,3.48,0,0,1,580.71,47.83Zm-.09-3.14a7,7,0,0,1-1.88.53,3.27,3.27,0,0,0-1,.29,1.08,1.08,0,0,0-.45.45,1.44,1.44,0,0,0-.16.67,1.23,1.23,0,0,0,.37.95,1.38,1.38,0,0,0,1,.36,2.09,2.09,0,0,0,1.12-.32,2,2,0,0,0,.75-.86,3.7,3.7,0,0,0,.25-1.55Z"/><path class="cls-4" d="M584.64,48.85h-1.07V37.4h1.15v4.09a2.56,2.56,0,0,1,.83-.84,2,2,0,0,1,1-.28,2.4,2.4,0,0,1,1.45.48,3.22,3.22,0,0,1,1,1.44,6.32,6.32,0,0,1,.39,2.35,5.25,5.25,0,0,1-.88,3.26A2.58,2.58,0,0,1,586.52,49a1.89,1.89,0,0,1-1.07-.31,2.55,2.55,0,0,1-.81-.92Zm0-4.21a6.14,6.14,0,0,0,.23,1.93,2.11,2.11,0,0,0,.67,1,1.52,1.52,0,0,0,1,.33,1.54,1.54,0,0,0,1.27-.8,4.2,4.2,0,0,0,.55-2.39,4.31,4.31,0,0,0-.53-2.4,1.46,1.46,0,0,0-2.58,0A4,4,0,0,0,584.62,44.64Z"/><path class="cls-4" d="M590.84,48.85V37.4H592V48.85Z"/><path class="cls-4" d="M598.44,46.18l1.19.18a3.61,3.61,0,0,1-1.08,2,2.81,2.81,0,0,1-1.92.67,2.86,2.86,0,0,1-2.34-1.1,4.86,4.86,0,0,1-.9-3.16,5.09,5.09,0,0,1,.91-3.28,2.8,2.8,0,0,1,2.28-1.13,2.69,2.69,0,0,1,2.2,1.11,5.05,5.05,0,0,1,.89,3.21v.37h-5.08a3.55,3.55,0,0,0,.65,2.11,1.74,1.74,0,0,0,1.41.71C597.5,47.88,598.1,47.32,598.44,46.18Zm-3.79-2.27h3.8A3.18,3.18,0,0,0,598,42.3a1.66,1.66,0,0,0-1.42-.77,1.68,1.68,0,0,0-1.32.64A2.88,2.88,0,0,0,594.65,43.91Z"/><path class="cls-4" d="M609.17,47.83a4.52,4.52,0,0,1-1.21.91,2.91,2.91,0,0,1-1.29.3,2.27,2.27,0,0,1-1.7-.64,2.36,2.36,0,0,1-.63-1.73,2.62,2.62,0,0,1,.3-1.27,2.13,2.13,0,0,1,.81-.87,4.4,4.4,0,0,1,1.56-.46,8.74,8.74,0,0,0,2.06-.49v-.36a1.8,1.8,0,0,0-.3-1.19,1.63,1.63,0,0,0-1.32-.5,1.88,1.88,0,0,0-1.21.33,2.18,2.18,0,0,0-.58,1.25l-1.14-.19a3.17,3.17,0,0,1,1-1.94,3.25,3.25,0,0,1,2.12-.61,3,3,0,0,1,1.68.4,1.77,1.77,0,0,1,.77,1,7.37,7.37,0,0,1,.16,1.73v1.88a24.27,24.27,0,0,0,.07,2.48,3.87,3.87,0,0,0,.29,1h-1.2A3.2,3.2,0,0,1,609.17,47.83Zm-.1-3.14a7,7,0,0,1-1.88.53,3.46,3.46,0,0,0-1,.29,1,1,0,0,0-.44.45,1.33,1.33,0,0,0-.16.67,1.26,1.26,0,0,0,.36.95,1.41,1.41,0,0,0,1,.36,2.09,2.09,0,0,0,1.12-.32,1.9,1.9,0,0,0,.75-.86,3.7,3.7,0,0,0,.25-1.55Z"/><path class="cls-4" d="M612,48.85V40.56h1v1.17a2.63,2.63,0,0,1,.92-1,2.27,2.27,0,0,1,1.24-.34,2.4,2.4,0,0,1,1,.21,2.19,2.19,0,0,1,.75.57,2.36,2.36,0,0,1,.43.9,7.77,7.77,0,0,1,.14,1.7v5.1h-1.15V43.8a4,4,0,0,0-.16-1.34,1.25,1.25,0,0,0-.49-.65,1.31,1.31,0,0,0-.76-.23,1.62,1.62,0,0,0-1.33.62,3.53,3.53,0,0,0-.49,2.12v4.53Z"/><path class="cls-4" d="M623.74,48.85v-1a2.33,2.33,0,0,1-.81.91,1.86,1.86,0,0,1-1.06.32,2.57,2.57,0,0,1-2.08-1.14,5.07,5.07,0,0,1-.88-3.19,6.48,6.48,0,0,1,.39-2.4,3.18,3.18,0,0,1,1-1.46,2.38,2.38,0,0,1,1.45-.48,1.94,1.94,0,0,1,1.05.3,2.33,2.33,0,0,1,.81.84V37.4h1.17V48.85Zm-3.65-4.14a4.13,4.13,0,0,0,.56,2.39,1.58,1.58,0,0,0,1.3.78,1.55,1.55,0,0,0,1.27-.75,3.86,3.86,0,0,0,.54-2.26,4.63,4.63,0,0,0-.54-2.54,1.58,1.58,0,0,0-1.36-.8,1.5,1.5,0,0,0-1.25.76A4.39,4.39,0,0,0,620.09,44.71Z"/><path class="cls-4" d="M630.28,52V40.56h1.06v1.07a2.73,2.73,0,0,1,.86-1,2,2,0,0,1,1.1-.3,2.38,2.38,0,0,1,1.45.48,3.22,3.22,0,0,1,1,1.44,6.3,6.3,0,0,1,.39,2.34,5.26,5.26,0,0,1-.88,3.27A2.6,2.6,0,0,1,633.21,49a1.94,1.94,0,0,1-1-.27,2.58,2.58,0,0,1-.8-.78v4Zm1-7.28a4.11,4.11,0,0,0,.54,2.37,1.56,1.56,0,0,0,1.3.76,1.58,1.58,0,0,0,1.29-.78,4.3,4.3,0,0,0,.55-2.44,4.3,4.3,0,0,0-.54-2.41,1.54,1.54,0,0,0-1.3-.78,1.58,1.58,0,0,0-1.27.84A4.33,4.33,0,0,0,631.32,44.75Z"/><path class="cls-4" d="M637.57,48.85V40.56h1v1.25a3.67,3.67,0,0,1,.73-1.16,1.11,1.11,0,0,1,.75-.28,2,2,0,0,1,1.18.45l-.39,1.31a1.43,1.43,0,0,0-.84-.31,1,1,0,0,0-.67.26,1.37,1.37,0,0,0-.43.72,6.31,6.31,0,0,0-.22,1.71v4.34Z"/><path class="cls-4" d="M646.37,47.83a4.64,4.64,0,0,1-1.2.91,3,3,0,0,1-1.3.3,2.28,2.28,0,0,1-1.7-.64,2.36,2.36,0,0,1-.63-1.73,2.62,2.62,0,0,1,.3-1.27,2.27,2.27,0,0,1,.81-.87,4.54,4.54,0,0,1,1.56-.46,9,9,0,0,0,2.07-.49v-.36A1.8,1.8,0,0,0,646,42a1.63,1.63,0,0,0-1.32-.5,1.83,1.83,0,0,0-1.2.33,2.18,2.18,0,0,0-.59,1.25l-1.13-.19a3.12,3.12,0,0,1,1-1.94,3.2,3.2,0,0,1,2.11-.61,3,3,0,0,1,1.68.4,1.73,1.73,0,0,1,.77,1,6.87,6.87,0,0,1,.16,1.73v1.88a24.27,24.27,0,0,0,.07,2.48,3.53,3.53,0,0,0,.3,1H646.6A3.49,3.49,0,0,1,646.37,47.83Zm-.09-3.14a7.1,7.1,0,0,1-1.89.53,3.28,3.28,0,0,0-1,.29,1.08,1.08,0,0,0-.45.45,1.33,1.33,0,0,0-.16.67,1.23,1.23,0,0,0,.37.95,1.37,1.37,0,0,0,1,.36,2.06,2.06,0,0,0,1.12-.32,2,2,0,0,0,.76-.86,3.86,3.86,0,0,0,.25-1.55Z"/><path class="cls-4" d="M649,49.54l1.13.2a1.45,1.45,0,0,0,.46,1,1.67,1.67,0,0,0,1.09.32,1.88,1.88,0,0,0,1.21-.36,1.85,1.85,0,0,0,.61-1.08,10.12,10.12,0,0,0,.1-1.84,2.75,2.75,0,0,1-.84.8,2,2,0,0,1-1,.27,2.45,2.45,0,0,1-2-1,5,5,0,0,1-.93-3.18,6.14,6.14,0,0,1,.41-2.33,3.2,3.2,0,0,1,1.07-1.47,2.51,2.51,0,0,1,1.48-.47,2.14,2.14,0,0,1,1.09.29,2.68,2.68,0,0,1,.88.89v-1h1.07v7.17a8.32,8.32,0,0,1-.32,2.73,2.65,2.65,0,0,1-1,1.29,3,3,0,0,1-1.71.47,2.76,2.76,0,0,1-2-.71A2.58,2.58,0,0,1,649,49.54Zm1-5A4.18,4.18,0,0,0,650.5,47a1.6,1.6,0,0,0,1.33.75,1.63,1.63,0,0,0,1.33-.74,4,4,0,0,0,.55-2.34,3.9,3.9,0,0,0-.57-2.33,1.64,1.64,0,0,0-1.37-.76,1.53,1.53,0,0,0-1.26.76A3.91,3.91,0,0,0,650,44.56Z"/><path class="cls-4" d="M656.54,48.85V40.56h1v1.15a2.67,2.67,0,0,1,.88-1,2.17,2.17,0,0,1,1.18-.35,1.94,1.94,0,0,1,1.21.37,2,2,0,0,1,.71,1.07,3.06,3.06,0,0,1,.94-1.08,2,2,0,0,1,1.17-.36,1.91,1.91,0,0,1,1.54.66,3.25,3.25,0,0,1,.57,2.13v5.69h-1.15V43.62a4.16,4.16,0,0,0-.13-1.26,1.2,1.2,0,0,0-.42-.58,1.14,1.14,0,0,0-.65-.2,1.49,1.49,0,0,0-1.22.59,3,3,0,0,0-.47,1.86v4.82h-1.15V43.46a2.44,2.44,0,0,0-.32-1.46,1,1,0,0,0-.87-.42,1.43,1.43,0,0,0-1.24.64,4.16,4.16,0,0,0-.46,2.32v4.31Z"/><path class="cls-4" d="M671.89,47.83a4.33,4.33,0,0,1-1.2.91,3,3,0,0,1-1.3.3,2.26,2.26,0,0,1-1.69-.64,2.36,2.36,0,0,1-.63-1.73,2.62,2.62,0,0,1,.29-1.27,2.27,2.27,0,0,1,.81-.87,4.54,4.54,0,0,1,1.57-.46,9,9,0,0,0,2.06-.49v-.36A1.73,1.73,0,0,0,671.5,42a1.61,1.61,0,0,0-1.32-.5,1.87,1.87,0,0,0-1.2.33,2.18,2.18,0,0,0-.59,1.25l-1.13-.19a3.12,3.12,0,0,1,1-1.94,3.22,3.22,0,0,1,2.11-.61,3,3,0,0,1,1.68.4,1.69,1.69,0,0,1,.77,1A6.87,6.87,0,0,1,673,43.5v1.88a23.12,23.12,0,0,0,.08,2.48,3.87,3.87,0,0,0,.29,1h-1.2A3.48,3.48,0,0,1,671.89,47.83Zm-.09-3.14a7,7,0,0,1-1.88.53,3.27,3.27,0,0,0-1,.29,1.08,1.08,0,0,0-.45.45,1.44,1.44,0,0,0-.16.67,1.23,1.23,0,0,0,.37.95,1.37,1.37,0,0,0,1,.36,2.1,2.1,0,0,0,1.13-.32,2,2,0,0,0,.75-.86,3.7,3.7,0,0,0,.25-1.55Z"/><path class="cls-4" d="M677.32,47.6l.16,1.24a3.54,3.54,0,0,1-.86.12,1.76,1.76,0,0,1-1-.24,1.17,1.17,0,0,1-.5-.65,6.29,6.29,0,0,1-.14-1.65V41.65h-.84V40.56H675V38.5l1.15-.84v2.9h1.16v1.09h-1.16V46.5a2.26,2.26,0,0,0,.1.87.57.57,0,0,0,.56.28A3.64,3.64,0,0,0,677.32,47.6Z"/><path class="cls-4" d="M678.41,39V37.4h1.15V39Zm0,9.83V40.56h1.15v8.29Z"/><path class="cls-4" d="M685.78,45.81l1.13.18a3.82,3.82,0,0,1-1,2.27A2.57,2.57,0,0,1,684,49a2.7,2.7,0,0,1-2.2-1.1A5.2,5.2,0,0,1,681,44.7a5.1,5.1,0,0,1,.87-3.25,2.75,2.75,0,0,1,2.24-1.08,2.56,2.56,0,0,1,1.78.66,3.17,3.17,0,0,1,.92,2l-1.12.21a2.31,2.31,0,0,0-.57-1.26,1.29,1.29,0,0,0-1-.41,1.69,1.69,0,0,0-1.41.75,4.06,4.06,0,0,0-.56,2.39,4.45,4.45,0,0,0,.53,2.46,1.64,1.64,0,0,0,1.38.75,1.46,1.46,0,0,0,1.12-.5A2.81,2.81,0,0,0,685.78,45.81Z"/><path class="cls-4" d="M688.22,48.85v-1.6h1.31v1.6a3.25,3.25,0,0,1-.27,1.46,1.89,1.89,0,0,1-.8.81l-.32-.6a1.2,1.2,0,0,0,.53-.56,2.78,2.78,0,0,0,.2-1.11Zm0-6.69v-1.6h1.31v1.6Z"/><path class="cls-4" d="M563.25,278.61l1.13.18a3.79,3.79,0,0,1-1,2.26,2.56,2.56,0,0,1-1.89.79,2.7,2.7,0,0,1-2.2-1.1,5.23,5.23,0,0,1-.86-3.25,5.09,5.09,0,0,1,.87-3.24,2.73,2.73,0,0,1,2.24-1.09,2.52,2.52,0,0,1,1.77.66,3.21,3.21,0,0,1,.93,2l-1.12.2a2.39,2.39,0,0,0-.57-1.25,1.3,1.3,0,0,0-1-.42,1.69,1.69,0,0,0-1.41.75,4,4,0,0,0-.56,2.4,4.38,4.38,0,0,0,.53,2.45,1.62,1.62,0,0,0,1.37.76,1.5,1.5,0,0,0,1.13-.5A2.89,2.89,0,0,0,563.25,278.61Z"/><path class="cls-4" d="M569.78,280.62a4,4,0,0,1-1.2.91,3,3,0,0,1-1.3.31,2.3,2.3,0,0,1-1.69-.64,2.37,2.37,0,0,1-.63-1.73,2.62,2.62,0,0,1,.29-1.27,2.22,2.22,0,0,1,.82-.87,4.2,4.2,0,0,1,1.56-.46,8.87,8.87,0,0,0,2.06-.49V276a1.78,1.78,0,0,0-.31-1.2,1.64,1.64,0,0,0-1.32-.5,1.87,1.87,0,0,0-1.2.33,2.21,2.21,0,0,0-.59,1.26l-1.13-.19a3.18,3.18,0,0,1,1-2,3.29,3.29,0,0,1,2.12-.61,3,3,0,0,1,1.67.41,1.67,1.67,0,0,1,.77,1,7,7,0,0,1,.16,1.74v1.87a23.12,23.12,0,0,0,.08,2.48,3.94,3.94,0,0,0,.29,1H570A3.63,3.63,0,0,1,569.78,280.62Zm-.09-3.14a7.34,7.34,0,0,1-1.88.54,3.33,3.33,0,0,0-1,.28,1.21,1.21,0,0,0-.45.45,1.48,1.48,0,0,0-.16.68,1.24,1.24,0,0,0,.37.95,1.38,1.38,0,0,0,1,.35,2,2,0,0,0,1.87-1.17,3.78,3.78,0,0,0,.25-1.56Z"/><path class="cls-4" d="M572.65,281.65v-8.3h1v1.17a2.78,2.78,0,0,1,.92-1,2.33,2.33,0,0,1,1.24-.34,2.44,2.44,0,0,1,1,.22,2.05,2.05,0,0,1,.75.56,2.21,2.21,0,0,1,.42.9,7.23,7.23,0,0,1,.14,1.71v5.1H577v-5a4.28,4.28,0,0,0-.16-1.34,1.3,1.3,0,0,0-.49-.65,1.27,1.27,0,0,0-.77-.23,1.6,1.6,0,0,0-1.32.61,3.46,3.46,0,0,0-.49,2.12v4.54Z"/><path class="cls-4" d="M584.65,281.65h-1.07V270.2h1.16v4.08a2.66,2.66,0,0,1,.83-.84,2,2,0,0,1,1-.28,2.36,2.36,0,0,1,1.45.48,3.2,3.2,0,0,1,1.05,1.45,6.28,6.28,0,0,1,.39,2.35,5.22,5.22,0,0,1-.89,3.25,2.57,2.57,0,0,1-2.06,1.15,1.94,1.94,0,0,1-1.07-.31,2.56,2.56,0,0,1-.82-.92Zm0-4.21a5.85,5.85,0,0,0,.24,1.93,2.13,2.13,0,0,0,.67,1,1.46,1.46,0,0,0,1,.34,1.54,1.54,0,0,0,1.26-.8,4.23,4.23,0,0,0,.56-2.4,4.29,4.29,0,0,0-.53-2.39,1.46,1.46,0,0,0-2.59,0A4.08,4.08,0,0,0,584.63,277.44Z"/><path class="cls-4" d="M595.54,279l1.19.18a3.67,3.67,0,0,1-1.07,2,2.84,2.84,0,0,1-1.93.68,2.89,2.89,0,0,1-2.34-1.1,4.89,4.89,0,0,1-.89-3.17,5.19,5.19,0,0,1,.9-3.28,2.8,2.8,0,0,1,2.28-1.13,2.72,2.72,0,0,1,2.21,1.11,5.11,5.11,0,0,1,.88,3.21v.38h-5.08a3.64,3.64,0,0,0,.65,2.11,1.78,1.78,0,0,0,1.41.71C594.6,280.68,595.2,280.11,595.54,279Zm-3.79-2.28h3.8a3.21,3.21,0,0,0-.46-1.61,1.69,1.69,0,0,0-1.42-.77,1.72,1.72,0,0,0-1.32.64A2.88,2.88,0,0,0,591.75,276.7Z"/><path class="cls-4" d="M606.29,278.61l1.13.18a3.73,3.73,0,0,1-1,2.26,2.54,2.54,0,0,1-1.88.79,2.68,2.68,0,0,1-2.2-1.1,5.16,5.16,0,0,1-.86-3.25,5.09,5.09,0,0,1,.87-3.24,2.71,2.71,0,0,1,2.23-1.09,2.53,2.53,0,0,1,1.78.66,3.26,3.26,0,0,1,.93,2l-1.12.2a2.39,2.39,0,0,0-.57-1.25,1.32,1.32,0,0,0-1-.42,1.71,1.71,0,0,0-1.41.75,4.12,4.12,0,0,0-.56,2.4,4.29,4.29,0,0,0,.54,2.45,1.61,1.61,0,0,0,1.37.76,1.48,1.48,0,0,0,1.12-.5A2.74,2.74,0,0,0,606.29,278.61Z"/><path class="cls-4" d="M608,277.5a5,5,0,0,1,.91-3.24,2.9,2.9,0,0,1,4.55,0,4.79,4.79,0,0,1,.92,3.15,5.17,5.17,0,0,1-.9,3.33,2.92,2.92,0,0,1-4.57,0A5,5,0,0,1,608,277.5Zm1.18,0a4,4,0,0,0,.59,2.39,1.74,1.74,0,0,0,1.45.79,1.7,1.7,0,0,0,1.4-.79,4.11,4.11,0,0,0,.58-2.39,4,4,0,0,0-.59-2.39,1.74,1.74,0,0,0-1.45-.79,1.69,1.69,0,0,0-1.4.79A4.08,4.08,0,0,0,609.14,277.5Z"/><path class="cls-4" d="M620.15,281.65v-1.22a2.86,2.86,0,0,1-.94,1.05,2.13,2.13,0,0,1-1.21.36,2.21,2.21,0,0,1-1.38-.44,2.06,2.06,0,0,1-.76-1.1,6.66,6.66,0,0,1-.19-1.81v-5.14h1.15V278a7.82,7.82,0,0,0,.12,1.72,1.32,1.32,0,0,0,.48.69,1.25,1.25,0,0,0,.79.26,1.64,1.64,0,0,0,1.36-.67,3.64,3.64,0,0,0,.46-2.15v-4.45h1.15v8.3Z"/><path class="cls-4" d="M623,281.65v-8.3h1v1.17a2.78,2.78,0,0,1,.92-1,2.43,2.43,0,0,1,2.25-.12,2.05,2.05,0,0,1,.75.56,2.36,2.36,0,0,1,.43.9,7.81,7.81,0,0,1,.14,1.71v5.1h-1.15v-5a4,4,0,0,0-.16-1.34,1.27,1.27,0,0,0-1.25-.88,1.58,1.58,0,0,0-1.32.61,3.45,3.45,0,0,0-.5,2.12v4.54Z"/><path class="cls-4" d="M632.85,280.39l.16,1.24a3.15,3.15,0,0,1-.86.13,1.76,1.76,0,0,1-1-.24,1.24,1.24,0,0,1-.5-.65,6.39,6.39,0,0,1-.14-1.65v-4.77h-.84v-1.1h.84V271.3l1.15-.85v2.9h1.16v1.1h-1.16v4.85a2.2,2.2,0,0,0,.1.86.58.58,0,0,0,.56.29A2.67,2.67,0,0,0,632.85,280.39Z"/><path class="cls-4" d="M638.59,279l1.19.18a3.62,3.62,0,0,1-1.08,2,2.83,2.83,0,0,1-1.92.68,2.86,2.86,0,0,1-2.34-1.1,4.89,4.89,0,0,1-.9-3.17,5.19,5.19,0,0,1,.9-3.28,2.84,2.84,0,0,1,2.29-1.13,2.71,2.71,0,0,1,2.2,1.11,5.05,5.05,0,0,1,.89,3.21v.38h-5.08a3.57,3.57,0,0,0,.65,2.11,1.75,1.75,0,0,0,1.4.71C637.65,280.68,638.25,280.11,638.59,279Zm-3.79-2.28h3.8a3.32,3.32,0,0,0-.46-1.61,1.69,1.69,0,0,0-2.74-.13A2.88,2.88,0,0,0,634.8,276.7Z"/><path class="cls-4" d="M645.64,281.65v-1a2.26,2.26,0,0,1-.8.92,1.94,1.94,0,0,1-1.06.32,2.58,2.58,0,0,1-2.09-1.14,5.16,5.16,0,0,1-.87-3.2,6.56,6.56,0,0,1,.39-2.4,3.22,3.22,0,0,1,1-1.46,2.35,2.35,0,0,1,1.44-.48,2,2,0,0,1,1.06.3,2.61,2.61,0,0,1,.81.84v-4.1h1.16v11.45ZM642,277.51a4.16,4.16,0,0,0,.55,2.39,1.61,1.61,0,0,0,1.31.78,1.55,1.55,0,0,0,1.27-.75,3.9,3.9,0,0,0,.54-2.27,4.66,4.66,0,0,0-.54-2.54,1.6,1.6,0,0,0-1.36-.8,1.52,1.52,0,0,0-1.25.77A4.37,4.37,0,0,0,642,277.51Z"/><path class="cls-4" d="M651.75,277.5a5,5,0,0,1,.9-3.24,2.91,2.91,0,0,1,4.56,0,4.79,4.79,0,0,1,.91,3.15,5.17,5.17,0,0,1-.9,3.33,2.91,2.91,0,0,1-4.56,0A5,5,0,0,1,651.75,277.5Zm1.17,0a4,4,0,0,0,.59,2.39,1.75,1.75,0,0,0,1.45.79,1.69,1.69,0,0,0,1.4-.79,4,4,0,0,0,.58-2.39,3.92,3.92,0,0,0-.59-2.39,1.74,1.74,0,0,0-1.45-.79,1.69,1.69,0,0,0-1.4.79A4.08,4.08,0,0,0,652.92,277.5Z"/><path class="cls-4" d="M659.48,281.65v-8.3h1v1.17a2.76,2.76,0,0,1,.91-1,2.39,2.39,0,0,1,1.25-.34,2.44,2.44,0,0,1,1,.22,2.05,2.05,0,0,1,.75.56,2.21,2.21,0,0,1,.42.9,7.23,7.23,0,0,1,.14,1.71v5.1h-1.15v-5a4.34,4.34,0,0,0-.15-1.34,1.36,1.36,0,0,0-.49-.65,1.27,1.27,0,0,0-.77-.23,1.6,1.6,0,0,0-1.32.61,3.46,3.46,0,0,0-.49,2.12v4.54Z"/><path class="cls-4" d="M560.05,300.85l-2.09-8.3h1.19l1.08,4.79.4,1.78.36-1.71,1.08-4.86h1.19l1,4.81.35,1.59.39-1.6,1.16-4.8h1.12l-2.12,8.3H564l-1.09-5-.26-1.41-1.37,6.38Z"/><path class="cls-4" d="M568.26,291V289.4h1.15V291Zm0,9.84v-8.3h1.15v8.3Z"/><path class="cls-4" d="M573.74,299.59l.15,1.24a3.1,3.1,0,0,1-.86.13,1.71,1.71,0,0,1-1-.24,1.21,1.21,0,0,1-.51-.65,6.39,6.39,0,0,1-.14-1.65v-4.77h-.84v-1.1h.84V290.5l1.15-.85v2.9h1.17v1.1h-1.17v4.85a2.42,2.42,0,0,0,.1.86.58.58,0,0,0,.56.29A2.86,2.86,0,0,0,573.74,299.59Z"/><path class="cls-4" d="M574.82,300.85V289.4H576v4.1a2.82,2.82,0,0,1,.92-.85,2.29,2.29,0,0,1,1.13-.29,2.17,2.17,0,0,1,1.71.7,3.8,3.8,0,0,1,.63,2.53v5.26h-1.15v-5.26a2.45,2.45,0,0,0-.38-1.55,1.28,1.28,0,0,0-1.05-.46,1.64,1.64,0,0,0-1.28.6,3.28,3.28,0,0,0-.53,2.13v4.54Z"/><path class="cls-4" d="M585.77,300.85v-8.3h1v1.26a3.5,3.5,0,0,1,.73-1.16,1.12,1.12,0,0,1,.74-.29,2,2,0,0,1,1.18.46l-.39,1.3a1.43,1.43,0,0,0-.83-.3,1,1,0,0,0-.67.26,1.32,1.32,0,0,0-.43.71,6.36,6.36,0,0,0-.22,1.71v4.35Z"/><path class="cls-4" d="M594.78,298.18l1.19.18a3.61,3.61,0,0,1-1.07,2A2.84,2.84,0,0,1,593,301a2.89,2.89,0,0,1-2.34-1.1,5,5,0,0,1-.89-3.17,5.19,5.19,0,0,1,.9-3.28,2.8,2.8,0,0,1,2.28-1.13,2.72,2.72,0,0,1,2.21,1.11,5.05,5.05,0,0,1,.88,3.21v.38h-5.08a3.64,3.64,0,0,0,.65,2.11,1.78,1.78,0,0,0,1.41.71C593.84,299.88,594.45,299.31,594.78,298.18ZM591,295.9h3.79a3.11,3.11,0,0,0-.46-1.61,1.68,1.68,0,0,0-1.41-.77,1.67,1.67,0,0,0-1.32.65A2.71,2.71,0,0,0,591,295.9Z"/><path class="cls-4" d="M597.21,301.54l1.12.2a1.43,1.43,0,0,0,.47,1,1.63,1.63,0,0,0,1.09.33,1.87,1.87,0,0,0,1.2-.36,1.92,1.92,0,0,0,.62-1.09,11.09,11.09,0,0,0,.1-1.84,2.6,2.6,0,0,1-.85.81,2,2,0,0,1-1,.27,2.49,2.49,0,0,1-2-1,5.07,5.07,0,0,1-.92-3.18,6.23,6.23,0,0,1,.41-2.34,3.24,3.24,0,0,1,1.06-1.47,2.53,2.53,0,0,1,1.48-.47,2.09,2.09,0,0,1,1.1.3,2.84,2.84,0,0,1,.88.88v-1H603v7.17a8.35,8.35,0,0,1-.31,2.73,2.62,2.62,0,0,1-1,1.29,3,3,0,0,1-1.72.48,2.73,2.73,0,0,1-2-.72A2.55,2.55,0,0,1,597.21,301.54Zm.95-5a4.16,4.16,0,0,0,.54,2.39,1.59,1.59,0,0,0,1.32.75,1.61,1.61,0,0,0,1.33-.73,5.21,5.21,0,0,0,0-4.68,1.7,1.7,0,0,0-1.37-.76,1.59,1.59,0,0,0-1.27.76A3.94,3.94,0,0,0,598.16,296.55Z"/><path class="cls-4" d="M609.16,299.83a4.38,4.38,0,0,1-1.2.9,3,3,0,0,1-1.3.31,2.32,2.32,0,0,1-1.7-.64,2.37,2.37,0,0,1-.63-1.73,2.62,2.62,0,0,1,.3-1.27,2.27,2.27,0,0,1,.81-.87,4.2,4.2,0,0,1,1.56-.46,9,9,0,0,0,2.07-.49v-.36a1.85,1.85,0,0,0-.3-1.2,1.67,1.67,0,0,0-1.32-.5,1.83,1.83,0,0,0-1.2.33,2.15,2.15,0,0,0-.59,1.26l-1.13-.19a3.13,3.13,0,0,1,1-1.95,3.26,3.26,0,0,1,2.11-.61,3,3,0,0,1,1.68.41,1.74,1.74,0,0,1,.77,1,7,7,0,0,1,.16,1.74v1.87a24.27,24.27,0,0,0,.07,2.48,3.6,3.6,0,0,0,.3,1h-1.21A3.65,3.65,0,0,1,609.16,299.83Zm-.09-3.15a7.44,7.44,0,0,1-1.89.54,3.33,3.33,0,0,0-1,.28,1.08,1.08,0,0,0-.45.45,1.39,1.39,0,0,0-.16.68,1.27,1.27,0,0,0,.36.95,1.41,1.41,0,0,0,1,.35,2,2,0,0,0,1.12-.32,2,2,0,0,0,.76-.85,4,4,0,0,0,.25-1.56Z"/><path class="cls-4" d="M612,300.85v-8.3h1v1.26a3.35,3.35,0,0,1,.73-1.16,1.12,1.12,0,0,1,.74-.29,2,2,0,0,1,1.18.46l-.39,1.3a1.46,1.46,0,0,0-.83-.3,1,1,0,0,0-.68.26,1.45,1.45,0,0,0-.43.71,6.79,6.79,0,0,0-.22,1.71v4.35Z"/><path class="cls-4" d="M620.8,300.85V299.8a2.42,2.42,0,0,1-.8.92,2,2,0,0,1-1.07.32,2.58,2.58,0,0,1-2.08-1.14,5.1,5.1,0,0,1-.88-3.2,6.56,6.56,0,0,1,.39-2.4,3.29,3.29,0,0,1,1-1.46,2.4,2.4,0,0,1,1.45-.48,1.93,1.93,0,0,1,1.06.31,2.45,2.45,0,0,1,.8.83v-4.1h1.17v11.45Zm-3.65-4.14a4.15,4.15,0,0,0,.56,2.39,1.6,1.6,0,0,0,1.3.78,1.56,1.56,0,0,0,1.28-.75,3.88,3.88,0,0,0,.54-2.27,4.66,4.66,0,0,0-.54-2.54,1.61,1.61,0,0,0-1.36-.8,1.52,1.52,0,0,0-1.26.77A4.46,4.46,0,0,0,617.15,296.71Z"/><path class="cls-4" d="M623.25,298.36l1.14-.21a2.07,2.07,0,0,0,.56,1.3,1.65,1.65,0,0,0,1.2.43,1.62,1.62,0,0,0,1.15-.37,1.19,1.19,0,0,0,.41-.94.9.9,0,0,0-.35-.77,4.64,4.64,0,0,0-1.17-.47,8.5,8.5,0,0,1-1.8-.7,2,2,0,0,1-.7-.77,2.36,2.36,0,0,1-.25-1.11,2.31,2.31,0,0,1,.68-1.72,2.58,2.58,0,0,1,1.88-.67,3.07,3.07,0,0,1,1.33.28,2,2,0,0,1,.88.73,3.15,3.15,0,0,1,.43,1.32l-1.13.19a1.35,1.35,0,0,0-1.48-1.36,1.71,1.71,0,0,0-1.11.3.94.94,0,0,0-.37.77.87.87,0,0,0,.35.72,6.55,6.55,0,0,0,1.25.5,9.31,9.31,0,0,1,1.86.72,1.87,1.87,0,0,1,.65.74,2.39,2.39,0,0,1,.23,1.11,2.57,2.57,0,0,1-.75,1.92,2.82,2.82,0,0,1-2.06.74C624.45,301,623.51,300.15,623.25,298.36Z"/><path class="cls-4" d="M636.46,299.59l.16,1.24a3.15,3.15,0,0,1-.86.13,1.76,1.76,0,0,1-1-.24,1.24,1.24,0,0,1-.5-.65,6.39,6.39,0,0,1-.14-1.65v-4.77h-.84v-1.1h.84V290.5l1.15-.85v2.9h1.16v1.1H635.3v4.85a2.2,2.2,0,0,0,.1.86.58.58,0,0,0,.56.29A2.67,2.67,0,0,0,636.46,299.59Z"/><path class="cls-4" d="M637.11,296.7a5,5,0,0,1,.9-3.24,2.91,2.91,0,0,1,4.56,0,4.79,4.79,0,0,1,.92,3.15,5.17,5.17,0,0,1-.9,3.33,2.92,2.92,0,0,1-4.57,0A5,5,0,0,1,637.11,296.7Zm1.18,0a4,4,0,0,0,.59,2.39,1.74,1.74,0,0,0,1.45.79,1.7,1.7,0,0,0,1.4-.79,4.11,4.11,0,0,0,.58-2.39,4,4,0,0,0-.59-2.39,1.74,1.74,0,0,0-1.45-.79,1.69,1.69,0,0,0-1.4.79A4,4,0,0,0,638.29,296.7Z"/><path class="cls-4" d="M653,297.81l1.13.18a3.79,3.79,0,0,1-1,2.26,2.55,2.55,0,0,1-1.89.79,2.7,2.7,0,0,1-2.2-1.1,5.23,5.23,0,0,1-.86-3.25,5.09,5.09,0,0,1,.87-3.24,2.73,2.73,0,0,1,2.24-1.09A2.55,2.55,0,0,1,653,293a3.2,3.2,0,0,1,.92,2l-1.11.2a2.39,2.39,0,0,0-.57-1.25,1.32,1.32,0,0,0-1-.42,1.69,1.69,0,0,0-1.41.75,4.12,4.12,0,0,0-.56,2.4,4.29,4.29,0,0,0,.54,2.45,1.59,1.59,0,0,0,1.37.76,1.5,1.5,0,0,0,1.12-.5A2.74,2.74,0,0,0,653,297.81Z"/><path class="cls-4" d="M654.62,296.7a5,5,0,0,1,.9-3.24,2.91,2.91,0,0,1,4.56,0,4.79,4.79,0,0,1,.92,3.15,5.17,5.17,0,0,1-.9,3.33,2.92,2.92,0,0,1-4.57,0A5,5,0,0,1,654.62,296.7Zm1.18,0a4,4,0,0,0,.59,2.39,1.74,1.74,0,0,0,1.45.79,1.67,1.67,0,0,0,1.39-.79,4,4,0,0,0,.59-2.39,4,4,0,0,0-.59-2.39,1.75,1.75,0,0,0-1.45-.79,1.68,1.68,0,0,0-1.4.79A4,4,0,0,0,655.8,296.7Z"/><path class="cls-4" d="M662.35,300.85v-8.3h1v1.17a2.78,2.78,0,0,1,.92-1,2.35,2.35,0,0,1,1.24-.34,2.41,2.41,0,0,1,1,.22,2.05,2.05,0,0,1,.75.56,2.36,2.36,0,0,1,.43.9,7.81,7.81,0,0,1,.14,1.71v5.1h-1.15V295.8a4,4,0,0,0-.16-1.34,1.3,1.3,0,0,0-1.25-.88,1.58,1.58,0,0,0-1.32.61,3.45,3.45,0,0,0-.5,2.12v4.54Z"/><path class="cls-4" d="M669.21,298.36l1.14-.21a2.07,2.07,0,0,0,.56,1.3,1.94,1.94,0,0,0,2.36.06,1.22,1.22,0,0,0,.4-.94.9.9,0,0,0-.35-.77,4.64,4.64,0,0,0-1.17-.47,8.74,8.74,0,0,1-1.8-.7,2,2,0,0,1-.7-.77,2.36,2.36,0,0,1-.25-1.11,2.31,2.31,0,0,1,.68-1.72,2.58,2.58,0,0,1,1.88-.67,3.14,3.14,0,0,1,1.34.28,2,2,0,0,1,.87.73,3.15,3.15,0,0,1,.43,1.32l-1.13.19a1.34,1.34,0,0,0-1.47-1.36,1.74,1.74,0,0,0-1.12.3.94.94,0,0,0-.37.77.87.87,0,0,0,.35.72,6.46,6.46,0,0,0,1.26.5,9.4,9.4,0,0,1,1.85.72,1.87,1.87,0,0,1,.65.74,2.39,2.39,0,0,1,.23,1.11,2.57,2.57,0,0,1-.75,1.92A2.82,2.82,0,0,1,672,301C670.41,301,669.47,300.15,669.21,298.36Z"/><path class="cls-4" d="M678.78,299.59l.15,1.24a3.1,3.1,0,0,1-.86.13,1.76,1.76,0,0,1-1-.24,1.24,1.24,0,0,1-.5-.65,6.39,6.39,0,0,1-.14-1.65v-4.77h-.84v-1.1h.84V290.5l1.15-.85v2.9h1.17v1.1h-1.17v4.85a2.42,2.42,0,0,0,.1.86.58.58,0,0,0,.56.29A2.86,2.86,0,0,0,678.78,299.59Z"/><path class="cls-4" d="M684.29,299.83a4.1,4.1,0,0,1-1.2.9,3,3,0,0,1-1.3.31,2.28,2.28,0,0,1-1.69-.64,2.34,2.34,0,0,1-.64-1.73,2.62,2.62,0,0,1,.3-1.27,2.27,2.27,0,0,1,.81-.87,4.33,4.33,0,0,1,1.57-.46,9,9,0,0,0,2.06-.49v-.36a1.84,1.84,0,0,0-.31-1.2,1.65,1.65,0,0,0-1.32-.5,1.83,1.83,0,0,0-1.2.33,2.21,2.21,0,0,0-.59,1.26l-1.13-.19a3.18,3.18,0,0,1,1-1.95,3.27,3.27,0,0,1,2.11-.61,3,3,0,0,1,1.68.41,1.7,1.7,0,0,1,.77,1,7,7,0,0,1,.16,1.74v1.87a23.12,23.12,0,0,0,.08,2.48,3.58,3.58,0,0,0,.29,1h-1.2A3.64,3.64,0,0,1,684.29,299.83Zm-.09-3.15a7.34,7.34,0,0,1-1.88.54,3.33,3.33,0,0,0-1,.28,1.21,1.21,0,0,0-.45.45,1.39,1.39,0,0,0-.16.68,1.24,1.24,0,0,0,.37.95,1.37,1.37,0,0,0,1,.35,2,2,0,0,0,1.12-.32,2,2,0,0,0,.76-.85,3.78,3.78,0,0,0,.25-1.56Z"/><path class="cls-4" d="M687.16,300.85v-8.3h1v1.17a2.76,2.76,0,0,1,.91-1,2.39,2.39,0,0,1,1.25-.34,2.44,2.44,0,0,1,1,.22,2.05,2.05,0,0,1,.75.56,2.21,2.21,0,0,1,.42.9,7.23,7.23,0,0,1,.14,1.71v5.1h-1.15V295.8a4.34,4.34,0,0,0-.15-1.34,1.36,1.36,0,0,0-.49-.65,1.27,1.27,0,0,0-.77-.23,1.6,1.6,0,0,0-1.32.61,3.46,3.46,0,0,0-.49,2.12v4.54Z"/><path class="cls-4" d="M697,299.59l.15,1.24a3.09,3.09,0,0,1-.85.13,1.72,1.72,0,0,1-1-.24,1.21,1.21,0,0,1-.51-.65,6.54,6.54,0,0,1-.13-1.65v-4.77h-.85v-1.1h.85V290.5l1.14-.85v2.9H697v1.1h-1.17v4.85a2.14,2.14,0,0,0,.11.86.56.56,0,0,0,.55.29A2.86,2.86,0,0,0,697,299.59Z"/><path class="cls-4" d="M563.12,323.23v-4.06a2.24,2.24,0,0,1-.76.77,1.86,1.86,0,0,1-1,.3,2.61,2.61,0,0,1-2.11-1.16,5.2,5.2,0,0,1-.89-3.26,5.68,5.68,0,0,1,.75-3,2.37,2.37,0,0,1,2.12-1.22,2,2,0,0,1,1.13.33,2.64,2.64,0,0,1,.85,1v-1.11h1v11.48Zm-3.56-7.35a4.22,4.22,0,0,0,.56,2.41,1.62,1.62,0,0,0,1.34.79,1.51,1.51,0,0,0,1.24-.76,3.94,3.94,0,0,0,.54-2.27,4.52,4.52,0,0,0-.57-2.54,1.63,1.63,0,0,0-1.35-.84,1.52,1.52,0,0,0-1.24.78A4.43,4.43,0,0,0,559.56,315.88Z"/><path class="cls-4" d="M570.54,320.05v-1.22a2.86,2.86,0,0,1-.94,1.05,2.1,2.1,0,0,1-1.21.36,2.21,2.21,0,0,1-1.38-.44,2.08,2.08,0,0,1-.76-1.09,6.79,6.79,0,0,1-.19-1.82v-5.14h1.15v4.6a7.82,7.82,0,0,0,.12,1.72,1.32,1.32,0,0,0,.48.69,1.26,1.26,0,0,0,.79.27,1.65,1.65,0,0,0,1.36-.68,3.62,3.62,0,0,0,.46-2.15v-4.45h1.15v8.3Z"/><path class="cls-4" d="M577.82,319a4.27,4.27,0,0,1-1.21.9,3,3,0,0,1-1.29.31,2.31,2.31,0,0,1-1.7-.64,2.37,2.37,0,0,1-.63-1.73,2.73,2.73,0,0,1,.29-1.27,2.22,2.22,0,0,1,.82-.87,4.2,4.2,0,0,1,1.56-.46,8.87,8.87,0,0,0,2.06-.49v-.36a1.78,1.78,0,0,0-.31-1.2,1.64,1.64,0,0,0-1.32-.5,1.87,1.87,0,0,0-1.2.33,2.21,2.21,0,0,0-.58,1.26l-1.14-.19a3.18,3.18,0,0,1,1-1.95,3.3,3.3,0,0,1,2.12-.61A3,3,0,0,1,578,312a1.79,1.79,0,0,1,.77,1,7.53,7.53,0,0,1,.16,1.74v1.87a24.27,24.27,0,0,0,.07,2.48,3.94,3.94,0,0,0,.29,1h-1.2A3.33,3.33,0,0,1,577.82,319Zm-.1-3.15a7.34,7.34,0,0,1-1.88.54,3.42,3.42,0,0,0-1,.28,1.21,1.21,0,0,0-.45.45,1.51,1.51,0,0,0-.16.68,1.28,1.28,0,0,0,.37.95,1.39,1.39,0,0,0,1,.35,2,2,0,0,0,1.87-1.17,3.78,3.78,0,0,0,.25-1.56Z"/><path class="cls-4" d="M580.64,320.05V308.6h1.15v11.45Z"/><path class="cls-4" d="M583.6,310.21V308.6h1.15v1.61Zm0,9.84v-8.3h1.15v8.3Z"/><path class="cls-4" d="M589.07,318.79l.16,1.24a3.21,3.21,0,0,1-.86.13,1.76,1.76,0,0,1-1-.24,1.24,1.24,0,0,1-.5-.65,6.39,6.39,0,0,1-.14-1.65v-4.77h-.84v-1.1h.84V309.7l1.15-.85v2.9h1.16v1.1h-1.16v4.85a2.2,2.2,0,0,0,.1.86.57.57,0,0,0,.56.29A2.67,2.67,0,0,0,589.07,318.79Z"/><path class="cls-4" d="M590.12,323.24l-.12-1.32a2,2,0,0,0,.65.13,1.13,1.13,0,0,0,.61-.15,1.06,1.06,0,0,0,.39-.46c0-.07.19-.53.46-1.38l-2.59-8.31h1.24l1.42,4.8c.18.6.34,1.24.49,1.92.13-.64.29-1.27.47-1.89l1.46-4.83h1.15l-2.58,8.44a14.86,14.86,0,0,1-.8,2.19,2.15,2.15,0,0,1-.66.79,1.54,1.54,0,0,1-.85.25A1.89,1.89,0,0,1,590.12,323.24Z"/><path class="cls-4" d="M604.8,319a4.38,4.38,0,0,1-1.2.9,3,3,0,0,1-1.3.31,2.32,2.32,0,0,1-1.7-.64,2.37,2.37,0,0,1-.63-1.73,2.62,2.62,0,0,1,.3-1.27,2.27,2.27,0,0,1,.81-.87,4.27,4.27,0,0,1,1.56-.46,9,9,0,0,0,2.07-.49v-.36a1.85,1.85,0,0,0-.3-1.2,1.67,1.67,0,0,0-1.32-.5,1.83,1.83,0,0,0-1.2.33,2.15,2.15,0,0,0-.59,1.26l-1.13-.19a3.18,3.18,0,0,1,1-1.95,3.26,3.26,0,0,1,2.11-.61,3,3,0,0,1,1.68.41,1.74,1.74,0,0,1,.77,1,7,7,0,0,1,.16,1.74v1.87a24.27,24.27,0,0,0,.07,2.48,3.6,3.6,0,0,0,.3,1H605A3.65,3.65,0,0,1,604.8,319Zm-.09-3.15a7.44,7.44,0,0,1-1.89.54,3.33,3.33,0,0,0-1,.28,1.15,1.15,0,0,0-.45.45,1.39,1.39,0,0,0-.16.68,1.24,1.24,0,0,0,.37.95,1.37,1.37,0,0,0,1,.35,2,2,0,0,0,1.12-.32,2,2,0,0,0,.76-.85,4,4,0,0,0,.25-1.56Z"/><path class="cls-4" d="M607.67,320.05v-8.3h1v1.17a2.76,2.76,0,0,1,.91-1,2.36,2.36,0,0,1,1.25-.34,2.44,2.44,0,0,1,1,.22,1.94,1.94,0,0,1,.74.56,2.22,2.22,0,0,1,.43.9,7.81,7.81,0,0,1,.14,1.71v5.1H612V315a4.34,4.34,0,0,0-.15-1.34,1.36,1.36,0,0,0-.49-.65,1.27,1.27,0,0,0-.77-.23,1.6,1.6,0,0,0-1.32.61,3.46,3.46,0,0,0-.49,2.12v4.54Z"/><path class="cls-4" d="M619.37,320.05V319a2.42,2.42,0,0,1-.8.92,2,2,0,0,1-1.07.32,2.58,2.58,0,0,1-2.08-1.14,5.1,5.1,0,0,1-.88-3.2,6.56,6.56,0,0,1,.39-2.4,3.29,3.29,0,0,1,1-1.46,2.4,2.4,0,0,1,1.45-.48,2,2,0,0,1,1.06.31,2.39,2.39,0,0,1,.8.84V308.6h1.17v11.45Zm-3.65-4.14a4.15,4.15,0,0,0,.56,2.39,1.6,1.6,0,0,0,1.3.78,1.56,1.56,0,0,0,1.28-.75,3.88,3.88,0,0,0,.54-2.27,4.66,4.66,0,0,0-.54-2.54,1.61,1.61,0,0,0-1.36-.8,1.49,1.49,0,0,0-1.25.77A4.36,4.36,0,0,0,615.72,315.91Z"/><path class="cls-4" d="M630.34,319a4.38,4.38,0,0,1-1.2.9,3,3,0,0,1-1.3.31,2.32,2.32,0,0,1-1.7-.64,2.37,2.37,0,0,1-.63-1.73,2.62,2.62,0,0,1,.3-1.27,2.27,2.27,0,0,1,.81-.87,4.2,4.2,0,0,1,1.56-.46,9,9,0,0,0,2.07-.49v-.36a1.85,1.85,0,0,0-.3-1.2,1.67,1.67,0,0,0-1.32-.5,1.88,1.88,0,0,0-1.21.33,2.21,2.21,0,0,0-.58,1.26l-1.13-.19a3.13,3.13,0,0,1,1-1.95,3.26,3.26,0,0,1,2.11-.61,3,3,0,0,1,1.68.41,1.74,1.74,0,0,1,.77,1,7,7,0,0,1,.16,1.74v1.87a24.27,24.27,0,0,0,.07,2.48,3.6,3.6,0,0,0,.3,1h-1.21A3.65,3.65,0,0,1,630.34,319Zm-.09-3.15a7.44,7.44,0,0,1-1.89.54,3.33,3.33,0,0,0-1,.28,1.08,1.08,0,0,0-.45.45,1.39,1.39,0,0,0-.16.68,1.27,1.27,0,0,0,.36.95,1.41,1.41,0,0,0,1,.35,2,2,0,0,0,1.12-.32A2,2,0,0,0,630,318a4,4,0,0,0,.25-1.56Z"/><path class="cls-4" d="M634.26,320.05h-1.07V308.6h1.16v4.08a2.66,2.66,0,0,1,.83-.84,2,2,0,0,1,1-.28,2.36,2.36,0,0,1,1.45.48,3.2,3.2,0,0,1,1.05,1.45,6.28,6.28,0,0,1,.39,2.35,5.22,5.22,0,0,1-.89,3.25,2.59,2.59,0,0,1-2.06,1.15,1.94,1.94,0,0,1-1.07-.31,2.56,2.56,0,0,1-.82-.92Zm0-4.21a5.85,5.85,0,0,0,.24,1.93,2.12,2.12,0,0,0,.66,1,1.5,1.5,0,0,0,1,.34,1.54,1.54,0,0,0,1.26-.8,5.49,5.49,0,0,0,0-4.79,1.56,1.56,0,0,0-1.3-.77,1.59,1.59,0,0,0-1.28.8A4.08,4.08,0,0,0,634.24,315.84Z"/><path class="cls-4" d="M640.5,310.21V308.6h1.15v1.61Zm0,9.84v-8.3h1.15v8.3Z"/><path class="cls-4" d="M643.38,320.05V308.6h1.15v11.45Z"/><path class="cls-4" d="M646.33,310.21V308.6h1.15v1.61Zm0,9.84v-8.3h1.15v8.3Z"/><path class="cls-4" d="M651.81,318.79,652,320a3.1,3.1,0,0,1-.86.13,1.71,1.71,0,0,1-1-.24,1.21,1.21,0,0,1-.51-.65,6.54,6.54,0,0,1-.13-1.65v-4.77h-.85v-1.1h.85V309.7l1.14-.85v2.9h1.17v1.1h-1.17v4.85a2.14,2.14,0,0,0,.11.86.56.56,0,0,0,.55.29A2.86,2.86,0,0,0,651.81,318.79Z"/><path class="cls-4" d="M652.85,323.24l-.12-1.32a2,2,0,0,0,.66.13,1.11,1.11,0,0,0,.6-.15,1.14,1.14,0,0,0,.4-.46c0-.07.19-.53.45-1.38l-2.59-8.31h1.25l1.42,4.8c.17.6.34,1.24.49,1.92.13-.64.29-1.27.47-1.89l1.45-4.83h1.16l-2.58,8.44a14.54,14.54,0,0,1-.81,2.19,2,2,0,0,1-.66.79,1.53,1.53,0,0,1-.84.25A1.94,1.94,0,0,1,652.85,323.24Z"/><path class="cls-4" d="M665.67,318.79l.15,1.24a3.1,3.1,0,0,1-.86.13,1.71,1.71,0,0,1-1-.24,1.21,1.21,0,0,1-.51-.65,6.39,6.39,0,0,1-.14-1.65v-4.77h-.84v-1.1h.84V309.7l1.15-.85v2.9h1.17v1.1H664.5v4.85a2.42,2.42,0,0,0,.1.86.58.58,0,0,0,.56.29A2.86,2.86,0,0,0,665.67,318.79Z"/><path class="cls-4" d="M666.32,315.9a5,5,0,0,1,.9-3.24,2.91,2.91,0,0,1,4.56,0,4.79,4.79,0,0,1,.91,3.15,5.17,5.17,0,0,1-.9,3.33,2.91,2.91,0,0,1-4.56,0A5,5,0,0,1,666.32,315.9Zm1.18,0a4,4,0,0,0,.58,2.39,1.75,1.75,0,0,0,1.45.79,1.69,1.69,0,0,0,1.4-.79,4,4,0,0,0,.58-2.39,3.92,3.92,0,0,0-.59-2.39,1.74,1.74,0,0,0-1.45-.79,1.69,1.69,0,0,0-1.4.79A4.09,4.09,0,0,0,667.5,315.9Z"/><path class="cls-4" d="M743.28,280.75a4.33,4.33,0,0,1-1.2.91,3,3,0,0,1-1.3.3,2.25,2.25,0,0,1-1.69-.64,2.32,2.32,0,0,1-.64-1.73,2.62,2.62,0,0,1,.3-1.27,2.27,2.27,0,0,1,.81-.87,4.54,4.54,0,0,1,1.56-.46,9,9,0,0,0,2.07-.49v-.36a1.79,1.79,0,0,0-.31-1.19,1.63,1.63,0,0,0-1.32-.5,1.83,1.83,0,0,0-1.2.33,2.18,2.18,0,0,0-.59,1.25l-1.13-.19a3.12,3.12,0,0,1,1-1.94,3.22,3.22,0,0,1,2.11-.61,3,3,0,0,1,1.68.4,1.73,1.73,0,0,1,.77,1,6.87,6.87,0,0,1,.16,1.73v1.88a23.12,23.12,0,0,0,.08,2.48,3.51,3.51,0,0,0,.29,1h-1.2A3.48,3.48,0,0,1,743.28,280.75Zm-.09-3.14a7,7,0,0,1-1.89.53,3.28,3.28,0,0,0-1,.29,1.08,1.08,0,0,0-.45.45,1.33,1.33,0,0,0-.16.67,1.23,1.23,0,0,0,.37.95,1.37,1.37,0,0,0,1,.36,2.06,2.06,0,0,0,1.12-.32,2,2,0,0,0,.76-.86,3.88,3.88,0,0,0,.25-1.56Z"/><path class="cls-4" d="M750.55,281.77v-1a2.23,2.23,0,0,1-.8.91,1.86,1.86,0,0,1-1.06.32,2.57,2.57,0,0,1-2.08-1.14,5.08,5.08,0,0,1-.88-3.2,6.47,6.47,0,0,1,.39-2.39,3.11,3.11,0,0,1,1-1.46,2.35,2.35,0,0,1,1.44-.48,2,2,0,0,1,1.06.3,2.33,2.33,0,0,1,.81.84v-4.11h1.16v11.45Zm-3.64-4.14a4.14,4.14,0,0,0,.55,2.39,1.61,1.61,0,0,0,1.31.78,1.55,1.55,0,0,0,1.27-.75,3.86,3.86,0,0,0,.54-2.26,4.63,4.63,0,0,0-.54-2.54,1.58,1.58,0,0,0-1.36-.8,1.5,1.5,0,0,0-1.25.76A4.39,4.39,0,0,0,746.91,277.63Z"/><path class="cls-4" d="M757.88,280.75a4.52,4.52,0,0,1-1.21.91,3,3,0,0,1-1.29.3,2.27,2.27,0,0,1-1.7-.64,2.36,2.36,0,0,1-.63-1.73,2.73,2.73,0,0,1,.29-1.27,2.22,2.22,0,0,1,.82-.87,4.4,4.4,0,0,1,1.56-.46,8.87,8.87,0,0,0,2.06-.49v-.36a1.73,1.73,0,0,0-.31-1.19,1.61,1.61,0,0,0-1.32-.5,1.87,1.87,0,0,0-1.2.33,2.18,2.18,0,0,0-.58,1.25l-1.14-.19a3.12,3.12,0,0,1,1-1.94,3.23,3.23,0,0,1,2.12-.61,3,3,0,0,1,1.68.4,1.77,1.77,0,0,1,.77,1,7.37,7.37,0,0,1,.16,1.73v1.88a24.27,24.27,0,0,0,.07,2.48,3.87,3.87,0,0,0,.29,1h-1.2A3.2,3.2,0,0,1,757.88,280.75Zm-.1-3.14a7,7,0,0,1-1.88.53,3.36,3.36,0,0,0-1,.29,1.08,1.08,0,0,0-.45.45,1.44,1.44,0,0,0-.16.67,1.26,1.26,0,0,0,.37.95,1.4,1.4,0,0,0,1,.36,2.09,2.09,0,0,0,1.12-.32,2,2,0,0,0,.75-.86,3.72,3.72,0,0,0,.25-1.56Z"/><path class="cls-4" d="M760.74,285V273.48h1.06v1.07a2.66,2.66,0,0,1,.87-1,2,2,0,0,1,1.09-.3,2.36,2.36,0,0,1,1.45.48,3.22,3.22,0,0,1,1,1.44,6.09,6.09,0,0,1,.4,2.34,5.26,5.26,0,0,1-.89,3.27,2.58,2.58,0,0,1-2.08,1.14,1.94,1.94,0,0,1-1-.27,2.47,2.47,0,0,1-.8-.78v4Zm1-7.28a4.11,4.11,0,0,0,.54,2.37,1.56,1.56,0,0,0,1.3.76,1.58,1.58,0,0,0,1.29-.78,4.38,4.38,0,0,0,.55-2.44,4.3,4.3,0,0,0-.54-2.41,1.42,1.42,0,0,0-2.57.06A4.33,4.33,0,0,0,761.79,277.67Z"/><path class="cls-4" d="M770.6,280.52l.16,1.24a3.61,3.61,0,0,1-.86.12,1.74,1.74,0,0,1-1-.24,1.13,1.13,0,0,1-.5-.65,5.86,5.86,0,0,1-.14-1.65v-4.77h-.84v-1.09h.84v-2.06l1.15-.84v2.9h1.16v1.09h-1.16v4.85a2.26,2.26,0,0,0,.1.87.56.56,0,0,0,.55.28A3.92,3.92,0,0,0,770.6,280.52Z"/><path class="cls-4" d="M771.24,279.29l1.15-.22a2.09,2.09,0,0,0,.55,1.31,1.72,1.72,0,0,0,1.2.42,1.65,1.65,0,0,0,1.16-.37,1.21,1.21,0,0,0,.41-.94.91.91,0,0,0-.35-.76,4.27,4.27,0,0,0-1.17-.47,8.15,8.15,0,0,1-1.8-.71,1.93,1.93,0,0,1-.7-.77,2.54,2.54,0,0,1,.43-2.83,2.58,2.58,0,0,1,1.88-.66,3.1,3.1,0,0,1,1.33.27,2.16,2.16,0,0,1,.88.74,3.2,3.2,0,0,1,.42,1.32l-1.12.18a1.35,1.35,0,0,0-1.48-1.35,1.7,1.7,0,0,0-1.12.3.93.93,0,0,0-.36.76.82.82,0,0,0,.35.72,5.91,5.91,0,0,0,1.25.5,9.6,9.6,0,0,1,1.85.73,1.87,1.87,0,0,1,.66.73,2.53,2.53,0,0,1,.23,1.11,2.61,2.61,0,0,1-.75,1.93,2.84,2.84,0,0,1-2.06.73C772.45,282,771.5,281.07,771.24,279.29Z"/><path class="cls-4" d="M784.46,280.52l.16,1.24a3.61,3.61,0,0,1-.86.12,1.74,1.74,0,0,1-1-.24,1.13,1.13,0,0,1-.5-.65,5.86,5.86,0,0,1-.14-1.65v-4.77h-.85v-1.09h.85v-2.06l1.15-.84v2.9h1.16v1.09H783.3v4.85a2.26,2.26,0,0,0,.1.87.56.56,0,0,0,.55.28A3.92,3.92,0,0,0,784.46,280.52Z"/><path class="cls-4" d="M785.11,277.62a5,5,0,0,1,.9-3.24,2.93,2.93,0,0,1,4.56,0,4.8,4.8,0,0,1,.91,3.16,5.23,5.23,0,0,1-.89,3.33,2.93,2.93,0,0,1-4.57,0A5,5,0,0,1,785.11,277.62Zm1.18,0a4,4,0,0,0,.59,2.4,1.75,1.75,0,0,0,1.45.78,1.69,1.69,0,0,0,1.39-.79,5.21,5.21,0,0,0,0-4.78,1.76,1.76,0,0,0-1.45-.78,1.68,1.68,0,0,0-1.4.79A4,4,0,0,0,786.29,277.62Z"/><path class="cls-4" d="M796.49,271.94v-1.62h1.15v1.62Zm0,9.83v-8.29h1.15v8.29Z"/><path class="cls-4" d="M802,280.52l.15,1.24a3.47,3.47,0,0,1-.85.12,1.72,1.72,0,0,1-1-.24,1.14,1.14,0,0,1-.51-.65,6.43,6.43,0,0,1-.13-1.65v-4.77h-.85v-1.09h.85v-2.06l1.14-.84v2.9H802v1.09H800.8v4.85a2.2,2.2,0,0,0,.11.87.55.55,0,0,0,.55.28A3.92,3.92,0,0,0,802,280.52Z"/><path class="cls-4" d="M802.61,279.29l1.15-.22a2.09,2.09,0,0,0,.55,1.31,1.69,1.69,0,0,0,1.2.42,1.65,1.65,0,0,0,1.16-.37,1.21,1.21,0,0,0,.41-.94.91.91,0,0,0-.35-.76,4.39,4.39,0,0,0-1.18-.47,8.23,8.23,0,0,1-1.79-.71,2,2,0,0,1-.71-.77,2.44,2.44,0,0,1-.25-1.1,2.34,2.34,0,0,1,.68-1.73,2.62,2.62,0,0,1,1.89-.66,3.1,3.1,0,0,1,1.33.27,2.16,2.16,0,0,1,.88.74,3.2,3.2,0,0,1,.42,1.32l-1.12.18a1.35,1.35,0,0,0-1.48-1.35,1.7,1.7,0,0,0-1.12.3.94.94,0,0,0-.37.76.83.83,0,0,0,.36.72,5.66,5.66,0,0,0,1.25.5,9.9,9.9,0,0,1,1.85.73,1.77,1.77,0,0,1,.65.73,2.39,2.39,0,0,1,.24,1.11,2.58,2.58,0,0,1-.76,1.93,2.79,2.79,0,0,1-2,.73C803.82,282,802.87,281.07,802.61,279.29Z"/><path class="cls-4" d="M814.52,281.77l-2.09-8.29h1.19l1.09,4.79.4,1.78.35-1.71,1.08-4.86h1.2l1,4.81.34,1.59.39-1.61,1.16-4.79h1.13l-2.13,8.29h-1.2l-1.08-5-.26-1.41-1.38,6.38Z"/><path class="cls-4" d="M822.3,277.62a5,5,0,0,1,.9-3.24,2.93,2.93,0,0,1,4.56,0,4.8,4.8,0,0,1,.91,3.16,5.17,5.17,0,0,1-.9,3.33,2.92,2.92,0,0,1-4.56,0A5,5,0,0,1,822.3,277.62Zm1.18,0a4,4,0,0,0,.58,2.4,1.77,1.77,0,0,0,1.46.78,1.69,1.69,0,0,0,1.39-.79,5.21,5.21,0,0,0,0-4.78,1.77,1.77,0,0,0-1.46-.78,1.7,1.7,0,0,0-1.4.79A4.05,4.05,0,0,0,823.48,277.62Z"/><path class="cls-4" d="M830,281.77v-8.29h1v1.25a3.67,3.67,0,0,1,.73-1.16,1.11,1.11,0,0,1,.75-.28,2,2,0,0,1,1.18.45l-.39,1.31a1.43,1.43,0,0,0-.84-.31,1,1,0,0,0-.67.26,1.31,1.31,0,0,0-.43.72,6.31,6.31,0,0,0-.22,1.71v4.34Z"/><path class="cls-4" d="M834.42,281.77V270.32h1.15v6.54l2.74-3.38h1.49l-2.6,3.08,2.86,5.21h-1.42l-2.26-4.25-.81,1v3.29Z"/><path class="cls-4" d="M841,285V273.48H842v1.07a2.66,2.66,0,0,1,.87-1,2,2,0,0,1,1.09-.3,2.36,2.36,0,0,1,1.45.48,3.22,3.22,0,0,1,1,1.44,6.09,6.09,0,0,1,.4,2.34,5.26,5.26,0,0,1-.89,3.27A2.58,2.58,0,0,1,843.9,282a1.89,1.89,0,0,1-1-.27,2.47,2.47,0,0,1-.8-.78v4Zm1-7.28a4.11,4.11,0,0,0,.54,2.37,1.47,1.47,0,0,0,2.58,0,5.62,5.62,0,0,0,0-4.85,1.42,1.42,0,0,0-2.57.06A4.33,4.33,0,0,0,842,277.67Z"/><path class="cls-4" d="M848.22,281.77V270.32h1.15v11.45Z"/><path class="cls-4" d="M855.6,280.75a4.33,4.33,0,0,1-1.2.91,3,3,0,0,1-1.3.3,2.25,2.25,0,0,1-1.69-.64,2.32,2.32,0,0,1-.64-1.73,2.62,2.62,0,0,1,.3-1.27,2.27,2.27,0,0,1,.81-.87,4.54,4.54,0,0,1,1.57-.46,9,9,0,0,0,2.06-.49v-.36a1.79,1.79,0,0,0-.31-1.19,1.63,1.63,0,0,0-1.32-.5,1.83,1.83,0,0,0-1.2.33,2.18,2.18,0,0,0-.59,1.25l-1.13-.19a3.12,3.12,0,0,1,1-1.94,3.22,3.22,0,0,1,2.11-.61,3,3,0,0,1,1.68.4,1.69,1.69,0,0,1,.77,1,6.87,6.87,0,0,1,.16,1.73v1.88a23.12,23.12,0,0,0,.08,2.48,3.51,3.51,0,0,0,.29,1h-1.2A3.48,3.48,0,0,1,855.6,280.75Zm-.09-3.14a7,7,0,0,1-1.89.53,3.28,3.28,0,0,0-1,.29,1.08,1.08,0,0,0-.45.45,1.33,1.33,0,0,0-.16.67,1.23,1.23,0,0,0,.37.95,1.37,1.37,0,0,0,1,.36,2.06,2.06,0,0,0,1.12-.32,2,2,0,0,0,.76-.86,3.88,3.88,0,0,0,.25-1.56Z"/><path class="cls-4" d="M862.92,278.73l1.13.18a3.76,3.76,0,0,1-1,2.27,2.57,2.57,0,0,1-1.88.78,2.68,2.68,0,0,1-2.2-1.1,6.45,6.45,0,0,1,0-6.49,2.73,2.73,0,0,1,2.23-1.08A2.53,2.53,0,0,1,863,274a3.23,3.23,0,0,1,.93,2l-1.12.21a2.47,2.47,0,0,0-.57-1.26,1.31,1.31,0,0,0-1-.41,1.71,1.71,0,0,0-1.41.75,4.06,4.06,0,0,0-.56,2.39,4.35,4.35,0,0,0,.54,2.46,1.62,1.62,0,0,0,1.37.75,1.45,1.45,0,0,0,1.12-.5A2.74,2.74,0,0,0,862.92,278.73Z"/><path class="cls-4" d="M869.68,279.1l1.19.18a3.65,3.65,0,0,1-1.08,2,2.83,2.83,0,0,1-1.92.67,2.86,2.86,0,0,1-2.34-1.1,4.86,4.86,0,0,1-.9-3.16,5.09,5.09,0,0,1,.91-3.28,2.8,2.8,0,0,1,2.28-1.13,2.71,2.71,0,0,1,2.2,1.11,5.05,5.05,0,0,1,.89,3.21V278h-5.08a3.55,3.55,0,0,0,.65,2.11,1.72,1.72,0,0,0,1.41.71C868.74,280.8,869.34,280.24,869.68,279.1Zm-3.79-2.27h3.8a3.18,3.18,0,0,0-.46-1.61,1.66,1.66,0,0,0-1.42-.77,1.68,1.68,0,0,0-1.32.64A2.88,2.88,0,0,0,865.89,276.83Z"/><path class="cls-4" d="M872.66,281.77v-1.6H874v1.6a3.11,3.11,0,0,1-.28,1.46,1.93,1.93,0,0,1-.79.81l-.32-.6a1.25,1.25,0,0,0,.53-.56,2.81,2.81,0,0,0,.19-1.11Z"/><path class="cls-4" d="M741.7,300c.86,0,1.46-.56,1.8-1.7l1.19.18a3.65,3.65,0,0,1-1.08,2,3.06,3.06,0,0,1-4.26-.43,4.86,4.86,0,0,1-.9-3.16,5.09,5.09,0,0,1,.91-3.28,2.8,2.8,0,0,1,2.28-1.13,2.69,2.69,0,0,1,2.2,1.11,5.05,5.05,0,0,1,.89,3.21v.37h-5.08a3.55,3.55,0,0,0,.65,2.11,1.72,1.72,0,0,0,1.41.71Zm-2-4h3.8a3.18,3.18,0,0,0-.46-1.61,1.66,1.66,0,0,0-1.42-.77,1.68,1.68,0,0,0-1.32.64A2.88,2.88,0,0,0,739.71,296Zm6.76,4.94v-7.2h-1v-1.09h1v-.89a4.1,4.1,0,0,1,.2-1.46,1.54,1.54,0,0,1,.62-.75,2,2,0,0,1,1.06-.26,4.37,4.37,0,0,1,1.08.15l-.17,1.22a3.39,3.39,0,0,0-.68-.08.9.9,0,0,0-.74.27,1.71,1.71,0,0,0-.22,1v.77h1.32v1.09h-1.32V301Zm3.64,0v-7.2h-1v-1.09h1v-.81a3.14,3.14,0,0,1,.48-1.95,1.62,1.62,0,0,1,1.33-.6,3.68,3.68,0,0,1,1.17.18l-.18,1.19a3.57,3.57,0,0,0-.62-.07,1,1,0,0,0-.81.29,2.22,2.22,0,0,0-.22,1.23v.54h1.32v1.09h-1.32V301Zm3.33-9.83v-1.62h1.15v1.62Zm0,9.83v-8.29h1.15V301Zm7.37-3,1.13.18a3.82,3.82,0,0,1-1,2.27,2.57,2.57,0,0,1-1.89.78,2.64,2.64,0,0,1-2.19-1.1,6.49,6.49,0,0,1,0-6.49,2.75,2.75,0,0,1,2.24-1.08,2.55,2.55,0,0,1,1.78.66,3.17,3.17,0,0,1,.92,2l-1.11.21a2.47,2.47,0,0,0-.57-1.26,1.31,1.31,0,0,0-1-.41,1.69,1.69,0,0,0-1.41.75,4.06,4.06,0,0,0-.56,2.39,4.35,4.35,0,0,0,.54,2.46,1.61,1.61,0,0,0,1.37.75,1.45,1.45,0,0,0,1.12-.5A2.74,2.74,0,0,0,760.81,297.93Zm2.11-6.79v-1.62h1.14v1.62Zm0,9.83v-8.29h1.14V301Zm5.75-1c.87,0,1.47-.56,1.81-1.7l1.18.18a3.58,3.58,0,0,1-1.07,2,3.07,3.07,0,0,1-4.27-.43,4.92,4.92,0,0,1-.89-3.16,5.15,5.15,0,0,1,.9-3.28,2.81,2.81,0,0,1,2.29-1.13,2.71,2.71,0,0,1,2.2,1.11,5.05,5.05,0,0,1,.88,3.21v.37h-5.07a3.48,3.48,0,0,0,.65,2.11,1.72,1.72,0,0,0,1.4.71Zm-2-4h3.79a3.08,3.08,0,0,0-.46-1.61,1.68,1.68,0,0,0-2.73-.13A2.76,2.76,0,0,0,766.69,296Zm6.43,4.94v-8.29h1v1.17a2.63,2.63,0,0,1,.92-1,2.24,2.24,0,0,1,1.24-.34,2.4,2.4,0,0,1,1,.21,2.08,2.08,0,0,1,.75.57,2.36,2.36,0,0,1,.43.9,7.77,7.77,0,0,1,.14,1.7V301H777.5v-5.05a4,4,0,0,0-.16-1.34,1.25,1.25,0,0,0-.49-.65,1.32,1.32,0,0,0-.77-.23,1.61,1.61,0,0,0-1.32.62,3.53,3.53,0,0,0-.49,2.12V301Zm9.35-1.2a3.92,3.92,0,0,0,.51,0l.16,1.24a3.61,3.61,0,0,1-.86.12,1.74,1.74,0,0,1-1-.24,1.17,1.17,0,0,1-.5-.65,5.86,5.86,0,0,1-.14-1.65v-4.77h-.84v-1.09h.84v-2.06l1.15-.84v2.9H783v1.09h-1.16v4.85a2.26,2.26,0,0,0,.1.87.56.56,0,0,0,.55.28ZM784,301V289.52h1.15V301Zm3.65,3.37a2.05,2.05,0,0,1-.74-.17l-.12-1.32a2.2,2.2,0,0,0,.65.12,1.13,1.13,0,0,0,.61-.15,1,1,0,0,0,.39-.46c0-.07.19-.53.46-1.37l-2.59-8.31h1.24l1.42,4.8c.18.6.34,1.24.5,1.92.13-.65.28-1.28.46-1.89l1.46-4.83h1.15L790,301.11a14.66,14.66,0,0,1-.8,2.2,2.23,2.23,0,0,1-.66.79,1.53,1.53,0,0,1-.85.24Zm9.51-.19V292.68h1.06v1.07a2.66,2.66,0,0,1,.87-1,2,2,0,0,1,1.09-.3,2.38,2.38,0,0,1,1.45.48,3.22,3.22,0,0,1,1,1.44,6.3,6.3,0,0,1,.39,2.34,5.26,5.26,0,0,1-.88,3.27,2.6,2.6,0,0,1-2.09,1.14,1.94,1.94,0,0,1-1-.27,2.44,2.44,0,0,1-.79-.78v4Zm1-7.28a4.14,4.14,0,0,0,.53,2.37,1.47,1.47,0,0,0,2.59,0,4.3,4.3,0,0,0,.55-2.44,4.37,4.37,0,0,0-.53-2.41,1.43,1.43,0,0,0-2.58.06A4.42,4.42,0,0,0,798.24,296.87Zm5.81-.05a5,5,0,0,1,.9-3.24,2.93,2.93,0,0,1,4.56,0,4.8,4.8,0,0,1,.91,3.16,5.17,5.17,0,0,1-.9,3.33,2.83,2.83,0,0,1-2.29,1.09,2.8,2.8,0,0,1-2.27-1.1A5,5,0,0,1,804.05,296.82Zm1.18,0a4,4,0,0,0,.58,2.4,1.76,1.76,0,0,0,1.45.78,1.69,1.69,0,0,0,1.4-.79,5.21,5.21,0,0,0,0-4.78,1.78,1.78,0,0,0-1.46-.78,1.7,1.7,0,0,0-1.4.79A4.05,4.05,0,0,0,805.23,296.82Zm6.55-5.68v-1.62h1.15v1.62Zm0,9.83v-8.29h1.15V301Zm2.91,0v-8.29h1v1.17a2.63,2.63,0,0,1,.92-1,2.24,2.24,0,0,1,1.24-.34,2.44,2.44,0,0,1,1,.21,2.08,2.08,0,0,1,.75.57,2.21,2.21,0,0,1,.42.9,7.19,7.19,0,0,1,.14,1.7V301h-1.14v-5.05a4.32,4.32,0,0,0-.16-1.34,1.3,1.3,0,0,0-.49-.65,1.34,1.34,0,0,0-.77-.23,1.61,1.61,0,0,0-1.32.62,3.46,3.46,0,0,0-.49,2.12V301Zm9.35-1.2a3.92,3.92,0,0,0,.51,0l.16,1.24a3.61,3.61,0,0,1-.86.12,1.74,1.74,0,0,1-1-.24,1.18,1.18,0,0,1-.51-.65,6.43,6.43,0,0,1-.13-1.65v-4.77h-.85v-1.09h.85v-2.06l1.15-.84v2.9h1.16v1.09h-1.16v4.85a2.26,2.26,0,0,0,.1.87.56.56,0,0,0,.55.28Zm1.6-8.63v-1.62h1.14v1.62Zm0,9.83v-8.29h1.14V301Zm2.91,0v-8.29h1v1.17a2.61,2.61,0,0,1,.91-1,2.28,2.28,0,0,1,1.25-.34,2.44,2.44,0,0,1,1,.21,2.08,2.08,0,0,1,.75.57,2.21,2.21,0,0,1,.42.9,7.77,7.77,0,0,1,.14,1.7V301h-1.15v-5.05a4.39,4.39,0,0,0-.15-1.34,1.36,1.36,0,0,0-.49-.65,1.34,1.34,0,0,0-.77-.23,1.61,1.61,0,0,0-1.32.62,3.46,3.46,0,0,0-.49,2.12V301Zm7.07.69,1.12.2a1.46,1.46,0,0,0,.47,1,1.63,1.63,0,0,0,1.09.32,1.69,1.69,0,0,0,1.82-1.44,11.24,11.24,0,0,0,.1-1.85,2.6,2.6,0,0,1-.85.81,2,2,0,0,1-1,.27,2.47,2.47,0,0,1-2-1,5.07,5.07,0,0,1-.92-3.18,6.14,6.14,0,0,1,.41-2.33,3.19,3.19,0,0,1,1.06-1.47,2.53,2.53,0,0,1,1.48-.47,2.18,2.18,0,0,1,1.1.29,2.87,2.87,0,0,1,.88.89v-1h1.06v7.17a8.43,8.43,0,0,1-.31,2.73,2.71,2.71,0,0,1-1,1.29,3.09,3.09,0,0,1-1.71.47,2.8,2.8,0,0,1-2-.71A2.58,2.58,0,0,1,835.62,301.66Zm1-5a4.18,4.18,0,0,0,.54,2.39,1.59,1.59,0,0,0,1.32.75,1.62,1.62,0,0,0,1.33-.74,3.92,3.92,0,0,0,.55-2.34,4,4,0,0,0-.56-2.33,1.66,1.66,0,0,0-1.37-.76,1.56,1.56,0,0,0-1.27.76A3.92,3.92,0,0,0,836.57,296.68Z"/><path class="cls-4" d="M741.41,318.92l.16,1.24a3.54,3.54,0,0,1-.86.12,1.76,1.76,0,0,1-1-.24,1.17,1.17,0,0,1-.5-.65,6.29,6.29,0,0,1-.14-1.65V313h-.84v-1.09h.84v-2.06l1.15-.84v2.9h1.16V313h-1.16v4.85a2.26,2.26,0,0,0,.1.87.57.57,0,0,0,.56.28A3.64,3.64,0,0,0,741.41,318.92Z"/><path class="cls-4" d="M742.06,316a5,5,0,0,1,.9-3.25,2.93,2.93,0,0,1,4.56,0,4.8,4.8,0,0,1,.92,3.16,5.17,5.17,0,0,1-.9,3.33,2.93,2.93,0,0,1-4.57,0A5,5,0,0,1,742.06,316Zm1.18,0a4,4,0,0,0,.59,2.4,1.76,1.76,0,0,0,1.45.79,1.72,1.72,0,0,0,1.4-.8,4.11,4.11,0,0,0,.58-2.39,4,4,0,0,0-.59-2.39,1.75,1.75,0,0,0-1.45-.78,1.69,1.69,0,0,0-1.4.79A4,4,0,0,0,743.24,316Z"/><path class="cls-4" d="M751.05,320.17,749,311.88h1.19l1.09,4.79.4,1.78.36-1.71,1.08-4.86h1.19l1,4.81.34,1.59.39-1.61,1.16-4.79h1.13l-2.13,8.29H755l-1.08-5-.26-1.42-1.38,6.38Z"/><path class="cls-4" d="M763.7,319.15a4.52,4.52,0,0,1-1.21.91,2.94,2.94,0,0,1-1.29.3,2.27,2.27,0,0,1-1.7-.64,2.36,2.36,0,0,1-.63-1.73,2.73,2.73,0,0,1,.29-1.27,2.22,2.22,0,0,1,.82-.87,4.4,4.4,0,0,1,1.56-.46,8.87,8.87,0,0,0,2.06-.49v-.36a1.75,1.75,0,0,0-.31-1.19,1.61,1.61,0,0,0-1.32-.5,1.87,1.87,0,0,0-1.2.33,2.18,2.18,0,0,0-.58,1.25l-1.14-.19a3.15,3.15,0,0,1,1-1.94,3.25,3.25,0,0,1,2.12-.61,3,3,0,0,1,1.68.4,1.77,1.77,0,0,1,.77,1,7.37,7.37,0,0,1,.16,1.73v1.88a24.27,24.27,0,0,0,.07,2.48,3.87,3.87,0,0,0,.29,1h-1.2A3.2,3.2,0,0,1,763.7,319.15Zm-.1-3.14a7,7,0,0,1-1.88.53,3.36,3.36,0,0,0-1,.29,1.08,1.08,0,0,0-.45.45,1.45,1.45,0,0,0-.16.68,1.26,1.26,0,0,0,.37.94,1.4,1.4,0,0,0,1,.36,2.09,2.09,0,0,0,1.12-.32,2,2,0,0,0,.75-.86,3.7,3.7,0,0,0,.25-1.55Z"/><path class="cls-4" d="M766.56,320.17v-8.29h1v1.25a3.8,3.8,0,0,1,.73-1.16,1.11,1.11,0,0,1,.75-.28,2,2,0,0,1,1.18.45l-.39,1.31a1.43,1.43,0,0,0-.84-.31,1,1,0,0,0-.67.26,1.37,1.37,0,0,0-.43.72,6.36,6.36,0,0,0-.22,1.71v4.34Z"/><path class="cls-4" d="M775.34,320.17v-1a2.33,2.33,0,0,1-.81.91,1.86,1.86,0,0,1-1.06.32,2.57,2.57,0,0,1-2.08-1.14,5.07,5.07,0,0,1-.88-3.19,6.48,6.48,0,0,1,.39-2.4,3.11,3.11,0,0,1,1-1.46,2.38,2.38,0,0,1,1.45-.48,1.94,1.94,0,0,1,1.05.3,2.33,2.33,0,0,1,.81.84v-4.11h1.16v11.45ZM771.69,316a4.05,4.05,0,0,0,.56,2.39,1.59,1.59,0,0,0,1.3.79,1.55,1.55,0,0,0,1.27-.75,3.9,3.9,0,0,0,.54-2.27,4.63,4.63,0,0,0-.54-2.54,1.58,1.58,0,0,0-1.36-.8,1.49,1.49,0,0,0-1.25.77A4.33,4.33,0,0,0,771.69,316Z"/><path class="cls-4" d="M777.78,317.69l1.15-.22a2.09,2.09,0,0,0,.55,1.31,1.69,1.69,0,0,0,1.2.43,1.65,1.65,0,0,0,1.16-.38,1.21,1.21,0,0,0,.41-.94.91.91,0,0,0-.35-.76,4.27,4.27,0,0,0-1.17-.47,8.84,8.84,0,0,1-1.8-.7,2,2,0,0,1-.7-.78,2.54,2.54,0,0,1,.43-2.83,2.58,2.58,0,0,1,1.88-.66,3.1,3.1,0,0,1,1.33.27,2.16,2.16,0,0,1,.88.74,3.2,3.2,0,0,1,.42,1.32l-1.12.19a1.35,1.35,0,0,0-1.48-1.36,1.76,1.76,0,0,0-1.12.3.93.93,0,0,0-.36.76.82.82,0,0,0,.35.72,5.38,5.38,0,0,0,1.25.5,9.9,9.9,0,0,1,1.85.73,1.87,1.87,0,0,1,.66.73,2.53,2.53,0,0,1,.23,1.11,2.61,2.61,0,0,1-.75,1.93,2.84,2.84,0,0,1-2.06.73C779,320.36,778,319.47,777.78,317.69Z"/><path class="cls-4" d="M791,318.92l.16,1.24a3.61,3.61,0,0,1-.86.12,1.74,1.74,0,0,1-1-.24,1.18,1.18,0,0,1-.51-.65,6.43,6.43,0,0,1-.13-1.65V313h-.85v-1.09h.85v-2.06l1.15-.84v2.9H791V313h-1.16v4.85a2.26,2.26,0,0,0,.1.87.56.56,0,0,0,.55.28A3.92,3.92,0,0,0,791,318.92Z"/><path class="cls-4" d="M792.09,320.17V308.72h1.14v4.11a3,3,0,0,1,.92-.86,2.28,2.28,0,0,1,1.13-.28,2.22,2.22,0,0,1,1.72.69,3.84,3.84,0,0,1,.62,2.54v5.25h-1.14v-5.25a2.43,2.43,0,0,0-.39-1.55,1.28,1.28,0,0,0-1.05-.47,1.64,1.64,0,0,0-1.28.6,3.28,3.28,0,0,0-.53,2.13v4.54Z"/><path class="cls-4" d="M804,317.5l1.19.18a3.61,3.61,0,0,1-1.08,2,2.81,2.81,0,0,1-1.92.67,2.85,2.85,0,0,1-2.34-1.1,4.86,4.86,0,0,1-.9-3.16,5.15,5.15,0,0,1,.91-3.28,2.8,2.8,0,0,1,2.28-1.13,2.72,2.72,0,0,1,2.21,1.11,5.11,5.11,0,0,1,.88,3.21v.37h-5.08a3.55,3.55,0,0,0,.65,2.11,1.75,1.75,0,0,0,1.41.72Q803.52,319.21,804,317.5Zm-3.79-2.27H804a3.18,3.18,0,0,0-.46-1.61,1.66,1.66,0,0,0-1.42-.77,1.68,1.68,0,0,0-1.32.64A2.88,2.88,0,0,0,800.24,315.23Z"/><path class="cls-4" d="M810.65,320.17V313h-1v-1.09h1V311a4.1,4.1,0,0,1,.2-1.46,1.65,1.65,0,0,1,.62-.75,2,2,0,0,1,1.06-.25,4.85,4.85,0,0,1,1.08.14l-.17,1.22a3.39,3.39,0,0,0-.68-.08.9.9,0,0,0-.74.27,1.71,1.71,0,0,0-.22,1v.77h1.32V313H811.8v7.2Z"/><path class="cls-4" d="M818.43,320.17V319a3,3,0,0,1-.94,1.05,2.35,2.35,0,0,1-2.59-.08,2,2,0,0,1-.76-1.1A6.71,6.71,0,0,1,814,317v-5.14h1.14v4.6a7.58,7.58,0,0,0,.13,1.71,1.38,1.38,0,0,0,.48.7,1.31,1.31,0,0,0,.79.26,1.66,1.66,0,0,0,1.36-.68,3.71,3.71,0,0,0,.45-2.15v-4.44h1.16v8.29Z"/><path class="cls-4" d="M823.84,318.92l.15,1.24a3.54,3.54,0,0,1-.86.12,1.76,1.76,0,0,1-1-.24,1.17,1.17,0,0,1-.5-.65,6.29,6.29,0,0,1-.14-1.65V313h-.84v-1.09h.84v-2.06l1.15-.84v2.9h1.17V313h-1.17v4.85a2.49,2.49,0,0,0,.1.87.57.57,0,0,0,.56.28A3.92,3.92,0,0,0,823.84,318.92Z"/><path class="cls-4" d="M829.38,320.17V319a3,3,0,0,1-.94,1.05,2.23,2.23,0,0,1-1.22.35,2.2,2.2,0,0,1-1.38-.43,2.1,2.1,0,0,1-.76-1.1,6.71,6.71,0,0,1-.19-1.81v-5.14H826v4.6a7,7,0,0,0,.13,1.71,1.31,1.31,0,0,0,.47.7,1.34,1.34,0,0,0,.8.26,1.67,1.67,0,0,0,1.36-.68,3.71,3.71,0,0,0,.45-2.15v-4.44h1.16v8.29Z"/><path class="cls-4" d="M832.22,320.17v-8.29h1v1.25A3.62,3.62,0,0,1,834,312a1.1,1.1,0,0,1,.74-.28,2,2,0,0,1,1.18.45l-.39,1.31a1.38,1.38,0,0,0-.83-.31,1,1,0,0,0-.67.26,1.31,1.31,0,0,0-.43.72,6.36,6.36,0,0,0-.22,1.71v4.34Z"/><path class="cls-4" d="M841.23,317.5l1.19.18a3.6,3.6,0,0,1-1.07,2,3.07,3.07,0,0,1-4.27-.43,4.92,4.92,0,0,1-.89-3.16,5.15,5.15,0,0,1,.9-3.28,2.81,2.81,0,0,1,2.29-1.13,2.72,2.72,0,0,1,2.2,1.11,5.05,5.05,0,0,1,.88,3.21v.37h-5.07a3.55,3.55,0,0,0,.64,2.11,1.76,1.76,0,0,0,1.41.72C840.29,319.21,840.9,318.64,841.23,317.5Zm-3.78-2.27h3.79a3.08,3.08,0,0,0-.46-1.61,1.68,1.68,0,0,0-2.73-.13A2.76,2.76,0,0,0,837.45,315.23Z"/><path class="cls-4" d="M844.24,320.17v-1.6h1.31v1.6Z"/><path class="cls-4" d="M918.7,276.76v-1.3l6.22-3.22v1.4L920,276.11l4.93,2.5V280Z"/><path class="cls-4" d="M925.66,282l2.72-11.84h.94L926.59,282Z"/><path class="cls-4" d="M929.72,279.29l1.15-.22a2,2,0,0,0,.55,1.31,1.69,1.69,0,0,0,1.2.42,1.65,1.65,0,0,0,1.16-.37,1.21,1.21,0,0,0,.41-.94.91.91,0,0,0-.35-.76,4.55,4.55,0,0,0-1.18-.47,8.23,8.23,0,0,1-1.79-.71,2,2,0,0,1-.71-.77,2.44,2.44,0,0,1-.25-1.1,2.34,2.34,0,0,1,.68-1.73,2.61,2.61,0,0,1,1.89-.66,3.1,3.1,0,0,1,1.33.27,2.22,2.22,0,0,1,.88.74,3.2,3.2,0,0,1,.42,1.32l-1.13.18a1.34,1.34,0,0,0-1.47-1.35,1.7,1.7,0,0,0-1.12.3.94.94,0,0,0-.37.76.83.83,0,0,0,.36.72,5.66,5.66,0,0,0,1.25.5,9.9,9.9,0,0,1,1.85.73,1.77,1.77,0,0,1,.65.73,2.39,2.39,0,0,1,.24,1.11,2.58,2.58,0,0,1-.76,1.93,2.82,2.82,0,0,1-2.06.73C930.92,282,930,281.07,929.72,279.29Z"/><path class="cls-4" d="M938.63,281.77,936,273.48h1.22l1.46,5c.17.56.32,1.12.44,1.67.1-.44.24-1,.42-1.58l1.52-5.06h1.19l-2.59,8.29Z"/><path class="cls-4" d="M943.06,282.46l1.13.2a1.46,1.46,0,0,0,.47,1,1.62,1.62,0,0,0,1.08.32,1.88,1.88,0,0,0,1.21-.36,1.85,1.85,0,0,0,.61-1.08,10.12,10.12,0,0,0,.1-1.84,2.75,2.75,0,0,1-.84.8,2,2,0,0,1-1,.27,2.45,2.45,0,0,1-2-1,5,5,0,0,1-.92-3.18,6.15,6.15,0,0,1,.4-2.33,3.2,3.2,0,0,1,1.07-1.47,2.51,2.51,0,0,1,1.48-.47,2.18,2.18,0,0,1,1.1.29,2.87,2.87,0,0,1,.88.89v-1h1.06v7.17a8.72,8.72,0,0,1-.31,2.73,2.67,2.67,0,0,1-1,1.29,3,3,0,0,1-1.71.47,2.76,2.76,0,0,1-2-.71A2.62,2.62,0,0,1,943.06,282.46Zm1-5a4.18,4.18,0,0,0,.54,2.39,1.59,1.59,0,0,0,1.32.75,1.63,1.63,0,0,0,1.33-.74,5.15,5.15,0,0,0,0-4.67,1.64,1.64,0,0,0-1.37-.76,1.53,1.53,0,0,0-1.26.76A3.92,3.92,0,0,0,944,277.48Z"/><path class="cls-4" d="M956.66,276.76,950.44,280v-1.4l4.93-2.5-4.93-2.47v-1.4l6.22,3.22Z"/><path class="cls-4" d="M742.87,533.65h-1.16v-9a5.74,5.74,0,0,1-1.07.95,6.55,6.55,0,0,1-1.23.74V525a7.25,7.25,0,0,0,1.68-1.33,5.11,5.11,0,0,0,1-1.54h.75Z"/><path class="cls-4" d="M745.82,528a9.67,9.67,0,0,1,.78-4.37,2.46,2.46,0,0,1,2.29-1.48,2.4,2.4,0,0,1,2.12,1.2A8.89,8.89,0,0,1,752,528a9.68,9.68,0,0,1-.78,4.36,2.45,2.45,0,0,1-2.29,1.48,2.53,2.53,0,0,1-2.2-1.31A8.72,8.72,0,0,1,745.82,528Zm1.18,0a8.61,8.61,0,0,0,.54,3.74,1.56,1.56,0,0,0,1.37,1,1.53,1.53,0,0,0,1.32-1,13.22,13.22,0,0,0,0-7.48,1.59,1.59,0,0,0-1.39-1,1.52,1.52,0,0,0-1.31,1A8.78,8.78,0,0,0,747,528Z"/><path class="cls-4" d="M753.2,523.7v-1.36h6.07v1.1a16.71,16.71,0,0,0-2.39,4.6,19.23,19.23,0,0,0-1.19,5.61h-1.18a16.77,16.77,0,0,1,.45-3.35,20.52,20.52,0,0,1,1.19-3.65,16.41,16.41,0,0,1,1.63-2.95Z"/><g class="cls-2"><path class="cls-3" d="M266.24,586.74l-2.6,1.79,22.79-5.94a227.67,227.67,0,0,0,81.81-41.45"/></g><polyline class="cls-3" points="191.55 730.57 195.55 731.64 212.24 733.58 217.55 689.34 217.55 687.84 240.14 690.54 246.44 691.58 257.24 692.64 272.54 694.44 288.74 696.24 293.84 697.74 295.64 692.94 304.04 614.64 305.54 599.64 307.94 580.44 310.04 559.58 310.94 549.58 312.44 539.58 312.44 533.94 280.87 529.74 278.54 529.14 249.74 526.14"/></g></svg>