<svg id="Layer_1" data-name="Layer 1" xmlns="http://www.w3.org/2000/svg" xmlns:xlink="http://www.w3.org/1999/xlink" viewBox="0 0 1080 756"><defs><style>.cls-1,.cls-3{fill:none;}.cls-2{clip-path:url(#clip-path);}.cls-3{stroke:#231f20;stroke-width:0.25px;}.cls-4{fill:#231f20;}</style><clipPath id="clip-path"><rect class="cls-1" width="1080" height="756"/></clipPath></defs><title>Untitled-3</title><g class="cls-2"><g class="cls-2"><line class="cls-3" x1="180" y1="-18.36" x2="180" y2="790.92"/><line class="cls-3" x1="720" y1="-20.88" x2="720" y2="788.4"/><line class="cls-3" x1="359.88" y1="-18.36" x2="359.88" y2="790.92"/><line class="cls-3" x1="899.87" y1="-20.88" x2="899.87" y2="788.4"/><line class="cls-3" x1="-16.92" y1="251.88" x2="1101.6" y2="251.88"/><line class="cls-3" x1="-11.52" y1="504.13" x2="1107" y2="504.13"/><line class="cls-3" x1="540" y1="-19.44" x2="540" y2="789.84"/></g><path class="cls-4" d="M378.85,284.83V273.35h1.06v1.08a2.7,2.7,0,0,1,.87-1,2,2,0,0,1,1.09-.3,2.36,2.36,0,0,1,1.45.48,3.26,3.26,0,0,1,1,1.45,6.09,6.09,0,0,1,.4,2.34,5.23,5.23,0,0,1-.89,3.26,2.59,2.59,0,0,1-2.08,1.15,1.81,1.81,0,0,1-1-.28,2.44,2.44,0,0,1-.8-.77v4Zm1-7.28a4.15,4.15,0,0,0,.54,2.37,1.56,1.56,0,0,0,1.3.76,1.54,1.54,0,0,0,1.28-.79,5.6,5.6,0,0,0,0-4.84,1.42,1.42,0,0,0-2.57.06A4.33,4.33,0,0,0,379.9,277.55Z"/><path class="cls-4" d="M390.8,279l1.18.18a3.55,3.55,0,0,1-1.07,2,2.84,2.84,0,0,1-1.93.68,2.89,2.89,0,0,1-2.34-1.1,5,5,0,0,1-.89-3.17,5.19,5.19,0,0,1,.9-3.28,2.82,2.82,0,0,1,2.29-1.13,2.71,2.71,0,0,1,2.2,1.11,5.05,5.05,0,0,1,.88,3.21v.38h-5.08a3.5,3.5,0,0,0,.65,2.11,1.75,1.75,0,0,0,1.4.71C389.86,280.68,390.46,280.11,390.8,279ZM387,276.7h3.79a3.11,3.11,0,0,0-.46-1.61,1.68,1.68,0,0,0-2.73-.13A2.82,2.82,0,0,0,387,276.7Z"/><path class="cls-4" d="M393.45,281.65v-8.3h1v1.26a3.67,3.67,0,0,1,.73-1.16,1.14,1.14,0,0,1,.75-.29,2,2,0,0,1,1.18.46l-.39,1.3a1.49,1.49,0,0,0-.84-.3,1,1,0,0,0-.67.26,1.45,1.45,0,0,0-.43.71,6.79,6.79,0,0,0-.22,1.71v4.35Z"/><path class="cls-4" d="M397.37,279.16l1.15-.21a2,2,0,0,0,.55,1.3,1.94,1.94,0,0,0,2.36.06,1.23,1.23,0,0,0,.41-.94.91.91,0,0,0-.36-.77,4.64,4.64,0,0,0-1.17-.47,8.35,8.35,0,0,1-1.79-.7,2,2,0,0,1-.71-.77,2.48,2.48,0,0,1-.25-1.11,2.31,2.31,0,0,1,.68-1.72,2.6,2.6,0,0,1,1.88-.67,3,3,0,0,1,1.34.28,2.13,2.13,0,0,1,.88.73,3.3,3.3,0,0,1,.42,1.32l-1.13.19a1.34,1.34,0,0,0-1.47-1.36,1.74,1.74,0,0,0-1.12.3.94.94,0,0,0-.37.77.87.87,0,0,0,.35.72,6.77,6.77,0,0,0,1.26.5,9.4,9.4,0,0,1,1.85.72,1.8,1.8,0,0,1,.65.74,2.38,2.38,0,0,1,.24,1.1,2.58,2.58,0,0,1-.76,1.93,2.82,2.82,0,0,1-2.06.74C398.57,281.84,397.63,281,397.37,279.16Z"/><path class="cls-4" d="M404.38,284.83V273.35h1.06v1.08a2.77,2.77,0,0,1,.86-1,2,2,0,0,1,1.1-.3,2.4,2.4,0,0,1,1.45.48,3.34,3.34,0,0,1,1,1.45,6.3,6.3,0,0,1,.39,2.34,5.16,5.16,0,0,1-.89,3.26,2.59,2.59,0,0,1-2.08,1.15,1.86,1.86,0,0,1-1-.28,2.54,2.54,0,0,1-.8-.77v4Zm1-7.28a4.15,4.15,0,0,0,.54,2.37,1.47,1.47,0,0,0,2.59,0,5.65,5.65,0,0,0,0-4.84,1.55,1.55,0,0,0-1.31-.78,1.57,1.57,0,0,0-1.26.84A4.33,4.33,0,0,0,405.42,277.55Z"/><path class="cls-4" d="M416.32,279l1.19.18a3.62,3.62,0,0,1-1.08,2,2.82,2.82,0,0,1-1.92.68,2.86,2.86,0,0,1-2.34-1.1,4.89,4.89,0,0,1-.9-3.17,5.13,5.13,0,0,1,.91-3.28,2.8,2.8,0,0,1,2.28-1.13,2.69,2.69,0,0,1,2.2,1.11,5.05,5.05,0,0,1,.89,3.21v.38h-5.08a3.57,3.57,0,0,0,.65,2.11,1.77,1.77,0,0,0,1.41.71C415.38,280.68,416,280.11,416.32,279Zm-3.79-2.28h3.8a3.21,3.21,0,0,0-.46-1.61,1.69,1.69,0,0,0-1.42-.77,1.72,1.72,0,0,0-1.32.64A2.88,2.88,0,0,0,412.53,276.7Z"/><path class="cls-4" d="M423.42,278.61l1.13.18a3.73,3.73,0,0,1-1,2.26,2.54,2.54,0,0,1-1.88.79,2.68,2.68,0,0,1-2.2-1.1,5.16,5.16,0,0,1-.87-3.25,5.09,5.09,0,0,1,.88-3.24,2.71,2.71,0,0,1,2.23-1.09,2.53,2.53,0,0,1,1.78.66,3.26,3.26,0,0,1,.93,2l-1.12.2a2.39,2.39,0,0,0-.57-1.25,1.32,1.32,0,0,0-1-.42,1.71,1.71,0,0,0-1.41.75,4.12,4.12,0,0,0-.56,2.4,4.29,4.29,0,0,0,.54,2.45,1.61,1.61,0,0,0,1.37.76,1.48,1.48,0,0,0,1.12-.5A2.74,2.74,0,0,0,423.42,278.61Z"/><path class="cls-4" d="M428.09,280.39l.16,1.24a3.15,3.15,0,0,1-.86.13,1.76,1.76,0,0,1-1-.24,1.24,1.24,0,0,1-.5-.65,6.39,6.39,0,0,1-.14-1.65v-4.77h-.84v-1.1h.84V271.3l1.15-.85v2.9h1.16v1.1h-1.16v4.85a2.2,2.2,0,0,0,.1.86.58.58,0,0,0,.56.29A2.67,2.67,0,0,0,428.09,280.39Z"/><path class="cls-4" d="M429.18,271.81V270.2h1.15v1.61Zm0,9.84v-8.3h1.15v8.3Z"/><path class="cls-4" d="M434,281.65l-2.58-8.3h1.21l1.47,5c.17.56.31,1.12.44,1.67.1-.44.24-1,.42-1.58l1.52-5.06h1.19l-2.59,8.3Z"/><path class="cls-4" d="M443.3,279l1.19.18a3.61,3.61,0,0,1-1.07,2,2.84,2.84,0,0,1-1.93.68,2.89,2.89,0,0,1-2.34-1.1,5,5,0,0,1-.89-3.17,5.19,5.19,0,0,1,.9-3.28,2.81,2.81,0,0,1,2.29-1.13,2.71,2.71,0,0,1,2.2,1.11,5.05,5.05,0,0,1,.88,3.21v.38h-5.07a3.57,3.57,0,0,0,.64,2.11,1.78,1.78,0,0,0,1.41.71C442.36,280.68,443,280.11,443.3,279Zm-3.78-2.28h3.79a3.11,3.11,0,0,0-.46-1.61,1.68,1.68,0,0,0-2.73-.13A2.76,2.76,0,0,0,439.52,276.7Z"/><path class="cls-4" d="M445.52,278.21V276.8h3.53v1.41Z"/><path class="cls-4" d="M449.88,277.5a5,5,0,0,1,.91-3.24,2.9,2.9,0,0,1,4.55,0,4.79,4.79,0,0,1,.92,3.15,5.17,5.17,0,0,1-.9,3.33,2.92,2.92,0,0,1-4.57,0A5,5,0,0,1,449.88,277.5Zm1.18,0a4,4,0,0,0,.59,2.39,1.74,1.74,0,0,0,1.45.79,1.7,1.7,0,0,0,1.4-.79,4.11,4.11,0,0,0,.58-2.39,4,4,0,0,0-.59-2.39,1.74,1.74,0,0,0-1.45-.79,1.69,1.69,0,0,0-1.4.79A4,4,0,0,0,451.06,277.5Z"/><path class="cls-4" d="M457.62,281.65v-8.3h1v1.26a3.5,3.5,0,0,1,.73-1.16,1.12,1.12,0,0,1,.74-.29,2,2,0,0,1,1.18.46l-.39,1.3a1.43,1.43,0,0,0-.83-.3,1,1,0,0,0-.68.26,1.45,1.45,0,0,0-.43.71,6.79,6.79,0,0,0-.21,1.71v4.35Z"/><path class="cls-4" d="M462,271.81V270.2h1.15v1.61Zm0,9.84v-8.3h1.15v8.3Z"/><path class="cls-4" d="M464.67,282.34l1.13.2a1.39,1.39,0,0,0,.47,1,1.62,1.62,0,0,0,1.08.33,1.88,1.88,0,0,0,1.21-.36,1.91,1.91,0,0,0,.61-1.09,10,10,0,0,0,.1-1.84,2.68,2.68,0,0,1-.84.81,2,2,0,0,1-1,.27,2.47,2.47,0,0,1-2-1,5,5,0,0,1-.92-3.18,6.23,6.23,0,0,1,.4-2.34,3.26,3.26,0,0,1,1.07-1.47,2.51,2.51,0,0,1,1.48-.47,2.09,2.09,0,0,1,1.1.3,2.84,2.84,0,0,1,.88.88v-1h1.06v7.17a8.28,8.28,0,0,1-.32,2.73,2.52,2.52,0,0,1-1,1.29,3,3,0,0,1-1.71.48,2.72,2.72,0,0,1-2-.72A2.61,2.61,0,0,1,464.67,282.34Zm.95-5a4.07,4.07,0,0,0,.55,2.39,1.59,1.59,0,0,0,1.32.75,1.62,1.62,0,0,0,1.33-.73,4,4,0,0,0,.55-2.35,3.9,3.9,0,0,0-.57-2.33,1.67,1.67,0,0,0-1.37-.76,1.56,1.56,0,0,0-1.26.76A3.94,3.94,0,0,0,465.62,277.35Z"/><path class="cls-4" d="M472.2,271.81V270.2h1.14v1.61Zm0,9.84v-8.3h1.14v8.3Z"/><path class="cls-4" d="M475.11,281.65v-8.3h1v1.17a2.76,2.76,0,0,1,.91-1,2.39,2.39,0,0,1,1.25-.34,2.44,2.44,0,0,1,1,.22,2.05,2.05,0,0,1,.75.56,2.21,2.21,0,0,1,.42.9,7.23,7.23,0,0,1,.14,1.71v5.1h-1.15v-5a4.34,4.34,0,0,0-.15-1.34,1.36,1.36,0,0,0-.49-.65,1.27,1.27,0,0,0-.77-.23,1.6,1.6,0,0,0-1.32.61,3.46,3.46,0,0,0-.49,2.12v4.54Z"/><path class="cls-4" d="M22.87,533.65H21.71v-9a5.74,5.74,0,0,1-1.07.95,6.55,6.55,0,0,1-1.23.74V525a7.25,7.25,0,0,0,1.68-1.33,5.11,5.11,0,0,0,1-1.54h.75Z"/><path class="cls-4" d="M29.2,533.65H28.05v-9a6.08,6.08,0,0,1-1.07.95,6.3,6.3,0,0,1-1.24.74V525a7.1,7.1,0,0,0,1.69-1.33,5.06,5.06,0,0,0,1-1.54h.75Z"/><path class="cls-4" d="M38.24,532.3v1.35H32a3.9,3.9,0,0,1,.5-1.84,10.36,10.36,0,0,1,1.9-2.4,13.25,13.25,0,0,0,2.12-2.49,3.39,3.39,0,0,0,.5-1.64,2,2,0,0,0-.51-1.42,1.73,1.73,0,0,0-2.58,0,2.52,2.52,0,0,0-.52,1.71l-1.19-.15a3.91,3.91,0,0,1,.94-2.48,2.85,2.85,0,0,1,2.13-.83,2.55,2.55,0,0,1,2.17,1,3.54,3.54,0,0,1,.74,2.2,4.11,4.11,0,0,1-.58,2.1,15.6,15.6,0,0,1-2.19,2.67c-.69.71-1.14,1.19-1.34,1.44a4.05,4.05,0,0,0-.48.77Z"/><path class="cls-4" d="M919.1,533.65V522.2h6.34v1.35h-5.1v3.54h4.41v1.36h-4.41v5.2Z"/><path class="cls-4" d="M926.83,533.65V522.2H928v11.45Z"/><path class="cls-4" d="M934.21,532.62a4.1,4.1,0,0,1-1.2.91,3,3,0,0,1-1.3.31,2.28,2.28,0,0,1-1.69-.64,2.34,2.34,0,0,1-.64-1.73,2.62,2.62,0,0,1,.3-1.27,2.27,2.27,0,0,1,.81-.87,4.33,4.33,0,0,1,1.56-.46,9,9,0,0,0,2.07-.49V528a1.85,1.85,0,0,0-.3-1.2,1.67,1.67,0,0,0-1.32-.5,1.83,1.83,0,0,0-1.2.33,2.21,2.21,0,0,0-.59,1.26l-1.13-.19a3.18,3.18,0,0,1,1-2,3.26,3.26,0,0,1,2.11-.61,3,3,0,0,1,1.68.41,1.71,1.71,0,0,1,.77,1,7,7,0,0,1,.16,1.74v1.87a23.12,23.12,0,0,0,.08,2.48,3.58,3.58,0,0,0,.29,1h-1.2A3.63,3.63,0,0,1,934.21,532.62Zm-.09-3.14a7.31,7.31,0,0,1-1.89.54,3.33,3.33,0,0,0-1,.28,1.21,1.21,0,0,0-.45.45,1.37,1.37,0,0,0-.16.68,1.24,1.24,0,0,0,.37,1,1.37,1.37,0,0,0,1,.35,2,2,0,0,0,1.12-.32,2,2,0,0,0,.76-.85,4,4,0,0,0,.25-1.56Z"/><path class="cls-4" d="M939.64,532.39l.16,1.24a3.21,3.21,0,0,1-.86.13,1.74,1.74,0,0,1-1-.24,1.26,1.26,0,0,1-.51-.65,6.54,6.54,0,0,1-.13-1.65v-4.77h-.85v-1.1h.85V523.3l1.15-.85v2.9h1.16v1.1h-1.16v4.85a2.2,2.2,0,0,0,.1.86.56.56,0,0,0,.55.29A2.86,2.86,0,0,0,939.64,532.39Z"/><path class="cls-4" d="M940.69,533.65V522.2h1.15v11.45Z"/><path class="cls-4" d="M948.07,532.62a4.23,4.23,0,0,1-1.2.91,3,3,0,0,1-1.3.31,2.28,2.28,0,0,1-1.69-.64,2.34,2.34,0,0,1-.64-1.73,2.62,2.62,0,0,1,.3-1.27,2.27,2.27,0,0,1,.81-.87,4.33,4.33,0,0,1,1.56-.46,9,9,0,0,0,2.07-.49V528a1.85,1.85,0,0,0-.3-1.2,1.67,1.67,0,0,0-1.32-.5,1.83,1.83,0,0,0-1.2.33,2.21,2.21,0,0,0-.59,1.26l-1.13-.19a3.18,3.18,0,0,1,1-2,3.26,3.26,0,0,1,2.11-.61,3,3,0,0,1,1.68.41,1.71,1.71,0,0,1,.77,1,7,7,0,0,1,.16,1.74v1.87c0,1.31,0,2.14.07,2.48a3.6,3.6,0,0,0,.3,1H948.3A3.64,3.64,0,0,1,948.07,532.62Zm-.09-3.14a7.44,7.44,0,0,1-1.89.54,3.33,3.33,0,0,0-1,.28,1.21,1.21,0,0,0-.45.45,1.37,1.37,0,0,0-.16.68,1.24,1.24,0,0,0,.37,1,1.37,1.37,0,0,0,1,.35,2,2,0,0,0,1.12-.32,2,2,0,0,0,.76-.85A4,4,0,0,0,948,530Z"/><path class="cls-4" d="M950.94,533.65v-8.3h1v1.17a2.76,2.76,0,0,1,.91-1,2.36,2.36,0,0,1,1.25-.34,2.44,2.44,0,0,1,1,.22,2.05,2.05,0,0,1,.75.56,2.35,2.35,0,0,1,.42.9,7.81,7.81,0,0,1,.14,1.71v5.1h-1.15v-5a4.34,4.34,0,0,0-.15-1.34,1.36,1.36,0,0,0-.49-.65,1.27,1.27,0,0,0-.77-.23,1.6,1.6,0,0,0-1.32.61,3.46,3.46,0,0,0-.49,2.12v4.54Z"/><path class="cls-4" d="M962.64,533.65v-1a2.42,2.42,0,0,1-.8.92,2,2,0,0,1-1.07.32,2.58,2.58,0,0,1-2.08-1.14,5.16,5.16,0,0,1-.88-3.2,6.56,6.56,0,0,1,.39-2.4,3.29,3.29,0,0,1,1-1.46,2.4,2.4,0,0,1,1.45-.48,2,2,0,0,1,1.06.3,2.58,2.58,0,0,1,.8.84v-4.1h1.17v11.45ZM959,529.51a4.15,4.15,0,0,0,.56,2.39,1.6,1.6,0,0,0,1.3.78,1.56,1.56,0,0,0,1.28-.75,3.9,3.9,0,0,0,.54-2.27,4.66,4.66,0,0,0-.54-2.54,1.61,1.61,0,0,0-1.36-.8,1.5,1.5,0,0,0-1.25.77A4.36,4.36,0,0,0,959,529.51Z"/><path class="cls-4" d="M965.45,523.84V522.2h1.24v1.28a3.77,3.77,0,0,1-.27,1.64,1.83,1.83,0,0,1-.8.83l-.28-.55c.46-.23.69-.75.71-1.56Z"/><path class="cls-4" d="M967.79,531.16l1.15-.21a2.06,2.06,0,0,0,.55,1.3,1.94,1.94,0,0,0,2.36.06,1.23,1.23,0,0,0,.41-.94.93.93,0,0,0-.35-.77,4.64,4.64,0,0,0-1.17-.47,8.28,8.28,0,0,1-1.8-.7,1.93,1.93,0,0,1-.7-.77,2.36,2.36,0,0,1-.25-1.11,2.28,2.28,0,0,1,.68-1.72,2.58,2.58,0,0,1,1.88-.67,3,3,0,0,1,1.33.28,2.06,2.06,0,0,1,.88.73,3.3,3.3,0,0,1,.42,1.32l-1.12.19a1.35,1.35,0,0,0-1.48-1.36,1.76,1.76,0,0,0-1.12.3,1,1,0,0,0-.36.77.85.85,0,0,0,.35.72,6.55,6.55,0,0,0,1.25.5,9.14,9.14,0,0,1,1.85.72,1.89,1.89,0,0,1,.66.74,2.51,2.51,0,0,1,.23,1.1,2.58,2.58,0,0,1-.75,1.93,2.84,2.84,0,0,1-2.06.74C969,533.84,968.05,533,967.79,531.16Z"/><path class="cls-4" d="M982.9,530.61l1.13.18a3.73,3.73,0,0,1-1,2.26,2.54,2.54,0,0,1-1.88.79,2.68,2.68,0,0,1-2.2-1.1,5.16,5.16,0,0,1-.87-3.25,5,5,0,0,1,.88-3.24,2.71,2.71,0,0,1,2.23-1.09,2.53,2.53,0,0,1,1.78.66,3.26,3.26,0,0,1,.93,2l-1.12.2a2.39,2.39,0,0,0-.57-1.25,1.32,1.32,0,0,0-1-.42,1.7,1.7,0,0,0-1.41.75,4.12,4.12,0,0,0-.56,2.4,4.29,4.29,0,0,0,.54,2.45,1.61,1.61,0,0,0,1.37.76,1.48,1.48,0,0,0,1.12-.5A2.74,2.74,0,0,0,982.9,530.61Z"/><path class="cls-4" d="M985,533.65V522.2h1.15v4.1a2.82,2.82,0,0,1,.92-.85,2.26,2.26,0,0,1,1.13-.29,2.17,2.17,0,0,1,1.71.7,3.8,3.8,0,0,1,.63,2.53v5.26H989.4v-5.26a2.52,2.52,0,0,0-.38-1.55,1.3,1.3,0,0,0-1.06-.46,1.62,1.62,0,0,0-1.27.6,3.22,3.22,0,0,0-.53,2.13v4.54Z"/><path class="cls-4" d="M997,531l1.18.18a3.55,3.55,0,0,1-1.07,2,2.84,2.84,0,0,1-1.93.68,2.89,2.89,0,0,1-2.34-1.1,5,5,0,0,1-.89-3.17,5.19,5.19,0,0,1,.9-3.28,2.81,2.81,0,0,1,2.29-1.13,2.71,2.71,0,0,1,2.2,1.11,5.05,5.05,0,0,1,.88,3.21v.38H993.1a3.5,3.5,0,0,0,.65,2.11,1.75,1.75,0,0,0,1.4.71C996,532.68,996.62,532.11,997,531Zm-3.79-2.28H997a3.11,3.11,0,0,0-.46-1.61,1.68,1.68,0,0,0-2.73-.13A2.76,2.76,0,0,0,993.17,528.7Z"/><path class="cls-4" d="M1004,532.62a4,4,0,0,1-1.2.91,3,3,0,0,1-1.3.31,2.3,2.3,0,0,1-1.69-.64,2.37,2.37,0,0,1-.63-1.73,2.62,2.62,0,0,1,.29-1.27,2.22,2.22,0,0,1,.82-.87,4.2,4.2,0,0,1,1.56-.46,8.87,8.87,0,0,0,2.06-.49V528a1.78,1.78,0,0,0-.31-1.2,1.64,1.64,0,0,0-1.32-.5,1.87,1.87,0,0,0-1.2.33,2.21,2.21,0,0,0-.59,1.26l-1.13-.19a3.18,3.18,0,0,1,1-2,3.29,3.29,0,0,1,2.12-.61,3,3,0,0,1,1.67.41,1.67,1.67,0,0,1,.77,1,7,7,0,0,1,.16,1.74v1.87a23.12,23.12,0,0,0,.08,2.48,3.94,3.94,0,0,0,.29,1h-1.2A3.63,3.63,0,0,1,1004,532.62Zm-.09-3.14a7.34,7.34,0,0,1-1.88.54,3.33,3.33,0,0,0-1,.28,1.21,1.21,0,0,0-.45.45,1.48,1.48,0,0,0-.16.68,1.24,1.24,0,0,0,.37,1,1.38,1.38,0,0,0,1,.35,2,2,0,0,0,1.87-1.17,3.78,3.78,0,0,0,.25-1.56Z"/><path class="cls-4" d="M1009.46,532.39l.16,1.24a3.15,3.15,0,0,1-.86.13,1.76,1.76,0,0,1-1-.24,1.24,1.24,0,0,1-.5-.65,6.39,6.39,0,0,1-.14-1.65v-4.77h-.84v-1.1h.84V523.3l1.15-.85v2.9h1.16v1.1h-1.16v4.85a2.2,2.2,0,0,0,.1.86.58.58,0,0,0,.56.29A2.67,2.67,0,0,0,1009.46,532.39Z"/><path class="cls-4" d="M1018.65,530.61l1.13.18a3.73,3.73,0,0,1-1,2.26,2.54,2.54,0,0,1-1.88.79,2.68,2.68,0,0,1-2.2-1.1,5.16,5.16,0,0,1-.87-3.25,5,5,0,0,1,.88-3.24,2.71,2.71,0,0,1,2.23-1.09,2.53,2.53,0,0,1,1.78.66,3.26,3.26,0,0,1,.93,2l-1.12.2a2.39,2.39,0,0,0-.57-1.25,1.32,1.32,0,0,0-1-.42,1.7,1.7,0,0,0-1.41.75,4.12,4.12,0,0,0-.56,2.4,4.29,4.29,0,0,0,.54,2.45,1.61,1.61,0,0,0,1.37.76,1.48,1.48,0,0,0,1.12-.5A2.74,2.74,0,0,0,1018.65,530.61Z"/><path class="cls-4" d="M1020.32,529.5a5,5,0,0,1,.91-3.24,2.9,2.9,0,0,1,4.55,0,4.79,4.79,0,0,1,.92,3.15,5.17,5.17,0,0,1-.9,3.33,2.92,2.92,0,0,1-4.57,0A5,5,0,0,1,1020.32,529.5Zm1.18,0a4,4,0,0,0,.59,2.39,1.74,1.74,0,0,0,1.45.79,1.7,1.7,0,0,0,1.4-.79,4.11,4.11,0,0,0,.58-2.39,4,4,0,0,0-.59-2.39,1.74,1.74,0,0,0-1.45-.79,1.69,1.69,0,0,0-1.4.79A4.08,4.08,0,0,0,1021.5,529.5Z"/><path class="cls-4" d="M1032.46,533.65v-1a2.26,2.26,0,0,1-.8.92,1.94,1.94,0,0,1-1.06.32,2.58,2.58,0,0,1-2.09-1.14,5.16,5.16,0,0,1-.87-3.2,6.56,6.56,0,0,1,.39-2.4,3.22,3.22,0,0,1,1-1.46,2.35,2.35,0,0,1,1.44-.48,2,2,0,0,1,1.06.3,2.51,2.51,0,0,1,.81.84v-4.1h1.16v11.45Zm-3.64-4.14a4.16,4.16,0,0,0,.55,2.39,1.61,1.61,0,0,0,1.31.78,1.55,1.55,0,0,0,1.27-.75,3.9,3.9,0,0,0,.54-2.27,4.66,4.66,0,0,0-.54-2.54,1.6,1.6,0,0,0-1.36-.8,1.52,1.52,0,0,0-1.25.77A4.37,4.37,0,0,0,1028.82,529.51Z"/><path class="cls-4" d="M1040,531l1.19.18a3.67,3.67,0,0,1-1.07,2,2.84,2.84,0,0,1-1.93.68,2.89,2.89,0,0,1-2.34-1.1,4.89,4.89,0,0,1-.89-3.17,5.19,5.19,0,0,1,.9-3.28,2.8,2.8,0,0,1,2.28-1.13,2.72,2.72,0,0,1,2.21,1.11,5.05,5.05,0,0,1,.88,3.21v.38h-5.08a3.64,3.64,0,0,0,.65,2.11,1.78,1.78,0,0,0,1.41.71C1039.06,532.68,1039.66,532.11,1040,531Zm-3.79-2.28h3.8a3.21,3.21,0,0,0-.46-1.61,1.68,1.68,0,0,0-2.73-.13A2.82,2.82,0,0,0,1036.21,528.7Z"/><path class="cls-4" d="M1043,533.65v-1.6h1.31v1.6Z"/><path class="cls-4" d="M742.87,29.65h-1.16v-9a5.74,5.74,0,0,1-1.07.95,6.55,6.55,0,0,1-1.23.74V21a7.25,7.25,0,0,0,1.68-1.33,5.11,5.11,0,0,0,1-1.54h.75Z"/><path class="cls-4" d="M749.2,29.65h-1.15v-9a6.08,6.08,0,0,1-1.07.95,6.3,6.3,0,0,1-1.24.74V21a7.1,7.1,0,0,0,1.69-1.33,5.06,5.06,0,0,0,1-1.54h.75Z"/><path class="cls-4" d="M752.16,26.62l1.15-.19c.24,1.5.84,2.26,1.82,2.26A1.78,1.78,0,0,0,756.5,28a2.55,2.55,0,0,0,.58-1.73,2.41,2.41,0,0,0-.53-1.62,1.7,1.7,0,0,0-1.31-.61,2.55,2.55,0,0,0-.81.16l.13-1.24.18,0a1.82,1.82,0,0,0,1.93-1.92,1.84,1.84,0,0,0-.45-1.29,1.46,1.46,0,0,0-2.21,0,2.77,2.77,0,0,0-.59,1.55l-1.15-.25a3.83,3.83,0,0,1,1-2.22,2.66,2.66,0,0,1,3.79.09,3,3,0,0,1,.79,2.13,2.82,2.82,0,0,1-.33,1.38,2.45,2.45,0,0,1-1,.94,2.11,2.11,0,0,1,.93.52,2.66,2.66,0,0,1,.59,1,3.8,3.8,0,0,1,.23,1.34,3.65,3.65,0,0,1-.93,2.58,2.94,2.94,0,0,1-2.23,1,2.73,2.73,0,0,1-2-.87A3.7,3.7,0,0,1,752.16,26.62Z"/><g class="cls-2"><path class="cls-3" d="M243,141.75c-3.46,13.51-16.77,36.55-21.52,46.63a220.79,220.79,0,0,0-24.61,69.33C184,308.08,169.63,364.75,166.19,417c7.09-2.39,6.56-2.23,11-7.15q10-22.05,21.47-43.33a461.11,461.11,0,0,0,29.59-75.86c9.54-31.47,17.72-63.69,24.16-95.94,1.6-8,8.08-21.91,5.94-30-2.65,8.49-9.15,14.87-14.35,22.22-33.79,47.75-52.87,101.26-63.05,158.55C169,412.3,164.76,481,157.14,548.42c-1.65,14.66-5.36,36-4.26,52-1-2.51-.56-5,1.25-7.6q2.44-5.13,4.88-10.27a263.31,263.31,0,0,0,16.19-43.47c13.22-39,25.65-77,34.69-117.12C201,442.36,188,462.6,177.2,481.8c-15.95,28.34-34.58,57.12-42.51,89.13-5,20.1-9.62,41.84-12.56,62.33-1.3,9.1.33,13.81,10.16,8.11,6.84-4,22.67-15.82,21.34-25.22-18,16.45-33.14,33.88-46.14,54.67C109.29,668,75.43,717.27,90,720"/><path class="cls-3" d="M821.25,85.5c-10.09.18-48.5,13.74-39,30.34,2.94,5.14,12,5.14,16.89,4.24,15-2.72,33.53-23.49,38.31-37.39-14.38-5.64-48.26,31-50.17,32.84a346.45,346.45,0,0,0-61,75.76,147,147,0,0,0-19,49.7c10.42,27,54.06-1.66,65.12-10.52.38-.31,32.86-25.43,23.37-32.8a84.4,84.4,0,0,0-39.25,27.89A717.11,717.11,0,0,0,652.93,370.69C626,419.09,598.6,470.91,611.66,527.88q4.77-.23,6-5.68a507.29,507.29,0,0,1,31-42.5c16.54-21.83,32.43-43.87,51-64-2.45,1.46-3.48,3.43-5.27,5.86-16.56,22.45-30,50-41.34,75.36-13,29-23.32,61.13-28.49,92.58-.94,5.77-1.2,13.5-2.8,18.85-15.43-6-30.15-18-41.85-29.3-10-9.68-16.41-18.33-30.66-20.73-20.16,29.3-21.25,88.17-60.79,99.87H462.59q-56.13-2.94-112.24-6.26C313,650,275.74,649,238.5,645.75"/></g></g></svg>