<svg id="Layer_1" data-name="Layer 1" xmlns="http://www.w3.org/2000/svg" xmlns:xlink="http://www.w3.org/1999/xlink" viewBox="0 0 1080 756"><defs><style>.cls-1,.cls-3{fill:none;}.cls-2{clip-path:url(#clip-path);}.cls-3{stroke:#231f20;stroke-width:0.25px;}.cls-4{fill:#231f20;}</style><clipPath id="clip-path"><rect class="cls-1" width="1080" height="756"/></clipPath></defs><title>Untitled-3</title><g class="cls-2"><g class="cls-2"><line class="cls-3" x1="180" y1="-18.36" x2="180" y2="790.92"/><line class="cls-3" x1="720" y1="-20.88" x2="720" y2="788.4"/><line class="cls-3" x1="359.88" y1="-18.36" x2="359.88" y2="790.92"/><line class="cls-3" x1="899.87" y1="-20.88" x2="899.87" y2="788.4"/><line class="cls-3" x1="-16.92" y1="251.88" x2="1101.6" y2="251.88"/><line class="cls-3" x1="-11.52" y1="504.13" x2="1107" y2="504.13"/><line class="cls-3" x1="540" y1="-19.44" x2="540" y2="789.84"/></g><path class="cls-4" d="M383.26,281.71v-1a2.33,2.33,0,0,1-.81.91,1.86,1.86,0,0,1-1.06.32,2.57,2.57,0,0,1-2.08-1.14,5.07,5.07,0,0,1-.88-3.19,6.48,6.48,0,0,1,.39-2.4,3.18,3.18,0,0,1,1-1.46,2.38,2.38,0,0,1,1.45-.48,1.94,1.94,0,0,1,1.05.3,2.33,2.33,0,0,1,.81.84v-4.11h1.17v11.45Zm-3.65-4.14a4.13,4.13,0,0,0,.56,2.39,1.59,1.59,0,0,0,1.3.79,1.55,1.55,0,0,0,1.27-.75,3.9,3.9,0,0,0,.54-2.27,4.63,4.63,0,0,0-.54-2.54,1.58,1.58,0,0,0-1.36-.8,1.49,1.49,0,0,0-1.25.77A4.33,4.33,0,0,0,379.61,277.57Z"/><path class="cls-4" d="M386.15,271.88v-1.62h1.15v1.62Zm0,9.83v-8.29h1.15v8.29Z"/><path class="cls-4" d="M393.52,278.67l1.13.18a3.82,3.82,0,0,1-1,2.27,2.59,2.59,0,0,1-1.89.78,2.67,2.67,0,0,1-2.2-1.1,5.2,5.2,0,0,1-.86-3.24,5.12,5.12,0,0,1,.87-3.25,2.75,2.75,0,0,1,2.24-1.08,2.56,2.56,0,0,1,1.78.66,3.17,3.17,0,0,1,.92,2l-1.12.21a2.47,2.47,0,0,0-.57-1.26,1.29,1.29,0,0,0-1-.41,1.69,1.69,0,0,0-1.41.75,4,4,0,0,0-.56,2.39,4.45,4.45,0,0,0,.53,2.46,1.64,1.64,0,0,0,1.37.76,1.48,1.48,0,0,0,1.13-.51A2.78,2.78,0,0,0,393.52,278.67Z"/><path class="cls-4" d="M398.19,280.46l.15,1.24a3.48,3.48,0,0,1-.86.12,1.71,1.71,0,0,1-1-.24,1.14,1.14,0,0,1-.51-.65,6.43,6.43,0,0,1-.13-1.65v-4.77H395v-1.09h.85v-2.06l1.14-.84v2.9h1.17v1.09H397v4.85a2.49,2.49,0,0,0,.1.87.57.57,0,0,0,.56.28A3.92,3.92,0,0,0,398.19,280.46Z"/><path class="cls-4" d="M403.7,280.69a4.33,4.33,0,0,1-1.2.91,3,3,0,0,1-1.3.3,2.26,2.26,0,0,1-1.69-.64,2.36,2.36,0,0,1-.63-1.73,2.62,2.62,0,0,1,.29-1.27,2.27,2.27,0,0,1,.81-.87,4.54,4.54,0,0,1,1.57-.46,9,9,0,0,0,2.06-.49v-.36a1.75,1.75,0,0,0-.31-1.19,1.61,1.61,0,0,0-1.32-.5,1.85,1.85,0,0,0-1.2.33,2.18,2.18,0,0,0-.59,1.25l-1.13-.19a3.15,3.15,0,0,1,1-1.94,3.22,3.22,0,0,1,2.11-.61,3,3,0,0,1,1.68.4,1.69,1.69,0,0,1,.77,1,6.87,6.87,0,0,1,.16,1.73v1.88a23.12,23.12,0,0,0,.08,2.48,3.87,3.87,0,0,0,.29,1h-1.2A3.48,3.48,0,0,1,403.7,280.69Zm-.09-3.14a7,7,0,0,1-1.88.53,3.27,3.27,0,0,0-1,.29,1.08,1.08,0,0,0-.45.45,1.45,1.45,0,0,0-.16.68,1.22,1.22,0,0,0,.37.94,1.37,1.37,0,0,0,1,.36,2.1,2.1,0,0,0,1.13-.32,2,2,0,0,0,.75-.86,3.7,3.7,0,0,0,.25-1.55Z"/><path class="cls-4" d="M409.13,280.46l.16,1.24a3.61,3.61,0,0,1-.86.12,1.76,1.76,0,0,1-1-.24,1.17,1.17,0,0,1-.5-.65,6.29,6.29,0,0,1-.14-1.65v-4.77H406v-1.09h.84v-2.06l1.15-.84v2.9h1.16v1.09H408v4.85a2.26,2.26,0,0,0,.1.87.56.56,0,0,0,.55.28A3.92,3.92,0,0,0,409.13,280.46Z"/><path class="cls-4" d="M410.22,271.88v-1.62h1.15v1.62Zm0,9.83v-8.29h1.15v8.29Z"/><path class="cls-4" d="M413.13,281.71v-8.29h1v1.17a2.63,2.63,0,0,1,.92-1,2.24,2.24,0,0,1,1.24-.34,2.4,2.4,0,0,1,1,.21,2.19,2.19,0,0,1,.75.57,2.36,2.36,0,0,1,.43.9,7.77,7.77,0,0,1,.14,1.7v5.1h-1.15v-5a4,4,0,0,0-.16-1.34,1.35,1.35,0,0,0-.49-.65,1.32,1.32,0,0,0-.77-.23,1.61,1.61,0,0,0-1.32.62,3.53,3.53,0,0,0-.49,2.12v4.53Z"/><path class="cls-4" d="M420.2,282.4l1.13.2a1.46,1.46,0,0,0,.47,1,1.62,1.62,0,0,0,1.08.32,1.88,1.88,0,0,0,1.21-.36,1.85,1.85,0,0,0,.61-1.08,10.12,10.12,0,0,0,.1-1.84,2.75,2.75,0,0,1-.84.8,2,2,0,0,1-1,.27,2.45,2.45,0,0,1-2-1,5,5,0,0,1-.92-3.18,6.15,6.15,0,0,1,.4-2.33,3.2,3.2,0,0,1,1.07-1.47,2.51,2.51,0,0,1,1.48-.47,2.18,2.18,0,0,1,1.1.29,2.87,2.87,0,0,1,.88.89v-1H426v7.17a8.64,8.64,0,0,1-.31,2.73,2.67,2.67,0,0,1-1,1.29,3,3,0,0,1-1.71.47,2.76,2.76,0,0,1-2-.71A2.62,2.62,0,0,1,420.2,282.4Zm1-5a4.18,4.18,0,0,0,.54,2.39,1.59,1.59,0,0,0,1.32.75,1.62,1.62,0,0,0,1.33-.74,5.15,5.15,0,0,0,0-4.67,1.64,1.64,0,0,0-1.37-.76,1.53,1.53,0,0,0-1.26.76A3.92,3.92,0,0,0,421.16,277.42Z"/><path class="cls-4" d="M432.63,281.71l-2.09-8.29h1.19l1.08,4.79.4,1.78.36-1.71,1.08-4.86h1.19l1,4.81.34,1.59.39-1.61,1.16-4.79h1.13l-2.13,8.29h-1.2l-1.09-5-.25-1.42-1.38,6.38Z"/><path class="cls-4" d="M440.84,281.71V270.26H442v4.11a3,3,0,0,1,.92-.86,2.28,2.28,0,0,1,1.13-.28,2.2,2.2,0,0,1,1.71.69,3.84,3.84,0,0,1,.63,2.54v5.25h-1.15v-5.25a2.43,2.43,0,0,0-.38-1.55,1.28,1.28,0,0,0-1.05-.47,1.64,1.64,0,0,0-1.28.6,3.28,3.28,0,0,0-.53,2.13v4.54Z"/><path class="cls-4" d="M452.57,280.69a4.64,4.64,0,0,1-1.2.91,3,3,0,0,1-1.3.3,2.25,2.25,0,0,1-1.69-.64,2.32,2.32,0,0,1-.64-1.73,2.62,2.62,0,0,1,.3-1.27,2.27,2.27,0,0,1,.81-.87,4.54,4.54,0,0,1,1.56-.46,9,9,0,0,0,2.07-.49v-.36a1.81,1.81,0,0,0-.3-1.19,1.63,1.63,0,0,0-1.32-.5,1.83,1.83,0,0,0-1.2.33,2.18,2.18,0,0,0-.59,1.25l-1.13-.19a3.15,3.15,0,0,1,1-1.94,3.2,3.2,0,0,1,2.11-.61,3,3,0,0,1,1.68.4,1.73,1.73,0,0,1,.77,1,6.87,6.87,0,0,1,.16,1.73v1.88c0,1.31,0,2.14.07,2.48a3.53,3.53,0,0,0,.3,1H452.8A3.49,3.49,0,0,1,452.57,280.69Zm-.09-3.14a7.1,7.1,0,0,1-1.89.53,3.28,3.28,0,0,0-1,.29,1.08,1.08,0,0,0-.45.45,1.34,1.34,0,0,0-.16.68,1.22,1.22,0,0,0,.37.94,1.37,1.37,0,0,0,1,.36,2.06,2.06,0,0,0,1.12-.32,2,2,0,0,0,.76-.86,3.86,3.86,0,0,0,.25-1.55Z"/><path class="cls-4" d="M458,280.46l.16,1.24a3.61,3.61,0,0,1-.86.12,1.74,1.74,0,0,1-1-.24,1.18,1.18,0,0,1-.51-.65,6.43,6.43,0,0,1-.13-1.65v-4.77h-.85v-1.09h.85v-2.06l1.15-.84v2.9H458v1.09h-1.16v4.85a2.26,2.26,0,0,0,.1.87.56.56,0,0,0,.55.28A3.92,3.92,0,0,0,458,280.46Z"/><path class="cls-4" d="M462.51,282.4l1.12.2a1.46,1.46,0,0,0,.47,1,1.63,1.63,0,0,0,1.09.32,1.69,1.69,0,0,0,1.82-1.44,10.12,10.12,0,0,0,.1-1.84,2.75,2.75,0,0,1-.84.8,2.07,2.07,0,0,1-1,.27,2.47,2.47,0,0,1-2-1,5.07,5.07,0,0,1-.92-3.18,6.14,6.14,0,0,1,.41-2.33,3.19,3.19,0,0,1,1.06-1.47,2.53,2.53,0,0,1,1.48-.47,2.15,2.15,0,0,1,1.1.29,2.77,2.77,0,0,1,.88.89v-1h1.06v7.17a8.35,8.35,0,0,1-.31,2.73,2.71,2.71,0,0,1-1,1.29,3.09,3.09,0,0,1-1.71.47,2.76,2.76,0,0,1-2-.71A2.55,2.55,0,0,1,462.51,282.4Zm.95-5a4.18,4.18,0,0,0,.54,2.39,1.59,1.59,0,0,0,1.32.75,1.63,1.63,0,0,0,1.34-.74,4,4,0,0,0,.54-2.34,3.91,3.91,0,0,0-.56-2.33,1.66,1.66,0,0,0-1.37-.76,1.56,1.56,0,0,0-1.27.76A3.92,3.92,0,0,0,463.46,277.42Z"/><path class="cls-4" d="M469.59,277.57a5,5,0,0,1,.91-3.25,2.92,2.92,0,0,1,4.55,0,4.8,4.8,0,0,1,.92,3.16,5.17,5.17,0,0,1-.9,3.33,2.93,2.93,0,0,1-4.57,0A5,5,0,0,1,469.59,277.57Zm1.18,0a4,4,0,0,0,.59,2.4,1.76,1.76,0,0,0,1.45.79,1.72,1.72,0,0,0,1.4-.8,4.11,4.11,0,0,0,.58-2.39,4,4,0,0,0-.59-2.39,1.75,1.75,0,0,0-1.45-.78,1.69,1.69,0,0,0-1.4.79A4,4,0,0,0,470.77,277.56Z"/><path class="cls-4" d="M482,279l1.18.18a3.54,3.54,0,0,1-1.07,2,3.07,3.07,0,0,1-4.27-.43,4.92,4.92,0,0,1-.89-3.16,5.15,5.15,0,0,1,.9-3.28,2.82,2.82,0,0,1,2.29-1.13,2.71,2.71,0,0,1,2.2,1.11,5.05,5.05,0,0,1,.88,3.21v.37h-5.08a3.48,3.48,0,0,0,.65,2.11,1.73,1.73,0,0,0,1.4.72C481,280.75,481.64,280.18,482,279Zm-3.79-2.27H482a3.08,3.08,0,0,0-.46-1.61,1.68,1.68,0,0,0-2.73-.13A2.76,2.76,0,0,0,478.19,276.77Z"/><path class="cls-4" d="M484.18,279.23l1.15-.22a2.09,2.09,0,0,0,.55,1.31,1.69,1.69,0,0,0,1.2.43,1.65,1.65,0,0,0,1.16-.38,1.21,1.21,0,0,0,.41-.94.91.91,0,0,0-.35-.76,4.24,4.24,0,0,0-1.18-.47,8.94,8.94,0,0,1-1.79-.7,2.13,2.13,0,0,1-.71-.78,2.44,2.44,0,0,1-.24-1.1,2.33,2.33,0,0,1,.67-1.73,2.62,2.62,0,0,1,1.89-.66,3.1,3.1,0,0,1,1.33.27,2.16,2.16,0,0,1,.88.74,3.2,3.2,0,0,1,.42,1.32l-1.12.19a1.35,1.35,0,0,0-1.48-1.36,1.76,1.76,0,0,0-1.12.3.94.94,0,0,0-.37.76.83.83,0,0,0,.36.72,5.17,5.17,0,0,0,1.25.5,9.9,9.9,0,0,1,1.85.73,1.77,1.77,0,0,1,.65.73,2.39,2.39,0,0,1,.24,1.11,2.58,2.58,0,0,1-.76,1.93,2.79,2.79,0,0,1-2.05.73C485.39,281.9,484.44,281,484.18,279.23Z"/><path class="cls-4" d="M494.4,277.57a5,5,0,0,1,.9-3.25,2.93,2.93,0,0,1,4.56,0,4.8,4.8,0,0,1,.91,3.16,5.23,5.23,0,0,1-.89,3.33,2.93,2.93,0,0,1-4.57,0A4.94,4.94,0,0,1,494.4,277.57Zm1.18,0a4,4,0,0,0,.58,2.4,1.78,1.78,0,0,0,1.46.79A1.7,1.7,0,0,0,499,280a5.21,5.21,0,0,0,0-4.78,1.77,1.77,0,0,0-1.46-.78,1.67,1.67,0,0,0-1.39.79A4,4,0,0,0,495.58,277.56Z"/><path class="cls-4" d="M502.13,281.71v-8.29h1v1.17a2.63,2.63,0,0,1,.92-1,2.24,2.24,0,0,1,1.24-.34,2.4,2.4,0,0,1,1,.21,2.19,2.19,0,0,1,.75.57,2.36,2.36,0,0,1,.43.9,7.77,7.77,0,0,1,.14,1.7v5.1h-1.15v-5a4,4,0,0,0-.16-1.34,1.35,1.35,0,0,0-.49-.65,1.32,1.32,0,0,0-.77-.23,1.61,1.61,0,0,0-1.32.62,3.53,3.53,0,0,0-.49,2.12v4.53Z"/><path class="cls-4" d="M378.85,291.08v-1.62H380v1.62Zm0,9.83v-8.29H380v8.29Z"/><path class="cls-4" d="M381.77,300.91v-8.29h1v1.17a2.63,2.63,0,0,1,.92-1,2.27,2.27,0,0,1,1.24-.34,2.37,2.37,0,0,1,1,.21,2.08,2.08,0,0,1,.75.57,2.36,2.36,0,0,1,.43.9,7.77,7.77,0,0,1,.14,1.7v5.1h-1.15v-5.05a4,4,0,0,0-.16-1.34,1.28,1.28,0,0,0-.48-.65,1.37,1.37,0,0,0-.77-.23,1.59,1.59,0,0,0-1.32.62,3.45,3.45,0,0,0-.5,2.12v4.53Z"/><path class="cls-4" d="M395.27,299.66l.16,1.24a3.54,3.54,0,0,1-.86.12,1.76,1.76,0,0,1-1-.24,1.2,1.2,0,0,1-.5-.65,6.29,6.29,0,0,1-.14-1.65v-4.77h-.84v-1.09H393v-2.06l1.15-.84v2.9h1.16v1.09h-1.16v4.85a2.26,2.26,0,0,0,.1.87.57.57,0,0,0,.56.28A3.64,3.64,0,0,0,395.27,299.66Z"/><path class="cls-4" d="M396.36,300.91V289.46h1.15v4.11a2.76,2.76,0,0,1,.92-.86,2.24,2.24,0,0,1,1.12-.28,2.21,2.21,0,0,1,1.72.69,3.84,3.84,0,0,1,.63,2.54v5.25h-1.15v-5.25a2.5,2.5,0,0,0-.38-1.55,1.31,1.31,0,0,0-1.06-.47,1.62,1.62,0,0,0-1.27.6,3.22,3.22,0,0,0-.53,2.13v4.54Z"/><path class="cls-4" d="M408.3,298.24l1.19.18a3.57,3.57,0,0,1-1.07,2,2.79,2.79,0,0,1-1.93.68,2.89,2.89,0,0,1-2.34-1.1,5,5,0,0,1-.89-3.17,5.14,5.14,0,0,1,.9-3.27,2.78,2.78,0,0,1,2.29-1.13,2.71,2.71,0,0,1,2.2,1.11,5.05,5.05,0,0,1,.88,3.21v.37h-5.07a3.55,3.55,0,0,0,.64,2.11,1.75,1.75,0,0,0,1.41.71C407.36,299.94,408,299.38,408.3,298.24ZM404.52,296h3.79a3.08,3.08,0,0,0-.46-1.61,1.66,1.66,0,0,0-2.73-.13A2.76,2.76,0,0,0,404.52,296Z"/><path class="cls-4" d="M414.56,300.91V289.46h1.15v11.45Z"/><path class="cls-4" d="M417.52,291.08v-1.62h1.14v1.62Zm0,9.83v-8.29h1.14v8.29Z"/><path class="cls-4" d="M420.44,300.91v-8.29h1v1.15a2.58,2.58,0,0,1,.88-1,2.07,2.07,0,0,1,1.18-.35,1.94,1.94,0,0,1,1.21.37,2,2,0,0,1,.71,1.07,3.14,3.14,0,0,1,.93-1.08,2.08,2.08,0,0,1,1.18-.36,1.93,1.93,0,0,1,1.54.66,3.25,3.25,0,0,1,.56,2.13v5.69h-1.14v-5.23a4.52,4.52,0,0,0-.13-1.26,1.1,1.1,0,0,0-1.08-.78,1.49,1.49,0,0,0-1.21.59,2.92,2.92,0,0,0-.48,1.86v4.82h-1.14v-5.39a2.52,2.52,0,0,0-.32-1.46,1,1,0,0,0-.87-.42,1.45,1.45,0,0,0-1.25.64,4.26,4.26,0,0,0-.45,2.32v4.31Z"/><path class="cls-4" d="M432.41,300.91h-1.07V289.46h1.16v4.09a2.56,2.56,0,0,1,.83-.84,2,2,0,0,1,1-.28,2.4,2.4,0,0,1,1.45.48,3.22,3.22,0,0,1,1,1.44,6.32,6.32,0,0,1,.39,2.35,5.25,5.25,0,0,1-.88,3.26,2.58,2.58,0,0,1-2.07,1.14,1.89,1.89,0,0,1-1.07-.31,2.57,2.57,0,0,1-.82-.92Zm0-4.21a5.86,5.86,0,0,0,.23,1.93,2.17,2.17,0,0,0,.67,1,1.5,1.5,0,0,0,.95.33,1.54,1.54,0,0,0,1.27-.8,4.2,4.2,0,0,0,.55-2.39,4.31,4.31,0,0,0-.53-2.4,1.57,1.57,0,0,0-1.31-.77,1.55,1.55,0,0,0-1.27.81A3.94,3.94,0,0,0,432.4,296.7Z"/><path class="cls-4" d="M438.21,298.43l1.15-.22a2.09,2.09,0,0,0,.55,1.31,1.69,1.69,0,0,0,1.2.42,1.65,1.65,0,0,0,1.16-.37,1.21,1.21,0,0,0,.41-.94.91.91,0,0,0-.35-.76,4,4,0,0,0-1.17-.47,8.15,8.15,0,0,1-1.8-.71,1.93,1.93,0,0,1-.7-.77,2.54,2.54,0,0,1,.43-2.83,2.58,2.58,0,0,1,1.88-.66,3.1,3.1,0,0,1,1.33.27,2.08,2.08,0,0,1,.88.74,3.2,3.2,0,0,1,.42,1.32l-1.12.18a1.36,1.36,0,0,0-1.48-1.36,1.76,1.76,0,0,0-1.12.3,1,1,0,0,0-.36.77.82.82,0,0,0,.35.72,5.91,5.91,0,0,0,1.25.5,9.22,9.22,0,0,1,1.85.73,1.87,1.87,0,0,1,.66.73,2.53,2.53,0,0,1,.23,1.11,2.61,2.61,0,0,1-.75,1.93,2.84,2.84,0,0,1-2.06.73C439.42,301.1,438.47,300.21,438.21,298.43Z"/><path class="cls-4" d="M445.55,300.91v-1.6h1.32v1.6a3.11,3.11,0,0,1-.28,1.46,1.87,1.87,0,0,1-.79.81l-.32-.6A1.25,1.25,0,0,0,446,302a2.81,2.81,0,0,0,.19-1.11Z"/><path class="cls-4" d="M381.41,532.39l.16,1.24a3.15,3.15,0,0,1-.86.13,1.76,1.76,0,0,1-1-.24,1.24,1.24,0,0,1-.5-.65,6.39,6.39,0,0,1-.14-1.65v-4.77h-.84v-1.1h.84V523.3l1.15-.85v2.9h1.16v1.1h-1.16v4.85a2.2,2.2,0,0,0,.1.86.58.58,0,0,0,.56.29A2.67,2.67,0,0,0,381.41,532.39Z"/><path class="cls-4" d="M382.5,533.65V522.2h1.15v4.1a2.82,2.82,0,0,1,.92-.85,2.26,2.26,0,0,1,1.13-.29,2.17,2.17,0,0,1,1.71.7,3.8,3.8,0,0,1,.63,2.53v5.26h-1.15v-5.26a2.52,2.52,0,0,0-.38-1.55,1.3,1.3,0,0,0-1.06-.46,1.62,1.62,0,0,0-1.27.6,3.22,3.22,0,0,0-.53,2.13v4.54Z"/><path class="cls-4" d="M394.45,531l1.18.18a3.61,3.61,0,0,1-1.07,2,2.84,2.84,0,0,1-1.93.68,2.89,2.89,0,0,1-2.34-1.1,5,5,0,0,1-.89-3.17,5.19,5.19,0,0,1,.9-3.28,2.81,2.81,0,0,1,2.29-1.13,2.71,2.71,0,0,1,2.2,1.11,5.05,5.05,0,0,1,.88,3.21v.38h-5.07a3.57,3.57,0,0,0,.64,2.11,1.78,1.78,0,0,0,1.41.71C393.5,532.68,394.11,532.11,394.45,531Zm-3.79-2.28h3.79a3.11,3.11,0,0,0-.46-1.61,1.68,1.68,0,0,0-2.73-.13A2.76,2.76,0,0,0,390.66,528.7Z"/><path class="cls-4" d="M400.74,536.83V525.35h1.06v1.08a2.7,2.7,0,0,1,.87-1,2,2,0,0,1,1.09-.3,2.36,2.36,0,0,1,1.45.48,3.26,3.26,0,0,1,1,1.45,6.09,6.09,0,0,1,.4,2.34,5.23,5.23,0,0,1-.89,3.26,2.59,2.59,0,0,1-2.08,1.15,1.86,1.86,0,0,1-1-.28,2.44,2.44,0,0,1-.8-.77v4Zm1.05-7.28a4.15,4.15,0,0,0,.54,2.37,1.47,1.47,0,0,0,2.59,0,4.38,4.38,0,0,0,.55-2.44,4.26,4.26,0,0,0-.54-2.4,1.42,1.42,0,0,0-2.57.06A4.33,4.33,0,0,0,401.79,529.55Z"/><path class="cls-4" d="M412.47,532.62a4.23,4.23,0,0,1-1.2.91,3,3,0,0,1-1.3.31,2.32,2.32,0,0,1-1.7-.64,2.37,2.37,0,0,1-.63-1.73,2.62,2.62,0,0,1,.3-1.27,2.27,2.27,0,0,1,.81-.87,4.2,4.2,0,0,1,1.56-.46,9,9,0,0,0,2.07-.49V528a1.85,1.85,0,0,0-.3-1.2,1.67,1.67,0,0,0-1.32-.5,1.88,1.88,0,0,0-1.21.33,2.21,2.21,0,0,0-.58,1.26l-1.13-.19a3.13,3.13,0,0,1,1-2,3.26,3.26,0,0,1,2.11-.61,3,3,0,0,1,1.68.41,1.71,1.71,0,0,1,.77,1,7,7,0,0,1,.16,1.74v1.87a24.27,24.27,0,0,0,.07,2.48,3.6,3.6,0,0,0,.3,1H412.7A3.33,3.33,0,0,1,412.47,532.62Zm-.09-3.14a7.44,7.44,0,0,1-1.89.54,3.33,3.33,0,0,0-1,.28,1.08,1.08,0,0,0-.45.45,1.37,1.37,0,0,0-.16.68,1.27,1.27,0,0,0,.36,1,1.41,1.41,0,0,0,1,.35,2,2,0,0,0,1.12-.32,1.87,1.87,0,0,0,.75-.85,3.76,3.76,0,0,0,.26-1.56Z"/><path class="cls-4" d="M415.34,533.65v-8.3h1v1.26a3.35,3.35,0,0,1,.73-1.16,1.12,1.12,0,0,1,.74-.29,2,2,0,0,1,1.18.46l-.39,1.3a1.46,1.46,0,0,0-.84-.3,1,1,0,0,0-.67.26,1.45,1.45,0,0,0-.43.71,6.79,6.79,0,0,0-.22,1.71v4.35Z"/><path class="cls-4" d="M422.27,532.39l.15,1.24a3.15,3.15,0,0,1-.86.13,1.76,1.76,0,0,1-1-.24,1.24,1.24,0,0,1-.5-.65,6.39,6.39,0,0,1-.14-1.65v-4.77h-.84v-1.1H420V523.3l1.15-.85v2.9h1.17v1.1H421.1v4.85a2.42,2.42,0,0,0,.1.86.58.58,0,0,0,.56.29A2.86,2.86,0,0,0,422.27,532.39Z"/><path class="cls-4" d="M422.91,531.16l1.14-.21a2.07,2.07,0,0,0,.56,1.3,1.94,1.94,0,0,0,2.36.06,1.23,1.23,0,0,0,.41-.94.91.91,0,0,0-.36-.77,4.64,4.64,0,0,0-1.17-.47,8.74,8.74,0,0,1-1.8-.7,2,2,0,0,1-.7-.77,2.36,2.36,0,0,1-.25-1.11,2.31,2.31,0,0,1,.68-1.72,2.58,2.58,0,0,1,1.88-.67,3,3,0,0,1,1.34.28,2.13,2.13,0,0,1,.88.73,3.3,3.3,0,0,1,.42,1.32l-1.13.19a1.34,1.34,0,0,0-1.47-1.36,1.74,1.74,0,0,0-1.12.3.94.94,0,0,0-.37.77.87.87,0,0,0,.35.72,6.46,6.46,0,0,0,1.26.5,9.4,9.4,0,0,1,1.85.72,1.8,1.8,0,0,1,.65.74,2.38,2.38,0,0,1,.23,1.1,2.58,2.58,0,0,1-.75,1.93,2.82,2.82,0,0,1-2.06.74C424.11,533.84,423.17,533,422.91,531.16Z"/><path class="cls-4" d="M430.25,533.65v-1.6h1.31v1.6a3.28,3.28,0,0,1-.27,1.46,1.82,1.82,0,0,1-.8.8l-.32-.6a1.16,1.16,0,0,0,.53-.56,2.69,2.69,0,0,0,.2-1.1Z"/><path class="cls-4" d="M441.66,530.61l1.14.18a3.79,3.79,0,0,1-1,2.26,2.58,2.58,0,0,1-1.89.79,2.7,2.7,0,0,1-2.2-1.1,5.23,5.23,0,0,1-.86-3.25,5.09,5.09,0,0,1,.87-3.24,2.73,2.73,0,0,1,2.24-1.09,2.52,2.52,0,0,1,1.77.66,3.21,3.21,0,0,1,.93,2l-1.12.2a2.39,2.39,0,0,0-.57-1.25,1.3,1.3,0,0,0-1-.42,1.69,1.69,0,0,0-1.41.75,4,4,0,0,0-.56,2.4,4.38,4.38,0,0,0,.53,2.45,1.62,1.62,0,0,0,1.37.76,1.48,1.48,0,0,0,1.12-.5A2.74,2.74,0,0,0,441.66,530.61Z"/><path class="cls-4" d="M443.34,529.5a5,5,0,0,1,.9-3.24,2.91,2.91,0,0,1,4.56,0,4.79,4.79,0,0,1,.91,3.15,5.17,5.17,0,0,1-.9,3.33,2.91,2.91,0,0,1-4.56,0A5,5,0,0,1,443.34,529.5Zm1.18,0a4,4,0,0,0,.58,2.39,1.75,1.75,0,0,0,1.45.79,1.69,1.69,0,0,0,1.4-.79,4,4,0,0,0,.58-2.39,4,4,0,0,0-.58-2.39,1.77,1.77,0,0,0-1.46-.79,1.7,1.7,0,0,0-1.4.79A4.09,4.09,0,0,0,444.52,529.5Z"/><path class="cls-4" d="M451.07,533.65v-8.3h1v1.17a2.7,2.7,0,0,1,.92-1,2.33,2.33,0,0,1,1.24-.34,2.44,2.44,0,0,1,1,.22,2.05,2.05,0,0,1,.75.56,2.21,2.21,0,0,1,.42.9,7.23,7.23,0,0,1,.14,1.71v5.1h-1.14v-5a4.28,4.28,0,0,0-.16-1.34,1.36,1.36,0,0,0-.49-.65,1.27,1.27,0,0,0-.77-.23,1.6,1.6,0,0,0-1.32.61,3.46,3.46,0,0,0-.49,2.12v4.54Z"/><path class="cls-4" d="M458.37,533.65v-8.3h1v1.17a2.76,2.76,0,0,1,.91-1,2.36,2.36,0,0,1,1.25-.34,2.44,2.44,0,0,1,1,.22,2.05,2.05,0,0,1,.75.56,2.35,2.35,0,0,1,.42.9,7.81,7.81,0,0,1,.14,1.71v5.1h-1.15v-5a4.34,4.34,0,0,0-.15-1.34,1.36,1.36,0,0,0-.49-.65,1.27,1.27,0,0,0-.77-.23A1.6,1.6,0,0,0,460,527a3.46,3.46,0,0,0-.49,2.12v4.54Z"/><path class="cls-4" d="M470.31,531l1.19.18a3.67,3.67,0,0,1-1.07,2,2.84,2.84,0,0,1-1.93.68,2.89,2.89,0,0,1-2.34-1.1,4.89,4.89,0,0,1-.89-3.17,5.19,5.19,0,0,1,.9-3.28,2.8,2.8,0,0,1,2.28-1.13,2.72,2.72,0,0,1,2.21,1.11,5.05,5.05,0,0,1,.88,3.21v.38h-5.08a3.64,3.64,0,0,0,.65,2.11,1.78,1.78,0,0,0,1.41.71C469.37,532.68,470,532.11,470.31,531Zm-3.79-2.28h3.8a3.21,3.21,0,0,0-.46-1.61,1.68,1.68,0,0,0-1.41-.77,1.72,1.72,0,0,0-1.33.64A2.88,2.88,0,0,0,466.52,528.7Z"/><path class="cls-4" d="M477.41,530.61l1.14.18a3.79,3.79,0,0,1-1,2.26,2.58,2.58,0,0,1-1.89.79,2.7,2.7,0,0,1-2.2-1.1,5.23,5.23,0,0,1-.86-3.25,5.09,5.09,0,0,1,.87-3.24,2.73,2.73,0,0,1,2.24-1.09,2.52,2.52,0,0,1,1.77.66,3.21,3.21,0,0,1,.93,2l-1.12.2a2.39,2.39,0,0,0-.57-1.25,1.3,1.3,0,0,0-1-.42,1.69,1.69,0,0,0-1.41.75,4,4,0,0,0-.56,2.4,4.38,4.38,0,0,0,.53,2.45,1.62,1.62,0,0,0,1.37.76,1.48,1.48,0,0,0,1.12-.5A2.74,2.74,0,0,0,477.41,530.61Z"/><path class="cls-4" d="M482.09,532.39l.15,1.24a3.15,3.15,0,0,1-.86.13,1.76,1.76,0,0,1-1-.24,1.24,1.24,0,0,1-.5-.65,6.39,6.39,0,0,1-.14-1.65v-4.77h-.84v-1.1h.84V523.3l1.15-.85v2.9h1.17v1.1h-1.17v4.85a2.42,2.42,0,0,0,.1.86.58.58,0,0,0,.56.29A2.86,2.86,0,0,0,482.09,532.39Z"/><path class="cls-4" d="M487.82,531l1.19.18a3.62,3.62,0,0,1-1.08,2,2.82,2.82,0,0,1-1.92.68,2.86,2.86,0,0,1-2.34-1.1,4.89,4.89,0,0,1-.9-3.17,5.13,5.13,0,0,1,.91-3.28,2.8,2.8,0,0,1,2.28-1.13,2.69,2.69,0,0,1,2.2,1.11,5.05,5.05,0,0,1,.89,3.21v.38H484a3.57,3.57,0,0,0,.65,2.11,1.77,1.77,0,0,0,1.41.71C486.88,532.68,487.48,532.11,487.82,531ZM484,528.7h3.8a3.21,3.21,0,0,0-.46-1.61,1.69,1.69,0,0,0-1.42-.77,1.72,1.72,0,0,0-1.32.64A2.88,2.88,0,0,0,484,528.7Z"/><path class="cls-4" d="M494.88,533.65v-1a2.36,2.36,0,0,1-.81.92,1.94,1.94,0,0,1-1.06.32,2.57,2.57,0,0,1-2.08-1.14,5.1,5.1,0,0,1-.88-3.2,6.56,6.56,0,0,1,.39-2.4,3.22,3.22,0,0,1,1-1.46,2.35,2.35,0,0,1,1.44-.48,2,2,0,0,1,1.06.3,2.51,2.51,0,0,1,.81.84v-4.1H496v11.45Zm-3.65-4.14a4.07,4.07,0,0,0,.56,2.39,1.58,1.58,0,0,0,1.3.78,1.55,1.55,0,0,0,1.27-.75,3.9,3.9,0,0,0,.54-2.27,4.66,4.66,0,0,0-.54-2.54,1.6,1.6,0,0,0-1.36-.8,1.52,1.52,0,0,0-1.25.77A4.37,4.37,0,0,0,491.23,529.51Z"/><path class="cls-4" d="M504,532.39l.15,1.24a3.1,3.1,0,0,1-.86.13,1.76,1.76,0,0,1-1-.24,1.24,1.24,0,0,1-.5-.65,6.39,6.39,0,0,1-.14-1.65v-4.77h-.84v-1.1h.84V523.3l1.15-.85v2.9H504v1.1h-1.17v4.85a2.42,2.42,0,0,0,.1.86.58.58,0,0,0,.56.29A2.86,2.86,0,0,0,504,532.39Z"/><path class="cls-4" d="M504.62,529.5a5,5,0,0,1,.91-3.24,2.91,2.91,0,0,1,4.56,0,4.79,4.79,0,0,1,.91,3.15,5.17,5.17,0,0,1-.9,3.33,2.91,2.91,0,0,1-4.56,0A5,5,0,0,1,504.62,529.5Zm1.18,0a4,4,0,0,0,.59,2.39,1.75,1.75,0,0,0,1.45.79,1.69,1.69,0,0,0,1.4-.79,4,4,0,0,0,.58-2.39,4,4,0,0,0-.59-2.39,1.74,1.74,0,0,0-1.45-.79,1.69,1.69,0,0,0-1.4.79A4.08,4.08,0,0,0,505.8,529.5Z"/><path class="cls-4" d="M378.81,552.85V541.4H380v11.45Z"/><path class="cls-4" d="M381.77,543V541.4h1.14V543Zm0,9.84v-8.3h1.14v8.3Z"/><path class="cls-4" d="M385.73,552.85h-1.07V541.4h1.16v4.08a2.77,2.77,0,0,1,.83-.84,2,2,0,0,1,1-.28,2.4,2.4,0,0,1,1.45.48,3.26,3.26,0,0,1,1,1.45,6.28,6.28,0,0,1,.39,2.35,5.22,5.22,0,0,1-.88,3.25,2.59,2.59,0,0,1-2.07,1.15,2,2,0,0,1-1.07-.31,2.65,2.65,0,0,1-.82-.92Zm0-4.21a5.9,5.9,0,0,0,.23,1.93,2.13,2.13,0,0,0,.67,1,1.48,1.48,0,0,0,.95.34,1.56,1.56,0,0,0,1.27-.8,4.24,4.24,0,0,0,.55-2.4,4.29,4.29,0,0,0-.53-2.39,1.45,1.45,0,0,0-2.58,0A4,4,0,0,0,385.72,548.64Z"/><path class="cls-4" d="M392,552.85v-8.3h1v1.26a3.35,3.35,0,0,1,.73-1.16,1.12,1.12,0,0,1,.74-.29,2,2,0,0,1,1.18.46l-.39,1.3a1.43,1.43,0,0,0-.83-.3,1,1,0,0,0-.68.26,1.45,1.45,0,0,0-.43.71,6.79,6.79,0,0,0-.22,1.71v4.35Z"/><path class="cls-4" d="M400.77,551.83a4.1,4.1,0,0,1-1.2.9,3,3,0,0,1-1.3.31,2.3,2.3,0,0,1-1.69-.64,2.37,2.37,0,0,1-.63-1.73,2.62,2.62,0,0,1,.29-1.27,2.27,2.27,0,0,1,.81-.87,4.33,4.33,0,0,1,1.57-.46,9,9,0,0,0,2.06-.49v-.36a1.78,1.78,0,0,0-.31-1.2,1.64,1.64,0,0,0-1.32-.5,1.85,1.85,0,0,0-1.2.33,2.21,2.21,0,0,0-.59,1.26l-1.13-.19a3.18,3.18,0,0,1,1-1.95,3.27,3.27,0,0,1,2.11-.61,3,3,0,0,1,1.68.41,1.7,1.7,0,0,1,.77,1,7,7,0,0,1,.16,1.74v1.87a23.12,23.12,0,0,0,.08,2.48,3.94,3.94,0,0,0,.29,1H401A3.64,3.64,0,0,1,400.77,551.83Zm-.09-3.15a7.34,7.34,0,0,1-1.88.54,3.33,3.33,0,0,0-1,.28,1.21,1.21,0,0,0-.45.45,1.51,1.51,0,0,0-.16.68,1.24,1.24,0,0,0,.37,1,1.37,1.37,0,0,0,1,.35,2,2,0,0,0,1.88-1.17,3.78,3.78,0,0,0,.25-1.56Z"/><path class="cls-4" d="M403.64,552.85v-8.3h1v1.26a3.67,3.67,0,0,1,.73-1.16,1.12,1.12,0,0,1,.75-.29,2,2,0,0,1,1.18.46l-.39,1.3a1.49,1.49,0,0,0-.84-.3,1,1,0,0,0-.67.26,1.32,1.32,0,0,0-.43.71,6.36,6.36,0,0,0-.22,1.71v4.35Z"/><path class="cls-4" d="M408,543V541.4h1.15V543Zm0,9.84v-8.3h1.15v8.3Z"/><path class="cls-4" d="M415.57,550.18l1.19.18a3.62,3.62,0,0,1-1.08,2,2.82,2.82,0,0,1-1.92.68,2.86,2.86,0,0,1-2.34-1.1,4.89,4.89,0,0,1-.9-3.17,5.13,5.13,0,0,1,.91-3.28,2.8,2.8,0,0,1,2.28-1.13,2.69,2.69,0,0,1,2.2,1.11,5.05,5.05,0,0,1,.89,3.21v.38h-5.08a3.57,3.57,0,0,0,.65,2.11,1.77,1.77,0,0,0,1.41.71C414.63,551.88,415.23,551.31,415.57,550.18Zm-3.79-2.28h3.8a3.21,3.21,0,0,0-.46-1.61,1.68,1.68,0,0,0-2.74-.12A2.83,2.83,0,0,0,411.78,547.9Z"/><path class="cls-4" d="M417.77,550.36l1.15-.21a2,2,0,0,0,.56,1.3,1.93,1.93,0,0,0,2.35.06,1.19,1.19,0,0,0,.41-.94.93.93,0,0,0-.35-.77,4.64,4.64,0,0,0-1.17-.47,8.28,8.28,0,0,1-1.8-.7,2,2,0,0,1-.7-.77,2.36,2.36,0,0,1-.25-1.11,2.31,2.31,0,0,1,.68-1.72,2.58,2.58,0,0,1,1.88-.67,3.07,3.07,0,0,1,1.33.28,2,2,0,0,1,.88.73,3,3,0,0,1,.42,1.32l-1.12.19a1.35,1.35,0,0,0-1.48-1.36,1.71,1.71,0,0,0-1.11.3.94.94,0,0,0-.37.77.87.87,0,0,0,.35.72,6.55,6.55,0,0,0,1.25.5,9.14,9.14,0,0,1,1.85.72,1.89,1.89,0,0,1,.66.74,2.53,2.53,0,0,1,.23,1.11,2.57,2.57,0,0,1-.75,1.92,2.82,2.82,0,0,1-2.06.74C419,553,418,552.15,417.77,550.36Z"/><path class="cls-4" d="M428,548.7a5,5,0,0,1,.9-3.24,2.91,2.91,0,0,1,4.56,0,4.79,4.79,0,0,1,.92,3.15,5.17,5.17,0,0,1-.9,3.33,2.92,2.92,0,0,1-4.57,0A5,5,0,0,1,428,548.7Zm1.18,0a4,4,0,0,0,.59,2.39,1.74,1.74,0,0,0,1.45.79,1.7,1.7,0,0,0,1.4-.79,4.11,4.11,0,0,0,.58-2.39,4,4,0,0,0-.59-2.39,1.74,1.74,0,0,0-1.45-.79,1.69,1.69,0,0,0-1.4.79A4,4,0,0,0,429.17,548.7Z"/><path class="cls-4" d="M436.05,552.85v-7.2h-1v-1.1h1v-.88a4.2,4.2,0,0,1,.2-1.47,1.56,1.56,0,0,1,.62-.74,2,2,0,0,1,1.06-.26,4.37,4.37,0,0,1,1.08.15l-.17,1.22a3.39,3.39,0,0,0-.68-.08.9.9,0,0,0-.74.27,1.69,1.69,0,0,0-.22,1v.76h1.32v1.1H437.2v7.2Z"/><path class="cls-4" d="M443.05,552.85V541.4h1.15v6.54l2.73-3.39h1.5l-2.61,3.08,2.86,5.22h-1.41L445,548.6l-.81,1v3.29Z"/><path class="cls-4" d="M449.59,552.85v-8.3h1v1.17a2.87,2.87,0,0,1,.92-1,2.43,2.43,0,0,1,2.25-.12,2.05,2.05,0,0,1,.75.56,2.22,2.22,0,0,1,.43.9,7.81,7.81,0,0,1,.14,1.71v5.1H454V547.8a4,4,0,0,0-.16-1.34,1.27,1.27,0,0,0-1.25-.88,1.59,1.59,0,0,0-1.32.61,3.45,3.45,0,0,0-.5,2.12v4.54Z"/><path class="cls-4" d="M456.45,548.7a5,5,0,0,1,.9-3.24,2.91,2.91,0,0,1,4.56,0,4.79,4.79,0,0,1,.91,3.15,5.17,5.17,0,0,1-.9,3.33,2.91,2.91,0,0,1-4.56,0A5,5,0,0,1,456.45,548.7Zm1.17,0a4,4,0,0,0,.59,2.39,1.75,1.75,0,0,0,1.45.79,1.69,1.69,0,0,0,1.4-.79,4,4,0,0,0,.58-2.39,3.92,3.92,0,0,0-.59-2.39,1.74,1.74,0,0,0-1.45-.79,1.69,1.69,0,0,0-1.4.79A4.08,4.08,0,0,0,457.62,548.7Z"/><path class="cls-4" d="M465.43,552.85l-2.09-8.3h1.2l1.08,4.79.4,1.78.36-1.71,1.08-4.86h1.19l1,4.81L470,551l.39-1.6,1.16-4.8h1.13l-2.12,8.3h-1.2l-1.09-5-.26-1.41-1.37,6.38Z"/><path class="cls-4" d="M473.61,552.85V541.4h1.15v11.45Z"/><path class="cls-4" d="M481.21,550.18l1.19.18a3.62,3.62,0,0,1-1.08,2,2.82,2.82,0,0,1-1.92.68,2.88,2.88,0,0,1-2.34-1.1,4.89,4.89,0,0,1-.9-3.17,5.13,5.13,0,0,1,.91-3.28,2.8,2.8,0,0,1,2.28-1.13,2.69,2.69,0,0,1,2.2,1.11,5.05,5.05,0,0,1,.89,3.21v.38h-5.08a3.57,3.57,0,0,0,.65,2.11,1.77,1.77,0,0,0,1.41.71C480.27,551.88,480.87,551.31,481.21,550.18Zm-3.79-2.28h3.8a3.21,3.21,0,0,0-.46-1.61,1.68,1.68,0,0,0-2.74-.12A2.83,2.83,0,0,0,477.42,547.9Z"/><path class="cls-4" d="M488.27,552.85V551.8a2.36,2.36,0,0,1-.81.92,1.94,1.94,0,0,1-1.06.32,2.57,2.57,0,0,1-2.08-1.14,5.1,5.1,0,0,1-.88-3.2,6.56,6.56,0,0,1,.39-2.4,3.22,3.22,0,0,1,1-1.46,2.38,2.38,0,0,1,1.45-.48,1.87,1.87,0,0,1,1.05.31,2.39,2.39,0,0,1,.81.83v-4.1h1.16v11.45Zm-3.65-4.14a4.07,4.07,0,0,0,.56,2.39,1.58,1.58,0,0,0,1.3.78,1.55,1.55,0,0,0,1.27-.75,3.88,3.88,0,0,0,.54-2.27,4.66,4.66,0,0,0-.54-2.54,1.6,1.6,0,0,0-1.36-.8,1.52,1.52,0,0,0-1.25.77A4.37,4.37,0,0,0,484.62,548.71Z"/><path class="cls-4" d="M490.93,553.54l1.12.2a1.48,1.48,0,0,0,.47,1,1.65,1.65,0,0,0,1.09.33,1.9,1.9,0,0,0,1.21-.36,1.91,1.91,0,0,0,.61-1.09,10,10,0,0,0,.1-1.84,2.68,2.68,0,0,1-.84.81,2,2,0,0,1-1,.27,2.51,2.51,0,0,1-2-1,5.07,5.07,0,0,1-.92-3.18,6.23,6.23,0,0,1,.41-2.34,3.26,3.26,0,0,1,1.07-1.47,2.51,2.51,0,0,1,1.48-.47,2.05,2.05,0,0,1,1.09.3,2.73,2.73,0,0,1,.88.88v-1h1.07v7.17a8.28,8.28,0,0,1-.32,2.73,2.62,2.62,0,0,1-1,1.29,3,3,0,0,1-1.71.48,2.72,2.72,0,0,1-2-.72A2.52,2.52,0,0,1,490.93,553.54Zm.95-5a4.16,4.16,0,0,0,.54,2.39,1.59,1.59,0,0,0,1.33.75,1.62,1.62,0,0,0,1.33-.73,4,4,0,0,0,.54-2.35,3.91,3.91,0,0,0-.56-2.33,1.67,1.67,0,0,0-1.37-.76,1.56,1.56,0,0,0-1.26.76A3.86,3.86,0,0,0,491.88,548.55Z"/><path class="cls-4" d="M503.1,550.18l1.19.18a3.62,3.62,0,0,1-1.08,2,2.82,2.82,0,0,1-1.92.68,2.89,2.89,0,0,1-2.34-1.1,4.89,4.89,0,0,1-.9-3.17,5.19,5.19,0,0,1,.91-3.28,2.8,2.8,0,0,1,2.28-1.13,2.72,2.72,0,0,1,2.21,1.11,5.11,5.11,0,0,1,.88,3.21v.38h-5.08a3.57,3.57,0,0,0,.65,2.11,1.78,1.78,0,0,0,1.41.71C502.16,551.88,502.76,551.31,503.1,550.18Zm-3.79-2.28h3.8a3.21,3.21,0,0,0-.46-1.61,1.68,1.68,0,0,0-2.74-.12A2.83,2.83,0,0,0,499.31,547.9Z"/><path class="cls-4" d="M506.09,552.85v-1.6h1.31v1.6a3.13,3.13,0,0,1-.28,1.46,1.8,1.8,0,0,1-.79.8l-.32-.6a1.2,1.2,0,0,0,.53-.56,2.72,2.72,0,0,0,.19-1.1Z"/><path class="cls-4" d="M378.7,24.64v-1.3l6.22-3.22v1.39L380,24l4.93,2.49v1.4Z"/><path class="cls-4" d="M386.52,29.65V18.2h1.14v4.1a2.82,2.82,0,0,1,.92-.85,2.29,2.29,0,0,1,1.13-.29,2.2,2.2,0,0,1,1.72.7,3.87,3.87,0,0,1,.62,2.53v5.26h-1.14V24.39a2.45,2.45,0,0,0-.39-1.55,1.27,1.27,0,0,0-1-.46,1.64,1.64,0,0,0-1.28.6,3.28,3.28,0,0,0-.53,2.13v4.54Z"/><path class="cls-4" d="M398.46,27l1.19.18a3.62,3.62,0,0,1-1.08,2,2.82,2.82,0,0,1-1.92.68,2.88,2.88,0,0,1-2.34-1.1,4.89,4.89,0,0,1-.9-3.17,5.13,5.13,0,0,1,.91-3.28,2.8,2.8,0,0,1,2.28-1.13,2.69,2.69,0,0,1,2.2,1.11,5.05,5.05,0,0,1,.89,3.21v.38H394.6a3.57,3.57,0,0,0,.65,2.11,1.77,1.77,0,0,0,1.41.71C397.52,28.68,398.12,28.11,398.46,27Zm-3.79-2.28h3.8a3.21,3.21,0,0,0-.46-1.61,1.69,1.69,0,0,0-1.42-.77,1.72,1.72,0,0,0-1.32.64A2.88,2.88,0,0,0,394.67,24.7Z"/><path class="cls-4" d="M405.54,28.62a4.23,4.23,0,0,1-1.2.91,3,3,0,0,1-1.3.31,2.32,2.32,0,0,1-1.7-.64,2.37,2.37,0,0,1-.63-1.73,2.62,2.62,0,0,1,.3-1.27,2.27,2.27,0,0,1,.81-.87,4.2,4.2,0,0,1,1.56-.46,9,9,0,0,0,2.07-.49V24a1.85,1.85,0,0,0-.3-1.2,1.67,1.67,0,0,0-1.32-.5,1.88,1.88,0,0,0-1.21.33,2.21,2.21,0,0,0-.58,1.26l-1.13-.19a3.13,3.13,0,0,1,1-1.95,3.26,3.26,0,0,1,2.11-.61,3,3,0,0,1,1.68.41,1.71,1.71,0,0,1,.77,1,7,7,0,0,1,.16,1.74v1.87a24.27,24.27,0,0,0,.07,2.48,3.6,3.6,0,0,0,.3,1h-1.21A3.64,3.64,0,0,1,405.54,28.62Zm-.09-3.14a7.44,7.44,0,0,1-1.89.54,3.33,3.33,0,0,0-1,.28,1.08,1.08,0,0,0-.45.45,1.37,1.37,0,0,0-.16.68,1.27,1.27,0,0,0,.36.95,1.41,1.41,0,0,0,1,.35,2,2,0,0,0,1.12-.32,2,2,0,0,0,.76-.85,4,4,0,0,0,.25-1.56Z"/><path class="cls-4" d="M412.81,29.65v-1a2.34,2.34,0,0,1-.8.92,1.94,1.94,0,0,1-1.06.32,2.58,2.58,0,0,1-2.09-1.14,5.16,5.16,0,0,1-.88-3.2,6.56,6.56,0,0,1,.39-2.4,3.23,3.23,0,0,1,1.05-1.46,2.35,2.35,0,0,1,1.44-.48,2,2,0,0,1,1.06.3,2.71,2.71,0,0,1,.81.84V18.2h1.16V29.65Zm-3.65-4.14a4.15,4.15,0,0,0,.56,2.39,1.61,1.61,0,0,0,1.3.78,1.56,1.56,0,0,0,1.28-.75,3.9,3.9,0,0,0,.54-2.27,4.66,4.66,0,0,0-.54-2.54,1.6,1.6,0,0,0-1.36-.8,1.5,1.5,0,0,0-1.25.77A4.36,4.36,0,0,0,409.16,25.51Z"/><path class="cls-4" d="M421.77,24.64l-6.22,3.24v-1.4L420.48,24l-4.93-2.48V20.12l6.22,3.22Z"/><path class="cls-4" d="M202.87,533.83h-1.16v-9a6.13,6.13,0,0,1-1.07,1,7.84,7.84,0,0,1-1.23.74v-1.36a7.29,7.29,0,0,0,1.68-1.34,5,5,0,0,0,1-1.54h.75Z"/><path class="cls-4" d="M209.2,533.83h-1.15v-9a6.52,6.52,0,0,1-1.07,1,7.46,7.46,0,0,1-1.24.74v-1.36a7.13,7.13,0,0,0,1.69-1.34,5,5,0,0,0,1-1.54h.75Z"/><path class="cls-4" d="M218.13,525.18l-1.14.11a2.79,2.79,0,0,0-.49-1.26,1.39,1.39,0,0,0-1.11-.54c-.67,0-1.2.42-1.61,1.25a7.7,7.7,0,0,0-.53,3.19,3,3,0,0,1,1-1.14,2.31,2.31,0,0,1,1.27-.39,2.45,2.45,0,0,1,1.95,1,4.08,4.08,0,0,1,.84,2.7,5,5,0,0,1-.42,2.08,3.1,3.1,0,0,1-1.08,1.38,2.48,2.48,0,0,1-1.44.45,2.81,2.81,0,0,1-2.35-1.28,7.59,7.59,0,0,1-.92-4.28,8.84,8.84,0,0,1,1-4.73,2.81,2.81,0,0,1,2.42-1.41,2.46,2.46,0,0,1,1.79.73A3.45,3.45,0,0,1,218.13,525.18Zm-4.7,4.94a3.17,3.17,0,0,0,.59,2,1.69,1.69,0,0,0,1.36.75,1.53,1.53,0,0,0,1.21-.71,3.14,3.14,0,0,0,.54-1.95,3,3,0,0,0-.54-1.89,1.58,1.58,0,0,0-1.29-.67,1.67,1.67,0,0,0-1.31.66A2.76,2.76,0,0,0,213.43,530.12Z"/><path class="cls-4" d="M918.86,281.71v-8.29h1v1.15a2.58,2.58,0,0,1,.88-1,2.15,2.15,0,0,1,1.18-.35,1.94,1.94,0,0,1,1.21.37,2,2,0,0,1,.71,1.07,3.14,3.14,0,0,1,.93-1.08,2.08,2.08,0,0,1,1.18-.36,1.91,1.91,0,0,1,1.54.66,3.25,3.25,0,0,1,.57,2.13v5.69h-1.15v-5.23a4.52,4.52,0,0,0-.13-1.26,1.2,1.2,0,0,0-.42-.58,1.16,1.16,0,0,0-.65-.2,1.49,1.49,0,0,0-1.22.59,2.92,2.92,0,0,0-.47,1.86v4.82H922.9v-5.39a2.52,2.52,0,0,0-.32-1.46,1,1,0,0,0-.87-.42,1.45,1.45,0,0,0-1.25.64,4.26,4.26,0,0,0-.45,2.32v4.31Z"/><path class="cls-4" d="M934.21,280.69a4.48,4.48,0,0,1-1.2.91,3,3,0,0,1-1.3.3,2.25,2.25,0,0,1-1.69-.64,2.32,2.32,0,0,1-.64-1.73,2.62,2.62,0,0,1,.3-1.27,2.27,2.27,0,0,1,.81-.87,4.54,4.54,0,0,1,1.56-.46,9,9,0,0,0,2.07-.49v-.36a1.81,1.81,0,0,0-.3-1.19,1.63,1.63,0,0,0-1.32-.5,1.83,1.83,0,0,0-1.2.33,2.18,2.18,0,0,0-.59,1.25l-1.13-.19a3.15,3.15,0,0,1,1-1.94,3.2,3.2,0,0,1,2.11-.61,3,3,0,0,1,1.68.4,1.73,1.73,0,0,1,.77,1,6.87,6.87,0,0,1,.16,1.73v1.88a23.12,23.12,0,0,0,.08,2.48,3.51,3.51,0,0,0,.29,1h-1.2A3.48,3.48,0,0,1,934.21,280.69Zm-.09-3.14a7,7,0,0,1-1.89.53,3.28,3.28,0,0,0-1,.29,1.08,1.08,0,0,0-.45.45,1.34,1.34,0,0,0-.16.68,1.22,1.22,0,0,0,.37.94,1.37,1.37,0,0,0,1,.36,2.06,2.06,0,0,0,1.12-.32,2,2,0,0,0,.76-.86,3.86,3.86,0,0,0,.25-1.55Z"/><path class="cls-4" d="M937.1,281.71V270.26h1.15v6.54l2.74-3.38h1.49l-2.6,3.08,2.86,5.21h-1.42l-2.26-4.25-.81,1v3.29Z"/><path class="cls-4" d="M943.64,271.88v-1.62h1.15v1.62Zm0,9.83v-8.29h1.15v8.29Z"/><path class="cls-4" d="M946.55,281.71v-8.29h1v1.17a2.63,2.63,0,0,1,.92-1,2.27,2.27,0,0,1,1.24-.34,2.37,2.37,0,0,1,1,.21,2.19,2.19,0,0,1,.75.57,2.36,2.36,0,0,1,.43.9,7.77,7.77,0,0,1,.14,1.7v5.1h-1.15v-5a4,4,0,0,0-.16-1.34,1.33,1.33,0,0,0-.48-.65,1.37,1.37,0,0,0-.77-.23,1.59,1.59,0,0,0-1.32.62,3.45,3.45,0,0,0-.5,2.12v4.53Z"/><path class="cls-4" d="M953.62,282.4l1.13.2a1.46,1.46,0,0,0,.47,1,1.62,1.62,0,0,0,1.08.32,1.88,1.88,0,0,0,1.21-.36,1.8,1.8,0,0,0,.61-1.08,9.8,9.8,0,0,0,.11-1.84,2.67,2.67,0,0,1-.85.8,2,2,0,0,1-1,.27,2.46,2.46,0,0,1-2-1,5.07,5.07,0,0,1-.92-3.18,6.15,6.15,0,0,1,.4-2.33,3.27,3.27,0,0,1,1.07-1.47,2.51,2.51,0,0,1,1.48-.47,2.18,2.18,0,0,1,1.1.29,2.87,2.87,0,0,1,.88.89v-1h1.06v7.17a8.35,8.35,0,0,1-.31,2.73,2.67,2.67,0,0,1-1,1.29,3,3,0,0,1-1.71.47,2.77,2.77,0,0,1-2-.71A2.62,2.62,0,0,1,953.62,282.4Zm1-5a4.18,4.18,0,0,0,.54,2.39,1.59,1.59,0,0,0,1.32.75,1.62,1.62,0,0,0,1.33-.74,3.92,3.92,0,0,0,.55-2.34,4,4,0,0,0-.56-2.33,1.67,1.67,0,0,0-1.37-.76,1.56,1.56,0,0,0-1.27.76A3.92,3.92,0,0,0,954.58,277.42Z"/><path class="cls-4" d="M967.36,280.46l.16,1.24a3.61,3.61,0,0,1-.86.12,1.72,1.72,0,0,1-1-.24,1.14,1.14,0,0,1-.51-.65,6.43,6.43,0,0,1-.13-1.65v-4.77h-.85v-1.09h.85v-2.06l1.15-.84v2.9h1.16v1.09H966.2v4.85a2.26,2.26,0,0,0,.1.87.56.56,0,0,0,.55.28A3.92,3.92,0,0,0,967.36,280.46Z"/><path class="cls-4" d="M968.45,281.71V270.26h1.14v4.11a3,3,0,0,1,.92-.86,2.28,2.28,0,0,1,1.13-.28,2.22,2.22,0,0,1,1.72.69,3.9,3.9,0,0,1,.62,2.54v5.25h-1.14v-5.25a2.43,2.43,0,0,0-.39-1.55,1.28,1.28,0,0,0-1.05-.47,1.64,1.64,0,0,0-1.28.6,3.28,3.28,0,0,0-.53,2.13v4.54Z"/><path class="cls-4" d="M980.39,279l1.19.18a3.61,3.61,0,0,1-1.08,2,3.06,3.06,0,0,1-4.26-.43,4.86,4.86,0,0,1-.9-3.16,5.09,5.09,0,0,1,.91-3.28,2.8,2.8,0,0,1,2.28-1.13,2.69,2.69,0,0,1,2.2,1.11,5.05,5.05,0,0,1,.89,3.21v.37h-5.08a3.55,3.55,0,0,0,.65,2.11,1.75,1.75,0,0,0,1.41.72Q979.88,280.75,980.39,279Zm-3.79-2.27h3.8a3.18,3.18,0,0,0-.46-1.61,1.66,1.66,0,0,0-1.42-.77,1.68,1.68,0,0,0-1.32.64A2.88,2.88,0,0,0,976.6,276.77Z"/><path class="cls-4" d="M986.65,281.71V270.26h1.15v11.45Z"/><path class="cls-4" d="M989.6,271.88v-1.62h1.15v1.62Zm0,9.83v-8.29h1.15v8.29Z"/><path class="cls-4" d="M992.52,281.71v-8.29h1v1.17a2.63,2.63,0,0,1,.92-1,2.27,2.27,0,0,1,1.24-.34,2.37,2.37,0,0,1,1,.21,2.19,2.19,0,0,1,.75.57,2.36,2.36,0,0,1,.43.9,7.77,7.77,0,0,1,.14,1.7v5.1h-1.15v-5a4,4,0,0,0-.16-1.34,1.33,1.33,0,0,0-.48-.65,1.37,1.37,0,0,0-.77-.23,1.59,1.59,0,0,0-1.32.62,3.45,3.45,0,0,0-.5,2.12v4.53Z"/><path class="cls-4" d="M999.84,281.71V270.26H1001v6.54l2.74-3.38h1.49l-2.6,3.08,2.86,5.21h-1.41l-2.26-4.25-.82,1v3.29Z"/><path class="cls-4" d="M1005.93,279.23l1.15-.22a2.09,2.09,0,0,0,.55,1.31,1.69,1.69,0,0,0,1.2.43,1.65,1.65,0,0,0,1.16-.38,1.21,1.21,0,0,0,.41-.94.91.91,0,0,0-.35-.76,4.27,4.27,0,0,0-1.17-.47,8.84,8.84,0,0,1-1.8-.7,2,2,0,0,1-.7-.78,2.51,2.51,0,0,1,.42-2.83,2.62,2.62,0,0,1,1.89-.66,3.1,3.1,0,0,1,1.33.27,2.16,2.16,0,0,1,.88.74,3.2,3.2,0,0,1,.42,1.32l-1.12.19a1.35,1.35,0,0,0-1.48-1.36,1.76,1.76,0,0,0-1.12.3.94.94,0,0,0-.37.76.83.83,0,0,0,.36.72,5.17,5.17,0,0,0,1.25.5,9.9,9.9,0,0,1,1.85.73,1.77,1.77,0,0,1,.65.73,2.39,2.39,0,0,1,.24,1.11,2.58,2.58,0,0,1-.76,1.93,2.79,2.79,0,0,1-2.05.73C1007.14,281.9,1006.19,281,1005.93,279.23Z"/><path class="cls-4" d="M918.85,300.91v-8.29h1v1.17a2.63,2.63,0,0,1,.92-1,2.24,2.24,0,0,1,1.24-.34,2.4,2.4,0,0,1,1,.21,2.08,2.08,0,0,1,.75.57,2.21,2.21,0,0,1,.42.9,7.08,7.08,0,0,1,.15,1.7v5.1h-1.15v-5.05a4.28,4.28,0,0,0-.16-1.34,1.3,1.3,0,0,0-.49-.65,1.34,1.34,0,0,0-.77-.23,1.61,1.61,0,0,0-1.32.62,3.46,3.46,0,0,0-.49,2.12v4.53Z"/><path class="cls-4" d="M930.8,298.24l1.18.18a3.51,3.51,0,0,1-1.07,2,2.79,2.79,0,0,1-1.93.68,2.89,2.89,0,0,1-2.34-1.1,5,5,0,0,1-.89-3.17,5.14,5.14,0,0,1,.9-3.27,2.79,2.79,0,0,1,2.29-1.13,2.71,2.71,0,0,1,2.2,1.11,5.05,5.05,0,0,1,.88,3.21v.37h-5.08a3.48,3.48,0,0,0,.65,2.11,1.72,1.72,0,0,0,1.4.71C929.86,299.94,930.46,299.38,930.8,298.24ZM927,296h3.79a3.08,3.08,0,0,0-.46-1.61,1.66,1.66,0,0,0-2.73-.13A2.82,2.82,0,0,0,927,296Z"/><path class="cls-4" d="M937.9,297.87l1.13.18a3.82,3.82,0,0,1-1,2.27,2.57,2.57,0,0,1-1.89.78A2.7,2.7,0,0,1,934,300a5.2,5.2,0,0,1-.86-3.24,5.1,5.1,0,0,1,.87-3.25,2.75,2.75,0,0,1,2.24-1.08,2.59,2.59,0,0,1,1.78.65,3.23,3.23,0,0,1,.92,2l-1.11.21a2.47,2.47,0,0,0-.57-1.26,1.32,1.32,0,0,0-1-.42,1.7,1.7,0,0,0-1.41.76,4.06,4.06,0,0,0-.56,2.39,4.35,4.35,0,0,0,.54,2.46,1.61,1.61,0,0,0,1.37.75,1.46,1.46,0,0,0,1.12-.5A2.74,2.74,0,0,0,937.9,297.87Z"/><path class="cls-4" d="M944.66,298.24l1.18.18a3.51,3.51,0,0,1-1.07,2,2.79,2.79,0,0,1-1.93.68,2.89,2.89,0,0,1-2.34-1.1,5,5,0,0,1-.89-3.17,5.14,5.14,0,0,1,.9-3.27,2.79,2.79,0,0,1,2.29-1.13,2.71,2.71,0,0,1,2.2,1.11,5.05,5.05,0,0,1,.88,3.21v.37H940.8a3.48,3.48,0,0,0,.65,2.11,1.72,1.72,0,0,0,1.4.71C943.72,299.94,944.32,299.38,944.66,298.24ZM940.87,296h3.79a3.08,3.08,0,0,0-.46-1.61,1.66,1.66,0,0,0-2.73-.13A2.76,2.76,0,0,0,940.87,296Z"/><path class="cls-4" d="M946.86,298.43l1.15-.22a2.09,2.09,0,0,0,.55,1.31,1.69,1.69,0,0,0,1.2.42,1.65,1.65,0,0,0,1.16-.37,1.21,1.21,0,0,0,.41-.94.91.91,0,0,0-.35-.76,4.07,4.07,0,0,0-1.18-.47,8.23,8.23,0,0,1-1.79-.71,2,2,0,0,1-.71-.77,2.44,2.44,0,0,1-.25-1.1,2.34,2.34,0,0,1,.68-1.73,2.62,2.62,0,0,1,1.89-.66,3.1,3.1,0,0,1,1.33.27,2.15,2.15,0,0,1,.88.74,3.2,3.2,0,0,1,.42,1.32l-1.13.18a1.35,1.35,0,0,0-1.47-1.36,1.76,1.76,0,0,0-1.12.3,1,1,0,0,0-.37.77.83.83,0,0,0,.36.72,5.66,5.66,0,0,0,1.25.5,9.22,9.22,0,0,1,1.85.73,1.77,1.77,0,0,1,.65.73,2.39,2.39,0,0,1,.24,1.11,2.58,2.58,0,0,1-.76,1.93,2.79,2.79,0,0,1-2,.73C948.07,301.1,947.12,300.21,946.86,298.43Z"/><path class="cls-4" d="M953.42,298.43l1.15-.22a2.09,2.09,0,0,0,.55,1.31,1.7,1.7,0,0,0,1.2.42,1.65,1.65,0,0,0,1.16-.37,1.21,1.21,0,0,0,.41-.94.91.91,0,0,0-.35-.76,4,4,0,0,0-1.17-.47,8.15,8.15,0,0,1-1.8-.71,1.93,1.93,0,0,1-.7-.77,2.54,2.54,0,0,1,.43-2.83,2.58,2.58,0,0,1,1.88-.66,3.1,3.1,0,0,1,1.33.27,2.08,2.08,0,0,1,.88.74,3.2,3.2,0,0,1,.42,1.32l-1.12.18a1.36,1.36,0,0,0-1.48-1.36,1.76,1.76,0,0,0-1.12.3,1,1,0,0,0-.36.77.82.82,0,0,0,.35.72,5.91,5.91,0,0,0,1.25.5,9,9,0,0,1,1.85.73,1.87,1.87,0,0,1,.66.73,2.53,2.53,0,0,1,.23,1.11,2.61,2.61,0,0,1-.75,1.93,2.84,2.84,0,0,1-2.06.73C954.63,301.1,953.68,300.21,953.42,298.43Z"/><path class="cls-4" d="M964.86,299.89a4.64,4.64,0,0,1-1.2.91,3,3,0,0,1-1.3.3,2.28,2.28,0,0,1-1.7-.64,2.36,2.36,0,0,1-.63-1.73,2.62,2.62,0,0,1,.3-1.27,2.27,2.27,0,0,1,.81-.87,4.2,4.2,0,0,1,1.56-.46,9,9,0,0,0,2.07-.49v-.36a1.85,1.85,0,0,0-.3-1.2,1.67,1.67,0,0,0-1.32-.5,1.83,1.83,0,0,0-1.2.34,2.12,2.12,0,0,0-.59,1.25l-1.13-.19a3.07,3.07,0,0,1,1-1.94,3.2,3.2,0,0,1,2.11-.61,3,3,0,0,1,1.68.4,1.73,1.73,0,0,1,.77,1,6.87,6.87,0,0,1,.16,1.73v1.88a24.27,24.27,0,0,0,.07,2.48,3.53,3.53,0,0,0,.3,1h-1.21A3.49,3.49,0,0,1,964.86,299.89Zm-.09-3.14a7.5,7.5,0,0,1-1.89.53,3.28,3.28,0,0,0-1,.29,1,1,0,0,0-.45.45,1.33,1.33,0,0,0-.16.67,1.26,1.26,0,0,0,.36.95,1.41,1.41,0,0,0,1,.36,2.06,2.06,0,0,0,1.12-.32,2,2,0,0,0,.76-.86,3.88,3.88,0,0,0,.25-1.56Z"/><path class="cls-4" d="M967.73,300.91v-8.29h1v1.25a3.35,3.35,0,0,1,.73-1.16,1.1,1.1,0,0,1,.74-.28,2,2,0,0,1,1.18.45l-.39,1.31a1.38,1.38,0,0,0-.83-.31,1.05,1.05,0,0,0-.68.26,1.44,1.44,0,0,0-.43.72,6.68,6.68,0,0,0-.21,1.71v4.34Z"/><path class="cls-4" d="M972.05,304.11l-.12-1.32a2.26,2.26,0,0,0,.66.12,1.11,1.11,0,0,0,.6-.15,1.08,1.08,0,0,0,.4-.46c0-.07.19-.53.45-1.37l-2.59-8.31h1.25l1.42,4.8c.17.6.34,1.24.49,1.92.13-.65.29-1.28.47-1.89l1.45-4.83h1.16l-2.58,8.43a14.35,14.35,0,0,1-.81,2.2,2,2,0,0,1-.66.79,1.53,1.53,0,0,1-.84.24A2.1,2.1,0,0,1,972.05,304.11Z"/><path class="cls-4" d="M984.87,299.66l.15,1.24a3.48,3.48,0,0,1-.86.12,1.71,1.71,0,0,1-1-.24,1.18,1.18,0,0,1-.51-.65,6.29,6.29,0,0,1-.14-1.65v-4.77h-.84v-1.09h.84v-2.06l1.15-.84v2.9h1.17v1.09H983.7v4.85a2.49,2.49,0,0,0,.1.87.57.57,0,0,0,.56.28A3.92,3.92,0,0,0,984.87,299.66Z"/><path class="cls-4" d="M985.52,296.76a5,5,0,0,1,.9-3.24,2.93,2.93,0,0,1,4.56,0,4.8,4.8,0,0,1,.91,3.16A5.17,5.17,0,0,1,991,300a2.92,2.92,0,0,1-4.56,0A5,5,0,0,1,985.52,296.76Zm1.18,0a4,4,0,0,0,.58,2.4,1.76,1.76,0,0,0,1.45.78,1.69,1.69,0,0,0,1.4-.79,4,4,0,0,0,.58-2.39,3.94,3.94,0,0,0-.59-2.39,1.76,1.76,0,0,0-1.45-.79,1.7,1.7,0,0,0-1.4.8A4.05,4.05,0,0,0,986.7,296.76Z"/><path class="cls-4" d="M997.22,300.91v-7.2h-1v-1.09h1v-.89a4.1,4.1,0,0,1,.2-1.46,1.6,1.6,0,0,1,.62-.75,2,2,0,0,1,1.06-.26,4.37,4.37,0,0,1,1.08.15l-.17,1.22a3.39,3.39,0,0,0-.68-.08.9.9,0,0,0-.74.27,1.71,1.71,0,0,0-.22,1v.77h1.33v1.09h-1.33v7.2Z"/><path class="cls-4" d="M1005,300.91v-1.22a3.07,3.07,0,0,1-.94,1.06,2.35,2.35,0,0,1-2.59-.08,2,2,0,0,1-.76-1.1,6.71,6.71,0,0,1-.19-1.81v-5.14h1.14v4.6a7.58,7.58,0,0,0,.13,1.71,1.38,1.38,0,0,0,.48.7,1.31,1.31,0,0,0,.79.26,1.66,1.66,0,0,0,1.36-.68,3.7,3.7,0,0,0,.46-2.15v-4.44H1006v8.29Z"/><path class="cls-4" d="M1007.84,300.91v-8.29h1v1.17a2.63,2.63,0,0,1,.92-1,2.27,2.27,0,0,1,1.24-.34,2.4,2.4,0,0,1,1,.21,2.08,2.08,0,0,1,.75.57,2.36,2.36,0,0,1,.43.9,7.77,7.77,0,0,1,.14,1.7v5.1h-1.15v-5.05a4,4,0,0,0-.16-1.34,1.25,1.25,0,0,0-.49-.65,1.32,1.32,0,0,0-.77-.23,1.61,1.61,0,0,0-1.32.62,3.53,3.53,0,0,0-.49,2.12v4.53Z"/><path class="cls-4" d="M1019.59,297.87l1.14.18a3.82,3.82,0,0,1-1,2.27,2.61,2.61,0,0,1-1.89.78,2.7,2.7,0,0,1-2.2-1.1,6.52,6.52,0,0,1,0-6.49,2.75,2.75,0,0,1,2.24-1.08,2.56,2.56,0,0,1,1.77.65,3.24,3.24,0,0,1,.93,2l-1.12.21a2.47,2.47,0,0,0-.57-1.26,1.3,1.3,0,0,0-1-.42,1.7,1.7,0,0,0-1.41.76,4,4,0,0,0-.56,2.39,4.45,4.45,0,0,0,.53,2.46,1.63,1.63,0,0,0,1.37.75,1.45,1.45,0,0,0,1.12-.5A2.74,2.74,0,0,0,1019.59,297.87Z"/><path class="cls-4" d="M1024.27,299.66l.15,1.24a3.54,3.54,0,0,1-.86.12,1.76,1.76,0,0,1-1-.24,1.2,1.2,0,0,1-.5-.65,6.29,6.29,0,0,1-.14-1.65v-4.77h-.84v-1.09h.84v-2.06l1.15-.84v2.9h1.17v1.09h-1.17v4.85a2.49,2.49,0,0,0,.1.87.57.57,0,0,0,.56.28A3.92,3.92,0,0,0,1024.27,299.66Z"/><path class="cls-4" d="M1025.35,291.08v-1.62h1.15v1.62Zm0,9.83v-8.29h1.15v8.29Z"/><path class="cls-4" d="M1027.83,296.76a5,5,0,0,1,.9-3.24,2.93,2.93,0,0,1,4.56,0,4.8,4.8,0,0,1,.91,3.16,5.17,5.17,0,0,1-.9,3.33,2.92,2.92,0,0,1-4.56,0A5,5,0,0,1,1027.83,296.76Zm1.18,0a4,4,0,0,0,.58,2.4,1.77,1.77,0,0,0,1.46.78,1.69,1.69,0,0,0,1.39-.79,5.21,5.21,0,0,0,0-4.78,1.78,1.78,0,0,0-1.46-.79,1.69,1.69,0,0,0-1.39.8A4,4,0,0,0,1029,296.76Z"/><path class="cls-4" d="M1035.56,300.91v-8.29h1v1.17a2.63,2.63,0,0,1,.92-1,2.24,2.24,0,0,1,1.24-.34,2.4,2.4,0,0,1,1,.21,2.08,2.08,0,0,1,.75.57,2.36,2.36,0,0,1,.43.9,7.77,7.77,0,0,1,.14,1.7v5.1h-1.15v-5.05a4,4,0,0,0-.16-1.34,1.3,1.3,0,0,0-.49-.65,1.32,1.32,0,0,0-.77-.23,1.61,1.61,0,0,0-1.32.62,3.53,3.53,0,0,0-.49,2.12v4.53Z"/><path class="cls-4" d="M923.28,319.09a4.33,4.33,0,0,1-1.2.91,3,3,0,0,1-1.3.3,2.25,2.25,0,0,1-1.69-.64,2.32,2.32,0,0,1-.64-1.73,2.62,2.62,0,0,1,.3-1.27,2.27,2.27,0,0,1,.81-.87,4.33,4.33,0,0,1,1.56-.46,9,9,0,0,0,2.07-.49v-.36a1.79,1.79,0,0,0-.31-1.19,1.63,1.63,0,0,0-1.32-.5,1.83,1.83,0,0,0-1.2.33,2.18,2.18,0,0,0-.59,1.25l-1.13-.19a3.12,3.12,0,0,1,1-1.94,3.22,3.22,0,0,1,2.11-.61,3,3,0,0,1,1.68.4,1.73,1.73,0,0,1,.77,1,6.87,6.87,0,0,1,.16,1.73v1.88a23.12,23.12,0,0,0,.08,2.48,3.51,3.51,0,0,0,.29,1h-1.2A3.48,3.48,0,0,1,923.28,319.09Zm-.09-3.14a7.37,7.37,0,0,1-1.89.53,3.28,3.28,0,0,0-1,.29,1.08,1.08,0,0,0-.45.45,1.33,1.33,0,0,0-.16.67,1.23,1.23,0,0,0,.37.95,1.37,1.37,0,0,0,1,.36,2.06,2.06,0,0,0,1.12-.32,2,2,0,0,0,.76-.86,3.88,3.88,0,0,0,.25-1.56Z"/><path class="cls-4" d="M930.6,317.07l1.13.18a3.76,3.76,0,0,1-1,2.27,2.57,2.57,0,0,1-1.88.78,2.68,2.68,0,0,1-2.2-1.1,5.13,5.13,0,0,1-.87-3.24,5,5,0,0,1,.88-3.25,2.73,2.73,0,0,1,2.23-1.08,2.53,2.53,0,0,1,1.78.66,3.23,3.23,0,0,1,.93,2l-1.12.21a2.47,2.47,0,0,0-.57-1.26,1.31,1.31,0,0,0-1-.41,1.71,1.71,0,0,0-1.41.75,4.06,4.06,0,0,0-.56,2.39,4.35,4.35,0,0,0,.54,2.46,1.62,1.62,0,0,0,1.37.75,1.45,1.45,0,0,0,1.12-.5A2.74,2.74,0,0,0,930.6,317.07Z"/><path class="cls-4" d="M937.16,317.07l1.14.18a3.82,3.82,0,0,1-1,2.27,2.61,2.61,0,0,1-1.89.78,2.7,2.7,0,0,1-2.2-1.1,5.2,5.2,0,0,1-.86-3.24,5.1,5.1,0,0,1,.87-3.25,2.75,2.75,0,0,1,2.24-1.08,2.52,2.52,0,0,1,1.77.66,3.18,3.18,0,0,1,.93,2l-1.12.21a2.47,2.47,0,0,0-.57-1.26,1.29,1.29,0,0,0-1-.41,1.69,1.69,0,0,0-1.41.75,4,4,0,0,0-.56,2.39,4.45,4.45,0,0,0,.53,2.46,1.63,1.63,0,0,0,1.37.75,1.45,1.45,0,0,0,1.12-.5A2.74,2.74,0,0,0,937.16,317.07Z"/><path class="cls-4" d="M938.84,316a5,5,0,0,1,.9-3.24,2.93,2.93,0,0,1,4.56,0,4.8,4.8,0,0,1,.91,3.16,5.17,5.17,0,0,1-.9,3.33,2.92,2.92,0,0,1-4.56,0A5,5,0,0,1,938.84,316Zm1.18,0a4,4,0,0,0,.58,2.4,1.76,1.76,0,0,0,1.45.78,1.69,1.69,0,0,0,1.4-.79,5.21,5.21,0,0,0,0-4.78,1.78,1.78,0,0,0-1.46-.78,1.7,1.7,0,0,0-1.4.79A4.05,4.05,0,0,0,940,316Z"/><path class="cls-4" d="M946.57,320.11v-8.29h1v1.25a3.67,3.67,0,0,1,.73-1.16,1.11,1.11,0,0,1,.75-.28,2,2,0,0,1,1.18.45l-.39,1.31a1.43,1.43,0,0,0-.84-.31,1,1,0,0,0-.67.26,1.31,1.31,0,0,0-.43.72,6.31,6.31,0,0,0-.22,1.71v4.34Z"/><path class="cls-4" d="M955.34,320.11v-1a2.23,2.23,0,0,1-.8.91,1.86,1.86,0,0,1-1.06.32,2.58,2.58,0,0,1-2.09-1.14,5.14,5.14,0,0,1-.87-3.2,6.47,6.47,0,0,1,.39-2.39,3.11,3.11,0,0,1,1-1.46,2.35,2.35,0,0,1,1.44-.48,2,2,0,0,1,1.06.3,2.42,2.42,0,0,1,.81.84v-4.11h1.16v11.45ZM951.7,316a4.14,4.14,0,0,0,.55,2.39,1.61,1.61,0,0,0,1.31.78,1.55,1.55,0,0,0,1.27-.75,3.86,3.86,0,0,0,.54-2.26,4.63,4.63,0,0,0-.54-2.54,1.58,1.58,0,0,0-1.36-.8,1.5,1.5,0,0,0-1.25.76A4.39,4.39,0,0,0,951.7,316Z"/><path class="cls-4" d="M958.23,310.28v-1.62h1.15v1.62Zm0,9.83v-8.29h1.15v8.29Z"/><path class="cls-4" d="M961.15,320.11v-8.29h1V313a2.61,2.61,0,0,1,.91-1,2.28,2.28,0,0,1,1.25-.34,2.44,2.44,0,0,1,1,.21,2.08,2.08,0,0,1,.75.57,2.21,2.21,0,0,1,.42.9,7.77,7.77,0,0,1,.14,1.7v5.1h-1.15v-5.05a4.34,4.34,0,0,0-.15-1.34,1.36,1.36,0,0,0-.49-.65,1.34,1.34,0,0,0-.77-.23,1.61,1.61,0,0,0-1.32.62,3.46,3.46,0,0,0-.49,2.12v4.53Z"/><path class="cls-4" d="M968.22,320.8l1.12.2a1.5,1.5,0,0,0,.47,1,1.63,1.63,0,0,0,1.09.32,1.9,1.9,0,0,0,1.21-.36,1.85,1.85,0,0,0,.61-1.08,10.12,10.12,0,0,0,.1-1.84,2.75,2.75,0,0,1-.84.8,2.07,2.07,0,0,1-1,.27,2.47,2.47,0,0,1-2-1,5.07,5.07,0,0,1-.92-3.18,6.14,6.14,0,0,1,.41-2.33,3.19,3.19,0,0,1,1.06-1.47,2.56,2.56,0,0,1,1.49-.47,2.14,2.14,0,0,1,1.09.29,2.77,2.77,0,0,1,.88.89v-1H974V319a8.43,8.43,0,0,1-.31,2.73,2.71,2.71,0,0,1-1,1.29,3.09,3.09,0,0,1-1.71.47,2.76,2.76,0,0,1-2-.71A2.55,2.55,0,0,1,968.22,320.8Zm.95-5a4.18,4.18,0,0,0,.54,2.39A1.59,1.59,0,0,0,971,319a1.63,1.63,0,0,0,1.33-.74,4,4,0,0,0,.54-2.34,3.89,3.89,0,0,0-.56-2.33,1.66,1.66,0,0,0-1.37-.76,1.53,1.53,0,0,0-1.26.76A3.84,3.84,0,0,0,969.17,315.82Z"/><path class="cls-4" d="M975.7,320.11V308.66h1.15v11.45Z"/><path class="cls-4" d="M978.62,323.31l-.13-1.32a2.32,2.32,0,0,0,.66.12,1.09,1.09,0,0,0,.6-.15,1,1,0,0,0,.4-.46c0-.07.19-.53.45-1.37L978,311.82h1.24l1.42,4.8c.18.6.34,1.24.49,1.92.13-.65.29-1.28.47-1.89l1.45-4.83h1.16l-2.58,8.43a15.92,15.92,0,0,1-.8,2.2,2.15,2.15,0,0,1-.67.79,1.53,1.53,0,0,1-.84.24A2,2,0,0,1,978.62,323.31Z"/><path class="cls-4" d="M984.63,320.11v-1.6H986v1.6Z"/><path class="cls-4" d="M918.64,528.64v-1.3l6.22-3.22v1.39L919.93,528l4.93,2.49v1.4Z"/><path class="cls-4" d="M925.59,533.84,928.31,522h.94l-2.73,11.84Z"/><path class="cls-4" d="M930.1,533.65V522.2h1.15v4.1a2.73,2.73,0,0,1,.92-.85,2.25,2.25,0,0,1,1.12-.29,2.18,2.18,0,0,1,1.72.7,3.8,3.8,0,0,1,.63,2.53v5.26h-1.15v-5.26a2.52,2.52,0,0,0-.38-1.55,1.3,1.3,0,0,0-1.06-.46,1.66,1.66,0,0,0-1.28.6,3.28,3.28,0,0,0-.52,2.13v4.54Z"/><path class="cls-4" d="M942,531l1.19.18a3.61,3.61,0,0,1-1.07,2,2.84,2.84,0,0,1-1.93.68,2.89,2.89,0,0,1-2.34-1.1,4.89,4.89,0,0,1-.89-3.17,5.19,5.19,0,0,1,.9-3.28,2.8,2.8,0,0,1,2.28-1.13,2.72,2.72,0,0,1,2.21,1.11,5.05,5.05,0,0,1,.88,3.21v.38h-5.08a3.64,3.64,0,0,0,.65,2.11,1.78,1.78,0,0,0,1.41.71C941.1,532.68,941.71,532.11,942,531Zm-3.79-2.28h3.8a3.11,3.11,0,0,0-.46-1.61,1.68,1.68,0,0,0-2.73-.13A2.82,2.82,0,0,0,938.25,528.7Z"/><path class="cls-4" d="M949.12,532.62a4,4,0,0,1-1.2.91,3,3,0,0,1-1.3.31,2.28,2.28,0,0,1-1.69-.64,2.34,2.34,0,0,1-.64-1.73,2.62,2.62,0,0,1,.3-1.27,2.27,2.27,0,0,1,.81-.87,4.33,4.33,0,0,1,1.57-.46,9,9,0,0,0,2.06-.49V528a1.84,1.84,0,0,0-.31-1.2,1.65,1.65,0,0,0-1.32-.5,1.85,1.85,0,0,0-1.2.33,2.21,2.21,0,0,0-.59,1.26l-1.13-.19a3.18,3.18,0,0,1,1-2,3.27,3.27,0,0,1,2.11-.61,3,3,0,0,1,1.68.41,1.67,1.67,0,0,1,.77,1,7,7,0,0,1,.16,1.74v1.87a23.12,23.12,0,0,0,.08,2.48,3.58,3.58,0,0,0,.29,1h-1.2A3.63,3.63,0,0,1,949.12,532.62Zm-.09-3.14a7.34,7.34,0,0,1-1.88.54,3.33,3.33,0,0,0-1,.28,1.21,1.21,0,0,0-.45.45,1.37,1.37,0,0,0-.16.68,1.24,1.24,0,0,0,.37,1,1.37,1.37,0,0,0,1,.35,2,2,0,0,0,1.12-.32,2,2,0,0,0,.76-.85A3.78,3.78,0,0,0,949,530Z"/><path class="cls-4" d="M956.4,533.65v-1a2.36,2.36,0,0,1-.81.92,1.94,1.94,0,0,1-1.06.32,2.57,2.57,0,0,1-2.08-1.14,5.1,5.1,0,0,1-.88-3.2,6.56,6.56,0,0,1,.39-2.4,3.22,3.22,0,0,1,1-1.46,2.38,2.38,0,0,1,1.45-.48,1.94,1.94,0,0,1,1,.3,2.51,2.51,0,0,1,.81.84v-4.1h1.16v11.45Zm-3.65-4.14a4.07,4.07,0,0,0,.56,2.39,1.58,1.58,0,0,0,1.3.78,1.55,1.55,0,0,0,1.27-.75,3.9,3.9,0,0,0,.54-2.27,4.66,4.66,0,0,0-.54-2.54,1.6,1.6,0,0,0-1.36-.8,1.52,1.52,0,0,0-1.25.77A4.37,4.37,0,0,0,952.75,529.51Z"/><path class="cls-4" d="M965.36,528.64l-6.22,3.24v-1.4l4.93-2.49-4.93-2.48v-1.39l6.22,3.22Z"/><path class="cls-4" d="M558.85,284.89V273.42h1.06v1.08a2.61,2.61,0,0,1,.87-1,2,2,0,0,1,1.09-.3,2.36,2.36,0,0,1,1.45.48,3.2,3.2,0,0,1,1,1.45,6,6,0,0,1,.4,2.34,5.25,5.25,0,0,1-.89,3.26,2.58,2.58,0,0,1-2.08,1.14,1.89,1.89,0,0,1-1-.27,2.38,2.38,0,0,1-.8-.78v4Zm1-7.28a4.11,4.11,0,0,0,.54,2.37,1.46,1.46,0,0,0,2.58,0,5.62,5.62,0,0,0,0-4.85,1.42,1.42,0,0,0-2.57.06A4.33,4.33,0,0,0,559.9,277.61Z"/><path class="cls-4" d="M570.6,281.71V280.5a2.94,2.94,0,0,1-.94,1.05,2.35,2.35,0,0,1-2.59-.08,2.1,2.1,0,0,1-.76-1.1,6.71,6.71,0,0,1-.19-1.81v-5.14h1.15V278a7.77,7.77,0,0,0,.12,1.71,1.38,1.38,0,0,0,.48.7,1.31,1.31,0,0,0,.79.26A1.65,1.65,0,0,0,570,280a3.62,3.62,0,0,0,.46-2.15v-4.44h1.15v8.29Z"/><path class="cls-4" d="M574.5,281.71h-1.07V270.26h1.16v4.09a2.47,2.47,0,0,1,.83-.84,1.92,1.92,0,0,1,1-.28,2.38,2.38,0,0,1,1.45.48,3.24,3.24,0,0,1,1.05,1.44,6.32,6.32,0,0,1,.39,2.35,5.25,5.25,0,0,1-.89,3.26,2.57,2.57,0,0,1-2.06,1.14,1.87,1.87,0,0,1-1.07-.31,2.48,2.48,0,0,1-.82-.92Zm0-4.21a5.81,5.81,0,0,0,.24,1.93,2.1,2.1,0,0,0,.66,1,1.56,1.56,0,0,0,1,.34,1.54,1.54,0,0,0,1.26-.81,5.49,5.49,0,0,0,0-4.79,1.54,1.54,0,0,0-1.3-.76,1.57,1.57,0,0,0-1.28.8A4,4,0,0,0,574.48,277.5Z"/><path class="cls-4" d="M580.7,281.71V270.26h1.15v11.45Z"/><path class="cls-4" d="M583.66,271.88v-1.62h1.14v1.62Zm0,9.83v-8.29h1.14v8.29Z"/><path class="cls-4" d="M591,278.67l1.14.18a3.82,3.82,0,0,1-1,2.27,2.61,2.61,0,0,1-1.89.78,2.67,2.67,0,0,1-2.2-1.1,6.52,6.52,0,0,1,0-6.49,2.74,2.74,0,0,1,2.24-1.08,2.52,2.52,0,0,1,1.77.66,3.23,3.23,0,0,1,.93,2l-1.12.21a2.47,2.47,0,0,0-.57-1.26,1.3,1.3,0,0,0-1-.41,1.72,1.72,0,0,0-1.42.75,4.07,4.07,0,0,0-.55,2.39,4.36,4.36,0,0,0,.53,2.46,1.63,1.63,0,0,0,1.37.76,1.46,1.46,0,0,0,1.12-.51A2.71,2.71,0,0,0,591,278.67Z"/><path class="cls-4" d="M601.21,280.69a4.48,4.48,0,0,1-1.2.91,3,3,0,0,1-1.3.3,2.25,2.25,0,0,1-1.69-.64,2.32,2.32,0,0,1-.64-1.73,2.62,2.62,0,0,1,.3-1.27,2.27,2.27,0,0,1,.81-.87,4.54,4.54,0,0,1,1.56-.46,9,9,0,0,0,2.07-.49v-.36a1.81,1.81,0,0,0-.3-1.19,1.63,1.63,0,0,0-1.32-.5,1.83,1.83,0,0,0-1.2.33,2.18,2.18,0,0,0-.59,1.25l-1.13-.19a3.15,3.15,0,0,1,1-1.94,3.2,3.2,0,0,1,2.11-.61,3,3,0,0,1,1.68.4,1.73,1.73,0,0,1,.77,1,6.87,6.87,0,0,1,.16,1.73v1.88a23.12,23.12,0,0,0,.08,2.48,3.51,3.51,0,0,0,.29,1h-1.2A3.48,3.48,0,0,1,601.21,280.69Zm-.09-3.14a7,7,0,0,1-1.89.53,3.28,3.28,0,0,0-1,.29,1.08,1.08,0,0,0-.45.45,1.34,1.34,0,0,0-.16.68,1.22,1.22,0,0,0,.37.94,1.37,1.37,0,0,0,1,.36,2.06,2.06,0,0,0,1.12-.32,2,2,0,0,0,.76-.86,3.86,3.86,0,0,0,.25-1.55Z"/><path class="cls-4" d="M604.08,281.71v-8.29h1v1.17a2.61,2.61,0,0,1,.91-1,2.28,2.28,0,0,1,1.25-.34,2.44,2.44,0,0,1,1,.21,2,2,0,0,1,1.17,1.47,7.77,7.77,0,0,1,.14,1.7v5.1h-1.15v-5a4.39,4.39,0,0,0-.15-1.34,1.41,1.41,0,0,0-.49-.65,1.34,1.34,0,0,0-.77-.23,1.61,1.61,0,0,0-1.32.62,3.46,3.46,0,0,0-.49,2.12v4.53Z"/><path class="cls-4" d="M615.78,281.71v-1a2.39,2.39,0,0,1-.8.91,1.89,1.89,0,0,1-1.07.32,2.58,2.58,0,0,1-2.08-1.14,5.13,5.13,0,0,1-.88-3.19,6.48,6.48,0,0,1,.39-2.4,3.18,3.18,0,0,1,1-1.46,2.4,2.4,0,0,1,1.45-.48,2,2,0,0,1,1.06.3,2.51,2.51,0,0,1,.81.84v-4.11h1.16v11.45Zm-3.65-4.14a4.13,4.13,0,0,0,.56,2.39,1.61,1.61,0,0,0,1.3.79,1.56,1.56,0,0,0,1.28-.75,3.9,3.9,0,0,0,.54-2.27,4.63,4.63,0,0,0-.54-2.54,1.59,1.59,0,0,0-1.36-.8,1.48,1.48,0,0,0-1.25.77A4.32,4.32,0,0,0,612.13,277.57Z"/><path class="cls-4" d="M622.32,284.89V273.42h1.06v1.08a2.61,2.61,0,0,1,.87-1,2,2,0,0,1,1.09-.3,2.36,2.36,0,0,1,1.45.48,3.2,3.2,0,0,1,1,1.45,6,6,0,0,1,.4,2.34,5.25,5.25,0,0,1-.89,3.26,2.59,2.59,0,0,1-2.08,1.14,1.89,1.89,0,0,1-1-.27,2.38,2.38,0,0,1-.8-.78v4Zm1-7.28a4.11,4.11,0,0,0,.54,2.37,1.56,1.56,0,0,0,1.3.77,1.58,1.58,0,0,0,1.28-.79,5.62,5.62,0,0,0,0-4.85,1.42,1.42,0,0,0-2.57.06A4.33,4.33,0,0,0,623.37,277.61Z"/><path class="cls-4" d="M629.62,281.71v-8.29h1v1.25a3.62,3.62,0,0,1,.73-1.16,1.1,1.1,0,0,1,.74-.28,2,2,0,0,1,1.18.45l-.39,1.31a1.38,1.38,0,0,0-.83-.31,1.05,1.05,0,0,0-.68.26,1.44,1.44,0,0,0-.43.72,6.79,6.79,0,0,0-.21,1.71v4.34Z"/><path class="cls-4" d="M634,271.88v-1.62h1.15v1.62Zm0,9.83v-8.29h1.15v8.29Z"/><path class="cls-4" d="M638.8,281.71l-2.59-8.29h1.22l1.46,5c.17.56.32,1.12.44,1.67.1-.44.24-1,.42-1.58l1.52-5.06h1.19l-2.59,8.29Z"/><path class="cls-4" d="M647.89,280.69a4.64,4.64,0,0,1-1.2.91,3,3,0,0,1-1.3.3,2.25,2.25,0,0,1-1.69-.64,2.32,2.32,0,0,1-.64-1.73,2.62,2.62,0,0,1,.3-1.27,2.27,2.27,0,0,1,.81-.87,4.54,4.54,0,0,1,1.56-.46,9,9,0,0,0,2.07-.49v-.36a1.81,1.81,0,0,0-.3-1.19,1.63,1.63,0,0,0-1.32-.5,1.83,1.83,0,0,0-1.2.33,2.18,2.18,0,0,0-.59,1.25l-1.13-.19a3.15,3.15,0,0,1,1-1.94,3.2,3.2,0,0,1,2.11-.61,3,3,0,0,1,1.68.4,1.73,1.73,0,0,1,.77,1,6.87,6.87,0,0,1,.16,1.73v1.88a23.12,23.12,0,0,0,.08,2.48,3.21,3.21,0,0,0,.29,1h-1.21A3.49,3.49,0,0,1,647.89,280.69Zm-.09-3.14a7,7,0,0,1-1.89.53,3.28,3.28,0,0,0-1,.29,1.08,1.08,0,0,0-.45.45,1.34,1.34,0,0,0-.16.68,1.22,1.22,0,0,0,.37.94,1.37,1.37,0,0,0,1,.36,2.06,2.06,0,0,0,1.12-.32,2,2,0,0,0,.76-.86,3.86,3.86,0,0,0,.25-1.55Z"/><path class="cls-4" d="M653.32,280.46l.16,1.24a3.61,3.61,0,0,1-.86.12,1.74,1.74,0,0,1-1-.24,1.18,1.18,0,0,1-.51-.65,6.43,6.43,0,0,1-.13-1.65v-4.77h-.85v-1.09H651v-2.06l1.15-.84v2.9h1.16v1.09h-1.16v4.85a2.26,2.26,0,0,0,.1.87.56.56,0,0,0,.55.28A3.92,3.92,0,0,0,653.32,280.46Z"/><path class="cls-4" d="M659.05,279l1.19.18a3.6,3.6,0,0,1-1.07,2,3.07,3.07,0,0,1-4.27-.43,4.92,4.92,0,0,1-.89-3.16,5.15,5.15,0,0,1,.9-3.28,2.81,2.81,0,0,1,2.29-1.13,2.71,2.71,0,0,1,2.2,1.11,5.05,5.05,0,0,1,.88,3.21v.37H655.2a3.55,3.55,0,0,0,.64,2.11,1.76,1.76,0,0,0,1.41.72C658.11,280.75,658.72,280.18,659.05,279Zm-3.78-2.27h3.79a3.08,3.08,0,0,0-.46-1.61,1.68,1.68,0,0,0-2.73-.13A2.76,2.76,0,0,0,655.27,276.77Z"/><path class="cls-4" d="M662,281.71v-1.6h1.31v1.6a3.25,3.25,0,0,1-.27,1.46,1.89,1.89,0,0,1-.8.81l-.32-.6a1.2,1.2,0,0,0,.53-.56,2.78,2.78,0,0,0,.2-1.11Z"/><path class="cls-4" d="M922.8,29.78h-1.15v-9a6.46,6.46,0,0,1-1.07.95,6.3,6.3,0,0,1-1.24.74V21.15A6.85,6.85,0,0,0,921,19.82a5.11,5.11,0,0,0,1-1.54h.75Z"/><path class="cls-4" d="M929.14,29.78H928v-9a5.74,5.74,0,0,1-1.07.95,6.55,6.55,0,0,1-1.23.74V21.15a7.25,7.25,0,0,0,1.68-1.33,5.11,5.11,0,0,0,1-1.54h.75Z"/><path class="cls-4" d="M932.17,19.83V18.47h6.07v1.1a17,17,0,0,0-2.39,4.6,19.56,19.56,0,0,0-1.19,5.61h-1.18a16.86,16.86,0,0,1,.46-3.35,19.74,19.74,0,0,1,1.19-3.65,15.26,15.26,0,0,1,1.63-3Z"/><g class="cls-2"><path class="cls-3" d="M328,272.76c-.22,1.45-.43,2.9-.65,4.35a100.05,100.05,0,0,1,.16-10.82q1.37-7.1-.88-9.3-.24,8.85-2.16,8c-.5-.41-.63.45-.38,2.59a21.18,21.18,0,0,0,1.9-8.47q.13-8.9,1.61-4.67,0-7-.45-13.9-2.36,6.36-1,16.25c1.24-5.84.76-4,1.23,5A145.69,145.69,0,0,0,328.61,242q-.36,16.5-.12,33,.09-20.24-.46-10.33a119.57,119.57,0,0,0,.4,22.27,48.87,48.87,0,0,0-.21-14.66,61.92,61.92,0,0,0,.31,9.66q-.31-10.86-1.63-21.12a131.58,131.58,0,0,0,2,20,159.13,159.13,0,0,0-1.58-24,114.07,114.07,0,0,0-.37,19.94q.29-14,.46-28c.29,2.56.52,5.16.71,7.8q.39,7.57.57-2.78.33,7,.35,14a46.14,46.14,0,0,0,.8,13.32q2.36-13.83-1-18Q326,257,326.71,275.88q-.1-9.66.29-19.27a239.49,239.49,0,0,0-.07-26q-.85,11-1.59,22.05.69-16.5.19-9.28-2.65,12.89.47,18.77,1.23-16.8,2.7-33.44a81.65,81.65,0,0,0,.09,18.24q.6-10.35,1.57-20.47c-.07,8-.16,19.63.7,1.17a42.32,42.32,0,0,0-1.5,9.51q-.44-6.08-1-12-.81,6-1.73,11.95-.53-9.48-.67-19.07.78,7.91,1.47,15.88a49.68,49.68,0,0,0,.92-13.73q1.37,3.6.48,9.75c-.24-5.07,0-10.6-.11-15.74-.31,5.11-.95,11.49-.83,16.77.19-1.83.39-3.64.59-5.45-.09,1.36-.2,2.72-.32,4.06.54-7.3,1.2-14.53,1.82-21.78-.5,2.92-.6,6.78-.8,10,.09-11.53-.4-22.86-1-34.26.43,6.08.28,13.32.29,19.43,0,6.37.34,13.87-.3,20-.06-5.61.06-11.17-.08-16.79-.09-2.78-.17-5.57-.26-8.36l-.34-3.33a86.12,86.12,0,0,1,.82-10c.23-2.31,1.45-11.28.93-12.3-.25,1.77-1.47,8-1.37,10.49.73-6.13,1.66-13.11,1.41-19.69-.05,6,0,12.44-.51,18.3.28-4.82.85-9.62.79-14.56,0-3.53-.07-7.05-.07-10.59V144.75l.73-2.82V133"/><path class="cls-3" d="M326,254.69c0,14.77-.24,31.3.12,46.61-1-17.77-2.43-35.29-3.47-53,0,11.91-.4,24.42.14,36.21A108.7,108.7,0,0,0,325,269.94q-.21-5.52,1.11-7.58c0,1.83-.19,2.33-.66,1.52a34.06,34.06,0,0,1-.39-5.79c.46,22.24,0,45.15,0,67.36-.12,33.23-.83,67-.24,100.19.31,17.31-1.35,34.9-2.75,51.5,0-2.82-.4-5.94-.48-8.67,0-1.91-.12-13.5.9-14.83q-.17,12.25-.53,24.45c.53-9.23,1.27-18.21,2.09-27.26.53,3-.56,14.54-.76,18.4.45-6.17.92-12.29,1.54-18.35"/></g><polyline class="cls-3" points="331.65 302.19 331.65 300.56 331.65 448.32"/><g class="cls-2"><path class="cls-3" d="M322.55,459.72c.13,3.42-1,7.61-1.37,10.84,3-35.14,3.65-71.95,4.94-107.8,0-.69-.14-19.33,1.5-23.23"/><path class="cls-3" d="M327.46,276.55v37.57c0-10.76.1-21.56,0-32.31.24,12.55.56,25,.59,37.62-.44-15.91-.78-31.84-1.22-47.75,0,21.94,1.07,43.78,1.15,65.69-.9-24.44-1.75-48.91-1.81-73.5,1.91,19,2.58,39.34,2.59,59,0,8.66.39,15.72.55,24.05.18,8.67.05,17.26-.62,25.73-.5,6.24-.77,11.89-.69,18.28V380.15c0,1.79.22,1.82.09,1"/><path class="cls-3" d="M179.82,346.66c-2-19.7-3.55,76.19-5.39,95.62-4.61,48.8-9.61,18.16-14.27,23.73,1.37,5.06,13.15-43.48,13.09-158.87-1.35-4.15-2.24,14.25-3.5,39.39-1.43,28.75-2.32,40.15-3.87,39.6-2-.7-3.94.18-5.95-8.67-2.26-10-6.71-84.94-9-30.66,2.33-.68,4.67-.14,7-.14,2.1,0,4.2-.56,6.3.39.88.39,2,17.4,2.76-9.2-.15-42.31-2.65-62.73-3.41-72.55-2.35-30.54-5.18,2.12-7.61,2.12.93.59,2.48-23.67,3.3,6.4-1.19,32-2.46,58.55-3.61,97.72q.31-12.44.63-26c-.93-1.17-1.92-9-2.81,7.88q-.09,32.67,0,65.7c-1.05,26.22-2.71,14.59-3.83,10.73-1.95-6.76-3.1-68-4.76-87.29-1.2-14-4,4.14-4.76,4.1-2.53-.13-5.06,0-7.59,0"/><path class="cls-3" d="M304.22,472.05Q313,474.59,321,486"/><path class="cls-3" d="M995.15,91.75s-50.15-.59-25.07-1.06,25.07-1.25,25.07-1.84V87.22c0-.22-16-.34-16-.51V85.55l-124.1.6,26.7.12c19.8.1,43.38.24,43.38.34V85.38l-30.84.11L855,85.63v.26c0,.13,33.59.82,33.59.64V85l6.27,4,24.83-4.28,15.91,2.83,47,.85L951.27,85,935.6,86.45V88.8l21.94.3-21.94.46-15.91-.46H935.6v.77c15.67,0,21.94-.13,21.94-.13v.43H935.6v.43"/></g></g></svg>