<svg id="Layer_1" data-name="Layer 1" xmlns="http://www.w3.org/2000/svg" xmlns:xlink="http://www.w3.org/1999/xlink" viewBox="0 0 1080 756"><defs><style>.cls-1,.cls-3{fill:none;}.cls-2{clip-path:url(#clip-path);}.cls-3{stroke:#231f20;stroke-width:0.25px;}.cls-4{fill:#231f20;}</style><clipPath id="clip-path"><rect class="cls-1" width="1080" height="756"/></clipPath></defs><title>Untitled-3</title><g class="cls-2"><g class="cls-2"><line class="cls-3" x1="180" y1="-18.36" x2="180" y2="790.92"/><line class="cls-3" x1="720" y1="-20.88" x2="720" y2="788.4"/><line class="cls-3" x1="359.88" y1="-18.36" x2="359.88" y2="790.92"/><line class="cls-3" x1="899.87" y1="-20.88" x2="899.87" y2="788.4"/><line class="cls-3" x1="-16.92" y1="251.88" x2="1101.6" y2="251.88"/><line class="cls-3" x1="-11.52" y1="504.13" x2="1107" y2="504.13"/><line class="cls-3" x1="540" y1="-19.44" x2="540" y2="789.84"/></g><path class="cls-4" d="M198.86,281.65v-8.3h1v1.16a2.69,2.69,0,0,1,.88-1,2.15,2.15,0,0,1,1.18-.35,2,2,0,0,1,1.21.37,2,2,0,0,1,.71,1.08,3.14,3.14,0,0,1,.93-1.08,2,2,0,0,1,1.18-.37,1.92,1.92,0,0,1,1.54.67,3.22,3.22,0,0,1,.57,2.12v5.7h-1.15v-5.23a4.55,4.55,0,0,0-.13-1.27,1.17,1.17,0,0,0-.42-.57,1.09,1.09,0,0,0-.65-.2,1.47,1.47,0,0,0-1.22.59,2.91,2.91,0,0,0-.47,1.85v4.83H202.9v-5.4a2.48,2.48,0,0,0-.32-1.45,1,1,0,0,0-.87-.42,1.47,1.47,0,0,0-1.25.63,4.31,4.31,0,0,0-.45,2.33v4.31Z"/><path class="cls-4" d="M209.78,271.81V270.2h1.15v1.61Zm0,9.84v-8.3h1.15v8.3Z"/><path class="cls-4" d="M212,281.65l2.48-4.31-2.29-4h1.44l1,1.94c.19.36.35.67.47.93.2-.34.37-.64.53-.9l1.14-2h1.37l-2.34,3.9,2.52,4.4H216.9l-1.4-2.58-.36-.7-1.8,3.28Z"/><path class="cls-4" d="M218.82,278.21V276.8h3.54v1.41Z"/><path class="cls-4" d="M224.68,281.65h-1.07V270.2h1.16v4.08a2.66,2.66,0,0,1,.83-.84,2,2,0,0,1,1-.28,2.38,2.38,0,0,1,1.45.48,3.18,3.18,0,0,1,1,1.45,6.08,6.08,0,0,1,.4,2.35,5.22,5.22,0,0,1-.89,3.25,2.59,2.59,0,0,1-2.06,1.15,1.94,1.94,0,0,1-1.07-.31,2.56,2.56,0,0,1-.82-.92Zm0-4.21a5.85,5.85,0,0,0,.24,1.93,2.12,2.12,0,0,0,.66,1,1.5,1.5,0,0,0,1,.34,1.55,1.55,0,0,0,1.26-.8,5.49,5.49,0,0,0,0-4.79,1.56,1.56,0,0,0-1.3-.77,1.59,1.59,0,0,0-1.28.8A4.08,4.08,0,0,0,224.66,277.44Z"/><path class="cls-4" d="M230.88,281.65V270.2H232v11.45Z"/><path class="cls-4" d="M238.48,279l1.19.18a3.61,3.61,0,0,1-1.07,2,2.84,2.84,0,0,1-1.93.68,2.89,2.89,0,0,1-2.34-1.1,5,5,0,0,1-.89-3.17,5.19,5.19,0,0,1,.9-3.28,2.8,2.8,0,0,1,2.28-1.13,2.72,2.72,0,0,1,2.21,1.11,5.05,5.05,0,0,1,.88,3.21v.38h-5.08a3.64,3.64,0,0,0,.65,2.11,1.78,1.78,0,0,0,1.41.71C237.54,280.68,238.15,280.11,238.48,279Zm-3.78-2.28h3.79a3.11,3.11,0,0,0-.46-1.61,1.68,1.68,0,0,0-2.73-.13A2.76,2.76,0,0,0,234.7,276.7Z"/><path class="cls-4" d="M241.13,281.65v-8.3h1v1.17a2.78,2.78,0,0,1,.92-1,2.33,2.33,0,0,1,1.24-.34,2.41,2.41,0,0,1,1,.22,2.05,2.05,0,0,1,.75.56,2.36,2.36,0,0,1,.43.9,7.81,7.81,0,0,1,.14,1.71v5.1h-1.15v-5a4,4,0,0,0-.16-1.34,1.3,1.3,0,0,0-.49-.65,1.25,1.25,0,0,0-.77-.23,1.6,1.6,0,0,0-1.32.61,3.53,3.53,0,0,0-.49,2.12v4.54Z"/><path class="cls-4" d="M252.84,281.65v-1a2.36,2.36,0,0,1-.81.92,1.94,1.94,0,0,1-1.06.32,2.57,2.57,0,0,1-2.08-1.14,5.1,5.1,0,0,1-.88-3.2,6.56,6.56,0,0,1,.39-2.4,3.22,3.22,0,0,1,1-1.46,2.38,2.38,0,0,1,1.45-.48,1.94,1.94,0,0,1,1.05.3,2.51,2.51,0,0,1,.81.84v-4.1h1.16v11.45Zm-3.65-4.14a4.07,4.07,0,0,0,.56,2.39,1.58,1.58,0,0,0,1.3.78,1.55,1.55,0,0,0,1.27-.75,3.9,3.9,0,0,0,.54-2.27,4.66,4.66,0,0,0-.54-2.54,1.6,1.6,0,0,0-1.36-.8,1.52,1.52,0,0,0-1.25.77A4.37,4.37,0,0,0,249.19,277.51Z"/><path class="cls-4" d="M255.29,278.21V276.8h3.54v1.41Z"/><path class="cls-4" d="M260.1,281.65v-8.3h1v1.16a2.78,2.78,0,0,1,.88-1,2.17,2.17,0,0,1,1.18-.35,2,2,0,0,1,1.21.37,2,2,0,0,1,.71,1.08,3.06,3.06,0,0,1,.94-1.08,2,2,0,0,1,1.17-.37,1.92,1.92,0,0,1,1.54.67,3.22,3.22,0,0,1,.57,2.12v5.7h-1.15v-5.23a4.19,4.19,0,0,0-.13-1.27,1.17,1.17,0,0,0-.42-.57,1.07,1.07,0,0,0-.65-.2,1.47,1.47,0,0,0-1.22.59,3,3,0,0,0-.47,1.85v4.83h-1.15v-5.4a2.41,2.41,0,0,0-.32-1.45,1,1,0,0,0-.87-.42,1.45,1.45,0,0,0-1.24.63,4.2,4.2,0,0,0-.46,2.33v4.31Z"/><path class="cls-4" d="M270.59,277.5a5,5,0,0,1,.9-3.24,2.91,2.91,0,0,1,4.56,0,4.79,4.79,0,0,1,.91,3.15,5.17,5.17,0,0,1-.9,3.33,2.91,2.91,0,0,1-4.56,0A5,5,0,0,1,270.59,277.5Zm1.18,0a4,4,0,0,0,.58,2.39,1.75,1.75,0,0,0,1.45.79,1.69,1.69,0,0,0,1.4-.79,4,4,0,0,0,.58-2.39,4,4,0,0,0-.58-2.39,1.77,1.77,0,0,0-1.46-.79,1.7,1.7,0,0,0-1.4.79A4.09,4.09,0,0,0,271.77,277.5Z"/><path class="cls-4" d="M282.73,281.65v-1a2.36,2.36,0,0,1-.81.92,1.94,1.94,0,0,1-1.06.32,2.57,2.57,0,0,1-2.08-1.14,5.1,5.1,0,0,1-.88-3.2,6.56,6.56,0,0,1,.39-2.4,3.29,3.29,0,0,1,1-1.46,2.38,2.38,0,0,1,1.45-.48,1.94,1.94,0,0,1,1.05.3,2.51,2.51,0,0,1,.81.84v-4.1h1.16v11.45Zm-3.65-4.14a4.07,4.07,0,0,0,.56,2.39,1.58,1.58,0,0,0,1.3.78,1.55,1.55,0,0,0,1.27-.75,3.9,3.9,0,0,0,.54-2.27,4.66,4.66,0,0,0-.54-2.54,1.6,1.6,0,0,0-1.36-.8,1.52,1.52,0,0,0-1.25.77A4.37,4.37,0,0,0,279.08,277.51Z"/><path class="cls-4" d="M290.27,279l1.18.18a3.61,3.61,0,0,1-1.07,2,2.84,2.84,0,0,1-1.93.68,2.89,2.89,0,0,1-2.34-1.1,5,5,0,0,1-.89-3.17,5.19,5.19,0,0,1,.9-3.28,2.81,2.81,0,0,1,2.29-1.13,2.71,2.71,0,0,1,2.2,1.11,5.05,5.05,0,0,1,.88,3.21v.38h-5.07a3.57,3.57,0,0,0,.64,2.11,1.78,1.78,0,0,0,1.41.71C289.33,280.68,289.93,280.11,290.27,279Zm-3.79-2.28h3.79a3.11,3.11,0,0,0-.46-1.61,1.68,1.68,0,0,0-2.73-.13A2.76,2.76,0,0,0,286.48,276.7Z"/><path class="cls-4" d="M22.87,277.88H21.71v-9a5.42,5.42,0,0,1-1.07,1,7.14,7.14,0,0,1-1.23.74v-1.36a7,7,0,0,0,1.68-1.34,5,5,0,0,0,1-1.53h.75Z"/><path class="cls-4" d="M29.52,277.88v-2.75H25.45v-1.29l4.28-7.42h.94v7.42H32v1.29H30.67v2.75Zm0-4v-5.16l-2.94,5.16Z"/><path class="cls-4" d="M39.09,269.22l-1.14.11a2.69,2.69,0,0,0-.49-1.25,1.37,1.37,0,0,0-1.11-.55c-.67,0-1.2.42-1.61,1.25a7.7,7.7,0,0,0-.53,3.19,3,3,0,0,1,1-1.14,2.3,2.3,0,0,1,1.27-.38,2.44,2.44,0,0,1,2,1,4.08,4.08,0,0,1,.84,2.7,5.07,5.07,0,0,1-.42,2.09,3.12,3.12,0,0,1-1.08,1.37,2.48,2.48,0,0,1-1.44.45A2.81,2.81,0,0,1,34,276.79a7.57,7.57,0,0,1-.92-4.27,8.82,8.82,0,0,1,.95-4.73,2.79,2.79,0,0,1,2.42-1.41,2.45,2.45,0,0,1,1.79.72A3.45,3.45,0,0,1,39.09,269.22Zm-4.7,4.94a3.17,3.17,0,0,0,.59,2,1.69,1.69,0,0,0,1.36.75,1.5,1.5,0,0,0,1.21-.71,3.14,3.14,0,0,0,.54-1.95,3,3,0,0,0-.54-1.89,1.58,1.58,0,0,0-1.29-.67,1.65,1.65,0,0,0-1.31.67A2.71,2.71,0,0,0,34.39,274.16Z"/><path class="cls-4" d="M747.05,278.61l1.13.18a3.79,3.79,0,0,1-1,2.26,2.55,2.55,0,0,1-1.89.79,2.7,2.7,0,0,1-2.2-1.1,5.23,5.23,0,0,1-.86-3.25,5.09,5.09,0,0,1,.87-3.24,2.73,2.73,0,0,1,2.24-1.09,2.55,2.55,0,0,1,1.78.66,3.2,3.2,0,0,1,.92,2L747,276a2.39,2.39,0,0,0-.57-1.25,1.33,1.33,0,0,0-1-.42,1.69,1.69,0,0,0-1.41.75,4.12,4.12,0,0,0-.56,2.4,4.38,4.38,0,0,0,.53,2.45,1.62,1.62,0,0,0,1.38.76,1.5,1.5,0,0,0,1.12-.5A2.81,2.81,0,0,0,747.05,278.61Z"/><path class="cls-4" d="M753.61,281.65v-1.22a3,3,0,0,1-.94,1.05,2.13,2.13,0,0,1-1.22.36,2.2,2.2,0,0,1-1.37-.44,2,2,0,0,1-.76-1.1,6.6,6.6,0,0,1-.2-1.81v-5.14h1.15V278a7.62,7.62,0,0,0,.13,1.72,1.32,1.32,0,0,0,.48.69,1.25,1.25,0,0,0,.79.26A1.65,1.65,0,0,0,753,280a3.73,3.73,0,0,0,.45-2.15v-4.45h1.16v8.3Z"/><path class="cls-4" d="M759,280.39l.15,1.24a3.15,3.15,0,0,1-.86.13,1.76,1.76,0,0,1-1-.24,1.24,1.24,0,0,1-.5-.65,6.39,6.39,0,0,1-.14-1.65v-4.77h-.84v-1.1h.84V271.3l1.15-.85v2.9H759v1.1h-1.17v4.85a2.42,2.42,0,0,0,.1.86.58.58,0,0,0,.56.29A2.86,2.86,0,0,0,759,280.39Z"/><path class="cls-4" d="M764.75,279l1.19.18a3.62,3.62,0,0,1-1.08,2,2.83,2.83,0,0,1-1.92.68,2.86,2.86,0,0,1-2.34-1.1,4.89,4.89,0,0,1-.9-3.17,5.13,5.13,0,0,1,.91-3.28,2.8,2.8,0,0,1,2.28-1.13,2.71,2.71,0,0,1,2.2,1.11,5.05,5.05,0,0,1,.89,3.21v.38h-5.08a3.57,3.57,0,0,0,.65,2.11,1.75,1.75,0,0,0,1.41.71C763.81,280.68,764.41,280.11,764.75,279ZM761,276.7h3.8a3.21,3.21,0,0,0-.46-1.61,1.69,1.69,0,0,0-1.42-.77,1.72,1.72,0,0,0-1.32.64A2.88,2.88,0,0,0,761,276.7Z"/><path class="cls-4" d="M767.76,281.65v-1.6h1.31v1.6Z"/><path class="cls-4" d="M922.87,533.65h-1.16v-9a5.74,5.74,0,0,1-1.07.95,6.55,6.55,0,0,1-1.23.74V525a7.25,7.25,0,0,0,1.68-1.33,5.11,5.11,0,0,0,1-1.54h.75Z"/><path class="cls-4" d="M929.52,533.65v-2.74h-4.07v-1.29l4.28-7.42h.94v7.42H932v1.29h-1.28v2.74Zm0-4v-5.17l-2.94,5.17Z"/><path class="cls-4" d="M933.2,523.7v-1.36h6.07v1.1a16.71,16.71,0,0,0-2.39,4.6,19.23,19.23,0,0,0-1.19,5.61h-1.18a16.77,16.77,0,0,1,.45-3.35,20.52,20.52,0,0,1,1.19-3.65,16.41,16.41,0,0,1,1.63-2.95Z"/><g class="cls-2"><path class="cls-3" d="M63,549c65.28,0,130.71,1.44,196-.11-14.67,3.55-32,6.26-44,15.78-.31,7.68,16.74,7.25,18.22,15.8.53,3-3,7.93-3,11.51a25.09,25.09,0,0,0,1.47,7.48,595.32,595.32,0,0,0-100.87,17.86c-22.82,6-43.63,15.12-65.94,22.1a6.86,6.86,0,0,1,6-.84q27.83.12,55.65.2,43.4-.37,86.79-.95c12.91.08,57.87-2.75,73.79,6.18-12,4.13-24.3,5.47-36.75,7.72l-18.18,3.71A191.85,191.85,0,0,0,202,664.5c-7.73,9.09,14,6.7,14.5,15.21-10.76,4.58-22.22,6.63-33.18,10.64,36,2.53,72.2,4.29,108.19,5.62q49.84,2.07,99.74,1.79c15.47-.09,28.43-.25,43.45,2.45a347.41,347.41,0,0,1,41.83,10c8.71,2.68,18.06,6.26,22.49-4.24a107,107,0,0,0,2.6-26.55c-.54-33.15-12.83-65.88-18.38-98.29-2.9-16.94-5.61-35.26-3.57-52.63,3.08,0,5.23,3.71,6.15,6.19-4.55,4.42-15.54-2-19.22-5.5"/></g><polyline class="cls-3" points="382.32 533.52 396.81 533.52 378.72 533.52"/><g class="cls-2"><path class="cls-3" d="M339.12,550.08a14.51,14.51,0,0,0,2-.1,135.33,135.33,0,0,0-13.92,3c.27-.07-7.34,1.39-8.16,2.34,1,.76,2.17.18,2.76,1-1,0-2.08.34-2.08,1.45a9.71,9.71,0,0,0,3.69,1c-1.18.58-2.34,1.22-3.48,1.89-.68.64-.68,1.83-1.31,2.22-.89.55-7,.82-7.24.87-6.16,1.14-12.28,2.67-18.32,4.29"/></g><polyline class="cls-3" points="235.44 480.96 285.12 480.96 293.01 481.09 299.52 481.21 317.06 483.12 323.28 483.25 337.68 483.37 370.08 483.5"/><g class="cls-2"><path class="cls-3" d="M348.48,478.8H389c-.34,0,5.33.29,6.21-.16-3,.76-5.3,2.79-7.85,4.36-2.21,1.36-5.23,2.27-7.18,3.59,3,.77,6.41-.38,9.52.29a26,26,0,0,0,2.69.6,110.78,110.78,0,0,0,12.62-.29q12.93-1,25.82-2.35c6.58-.51,13.61,0,20.14-1,1.9-.27,3.25-.28,4.07-2.2,2.83-6.63-11.9-8.48-14.67-9,.4.08-12.35-2.46-12.92-.92,3.09-.71,2.86-6.3,1.54-8.19-3.08-4.43-10.83-4.27-15.54-4.84a141.3,141.3,0,0,0-18.85-.76"/><path class="cls-3" d="M856.8,23.76c0,.2,0,.4,0,.6-5.88,1.05-12.38-.3-18.37,0-5.16.3-10.22,2.37-15.28,3.31-12.07,2.24-24.69,1.08-36.81.16C768,26.5,750,21.49,731.67,21.57c-8.5,0-15.79,3.22-23.76,5.86-10.62,3.51-22,3.52-33.06,3.56-21.09.08-42.19-.6-63.26-1.6-11.88-.56-24.46-.37-36.21-2.43-2.17-.38-4.7-.58-6.56-1.86,2.64,2.07,1.44,8.54,1.43,11.49,0,3.79-.25,7.71,0,11.48,7.39,1.11,5.76,16.15,5.8,21.17.05,7.11.18,14.23-.46,21.32-.47,5.27,1.3,8.33,5.46,11.68"/><path class="cls-3" d="M567.36,92.88v51.67c0-4.53-1-10,.14-14.37,1.53,1,.52,3.76,2,4.72,1.67,1.11,4.44-3.69,5.82-4.67a46.35,46.35,0,0,0-1.19,4.71c-2.69,13-2.69,27.39-3.07,40.61-.28,9.95-.56,20.17-.11,30.13a25.82,25.82,0,0,0,.72,5.37c-2.5-.43-3.29-5.85-6.79-3.44-2.43,1.68-1.47,4.67.77,5.72,1.26.59,3.39.4,4.68.73-.16,4.51-2.66,8.75-4.33,12.85-1,2.37-1,1.69.19,3.31,1,1.35,2.26.3,1.89,2.49a7.1,7.1,0,0,1-3.85,2,8.66,8.66,0,0,0-4,3.6c6.6,1.46,18.79-.46,23.7-.87,15.93-1.34,31.67-4.22,47.57-5.57"/><path class="cls-3" d="M877,147.6V168c0,6.07,1.54,15-.05,21-4.57.18-11.83-.77-14.56-4.86a274.53,274.53,0,0,0,5.11,27.45c.63,2.43,1.06,2.78-.46,4.89-2.72,3.77-9.28,4.23-13.56,4.77-9.31,1.17-19,.46-28.32.47"/></g></g></svg>