<svg id="Layer_1" data-name="Layer 1" xmlns="http://www.w3.org/2000/svg" xmlns:xlink="http://www.w3.org/1999/xlink" viewBox="0 0 1080 756"><defs><style>.cls-1,.cls-3{fill:none;}.cls-2{clip-path:url(#clip-path);}.cls-3{stroke:#231f20;stroke-width:0.25px;}.cls-4{fill:#231f20;}</style><clipPath id="clip-path"><rect class="cls-1" width="1080" height="756"/></clipPath></defs><title>Untitled-3</title><g class="cls-2"><g class="cls-2"><line class="cls-3" x1="180" y1="-18.36" x2="180" y2="790.92"/><line class="cls-3" x1="720" y1="-20.88" x2="720" y2="788.4"/><line class="cls-3" x1="359.88" y1="-18.36" x2="359.88" y2="790.92"/><line class="cls-3" x1="899.87" y1="-20.88" x2="899.87" y2="788.4"/><line class="cls-3" x1="-16.92" y1="251.88" x2="1101.6" y2="251.88"/><line class="cls-3" x1="-11.52" y1="504.13" x2="1107" y2="504.13"/><line class="cls-3" x1="540" y1="-19.44" x2="540" y2="789.84"/></g><path class="cls-4" d="M18.85,29.65v-8.3h1v1.26a3.67,3.67,0,0,1,.73-1.16,1.12,1.12,0,0,1,.75-.29,2,2,0,0,1,1.18.46l-.39,1.3a1.49,1.49,0,0,0-.84-.3,1,1,0,0,0-.67.26,1.38,1.38,0,0,0-.43.71A6.36,6.36,0,0,0,20,25.3v4.35Z"/><path class="cls-4" d="M27.87,27l1.18.18a3.55,3.55,0,0,1-1.07,2,2.84,2.84,0,0,1-1.93.68,2.89,2.89,0,0,1-2.34-1.1,5,5,0,0,1-.89-3.17,5.19,5.19,0,0,1,.9-3.28A2.82,2.82,0,0,1,26,21.16a2.71,2.71,0,0,1,2.2,1.11,5.05,5.05,0,0,1,.88,3.21v.38H24A3.5,3.5,0,0,0,24.66,28a1.75,1.75,0,0,0,1.4.71C26.93,28.68,27.53,28.11,27.87,27ZM24.08,24.7h3.8a3.2,3.2,0,0,0-.47-1.61A1.68,1.68,0,0,0,24.68,23,2.82,2.82,0,0,0,24.08,24.7Z"/><path class="cls-4" d="M30.48,29.65V18.2h1.14V29.65Z"/><path class="cls-4" d="M382.87,533.65h-1.16v-9a5.74,5.74,0,0,1-1.07.95,6.55,6.55,0,0,1-1.23.74V525a7.25,7.25,0,0,0,1.68-1.33,5.11,5.11,0,0,0,1-1.54h.75Z"/><path class="cls-4" d="M389.52,533.65v-2.74h-4.07v-1.29l4.28-7.42h.94v7.42H392v1.29h-1.28v2.74Zm0-4v-5.17l-2.94,5.17Z"/><path class="cls-4" d="M559,19.81V18.2h1.14v1.61Zm0,9.84v-8.3h1.14v8.3Z"/><path class="cls-4" d="M561.86,29.65v-8.3h1v1.17a2.76,2.76,0,0,1,.91-1,2.39,2.39,0,0,1,1.25-.34,2.44,2.44,0,0,1,1,.22,2.05,2.05,0,0,1,.75.56,2.21,2.21,0,0,1,.42.9,7.23,7.23,0,0,1,.14,1.71v5.1h-1.15v-5a4.34,4.34,0,0,0-.15-1.34,1.36,1.36,0,0,0-.49-.65,1.27,1.27,0,0,0-.77-.23,1.6,1.6,0,0,0-1.32.61,3.46,3.46,0,0,0-.49,2.12v4.54Z"/><path class="cls-4" d="M571.06,29.65l-2.59-8.3h1.22l1.46,5c.17.56.31,1.12.44,1.67.1-.44.24-1,.42-1.58l1.52-5.06h1.19l-2.59,8.3Z"/><path class="cls-4" d="M575.72,19.81V18.2h1.15v1.61Zm0,9.84v-8.3h1.15v8.3Z"/><path class="cls-4" d="M578.19,27.16l1.15-.21a2,2,0,0,0,.55,1.3,1.94,1.94,0,0,0,2.36.06,1.23,1.23,0,0,0,.41-.94.91.91,0,0,0-.36-.77,4.64,4.64,0,0,0-1.17-.47,8.35,8.35,0,0,1-1.79-.7,2,2,0,0,1-.71-.77,2.48,2.48,0,0,1-.25-1.11,2.31,2.31,0,0,1,.68-1.72,2.61,2.61,0,0,1,1.89-.67,3,3,0,0,1,1.33.28,2.13,2.13,0,0,1,.88.73,3.3,3.3,0,0,1,.42,1.32l-1.13.19A1.34,1.34,0,0,0,581,22.32a1.74,1.74,0,0,0-1.12.3.94.94,0,0,0-.37.77.87.87,0,0,0,.35.72,6.77,6.77,0,0,0,1.26.5,9.4,9.4,0,0,1,1.85.72,1.8,1.8,0,0,1,.65.74,2.38,2.38,0,0,1,.24,1.1,2.58,2.58,0,0,1-.76,1.93,2.82,2.82,0,0,1-2.06.74C579.39,29.84,578.45,29,578.19,27.16Z"/><path class="cls-4" d="M585.2,19.81V18.2h1.14v1.61Zm0,9.84v-8.3h1.14v8.3Z"/><path class="cls-4" d="M589.16,29.65h-1.07V18.2h1.16v4.08a2.77,2.77,0,0,1,.83-.84,2,2,0,0,1,1-.28,2.4,2.4,0,0,1,1.45.48,3.26,3.26,0,0,1,1,1.45,6.28,6.28,0,0,1,.39,2.35,5.22,5.22,0,0,1-.88,3.25,2.59,2.59,0,0,1-2.07,1.15,2,2,0,0,1-1.07-.31,2.65,2.65,0,0,1-.82-.92Zm0-4.21a5.9,5.9,0,0,0,.23,1.93,2.13,2.13,0,0,0,.67,1,1.46,1.46,0,0,0,1,.34,1.56,1.56,0,0,0,1.27-.8,4.24,4.24,0,0,0,.55-2.4,4.29,4.29,0,0,0-.53-2.39,1.45,1.45,0,0,0-2.58,0A4,4,0,0,0,589.15,25.44Z"/><path class="cls-4" d="M595.37,29.65V18.2h1.15V29.65Z"/><path class="cls-4" d="M603,27l1.19.18a3.62,3.62,0,0,1-1.08,2,2.83,2.83,0,0,1-1.92.68,2.86,2.86,0,0,1-2.34-1.1,4.89,4.89,0,0,1-.9-3.17,5.19,5.19,0,0,1,.9-3.28,2.84,2.84,0,0,1,2.29-1.13,2.71,2.71,0,0,1,2.2,1.11,5.05,5.05,0,0,1,.89,3.21v.38h-5.08a3.57,3.57,0,0,0,.65,2.11,1.75,1.75,0,0,0,1.4.71C602,28.68,602.63,28.11,603,27Zm-3.79-2.28H603a3.32,3.32,0,0,0-.46-1.61,1.69,1.69,0,0,0-2.74-.13A2.88,2.88,0,0,0,599.18,24.7Z"/><path class="cls-4" d="M613.72,26.61l1.13.18a3.79,3.79,0,0,1-1,2.26,2.55,2.55,0,0,1-1.89.79,2.66,2.66,0,0,1-2.19-1.1,5.16,5.16,0,0,1-.87-3.25,5.09,5.09,0,0,1,.87-3.24A2.73,2.73,0,0,1,612,21.16a2.55,2.55,0,0,1,1.78.66,3.2,3.2,0,0,1,.92,2l-1.11.2a2.39,2.39,0,0,0-.57-1.25,1.32,1.32,0,0,0-1-.42,1.69,1.69,0,0,0-1.41.75,4.12,4.12,0,0,0-.56,2.4,4.29,4.29,0,0,0,.54,2.45,1.59,1.59,0,0,0,1.37.76,1.48,1.48,0,0,0,1.12-.5A2.74,2.74,0,0,0,613.72,26.61Z"/><path class="cls-4" d="M615.79,29.65V18.2h1.15V29.65Z"/><path class="cls-4" d="M623.39,27l1.19.18a3.62,3.62,0,0,1-1.08,2,2.82,2.82,0,0,1-1.92.68,2.86,2.86,0,0,1-2.34-1.1,4.89,4.89,0,0,1-.9-3.17,5.13,5.13,0,0,1,.91-3.28,2.8,2.8,0,0,1,2.28-1.13,2.69,2.69,0,0,1,2.2,1.11,5.05,5.05,0,0,1,.89,3.21v.38h-5.08a3.57,3.57,0,0,0,.65,2.11,1.77,1.77,0,0,0,1.41.71C622.45,28.68,623.05,28.11,623.39,27ZM619.6,24.7h3.8a3.21,3.21,0,0,0-.46-1.61,1.69,1.69,0,0,0-1.42-.77,1.72,1.72,0,0,0-1.32.64A2.88,2.88,0,0,0,619.6,24.7Z"/><path class="cls-4" d="M630.47,28.62a4.23,4.23,0,0,1-1.2.91,3,3,0,0,1-1.3.31,2.32,2.32,0,0,1-1.7-.64,2.37,2.37,0,0,1-.63-1.73,2.62,2.62,0,0,1,.3-1.27,2.27,2.27,0,0,1,.81-.87,4.2,4.2,0,0,1,1.56-.46,9,9,0,0,0,2.07-.49V24a1.85,1.85,0,0,0-.3-1.2,1.67,1.67,0,0,0-1.32-.5,1.88,1.88,0,0,0-1.21.33,2.21,2.21,0,0,0-.58,1.26l-1.13-.19a3.13,3.13,0,0,1,1-1.95,3.26,3.26,0,0,1,2.11-.61,3,3,0,0,1,1.68.41,1.71,1.71,0,0,1,.77,1,7,7,0,0,1,.16,1.74v1.87a24.27,24.27,0,0,0,.07,2.48,3.6,3.6,0,0,0,.3,1H630.7A3.33,3.33,0,0,1,630.47,28.62Zm-.09-3.14a7.44,7.44,0,0,1-1.89.54,3.33,3.33,0,0,0-1,.28,1.08,1.08,0,0,0-.45.45,1.37,1.37,0,0,0-.16.68,1.27,1.27,0,0,0,.36.95,1.41,1.41,0,0,0,1,.35,2,2,0,0,0,1.12-.32,1.87,1.87,0,0,0,.75-.85,3.76,3.76,0,0,0,.26-1.56Z"/><path class="cls-4" d="M633.34,29.65v-8.3h1v1.17a2.68,2.68,0,0,1,.91-1,2.43,2.43,0,0,1,2.25-.12,2.05,2.05,0,0,1,.75.56,2.36,2.36,0,0,1,.43.9,7.81,7.81,0,0,1,.14,1.71v5.1h-1.15v-5a4,4,0,0,0-.16-1.34,1.27,1.27,0,0,0-1.25-.88A1.59,1.59,0,0,0,635,23a3.45,3.45,0,0,0-.5,2.12v4.54Z"/><path class="cls-4" d="M645.09,29.65V28.43a3,3,0,0,1-.94,1.05,2.16,2.16,0,0,1-1.22.36,2.21,2.21,0,0,1-1.38-.44,2.06,2.06,0,0,1-.76-1.1,7.09,7.09,0,0,1-.19-1.81V21.35h1.15V26a7.06,7.06,0,0,0,.13,1.72,1.22,1.22,0,0,0,.48.69,1.23,1.23,0,0,0,.79.26,1.66,1.66,0,0,0,1.36-.67A3.73,3.73,0,0,0,645,25.8V21.35h1.16v8.3Z"/><path class="cls-4" d="M647.93,32.83V21.35H649v1.08a2.7,2.7,0,0,1,.87-1,2,2,0,0,1,1.09-.3,2.36,2.36,0,0,1,1.45.48,3.26,3.26,0,0,1,1,1.45,6.09,6.09,0,0,1,.4,2.34,5.23,5.23,0,0,1-.89,3.26,2.61,2.61,0,0,1-2.08,1.15,1.81,1.81,0,0,1-1-.28,2.44,2.44,0,0,1-.8-.77v4ZM649,25.55a4.15,4.15,0,0,0,.54,2.37,1.46,1.46,0,0,0,2.58,0,4.29,4.29,0,0,0,.56-2.44,4.26,4.26,0,0,0-.54-2.4,1.42,1.42,0,0,0-2.57.06A4.33,4.33,0,0,0,649,25.55Z"/><path class="cls-4" d="M658.43,27.16l1.15-.21a2.06,2.06,0,0,0,.55,1.3,1.94,1.94,0,0,0,2.36.06,1.23,1.23,0,0,0,.41-.94.93.93,0,0,0-.35-.77,4.64,4.64,0,0,0-1.17-.47,8.28,8.28,0,0,1-1.8-.7,1.93,1.93,0,0,1-.7-.77,2.36,2.36,0,0,1-.26-1.11,2.31,2.31,0,0,1,.68-1.72,2.63,2.63,0,0,1,1.89-.67,3,3,0,0,1,1.33.28,2.06,2.06,0,0,1,.88.73,3.3,3.3,0,0,1,.42,1.32l-1.12.19a1.35,1.35,0,0,0-1.48-1.36,1.76,1.76,0,0,0-1.12.3,1,1,0,0,0-.37.77.86.86,0,0,0,.36.72,6.25,6.25,0,0,0,1.25.5,9.4,9.4,0,0,1,1.85.72,1.8,1.8,0,0,1,.65.74,2.38,2.38,0,0,1,.24,1.1,2.55,2.55,0,0,1-.76,1.93,2.8,2.8,0,0,1-2.05.74C659.64,29.84,658.69,29,658.43,27.16Z"/><path class="cls-4" d="M669.77,32.83V28.77a2.27,2.27,0,0,1-.77.77,1.84,1.84,0,0,1-1,.3,2.63,2.63,0,0,1-2.11-1.16,5.27,5.27,0,0,1-.89-3.26,5.68,5.68,0,0,1,.75-3,2.37,2.37,0,0,1,2.13-1.22,1.94,1.94,0,0,1,1.12.33,2.66,2.66,0,0,1,.86,1V21.35h1V32.83Zm-3.57-7.35a4.16,4.16,0,0,0,.57,2.41,1.61,1.61,0,0,0,1.34.79,1.51,1.51,0,0,0,1.23-.76,3.94,3.94,0,0,0,.54-2.27,4.62,4.62,0,0,0-.56-2.54,1.63,1.63,0,0,0-1.35-.84,1.5,1.5,0,0,0-1.24.78A4.42,4.42,0,0,0,666.2,25.48Z"/><path class="cls-4" d="M677.19,29.65V28.43a3,3,0,0,1-.94,1.05,2.16,2.16,0,0,1-1.22.36,2.2,2.2,0,0,1-1.37-.44,2.08,2.08,0,0,1-.77-1.1,7.09,7.09,0,0,1-.19-1.81V21.35h1.15V26a7.06,7.06,0,0,0,.13,1.72,1.32,1.32,0,0,0,.48.69,1.23,1.23,0,0,0,.79.26,1.66,1.66,0,0,0,1.36-.67,3.73,3.73,0,0,0,.45-2.15V21.35h1.16v8.3Z"/><path class="cls-4" d="M684.46,28.62a4.1,4.1,0,0,1-1.2.91,3,3,0,0,1-1.3.31,2.28,2.28,0,0,1-1.69-.64,2.34,2.34,0,0,1-.64-1.73,2.62,2.62,0,0,1,.3-1.27,2.27,2.27,0,0,1,.81-.87,4.33,4.33,0,0,1,1.56-.46,9,9,0,0,0,2.07-.49V24a1.84,1.84,0,0,0-.31-1.2,1.67,1.67,0,0,0-1.32-.5,1.83,1.83,0,0,0-1.2.33,2.21,2.21,0,0,0-.59,1.26l-1.13-.19a3.18,3.18,0,0,1,1-1.95,3.26,3.26,0,0,1,2.11-.61,3,3,0,0,1,1.68.41,1.71,1.71,0,0,1,.77,1,7,7,0,0,1,.16,1.74v1.87a23.12,23.12,0,0,0,.08,2.48,3.58,3.58,0,0,0,.29,1h-1.2A3.63,3.63,0,0,1,684.46,28.62Zm-.09-3.14a7.31,7.31,0,0,1-1.89.54,3.33,3.33,0,0,0-1,.28,1.21,1.21,0,0,0-.45.45,1.37,1.37,0,0,0-.16.68,1.24,1.24,0,0,0,.37.95,1.37,1.37,0,0,0,1,.35,2,2,0,0,0,1.12-.32,2,2,0,0,0,.76-.85,4,4,0,0,0,.25-1.56Z"/><path class="cls-4" d="M691.73,29.65v-1a2.26,2.26,0,0,1-.8.92,1.94,1.94,0,0,1-1.06.32,2.57,2.57,0,0,1-2.08-1.14,5.1,5.1,0,0,1-.88-3.2,6.56,6.56,0,0,1,.39-2.4,3.22,3.22,0,0,1,1-1.46,2.35,2.35,0,0,1,1.44-.48,2,2,0,0,1,1.06.3,2.51,2.51,0,0,1,.81.84V18.2h1.16V29.65Zm-3.64-4.14a4.16,4.16,0,0,0,.55,2.39,1.61,1.61,0,0,0,1.31.78,1.55,1.55,0,0,0,1.27-.75,3.9,3.9,0,0,0,.54-2.27,4.66,4.66,0,0,0-.54-2.54,1.6,1.6,0,0,0-1.36-.8,1.52,1.52,0,0,0-1.25.77A4.37,4.37,0,0,0,688.09,25.51Z"/><path class="cls-4" d="M559.27,46.65v-7.2h-1v-1.1h1v-.88a4,4,0,0,1,.2-1.47,1.56,1.56,0,0,1,.62-.74,2,2,0,0,1,1.06-.26,4.5,4.5,0,0,1,1.08.15l-.18,1.22a3.22,3.22,0,0,0-.67-.08.9.9,0,0,0-.74.27,1.67,1.67,0,0,0-.23,1v.76h1.33v1.1h-1.33v7.2Z"/><path class="cls-4" d="M562.16,42.5a5,5,0,0,1,.9-3.24,2.91,2.91,0,0,1,4.56,0,4.79,4.79,0,0,1,.91,3.15,5.17,5.17,0,0,1-.9,3.33,2.91,2.91,0,0,1-4.56,0A5,5,0,0,1,562.16,42.5Zm1.18,0a4,4,0,0,0,.58,2.39,1.75,1.75,0,0,0,1.46.79,1.69,1.69,0,0,0,1.39-.79,4,4,0,0,0,.58-2.39,4,4,0,0,0-.58-2.39,1.75,1.75,0,0,0-1.46-.79,1.7,1.7,0,0,0-1.4.79A4.09,4.09,0,0,0,563.34,42.5Z"/><path class="cls-4" d="M569.89,46.65v-8.3h1v1.26a3.67,3.67,0,0,1,.73-1.16,1.12,1.12,0,0,1,.75-.29,2,2,0,0,1,1.18.46l-.39,1.3a1.49,1.49,0,0,0-.84-.3,1,1,0,0,0-.67.26,1.32,1.32,0,0,0-.43.71A6.36,6.36,0,0,0,571,42.3v4.35Z"/><path class="cls-4" d="M580.47,45.39l.15,1.24a3.09,3.09,0,0,1-.85.13,1.72,1.72,0,0,1-1-.24,1.21,1.21,0,0,1-.51-.65,6.54,6.54,0,0,1-.13-1.65V39.45h-.85v-1.1h.85V36.3l1.14-.85v2.9h1.17v1.1H579.3V44.3a2.14,2.14,0,0,0,.11.86.56.56,0,0,0,.55.29A2.86,2.86,0,0,0,580.47,45.39Z"/><path class="cls-4" d="M581.55,46.65V35.2h1.15v4.1a2.82,2.82,0,0,1,.92-.85,2.29,2.29,0,0,1,1.13-.29,2.16,2.16,0,0,1,1.71.7,3.8,3.8,0,0,1,.63,2.53v5.26H586V41.39a2.45,2.45,0,0,0-.39-1.55,1.27,1.27,0,0,0-1-.46,1.64,1.64,0,0,0-1.28.6,3.28,3.28,0,0,0-.53,2.13v4.54Z"/><path class="cls-4" d="M593.5,44l1.19.18a3.62,3.62,0,0,1-1.08,2,2.83,2.83,0,0,1-1.92.68,2.86,2.86,0,0,1-2.34-1.1,4.89,4.89,0,0,1-.9-3.17,5.13,5.13,0,0,1,.91-3.28,2.8,2.8,0,0,1,2.28-1.13,2.71,2.71,0,0,1,2.2,1.11,5.05,5.05,0,0,1,.89,3.21v.38h-5.08a3.57,3.57,0,0,0,.65,2.11,1.75,1.75,0,0,0,1.41.71C592.56,45.68,593.16,45.11,593.5,44Zm-3.79-2.28h3.8a3.21,3.21,0,0,0-.46-1.61,1.69,1.69,0,0,0-1.42-.77,1.72,1.72,0,0,0-1.32.64A2.88,2.88,0,0,0,589.71,41.7Z"/><path class="cls-4" d="M599.35,44.16,600.5,44a2.06,2.06,0,0,0,.55,1.3,1.94,1.94,0,0,0,2.36.06,1.23,1.23,0,0,0,.41-.94.93.93,0,0,0-.35-.77,4.64,4.64,0,0,0-1.17-.47,8.28,8.28,0,0,1-1.8-.7,1.93,1.93,0,0,1-.7-.77,2.36,2.36,0,0,1-.25-1.11,2.28,2.28,0,0,1,.68-1.72,2.58,2.58,0,0,1,1.88-.67,3,3,0,0,1,1.33.28,2.06,2.06,0,0,1,.88.73,3.3,3.3,0,0,1,.42,1.32l-1.12.19a1.35,1.35,0,0,0-1.48-1.36,1.76,1.76,0,0,0-1.12.3,1,1,0,0,0-.36.77.85.85,0,0,0,.35.72,6.55,6.55,0,0,0,1.25.5,9.4,9.4,0,0,1,1.85.72,1.89,1.89,0,0,1,.66.74,2.51,2.51,0,0,1,.23,1.1,2.58,2.58,0,0,1-.75,1.93,2.84,2.84,0,0,1-2.06.74C600.56,46.84,599.61,46,599.35,44.16Z"/><path class="cls-4" d="M610.81,46.65V45.43a2.93,2.93,0,0,1-.93,1,2.16,2.16,0,0,1-1.22.36,2.21,2.21,0,0,1-1.38-.44,2.06,2.06,0,0,1-.76-1.1,6.66,6.66,0,0,1-.19-1.81V38.35h1.15V43a7.06,7.06,0,0,0,.13,1.72,1.3,1.3,0,0,0,1.27.95,1.63,1.63,0,0,0,1.35-.67,3.64,3.64,0,0,0,.46-2.15V38.35h1.15v8.3Z"/><path class="cls-4" d="M613.66,49.83V38.35h1.06v1.08a2.77,2.77,0,0,1,.86-1,2,2,0,0,1,1.1-.3,2.38,2.38,0,0,1,1.45.48,3.26,3.26,0,0,1,1,1.45,6.3,6.3,0,0,1,.39,2.34,5.23,5.23,0,0,1-.88,3.26,2.62,2.62,0,0,1-2.09,1.15,1.86,1.86,0,0,1-1-.28,2.54,2.54,0,0,1-.8-.77v4Zm1-7.28a4.15,4.15,0,0,0,.54,2.37,1.47,1.47,0,0,0,2.59,0,4.3,4.3,0,0,0,.55-2.44,4.26,4.26,0,0,0-.54-2.4,1.54,1.54,0,0,0-1.3-.78,1.58,1.58,0,0,0-1.27.84A4.33,4.33,0,0,0,614.7,42.55Z"/><path class="cls-4" d="M625.6,44l1.19.18a3.62,3.62,0,0,1-1.08,2,2.82,2.82,0,0,1-1.92.68,2.89,2.89,0,0,1-2.34-1.1,4.89,4.89,0,0,1-.9-3.17,5.19,5.19,0,0,1,.91-3.28,2.8,2.8,0,0,1,2.28-1.13A2.72,2.72,0,0,1,626,39.27a5.11,5.11,0,0,1,.88,3.21v.38h-5.08a3.57,3.57,0,0,0,.65,2.11,1.78,1.78,0,0,0,1.41.71C624.66,45.68,625.26,45.11,625.6,44Zm-3.79-2.28h3.8a3.21,3.21,0,0,0-.46-1.61,1.69,1.69,0,0,0-1.42-.77,1.72,1.72,0,0,0-1.32.64A2.88,2.88,0,0,0,621.81,41.7Z"/><path class="cls-4" d="M628.25,46.65v-8.3h1v1.26a3.5,3.5,0,0,1,.73-1.16,1.12,1.12,0,0,1,.75-.29,2,2,0,0,1,1.18.46l-.4,1.3a1.43,1.43,0,0,0-.83-.3,1,1,0,0,0-.67.26,1.32,1.32,0,0,0-.43.71,6.36,6.36,0,0,0-.22,1.71v4.35Z"/><path class="cls-4" d="M633.87,46.65l-2.09-8.3H633l1.09,4.79.4,1.78.36-1.71,1.08-4.86h1.19l1,4.81.34,1.59.39-1.6,1.16-4.8h1.13L639,46.65h-1.2l-1.08-5-.26-1.41-1.38,6.38Z"/><path class="cls-4" d="M646.52,45.62a4.14,4.14,0,0,1-1.21.91,3,3,0,0,1-1.29.31,2.31,2.31,0,0,1-1.7-.64,2.37,2.37,0,0,1-.63-1.73A2.73,2.73,0,0,1,642,43.2a2.22,2.22,0,0,1,.82-.87,4.2,4.2,0,0,1,1.56-.46,8.87,8.87,0,0,0,2.06-.49V41a1.78,1.78,0,0,0-.31-1.2,1.64,1.64,0,0,0-1.32-.5,1.87,1.87,0,0,0-1.2.33,2.21,2.21,0,0,0-.58,1.26l-1.14-.19a3.18,3.18,0,0,1,1-1.95,3.3,3.3,0,0,1,2.12-.61,3,3,0,0,1,1.68.41,1.75,1.75,0,0,1,.77,1,7.53,7.53,0,0,1,.16,1.74v1.87a24.27,24.27,0,0,0,.07,2.48,3.94,3.94,0,0,0,.29,1h-1.2A3.33,3.33,0,0,1,646.52,45.62Zm-.1-3.14a7.34,7.34,0,0,1-1.88.54,3.42,3.42,0,0,0-1,.28,1.21,1.21,0,0,0-.45.45,1.48,1.48,0,0,0-.16.68,1.28,1.28,0,0,0,.37,1,1.39,1.39,0,0,0,1,.35,2,2,0,0,0,1.87-1.17,3.78,3.78,0,0,0,.25-1.56Z"/><path class="cls-4" d="M649.38,46.65v-8.3h1v1.26a3.67,3.67,0,0,1,.73-1.16,1.12,1.12,0,0,1,.75-.29,2,2,0,0,1,1.18.46l-.39,1.3a1.49,1.49,0,0,0-.84-.3,1,1,0,0,0-.67.26,1.38,1.38,0,0,0-.43.71,6.36,6.36,0,0,0-.22,1.71v4.35Z"/><path class="cls-4" d="M653.71,49.84l-.12-1.32a2,2,0,0,0,.65.13,1.13,1.13,0,0,0,.61-.15,1.06,1.06,0,0,0,.39-.46c0-.07.19-.53.46-1.38l-2.59-8.31h1.24l1.42,4.8c.18.6.34,1.24.5,1.92.13-.64.28-1.27.46-1.89l1.46-4.83h1.15l-2.58,8.44A14.86,14.86,0,0,1,656,49a2.15,2.15,0,0,1-.66.79,1.54,1.54,0,0,1-.85.25A1.93,1.93,0,0,1,653.71,49.84Z"/><path class="cls-4" d="M659.73,46.65v-1.6H661v1.6Z"/><path class="cls-4" d="M742.87,533.9h-1.16v-9a5.74,5.74,0,0,1-1.07.95,6.55,6.55,0,0,1-1.23.74v-1.36a7.25,7.25,0,0,0,1.68-1.33,5.11,5.11,0,0,0,1-1.54h.75Z"/><path class="cls-4" d="M745.82,530.9l1.21-.13a2.85,2.85,0,0,0,.64,1.63,1.51,1.51,0,0,0,1.15.54,1.72,1.72,0,0,0,1.41-.76,3.22,3.22,0,0,0,.6-2.06,2.8,2.8,0,0,0-.58-1.9,1.78,1.78,0,0,0-1.44-.68,1.83,1.83,0,0,0-1,.29,2.13,2.13,0,0,0-.72.82l-1.09-.17.92-5.89h4.66v1.35h-3.75l-.5,3.08a2.69,2.69,0,0,1,1.77-.72,2.66,2.66,0,0,1,2.06,1,4,4,0,0,1,.87,2.71,4.77,4.77,0,0,1-.87,2.88,2.76,2.76,0,0,1-2.34,1.2,2.79,2.79,0,0,1-2.06-.84A3.64,3.64,0,0,1,745.82,530.9Z"/><g class="cls-2"><path class="cls-3" d="M77.4,700.2v-117S90,514.55,90,509.4L109.8,441l12.6-36L162,360l66.6-25.2,61.2-.12,69.95-.12"/><path class="cls-3" d="M401.4,334.43H468l54,.13s66.6.12,73.8.12H765S757.8,324,765,324s63-.12,63-.12,1.8-.13,12.6-.13,93.6,5.47,93.6,5.47,37.8,5.59,46.8,5.59S1042.2,378,1042.2,378l.08,153L1026,588.6"/><path class="cls-3" d="M102.6,381.6q-2.88-.68-2.19-2.89c31.14-4.49,62.46-7.94,92.84-16.35-4.05.74-7.76,2.88-11.3,4.94a198.32,198.32,0,0,1,28.92-4.38c7.95-1.08,42.58-3.51,52.68-9.62l-2.4.73a93.58,93.58,0,0,0,29.38.93c61.48.05,122.43-5.32,183.7-9.22a7.23,7.23,0,0,1-5.79.86c25.81-10.64,51.84-21.78,79-28.48a114.82,114.82,0,0,1-14,8.94q9.83,1.6,19.11-4.78c27.38-7,55.49-11.26,83.35-15.9-.12-.45-11.77,10.63-13.18,12.26q8.13,5.81,18.58,1.93c3.53-.08,31.9-2.76,36.22,1.37-11.63,5.52-31.63,13.25-36.39,26.24,17.91-2.34,35.6-5.75,53.43-8.54-13.25,5.49-26.45,11-39.55,16.87.69,1.85,56.94-8.58,63.72-9.36q-5,2.37-6.15-1.56c9.81-4.48,19.85-8.28,29.85-12.32a173.53,173.53,0,0,0-35,16.8,149.69,149.69,0,0,0,49.52-12.77,38,38,0,0,0,6.74-4.44c7.66.65,15.68.67,23-2a26.5,26.5,0,0,1-7.05,9.38c23.6-7.11,46.69-16.11,69.64-25a10.58,10.58,0,0,1-3.43,4.12c22.37-2,43-13.51,65.52-16.05-2.63,5.3-8.82,12.12-7.83,18.11,13.36-8.85,26.5-18,39.65-27.15q1.6,2.7-.62,5.61c11.84-3.24,23.79-14.78,32-23.44,3.63-3.83,4.08-7.72,8-5.66,9.36-31.24,19.47-65.43,38.13-92.51"/></g></g></svg>