<svg id="Layer_1" data-name="Layer 1" xmlns="http://www.w3.org/2000/svg" xmlns:xlink="http://www.w3.org/1999/xlink" viewBox="0 0 1080 756"><defs><style>.cls-1,.cls-3{fill:none;}.cls-2{clip-path:url(#clip-path);}.cls-3{stroke:#231f20;stroke-width:0.25px;}.cls-4{fill:#231f20;}</style><clipPath id="clip-path"><rect class="cls-1" width="1080" height="756"/></clipPath></defs><title>Untitled-3</title><g class="cls-2"><g class="cls-2"><line class="cls-3" x1="180" y1="-18.36" x2="180" y2="790.92"/><line class="cls-3" x1="720" y1="-20.88" x2="720" y2="788.4"/><line class="cls-3" x1="359.88" y1="-18.36" x2="359.88" y2="790.92"/><line class="cls-3" x1="899.87" y1="-20.88" x2="899.87" y2="788.4"/><line class="cls-3" x1="-16.92" y1="251.88" x2="1101.6" y2="251.88"/><line class="cls-3" x1="-11.52" y1="504.13" x2="1107" y2="504.13"/><line class="cls-3" x1="540" y1="-19.44" x2="540" y2="789.84"/></g><path class="cls-4" d="M921.41,280.39l.16,1.25a3.54,3.54,0,0,1-.86.12,1.76,1.76,0,0,1-1-.24,1.2,1.2,0,0,1-.5-.65,6.39,6.39,0,0,1-.14-1.65v-4.77h-.84v-1.1h.84V271.3l1.15-.84v2.89h1.16v1.1h-1.16v4.85a2.26,2.26,0,0,0,.1.87.59.59,0,0,0,.56.28A2.67,2.67,0,0,0,921.41,280.39Z"/><path class="cls-4" d="M922.5,281.65V270.2h1.15v4.11a2.86,2.86,0,0,1,.92-.86,2.26,2.26,0,0,1,1.13-.28,2.2,2.2,0,0,1,1.71.69,3.8,3.8,0,0,1,.63,2.53v5.26h-1.15v-5.26a2.46,2.46,0,0,0-.38-1.54,1.28,1.28,0,0,0-1.06-.47,1.62,1.62,0,0,0-1.27.6,3.22,3.22,0,0,0-.53,2.13v4.54Z"/><path class="cls-4" d="M934.45,279l1.18.18a3.61,3.61,0,0,1-1.07,2,2.84,2.84,0,0,1-1.93.68,2.89,2.89,0,0,1-2.34-1.1,5,5,0,0,1-.89-3.17,5.14,5.14,0,0,1,.9-3.27,2.78,2.78,0,0,1,2.29-1.13,2.71,2.71,0,0,1,2.2,1.11,5.05,5.05,0,0,1,.88,3.21v.37h-5.07a3.57,3.57,0,0,0,.64,2.11,1.75,1.75,0,0,0,1.41.71C933.5,280.68,934.11,280.12,934.45,279Zm-3.79-2.27h3.79a3.08,3.08,0,0,0-.46-1.61,1.66,1.66,0,0,0-2.73-.13A2.76,2.76,0,0,0,930.66,276.71Z"/><path class="cls-4" d="M937.09,281.65v-8.3h1v1.18a2.74,2.74,0,0,1,.92-1,2.35,2.35,0,0,1,1.24-.33,2.4,2.4,0,0,1,1,.21,2.17,2.17,0,0,1,.75.56,2.48,2.48,0,0,1,.43.91,7.71,7.71,0,0,1,.14,1.7v5.1h-1.15v-5a4,4,0,0,0-.16-1.34,1.25,1.25,0,0,0-.49-.65,1.32,1.32,0,0,0-.77-.23,1.59,1.59,0,0,0-1.32.62,3.51,3.51,0,0,0-.49,2.12v4.53Z"/><path class="cls-4" d="M950.6,280.39l.16,1.25a3.61,3.61,0,0,1-.86.12,1.74,1.74,0,0,1-1-.24,1.16,1.16,0,0,1-.5-.65,6,6,0,0,1-.14-1.65v-4.77h-.84v-1.1h.84V271.3l1.15-.84v2.89h1.16v1.1h-1.16v4.85a2.26,2.26,0,0,0,.1.87.58.58,0,0,0,.55.28A2.86,2.86,0,0,0,950.6,280.39Z"/><path class="cls-4" d="M951.69,281.65V270.2h1.15v4.11a2.84,2.84,0,0,1,.91-.86,2.28,2.28,0,0,1,1.13-.28,2.21,2.21,0,0,1,1.72.69,3.8,3.8,0,0,1,.63,2.53v5.26h-1.15v-5.26a2.46,2.46,0,0,0-.38-1.54,1.28,1.28,0,0,0-1.06-.47,1.64,1.64,0,0,0-1.28.6,3.28,3.28,0,0,0-.52,2.13v4.54Z"/><path class="cls-4" d="M959,271.82V270.2h1.15v1.62Zm0,9.83v-8.3h1.15v8.3Z"/><path class="cls-4" d="M961.9,281.65v-8.3h1v1.18a2.72,2.72,0,0,1,.91-1,2.36,2.36,0,0,1,1.25-.33,2.44,2.44,0,0,1,1,.21,2.17,2.17,0,0,1,.75.56,2.32,2.32,0,0,1,.42.91,7.13,7.13,0,0,1,.14,1.7v5.1h-1.15v-5a4.34,4.34,0,0,0-.15-1.34,1.36,1.36,0,0,0-.49-.65,1.34,1.34,0,0,0-.77-.23,1.59,1.59,0,0,0-1.32.62,3.44,3.44,0,0,0-.49,2.12v4.53Z"/><path class="cls-4" d="M969,282.34l1.12.2a1.5,1.5,0,0,0,.47,1,1.69,1.69,0,0,0,1.09.32,1.9,1.9,0,0,0,1.21-.36,1.85,1.85,0,0,0,.61-1.08,10.25,10.25,0,0,0,.1-1.85,2.68,2.68,0,0,1-.84.81,2.07,2.07,0,0,1-1,.27,2.48,2.48,0,0,1-2-1,5.07,5.07,0,0,1-.92-3.18,6.23,6.23,0,0,1,.41-2.34,3.21,3.21,0,0,1,1.06-1.46,2.49,2.49,0,0,1,1.49-.47,2.14,2.14,0,0,1,1.09.29,2.67,2.67,0,0,1,.88.89v-1h1.06v7.18a8.43,8.43,0,0,1-.31,2.73,2.71,2.71,0,0,1-1,1.29,3.09,3.09,0,0,1-1.71.47,2.76,2.76,0,0,1-2-.71A2.56,2.56,0,0,1,969,282.34Zm.95-5a4.14,4.14,0,0,0,.54,2.39,1.6,1.6,0,0,0,1.33.76,1.63,1.63,0,0,0,1.33-.74,4,4,0,0,0,.54-2.34,3.89,3.89,0,0,0-.56-2.33,1.67,1.67,0,0,0-1.37-.77,1.54,1.54,0,0,0-1.26.77A3.83,3.83,0,0,0,969.92,277.35Z"/><path class="cls-4" d="M976.05,279.17l1.15-.22a2,2,0,0,0,.55,1.3,1.94,1.94,0,0,0,2.36.06,1.23,1.23,0,0,0,.41-.94.92.92,0,0,0-.36-.77,4.37,4.37,0,0,0-1.17-.46,8.79,8.79,0,0,1-1.79-.71,2,2,0,0,1-.71-.77,2.44,2.44,0,0,1-.25-1.1,2.32,2.32,0,0,1,.68-1.73,2.6,2.6,0,0,1,1.88-.66,3.14,3.14,0,0,1,1.34.27,2.2,2.2,0,0,1,.88.73,3.3,3.3,0,0,1,.42,1.33l-1.13.18a1.35,1.35,0,0,0-1.47-1.36,1.74,1.74,0,0,0-1.12.3.94.94,0,0,0-.37.77.85.85,0,0,0,.35.72,5.84,5.84,0,0,0,1.26.5,10.11,10.11,0,0,1,1.85.72,1.8,1.8,0,0,1,.65.74,2.39,2.39,0,0,1,.24,1.11,2.58,2.58,0,0,1-.76,1.92,2.82,2.82,0,0,1-2.06.74C977.25,281.84,976.31,281,976.05,279.17Z"/><path class="cls-4" d="M986.7,281.65v-8.3h1v1.26a3.67,3.67,0,0,1,.73-1.16,1.11,1.11,0,0,1,.75-.28,2,2,0,0,1,1.18.45l-.39,1.3a1.49,1.49,0,0,0-.84-.3,1,1,0,0,0-.67.26,1.37,1.37,0,0,0-.43.72,6.26,6.26,0,0,0-.22,1.71v4.34Z"/><path class="cls-4" d="M995.72,279l1.19.18a3.62,3.62,0,0,1-1.08,2,2.83,2.83,0,0,1-1.92.68,2.86,2.86,0,0,1-2.34-1.1,4.89,4.89,0,0,1-.9-3.17,5.14,5.14,0,0,1,.9-3.27,2.81,2.81,0,0,1,2.29-1.13,2.71,2.71,0,0,1,2.2,1.11,5.05,5.05,0,0,1,.89,3.21v.37h-5.08a3.57,3.57,0,0,0,.65,2.11,1.72,1.72,0,0,0,1.4.71C994.78,280.68,995.38,280.12,995.72,279Zm-3.79-2.27h3.8a3.28,3.28,0,0,0-.46-1.61,1.67,1.67,0,0,0-2.74-.13A2.88,2.88,0,0,0,991.93,276.71Z"/><path class="cls-4" d="M1002.8,280.63a4.27,4.27,0,0,1-1.21.9,2.79,2.79,0,0,1-1.29.31,2.31,2.31,0,0,1-1.7-.64,2.36,2.36,0,0,1-.63-1.73,2.62,2.62,0,0,1,.3-1.27,2.13,2.13,0,0,1,.81-.87,4.2,4.2,0,0,1,1.56-.46,8.74,8.74,0,0,0,2.06-.49V276a1.85,1.85,0,0,0-.3-1.2,1.67,1.67,0,0,0-1.32-.5,1.82,1.82,0,0,0-1.21.34,2.18,2.18,0,0,0-.58,1.25l-1.14-.19a3.17,3.17,0,0,1,1-1.94,3.25,3.25,0,0,1,2.12-.61,3,3,0,0,1,1.68.4,1.77,1.77,0,0,1,.77,1,7.37,7.37,0,0,1,.16,1.73v1.87a24.52,24.52,0,0,0,.07,2.49,3.87,3.87,0,0,0,.29,1H1003A3.26,3.26,0,0,1,1002.8,280.63Zm-.1-3.14a7.4,7.4,0,0,1-1.88.53,3.87,3.87,0,0,0-1,.28,1.09,1.09,0,0,0-.44.46,1.33,1.33,0,0,0-.16.67,1.27,1.27,0,0,0,.36.95,1.41,1.41,0,0,0,1,.36,2.09,2.09,0,0,0,1.12-.32,2,2,0,0,0,.75-.86,3.72,3.72,0,0,0,.25-1.56Z"/><path class="cls-4" d="M1005.62,281.65V270.2h1.15v11.45Z"/><path class="cls-4" d="M1008.54,281.65V270.2h1.15v11.45Z"/><path class="cls-4" d="M1011.45,284.85l-.12-1.32a2.2,2.2,0,0,0,.66.12,1.11,1.11,0,0,0,.6-.15,1.14,1.14,0,0,0,.4-.46q0-.1.45-1.38l-2.59-8.31h1.24l1.43,4.81c.17.59.34,1.24.49,1.92a18.64,18.64,0,0,1,.47-1.89l1.45-4.84h1.16l-2.59,8.44a13,13,0,0,1-.8,2.19,2,2,0,0,1-.66.8,1.53,1.53,0,0,1-.84.24A2.1,2.1,0,0,1,1011.45,284.85Z"/><path class="cls-4" d="M1021.48,282.34l1.12.2a1.46,1.46,0,0,0,.47,1,1.69,1.69,0,0,0,1.09.32,1.69,1.69,0,0,0,1.82-1.44,11.33,11.33,0,0,0,.1-1.85,2.6,2.6,0,0,1-.85.81,2,2,0,0,1-1,.27,2.47,2.47,0,0,1-2-1,5.07,5.07,0,0,1-.92-3.18,6.23,6.23,0,0,1,.41-2.34,3.21,3.21,0,0,1,1.06-1.46,2.46,2.46,0,0,1,1.48-.47,2.18,2.18,0,0,1,1.1.29,2.77,2.77,0,0,1,.88.89v-1h1.06v7.18a8.43,8.43,0,0,1-.31,2.73,2.71,2.71,0,0,1-1,1.29,3.09,3.09,0,0,1-1.71.47,2.8,2.8,0,0,1-2-.71A2.59,2.59,0,0,1,1021.48,282.34Zm.95-5a4.14,4.14,0,0,0,.54,2.39,1.6,1.6,0,0,0,1.32.76,1.62,1.62,0,0,0,1.33-.74,3.92,3.92,0,0,0,.55-2.34,4,4,0,0,0-.56-2.33,1.67,1.67,0,0,0-1.37-.77,1.57,1.57,0,0,0-1.27.77A3.91,3.91,0,0,0,1022.43,277.35Z"/><path class="cls-4" d="M1028.56,277.5a5,5,0,0,1,.9-3.24,2.93,2.93,0,0,1,4.56,0,4.8,4.8,0,0,1,.92,3.16,5.17,5.17,0,0,1-.9,3.33,2.93,2.93,0,0,1-4.57,0A5,5,0,0,1,1028.56,277.5Zm1.18,0a4,4,0,0,0,.59,2.4,1.75,1.75,0,0,0,1.45.78,1.7,1.7,0,0,0,1.4-.79,4.11,4.11,0,0,0,.58-2.39,4,4,0,0,0-.59-2.39,1.74,1.74,0,0,0-1.45-.79,1.72,1.72,0,0,0-1.4.79A4,4,0,0,0,1029.74,277.5Z"/><path class="cls-4" d="M1038.86,280.39l.16,1.25a3.61,3.61,0,0,1-.86.12,1.72,1.72,0,0,1-1-.24,1.18,1.18,0,0,1-.51-.65,6.54,6.54,0,0,1-.13-1.65v-4.77h-.85v-1.1h.85V271.3l1.15-.84v2.89h1.16v1.1h-1.16v4.85a2.26,2.26,0,0,0,.1.87.58.58,0,0,0,.55.28A2.86,2.86,0,0,0,1038.86,280.39Z"/><path class="cls-4" d="M919.91,300.85h-1.07V289.4H920v4.08a2.77,2.77,0,0,1,.83-.84,2,2,0,0,1,1-.27,2.46,2.46,0,0,1,1.45.47,3.26,3.26,0,0,1,1,1.45,6.28,6.28,0,0,1,.39,2.35,5.2,5.2,0,0,1-.88,3.25,2.56,2.56,0,0,1-2.07,1.15,1.91,1.91,0,0,1-1.07-.31,2.63,2.63,0,0,1-.81-.92Zm0-4.21a6.18,6.18,0,0,0,.23,1.93,2.17,2.17,0,0,0,.67,1,1.45,1.45,0,0,0,2.22-.47,4.2,4.2,0,0,0,.55-2.39,4.31,4.31,0,0,0-.53-2.4,1.45,1.45,0,0,0-2.58,0A4.08,4.08,0,0,0,919.89,296.64Z"/><path class="cls-4" d="M926.15,300.85v-8.3h1v1.26a3.5,3.5,0,0,1,.73-1.16,1.1,1.1,0,0,1,.74-.28,2,2,0,0,1,1.18.45l-.39,1.3a1.43,1.43,0,0,0-.83-.3,1,1,0,0,0-.67.26,1.31,1.31,0,0,0-.43.72,6.26,6.26,0,0,0-.22,1.71v4.34Z"/><path class="cls-4" d="M930.52,291V289.4h1.14V291Zm0,9.84v-8.3h1.14v8.3Z"/><path class="cls-4" d="M933.2,301.54l1.13.2a1.46,1.46,0,0,0,.47,1,1.67,1.67,0,0,0,1.08.32,1.67,1.67,0,0,0,1.82-1.44,10.25,10.25,0,0,0,.1-1.85,2.68,2.68,0,0,1-.84.81,2,2,0,0,1-1,.27,2.45,2.45,0,0,1-2-1,5,5,0,0,1-.92-3.18,6.23,6.23,0,0,1,.4-2.34,3.31,3.31,0,0,1,1.07-1.47,2.5,2.5,0,0,1,1.48-.46,2.08,2.08,0,0,1,1.1.29,2.77,2.77,0,0,1,.88.89v-1H939v7.18a8.72,8.72,0,0,1-.31,2.73,2.67,2.67,0,0,1-1,1.29,3,3,0,0,1-1.71.47,2.76,2.76,0,0,1-2-.71A2.64,2.64,0,0,1,933.2,301.54Zm1-5a4.16,4.16,0,0,0,.54,2.39,1.59,1.59,0,0,0,1.32.75,1.61,1.61,0,0,0,1.33-.73,3.92,3.92,0,0,0,.55-2.34,3.86,3.86,0,0,0-.57-2.33,1.66,1.66,0,0,0-1.37-.77,1.54,1.54,0,0,0-1.26.77A3.88,3.88,0,0,0,934.16,296.55Z"/><path class="cls-4" d="M940.73,300.85V289.4h1.15v4.11a2.84,2.84,0,0,1,.91-.86,2.28,2.28,0,0,1,1.13-.28,2.21,2.21,0,0,1,1.72.69,3.8,3.8,0,0,1,.63,2.53v5.26h-1.15v-5.26a2.4,2.4,0,0,0-.39-1.54,1.25,1.25,0,0,0-1.05-.47,1.64,1.64,0,0,0-1.28.6,3.28,3.28,0,0,0-.52,2.13v4.54Z"/><path class="cls-4" d="M950.59,299.59l.15,1.24a3.15,3.15,0,0,1-.86.13,1.76,1.76,0,0,1-1-.24,1.2,1.2,0,0,1-.5-.65,6.39,6.39,0,0,1-.14-1.65v-4.77h-.84v-1.1h.84V290.5l1.15-.84v2.89h1.17v1.1h-1.17v4.85a2.49,2.49,0,0,0,.1.87.59.59,0,0,0,.56.28A2.86,2.86,0,0,0,950.59,299.59Z"/><path class="cls-4" d="M956.32,298.18l1.19.18a3.62,3.62,0,0,1-1.08,2,2.82,2.82,0,0,1-1.92.68,2.86,2.86,0,0,1-2.34-1.1,4.89,4.89,0,0,1-.9-3.17,5.08,5.08,0,0,1,.91-3.27,2.78,2.78,0,0,1,2.28-1.13,2.69,2.69,0,0,1,2.2,1.11,5,5,0,0,1,.89,3.21v.37h-5.08a3.57,3.57,0,0,0,.65,2.11,1.77,1.77,0,0,0,1.41.71C955.38,299.88,956,299.31,956.32,298.18Zm-3.79-2.27h3.8a3.18,3.18,0,0,0-.46-1.61,1.67,1.67,0,0,0-1.42-.78,1.69,1.69,0,0,0-1.32.65A2.88,2.88,0,0,0,952.53,295.91Z"/><path class="cls-4" d="M959,300.85v-8.3h1v1.26a3.5,3.5,0,0,1,.73-1.16,1.1,1.1,0,0,1,.74-.28,2,2,0,0,1,1.18.45l-.39,1.3a1.43,1.43,0,0,0-.83-.3,1,1,0,0,0-.67.26,1.31,1.31,0,0,0-.43.72,6.26,6.26,0,0,0-.22,1.71v4.34Z"/><path class="cls-4" d="M963,300.85v-1.6h1.31v1.6a3.25,3.25,0,0,1-.27,1.46,2,2,0,0,1-.8.81l-.32-.61a1.23,1.23,0,0,0,.53-.55,2.78,2.78,0,0,0,.2-1.11Z"/><path class="cls-4" d="M743.28,532.62a4,4,0,0,1-1.2.91,3,3,0,0,1-1.3.31,2.28,2.28,0,0,1-1.69-.64,2.34,2.34,0,0,1-.64-1.73,2.62,2.62,0,0,1,.3-1.27,2.27,2.27,0,0,1,.81-.87,4.33,4.33,0,0,1,1.56-.46,9,9,0,0,0,2.07-.49V528a1.84,1.84,0,0,0-.31-1.2,1.67,1.67,0,0,0-1.32-.5,1.83,1.83,0,0,0-1.2.33,2.21,2.21,0,0,0-.59,1.26l-1.13-.19a3.18,3.18,0,0,1,1-2,3.27,3.27,0,0,1,2.11-.61,3,3,0,0,1,1.68.41,1.71,1.71,0,0,1,.77,1,7,7,0,0,1,.16,1.74v1.87a23.12,23.12,0,0,0,.08,2.48,3.58,3.58,0,0,0,.29,1h-1.2A3.63,3.63,0,0,1,743.28,532.62Zm-.09-3.14a7.31,7.31,0,0,1-1.89.54,3.33,3.33,0,0,0-1,.28,1.21,1.21,0,0,0-.45.45,1.37,1.37,0,0,0-.16.68,1.24,1.24,0,0,0,.37,1,1.37,1.37,0,0,0,1,.35,2,2,0,0,0,1.12-.32,2,2,0,0,0,.76-.85,4,4,0,0,0,.25-1.56Z"/><path class="cls-4" d="M749.76,533.65V522.2h1.15v11.45Z"/><path class="cls-4" d="M752.71,523.81V522.2h1.15v1.61Zm0,9.84v-8.3h1.15v8.3Z"/><path class="cls-4" d="M758.19,532.39l.15,1.24a3.1,3.1,0,0,1-.86.13,1.71,1.71,0,0,1-1-.24,1.21,1.21,0,0,1-.51-.65,6.54,6.54,0,0,1-.13-1.65v-4.77H755v-1.1h.85V523.3l1.14-.85v2.9h1.17v1.1H757v4.85a2.42,2.42,0,0,0,.1.86.58.58,0,0,0,.56.29A2.86,2.86,0,0,0,758.19,532.39Z"/><path class="cls-4" d="M761.84,532.39l.15,1.24a3.15,3.15,0,0,1-.86.13,1.76,1.76,0,0,1-1-.24,1.24,1.24,0,0,1-.5-.65,6.39,6.39,0,0,1-.14-1.65v-4.77h-.84v-1.1h.84V523.3l1.15-.85v2.9h1.17v1.1h-1.17v4.85a2.42,2.42,0,0,0,.1.86.58.58,0,0,0,.56.29A2.86,2.86,0,0,0,761.84,532.39Z"/><path class="cls-4" d="M762.88,533.65V522.2H764v11.45Z"/><path class="cls-4" d="M770.48,531l1.19.18a3.61,3.61,0,0,1-1.07,2,2.84,2.84,0,0,1-1.93.68,2.89,2.89,0,0,1-2.34-1.1,5,5,0,0,1-.89-3.17,5.19,5.19,0,0,1,.9-3.28,2.8,2.8,0,0,1,2.28-1.13,2.72,2.72,0,0,1,2.21,1.11,5.05,5.05,0,0,1,.88,3.21v.38h-5.08a3.64,3.64,0,0,0,.65,2.11,1.78,1.78,0,0,0,1.41.71C769.54,532.68,770.15,532.11,770.48,531Zm-3.78-2.28h3.79a3.11,3.11,0,0,0-.46-1.61,1.68,1.68,0,0,0-2.73-.13A2.76,2.76,0,0,0,766.7,528.7Z"/><path class="cls-4" d="M781.21,532.62a4.1,4.1,0,0,1-1.2.91,3,3,0,0,1-1.3.31,2.28,2.28,0,0,1-1.69-.64,2.34,2.34,0,0,1-.64-1.73,2.62,2.62,0,0,1,.3-1.27,2.27,2.27,0,0,1,.81-.87,4.33,4.33,0,0,1,1.56-.46,9,9,0,0,0,2.07-.49V528a1.85,1.85,0,0,0-.3-1.2,1.67,1.67,0,0,0-1.32-.5,1.83,1.83,0,0,0-1.2.33,2.21,2.21,0,0,0-.59,1.26l-1.13-.19a3.18,3.18,0,0,1,1-2,3.26,3.26,0,0,1,2.11-.61,3,3,0,0,1,1.68.41,1.71,1.71,0,0,1,.77,1,7,7,0,0,1,.16,1.74v1.87a23.12,23.12,0,0,0,.08,2.48,3.58,3.58,0,0,0,.29,1h-1.2A3.63,3.63,0,0,1,781.21,532.62Zm-.09-3.14a7.31,7.31,0,0,1-1.89.54,3.33,3.33,0,0,0-1,.28,1.21,1.21,0,0,0-.45.45,1.37,1.37,0,0,0-.16.68,1.24,1.24,0,0,0,.37,1,1.37,1.37,0,0,0,1,.35,2,2,0,0,0,1.12-.32,2,2,0,0,0,.76-.85,4,4,0,0,0,.25-1.56Z"/><path class="cls-4" d="M786.64,532.39l.16,1.24a3.21,3.21,0,0,1-.86.13,1.74,1.74,0,0,1-1-.24,1.26,1.26,0,0,1-.51-.65,6.54,6.54,0,0,1-.13-1.65v-4.77h-.85v-1.1h.85V523.3l1.15-.85v2.9h1.16v1.1h-1.16v4.85a2.2,2.2,0,0,0,.1.86.56.56,0,0,0,.55.29A2.86,2.86,0,0,0,786.64,532.39Z"/><path class="cls-4" d="M791.34,533.65V522.2h1.14v11.45Z"/><path class="cls-4" d="M798.94,531l1.18.18a3.55,3.55,0,0,1-1.07,2,3,3,0,0,1-4.26-.42,4.89,4.89,0,0,1-.9-3.17,5.19,5.19,0,0,1,.9-3.28,2.82,2.82,0,0,1,2.29-1.13,2.71,2.71,0,0,1,2.2,1.11,5.05,5.05,0,0,1,.88,3.21v.38h-5.08a3.5,3.5,0,0,0,.65,2.11,1.75,1.75,0,0,0,1.4.71C798,532.68,798.6,532.11,798.94,531Zm-3.79-2.28H799a3.2,3.2,0,0,0-.47-1.61,1.68,1.68,0,0,0-2.73-.13A2.82,2.82,0,0,0,795.15,528.7Z"/><path class="cls-4" d="M806,532.62a4.14,4.14,0,0,1-1.21.91,3,3,0,0,1-1.29.31,2.31,2.31,0,0,1-1.7-.64,2.37,2.37,0,0,1-.63-1.73,2.73,2.73,0,0,1,.29-1.27,2.22,2.22,0,0,1,.82-.87,4.2,4.2,0,0,1,1.56-.46,8.87,8.87,0,0,0,2.06-.49V528a1.78,1.78,0,0,0-.31-1.2,1.64,1.64,0,0,0-1.32-.5,1.87,1.87,0,0,0-1.2.33,2.21,2.21,0,0,0-.58,1.26l-1.14-.19a3.18,3.18,0,0,1,1-2,3.3,3.3,0,0,1,2.12-.61,3,3,0,0,1,1.68.41,1.75,1.75,0,0,1,.77,1,7.53,7.53,0,0,1,.16,1.74v1.87a24.27,24.27,0,0,0,.07,2.48,3.94,3.94,0,0,0,.29,1h-1.2A3.33,3.33,0,0,1,806,532.62Zm-.1-3.14A7.34,7.34,0,0,1,804,530a3.42,3.42,0,0,0-1,.28,1.21,1.21,0,0,0-.45.45,1.48,1.48,0,0,0-.16.68,1.28,1.28,0,0,0,.37,1,1.39,1.39,0,0,0,1,.35,2,2,0,0,0,1.87-1.17,3.78,3.78,0,0,0,.25-1.56Z"/><path class="cls-4" d="M808.44,531.16l1.15-.21a2,2,0,0,0,.55,1.3,1.94,1.94,0,0,0,2.36.06,1.23,1.23,0,0,0,.41-.94.91.91,0,0,0-.36-.77,4.64,4.64,0,0,0-1.17-.47,8.35,8.35,0,0,1-1.79-.7,2,2,0,0,1-.71-.77,2.48,2.48,0,0,1-.25-1.11,2.31,2.31,0,0,1,.68-1.72,2.61,2.61,0,0,1,1.89-.67,3,3,0,0,1,1.33.28,2.13,2.13,0,0,1,.88.73,3.3,3.3,0,0,1,.42,1.32l-1.13.19a1.34,1.34,0,0,0-1.47-1.36,1.74,1.74,0,0,0-1.12.3.94.94,0,0,0-.37.77.87.87,0,0,0,.35.72,6.77,6.77,0,0,0,1.26.5,9.4,9.4,0,0,1,1.85.72,1.8,1.8,0,0,1,.65.74,2.38,2.38,0,0,1,.24,1.1,2.58,2.58,0,0,1-.76,1.93,2.82,2.82,0,0,1-2.06.74C809.64,533.84,808.7,533,808.44,531.16Z"/><path class="cls-4" d="M818,532.39l.15,1.24a3.1,3.1,0,0,1-.86.13,1.71,1.71,0,0,1-1-.24,1.21,1.21,0,0,1-.51-.65,6.54,6.54,0,0,1-.13-1.65v-4.77h-.85v-1.1h.85V523.3l1.14-.85v2.9H818v1.1h-1.17v4.85a2.14,2.14,0,0,0,.11.86.56.56,0,0,0,.55.29A2.86,2.86,0,0,0,818,532.39Z"/><path class="cls-4" d="M819.45,533.65v-1.6h1.32v1.6Z"/><path class="cls-4" d="M560.11,281.65l-2.09-8.3h1.19l1.08,4.79.4,1.78.36-1.71,1.08-4.86h1.19l1,4.82.35,1.58.39-1.6,1.16-4.8h1.12l-2.12,8.3H564l-1.09-5-.26-1.41-1.37,6.38Z"/><path class="cls-4" d="M572.75,280.63a4.38,4.38,0,0,1-1.2.9,2.86,2.86,0,0,1-1.3.31,2.32,2.32,0,0,1-1.7-.64,2.36,2.36,0,0,1-.63-1.73,2.62,2.62,0,0,1,.3-1.27,2.27,2.27,0,0,1,.81-.87,4.33,4.33,0,0,1,1.56-.46,9,9,0,0,0,2.07-.49V276a1.85,1.85,0,0,0-.3-1.2,1.67,1.67,0,0,0-1.32-.5,1.77,1.77,0,0,0-1.2.34,2.18,2.18,0,0,0-.59,1.25l-1.13-.19a3.12,3.12,0,0,1,1-1.94,3.2,3.2,0,0,1,2.11-.61,3,3,0,0,1,1.68.4,1.73,1.73,0,0,1,.77,1,6.87,6.87,0,0,1,.16,1.73v1.87a24.52,24.52,0,0,0,.07,2.49,3.53,3.53,0,0,0,.3,1H573A3.57,3.57,0,0,1,572.75,280.63Zm-.09-3.14a7.5,7.5,0,0,1-1.89.53,3.66,3.66,0,0,0-1,.28,1.17,1.17,0,0,0-.45.46,1.33,1.33,0,0,0-.16.67,1.24,1.24,0,0,0,.37.95,1.37,1.37,0,0,0,1,.36,2.06,2.06,0,0,0,1.12-.32,2,2,0,0,0,.76-.86,3.88,3.88,0,0,0,.25-1.56Z"/><path class="cls-4" d="M575.17,279.17l1.15-.22a2.06,2.06,0,0,0,.55,1.3,1.94,1.94,0,0,0,2.36.06,1.23,1.23,0,0,0,.41-.94.94.94,0,0,0-.35-.77,4.37,4.37,0,0,0-1.17-.46,8.7,8.7,0,0,1-1.8-.71,1.93,1.93,0,0,1-.7-.77,2.32,2.32,0,0,1-.25-1.1,2.28,2.28,0,0,1,.68-1.73,2.58,2.58,0,0,1,1.88-.66,3.1,3.1,0,0,1,1.33.27,2.14,2.14,0,0,1,.88.73,3.3,3.3,0,0,1,.42,1.33l-1.12.18a1.36,1.36,0,0,0-1.48-1.36,1.76,1.76,0,0,0-1.12.3,1,1,0,0,0-.36.77.82.82,0,0,0,.35.72,5.91,5.91,0,0,0,1.25.5,9.8,9.8,0,0,1,1.85.72,1.89,1.89,0,0,1,.66.74,2.53,2.53,0,0,1,.23,1.11,2.57,2.57,0,0,1-.75,1.92,2.84,2.84,0,0,1-2.06.74C576.38,281.84,575.43,281,575.17,279.17Z"/><path class="cls-4" d="M586.15,281.65v-7.2h-1v-1.1h1v-.88a4.1,4.1,0,0,1,.2-1.46,1.6,1.6,0,0,1,.62-.75A2,2,0,0,1,588,270a4.37,4.37,0,0,1,1.08.15l-.17,1.22a3.39,3.39,0,0,0-.68-.08.9.9,0,0,0-.74.27,1.69,1.69,0,0,0-.22,1v.76h1.32v1.1H587.3v7.2Z"/><path class="cls-4" d="M594.12,279l1.19.18a3.61,3.61,0,0,1-1.07,2,2.84,2.84,0,0,1-1.93.68,2.89,2.89,0,0,1-2.34-1.1,5,5,0,0,1-.89-3.17,5.14,5.14,0,0,1,.9-3.27,2.78,2.78,0,0,1,2.29-1.13,2.71,2.71,0,0,1,2.2,1.11,5.05,5.05,0,0,1,.88,3.21v.37h-5.07a3.57,3.57,0,0,0,.64,2.11,1.75,1.75,0,0,0,1.41.71C593.18,280.68,593.79,280.12,594.12,279Zm-3.78-2.27h3.79a3.08,3.08,0,0,0-.46-1.61,1.66,1.66,0,0,0-2.73-.13A2.76,2.76,0,0,0,590.34,276.71Z"/><path class="cls-4" d="M601.42,279l1.19.18a3.67,3.67,0,0,1-1.07,2,2.84,2.84,0,0,1-1.93.68,2.89,2.89,0,0,1-2.34-1.1,4.89,4.89,0,0,1-.89-3.17,5.14,5.14,0,0,1,.9-3.27,2.78,2.78,0,0,1,2.28-1.13,2.72,2.72,0,0,1,2.21,1.11,5.11,5.11,0,0,1,.88,3.21v.37h-5.08a3.64,3.64,0,0,0,.65,2.11,1.75,1.75,0,0,0,1.41.71C600.48,280.68,601.08,280.12,601.42,279Zm-3.79-2.27h3.8a3.18,3.18,0,0,0-.46-1.61,1.67,1.67,0,0,0-1.42-.78,1.69,1.69,0,0,0-1.32.65A2.88,2.88,0,0,0,597.63,276.71Z"/><path class="cls-4" d="M604,281.65V270.2h1.15v11.45Z"/><path class="cls-4" d="M607,271.82V270.2h1.15v1.62Zm0,9.83v-8.3h1.15v8.3Z"/><path class="cls-4" d="M609.9,281.65v-8.3h1v1.18a2.72,2.72,0,0,1,.91-1,2.36,2.36,0,0,1,1.25-.33,2.44,2.44,0,0,1,1,.21,2.17,2.17,0,0,1,.75.56,2.32,2.32,0,0,1,.42.91,7.13,7.13,0,0,1,.14,1.7v5.1h-1.15v-5a4.34,4.34,0,0,0-.15-1.34,1.36,1.36,0,0,0-.49-.65,1.34,1.34,0,0,0-.77-.23,1.59,1.59,0,0,0-1.32.62,3.44,3.44,0,0,0-.49,2.12v4.53Z"/><path class="cls-4" d="M617,282.34l1.12.2a1.5,1.5,0,0,0,.47,1,1.69,1.69,0,0,0,1.09.32,1.9,1.9,0,0,0,1.21-.36,1.85,1.85,0,0,0,.61-1.08,10.25,10.25,0,0,0,.1-1.85,2.68,2.68,0,0,1-.84.81,2.07,2.07,0,0,1-1,.27,2.48,2.48,0,0,1-2-1,5.07,5.07,0,0,1-.92-3.18,6.23,6.23,0,0,1,.41-2.34,3.21,3.21,0,0,1,1.06-1.46,2.49,2.49,0,0,1,1.49-.47,2.14,2.14,0,0,1,1.09.29,2.67,2.67,0,0,1,.88.89v-1h1.06v7.18a8.43,8.43,0,0,1-.31,2.73,2.71,2.71,0,0,1-1,1.29,3.09,3.09,0,0,1-1.71.47,2.76,2.76,0,0,1-2-.71A2.56,2.56,0,0,1,617,282.34Zm.95-5a4.14,4.14,0,0,0,.54,2.39,1.6,1.6,0,0,0,1.33.76,1.63,1.63,0,0,0,1.33-.74,4,4,0,0,0,.54-2.34,3.89,3.89,0,0,0-.56-2.33,1.67,1.67,0,0,0-1.37-.77,1.54,1.54,0,0,0-1.26.77A3.83,3.83,0,0,0,617.92,277.35Z"/><path class="cls-4" d="M627.7,279.17l1.14-.22a2.07,2.07,0,0,0,.56,1.3,1.65,1.65,0,0,0,1.2.43,1.62,1.62,0,0,0,1.15-.37,1.19,1.19,0,0,0,.41-.94.91.91,0,0,0-.35-.77,4.37,4.37,0,0,0-1.17-.46,9.22,9.22,0,0,1-1.8-.71,2,2,0,0,1-.7-.77,2.54,2.54,0,0,1,.43-2.83,2.58,2.58,0,0,1,1.88-.66,3.14,3.14,0,0,1,1.34.27,2.11,2.11,0,0,1,.87.73,3.15,3.15,0,0,1,.43,1.33l-1.13.18a1.35,1.35,0,0,0-1.48-1.36,1.71,1.71,0,0,0-1.11.3.94.94,0,0,0-.37.77.85.85,0,0,0,.35.72,5.91,5.91,0,0,0,1.25.5,10,10,0,0,1,1.86.72,1.87,1.87,0,0,1,.65.74,2.39,2.39,0,0,1,.23,1.11,2.57,2.57,0,0,1-.75,1.92,2.82,2.82,0,0,1-2.06.74C628.9,281.84,628,281,627.7,279.17Z"/><path class="cls-4" d="M634.27,277.5a5,5,0,0,1,.9-3.24,2.93,2.93,0,0,1,4.56,0,4.8,4.8,0,0,1,.91,3.16,5.17,5.17,0,0,1-.9,3.33,2.86,2.86,0,0,1-2.29,1.09,2.83,2.83,0,0,1-2.27-1.1A5,5,0,0,1,634.27,277.5Zm1.18,0a4,4,0,0,0,.58,2.4,1.76,1.76,0,0,0,1.45.78,1.69,1.69,0,0,0,1.4-.79,4,4,0,0,0,.58-2.39,4,4,0,0,0-.58-2.39,1.77,1.77,0,0,0-1.46-.79,1.73,1.73,0,0,0-1.4.79A4.11,4.11,0,0,0,635.45,277.5Z"/><path class="cls-4" d="M646,281.65v-7.2h-1v-1.1h1v-.88a4.1,4.1,0,0,1,.2-1.46,1.6,1.6,0,0,1,.62-.75,2,2,0,0,1,1.06-.26,4.37,4.37,0,0,1,1.08.15l-.17,1.22a3.39,3.39,0,0,0-.68-.08.9.9,0,0,0-.74.27,1.69,1.69,0,0,0-.22,1v.76h1.33v1.1h-1.33v7.2Z"/><path class="cls-4" d="M653.75,281.65v-1.22a3.07,3.07,0,0,1-.94,1.06,2.21,2.21,0,0,1-1.22.35,2.26,2.26,0,0,1-1.37-.43,2,2,0,0,1-.76-1.1,6.71,6.71,0,0,1-.19-1.81v-5.15h1.14V278a7.58,7.58,0,0,0,.13,1.71,1.38,1.38,0,0,0,.48.7,1.31,1.31,0,0,0,.79.26,1.66,1.66,0,0,0,1.36-.68,3.71,3.71,0,0,0,.45-2.15v-4.45h1.16v8.3Z"/><path class="cls-4" d="M661.05,278.61l1.13.18a3.82,3.82,0,0,1-1,2.27,2.57,2.57,0,0,1-1.89.78,2.7,2.7,0,0,1-2.2-1.1,5.2,5.2,0,0,1-.86-3.24,5.1,5.1,0,0,1,.87-3.25,2.75,2.75,0,0,1,2.24-1.08,2.59,2.59,0,0,1,1.78.65,3.23,3.23,0,0,1,.92,2L661,276a2.47,2.47,0,0,0-.57-1.26,1.33,1.33,0,0,0-1-.42,1.67,1.67,0,0,0-1.41.76,4.06,4.06,0,0,0-.56,2.39,4.38,4.38,0,0,0,.53,2.45,1.62,1.62,0,0,0,1.38.76,1.5,1.5,0,0,0,1.12-.5A2.81,2.81,0,0,0,661.05,278.61Z"/><path class="cls-4" d="M663.18,281.65V270.2h1.15v6.54l2.74-3.39h1.49l-2.6,3.09,2.86,5.21H667.4l-2.26-4.25-.81,1v3.29Z"/><path class="cls-4" d="M669.72,271.82V270.2h1.15v1.62Zm0,9.83v-8.3h1.15v8.3Z"/><path class="cls-4" d="M672.63,281.65v-8.3h1v1.18a2.74,2.74,0,0,1,.92-1,2.32,2.32,0,0,1,1.24-.33,2.4,2.4,0,0,1,1,.21,2.17,2.17,0,0,1,.75.56,2.48,2.48,0,0,1,.43.91,7.71,7.71,0,0,1,.14,1.7v5.1H677v-5a4,4,0,0,0-.16-1.34,1.3,1.3,0,0,0-.49-.65,1.32,1.32,0,0,0-.77-.23,1.59,1.59,0,0,0-1.32.62,3.51,3.51,0,0,0-.49,2.12v4.53Z"/><path class="cls-4" d="M679.7,282.34l1.13.2a1.46,1.46,0,0,0,.47,1,1.67,1.67,0,0,0,1.08.32,1.88,1.88,0,0,0,1.21-.36,1.85,1.85,0,0,0,.61-1.08,10.25,10.25,0,0,0,.1-1.85,2.68,2.68,0,0,1-.84.81,2,2,0,0,1-1,.27,2.45,2.45,0,0,1-2-1,5,5,0,0,1-.92-3.18,6.23,6.23,0,0,1,.4-2.34,3.22,3.22,0,0,1,1.07-1.46,2.44,2.44,0,0,1,1.48-.47,2.18,2.18,0,0,1,1.1.29,2.77,2.77,0,0,1,.88.89v-1h1.06v7.18a8.72,8.72,0,0,1-.31,2.73,2.67,2.67,0,0,1-1,1.29,3,3,0,0,1-1.71.47,2.76,2.76,0,0,1-2-.71A2.64,2.64,0,0,1,679.7,282.34Zm1-5a4.14,4.14,0,0,0,.54,2.39,1.6,1.6,0,0,0,1.32.76,1.62,1.62,0,0,0,1.33-.74,5.15,5.15,0,0,0,0-4.67,1.66,1.66,0,0,0-1.37-.77,1.54,1.54,0,0,0-1.26.77A3.91,3.91,0,0,0,680.66,277.35Z"/><path class="cls-4" d="M558.86,300.85v-8.3h1v1.16a2.58,2.58,0,0,1,.88-1,2.07,2.07,0,0,1,1.18-.35,1.94,1.94,0,0,1,1.21.37,2,2,0,0,1,.71,1.07,3.14,3.14,0,0,1,.93-1.08,2.08,2.08,0,0,1,1.18-.36,1.91,1.91,0,0,1,1.54.66,3.23,3.23,0,0,1,.57,2.13v5.69h-1.15v-5.23a4.42,4.42,0,0,0-.13-1.26,1.2,1.2,0,0,0-.42-.58,1.16,1.16,0,0,0-.65-.2,1.47,1.47,0,0,0-1.22.59,2.92,2.92,0,0,0-.47,1.86v4.82H562.9v-5.4a2.5,2.5,0,0,0-.32-1.45,1,1,0,0,0-.87-.42,1.47,1.47,0,0,0-1.25.63,4.33,4.33,0,0,0-.45,2.33v4.31Z"/><path class="cls-4" d="M569.34,296.7a5,5,0,0,1,.91-3.24,2.92,2.92,0,0,1,4.55,0,4.8,4.8,0,0,1,.92,3.16,5.14,5.14,0,0,1-.9,3.32,2.92,2.92,0,0,1-4.57,0A5,5,0,0,1,569.34,296.7Zm1.18,0a4,4,0,0,0,.59,2.4,1.75,1.75,0,0,0,1.45.78,1.7,1.7,0,0,0,1.4-.79,4.11,4.11,0,0,0,.58-2.39,4,4,0,0,0-.59-2.39,1.74,1.74,0,0,0-1.45-.79,1.72,1.72,0,0,0-1.4.79A4.08,4.08,0,0,0,570.52,296.7Z"/><path class="cls-4" d="M576.64,296.7a5,5,0,0,1,.9-3.24,2.93,2.93,0,0,1,4.56,0,4.8,4.8,0,0,1,.92,3.16,5.14,5.14,0,0,1-.9,3.32,2.92,2.92,0,0,1-4.57,0A5,5,0,0,1,576.64,296.7Zm1.18,0a4,4,0,0,0,.59,2.4,1.75,1.75,0,0,0,1.45.78,1.67,1.67,0,0,0,1.39-.79,4,4,0,0,0,.59-2.39,4,4,0,0,0-.59-2.39,1.74,1.74,0,0,0-1.45-.79,1.7,1.7,0,0,0-1.4.79A4,4,0,0,0,577.82,296.7Z"/><path class="cls-4" d="M588.78,300.85V299.8a2.35,2.35,0,0,1-.8.92,2,2,0,0,1-1.07.32,2.58,2.58,0,0,1-2.08-1.14,5.16,5.16,0,0,1-.88-3.2,6.56,6.56,0,0,1,.39-2.4,3.29,3.29,0,0,1,1-1.46,2.46,2.46,0,0,1,1.45-.47,2,2,0,0,1,1.06.3,2.51,2.51,0,0,1,.81.84V289.4h1.16v11.45Zm-3.65-4.14a4.15,4.15,0,0,0,.56,2.39,1.6,1.6,0,0,0,1.3.78,1.56,1.56,0,0,0,1.28-.75,3.86,3.86,0,0,0,.54-2.26,4.7,4.7,0,0,0-.54-2.55,1.61,1.61,0,0,0-1.36-.8,1.5,1.5,0,0,0-1.25.77A4.36,4.36,0,0,0,585.13,296.71Z"/><path class="cls-4" d="M591.63,304.05l-.12-1.32a2.2,2.2,0,0,0,.66.12,1.11,1.11,0,0,0,.6-.15,1.14,1.14,0,0,0,.4-.46q0-.11.45-1.38L591,292.55h1.24l1.43,4.81c.17.59.34,1.23.49,1.92a18.64,18.64,0,0,1,.47-1.89l1.45-4.84h1.16L594.68,301a13.36,13.36,0,0,1-.8,2.19,2.18,2.18,0,0,1-.66.8,1.53,1.53,0,0,1-.84.24A2.1,2.1,0,0,1,591.63,304.05Z"/><path class="cls-4" d="M602.94,300.85h-1.07V289.4H603v4.08a2.8,2.8,0,0,1,.84-.84,2,2,0,0,1,1-.27,2.44,2.44,0,0,1,1.45.47,3.26,3.26,0,0,1,1,1.45,6.28,6.28,0,0,1,.39,2.35,5.2,5.2,0,0,1-.88,3.25,2.56,2.56,0,0,1-2.07,1.15,1.91,1.91,0,0,1-1.07-.31,2.63,2.63,0,0,1-.81-.92Zm0-4.21a5.85,5.85,0,0,0,.24,1.93,2.08,2.08,0,0,0,.66,1,1.45,1.45,0,0,0,2.22-.47,5.58,5.58,0,0,0,0-4.79,1.56,1.56,0,0,0-1.31-.77,1.58,1.58,0,0,0-1.27.8A4.08,4.08,0,0,0,602.92,296.64Z"/><path class="cls-4" d="M613.83,298.18l1.19.18a3.62,3.62,0,0,1-1.08,2A2.83,2.83,0,0,1,612,301a2.86,2.86,0,0,1-2.34-1.1,4.89,4.89,0,0,1-.9-3.17,5.14,5.14,0,0,1,.9-3.27,2.81,2.81,0,0,1,2.29-1.13,2.71,2.71,0,0,1,2.2,1.11,5,5,0,0,1,.88,3.21v.37H610a3.57,3.57,0,0,0,.65,2.11,1.75,1.75,0,0,0,1.4.71C612.89,299.88,613.49,299.31,613.83,298.18ZM610,295.91h3.8a3.28,3.28,0,0,0-.46-1.61,1.7,1.7,0,0,0-1.42-.78,1.68,1.68,0,0,0-1.32.65A2.88,2.88,0,0,0,610,295.91Z"/><path class="cls-4" d="M616.8,300.85v-7.2h-1v-1.1h1v-.88a4.1,4.1,0,0,1,.2-1.46,1.54,1.54,0,0,1,.62-.75,2,2,0,0,1,1.06-.26,4.37,4.37,0,0,1,1.08.15l-.17,1.22a3.39,3.39,0,0,0-.68-.08.9.9,0,0,0-.74.27,1.69,1.69,0,0,0-.22,1v.76h1.32v1.1H618v7.2Z"/><path class="cls-4" d="M619.69,296.7a5,5,0,0,1,.9-3.24,2.93,2.93,0,0,1,4.56,0,4.8,4.8,0,0,1,.91,3.16,5.14,5.14,0,0,1-.9,3.32,2.91,2.91,0,0,1-4.56,0A5,5,0,0,1,619.69,296.7Zm1.18,0a4,4,0,0,0,.58,2.4,1.77,1.77,0,0,0,1.46.78,1.69,1.69,0,0,0,1.39-.79,4,4,0,0,0,.58-2.39,4,4,0,0,0-.58-2.39,1.75,1.75,0,0,0-1.46-.79,1.7,1.7,0,0,0-1.39.79A4,4,0,0,0,620.87,296.7Z"/><path class="cls-4" d="M627.42,300.85v-8.3h1v1.26a3.67,3.67,0,0,1,.73-1.16,1.11,1.11,0,0,1,.75-.28,2,2,0,0,1,1.18.45l-.39,1.3a1.49,1.49,0,0,0-.84-.3,1,1,0,0,0-.67.26,1.37,1.37,0,0,0-.43.72,6.26,6.26,0,0,0-.22,1.71v4.34Z"/><path class="cls-4" d="M636.44,298.18l1.18.18a3.55,3.55,0,0,1-1.07,2,3,3,0,0,1-4.26-.42,4.89,4.89,0,0,1-.9-3.17,5.14,5.14,0,0,1,.9-3.27,2.79,2.79,0,0,1,2.29-1.13,2.71,2.71,0,0,1,2.2,1.11,5,5,0,0,1,.88,3.21v.37h-5.08a3.5,3.5,0,0,0,.65,2.11,1.75,1.75,0,0,0,1.4.71C635.5,299.88,636.1,299.31,636.44,298.18Zm-3.79-2.27h3.8a3.17,3.17,0,0,0-.47-1.61,1.66,1.66,0,0,0-2.73-.13A2.82,2.82,0,0,0,632.65,295.91Z"/><path class="cls-4" d="M645.3,299.59l.15,1.24a3.1,3.1,0,0,1-.86.13,1.76,1.76,0,0,1-1-.24,1.2,1.2,0,0,1-.5-.65,6.39,6.39,0,0,1-.14-1.65v-4.77h-.84v-1.1H643V290.5l1.15-.84v2.89h1.17v1.1h-1.17v4.85a2.49,2.49,0,0,0,.1.87.59.59,0,0,0,.56.28A2.86,2.86,0,0,0,645.3,299.59Z"/><path class="cls-4" d="M646.38,300.85V289.4h1.15v4.11a2.86,2.86,0,0,1,.92-.86,2.28,2.28,0,0,1,1.13-.28,2.2,2.2,0,0,1,1.71.69,3.8,3.8,0,0,1,.63,2.53v5.26h-1.15v-5.26a2.4,2.4,0,0,0-.38-1.54,1.26,1.26,0,0,0-1-.47,1.64,1.64,0,0,0-1.28.6,3.28,3.28,0,0,0-.53,2.13v4.54Z"/><path class="cls-4" d="M658.33,298.18l1.19.18a3.62,3.62,0,0,1-1.08,2,2.83,2.83,0,0,1-1.92.68,2.86,2.86,0,0,1-2.34-1.1,4.89,4.89,0,0,1-.9-3.17,5.14,5.14,0,0,1,.9-3.27,2.81,2.81,0,0,1,2.29-1.13,2.71,2.71,0,0,1,2.2,1.11,5,5,0,0,1,.88,3.21v.37h-5.08a3.57,3.57,0,0,0,.65,2.11,1.75,1.75,0,0,0,1.4.71C657.39,299.88,658,299.31,658.33,298.18Zm-3.79-2.27h3.8a3.28,3.28,0,0,0-.46-1.61,1.7,1.7,0,0,0-1.42-.78,1.68,1.68,0,0,0-1.32.65A2.88,2.88,0,0,0,654.54,295.91Z"/><path class="cls-4" d="M664.62,304V292.55h1.07v1.08a2.77,2.77,0,0,1,.86-1,2,2,0,0,1,1.1-.29,2.46,2.46,0,0,1,1.45.47,3.26,3.26,0,0,1,1,1.45,6.3,6.3,0,0,1,.39,2.34,5.16,5.16,0,0,1-.89,3.26,2.57,2.57,0,0,1-2.08,1.15,1.86,1.86,0,0,1-1-.28,2.54,2.54,0,0,1-.8-.77v4Zm1-7.28a4.15,4.15,0,0,0,.54,2.37,1.47,1.47,0,0,0,2.59,0,5.65,5.65,0,0,0,0-4.84,1.55,1.55,0,0,0-1.31-.78,1.57,1.57,0,0,0-1.26.84A4.33,4.33,0,0,0,665.67,296.75Z"/><path class="cls-4" d="M671.92,300.85V289.4h1.15v4.11a2.86,2.86,0,0,1,.92-.86,2.28,2.28,0,0,1,1.13-.28,2.2,2.2,0,0,1,1.71.69,3.8,3.8,0,0,1,.63,2.53v5.26h-1.15v-5.26a2.46,2.46,0,0,0-.38-1.54,1.27,1.27,0,0,0-1-.47,1.64,1.64,0,0,0-1.28.6,3.28,3.28,0,0,0-.53,2.13v4.54Z"/><path class="cls-4" d="M678.78,296.7a5,5,0,0,1,.9-3.24,2.93,2.93,0,0,1,4.56,0,4.8,4.8,0,0,1,.92,3.16,5.14,5.14,0,0,1-.9,3.32,2.92,2.92,0,0,1-4.57,0A5,5,0,0,1,678.78,296.7Zm1.18,0a4,4,0,0,0,.59,2.4,1.75,1.75,0,0,0,1.45.78,1.67,1.67,0,0,0,1.39-.79,4,4,0,0,0,.59-2.39,4,4,0,0,0-.59-2.39,1.74,1.74,0,0,0-1.45-.79,1.7,1.7,0,0,0-1.4.79A4,4,0,0,0,680,296.7Z"/><path class="cls-4" d="M686.52,300.85v-8.3h1v1.18a2.74,2.74,0,0,1,.92-1,2.35,2.35,0,0,1,1.24-.33,2.37,2.37,0,0,1,1,.21,2.05,2.05,0,0,1,.75.56,2.48,2.48,0,0,1,.43.91,7.71,7.71,0,0,1,.14,1.7v5.1h-1.15V295.8a4,4,0,0,0-.16-1.34,1.27,1.27,0,0,0-1.25-.88,1.56,1.56,0,0,0-1.32.62,3.42,3.42,0,0,0-.5,2.11v4.54Z"/><path class="cls-4" d="M698.46,298.18l1.19.18a3.62,3.62,0,0,1-1.08,2,2.82,2.82,0,0,1-1.92.68,2.88,2.88,0,0,1-2.34-1.1,4.89,4.89,0,0,1-.9-3.17,5.08,5.08,0,0,1,.91-3.27,2.78,2.78,0,0,1,2.28-1.13,2.69,2.69,0,0,1,2.2,1.11,5,5,0,0,1,.89,3.21v.37H694.6a3.57,3.57,0,0,0,.65,2.11,1.77,1.77,0,0,0,1.41.71C697.52,299.88,698.12,299.31,698.46,298.18Zm-3.79-2.27h3.8a3.18,3.18,0,0,0-.46-1.61,1.67,1.67,0,0,0-1.42-.78,1.69,1.69,0,0,0-1.32.65A2.88,2.88,0,0,0,694.67,295.91Z"/><path class="cls-4" d="M558.85,320.05v-8.3h1V313a3.67,3.67,0,0,1,.73-1.16,1.11,1.11,0,0,1,.75-.28,2,2,0,0,1,1.18.45l-.39,1.3a1.49,1.49,0,0,0-.84-.3,1,1,0,0,0-.67.26,1.37,1.37,0,0,0-.43.72,6.26,6.26,0,0,0-.22,1.71v4.34Z"/><path class="cls-4" d="M567.65,319a4.38,4.38,0,0,1-1.2.9,2.86,2.86,0,0,1-1.3.31,2.32,2.32,0,0,1-1.7-.64,2.37,2.37,0,0,1-.63-1.73,2.62,2.62,0,0,1,.3-1.27,2.27,2.27,0,0,1,.81-.87,4.2,4.2,0,0,1,1.56-.46,8.74,8.74,0,0,0,2.06-.49v-.36a1.85,1.85,0,0,0-.3-1.2,1.67,1.67,0,0,0-1.32-.5,1.82,1.82,0,0,0-1.21.34,2.18,2.18,0,0,0-.58,1.25l-1.13-.19a3.07,3.07,0,0,1,1-1.94,3.2,3.2,0,0,1,2.11-.61,3,3,0,0,1,1.68.4,1.74,1.74,0,0,1,.77,1,7,7,0,0,1,.16,1.74v1.87a24.14,24.14,0,0,0,.07,2.48,3.5,3.5,0,0,0,.3,1h-1.21A3.33,3.33,0,0,1,567.65,319Zm-.1-3.14a7.84,7.84,0,0,1-1.88.53,3.66,3.66,0,0,0-1,.28,1.05,1.05,0,0,0-.45.46,1.33,1.33,0,0,0-.16.67,1.27,1.27,0,0,0,.36.95,1.41,1.41,0,0,0,1,.36,2.09,2.09,0,0,0,1.12-.32,2,2,0,0,0,.75-.86,3.78,3.78,0,0,0,.25-1.56Z"/><path class="cls-4" d="M570.52,320.05v-8.3h1v1.18a2.74,2.74,0,0,1,.92-1,2.35,2.35,0,0,1,1.24-.33,2.37,2.37,0,0,1,1,.21,2.05,2.05,0,0,1,.75.56,2.48,2.48,0,0,1,.43.91A7.71,7.71,0,0,1,576,315v5.1h-1.15V315a4,4,0,0,0-.16-1.34,1.27,1.27,0,0,0-1.25-.88,1.56,1.56,0,0,0-1.32.62,3.42,3.42,0,0,0-.5,2.11v4.54Z"/><path class="cls-4" d="M577.59,320.74l1.12.2a1.46,1.46,0,0,0,.47,1,1.69,1.69,0,0,0,1.09.32,1.87,1.87,0,0,0,1.2-.36,1.9,1.9,0,0,0,.62-1.08,11.33,11.33,0,0,0,.1-1.85,2.6,2.6,0,0,1-.85.81,2,2,0,0,1-1,.27,2.46,2.46,0,0,1-2-1,5.07,5.07,0,0,1-.92-3.18,6.23,6.23,0,0,1,.41-2.34,3.21,3.21,0,0,1,1.06-1.46,2.46,2.46,0,0,1,1.48-.47,2.18,2.18,0,0,1,1.1.29,2.77,2.77,0,0,1,.88.89v-1h1.06v7.18a8.43,8.43,0,0,1-.31,2.73,2.71,2.71,0,0,1-1,1.29,3.1,3.1,0,0,1-1.72.47,2.77,2.77,0,0,1-2-.71A2.59,2.59,0,0,1,577.59,320.74Zm.95-5a4.16,4.16,0,0,0,.54,2.39,1.59,1.59,0,0,0,1.32.75,1.61,1.61,0,0,0,1.33-.73,3.92,3.92,0,0,0,.55-2.34,4,4,0,0,0-.56-2.33,1.68,1.68,0,0,0-1.37-.77,1.57,1.57,0,0,0-1.27.77A3.91,3.91,0,0,0,578.54,315.75Z"/><path class="cls-4" d="M587.91,316.47v-1.13H601v1.13Z"/><path class="cls-4" d="M918.7,24.64v-1.3l6.22-3.22v1.4L920,24l4.93,2.5v1.4Z"/><path class="cls-4" d="M930.92,29.65v-1a2.31,2.31,0,0,1-.8.91,1.89,1.89,0,0,1-1.07.32A2.58,2.58,0,0,1,927,28.7a5.14,5.14,0,0,1-.88-3.2,6.47,6.47,0,0,1,.39-2.39,3.13,3.13,0,0,1,1-1.46,2.35,2.35,0,0,1,1.44-.48,2,2,0,0,1,1.06.3,2.51,2.51,0,0,1,.81.84V18.2H932V29.65Zm-3.65-4.14a4.13,4.13,0,0,0,.56,2.39,1.61,1.61,0,0,0,1.3.78,1.56,1.56,0,0,0,1.28-.75,3.86,3.86,0,0,0,.54-2.26,4.63,4.63,0,0,0-.54-2.54,1.59,1.59,0,0,0-1.36-.8,1.49,1.49,0,0,0-1.25.76A4.38,4.38,0,0,0,927.27,25.51Z"/><path class="cls-4" d="M938.46,27l1.19.18a3.65,3.65,0,0,1-1.08,2,2.81,2.81,0,0,1-1.92.67,2.88,2.88,0,0,1-2.34-1.1,4.86,4.86,0,0,1-.9-3.16,5.09,5.09,0,0,1,.91-3.28,2.78,2.78,0,0,1,2.28-1.13,2.69,2.69,0,0,1,2.2,1.11,5.05,5.05,0,0,1,.89,3.21v.37H934.6a3.55,3.55,0,0,0,.65,2.11,1.74,1.74,0,0,0,1.41.71C937.52,28.68,938.12,28.12,938.46,27Zm-3.79-2.27h3.8A3.18,3.18,0,0,0,938,23.1a1.66,1.66,0,0,0-1.42-.77,1.68,1.68,0,0,0-1.32.64A2.88,2.88,0,0,0,934.67,24.71Z"/><path class="cls-4" d="M941.43,29.65v-7.2h-1V21.36h1v-.89a4.1,4.1,0,0,1,.2-1.46,1.56,1.56,0,0,1,.63-.75,2,2,0,0,1,1-.26,4.37,4.37,0,0,1,1.08.15l-.17,1.22a3.39,3.39,0,0,0-.68-.08.92.92,0,0,0-.74.27,1.71,1.71,0,0,0-.22,1v.77h1.33v1.09h-1.33v7.2Z"/><path class="cls-4" d="M944.31,27.17l1.15-.22a2.09,2.09,0,0,0,.55,1.31,1.72,1.72,0,0,0,1.2.42,1.65,1.65,0,0,0,1.16-.37,1.21,1.21,0,0,0,.41-.94.91.91,0,0,0-.35-.76,4.27,4.27,0,0,0-1.17-.47,8.15,8.15,0,0,1-1.8-.71,1.93,1.93,0,0,1-.7-.77,2.54,2.54,0,0,1,.43-2.83,2.58,2.58,0,0,1,1.88-.66,3.07,3.07,0,0,1,1.33.27,2,2,0,0,1,.88.74,3.2,3.2,0,0,1,.42,1.32l-1.12.18a1.35,1.35,0,0,0-1.48-1.35,1.76,1.76,0,0,0-1.12.29,1,1,0,0,0-.36.77.82.82,0,0,0,.35.72,5.91,5.91,0,0,0,1.25.5,9.6,9.6,0,0,1,1.85.73,1.87,1.87,0,0,1,.66.73,2.53,2.53,0,0,1,.23,1.11,2.61,2.61,0,0,1-.75,1.93,2.84,2.84,0,0,1-2.06.73C945.52,29.84,944.57,29,944.31,27.17Z"/><path class="cls-4" d="M957.39,24.64l-6.22,3.25v-1.4L956.1,24l-4.93-2.47v-1.4l6.22,3.22Z"/><path class="cls-4" d="M918.7,528.64v-1.3l6.22-3.22v1.39L920,528l4.93,2.49v1.4Z"/><path class="cls-4" d="M925.66,533.84,928.38,522h.94l-2.73,11.84Z"/><path class="cls-4" d="M934.57,533.65v-1a2.42,2.42,0,0,1-.8.92,2,2,0,0,1-1.07.32,2.58,2.58,0,0,1-2.08-1.14,5.16,5.16,0,0,1-.88-3.2,6.56,6.56,0,0,1,.39-2.4,3.29,3.29,0,0,1,1-1.46,2.4,2.4,0,0,1,1.45-.48,2,2,0,0,1,1.06.3,2.58,2.58,0,0,1,.8.84v-4.1h1.17v11.45Zm-3.65-4.14a4.15,4.15,0,0,0,.56,2.39,1.6,1.6,0,0,0,1.3.78,1.56,1.56,0,0,0,1.28-.75,3.9,3.9,0,0,0,.54-2.27,4.66,4.66,0,0,0-.54-2.54,1.61,1.61,0,0,0-1.36-.8,1.49,1.49,0,0,0-1.25.77A4.36,4.36,0,0,0,930.92,529.51Z"/><path class="cls-4" d="M942.11,531l1.19.18a3.62,3.62,0,0,1-1.08,2,2.83,2.83,0,0,1-1.92.68,2.86,2.86,0,0,1-2.34-1.1,4.89,4.89,0,0,1-.9-3.17,5.19,5.19,0,0,1,.9-3.28,2.84,2.84,0,0,1,2.29-1.13,2.71,2.71,0,0,1,2.2,1.11,5.05,5.05,0,0,1,.89,3.21v.38h-5.08a3.57,3.57,0,0,0,.65,2.11,1.75,1.75,0,0,0,1.4.71C941.17,532.68,941.77,532.11,942.11,531Zm-3.79-2.28h3.8a3.21,3.21,0,0,0-.46-1.61,1.69,1.69,0,0,0-1.42-.77,1.72,1.72,0,0,0-1.32.64A2.88,2.88,0,0,0,938.32,528.7Z"/><path class="cls-4" d="M945.08,533.65v-7.2h-1v-1.1h1v-.88a4.2,4.2,0,0,1,.2-1.47,1.56,1.56,0,0,1,.62-.74A2,2,0,0,1,947,522a4.37,4.37,0,0,1,1.08.15l-.17,1.22a3.39,3.39,0,0,0-.68-.08.9.9,0,0,0-.74.27,1.69,1.69,0,0,0-.22,1v.76h1.32v1.1h-1.32v7.2Z"/><path class="cls-4" d="M948,531.16l1.15-.21a2.06,2.06,0,0,0,.55,1.3,1.94,1.94,0,0,0,2.36.06,1.23,1.23,0,0,0,.41-.94.93.93,0,0,0-.35-.77,4.64,4.64,0,0,0-1.17-.47,8.28,8.28,0,0,1-1.8-.7,1.93,1.93,0,0,1-.7-.77,2.36,2.36,0,0,1-.25-1.11,2.28,2.28,0,0,1,.68-1.72,2.58,2.58,0,0,1,1.88-.67,3,3,0,0,1,1.33.28,2.06,2.06,0,0,1,.88.73,3.3,3.3,0,0,1,.42,1.32l-1.12.19a1.35,1.35,0,0,0-1.48-1.36,1.76,1.76,0,0,0-1.12.3,1,1,0,0,0-.36.77.85.85,0,0,0,.35.72,6.55,6.55,0,0,0,1.25.5,9.4,9.4,0,0,1,1.85.72,1.89,1.89,0,0,1,.66.74,2.51,2.51,0,0,1,.23,1.1,2.58,2.58,0,0,1-.75,1.93,2.84,2.84,0,0,1-2.06.74C949.17,533.84,948.22,533,948,531.16Z"/><path class="cls-4" d="M961,528.64l-6.22,3.24v-1.4l4.93-2.49-4.93-2.48v-1.39l6.22,3.22Z"/><g class="cls-2"><path class="cls-3" d="M162,363.76s79.8-8.82,82.8-11.05,10.88-2.58,10.88-2.58l22.09-4.44"/><path class="cls-3" d="M352.55,322.47c-.79-2.57-2.35-5.47-4.7-6.71-11.48-6.31-20.69-8.95-33.5-10-4.35-.34-8.32,2.57-12.46,3.41,0,.61-.44,1.44-1.17.88-.38-.29-.1-1.53-.11-2"/><path class="cls-3" d="M329.89,279.12s-173.76,5.92,69.84,33l-4.5-.33s4.62.8,4.74.46"/></g><path class="cls-4" d="M200.3,527.43a2.23,2.23,0,0,1-1-.89,2.71,2.71,0,0,1-.35-1.45,3,3,0,0,1,.76-2.12,2.68,2.68,0,0,1,3.87,0,3,3,0,0,1,.78,2.16,2.67,2.67,0,0,1-.34,1.4,2.29,2.29,0,0,1-1,.89,2.66,2.66,0,0,1,1.31,1.09,4,4,0,0,1-.43,4.36,3,3,0,0,1-4.41,0,3.62,3.62,0,0,1-.89-2.54,3.42,3.42,0,0,1,.48-1.89A2.35,2.35,0,0,1,200.3,527.43Zm-.6,2.91a2.46,2.46,0,0,0,.57,1.7,1.75,1.75,0,0,0,1.35.65,1.73,1.73,0,0,0,1.35-.63,2.4,2.4,0,0,0,.55-1.67,2.48,2.48,0,0,0-.57-1.7,1.73,1.73,0,0,0-1.36-.64,1.69,1.69,0,0,0-1.34.64A2.47,2.47,0,0,0,199.7,530.34Zm.39-5.29a1.92,1.92,0,0,0,.44,1.34,1.42,1.42,0,0,0,1.09.5,1.4,1.4,0,0,0,1.08-.49,2.07,2.07,0,0,0,0-2.58,1.37,1.37,0,0,0-1.07-.52,1.41,1.41,0,0,0-1.08.5A1.85,1.85,0,0,0,200.09,525.05Z"/><g class="cls-2"><path class="cls-3" d="M378,225c49.22-2.68,99.19-20.28,142.13-43.73a363.11,363.11,0,0,1,52.56-23.85c28.71-10.56,49.14-31.48,75.17-46.82,29.24-17.23,62.87-27.28,93.95-40.87,11.24-4.92,23.05-8,34.39-12.57,10.55-4.29,21-9.92,31.26-14.89,9.93-4.79,20-9.84,29.57-15.27,3.65-2.07,7.12-4.88,10.74-6.84,5.29-2.89,11.81-3.28,17-6.2,4.49-2.56,6.58-4.18,11.47-5.35,2.51-.61,7.09-1.35,9.4-3.21"/></g><path class="cls-4" d="M558.7,27l1.1-.12c.18,1.21.7,1.81,1.57,1.81a1.63,1.63,0,0,0,1-.39,3.07,3.07,0,0,0,.8-1.4,7.64,7.64,0,0,0,.33-2.36v-.28a2.89,2.89,0,0,1-1,1.1,2.24,2.24,0,0,1-1.24.41,2.48,2.48,0,0,1-2-1,4.16,4.16,0,0,1-.84-2.75,4.26,4.26,0,0,1,.87-2.83,2.63,2.63,0,0,1,2.09-1,2.69,2.69,0,0,1,1.64.58,3.74,3.74,0,0,1,1.17,1.7,9.8,9.8,0,0,1,.41,3.25,12,12,0,0,1-.44,3.66,4,4,0,0,1-1.21,1.91,2.7,2.7,0,0,1-1.71.6,2.41,2.41,0,0,1-1.79-.73A3.44,3.44,0,0,1,558.7,27ZM563.42,22a3.07,3.07,0,0,0-.55-1.94,1.56,1.56,0,0,0-1.26-.7,1.65,1.65,0,0,0-1.32.75,3.17,3.17,0,0,0-.59,2,2.73,2.73,0,0,0,.56,1.8,1.66,1.66,0,0,0,1.33.67,1.64,1.64,0,0,0,1.3-.67A3.06,3.06,0,0,0,563.42,22Z"/></g></svg>