<svg id="Layer_1" data-name="Layer 1" xmlns="http://www.w3.org/2000/svg" xmlns:xlink="http://www.w3.org/1999/xlink" viewBox="0 0 1080 756"><defs><style>.cls-1,.cls-3{fill:none;}.cls-2{clip-path:url(#clip-path);}.cls-3{stroke:#231f20;stroke-width:0.25px;}.cls-4{fill:#231f20;}</style><clipPath id="clip-path"><rect class="cls-1" width="1080" height="756"/></clipPath></defs><title>Untitled-3</title><g class="cls-2"><g class="cls-2"><line class="cls-3" x1="180" y1="-18.36" x2="180" y2="790.92"/><line class="cls-3" x1="720" y1="-20.88" x2="720" y2="788.4"/><line class="cls-3" x1="359.88" y1="-18.36" x2="359.88" y2="790.92"/><line class="cls-3" x1="899.87" y1="-20.88" x2="899.87" y2="788.4"/><line class="cls-3" x1="-16.92" y1="251.88" x2="1101.6" y2="251.88"/><line class="cls-3" x1="-11.52" y1="504.13" x2="1107" y2="504.13"/><line class="cls-3" x1="540" y1="-19.44" x2="540" y2="789.84"/></g><path class="cls-4" d="M198,281.84,200.71,270h.94l-2.73,11.84Z"/><path class="cls-4" d="M201.64,281.84,204.36,270h.94l-2.73,11.84Z"/><path class="cls-4" d="M22.87,29.65H21.71v-9a5.74,5.74,0,0,1-1.07.95,6.55,6.55,0,0,1-1.23.74V21a7.25,7.25,0,0,0,1.68-1.33,5.11,5.11,0,0,0,1-1.54h.75Z"/><path class="cls-4" d="M25.82,24a9.67,9.67,0,0,1,.78-4.37,2.46,2.46,0,0,1,2.29-1.48A2.4,2.4,0,0,1,31,19.35,8.89,8.89,0,0,1,32,24a9.68,9.68,0,0,1-.78,4.36,2.45,2.45,0,0,1-2.29,1.48,2.53,2.53,0,0,1-2.2-1.31A8.72,8.72,0,0,1,25.82,24ZM27,24a8.61,8.61,0,0,0,.54,3.74,1.56,1.56,0,0,0,1.37,1,1.53,1.53,0,0,0,1.32-1A8.65,8.65,0,0,0,30.77,24a8.6,8.6,0,0,0-.54-3.75,1.59,1.59,0,0,0-1.39-.95,1.52,1.52,0,0,0-1.31,1A8.78,8.78,0,0,0,27,24Z"/><path class="cls-4" d="M34.9,23.43a2.25,2.25,0,0,1-1-.89,2.8,2.8,0,0,1-.35-1.45A3,3,0,0,1,34.27,19a2.51,2.51,0,0,1,1.93-.82,2.57,2.57,0,0,1,1.94.83,3,3,0,0,1,.77,2.16,2.67,2.67,0,0,1-.34,1.4,2.24,2.24,0,0,1-1,.89,2.62,2.62,0,0,1,1.31,1.09,4,4,0,0,1-.43,4.36,3,3,0,0,1-4.41,0,3.62,3.62,0,0,1-.88-2.54,3.42,3.42,0,0,1,.47-1.89A2.34,2.34,0,0,1,34.9,23.43Zm-.6,2.91a2.51,2.51,0,0,0,.56,1.7,1.75,1.75,0,0,0,1.35.65,1.72,1.72,0,0,0,1.35-.63,2.41,2.41,0,0,0,.56-1.67,2.48,2.48,0,0,0-.57-1.7,1.77,1.77,0,0,0-1.37-.64,1.67,1.67,0,0,0-1.33.64A2.42,2.42,0,0,0,34.3,26.34Zm.38-5.29a2,2,0,0,0,.44,1.34,1.42,1.42,0,0,0,1.09.5,1.39,1.39,0,0,0,1.08-.49,1.8,1.8,0,0,0,.44-1.27,1.9,1.9,0,0,0-.45-1.31,1.39,1.39,0,0,0-2.15,0A1.81,1.81,0,0,0,34.68,21.05Z"/><path class="cls-4" d="M738.45,279.16l1.15-.21a2,2,0,0,0,.56,1.3,1.93,1.93,0,0,0,2.35.06,1.19,1.19,0,0,0,.41-.94.93.93,0,0,0-.35-.77,4.64,4.64,0,0,0-1.17-.47,8.28,8.28,0,0,1-1.8-.7,2,2,0,0,1-.7-.77,2.36,2.36,0,0,1-.25-1.11,2.31,2.31,0,0,1,.68-1.72,2.58,2.58,0,0,1,1.88-.67,2.93,2.93,0,0,1,1.33.28,2,2,0,0,1,.88.73,3.15,3.15,0,0,1,.42,1.32l-1.12.19a1.35,1.35,0,0,0-1.48-1.36,1.76,1.76,0,0,0-1.12.3,1,1,0,0,0-.36.77.87.87,0,0,0,.35.72,6.55,6.55,0,0,0,1.25.5,9.14,9.14,0,0,1,1.85.72,1.89,1.89,0,0,1,.66.74,2.51,2.51,0,0,1,.23,1.1,2.58,2.58,0,0,1-.75,1.93,2.84,2.84,0,0,1-2.06.74C739.66,281.84,738.71,281,738.45,279.16Z"/><path class="cls-4" d="M750.11,279l1.19.18a3.62,3.62,0,0,1-1.08,2,2.83,2.83,0,0,1-1.92.68,2.86,2.86,0,0,1-2.34-1.1,4.89,4.89,0,0,1-.9-3.17,5.19,5.19,0,0,1,.9-3.28,2.84,2.84,0,0,1,2.29-1.13,2.71,2.71,0,0,1,2.2,1.11,5.05,5.05,0,0,1,.89,3.21v.38h-5.08a3.57,3.57,0,0,0,.65,2.11,1.75,1.75,0,0,0,1.4.71C749.17,280.68,749.77,280.11,750.11,279Zm-3.79-2.28h3.8a3.21,3.21,0,0,0-.46-1.61,1.69,1.69,0,0,0-1.42-.77,1.72,1.72,0,0,0-1.32.64A2.88,2.88,0,0,0,746.32,276.7Z"/><path class="cls-4" d="M757.21,278.61l1.13.18a3.73,3.73,0,0,1-1,2.26,2.54,2.54,0,0,1-1.88.79,2.68,2.68,0,0,1-2.2-1.1,5.16,5.16,0,0,1-.87-3.25,5,5,0,0,1,.88-3.24,2.71,2.71,0,0,1,2.23-1.09,2.53,2.53,0,0,1,1.78.66,3.26,3.26,0,0,1,.93,2l-1.12.2a2.39,2.39,0,0,0-.57-1.25,1.32,1.32,0,0,0-1-.42,1.7,1.7,0,0,0-1.41.75,4.12,4.12,0,0,0-.56,2.4,4.29,4.29,0,0,0,.54,2.45,1.61,1.61,0,0,0,1.37.76,1.48,1.48,0,0,0,1.12-.5A2.74,2.74,0,0,0,757.21,278.61Z"/><path class="cls-4" d="M759.32,281.65v-8.3h1v1.26a3.5,3.5,0,0,1,.73-1.16,1.12,1.12,0,0,1,.75-.29,2,2,0,0,1,1.18.46l-.4,1.3a1.43,1.43,0,0,0-.83-.3,1,1,0,0,0-.67.26,1.32,1.32,0,0,0-.43.71,6.36,6.36,0,0,0-.22,1.71v4.35Z"/><path class="cls-4" d="M768.34,279l1.18.18a3.55,3.55,0,0,1-1.07,2,2.84,2.84,0,0,1-1.93.68,2.89,2.89,0,0,1-2.34-1.1,5,5,0,0,1-.89-3.17,5.19,5.19,0,0,1,.9-3.28,2.81,2.81,0,0,1,2.29-1.13,2.71,2.71,0,0,1,2.2,1.11,5.05,5.05,0,0,1,.88,3.21v.38h-5.07a3.57,3.57,0,0,0,.64,2.11,1.78,1.78,0,0,0,1.41.71C767.4,280.68,768,280.11,768.34,279Zm-3.79-2.28h3.79a3.11,3.11,0,0,0-.46-1.61,1.68,1.68,0,0,0-2.73-.13A2.76,2.76,0,0,0,764.55,276.7Z"/><path class="cls-4" d="M773.55,280.39l.15,1.24a3.1,3.1,0,0,1-.86.13,1.71,1.71,0,0,1-1-.24,1.21,1.21,0,0,1-.51-.65,6.39,6.39,0,0,1-.14-1.65v-4.77h-.84v-1.1h.84V271.3l1.15-.85v2.9h1.17v1.1h-1.17v4.85a2.42,2.42,0,0,0,.1.86.58.58,0,0,0,.56.29A2.86,2.86,0,0,0,773.55,280.39Z"/><path class="cls-4" d="M774.19,279.16l1.15-.21a2,2,0,0,0,.55,1.3,1.94,1.94,0,0,0,2.36.06,1.23,1.23,0,0,0,.41-.94.91.91,0,0,0-.36-.77,4.64,4.64,0,0,0-1.17-.47,8.35,8.35,0,0,1-1.79-.7,2,2,0,0,1-.71-.77,2.48,2.48,0,0,1-.25-1.11,2.31,2.31,0,0,1,.68-1.72,2.61,2.61,0,0,1,1.89-.67,3,3,0,0,1,1.33.28,2.13,2.13,0,0,1,.88.73,3.3,3.3,0,0,1,.42,1.32l-1.13.19a1.34,1.34,0,0,0-1.47-1.36,1.74,1.74,0,0,0-1.12.3.94.94,0,0,0-.37.77.87.87,0,0,0,.35.72,6.77,6.77,0,0,0,1.26.5,9.4,9.4,0,0,1,1.85.72,1.8,1.8,0,0,1,.65.74,2.38,2.38,0,0,1,.24,1.1,2.58,2.58,0,0,1-.76,1.93,2.82,2.82,0,0,1-2.06.74C775.39,281.84,774.45,281,774.19,279.16Z"/><path class="cls-4" d="M781.55,281.65v-1.6h1.32v1.6Z"/><path class="cls-4" d="M922.87,533.65h-1.16v-9a5.74,5.74,0,0,1-1.07.95,6.55,6.55,0,0,1-1.23.74V525a7.25,7.25,0,0,0,1.68-1.33,5.11,5.11,0,0,0,1-1.54h.75Z"/><path class="cls-4" d="M925.82,528a9.67,9.67,0,0,1,.78-4.37,2.46,2.46,0,0,1,2.29-1.48,2.4,2.4,0,0,1,2.12,1.2A8.89,8.89,0,0,1,932,528a9.68,9.68,0,0,1-.78,4.36,2.45,2.45,0,0,1-2.29,1.48,2.53,2.53,0,0,1-2.2-1.31A8.72,8.72,0,0,1,925.82,528Zm1.18,0a8.61,8.61,0,0,0,.54,3.74,1.56,1.56,0,0,0,1.37,1,1.53,1.53,0,0,0,1.32-1,13.22,13.22,0,0,0,0-7.48,1.59,1.59,0,0,0-1.39-1,1.52,1.52,0,0,0-1.31,1A8.78,8.78,0,0,0,927,528Z"/><path class="cls-4" d="M933.29,531l1.11-.12c.18,1.2.7,1.81,1.56,1.81a1.55,1.55,0,0,0,1-.4,3,3,0,0,0,.8-1.4,7.58,7.58,0,0,0,.33-2.35v-.28a2.88,2.88,0,0,1-1,1.1,2.21,2.21,0,0,1-1.24.41,2.49,2.49,0,0,1-2-1,4.13,4.13,0,0,1-.83-2.74,4.34,4.34,0,0,1,.86-2.84,2.63,2.63,0,0,1,2.1-1,2.6,2.6,0,0,1,1.63.58,3.55,3.55,0,0,1,1.17,1.7,9.69,9.69,0,0,1,.42,3.24,11.72,11.72,0,0,1-.45,3.67,4,4,0,0,1-1.21,1.9,2.66,2.66,0,0,1-1.7.6,2.39,2.39,0,0,1-1.79-.73A3.36,3.36,0,0,1,933.29,531Zm4.73-5.06a3.1,3.1,0,0,0-.55-1.93,1.6,1.6,0,0,0-1.26-.71,1.66,1.66,0,0,0-1.33.76,3.15,3.15,0,0,0-.58,2,2.7,2.7,0,0,0,.55,1.79,1.68,1.68,0,0,0,1.33.67,1.58,1.58,0,0,0,1.3-.67A3,3,0,0,0,938,525.94Z"/><g class="cls-2"><path class="cls-3" d="M426.24,180c-.11-4.85,8.64-15.37,10.48-18.19,3.71-5.67,7.93-11.41,10.9-17.56-17.19,38.17-32.1,77.23-45.4,116.91q11.75,8.43,19.41-13.9c13.59-13.36,26.45-27.55,40.46-40.48A295.65,295.65,0,0,0,445.86,235q-8.55,17.26-17.65,34.25a9.57,9.57,0,0,0-2.95,6c4.83-4.73,10.9-18.84,17.89-19.55-6.75,31.67-21.46,61.75-32.23,92.24q1.4,1.88,3.43-.13c1.51,4.32-10,18.39-12.37,22.91a7,7,0,0,1,5.39-1.91c1.56,6.43-7,16.6-9.54,20.85a375.32,375.32,0,0,0-20.71,38.13,30,30,0,0,0-5.92,15.79A72.52,72.52,0,0,1,390,441c1.72,7-1.23,17.75-2,24.49-.41,3.78-2.09,12.05-1.34,16.45.94,5.45,5.56,9.48,7.39,14.65,5.27,14.89.78,31.3-.74,46.37-1,9.93,1.37,19.51,1.23,29.44"/><path class="cls-3" d="M73.44,607l138.24-7.2,94.32-.13,110.63,3.67h155s-81.24-.53-47.46-2.35S495,599.51,495,599.51l-117-.13c-6.93,0,22.13-.12-6.93-.12S282.24,630,282.24,630H486l95.76-57.6c87.84-.11,69.12-.11,87.84-.11s87.84-.12,87.84-.12L891,572c8.75-.12,69.48-29.88,69.48-29.88L1017,559.44l9.72-27.36"/></g></g></svg>