<svg id="Layer_1" data-name="Layer 1" xmlns="http://www.w3.org/2000/svg" xmlns:xlink="http://www.w3.org/1999/xlink" viewBox="0 0 1080 756"><defs><style>.cls-1,.cls-3{fill:none;}.cls-2{clip-path:url(#clip-path);}.cls-3{stroke:#231f20;stroke-width:0.25px;}.cls-4{fill:#231f20;}</style><clipPath id="clip-path"><rect class="cls-1" width="1080" height="756"/></clipPath></defs><title>Untitled-3</title><g class="cls-2"><g class="cls-2"><line class="cls-3" x1="180" y1="-18.36" x2="180" y2="790.92"/><line class="cls-3" x1="720" y1="-20.88" x2="720" y2="788.4"/><line class="cls-3" x1="359.88" y1="-18.36" x2="359.88" y2="790.92"/><line class="cls-3" x1="899.87" y1="-20.88" x2="899.87" y2="788.4"/><line class="cls-3" x1="-16.92" y1="251.88" x2="1101.6" y2="251.88"/><line class="cls-3" x1="-11.52" y1="504.13" x2="1107" y2="504.13"/><line class="cls-3" x1="540" y1="-19.44" x2="540" y2="789.84"/></g><path class="cls-4" d="M20.75,29.65l-2.59-8.3h1.22l1.47,5c.16.56.31,1.12.44,1.67.09-.44.24-1,.42-1.58l1.52-5.06h1.18l-2.58,8.3Z"/><path class="cls-4" d="M25.41,29.65V18.2h1.15v4.1a2.82,2.82,0,0,1,.92-.85,2.29,2.29,0,0,1,1.13-.29,2.16,2.16,0,0,1,1.71.7A3.8,3.8,0,0,1,31,24.39v5.26H29.8V24.39a2.45,2.45,0,0,0-.38-1.55,1.27,1.27,0,0,0-1.05-.46,1.64,1.64,0,0,0-1.28.6,3.28,3.28,0,0,0-.53,2.13v4.54Z"/><path class="cls-4" d="M378.7,531l1.1-.12c.18,1.2.7,1.81,1.57,1.81a1.59,1.59,0,0,0,1.05-.4,3.07,3.07,0,0,0,.8-1.4,7.58,7.58,0,0,0,.33-2.35v-.28a3,3,0,0,1-1,1.1,2.24,2.24,0,0,1-1.24.41,2.49,2.49,0,0,1-2-1,4.14,4.14,0,0,1-.84-2.74,4.28,4.28,0,0,1,.87-2.84,2.62,2.62,0,0,1,3.73-.45,3.69,3.69,0,0,1,1.17,1.7,9.73,9.73,0,0,1,.41,3.24,12.07,12.07,0,0,1-.44,3.67,4,4,0,0,1-1.21,1.9,2.7,2.7,0,0,1-1.71.6,2.41,2.41,0,0,1-1.79-.73A3.41,3.41,0,0,1,378.7,531Zm4.72-5.06a3,3,0,0,0-.55-1.93,1.57,1.57,0,0,0-1.26-.71,1.64,1.64,0,0,0-1.32.76,3.15,3.15,0,0,0-.59,2,2.7,2.7,0,0,0,.56,1.79,1.66,1.66,0,0,0,1.33.67,1.61,1.61,0,0,0,1.3-.67A3,3,0,0,0,383.42,525.94Z"/><path class="cls-4" d="M391.9,532.3v1.35h-6.21a3.88,3.88,0,0,1,.49-1.84,10.18,10.18,0,0,1,1.91-2.4,13.49,13.49,0,0,0,2.11-2.49,3.28,3.28,0,0,0,.5-1.64,2,2,0,0,0-.51-1.42,1.73,1.73,0,0,0-2.58,0,2.57,2.57,0,0,0-.52,1.71l-1.18-.15a3.85,3.85,0,0,1,.93-2.48,2.85,2.85,0,0,1,2.13-.83,2.54,2.54,0,0,1,2.17,1,3.48,3.48,0,0,1,.74,2.2,4.11,4.11,0,0,1-.58,2.1,15.13,15.13,0,0,1-2.19,2.67c-.69.71-1.13,1.19-1.33,1.44a4.12,4.12,0,0,0-.49.77Z"/><path class="cls-4" d="M559,29.65v-8.3h1v1.16a2.71,2.71,0,0,1,.89-1,2.11,2.11,0,0,1,1.17-.35A1.86,1.86,0,0,1,564,22.61a3.16,3.16,0,0,1,.94-1.08,2.09,2.09,0,0,1,2.72.3,3.28,3.28,0,0,1,.56,2.12v5.7H567V24.42a4.19,4.19,0,0,0-.13-1.27,1.11,1.11,0,0,0-.42-.57,1.07,1.07,0,0,0-.65-.2,1.48,1.48,0,0,0-1.22.59,3,3,0,0,0-.47,1.85v4.83H563v-5.4a2.49,2.49,0,0,0-.31-1.45,1.06,1.06,0,0,0-.88-.42,1.45,1.45,0,0,0-1.24.63,4.2,4.2,0,0,0-.46,2.33v4.31Z"/><path class="cls-4" d="M574.33,29.65V28.43a3,3,0,0,1-.94,1.05,2.16,2.16,0,0,1-1.22.36,2.2,2.2,0,0,1-1.37-.44,2,2,0,0,1-.76-1.1,6.6,6.6,0,0,1-.2-1.81V21.35H571V26a7.62,7.62,0,0,0,.13,1.72,1.32,1.32,0,0,0,.48.69,1.23,1.23,0,0,0,.79.26,1.65,1.65,0,0,0,1.36-.67,3.73,3.73,0,0,0,.45-2.15V21.35h1.16v8.3Z"/><path class="cls-4" d="M576.73,27.16l1.15-.21a2,2,0,0,0,.55,1.3,1.94,1.94,0,0,0,2.36.06,1.23,1.23,0,0,0,.41-.94.91.91,0,0,0-.36-.77,4.64,4.64,0,0,0-1.17-.47,8.35,8.35,0,0,1-1.79-.7,2,2,0,0,1-.71-.77,2.36,2.36,0,0,1-.25-1.11,2.31,2.31,0,0,1,.68-1.72,2.58,2.58,0,0,1,1.88-.67,3,3,0,0,1,1.34.28,2.13,2.13,0,0,1,.88.73,3.3,3.3,0,0,1,.42,1.32l-1.13.19a1.34,1.34,0,0,0-1.47-1.36,1.74,1.74,0,0,0-1.12.3.94.94,0,0,0-.37.77.87.87,0,0,0,.35.72,6.46,6.46,0,0,0,1.26.5,9.4,9.4,0,0,1,1.85.72,1.8,1.8,0,0,1,.65.74,2.38,2.38,0,0,1,.24,1.1,2.58,2.58,0,0,1-.76,1.93,2.82,2.82,0,0,1-2.06.74C577.93,29.84,577,29,576.73,27.16Z"/><path class="cls-4" d="M588.19,26.61l1.13.18a3.79,3.79,0,0,1-1,2.26,2.55,2.55,0,0,1-1.89.79,2.7,2.7,0,0,1-2.2-1.1,5.23,5.23,0,0,1-.86-3.25,5.09,5.09,0,0,1,.87-3.24,2.73,2.73,0,0,1,2.24-1.09,2.55,2.55,0,0,1,1.78.66,3.2,3.2,0,0,1,.92,2l-1.11.2a2.39,2.39,0,0,0-.57-1.25,1.32,1.32,0,0,0-1-.42,1.69,1.69,0,0,0-1.41.75,4.12,4.12,0,0,0-.56,2.4,4.29,4.29,0,0,0,.54,2.45,1.59,1.59,0,0,0,1.37.76,1.5,1.5,0,0,0,1.12-.5A2.81,2.81,0,0,0,588.19,26.61Z"/><path class="cls-4" d="M594.75,29.65V28.43a3,3,0,0,1-.94,1.05,2.13,2.13,0,0,1-1.22.36,2.2,2.2,0,0,1-1.37-.44,2,2,0,0,1-.76-1.1,6.66,6.66,0,0,1-.19-1.81V21.35h1.14V26a7.62,7.62,0,0,0,.13,1.72,1.32,1.32,0,0,0,.48.69,1.25,1.25,0,0,0,.79.26,1.65,1.65,0,0,0,1.36-.67,3.73,3.73,0,0,0,.45-2.15V21.35h1.16v8.3Z"/><path class="cls-4" d="M597.55,29.65V18.2h1.15V29.65Z"/><path class="cls-4" d="M604.94,28.62a4.14,4.14,0,0,1-1.21.91,2.92,2.92,0,0,1-1.29.31,2.31,2.31,0,0,1-1.7-.64,2.37,2.37,0,0,1-.63-1.73,2.62,2.62,0,0,1,.3-1.27,2.19,2.19,0,0,1,.81-.87,4.2,4.2,0,0,1,1.56-.46,8.74,8.74,0,0,0,2.06-.49V24a1.85,1.85,0,0,0-.3-1.2,1.67,1.67,0,0,0-1.32-.5,1.88,1.88,0,0,0-1.21.33,2.21,2.21,0,0,0-.58,1.26l-1.14-.19a3.19,3.19,0,0,1,1-1.95,3.26,3.26,0,0,1,2.11-.61,3,3,0,0,1,1.68.41,1.75,1.75,0,0,1,.77,1A7.53,7.53,0,0,1,606,24.3v1.87a24.27,24.27,0,0,0,.07,2.48,3.6,3.6,0,0,0,.3,1h-1.21A3.33,3.33,0,0,1,604.94,28.62Zm-.1-3.14A7.34,7.34,0,0,1,603,26a3.33,3.33,0,0,0-1,.28,1.08,1.08,0,0,0-.45.45,1.37,1.37,0,0,0-.16.68,1.27,1.27,0,0,0,.36.95,1.41,1.41,0,0,0,1,.35,2,2,0,0,0,1.12-.32,1.87,1.87,0,0,0,.75-.85,3.78,3.78,0,0,0,.25-1.56Z"/><path class="cls-4" d="M607.8,29.65v-8.3h1v1.26a3.67,3.67,0,0,1,.73-1.16,1.14,1.14,0,0,1,.75-.29,2,2,0,0,1,1.18.46l-.39,1.3a1.49,1.49,0,0,0-.84-.3,1,1,0,0,0-.67.26,1.38,1.38,0,0,0-.43.71A6.79,6.79,0,0,0,609,25.3v4.35Z"/><path class="cls-4" d="M620.25,28.62a4.23,4.23,0,0,1-1.2.91,3,3,0,0,1-1.3.31,2.32,2.32,0,0,1-1.7-.64,2.37,2.37,0,0,1-.63-1.73,2.62,2.62,0,0,1,.3-1.27,2.27,2.27,0,0,1,.81-.87,4.33,4.33,0,0,1,1.56-.46,9,9,0,0,0,2.07-.49V24a1.85,1.85,0,0,0-.3-1.2,1.67,1.67,0,0,0-1.32-.5,1.83,1.83,0,0,0-1.2.33,2.21,2.21,0,0,0-.59,1.26l-1.13-.19a3.18,3.18,0,0,1,1-1.95,3.26,3.26,0,0,1,2.11-.61,3,3,0,0,1,1.68.41,1.71,1.71,0,0,1,.77,1,7,7,0,0,1,.16,1.74v1.87a24.27,24.27,0,0,0,.07,2.48,3.6,3.6,0,0,0,.3,1h-1.21A3.64,3.64,0,0,1,620.25,28.62Zm-.09-3.14a7.44,7.44,0,0,1-1.89.54,3.33,3.33,0,0,0-1,.28,1.21,1.21,0,0,0-.45.45,1.37,1.37,0,0,0-.16.68,1.24,1.24,0,0,0,.37.95,1.37,1.37,0,0,0,1,.35,2,2,0,0,0,1.12-.32,2,2,0,0,0,.76-.85,4,4,0,0,0,.25-1.56Z"/><path class="cls-4" d="M623.12,29.65v-8.3h1v1.17a2.76,2.76,0,0,1,.91-1,2.36,2.36,0,0,1,1.25-.34,2.44,2.44,0,0,1,1,.22,2.05,2.05,0,0,1,.75.56,2.35,2.35,0,0,1,.42.9,7.81,7.81,0,0,1,.14,1.71v5.1h-1.15v-5a4.34,4.34,0,0,0-.15-1.34,1.36,1.36,0,0,0-.49-.65,1.27,1.27,0,0,0-.77-.23,1.6,1.6,0,0,0-1.32.61,3.46,3.46,0,0,0-.49,2.12v4.54Z"/><path class="cls-4" d="M634.82,29.65v-1a2.42,2.42,0,0,1-.8.92,2,2,0,0,1-1.07.32,2.58,2.58,0,0,1-2.08-1.14,5.16,5.16,0,0,1-.88-3.2,6.56,6.56,0,0,1,.39-2.4,3.29,3.29,0,0,1,1-1.46,2.4,2.4,0,0,1,1.45-.48,2,2,0,0,1,1.06.3,2.58,2.58,0,0,1,.8.84V18.2h1.17V29.65Zm-3.65-4.14a4.15,4.15,0,0,0,.56,2.39,1.6,1.6,0,0,0,1.3.78,1.56,1.56,0,0,0,1.28-.75,3.9,3.9,0,0,0,.54-2.27,4.66,4.66,0,0,0-.54-2.54,1.61,1.61,0,0,0-1.36-.8,1.49,1.49,0,0,0-1.25.77A4.36,4.36,0,0,0,631.17,25.51Z"/><path class="cls-4" d="M641.68,29.65v-7.2h-1v-1.1h1v-.88a4.2,4.2,0,0,1,.2-1.47,1.58,1.58,0,0,1,.63-.74,2,2,0,0,1,1-.26,4.37,4.37,0,0,1,1.08.15l-.17,1.22a3.39,3.39,0,0,0-.68-.08.92.92,0,0,0-.74.27,1.69,1.69,0,0,0-.22,1v.76h1.33v1.1h-1.33v7.2Z"/><path class="cls-4" d="M645,29.65v-8.3h1v1.26a3.5,3.5,0,0,1,.73-1.16,1.12,1.12,0,0,1,.74-.29,2,2,0,0,1,1.18.46l-.39,1.3a1.43,1.43,0,0,0-.83-.3,1,1,0,0,0-.68.26,1.37,1.37,0,0,0-.42.71,6.36,6.36,0,0,0-.22,1.71v4.35Z"/><path class="cls-4" d="M649.38,19.81V18.2h1.14v1.61Zm0,9.84v-8.3h1.14v8.3Z"/><path class="cls-4" d="M656.74,26.61l1.14.18a3.74,3.74,0,0,1-1,2.26,2.54,2.54,0,0,1-1.88.79,2.68,2.68,0,0,1-2.2-1.1,5.16,5.16,0,0,1-.86-3.25,5.09,5.09,0,0,1,.87-3.24,2.71,2.71,0,0,1,2.23-1.09,2.53,2.53,0,0,1,1.78.66,3.26,3.26,0,0,1,.93,2l-1.12.2a2.39,2.39,0,0,0-.57-1.25,1.32,1.32,0,0,0-1-.42,1.71,1.71,0,0,0-1.41.75,4.12,4.12,0,0,0-.56,2.4,4.29,4.29,0,0,0,.54,2.45,1.61,1.61,0,0,0,1.37.76,1.48,1.48,0,0,0,1.12-.5A2.74,2.74,0,0,0,656.74,26.61Z"/><path class="cls-4" d="M661.41,28.39l.16,1.24a3.15,3.15,0,0,1-.86.13,1.76,1.76,0,0,1-1-.24,1.24,1.24,0,0,1-.5-.65,6.39,6.39,0,0,1-.14-1.65V22.45h-.84v-1.1h.84V19.3l1.15-.85v2.9h1.16v1.1h-1.16V27.3a2.2,2.2,0,0,0,.1.86.58.58,0,0,0,.56.29A2.67,2.67,0,0,0,661.41,28.39Z"/><path class="cls-4" d="M662.5,19.81V18.2h1.15v1.61Zm0,9.84v-8.3h1.15v8.3Z"/><path class="cls-4" d="M665,25.5a5,5,0,0,1,.9-3.24,2.91,2.91,0,0,1,4.56,0,4.79,4.79,0,0,1,.91,3.15,5.17,5.17,0,0,1-.9,3.33,2.91,2.91,0,0,1-4.56,0A5,5,0,0,1,665,25.5Zm1.18,0a4,4,0,0,0,.58,2.39,1.75,1.75,0,0,0,1.46.79,1.69,1.69,0,0,0,1.39-.79,4,4,0,0,0,.58-2.39,4,4,0,0,0-.58-2.39,1.75,1.75,0,0,0-1.46-.79,1.7,1.7,0,0,0-1.4.79A4.09,4.09,0,0,0,666.16,25.5Z"/><path class="cls-4" d="M672.71,29.65v-8.3h1v1.17a2.7,2.7,0,0,1,.92-1,2.33,2.33,0,0,1,1.24-.34,2.44,2.44,0,0,1,1,.22,2.05,2.05,0,0,1,.75.56,2.21,2.21,0,0,1,.42.9,7.23,7.23,0,0,1,.14,1.71v5.1h-1.14v-5a4.28,4.28,0,0,0-.16-1.34,1.3,1.3,0,0,0-.49-.65,1.27,1.27,0,0,0-.77-.23,1.6,1.6,0,0,0-1.32.61,3.46,3.46,0,0,0-.49,2.12v4.54Z"/><path class="cls-4" d="M684.44,28.62a4.14,4.14,0,0,1-1.21.91,2.92,2.92,0,0,1-1.29.31,2.31,2.31,0,0,1-1.7-.64,2.37,2.37,0,0,1-.63-1.73,2.62,2.62,0,0,1,.3-1.27,2.19,2.19,0,0,1,.81-.87,4.2,4.2,0,0,1,1.56-.46,8.74,8.74,0,0,0,2.06-.49V24a1.85,1.85,0,0,0-.3-1.2,1.67,1.67,0,0,0-1.32-.5,1.88,1.88,0,0,0-1.21.33,2.21,2.21,0,0,0-.58,1.26l-1.14-.19a3.19,3.19,0,0,1,1-1.95,3.26,3.26,0,0,1,2.11-.61,3,3,0,0,1,1.68.41,1.75,1.75,0,0,1,.77,1,7.53,7.53,0,0,1,.16,1.74v1.87a24.27,24.27,0,0,0,.07,2.48,3.6,3.6,0,0,0,.3,1h-1.21A3.33,3.33,0,0,1,684.44,28.62Zm-.1-3.14a7.34,7.34,0,0,1-1.88.54,3.33,3.33,0,0,0-1,.28,1.08,1.08,0,0,0-.45.45,1.37,1.37,0,0,0-.16.68,1.27,1.27,0,0,0,.36.95,1.41,1.41,0,0,0,1,.35,2,2,0,0,0,1.12-.32,1.87,1.87,0,0,0,.75-.85,3.78,3.78,0,0,0,.25-1.56Z"/><path class="cls-4" d="M687.27,29.65V18.2h1.14V29.65Z"/><path class="cls-4" d="M690.55,29.65v-1.6h1.32v1.6a3.13,3.13,0,0,1-.28,1.46,1.8,1.8,0,0,1-.79.8l-.32-.6a1.2,1.2,0,0,0,.53-.56,2.72,2.72,0,0,0,.19-1.1Zm0-6.7v-1.6h1.32V23Z"/><path class="cls-4" d="M923.5,279l1.19.18a3.62,3.62,0,0,1-1.08,2,2.83,2.83,0,0,1-1.92.68,2.86,2.86,0,0,1-2.34-1.1,4.89,4.89,0,0,1-.9-3.17,5.13,5.13,0,0,1,.91-3.28,2.8,2.8,0,0,1,2.28-1.13,2.71,2.71,0,0,1,2.2,1.11,5.05,5.05,0,0,1,.89,3.21v.38h-5.08a3.57,3.57,0,0,0,.65,2.11,1.75,1.75,0,0,0,1.41.71C922.56,280.68,923.16,280.11,923.5,279Zm-3.79-2.28h3.8a3.21,3.21,0,0,0-.46-1.61,1.69,1.69,0,0,0-1.42-.77,1.72,1.72,0,0,0-1.32.64A2.88,2.88,0,0,0,919.71,276.7Z"/><path class="cls-4" d="M926.15,281.65v-8.3h1v1.17a2.76,2.76,0,0,1,.91-1,2.36,2.36,0,0,1,1.25-.34,2.44,2.44,0,0,1,1,.22,2.05,2.05,0,0,1,.75.56,2.21,2.21,0,0,1,.42.9,7.81,7.81,0,0,1,.14,1.71v5.1h-1.15v-5a4.34,4.34,0,0,0-.15-1.34,1.36,1.36,0,0,0-.49-.65,1.27,1.27,0,0,0-.77-.23,1.6,1.6,0,0,0-1.32.61,3.46,3.46,0,0,0-.49,2.12v4.54Z"/><path class="cls-4" d="M936,280.39l.15,1.24a3.1,3.1,0,0,1-.86.13,1.71,1.71,0,0,1-1-.24,1.21,1.21,0,0,1-.51-.65,6.54,6.54,0,0,1-.13-1.65v-4.77h-.85v-1.1h.85V271.3l1.14-.85v2.9H936v1.1h-1.17v4.85a2.14,2.14,0,0,0,.11.86.56.56,0,0,0,.55.29A2.86,2.86,0,0,0,936,280.39Z"/><path class="cls-4" d="M937.09,271.81V270.2h1.15v1.61Zm0,9.84v-8.3h1.15v8.3Z"/><path class="cls-4" d="M940,281.65v-8.3h1v1.26a3.5,3.5,0,0,1,.73-1.16,1.12,1.12,0,0,1,.74-.29,2,2,0,0,1,1.18.46l-.39,1.3a1.43,1.43,0,0,0-.83-.3,1,1,0,0,0-.68.26,1.37,1.37,0,0,0-.42.71,6.36,6.36,0,0,0-.22,1.71v4.35Z"/><path class="cls-4" d="M949,279l1.19.18a3.61,3.61,0,0,1-1.07,2,2.84,2.84,0,0,1-1.93.68,2.89,2.89,0,0,1-2.34-1.1,4.89,4.89,0,0,1-.89-3.17,5.19,5.19,0,0,1,.9-3.28,2.8,2.8,0,0,1,2.28-1.13,2.72,2.72,0,0,1,2.21,1.11,5.05,5.05,0,0,1,.88,3.21v.38h-5.08a3.64,3.64,0,0,0,.65,2.11,1.78,1.78,0,0,0,1.41.71C948.08,280.68,948.68,280.11,949,279Zm-3.79-2.28H949a3.11,3.11,0,0,0-.46-1.61,1.68,1.68,0,0,0-2.73-.13A2.82,2.82,0,0,0,945.23,276.7Z"/><path class="cls-4" d="M955.33,281.65v-8.3h1v1.16a2.69,2.69,0,0,1,.88-1,2.15,2.15,0,0,1,1.18-.35,2,2,0,0,1,1.21.37,2,2,0,0,1,.71,1.08,3.14,3.14,0,0,1,.93-1.08,2,2,0,0,1,1.18-.37,1.93,1.93,0,0,1,1.54.67,3.22,3.22,0,0,1,.56,2.12v5.7h-1.14v-5.23a4.55,4.55,0,0,0-.13-1.27,1.17,1.17,0,0,0-.42-.57,1.1,1.1,0,0,0-.66-.2A1.46,1.46,0,0,0,961,275a2.91,2.91,0,0,0-.47,1.85v4.83h-1.15v-5.4a2.48,2.48,0,0,0-.32-1.45,1,1,0,0,0-.87-.42,1.47,1.47,0,0,0-1.25.63,4.31,4.31,0,0,0-.45,2.33v4.31Z"/><path class="cls-4" d="M965.81,277.5a5,5,0,0,1,.9-3.24,2.91,2.91,0,0,1,4.56,0,4.79,4.79,0,0,1,.92,3.15,5.17,5.17,0,0,1-.9,3.33,2.92,2.92,0,0,1-4.57,0A5,5,0,0,1,965.81,277.5Zm1.18,0a4,4,0,0,0,.59,2.39,1.74,1.74,0,0,0,1.45.79,1.7,1.7,0,0,0,1.4-.79,4.11,4.11,0,0,0,.58-2.39,4,4,0,0,0-.59-2.39,1.74,1.74,0,0,0-1.45-.79,1.69,1.69,0,0,0-1.4.79A4,4,0,0,0,967,277.5Z"/><path class="cls-4" d="M973.55,281.65v-8.3h1v1.26a3.35,3.35,0,0,1,.73-1.16,1.12,1.12,0,0,1,.74-.29,2,2,0,0,1,1.18.46l-.39,1.3a1.43,1.43,0,0,0-.83-.3,1,1,0,0,0-.68.26,1.45,1.45,0,0,0-.43.71,6.79,6.79,0,0,0-.21,1.71v4.35Z"/><path class="cls-4" d="M977.91,281.65v-8.3h1v1.17a2.78,2.78,0,0,1,.92-1,2.35,2.35,0,0,1,1.24-.34,2.41,2.41,0,0,1,1,.22,2.05,2.05,0,0,1,.75.56,2.36,2.36,0,0,1,.43.9,7.81,7.81,0,0,1,.14,1.71v5.1h-1.15v-5a4,4,0,0,0-.16-1.34,1.3,1.3,0,0,0-1.25-.88,1.61,1.61,0,0,0-1.33.61,3.53,3.53,0,0,0-.49,2.12v4.54Z"/><path class="cls-4" d="M985.21,271.81V270.2h1.15v1.61Zm0,9.84v-8.3h1.15v8.3Z"/><path class="cls-4" d="M988.12,281.65v-8.3h1v1.17a2.78,2.78,0,0,1,.92-1,2.43,2.43,0,0,1,2.25-.12,2.05,2.05,0,0,1,.75.56,2.36,2.36,0,0,1,.43.9,7.81,7.81,0,0,1,.14,1.71v5.1H992.5v-5a4,4,0,0,0-.16-1.34,1.27,1.27,0,0,0-1.25-.88,1.58,1.58,0,0,0-1.32.61,3.45,3.45,0,0,0-.5,2.12v4.54Z"/><path class="cls-4" d="M995.2,282.34l1.12.2a1.43,1.43,0,0,0,.47,1,1.63,1.63,0,0,0,1.09.33,1.87,1.87,0,0,0,1.2-.36,1.92,1.92,0,0,0,.62-1.09,11.09,11.09,0,0,0,.1-1.84,2.6,2.6,0,0,1-.85.81,2,2,0,0,1-1,.27,2.49,2.49,0,0,1-2-1,5.07,5.07,0,0,1-.92-3.18,6,6,0,0,1,.41-2.34,3.24,3.24,0,0,1,1.06-1.47,2.53,2.53,0,0,1,1.48-.47,2.09,2.09,0,0,1,1.1.3,2.84,2.84,0,0,1,.88.88v-1H1001v7.17a8.35,8.35,0,0,1-.31,2.73,2.59,2.59,0,0,1-1,1.29,3,3,0,0,1-1.71.48,2.73,2.73,0,0,1-2-.72A2.57,2.57,0,0,1,995.2,282.34Zm.95-5a4.16,4.16,0,0,0,.54,2.39,1.59,1.59,0,0,0,1.32.75,1.61,1.61,0,0,0,1.33-.73,5.21,5.21,0,0,0,0-4.68,1.7,1.7,0,0,0-1.37-.76,1.59,1.59,0,0,0-1.27.76A3.94,3.94,0,0,0,996.15,277.35Z"/><path class="cls-4" d="M1005.92,279.16l1.15-.21a2.06,2.06,0,0,0,.55,1.3,1.94,1.94,0,0,0,2.36.06,1.23,1.23,0,0,0,.41-.94.93.93,0,0,0-.35-.77,4.64,4.64,0,0,0-1.17-.47,8.28,8.28,0,0,1-1.8-.7,1.93,1.93,0,0,1-.7-.77,2.36,2.36,0,0,1-.25-1.11,2.28,2.28,0,0,1,.68-1.72,2.58,2.58,0,0,1,1.88-.67,3,3,0,0,1,1.33.28,2.06,2.06,0,0,1,.88.73,3.3,3.3,0,0,1,.42,1.32l-1.12.19a1.35,1.35,0,0,0-1.48-1.36,1.76,1.76,0,0,0-1.12.3,1,1,0,0,0-.36.77.85.85,0,0,0,.35.72,6.55,6.55,0,0,0,1.25.5,9.14,9.14,0,0,1,1.85.72,1.89,1.89,0,0,1,.66.74,2.51,2.51,0,0,1,.23,1.1,2.58,2.58,0,0,1-.75,1.93,2.84,2.84,0,0,1-2.06.74C1007.13,281.84,1006.18,281,1005.92,279.16Z"/><path class="cls-4" d="M1012.93,284.83V273.35H1014v1.08a2.7,2.7,0,0,1,.87-1,2,2,0,0,1,1.09-.3,2.36,2.36,0,0,1,1.45.48,3.26,3.26,0,0,1,1,1.45,6.09,6.09,0,0,1,.4,2.34,5.23,5.23,0,0,1-.89,3.26,2.61,2.61,0,0,1-2.08,1.15,1.81,1.81,0,0,1-1-.28,2.44,2.44,0,0,1-.8-.77v4Zm1.05-7.28a4.15,4.15,0,0,0,.54,2.37,1.46,1.46,0,0,0,2.58,0,5.6,5.6,0,0,0,0-4.84,1.42,1.42,0,0,0-2.57.06A4.33,4.33,0,0,0,1014,277.55Z"/><path class="cls-4" d="M1024.88,279l1.18.18a3.61,3.61,0,0,1-1.07,2,2.84,2.84,0,0,1-1.93.68,2.89,2.89,0,0,1-2.34-1.1,5,5,0,0,1-.89-3.17,5.19,5.19,0,0,1,.9-3.28,2.81,2.81,0,0,1,2.29-1.13,2.71,2.71,0,0,1,2.2,1.11,5.05,5.05,0,0,1,.88,3.21v.38H1021a3.57,3.57,0,0,0,.64,2.11,1.78,1.78,0,0,0,1.41.71C1023.93,280.68,1024.54,280.11,1024.88,279Zm-3.79-2.28h3.79a3.11,3.11,0,0,0-.46-1.61,1.68,1.68,0,0,0-2.73-.13A2.76,2.76,0,0,0,1021.09,276.7Z"/><path class="cls-4" d="M1027.52,281.65v-8.3h1v1.17a2.78,2.78,0,0,1,.92-1,2.33,2.33,0,0,1,1.24-.34,2.41,2.41,0,0,1,1,.22,2.05,2.05,0,0,1,.75.56,2.36,2.36,0,0,1,.43.9,7.81,7.81,0,0,1,.14,1.71v5.1h-1.15v-5a4,4,0,0,0-.16-1.34,1.3,1.3,0,0,0-1.26-.88,1.6,1.6,0,0,0-1.32.61,3.53,3.53,0,0,0-.49,2.12v4.54Z"/><path class="cls-4" d="M1037.38,280.39l.16,1.24a3.21,3.21,0,0,1-.86.13,1.76,1.76,0,0,1-1-.24,1.24,1.24,0,0,1-.5-.65,6.39,6.39,0,0,1-.14-1.65v-4.77h-.84v-1.1h.84V271.3l1.15-.85v2.9h1.16v1.1h-1.16v4.85a2.2,2.2,0,0,0,.1.86.57.57,0,0,0,.56.29A2.86,2.86,0,0,0,1037.38,280.39Z"/><path class="cls-4" d="M923.5,296l1.19.18a3.62,3.62,0,0,1-1.08,2,2.83,2.83,0,0,1-1.92.68,2.86,2.86,0,0,1-2.34-1.1,4.89,4.89,0,0,1-.9-3.17,5.13,5.13,0,0,1,.91-3.28,2.8,2.8,0,0,1,2.28-1.13,2.71,2.71,0,0,1,2.2,1.11,5.05,5.05,0,0,1,.89,3.21v.38h-5.08a3.57,3.57,0,0,0,.65,2.11,1.75,1.75,0,0,0,1.41.71C922.56,297.68,923.16,297.11,923.5,296Zm-3.79-2.28h3.8a3.21,3.21,0,0,0-.46-1.61,1.69,1.69,0,0,0-1.42-.77,1.72,1.72,0,0,0-1.32.64A2.88,2.88,0,0,0,919.71,293.7Z"/><path class="cls-4" d="M925.4,298.65l2.48-4.31-2.29-4H927l1,1.94.48.93c.19-.34.37-.64.52-.9l1.14-2h1.38l-2.35,3.9,2.53,4.4h-1.42l-1.4-2.58-.36-.7-1.79,3.28Z"/><path class="cls-4" d="M935.27,297.39l.16,1.24a3.15,3.15,0,0,1-.86.13,1.76,1.76,0,0,1-1-.24,1.24,1.24,0,0,1-.5-.65,6.39,6.39,0,0,1-.14-1.65v-4.77h-.84v-1.1H933V288.3l1.15-.85v2.9h1.16v1.1h-1.16v4.85a2.2,2.2,0,0,0,.1.86.58.58,0,0,0,.56.29A2.67,2.67,0,0,0,935.27,297.39Z"/><path class="cls-4" d="M941,296l1.19.18a3.62,3.62,0,0,1-1.08,2,2.83,2.83,0,0,1-1.92.68,2.86,2.86,0,0,1-2.34-1.1,4.89,4.89,0,0,1-.9-3.17,5.19,5.19,0,0,1,.9-3.28,2.82,2.82,0,0,1,2.29-1.13,2.71,2.71,0,0,1,2.2,1.11,5.05,5.05,0,0,1,.88,3.21v.38h-5.08a3.57,3.57,0,0,0,.65,2.11,1.75,1.75,0,0,0,1.4.71C940.07,297.68,940.67,297.11,941,296Zm-3.79-2.28H941a3.2,3.2,0,0,0-.47-1.61,1.68,1.68,0,0,0-2.73-.13A2.82,2.82,0,0,0,937.22,293.7Z"/><path class="cls-4" d="M943.66,298.65v-8.3h1v1.17a2.76,2.76,0,0,1,.91-1,2.36,2.36,0,0,1,1.25-.34,2.44,2.44,0,0,1,1,.22,2.1,2.1,0,0,1,.74.56,2.22,2.22,0,0,1,.43.9,7.81,7.81,0,0,1,.14,1.71v5.1H948v-5a4.34,4.34,0,0,0-.15-1.34,1.36,1.36,0,0,0-.49-.65,1.27,1.27,0,0,0-.77-.23,1.59,1.59,0,0,0-1.32.61,3.45,3.45,0,0,0-.5,2.12v4.54Z"/><path class="cls-4" d="M955.36,298.65v-1a2.36,2.36,0,0,1-.81.92,1.91,1.91,0,0,1-1.06.32,2.58,2.58,0,0,1-2.08-1.14,5.1,5.1,0,0,1-.88-3.2,6.56,6.56,0,0,1,.39-2.4,3.29,3.29,0,0,1,1-1.46,2.4,2.4,0,0,1,1.45-.48,2,2,0,0,1,1.06.3,2.58,2.58,0,0,1,.8.84v-4.1h1.17v11.45Zm-3.65-4.14a4.15,4.15,0,0,0,.56,2.39,1.6,1.6,0,0,0,1.3.78,1.56,1.56,0,0,0,1.28-.75,3.9,3.9,0,0,0,.53-2.27,4.67,4.67,0,0,0-.53-2.54,1.61,1.61,0,0,0-1.36-.8,1.52,1.52,0,0,0-1.26.77A4.46,4.46,0,0,0,951.71,294.51Z"/><path class="cls-4" d="M958.25,288.81V287.2h1.15v1.61Zm0,9.84v-8.3h1.15v8.3Z"/><path class="cls-4" d="M961.16,298.65v-8.3h1v1.17a2.78,2.78,0,0,1,.92-1,2.35,2.35,0,0,1,1.24-.34,2.41,2.41,0,0,1,1,.22,2.05,2.05,0,0,1,.75.56,2.36,2.36,0,0,1,.43.9,7.81,7.81,0,0,1,.14,1.71v5.1h-1.15v-5a4,4,0,0,0-.16-1.34,1.3,1.3,0,0,0-1.26-.88,1.6,1.6,0,0,0-1.32.61,3.53,3.53,0,0,0-.49,2.12v4.54Z"/><path class="cls-4" d="M968.23,299.34l1.13.2a1.43,1.43,0,0,0,.47,1,1.62,1.62,0,0,0,1.08.33,1.88,1.88,0,0,0,1.21-.36,1.91,1.91,0,0,0,.61-1.09,9.73,9.73,0,0,0,.11-1.84,2.7,2.7,0,0,1-.85.81,2,2,0,0,1-1,.27,2.49,2.49,0,0,1-2-1,5.07,5.07,0,0,1-.92-3.18,6.23,6.23,0,0,1,.4-2.34,3.26,3.26,0,0,1,1.07-1.47,2.51,2.51,0,0,1,1.48-.47,2.09,2.09,0,0,1,1.1.3,2.84,2.84,0,0,1,.88.88v-1H974v7.17a8.35,8.35,0,0,1-.31,2.73,2.59,2.59,0,0,1-1,1.29A3,3,0,0,1,971,302a2.73,2.73,0,0,1-2-.72A2.61,2.61,0,0,1,968.23,299.34Zm1-5a4.16,4.16,0,0,0,.54,2.39,1.59,1.59,0,0,0,1.32.75,1.61,1.61,0,0,0,1.33-.73,5.21,5.21,0,0,0,0-4.68,1.7,1.7,0,0,0-1.37-.76,1.57,1.57,0,0,0-1.27.76A3.94,3.94,0,0,0,969.19,294.35Z"/><path class="cls-4" d="M979.41,288.81V287.2h1.14v1.61Zm0,9.84v-8.3h1.14v8.3Z"/><path class="cls-4" d="M982.32,298.65v-8.3h1v1.17a2.7,2.7,0,0,1,.92-1,2.33,2.33,0,0,1,1.24-.34,2.44,2.44,0,0,1,1,.22,2.05,2.05,0,0,1,.75.56,2.21,2.21,0,0,1,.42.9,7.23,7.23,0,0,1,.14,1.71v5.1H986.7v-5a4.28,4.28,0,0,0-.16-1.34,1.36,1.36,0,0,0-.49-.65,1.27,1.27,0,0,0-.77-.23A1.6,1.6,0,0,0,984,292a3.46,3.46,0,0,0-.49,2.12v4.54Z"/><path class="cls-4" d="M992.18,297.39l.16,1.24a3.21,3.21,0,0,1-.86.13,1.74,1.74,0,0,1-1-.24,1.21,1.21,0,0,1-.51-.65,6.54,6.54,0,0,1-.13-1.65v-4.77H989v-1.1h.85V288.3l1.15-.85v2.9h1.16v1.1H991v4.85a2.2,2.2,0,0,0,.1.86.56.56,0,0,0,.55.29A2.86,2.86,0,0,0,992.18,297.39Z"/><path class="cls-4" d="M992.83,294.5a5,5,0,0,1,.9-3.24,2.91,2.91,0,0,1,4.56,0,4.79,4.79,0,0,1,.91,3.15,5.17,5.17,0,0,1-.9,3.33,2.91,2.91,0,0,1-4.56,0A5,5,0,0,1,992.83,294.5Zm1.18,0a4,4,0,0,0,.58,2.39,1.75,1.75,0,0,0,1.46.79,1.69,1.69,0,0,0,1.39-.79,4,4,0,0,0,.58-2.39,4,4,0,0,0-.58-2.39,1.75,1.75,0,0,0-1.46-.79,1.67,1.67,0,0,0-1.39.79A4,4,0,0,0,994,294.5Z"/><path class="cls-4" d="M1000.92,298.65v-1.6h1.31v1.6Z"/><path class="cls-4" d="M918.7,27l1.1-.12c.18,1.2.7,1.81,1.57,1.81a1.59,1.59,0,0,0,1-.4,3.07,3.07,0,0,0,.8-1.4,7.58,7.58,0,0,0,.33-2.35v-.28a3,3,0,0,1-1,1.1,2.24,2.24,0,0,1-1.24.41,2.49,2.49,0,0,1-2-1,4.14,4.14,0,0,1-.84-2.74,4.28,4.28,0,0,1,.87-2.84,2.62,2.62,0,0,1,3.73-.45,3.69,3.69,0,0,1,1.17,1.7,9.73,9.73,0,0,1,.41,3.24,12.07,12.07,0,0,1-.44,3.67,4,4,0,0,1-1.21,1.9,2.7,2.7,0,0,1-1.71.6,2.41,2.41,0,0,1-1.79-.73A3.41,3.41,0,0,1,918.7,27Zm4.72-5.06a3,3,0,0,0-.55-1.93,1.57,1.57,0,0,0-1.26-.71,1.64,1.64,0,0,0-1.32.76,3.15,3.15,0,0,0-.59,2,2.7,2.7,0,0,0,.56,1.79,1.66,1.66,0,0,0,1.33.67,1.61,1.61,0,0,0,1.3-.67A3,3,0,0,0,923.42,21.94Z"/><path class="cls-4" d="M925.82,26.62l1.15-.19c.24,1.5.85,2.26,1.82,2.26a1.77,1.77,0,0,0,1.37-.67,2.55,2.55,0,0,0,.58-1.73,2.36,2.36,0,0,0-.53-1.62,1.68,1.68,0,0,0-1.3-.61,2.66,2.66,0,0,0-.82.16l.14-1.24.18,0a1.82,1.82,0,0,0,1.92-1.92,1.84,1.84,0,0,0-.45-1.29,1.46,1.46,0,0,0-2.21,0,2.7,2.7,0,0,0-.58,1.55l-1.15-.25a3.76,3.76,0,0,1,1-2.22,2.66,2.66,0,0,1,3.79.09,3,3,0,0,1,.8,2.13,2.72,2.72,0,0,1-.34,1.38,2.5,2.5,0,0,1-.94.94,2.13,2.13,0,0,1,.92.52,2.53,2.53,0,0,1,.59,1,3.8,3.8,0,0,1,.23,1.34,3.65,3.65,0,0,1-.93,2.58,2.92,2.92,0,0,1-2.23,1,2.73,2.73,0,0,1-2-.87A3.76,3.76,0,0,1,925.82,26.62Z"/><g class="cls-2"><path class="cls-3" d="M235.93,46.8v2.94q5.61,3.42,12.74,1.13c17,.53,34,1.58,51.07,1.23a27.4,27.4,0,0,0-7.87,3c3.48-1.11,22.85-3.47,22.93.62a114.88,114.88,0,0,1-26.33,9.22c1.08-.07,2.17-.11,3.26-.13-6.21,0-32.83-4.33-35.28,3.43,13.22.21,35.8-2.8,46.39-3.16,34.84-1.19,71.72-2.46,106.47,1.28q-11.1,2.15-22,5.05c-.75.2-25.42,5.55-27.42,9.67C367.69,79.32,374.44,74.3,383,73c-4.61,10.66-16.67,15.7-25,22.69,24.91-12.11,49.55-18.94,77.34-20.28,1,4.44-6.16,15.26-8.57,19.85,4.5.83,21.61-10.32,23.89-11.45,10.09-5,10.37-5.87,18.74-1.07a17.41,17.41,0,0,1,8,4.53c1.63,2.18,3.31,4.33,5,6.46,4.75,1.72,10.43-4,14.59-5.49"/><path class="cls-3" d="M869.4,93.6c-8.76,10.24-16.84,21-25.14,31.6,15.36-11.7,37-22.85,53-32,10-5.73,30.91-21.33,45.07-21.79-6.34,17.08-22.2,29.55-28.92,46.6,18.5-11.85,34.52-27.68,52.13-40.71,10.24-7.58,31.27-24.75,45.64-28C948.65,118.61,873,177.2,804.3,239.81a1997.68,1997.68,0,0,0-177.15,173A41.2,41.2,0,0,0,614,435.18c16.78-15.21,34.38-28.43,53-41.38,35.13-24.41,71.32-48.19,108.29-69.69a665.34,665.34,0,0,0-53,68.82c22.34-21.79,50.55-44.06,78.58-58a19.3,19.3,0,0,0-3.93,4.87c-21.18,34.23-52.1,45.73-89.28,69.37-99.93,63.56-206.54,116.36-304.41,183"/></g></g></svg>