<svg id="Layer_1" data-name="Layer 1" xmlns="http://www.w3.org/2000/svg" xmlns:xlink="http://www.w3.org/1999/xlink" viewBox="0 0 1080 756"><defs><style>.cls-1,.cls-3{fill:none;}.cls-2{clip-path:url(#clip-path);}.cls-3{stroke:#231f20;stroke-width:0.25px;}.cls-4{fill:#231f20;}</style><clipPath id="clip-path"><rect class="cls-1" width="1080" height="756"/></clipPath></defs><title>Untitled-3</title><g class="cls-2"><g class="cls-2"><line class="cls-3" x1="180" y1="-18.36" x2="180" y2="790.92"/><line class="cls-3" x1="720" y1="-20.88" x2="720" y2="788.4"/><line class="cls-3" x1="359.88" y1="-18.36" x2="359.88" y2="790.92"/><line class="cls-3" x1="899.87" y1="-20.88" x2="899.87" y2="788.4"/><line class="cls-3" x1="-16.92" y1="251.88" x2="1101.6" y2="251.88"/><line class="cls-3" x1="-11.52" y1="504.13" x2="1107" y2="504.13"/><line class="cls-3" x1="540" y1="-19.44" x2="540" y2="789.84"/></g><path class="cls-4" d="M18.54,277.62a5,5,0,0,1,.9-3.24,2.93,2.93,0,0,1,4.56,0,4.8,4.8,0,0,1,.91,3.16,5.23,5.23,0,0,1-.89,3.33,2.93,2.93,0,0,1-4.57,0A5,5,0,0,1,18.54,277.62Zm1.18,0a4,4,0,0,0,.58,2.4,1.78,1.78,0,0,0,1.46.78,1.69,1.69,0,0,0,1.39-.79,5.21,5.21,0,0,0,0-4.78,1.76,1.76,0,0,0-1.45-.78,1.68,1.68,0,0,0-1.4.79A4,4,0,0,0,19.72,277.62Z"/><path class="cls-4" d="M26.59,281.77v-7.2h-1v-1.09h1v-.89a3.85,3.85,0,0,1,.21-1.46,1.49,1.49,0,0,1,.62-.75,2,2,0,0,1,1-.26,4.37,4.37,0,0,1,1.08.15l-.17,1.22a3.31,3.31,0,0,0-.68-.08.92.92,0,0,0-.74.27,1.78,1.78,0,0,0-.22,1v.77h1.33v1.09H27.74v7.2Z"/><path class="cls-4" d="M38,280.75a4.64,4.64,0,0,1-1.2.91,3,3,0,0,1-1.3.3,2.28,2.28,0,0,1-1.7-.64,2.36,2.36,0,0,1-.63-1.73,2.62,2.62,0,0,1,.3-1.27,2.27,2.27,0,0,1,.81-.87,4.47,4.47,0,0,1,1.56-.46,9,9,0,0,0,2.07-.49v-.36a1.8,1.8,0,0,0-.3-1.19,1.63,1.63,0,0,0-1.32-.5,1.83,1.83,0,0,0-1.2.33A2.12,2.12,0,0,0,34.5,276l-1.13-.19a3.12,3.12,0,0,1,1-1.94,3.2,3.2,0,0,1,2.11-.61,3,3,0,0,1,1.68.4,1.73,1.73,0,0,1,.77,1,6.87,6.87,0,0,1,.16,1.73v1.88a24.27,24.27,0,0,0,.07,2.48,3.53,3.53,0,0,0,.3,1H38.23A3.49,3.49,0,0,1,38,280.75Zm-.09-3.14a7.1,7.1,0,0,1-1.89.53,3.28,3.28,0,0,0-1,.29,1.08,1.08,0,0,0-.45.45,1.33,1.33,0,0,0-.16.67,1.23,1.23,0,0,0,.37.95,1.37,1.37,0,0,0,1,.36,2.06,2.06,0,0,0,1.12-.32,2,2,0,0,0,.76-.86,3.88,3.88,0,0,0,.25-1.56Z"/><path class="cls-4" d="M49,278.73l1.13.18a3.82,3.82,0,0,1-1,2.27,2.57,2.57,0,0,1-1.89.78,2.66,2.66,0,0,1-2.19-1.1,6.49,6.49,0,0,1,0-6.49,2.75,2.75,0,0,1,2.24-1.08,2.55,2.55,0,0,1,1.78.66,3.17,3.17,0,0,1,.92,2l-1.11.21a2.47,2.47,0,0,0-.57-1.26,1.31,1.31,0,0,0-1-.41,1.69,1.69,0,0,0-1.41.75,4.06,4.06,0,0,0-.56,2.39,4.35,4.35,0,0,0,.54,2.46,1.61,1.61,0,0,0,1.37.75,1.45,1.45,0,0,0,1.12-.5A2.74,2.74,0,0,0,49,278.73Z"/><path class="cls-4" d="M51.08,281.77V270.32h1.15v4.11a2.84,2.84,0,0,1,.91-.86,2.31,2.31,0,0,1,1.13-.28A2.21,2.21,0,0,1,56,274a3.84,3.84,0,0,1,.63,2.54v5.25H55.47v-5.25a2.5,2.5,0,0,0-.38-1.55A1.31,1.31,0,0,0,54,274.5a1.66,1.66,0,0,0-1.28.6,3.28,3.28,0,0,0-.52,2.13v4.54Z"/><path class="cls-4" d="M58.38,271.94v-1.62h1.14v1.62Zm0,9.83v-8.29h1.14v8.29Z"/><path class="cls-4" d="M61.25,281.77V270.32H62.4v11.45Z"/><path class="cls-4" d="M68.61,281.77v-1a2.33,2.33,0,0,1-.81.91,1.84,1.84,0,0,1-1.06.32,2.58,2.58,0,0,1-2.08-1.14,5.08,5.08,0,0,1-.88-3.2,6.47,6.47,0,0,1,.39-2.39,3.18,3.18,0,0,1,1-1.46,2.4,2.4,0,0,1,1.45-.48,2,2,0,0,1,1.06.3,2.39,2.39,0,0,1,.8.84v-4.11h1.17v11.45ZM65,277.63a4.13,4.13,0,0,0,.56,2.39,1.6,1.6,0,0,0,1.3.78,1.56,1.56,0,0,0,1.28-.75,3.87,3.87,0,0,0,.53-2.26,4.64,4.64,0,0,0-.53-2.54,1.59,1.59,0,0,0-1.36-.8,1.51,1.51,0,0,0-1.26.76A4.48,4.48,0,0,0,65,277.63Z"/><path class="cls-4" d="M79.8,279.1l1.18.18a3.58,3.58,0,0,1-1.07,2A2.84,2.84,0,0,1,78,282a2.89,2.89,0,0,1-2.34-1.1,4.92,4.92,0,0,1-.89-3.16,5.15,5.15,0,0,1,.9-3.28,2.82,2.82,0,0,1,2.29-1.13,2.71,2.71,0,0,1,2.2,1.11,5.05,5.05,0,0,1,.88,3.21V278H75.94a3.48,3.48,0,0,0,.65,2.11,1.72,1.72,0,0,0,1.4.71C78.86,280.8,79.46,280.24,79.8,279.1ZM76,276.83H79.8a3.08,3.08,0,0,0-.46-1.61,1.68,1.68,0,0,0-2.73-.13A2.82,2.82,0,0,0,76,276.83Z"/><path class="cls-4" d="M82.41,281.77V270.32h1.14v11.45Z"/><path class="cls-4" d="M90,279.1l1.19.18a3.65,3.65,0,0,1-1.08,2,2.83,2.83,0,0,1-1.92.67,2.86,2.86,0,0,1-2.34-1.1,4.86,4.86,0,0,1-.9-3.16,5.15,5.15,0,0,1,.9-3.28,2.82,2.82,0,0,1,2.29-1.13,2.71,2.71,0,0,1,2.2,1.11,5.05,5.05,0,0,1,.88,3.21V278H86.15a3.55,3.55,0,0,0,.65,2.11,1.72,1.72,0,0,0,1.4.71C89.07,280.8,89.67,280.24,90,279.1Zm-3.79-2.27H90a3.17,3.17,0,0,0-.47-1.61,1.68,1.68,0,0,0-2.73-.13A2.82,2.82,0,0,0,86.22,276.83Z"/><path class="cls-4" d="M92.66,281.77v-8.29h1v1.15a2.5,2.5,0,0,1,.88-1,2.14,2.14,0,0,1,1.17-.35,1.87,1.87,0,0,1,1.92,1.44,3.27,3.27,0,0,1,.94-1.08,2,2,0,0,1,1.17-.36,1.93,1.93,0,0,1,1.55.66,3.31,3.31,0,0,1,.56,2.13v5.69h-1.15v-5.23a4.16,4.16,0,0,0-.13-1.26,1.09,1.09,0,0,0-.42-.58,1.14,1.14,0,0,0-.65-.2,1.51,1.51,0,0,0-1.22.59,3,3,0,0,0-.47,1.86v4.82H96.7v-5.39a2.53,2.53,0,0,0-.31-1.46,1,1,0,0,0-.87-.42,1.44,1.44,0,0,0-1.25.64,4.16,4.16,0,0,0-.46,2.32v4.31Z"/><path class="cls-4" d="M108.23,279.1l1.19.18a3.64,3.64,0,0,1-1.07,2,2.84,2.84,0,0,1-1.93.67,2.89,2.89,0,0,1-2.34-1.1,4.92,4.92,0,0,1-.89-3.16,5.15,5.15,0,0,1,.9-3.28,2.81,2.81,0,0,1,2.29-1.13,2.72,2.72,0,0,1,2.2,1.11,5.05,5.05,0,0,1,.88,3.21V278h-5.07a3.55,3.55,0,0,0,.64,2.11,1.75,1.75,0,0,0,1.41.71C107.29,280.8,107.9,280.24,108.23,279.1Zm-3.78-2.27h3.79a3.08,3.08,0,0,0-.46-1.61,1.68,1.68,0,0,0-2.73-.13A2.76,2.76,0,0,0,104.45,276.83Z"/><path class="cls-4" d="M110.88,281.77v-8.29h1v1.17a2.63,2.63,0,0,1,.92-1,2.24,2.24,0,0,1,1.24-.34,2.4,2.4,0,0,1,1,.21,2.08,2.08,0,0,1,.75.57,2.36,2.36,0,0,1,.43.9,7.77,7.77,0,0,1,.14,1.7v5.1h-1.15v-5a4,4,0,0,0-.16-1.34,1.3,1.3,0,0,0-.49-.65,1.32,1.32,0,0,0-.77-.23,1.61,1.61,0,0,0-1.32.62,3.53,3.53,0,0,0-.49,2.12v4.53Z"/><path class="cls-4" d="M120.74,280.52l.16,1.24a3.61,3.61,0,0,1-.86.12,1.76,1.76,0,0,1-1-.24,1.17,1.17,0,0,1-.5-.65,6.29,6.29,0,0,1-.14-1.65v-4.77h-.84v-1.09h.84v-2.06l1.15-.84v2.9h1.16v1.09h-1.16v4.85a2.26,2.26,0,0,0,.1.87.56.56,0,0,0,.55.28A3.92,3.92,0,0,0,120.74,280.52Z"/><path class="cls-4" d="M21.54,299.72,21.7,301a3.61,3.61,0,0,1-.86.12,1.72,1.72,0,0,1-1-.24,1.14,1.14,0,0,1-.51-.65,6.43,6.43,0,0,1-.13-1.65v-4.77h-.85v-1.09h.85v-2.06l1.15-.84v2.9h1.16v1.09H20.38v4.85a2.26,2.26,0,0,0,.1.87.56.56,0,0,0,.55.28A3.92,3.92,0,0,0,21.54,299.72Z"/><path class="cls-4" d="M22.19,296.83a5,5,0,0,1,.9-3.25,2.93,2.93,0,0,1,4.56,0,4.8,4.8,0,0,1,.91,3.16,5.17,5.17,0,0,1-.9,3.33,2.92,2.92,0,0,1-4.56,0A4.94,4.94,0,0,1,22.19,296.83Zm1.18,0a4,4,0,0,0,.58,2.4,1.77,1.77,0,0,0,1.46.78,1.69,1.69,0,0,0,1.39-.79,5.21,5.21,0,0,0,0-4.78,1.77,1.77,0,0,0-1.46-.78,1.67,1.67,0,0,0-1.39.79A4,4,0,0,0,23.37,296.82Z"/><path class="cls-4" d="M33.57,291.14v-1.62h1.15v1.62Zm0,9.83v-8.29h1.15V301Z"/><path class="cls-4" d="M39.05,299.72,39.2,301a3.48,3.48,0,0,1-.86.12,1.71,1.71,0,0,1-1-.24,1.14,1.14,0,0,1-.51-.65,6.29,6.29,0,0,1-.14-1.65v-4.77h-.84v-1.09h.84v-2.06l1.15-.84v2.9h1.17v1.09H37.88v4.85a2.49,2.49,0,0,0,.1.87.57.57,0,0,0,.56.28A3.92,3.92,0,0,0,39.05,299.72Z"/><path class="cls-4" d="M39.69,298.49l1.15-.22a2,2,0,0,0,.55,1.31,1.69,1.69,0,0,0,1.2.42,1.67,1.67,0,0,0,1.16-.37,1.21,1.21,0,0,0,.41-.94.89.89,0,0,0-.36-.76,4.27,4.27,0,0,0-1.17-.47,8.23,8.23,0,0,1-1.79-.71,2,2,0,0,1-.71-.77,2.44,2.44,0,0,1-.25-1.1,2.34,2.34,0,0,1,.68-1.73,2.61,2.61,0,0,1,1.89-.66,3.13,3.13,0,0,1,1.33.27,2.22,2.22,0,0,1,.88.74,3.2,3.2,0,0,1,.42,1.32L44,295a1.34,1.34,0,0,0-1.47-1.35,1.74,1.74,0,0,0-1.12.3.91.91,0,0,0-.37.76.85.85,0,0,0,.35.72,5.54,5.54,0,0,0,1.26.5,9.9,9.9,0,0,1,1.85.73,1.77,1.77,0,0,1,.65.73,2.39,2.39,0,0,1,.24,1.11,2.61,2.61,0,0,1-.76,1.93,2.82,2.82,0,0,1-2.06.73C40.89,301.16,40,300.27,39.69,298.49Z"/><path class="cls-4" d="M50.34,304.15V292.68h1.07v1.07a2.73,2.73,0,0,1,.86-1,2,2,0,0,1,1.09-.3,2.36,2.36,0,0,1,1.45.48,3.22,3.22,0,0,1,1,1.45,6.21,6.21,0,0,1,.39,2.33,5.26,5.26,0,0,1-.89,3.27,2.58,2.58,0,0,1-2.08,1.14,1.94,1.94,0,0,1-1-.27,2.47,2.47,0,0,1-.8-.78v4Zm1-7.28a4.11,4.11,0,0,0,.54,2.37,1.56,1.56,0,0,0,1.3.76,1.58,1.58,0,0,0,1.29-.78,5.67,5.67,0,0,0,0-4.85,1.42,1.42,0,0,0-2.57.06A4.33,4.33,0,0,0,51.39,296.87Z"/><path class="cls-4" d="M62.07,300a4.64,4.64,0,0,1-1.2.91,3,3,0,0,1-1.3.3,2.25,2.25,0,0,1-1.69-.64,2.32,2.32,0,0,1-.64-1.73,2.62,2.62,0,0,1,.3-1.27,2.27,2.27,0,0,1,.81-.87,4.54,4.54,0,0,1,1.56-.46A9,9,0,0,0,62,295.7v-.36a1.81,1.81,0,0,0-.3-1.19,1.63,1.63,0,0,0-1.32-.5,1.83,1.83,0,0,0-1.2.33,2.18,2.18,0,0,0-.59,1.25L57.44,295a3.12,3.12,0,0,1,1-1.94,3.2,3.2,0,0,1,2.11-.61,3,3,0,0,1,1.68.4,1.73,1.73,0,0,1,.77,1,6.87,6.87,0,0,1,.16,1.73v1.88c0,1.31,0,2.14.07,2.48a3.53,3.53,0,0,0,.3,1H62.3A3.49,3.49,0,0,1,62.07,300ZM62,296.81a7.1,7.1,0,0,1-1.89.53,3.28,3.28,0,0,0-1,.29,1.08,1.08,0,0,0-.45.45,1.33,1.33,0,0,0-.16.67,1.23,1.23,0,0,0,.37.95,1.37,1.37,0,0,0,1,.36,2.06,2.06,0,0,0,1.12-.32,2,2,0,0,0,.76-.86,3.86,3.86,0,0,0,.25-1.55Z"/><path class="cls-4" d="M64.94,301v-8.29h1v1.25a3.5,3.5,0,0,1,.73-1.16,1.1,1.1,0,0,1,.74-.28,2,2,0,0,1,1.18.45l-.39,1.31a1.38,1.38,0,0,0-.83-.31,1.05,1.05,0,0,0-.68.26,1.44,1.44,0,0,0-.43.72,6.79,6.79,0,0,0-.21,1.71V301Z"/><path class="cls-4" d="M74,298.3l1.19.18a3.67,3.67,0,0,1-1.07,2,2.84,2.84,0,0,1-1.93.67,2.89,2.89,0,0,1-2.34-1.1,4.86,4.86,0,0,1-.89-3.16,5.15,5.15,0,0,1,.9-3.28,2.8,2.8,0,0,1,2.28-1.13,2.72,2.72,0,0,1,2.21,1.11,5.05,5.05,0,0,1,.88,3.21v.37H70.09a3.62,3.62,0,0,0,.65,2.11,1.75,1.75,0,0,0,1.41.71C73,300,73.61,299.44,74,298.3ZM70.16,296H74a3.18,3.18,0,0,0-.46-1.61,1.68,1.68,0,0,0-2.73-.13A2.82,2.82,0,0,0,70.16,296Z"/><path class="cls-4" d="M76.6,301v-8.29h1v1.17a2.63,2.63,0,0,1,.92-1,2.24,2.24,0,0,1,1.24-.34,2.4,2.4,0,0,1,1,.21A2,2,0,0,1,82,294.17a7.19,7.19,0,0,1,.14,1.7V301H81v-5.05a4.32,4.32,0,0,0-.16-1.34,1.3,1.3,0,0,0-.49-.65,1.34,1.34,0,0,0-.77-.23,1.61,1.61,0,0,0-1.32.62,3.46,3.46,0,0,0-.49,2.12V301Z"/><path class="cls-4" d="M86.46,299.72l.16,1.24a3.61,3.61,0,0,1-.86.12,1.74,1.74,0,0,1-1-.24,1.13,1.13,0,0,1-.5-.65,5.86,5.86,0,0,1-.14-1.65v-4.77H83.3v-1.09h.85v-2.06l1.15-.84v2.9h1.16v1.09H85.3v4.85a2.26,2.26,0,0,0,.1.87.56.56,0,0,0,.55.28A3.92,3.92,0,0,0,86.46,299.72Z"/><path class="cls-4" d="M87.46,291.16v-1.64H88.7v1.29a4,4,0,0,1-.26,1.64,1.86,1.86,0,0,1-.8.82l-.28-.55c.45-.23.69-.75.71-1.56Z"/><path class="cls-4" d="M89.81,298.49l1.15-.22a2,2,0,0,0,.55,1.31,1.69,1.69,0,0,0,1.2.42,1.67,1.67,0,0,0,1.16-.37,1.21,1.21,0,0,0,.41-.94.89.89,0,0,0-.36-.76,4.27,4.27,0,0,0-1.17-.47,8.23,8.23,0,0,1-1.79-.71,2,2,0,0,1-.71-.77,2.44,2.44,0,0,1-.25-1.1,2.34,2.34,0,0,1,.68-1.73,2.61,2.61,0,0,1,1.89-.66,3.13,3.13,0,0,1,1.33.27,2.22,2.22,0,0,1,.88.74,3.2,3.2,0,0,1,.42,1.32l-1.13.18a1.34,1.34,0,0,0-1.47-1.35,1.74,1.74,0,0,0-1.12.3.91.91,0,0,0-.37.76.85.85,0,0,0,.35.72,5.54,5.54,0,0,0,1.26.5,9.9,9.9,0,0,1,1.85.73,1.77,1.77,0,0,1,.65.73,2.39,2.39,0,0,1,.24,1.11,2.58,2.58,0,0,1-.76,1.93,2.82,2.82,0,0,1-2.06.73C91,301.16,90.07,300.27,89.81,298.49Z"/><path class="cls-4" d="M104.89,300a4.33,4.33,0,0,1-1.2.91,3,3,0,0,1-1.3.3,2.26,2.26,0,0,1-1.69-.64,2.36,2.36,0,0,1-.63-1.73,2.62,2.62,0,0,1,.29-1.27,2.27,2.27,0,0,1,.81-.87,4.54,4.54,0,0,1,1.57-.46,9,9,0,0,0,2.06-.49v-.36a1.75,1.75,0,0,0-.31-1.19,1.61,1.61,0,0,0-1.32-.5,1.87,1.87,0,0,0-1.2.33,2.18,2.18,0,0,0-.59,1.25l-1.13-.19a3.12,3.12,0,0,1,1-1.94,3.22,3.22,0,0,1,2.11-.61,3,3,0,0,1,1.68.4,1.69,1.69,0,0,1,.77,1,6.87,6.87,0,0,1,.16,1.73v1.88A23.12,23.12,0,0,0,106,300a3.87,3.87,0,0,0,.29,1h-1.2A3.48,3.48,0,0,1,104.89,300Zm-.09-3.14a7,7,0,0,1-1.88.53,3.27,3.27,0,0,0-1,.29,1.08,1.08,0,0,0-.45.45,1.44,1.44,0,0,0-.16.67,1.23,1.23,0,0,0,.37.95,1.37,1.37,0,0,0,1,.36,2.1,2.1,0,0,0,1.13-.32,2,2,0,0,0,.75-.86,3.7,3.7,0,0,0,.25-1.55Z"/><path class="cls-4" d="M110.32,299.72l.16,1.24a3.54,3.54,0,0,1-.86.12,1.76,1.76,0,0,1-1-.24,1.17,1.17,0,0,1-.5-.65,6.29,6.29,0,0,1-.14-1.65v-4.77h-.84v-1.09H108v-2.06l1.15-.84v2.9h1.16v1.09h-1.16v4.85a2.26,2.26,0,0,0,.1.87.57.57,0,0,0,.56.28A3.64,3.64,0,0,0,110.32,299.72Z"/><path class="cls-4" d="M114,299.72l.16,1.24a3.61,3.61,0,0,1-.86.12,1.74,1.74,0,0,1-1-.24,1.13,1.13,0,0,1-.5-.65,6.29,6.29,0,0,1-.14-1.65v-4.77h-.84v-1.09h.84v-2.06l1.15-.84v2.9H114v1.09h-1.16v4.85a2.26,2.26,0,0,0,.1.87.56.56,0,0,0,.55.28A3.92,3.92,0,0,0,114,299.72Z"/><path class="cls-4" d="M115.06,301v-8.29h1v1.25a3.5,3.5,0,0,1,.73-1.16,1.1,1.1,0,0,1,.74-.28,2,2,0,0,1,1.18.45l-.39,1.31a1.38,1.38,0,0,0-.83-.31,1.05,1.05,0,0,0-.68.26,1.44,1.44,0,0,0-.43.72,6.79,6.79,0,0,0-.21,1.71V301Z"/><path class="cls-4" d="M119.42,291.14v-1.62h1.15v1.62Zm0,9.83v-8.29h1.15V301Z"/><path class="cls-4" d="M123.39,301h-1.07V289.52h1.16v4.09a2.47,2.47,0,0,1,.83-.84,2,2,0,0,1,1-.28,2.4,2.4,0,0,1,1.45.48,3.22,3.22,0,0,1,1,1.44,6.32,6.32,0,0,1,.39,2.35,5.25,5.25,0,0,1-.89,3.26,2.55,2.55,0,0,1-2.06,1.14,1.89,1.89,0,0,1-1.07-.31,2.57,2.57,0,0,1-.82-.92Zm0-4.21a5.86,5.86,0,0,0,.23,1.93,2.11,2.11,0,0,0,.67,1,1.5,1.5,0,0,0,1,.33,1.54,1.54,0,0,0,1.27-.8,4.2,4.2,0,0,0,.55-2.39,4.31,4.31,0,0,0-.53-2.4,1.56,1.56,0,0,0-1.31-.76,1.54,1.54,0,0,0-1.27.8A3.94,3.94,0,0,0,123.38,296.76Z"/><path class="cls-4" d="M134.09,301v-1.22a3,3,0,0,1-.94,1.06,2.35,2.35,0,0,1-2.59-.08,2,2,0,0,1-.76-1.1,6.65,6.65,0,0,1-.2-1.81v-5.14h1.15v4.6a7.58,7.58,0,0,0,.13,1.71,1.38,1.38,0,0,0,.48.7,1.29,1.29,0,0,0,.79.26,1.66,1.66,0,0,0,1.36-.68,3.71,3.71,0,0,0,.45-2.15v-4.44h1.16V301Z"/><path class="cls-4" d="M139.5,299.72l.15,1.24a3.54,3.54,0,0,1-.86.12,1.76,1.76,0,0,1-1-.24,1.17,1.17,0,0,1-.5-.65,6.29,6.29,0,0,1-.14-1.65v-4.77h-.84v-1.09h.84v-2.06l1.15-.84v2.9h1.17v1.09h-1.17v4.85a2.49,2.49,0,0,0,.1.87.57.57,0,0,0,.56.28A3.92,3.92,0,0,0,139.5,299.72Z"/><path class="cls-4" d="M145.23,298.3l1.19.18a3.61,3.61,0,0,1-1.08,2,2.83,2.83,0,0,1-1.92.67,2.86,2.86,0,0,1-2.34-1.1,4.86,4.86,0,0,1-.9-3.16,5.15,5.15,0,0,1,.9-3.28,2.84,2.84,0,0,1,2.29-1.13,2.71,2.71,0,0,1,2.2,1.11,5.05,5.05,0,0,1,.89,3.21v.37h-5.08a3.55,3.55,0,0,0,.65,2.11,1.72,1.72,0,0,0,1.4.71C144.29,300,144.89,299.44,145.23,298.3ZM141.44,296h3.8a3.18,3.18,0,0,0-.46-1.61,1.66,1.66,0,0,0-1.42-.77,1.68,1.68,0,0,0-1.32.64A2.88,2.88,0,0,0,141.44,296Z"/><path class="cls-4" d="M147.43,298.49l1.15-.22a2.09,2.09,0,0,0,.55,1.31,1.72,1.72,0,0,0,1.2.42,1.65,1.65,0,0,0,1.16-.37,1.21,1.21,0,0,0,.41-.94.91.91,0,0,0-.35-.76,4.27,4.27,0,0,0-1.17-.47,8.15,8.15,0,0,1-1.8-.71,1.93,1.93,0,0,1-.7-.77,2.54,2.54,0,0,1,.43-2.83,2.58,2.58,0,0,1,1.88-.66,3.07,3.07,0,0,1,1.33.27,2.09,2.09,0,0,1,.88.74,3.06,3.06,0,0,1,.42,1.32l-1.12.18a1.35,1.35,0,0,0-1.48-1.35,1.76,1.76,0,0,0-1.12.3.93.93,0,0,0-.36.76.82.82,0,0,0,.35.72,5.38,5.38,0,0,0,1.25.5,9.6,9.6,0,0,1,1.85.73,1.87,1.87,0,0,1,.66.73,2.53,2.53,0,0,1,.23,1.11,2.61,2.61,0,0,1-.75,1.93,2.84,2.84,0,0,1-2.06.73C148.64,301.16,147.69,300.27,147.43,298.49Z"/><path class="cls-4" d="M154.78,301v-1.6h1.31V301a3.25,3.25,0,0,1-.27,1.46,2,2,0,0,1-.8.81l-.32-.6a1.25,1.25,0,0,0,.53-.56,2.81,2.81,0,0,0,.19-1.11Z"/><path class="cls-4" d="M378.62,282.46l1.13.2a1.46,1.46,0,0,0,.47,1,1.62,1.62,0,0,0,1.08.32,1.88,1.88,0,0,0,1.21-.36,1.8,1.8,0,0,0,.61-1.08,9.8,9.8,0,0,0,.11-1.84,2.67,2.67,0,0,1-.85.8,2,2,0,0,1-1,.27,2.46,2.46,0,0,1-2-1,5.07,5.07,0,0,1-.92-3.18,6.15,6.15,0,0,1,.4-2.33,3.27,3.27,0,0,1,1.07-1.47,2.51,2.51,0,0,1,1.48-.47,2.18,2.18,0,0,1,1.1.29,2.87,2.87,0,0,1,.88.89v-1h1.06v7.17a8.43,8.43,0,0,1-.31,2.73,2.67,2.67,0,0,1-1,1.29,3,3,0,0,1-1.71.47,2.77,2.77,0,0,1-2-.71A2.62,2.62,0,0,1,378.62,282.46Zm1-5a4.18,4.18,0,0,0,.54,2.39,1.59,1.59,0,0,0,1.32.75,1.62,1.62,0,0,0,1.33-.74,3.92,3.92,0,0,0,.55-2.34,4,4,0,0,0-.56-2.33,1.67,1.67,0,0,0-1.37-.76,1.56,1.56,0,0,0-1.27.76A3.92,3.92,0,0,0,379.58,277.48Z"/><path class="cls-4" d="M390.8,279.1l1.18.18a3.58,3.58,0,0,1-1.07,2A2.84,2.84,0,0,1,389,282a2.89,2.89,0,0,1-2.34-1.1,4.92,4.92,0,0,1-.89-3.16,5.15,5.15,0,0,1,.9-3.28,2.82,2.82,0,0,1,2.29-1.13,2.71,2.71,0,0,1,2.2,1.11,5.05,5.05,0,0,1,.88,3.21V278h-5.08a3.48,3.48,0,0,0,.65,2.11,1.72,1.72,0,0,0,1.4.71C389.86,280.8,390.46,280.24,390.8,279.1ZM387,276.83h3.79a3.08,3.08,0,0,0-.46-1.61,1.68,1.68,0,0,0-2.73-.13A2.82,2.82,0,0,0,387,276.83Z"/><path class="cls-4" d="M393.45,281.77v-8.29h1v1.17a2.63,2.63,0,0,1,.92-1,2.27,2.27,0,0,1,1.24-.34,2.37,2.37,0,0,1,1,.21,2.08,2.08,0,0,1,.75.57,2.36,2.36,0,0,1,.43.9,7.77,7.77,0,0,1,.14,1.7v5.1h-1.15v-5a4,4,0,0,0-.16-1.34,1.28,1.28,0,0,0-.48-.65,1.37,1.37,0,0,0-.77-.23,1.59,1.59,0,0,0-1.32.62,3.45,3.45,0,0,0-.5,2.12v4.53Z"/><path class="cls-4" d="M405.39,279.1l1.19.18a3.65,3.65,0,0,1-1.08,2,2.81,2.81,0,0,1-1.92.67,2.86,2.86,0,0,1-2.34-1.1,4.86,4.86,0,0,1-.9-3.16,5.09,5.09,0,0,1,.91-3.28,2.8,2.8,0,0,1,2.28-1.13,2.69,2.69,0,0,1,2.2,1.11,5.05,5.05,0,0,1,.89,3.21V278h-5.08a3.55,3.55,0,0,0,.65,2.11,1.74,1.74,0,0,0,1.41.71C404.45,280.8,405.05,280.24,405.39,279.1Zm-3.79-2.27h3.8a3.18,3.18,0,0,0-.46-1.61,1.66,1.66,0,0,0-1.42-.77,1.68,1.68,0,0,0-1.32.64A2.88,2.88,0,0,0,401.6,276.83Z"/><path class="cls-4" d="M407.59,279.29l1.15-.22a2,2,0,0,0,.56,1.31,1.69,1.69,0,0,0,1.2.42,1.64,1.64,0,0,0,1.15-.37,1.18,1.18,0,0,0,.41-.94.88.88,0,0,0-.35-.76,4.27,4.27,0,0,0-1.17-.47,8.15,8.15,0,0,1-1.8-.71,2,2,0,0,1-.7-.77,2.54,2.54,0,0,1,.43-2.83,2.58,2.58,0,0,1,1.88-.66,3.07,3.07,0,0,1,1.33.27,2.09,2.09,0,0,1,.88.74,2.93,2.93,0,0,1,.42,1.32l-1.12.18a1.35,1.35,0,0,0-1.48-1.35,1.65,1.65,0,0,0-1.11.3.91.91,0,0,0-.37.76.85.85,0,0,0,.35.72,5.91,5.91,0,0,0,1.25.5,9.6,9.6,0,0,1,1.85.73,1.87,1.87,0,0,1,.66.73,2.53,2.53,0,0,1,.23,1.11,2.61,2.61,0,0,1-.75,1.93,2.82,2.82,0,0,1-2.06.73C408.8,282,407.85,281.07,407.59,279.29Z"/><path class="cls-4" d="M414.94,281.77v-1.6h1.31v1.6a3.25,3.25,0,0,1-.27,1.46,2,2,0,0,1-.8.81l-.32-.6a1.25,1.25,0,0,0,.53-.56,2.78,2.78,0,0,0,.2-1.11Z"/><path class="cls-4" d="M421.9,271.94v-1.62h1.15v1.62Zm0,9.83v-8.29h1.15v8.29Z"/><path class="cls-4" d="M429.22,281.77v-1a2.33,2.33,0,0,1-.81.91,1.84,1.84,0,0,1-1.06.32,2.58,2.58,0,0,1-2.08-1.14,5.08,5.08,0,0,1-.88-3.2,6.47,6.47,0,0,1,.39-2.39,3.18,3.18,0,0,1,1-1.46,2.4,2.4,0,0,1,1.45-.48,2,2,0,0,1,1.06.3,2.39,2.39,0,0,1,.8.84v-4.11h1.17v11.45Zm-3.65-4.14a4.13,4.13,0,0,0,.56,2.39,1.6,1.6,0,0,0,1.3.78,1.56,1.56,0,0,0,1.28-.75,4,4,0,0,0,.53-2.26,4.74,4.74,0,0,0-.53-2.54,1.59,1.59,0,0,0-1.37-.8,1.5,1.5,0,0,0-1.25.76A4.48,4.48,0,0,0,425.57,277.63Z"/><path class="cls-4" d="M436.76,279.1l1.19.18a3.65,3.65,0,0,1-1.08,2A2.83,2.83,0,0,1,435,282a2.86,2.86,0,0,1-2.34-1.1,4.86,4.86,0,0,1-.9-3.16,5.15,5.15,0,0,1,.9-3.28,2.82,2.82,0,0,1,2.29-1.13,2.71,2.71,0,0,1,2.2,1.11,5.05,5.05,0,0,1,.88,3.21V278H432.9a3.55,3.55,0,0,0,.65,2.11,1.72,1.72,0,0,0,1.4.71C435.82,280.8,436.42,280.24,436.76,279.1ZM433,276.83h3.8a3.17,3.17,0,0,0-.47-1.61,1.68,1.68,0,0,0-2.73-.13A2.82,2.82,0,0,0,433,276.83Z"/><path class="cls-4" d="M439,277.62a5,5,0,0,1,.9-3.24,2.93,2.93,0,0,1,4.56,0,4.8,4.8,0,0,1,.91,3.16,5.23,5.23,0,0,1-.89,3.33,2.93,2.93,0,0,1-4.57,0A5,5,0,0,1,439,277.62Zm1.18,0a4,4,0,0,0,.58,2.4,1.77,1.77,0,0,0,1.46.78,1.69,1.69,0,0,0,1.39-.79,5.21,5.21,0,0,0,0-4.78,1.77,1.77,0,0,0-1.46-.78,1.67,1.67,0,0,0-1.39.79A4,4,0,0,0,440.15,277.62Z"/><path class="cls-4" d="M446.66,281.77V270.32h1.15v11.45Z"/><path class="cls-4" d="M449.18,277.62a5,5,0,0,1,.9-3.24,2.93,2.93,0,0,1,4.56,0,4.8,4.8,0,0,1,.91,3.16,5.23,5.23,0,0,1-.89,3.33,2.93,2.93,0,0,1-4.57,0A5,5,0,0,1,449.18,277.62Zm1.18,0A4,4,0,0,0,451,280a1.75,1.75,0,0,0,1.45.78,1.67,1.67,0,0,0,1.39-.79,5.14,5.14,0,0,0,0-4.78,1.76,1.76,0,0,0-1.45-.78,1.68,1.68,0,0,0-1.4.79A4,4,0,0,0,450.36,277.62Z"/><path class="cls-4" d="M456.69,282.46l1.12.2a1.46,1.46,0,0,0,.47,1,1.63,1.63,0,0,0,1.09.32,1.69,1.69,0,0,0,1.82-1.44,11.18,11.18,0,0,0,.1-1.84,2.75,2.75,0,0,1-.84.8,2.07,2.07,0,0,1-1,.27,2.47,2.47,0,0,1-2-1,5.07,5.07,0,0,1-.92-3.18,6.14,6.14,0,0,1,.41-2.33,3.19,3.19,0,0,1,1.06-1.47,2.53,2.53,0,0,1,1.48-.47,2.15,2.15,0,0,1,1.1.29,2.77,2.77,0,0,1,.88.89v-1h1.06v7.17a8.43,8.43,0,0,1-.31,2.73,2.71,2.71,0,0,1-1,1.29,3.09,3.09,0,0,1-1.71.47,2.76,2.76,0,0,1-2-.71A2.55,2.55,0,0,1,456.69,282.46Zm.95-5a4.18,4.18,0,0,0,.54,2.39,1.59,1.59,0,0,0,1.32.75,1.6,1.6,0,0,0,1.33-.74,5.19,5.19,0,0,0,0-4.67,1.66,1.66,0,0,0-1.37-.76,1.56,1.56,0,0,0-1.27.76A3.92,3.92,0,0,0,457.64,277.48Z"/><path class="cls-4" d="M464.17,285l-.12-1.32a2.2,2.2,0,0,0,.65.12,1.13,1.13,0,0,0,.61-.15,1.08,1.08,0,0,0,.4-.46c0-.07.18-.53.45-1.37l-2.59-8.31h1.24l1.42,4.8c.18.6.35,1.24.5,1.92a18.64,18.64,0,0,1,.47-1.89l1.45-4.83h1.15l-2.58,8.43a14.66,14.66,0,0,1-.8,2.2,2.14,2.14,0,0,1-.66.79,1.53,1.53,0,0,1-.84.24A2.1,2.1,0,0,1,464.17,285Z"/><path class="cls-4" d="M470.17,281.77v-1.6h1.31v1.6a3.11,3.11,0,0,1-.28,1.46,1.87,1.87,0,0,1-.79.81l-.32-.6a1.25,1.25,0,0,0,.53-.56,2.81,2.81,0,0,0,.19-1.11Z"/><path class="cls-4" d="M477.13,281.77V270.32h1.14v4.11a2.86,2.86,0,0,1,.92-.86,2.28,2.28,0,0,1,1.13-.28A2.22,2.22,0,0,1,482,274a3.84,3.84,0,0,1,.63,2.54v5.25h-1.15v-5.25a2.43,2.43,0,0,0-.39-1.55,1.28,1.28,0,0,0-1.05-.47,1.64,1.64,0,0,0-1.28.6,3.28,3.28,0,0,0-.53,2.13v4.54Z"/><path class="cls-4" d="M488.85,280.75a4.33,4.33,0,0,1-1.2.91,3,3,0,0,1-1.3.3,2.25,2.25,0,0,1-1.69-.64,2.36,2.36,0,0,1-.64-1.73,2.62,2.62,0,0,1,.3-1.27,2.27,2.27,0,0,1,.81-.87,4.54,4.54,0,0,1,1.57-.46,9,9,0,0,0,2.06-.49v-.36a1.73,1.73,0,0,0-.31-1.19,1.61,1.61,0,0,0-1.32-.5,1.85,1.85,0,0,0-1.2.33,2.18,2.18,0,0,0-.59,1.25l-1.13-.19a3.12,3.12,0,0,1,1-1.94,3.22,3.22,0,0,1,2.11-.61,3,3,0,0,1,1.68.4,1.69,1.69,0,0,1,.77,1,6.87,6.87,0,0,1,.16,1.73v1.88a23.12,23.12,0,0,0,.08,2.48,3.51,3.51,0,0,0,.29,1h-1.2A3.48,3.48,0,0,1,488.85,280.75Zm-.09-3.14a7,7,0,0,1-1.88.53,3.27,3.27,0,0,0-1,.29,1.08,1.08,0,0,0-.45.45,1.33,1.33,0,0,0-.16.67,1.23,1.23,0,0,0,.37.95,1.37,1.37,0,0,0,1,.36,2.06,2.06,0,0,0,1.12-.32,2,2,0,0,0,.76-.86,3.72,3.72,0,0,0,.25-1.56Z"/><path class="cls-4" d="M492.77,281.77H491.7V270.32h1.16v4.09a2.56,2.56,0,0,1,.83-.84,2,2,0,0,1,1-.28,2.4,2.4,0,0,1,1.45.48,3.22,3.22,0,0,1,1,1.44,6.32,6.32,0,0,1,.39,2.35,5.25,5.25,0,0,1-.88,3.26,2.58,2.58,0,0,1-2.07,1.14,1.89,1.89,0,0,1-1.07-.31,2.57,2.57,0,0,1-.82-.92Zm0-4.21a5.86,5.86,0,0,0,.23,1.93,2.11,2.11,0,0,0,.67,1,1.52,1.52,0,0,0,.95.33,1.54,1.54,0,0,0,1.27-.8,4.2,4.2,0,0,0,.55-2.39,4.31,4.31,0,0,0-.53-2.4,1.56,1.56,0,0,0-1.31-.76,1.54,1.54,0,0,0-1.27.8A3.94,3.94,0,0,0,492.76,277.56Z"/><path class="cls-4" d="M499,271.94v-1.62h1.15v1.62Zm0,9.83v-8.29h1.15v8.29Z"/><path class="cls-4" d="M504.49,280.52l.16,1.24a3.61,3.61,0,0,1-.86.12,1.76,1.76,0,0,1-1-.24,1.17,1.17,0,0,1-.5-.65,6.29,6.29,0,0,1-.14-1.65v-4.77h-.84v-1.09h.84v-2.06l1.15-.84v2.9h1.16v1.09h-1.16v4.85a2.26,2.26,0,0,0,.1.87.57.57,0,0,0,.56.28A3.64,3.64,0,0,0,504.49,280.52Z"/><path class="cls-4" d="M505.13,279.29l1.15-.22a2,2,0,0,0,.56,1.31,1.69,1.69,0,0,0,1.2.42,1.64,1.64,0,0,0,1.15-.37,1.18,1.18,0,0,0,.41-.94.88.88,0,0,0-.35-.76,4.27,4.27,0,0,0-1.17-.47,8.15,8.15,0,0,1-1.8-.71,2,2,0,0,1-.7-.77A2.54,2.54,0,0,1,506,274a2.58,2.58,0,0,1,1.88-.66,3.07,3.07,0,0,1,1.33.27,2.09,2.09,0,0,1,.88.74,2.93,2.93,0,0,1,.42,1.32l-1.12.18a1.35,1.35,0,0,0-1.48-1.35,1.65,1.65,0,0,0-1.11.3.91.91,0,0,0-.37.76.85.85,0,0,0,.35.72,5.91,5.91,0,0,0,1.25.5,9.6,9.6,0,0,1,1.85.73,1.87,1.87,0,0,1,.66.73,2.53,2.53,0,0,1,.23,1.11,2.61,2.61,0,0,1-.75,1.93A2.82,2.82,0,0,1,508,282C506.34,282,505.39,281.07,505.13,279.29Z"/><path class="cls-4" d="M383.28,300a4.33,4.33,0,0,1-1.2.91,3,3,0,0,1-1.3.3,2.25,2.25,0,0,1-1.69-.64,2.32,2.32,0,0,1-.64-1.73,2.62,2.62,0,0,1,.3-1.27,2.27,2.27,0,0,1,.81-.87,4.54,4.54,0,0,1,1.56-.46,9,9,0,0,0,2.07-.49v-.36a1.81,1.81,0,0,0-.31-1.19,1.63,1.63,0,0,0-1.32-.5,1.83,1.83,0,0,0-1.2.33,2.18,2.18,0,0,0-.59,1.25l-1.13-.19a3.12,3.12,0,0,1,1-1.94,3.22,3.22,0,0,1,2.11-.61,3,3,0,0,1,1.68.4,1.73,1.73,0,0,1,.77,1,6.87,6.87,0,0,1,.16,1.73v1.88a23.12,23.12,0,0,0,.08,2.48,3.51,3.51,0,0,0,.29,1h-1.2A3.48,3.48,0,0,1,383.28,300Zm-.09-3.14a7,7,0,0,1-1.89.53,3.28,3.28,0,0,0-1,.29,1.08,1.08,0,0,0-.45.45,1.33,1.33,0,0,0-.16.67,1.23,1.23,0,0,0,.37.95,1.37,1.37,0,0,0,1,.36,2.06,2.06,0,0,0,1.12-.32,2,2,0,0,0,.76-.86,3.86,3.86,0,0,0,.25-1.55Z"/><path class="cls-4" d="M386.15,301v-8.29h1v1.17a2.61,2.61,0,0,1,.91-1,2.28,2.28,0,0,1,1.25-.34,2.44,2.44,0,0,1,1,.21,2,2,0,0,1,1.17,1.47,7.77,7.77,0,0,1,.14,1.7V301h-1.15v-5.05a4.39,4.39,0,0,0-.15-1.34,1.36,1.36,0,0,0-.49-.65,1.34,1.34,0,0,0-.77-.23,1.61,1.61,0,0,0-1.32.62,3.46,3.46,0,0,0-.49,2.12V301Z"/><path class="cls-4" d="M397.85,301v-1a2.31,2.31,0,0,1-.8.91,1.89,1.89,0,0,1-1.07.32A2.58,2.58,0,0,1,393.9,300a5.13,5.13,0,0,1-.88-3.19,6.48,6.48,0,0,1,.39-2.4,3.13,3.13,0,0,1,1-1.46,2.35,2.35,0,0,1,1.44-.48,2,2,0,0,1,1.06.3,2.51,2.51,0,0,1,.81.84v-4.11h1.16V301Zm-3.65-4.14a4.13,4.13,0,0,0,.56,2.39,1.6,1.6,0,0,0,1.3.78,1.56,1.56,0,0,0,1.28-.75,3.86,3.86,0,0,0,.54-2.26,4.63,4.63,0,0,0-.54-2.54,1.59,1.59,0,0,0-1.36-.8,1.48,1.48,0,0,0-1.25.77A4.32,4.32,0,0,0,394.2,296.83Z"/><path class="cls-4" d="M404.39,301v-8.29h1v1.25a3.67,3.67,0,0,1,.73-1.16,1.11,1.11,0,0,1,.75-.28,2,2,0,0,1,1.18.45l-.39,1.31a1.43,1.43,0,0,0-.84-.31,1,1,0,0,0-.67.26,1.31,1.31,0,0,0-.43.72,6.36,6.36,0,0,0-.22,1.71V301Z"/><path class="cls-4" d="M413.41,298.3l1.18.18a3.54,3.54,0,0,1-1.07,2,2.84,2.84,0,0,1-1.93.67,2.89,2.89,0,0,1-2.34-1.1,4.92,4.92,0,0,1-.89-3.16,5.15,5.15,0,0,1,.9-3.28,2.81,2.81,0,0,1,2.29-1.13,2.71,2.71,0,0,1,2.2,1.11,5.05,5.05,0,0,1,.88,3.21v.37h-5.07a3.48,3.48,0,0,0,.65,2.11,1.72,1.72,0,0,0,1.4.71C412.47,300,413.07,299.44,413.41,298.3ZM409.62,296h3.79a3.08,3.08,0,0,0-.46-1.61,1.68,1.68,0,0,0-2.73-.13A2.76,2.76,0,0,0,409.62,296Z"/><path class="cls-4" d="M420.48,300a4.33,4.33,0,0,1-1.2.91,3,3,0,0,1-1.3.3,2.26,2.26,0,0,1-1.69-.64,2.36,2.36,0,0,1-.63-1.73,2.62,2.62,0,0,1,.29-1.27,2.22,2.22,0,0,1,.82-.87,4.4,4.4,0,0,1,1.56-.46,8.87,8.87,0,0,0,2.06-.49v-.36a1.75,1.75,0,0,0-.31-1.19,1.61,1.61,0,0,0-1.32-.5,1.87,1.87,0,0,0-1.2.33,2.18,2.18,0,0,0-.59,1.25l-1.13-.19a3.12,3.12,0,0,1,1-1.94,3.23,3.23,0,0,1,2.12-.61,3,3,0,0,1,1.67.4,1.69,1.69,0,0,1,.77,1,6.87,6.87,0,0,1,.16,1.73v1.88a23.12,23.12,0,0,0,.08,2.48,3.87,3.87,0,0,0,.29,1h-1.2A3.48,3.48,0,0,1,420.48,300Zm-.09-3.14a7,7,0,0,1-1.88.53,3.27,3.27,0,0,0-1,.29,1.08,1.08,0,0,0-.45.45,1.44,1.44,0,0,0-.16.67,1.23,1.23,0,0,0,.37.95,1.4,1.4,0,0,0,1,.36,2.09,2.09,0,0,0,1.12-.32,2,2,0,0,0,.75-.86,3.7,3.7,0,0,0,.25-1.55Z"/><path class="cls-4" d="M427.8,297.93l1.14.18a3.82,3.82,0,0,1-1,2.27,2.61,2.61,0,0,1-1.89.78,2.7,2.7,0,0,1-2.2-1.1,5.2,5.2,0,0,1-.86-3.24,5.12,5.12,0,0,1,.87-3.25,2.75,2.75,0,0,1,2.24-1.08,2.52,2.52,0,0,1,1.77.66,3.18,3.18,0,0,1,.93,2l-1.12.21a2.47,2.47,0,0,0-.57-1.26,1.29,1.29,0,0,0-1-.41,1.69,1.69,0,0,0-1.41.75,4,4,0,0,0-.56,2.39,4.45,4.45,0,0,0,.53,2.46,1.63,1.63,0,0,0,1.37.75,1.43,1.43,0,0,0,1.12-.5A2.71,2.71,0,0,0,427.8,297.93Z"/><path class="cls-4" d="M432.48,299.72l.15,1.24a3.48,3.48,0,0,1-.86.12,1.76,1.76,0,0,1-1-.24,1.17,1.17,0,0,1-.5-.65,6.29,6.29,0,0,1-.14-1.65v-4.77h-.84v-1.09h.84v-2.06l1.15-.84v2.9h1.17v1.09h-1.17v4.85a2.49,2.49,0,0,0,.1.87.57.57,0,0,0,.56.28A3.92,3.92,0,0,0,432.48,299.72Z"/><path class="cls-4" d="M433.56,291.14v-1.62h1.15v1.62Zm0,9.83v-8.29h1.15V301Z"/><path class="cls-4" d="M436,296.83a5,5,0,0,1,.9-3.25,2.93,2.93,0,0,1,4.56,0,4.8,4.8,0,0,1,.91,3.16,5.23,5.23,0,0,1-.89,3.33,2.93,2.93,0,0,1-4.57,0A4.94,4.94,0,0,1,436,296.83Zm1.18,0a4,4,0,0,0,.58,2.4,1.78,1.78,0,0,0,1.46.78,1.69,1.69,0,0,0,1.39-.79,5.21,5.21,0,0,0,0-4.78,1.76,1.76,0,0,0-1.45-.78,1.68,1.68,0,0,0-1.4.79A4,4,0,0,0,437.22,296.82Z"/><path class="cls-4" d="M443.77,301v-8.29h1v1.17a2.63,2.63,0,0,1,.92-1,2.24,2.24,0,0,1,1.24-.34,2.4,2.4,0,0,1,1,.21,2.19,2.19,0,0,1,.75.57,2.36,2.36,0,0,1,.43.9,7.77,7.77,0,0,1,.14,1.7V301h-1.15v-5.05a4,4,0,0,0-.16-1.34,1.25,1.25,0,0,0-.49-.65,1.32,1.32,0,0,0-.77-.23,1.61,1.61,0,0,0-1.32.62,3.53,3.53,0,0,0-.49,2.12V301Z"/><path class="cls-4" d="M450.62,298.49l1.15-.22a2.1,2.1,0,0,0,.56,1.31,1.69,1.69,0,0,0,1.2.42,1.62,1.62,0,0,0,1.15-.37,1.18,1.18,0,0,0,.41-.94.88.88,0,0,0-.35-.76,4.27,4.27,0,0,0-1.17-.47,8.37,8.37,0,0,1-1.8-.71,2,2,0,0,1-.7-.77,2.54,2.54,0,0,1,.43-2.83,2.58,2.58,0,0,1,1.88-.66,3.07,3.07,0,0,1,1.33.27,2.09,2.09,0,0,1,.88.74,3,3,0,0,1,.43,1.32l-1.13.18a1.35,1.35,0,0,0-1.48-1.35,1.71,1.71,0,0,0-1.11.3.91.91,0,0,0-.37.76.85.85,0,0,0,.35.72,5.38,5.38,0,0,0,1.25.5,9.79,9.79,0,0,1,1.86.73,1.84,1.84,0,0,1,.65.73,2.39,2.39,0,0,1,.23,1.11,2.61,2.61,0,0,1-.75,1.93,2.82,2.82,0,0,1-2.06.73C451.83,301.16,450.89,300.27,450.62,298.49Z"/><path class="cls-4" d="M458,301v-1.6h1.31V301a3.25,3.25,0,0,1-.27,1.46,1.89,1.89,0,0,1-.8.81l-.32-.6a1.25,1.25,0,0,0,.53-.56,2.78,2.78,0,0,0,.2-1.11Z"/><path class="cls-4" d="M198.85,19.82V18.2H200v1.62Zm0,9.83V21.36H200v8.29Z"/><path class="cls-4" d="M201.77,29.65V21.36h1v1.17a2.63,2.63,0,0,1,.92-1,2.27,2.27,0,0,1,1.24-.34,2.37,2.37,0,0,1,1,.21,2.08,2.08,0,0,1,.75.57,2.36,2.36,0,0,1,.43.9,7.77,7.77,0,0,1,.14,1.7v5.1h-1.15v-5a4,4,0,0,0-.16-1.34,1.28,1.28,0,0,0-.48-.65,1.37,1.37,0,0,0-.77-.23,1.59,1.59,0,0,0-1.32.62,3.45,3.45,0,0,0-.5,2.12v4.53Z"/><path class="cls-4" d="M209.06,29.65V18.2h1.15v4.11a2.86,2.86,0,0,1,.92-.86,2.28,2.28,0,0,1,1.13-.28,2.2,2.2,0,0,1,1.71.69,3.84,3.84,0,0,1,.63,2.54v5.25h-1.15V24.4a2.43,2.43,0,0,0-.38-1.55,1.29,1.29,0,0,0-1-.47,1.64,1.64,0,0,0-1.28.6,3.28,3.28,0,0,0-.53,2.13v4.54Z"/><path class="cls-4" d="M221,27l1.19.18a3.65,3.65,0,0,1-1.08,2,2.83,2.83,0,0,1-1.92.67,2.86,2.86,0,0,1-2.34-1.1,4.86,4.86,0,0,1-.9-3.16,5.15,5.15,0,0,1,.9-3.28,2.79,2.79,0,0,1,2.29-1.13,2.71,2.71,0,0,1,2.2,1.11,5.05,5.05,0,0,1,.88,3.21v.37h-5.08A3.55,3.55,0,0,0,217.8,28a1.72,1.72,0,0,0,1.4.71C220.07,28.68,220.67,28.12,221,27Zm-3.79-2.27H221a3.17,3.17,0,0,0-.47-1.61,1.68,1.68,0,0,0-2.73-.13A2.82,2.82,0,0,0,217.22,24.71Z"/><path class="cls-4" d="M223.66,29.65V21.36h1v1.25a3.35,3.35,0,0,1,.73-1.16,1.1,1.1,0,0,1,.74-.28,2,2,0,0,1,1.18.45L227,22.93a1.41,1.41,0,0,0-.84-.31,1,1,0,0,0-.67.26,1.44,1.44,0,0,0-.43.72,6.73,6.73,0,0,0-.22,1.71v4.34Z"/><path class="cls-4" d="M228,19.82V18.2h1.15v1.62Zm0,9.83V21.36h1.15v8.29Z"/><path class="cls-4" d="M233.5,28.4l.16,1.24a3.61,3.61,0,0,1-.86.12,1.74,1.74,0,0,1-1-.24,1.18,1.18,0,0,1-.51-.65,6.43,6.43,0,0,1-.13-1.65V22.45h-.85V21.36h.85V19.3l1.15-.84v2.9h1.16v1.09h-1.16V27.3a2.26,2.26,0,0,0,.1.87.56.56,0,0,0,.55.28A3.92,3.92,0,0,0,233.5,28.4Z"/><path class="cls-4" d="M239,28.63a4.52,4.52,0,0,1-1.21.91,2.94,2.94,0,0,1-1.29.3,2.27,2.27,0,0,1-1.7-.64,2.36,2.36,0,0,1-.63-1.73,2.73,2.73,0,0,1,.29-1.27,2.22,2.22,0,0,1,.82-.87,4.2,4.2,0,0,1,1.56-.46,8.87,8.87,0,0,0,2.06-.49V24a1.73,1.73,0,0,0-.31-1.19,1.61,1.61,0,0,0-1.32-.5,1.87,1.87,0,0,0-1.2.33,2.18,2.18,0,0,0-.58,1.25l-1.14-.19a3.12,3.12,0,0,1,1-1.94,3.25,3.25,0,0,1,2.12-.61,3,3,0,0,1,1.68.4,1.77,1.77,0,0,1,.77,1,7.37,7.37,0,0,1,.16,1.73v1.88a24.27,24.27,0,0,0,.07,2.48,3.87,3.87,0,0,0,.29,1h-1.2A3.2,3.2,0,0,1,239,28.63Zm-.1-3.14A7,7,0,0,1,237,26a3.36,3.36,0,0,0-1,.29,1.08,1.08,0,0,0-.45.45,1.44,1.44,0,0,0-.16.67,1.26,1.26,0,0,0,.37.95,1.4,1.4,0,0,0,1,.36,2.09,2.09,0,0,0,1.12-.32,2,2,0,0,0,.75-.86,3.72,3.72,0,0,0,.25-1.56Z"/><path class="cls-4" d="M241.88,29.65V21.36h1v1.17a2.63,2.63,0,0,1,.92-1,2.24,2.24,0,0,1,1.24-.34,2.4,2.4,0,0,1,1,.21,2.08,2.08,0,0,1,.75.57,2.36,2.36,0,0,1,.43.9,7.77,7.77,0,0,1,.14,1.7v5.1h-1.15v-5a4,4,0,0,0-.16-1.34,1.3,1.3,0,0,0-.49-.65,1.32,1.32,0,0,0-.77-.23,1.61,1.61,0,0,0-1.32.62,3.53,3.53,0,0,0-.49,2.12v4.53Z"/><path class="cls-4" d="M253.63,26.61l1.14.18a3.82,3.82,0,0,1-1,2.27,2.61,2.61,0,0,1-1.89.78,2.68,2.68,0,0,1-2.2-1.1,5.13,5.13,0,0,1-.86-3.24,5.1,5.1,0,0,1,.87-3.25A2.74,2.74,0,0,1,252,21.17a2.52,2.52,0,0,1,1.77.66,3.23,3.23,0,0,1,.93,2l-1.12.21a2.47,2.47,0,0,0-.57-1.26,1.31,1.31,0,0,0-1-.41,1.71,1.71,0,0,0-1.41.75,4.07,4.07,0,0,0-.55,2.39,4.36,4.36,0,0,0,.53,2.46,1.62,1.62,0,0,0,1.37.75,1.45,1.45,0,0,0,1.12-.5A2.74,2.74,0,0,0,253.63,26.61Z"/><path class="cls-4" d="M260.39,27l1.19.18a3.65,3.65,0,0,1-1.08,2,2.81,2.81,0,0,1-1.92.67,2.86,2.86,0,0,1-2.34-1.1,4.86,4.86,0,0,1-.9-3.16,5.09,5.09,0,0,1,.91-3.28,2.78,2.78,0,0,1,2.28-1.13,2.69,2.69,0,0,1,2.2,1.11,5.05,5.05,0,0,1,.89,3.21v.37h-5.08a3.55,3.55,0,0,0,.65,2.11,1.74,1.74,0,0,0,1.41.71C259.45,28.68,260.05,28.12,260.39,27Zm-3.79-2.27h3.8a3.18,3.18,0,0,0-.46-1.61,1.66,1.66,0,0,0-1.42-.77,1.68,1.68,0,0,0-1.32.64A2.88,2.88,0,0,0,256.6,24.71Z"/><path class="cls-4" d="M22.87,29.65H21.71v-9a6.13,6.13,0,0,1-1.07,1,7.84,7.84,0,0,1-1.23.74V21a7.29,7.29,0,0,0,1.68-1.34,5,5,0,0,0,1-1.54h.75Z"/><path class="cls-4" d="M31.9,28.3v1.35H25.69a3.84,3.84,0,0,1,.49-1.83,10.18,10.18,0,0,1,1.91-2.4,14.19,14.19,0,0,0,2.11-2.49,3.31,3.31,0,0,0,.5-1.64,2,2,0,0,0-.51-1.43,1.74,1.74,0,0,0-2.58.05,2.52,2.52,0,0,0-.52,1.7l-1.18-.14A3.83,3.83,0,0,1,26.84,19,2.82,2.82,0,0,1,29,18.15a2.57,2.57,0,0,1,2.17,1,3.5,3.5,0,0,1,.74,2.2,4.11,4.11,0,0,1-.58,2.1,15.11,15.11,0,0,1-2.19,2.68,19.55,19.55,0,0,0-1.33,1.44,4.06,4.06,0,0,0-.49.76Z"/><path class="cls-4" d="M34.9,23.44a2.33,2.33,0,0,1-1-.9,2.77,2.77,0,0,1-.35-1.44A3,3,0,0,1,34.27,19a2.67,2.67,0,0,1,3.87,0,3,3,0,0,1,.77,2.15,2.67,2.67,0,0,1-.34,1.4,2.26,2.26,0,0,1-1,.9,2.55,2.55,0,0,1,1.31,1.08,3.62,3.62,0,0,1,.46,1.87,3.53,3.53,0,0,1-.89,2.49,3,3,0,0,1-4.41,0,3.59,3.59,0,0,1-.88-2.53,3.45,3.45,0,0,1,.47-1.9A2.32,2.32,0,0,1,34.9,23.44Zm-.6,2.91a2.52,2.52,0,0,0,.56,1.7,1.76,1.76,0,0,0,2.7,0,2.8,2.8,0,0,0,0-3.37,1.78,1.78,0,0,0-1.37-.65,1.7,1.7,0,0,0-1.33.64A2.45,2.45,0,0,0,34.3,26.35Zm.38-5.29a2,2,0,0,0,.44,1.34,1.42,1.42,0,0,0,1.09.5,1.4,1.4,0,0,0,1.08-.5,1.79,1.79,0,0,0,.44-1.27,1.91,1.91,0,0,0-.45-1.31,1.4,1.4,0,0,0-2.15,0A1.79,1.79,0,0,0,34.68,21.06Z"/><path class="cls-4" d="M558.41,27.17l1.14-.22a2.1,2.1,0,0,0,.56,1.31,1.69,1.69,0,0,0,1.2.42,1.67,1.67,0,0,0,1.16-.37,1.21,1.21,0,0,0,.41-.94.89.89,0,0,0-.36-.76,4.27,4.27,0,0,0-1.17-.47,8.61,8.61,0,0,1-1.8-.71,2,2,0,0,1-.7-.77,2.54,2.54,0,0,1,.43-2.83,2.58,2.58,0,0,1,1.88-.66,3.14,3.14,0,0,1,1.34.27,2.15,2.15,0,0,1,.88.74,3.2,3.2,0,0,1,.42,1.32l-1.13.18a1.34,1.34,0,0,0-1.47-1.35,1.74,1.74,0,0,0-1.12.29.94.94,0,0,0-.37.77.85.85,0,0,0,.35.72,5.84,5.84,0,0,0,1.26.5,9.9,9.9,0,0,1,1.85.73,1.77,1.77,0,0,1,.65.73,2.39,2.39,0,0,1,.23,1.11,2.61,2.61,0,0,1-.75,1.93,2.82,2.82,0,0,1-2.06.73C559.61,29.84,558.67,29,558.41,27.17Z"/><path class="cls-4" d="M565,25.5a5,5,0,0,1,.9-3.24,2.93,2.93,0,0,1,4.56,0,4.8,4.8,0,0,1,.91,3.16,5.17,5.17,0,0,1-.9,3.33,2.92,2.92,0,0,1-4.56,0A5,5,0,0,1,565,25.5Zm1.18,0a4,4,0,0,0,.58,2.4,1.77,1.77,0,0,0,1.46.78,1.69,1.69,0,0,0,1.39-.79,4,4,0,0,0,.58-2.39,4,4,0,0,0-.58-2.39,1.77,1.77,0,0,0-1.46-.78,1.7,1.7,0,0,0-1.4.79A4.05,4.05,0,0,0,566.16,25.5Z"/><path class="cls-4" d="M572.72,29.65V21.36h1v1.15a2.58,2.58,0,0,1,.88-1,2.15,2.15,0,0,1,1.18-.35,1.94,1.94,0,0,1,1.21.37,2,2,0,0,1,.71,1.07,3.14,3.14,0,0,1,.93-1.08,2.08,2.08,0,0,1,1.18-.36,1.93,1.93,0,0,1,1.54.66A3.25,3.25,0,0,1,582,24v5.69H580.8V24.42a4.52,4.52,0,0,0-.13-1.26,1.2,1.2,0,0,0-.42-.58,1.17,1.17,0,0,0-.66-.2,1.49,1.49,0,0,0-1.21.59,2.92,2.92,0,0,0-.47,1.86v4.82h-1.15V24.26a2.52,2.52,0,0,0-.32-1.46,1,1,0,0,0-.87-.42,1.45,1.45,0,0,0-1.25.64,4.26,4.26,0,0,0-.45,2.32v4.31Z"/><path class="cls-4" d="M588.29,27l1.19.18a3.65,3.65,0,0,1-1.08,2,2.83,2.83,0,0,1-1.92.67,2.86,2.86,0,0,1-2.34-1.1,4.86,4.86,0,0,1-.9-3.16,5.15,5.15,0,0,1,.9-3.28,2.81,2.81,0,0,1,2.29-1.13,2.71,2.71,0,0,1,2.2,1.11,5.05,5.05,0,0,1,.89,3.21v.37h-5.08a3.55,3.55,0,0,0,.65,2.11,1.72,1.72,0,0,0,1.4.71C587.35,28.68,588,28.12,588.29,27Zm-3.79-2.27h3.8a3.18,3.18,0,0,0-.46-1.61,1.66,1.66,0,0,0-1.42-.77,1.68,1.68,0,0,0-1.32.64A2.88,2.88,0,0,0,584.5,24.71Z"/><path class="cls-4" d="M593.5,28.4l.16,1.24a3.61,3.61,0,0,1-.86.12,1.74,1.74,0,0,1-1-.24,1.18,1.18,0,0,1-.51-.65,6.43,6.43,0,0,1-.13-1.65V22.45h-.85V21.36h.85V19.3l1.15-.84v2.9h1.16v1.09h-1.16V27.3a2.26,2.26,0,0,0,.1.87.56.56,0,0,0,.55.28A3.92,3.92,0,0,0,593.5,28.4Z"/><path class="cls-4" d="M594.59,19.82V18.2h1.14v1.62Zm0,9.83V21.36h1.14v8.29Z"/><path class="cls-4" d="M597.51,29.65V21.36h1v1.15a2.58,2.58,0,0,1,.88-1,2.15,2.15,0,0,1,1.18-.35,1.94,1.94,0,0,1,1.21.37,2,2,0,0,1,.71,1.07,3.14,3.14,0,0,1,.93-1.08,2.08,2.08,0,0,1,1.18-.36,1.93,1.93,0,0,1,1.54.66,3.25,3.25,0,0,1,.56,2.13v5.69h-1.14V24.42a4.52,4.52,0,0,0-.13-1.26,1.1,1.1,0,0,0-1.08-.78,1.49,1.49,0,0,0-1.21.59,2.92,2.92,0,0,0-.47,1.86v4.82h-1.15V24.26a2.52,2.52,0,0,0-.32-1.46,1,1,0,0,0-.87-.42,1.45,1.45,0,0,0-1.25.64,4.26,4.26,0,0,0-.45,2.32v4.31Z"/><path class="cls-4" d="M613.08,27l1.19.18a3.65,3.65,0,0,1-1.08,2,2.83,2.83,0,0,1-1.92.67,2.86,2.86,0,0,1-2.34-1.1,4.86,4.86,0,0,1-.9-3.16,5.15,5.15,0,0,1,.9-3.28,2.81,2.81,0,0,1,2.29-1.13,2.71,2.71,0,0,1,2.2,1.11,5.05,5.05,0,0,1,.88,3.21v.37h-5.08a3.55,3.55,0,0,0,.65,2.11,1.72,1.72,0,0,0,1.4.71C612.14,28.68,612.74,28.12,613.08,27Zm-3.79-2.27h3.8a3.17,3.17,0,0,0-.47-1.61,1.68,1.68,0,0,0-2.73-.13A2.88,2.88,0,0,0,609.29,24.71Z"/><path class="cls-4" d="M615.28,27.17l1.15-.22a2.09,2.09,0,0,0,.55,1.31,1.69,1.69,0,0,0,1.2.42,1.65,1.65,0,0,0,1.16-.37,1.21,1.21,0,0,0,.41-.94.91.91,0,0,0-.35-.76,4.27,4.27,0,0,0-1.17-.47,8.15,8.15,0,0,1-1.8-.71,1.93,1.93,0,0,1-.7-.77,2.54,2.54,0,0,1,.43-2.83,2.58,2.58,0,0,1,1.88-.66,3.1,3.1,0,0,1,1.33.27,2.08,2.08,0,0,1,.88.74,3.2,3.2,0,0,1,.42,1.32l-1.12.18a1.35,1.35,0,0,0-1.48-1.35,1.76,1.76,0,0,0-1.12.29,1,1,0,0,0-.36.77.82.82,0,0,0,.35.72,5.91,5.91,0,0,0,1.25.5,9.9,9.9,0,0,1,1.85.73,1.87,1.87,0,0,1,.66.73,2.53,2.53,0,0,1,.23,1.11,2.61,2.61,0,0,1-.75,1.93,2.84,2.84,0,0,1-2.06.73C616.49,29.84,615.54,29,615.28,27.17Z"/><path class="cls-4" d="M625.94,19.82V18.2h1.15v1.62Zm0,9.83V21.36h1.15v8.29Z"/><path class="cls-4" d="M628.85,29.65V21.36h1v1.17a2.63,2.63,0,0,1,.92-1,2.24,2.24,0,0,1,1.24-.34,2.4,2.4,0,0,1,1,.21,2.08,2.08,0,0,1,.75.57,2.21,2.21,0,0,1,.42.9,7.08,7.08,0,0,1,.15,1.7v5.1h-1.15v-5a4.28,4.28,0,0,0-.16-1.34,1.3,1.3,0,0,0-.49-.65,1.34,1.34,0,0,0-.77-.23,1.61,1.61,0,0,0-1.32.62,3.46,3.46,0,0,0-.49,2.12v4.53Z"/><path class="cls-4" d="M638.05,29.65l-2.59-8.29h1.22l1.46,5c.17.56.32,1.12.44,1.67.1-.44.24-1,.42-1.58l1.52-5.06h1.19l-2.59,8.29Z"/><path class="cls-4" d="M642.71,19.82V18.2h1.15v1.62Zm0,9.83V21.36h1.15v8.29Z"/><path class="cls-4" d="M645.18,27.17l1.15-.22a2.09,2.09,0,0,0,.55,1.31,1.69,1.69,0,0,0,1.2.42,1.65,1.65,0,0,0,1.16-.37,1.21,1.21,0,0,0,.41-.94.91.91,0,0,0-.35-.76,4.24,4.24,0,0,0-1.18-.47,8.23,8.23,0,0,1-1.79-.71,2,2,0,0,1-.71-.77,2.44,2.44,0,0,1-.24-1.1,2.33,2.33,0,0,1,.67-1.73,2.62,2.62,0,0,1,1.89-.66,3.1,3.1,0,0,1,1.33.27,2.08,2.08,0,0,1,.88.74,3.2,3.2,0,0,1,.42,1.32l-1.12.18A1.35,1.35,0,0,0,648,22.33a1.76,1.76,0,0,0-1.12.29,1,1,0,0,0-.37.77.83.83,0,0,0,.36.72,5.66,5.66,0,0,0,1.25.5,9.9,9.9,0,0,1,1.85.73,1.77,1.77,0,0,1,.65.73,2.39,2.39,0,0,1,.24,1.11,2.58,2.58,0,0,1-.76,1.93,2.79,2.79,0,0,1-2.05.73C646.39,29.84,645.44,29,645.18,27.17Z"/><path class="cls-4" d="M652.19,19.82V18.2h1.15v1.62Zm0,9.83V21.36h1.15v8.29Z"/><path class="cls-4" d="M656.16,29.65h-1.07V18.2h1.15v4.09a2.56,2.56,0,0,1,.83-.84,2,2,0,0,1,1-.28,2.4,2.4,0,0,1,1.45.48,3.22,3.22,0,0,1,1,1.44,6.32,6.32,0,0,1,.39,2.35,5.25,5.25,0,0,1-.88,3.26A2.58,2.58,0,0,1,658,29.84a1.91,1.91,0,0,1-1.07-.31,2.55,2.55,0,0,1-.81-.92Zm0-4.21a6.14,6.14,0,0,0,.23,1.93,2.17,2.17,0,0,0,.67,1,1.45,1.45,0,0,0,2.22-.47,4.2,4.2,0,0,0,.55-2.39,4.31,4.31,0,0,0-.53-2.4,1.46,1.46,0,0,0-2.58,0A4,4,0,0,0,656.14,25.44Z"/><path class="cls-4" d="M662.36,29.65V18.2h1.15V29.65Z"/><path class="cls-4" d="M665.27,32.85l-.12-1.32a2.2,2.2,0,0,0,.66.12,1.11,1.11,0,0,0,.6-.15,1.08,1.08,0,0,0,.4-.46c0-.07.18-.53.45-1.37l-2.59-8.31h1.24l1.43,4.8c.17.6.34,1.24.49,1.92a18.64,18.64,0,0,1,.47-1.89l1.45-4.83h1.16l-2.58,8.43a14.35,14.35,0,0,1-.81,2.2,2,2,0,0,1-.66.79A1.53,1.53,0,0,1,666,33,2.1,2.1,0,0,1,665.27,32.85Z"/><path class="cls-4" d="M675.09,25.5a5,5,0,0,1,.9-3.24,2.93,2.93,0,0,1,4.56,0,4.8,4.8,0,0,1,.91,3.16,5.17,5.17,0,0,1-.9,3.33,2.92,2.92,0,0,1-4.56,0A5,5,0,0,1,675.09,25.5Zm1.18,0a4,4,0,0,0,.58,2.4,1.76,1.76,0,0,0,1.45.78,1.69,1.69,0,0,0,1.4-.79,4,4,0,0,0,.58-2.39,4,4,0,0,0-.58-2.39,1.78,1.78,0,0,0-1.46-.78,1.7,1.7,0,0,0-1.4.79A4.05,4.05,0,0,0,676.27,25.5Z"/><path class="cls-4" d="M682.82,29.65V21.36h1v1.17a2.56,2.56,0,0,1,.92-1,2.24,2.24,0,0,1,1.24-.34,2.44,2.44,0,0,1,1,.21,2.08,2.08,0,0,1,.75.57,2.21,2.21,0,0,1,.42.9,7.19,7.19,0,0,1,.14,1.7v5.1H687.2v-5a4.28,4.28,0,0,0-.16-1.34,1.36,1.36,0,0,0-.49-.65,1.34,1.34,0,0,0-.77-.23,1.61,1.61,0,0,0-1.32.62,3.46,3.46,0,0,0-.49,2.12v4.53Z"/><path class="cls-4" d="M690.08,29.65V18.2h1.15V29.65Z"/><path class="cls-4" d="M693,32.85l-.12-1.32a2.2,2.2,0,0,0,.65.12,1.13,1.13,0,0,0,.61-.15,1.08,1.08,0,0,0,.4-.46c0-.07.18-.53.45-1.37l-2.59-8.31h1.24l1.42,4.8c.18.6.35,1.24.5,1.92a18.64,18.64,0,0,1,.47-1.89l1.45-4.83h1.15L696,29.79a13.59,13.59,0,0,1-.8,2.2,2.14,2.14,0,0,1-.66.79,1.53,1.53,0,0,1-.84.24A2.1,2.1,0,0,1,693,32.85Z"/><path class="cls-4" d="M563.3,48.85V47.63a2.87,2.87,0,0,1-.93,1.06,2.23,2.23,0,0,1-1.22.35,2.2,2.2,0,0,1-1.38-.43,2.1,2.1,0,0,1-.76-1.1,6.71,6.71,0,0,1-.19-1.81V40.56H560v4.6a7,7,0,0,0,.13,1.71,1.31,1.31,0,0,0,.47.7,1.34,1.34,0,0,0,.8.26,1.67,1.67,0,0,0,1.36-.68,3.71,3.71,0,0,0,.45-2.15V40.56h1.16v8.29Z"/><path class="cls-4" d="M566.15,48.85V40.56h1v1.17a2.61,2.61,0,0,1,.91-1,2.28,2.28,0,0,1,1.25-.34,2.44,2.44,0,0,1,1,.21,2,2,0,0,1,1.17,1.47,7.77,7.77,0,0,1,.14,1.7v5.1h-1.15V43.8a4.39,4.39,0,0,0-.15-1.34,1.36,1.36,0,0,0-.49-.65,1.34,1.34,0,0,0-.77-.23,1.61,1.61,0,0,0-1.32.62,3.46,3.46,0,0,0-.49,2.12v4.53Z"/><path class="cls-4" d="M576,47.6l.15,1.24a3.48,3.48,0,0,1-.86.12,1.71,1.71,0,0,1-1-.24,1.14,1.14,0,0,1-.51-.65,6.43,6.43,0,0,1-.13-1.65V41.65h-.85V40.56h.85V38.5l1.14-.84v2.9H576v1.09h-1.17V46.5a2.2,2.2,0,0,0,.11.87.55.55,0,0,0,.55.28A3.92,3.92,0,0,0,576,47.6Z"/><path class="cls-4" d="M577.09,39V37.4h1.15V39Zm0,9.83V40.56h1.15v8.29Z"/><path class="cls-4" d="M580,48.85V37.4h1.15V48.85Z"/><path class="cls-4" d="M586.57,52V40.56h1.06v1.07a2.66,2.66,0,0,1,.87-1,2,2,0,0,1,1.09-.3,2.36,2.36,0,0,1,1.45.48,3.22,3.22,0,0,1,1,1.44,6.09,6.09,0,0,1,.4,2.34,5.26,5.26,0,0,1-.89,3.27A2.59,2.59,0,0,1,589.51,49a1.89,1.89,0,0,1-1-.27,2.47,2.47,0,0,1-.8-.78v4Zm1-7.28a4.11,4.11,0,0,0,.54,2.37,1.47,1.47,0,0,0,2.58,0,4.29,4.29,0,0,0,.56-2.44,4.3,4.3,0,0,0-.54-2.41,1.42,1.42,0,0,0-2.57.06A4.33,4.33,0,0,0,587.62,44.75Z"/><path class="cls-4" d="M593.87,48.85V40.56h1v1.25a3.5,3.5,0,0,1,.73-1.16,1.1,1.1,0,0,1,.74-.28,2,2,0,0,1,1.18.45l-.39,1.31a1.38,1.38,0,0,0-.83-.31,1.05,1.05,0,0,0-.68.26,1.44,1.44,0,0,0-.43.72,6.73,6.73,0,0,0-.21,1.71v4.34Z"/><path class="cls-4" d="M597.8,44.71a5,5,0,0,1,.9-3.25,2.93,2.93,0,0,1,4.56,0,4.8,4.8,0,0,1,.91,3.16,5.17,5.17,0,0,1-.9,3.33,2.92,2.92,0,0,1-4.56,0A4.94,4.94,0,0,1,597.8,44.71Zm1.18,0a4,4,0,0,0,.58,2.4,1.77,1.77,0,0,0,1.46.78,1.69,1.69,0,0,0,1.39-.79A4,4,0,0,0,603,44.7a4,4,0,0,0-.58-2.39,1.77,1.77,0,0,0-1.46-.78,1.7,1.7,0,0,0-1.4.79A4.05,4.05,0,0,0,599,44.7Z"/><path class="cls-4" d="M605.54,48.85V40.56h1v1.15a2.58,2.58,0,0,1,.88-1,2.15,2.15,0,0,1,1.18-.35,1.94,1.94,0,0,1,1.21.37,2,2,0,0,1,.71,1.07,3.14,3.14,0,0,1,.93-1.08,2.08,2.08,0,0,1,1.18-.36,1.91,1.91,0,0,1,1.54.66,3.25,3.25,0,0,1,.57,2.13v5.69h-1.15V43.62a4.52,4.52,0,0,0-.13-1.26,1.2,1.2,0,0,0-.42-.58,1.16,1.16,0,0,0-.65-.2,1.49,1.49,0,0,0-1.22.59,2.92,2.92,0,0,0-.47,1.86v4.82h-1.15V43.46a2.52,2.52,0,0,0-.32-1.46,1,1,0,0,0-.87-.42,1.45,1.45,0,0,0-1.25.64,4.26,4.26,0,0,0-.45,2.32v4.31Z"/><path class="cls-4" d="M616.46,52V40.56h1.06v1.07a2.66,2.66,0,0,1,.87-1,2,2,0,0,1,1.09-.3,2.36,2.36,0,0,1,1.45.48,3.22,3.22,0,0,1,1,1.44,6.09,6.09,0,0,1,.4,2.34,5.26,5.26,0,0,1-.89,3.27A2.58,2.58,0,0,1,619.4,49a1.89,1.89,0,0,1-1-.27,2.47,2.47,0,0,1-.8-.78v4Zm1-7.28a4.11,4.11,0,0,0,.54,2.37,1.47,1.47,0,0,0,2.58,0,4.29,4.29,0,0,0,.56-2.44,4.3,4.3,0,0,0-.54-2.41,1.42,1.42,0,0,0-2.57.06A4.33,4.33,0,0,0,617.51,44.75Z"/><path class="cls-4" d="M626.32,47.6l.16,1.24a3.61,3.61,0,0,1-.86.12,1.74,1.74,0,0,1-1-.24,1.18,1.18,0,0,1-.51-.65,6.43,6.43,0,0,1-.13-1.65V41.65h-.85V40.56H624V38.5l1.15-.84v2.9h1.16v1.09h-1.16V46.5a2.26,2.26,0,0,0,.1.87.56.56,0,0,0,.55.28A3.92,3.92,0,0,0,626.32,47.6Z"/><path class="cls-4" d="M632.05,46.18l1.19.18a3.6,3.6,0,0,1-1.07,2,2.84,2.84,0,0,1-1.93.67,2.89,2.89,0,0,1-2.34-1.1,4.92,4.92,0,0,1-.89-3.16,5.15,5.15,0,0,1,.9-3.28,2.81,2.81,0,0,1,2.29-1.13,2.71,2.71,0,0,1,2.2,1.11,5.05,5.05,0,0,1,.88,3.21v.37H628.2a3.55,3.55,0,0,0,.64,2.11,1.75,1.75,0,0,0,1.41.71C631.11,47.88,631.72,47.32,632.05,46.18Zm-3.78-2.27h3.79a3.08,3.08,0,0,0-.46-1.61,1.68,1.68,0,0,0-2.73-.13A2.76,2.76,0,0,0,628.27,43.91Z"/><path class="cls-4" d="M639.11,48.85v-1a2.33,2.33,0,0,1-.81.91,1.84,1.84,0,0,1-1.06.32,2.58,2.58,0,0,1-2.08-1.14,5.07,5.07,0,0,1-.88-3.19,6.48,6.48,0,0,1,.39-2.4,3.18,3.18,0,0,1,1-1.46,2.4,2.4,0,0,1,1.45-.48,2,2,0,0,1,1.06.3,2.39,2.39,0,0,1,.8.84V37.4h1.17V48.85Zm-3.65-4.14A4.13,4.13,0,0,0,636,47.1a1.6,1.6,0,0,0,1.3.78,1.56,1.56,0,0,0,1.28-.75,3.87,3.87,0,0,0,.53-2.26,4.64,4.64,0,0,0-.53-2.54,1.59,1.59,0,0,0-1.36-.8,1.51,1.51,0,0,0-1.26.76A4.48,4.48,0,0,0,635.46,44.71Z"/><path class="cls-4" d="M642.36,48.85v-1.6h1.31v1.6Z"/><path class="cls-4" d="M931.87,524.65h-1.16v-9a5.74,5.74,0,0,1-1.07.95,6.55,6.55,0,0,1-1.23.74V516a7.25,7.25,0,0,0,1.68-1.33,5.11,5.11,0,0,0,1-1.54h.75Z"/><path class="cls-4" d="M940.9,523.3v1.35h-6.21a3.88,3.88,0,0,1,.49-1.84,10.18,10.18,0,0,1,1.91-2.4,13.49,13.49,0,0,0,2.11-2.49,3.28,3.28,0,0,0,.5-1.64,2,2,0,0,0-.51-1.42,1.73,1.73,0,0,0-2.58,0,2.57,2.57,0,0,0-.52,1.71l-1.18-.15a3.85,3.85,0,0,1,.93-2.48,2.85,2.85,0,0,1,2.13-.83,2.54,2.54,0,0,1,2.17,1,3.48,3.48,0,0,1,.74,2.2,4.11,4.11,0,0,1-.58,2.1,15.13,15.13,0,0,1-2.19,2.67c-.69.71-1.13,1.19-1.33,1.44a4.12,4.12,0,0,0-.49.77Z"/><path class="cls-4" d="M942.29,522l1.11-.12c.18,1.2.7,1.81,1.56,1.81a1.55,1.55,0,0,0,1-.4,3,3,0,0,0,.8-1.4,7.58,7.58,0,0,0,.33-2.35v-.28a2.88,2.88,0,0,1-1,1.1,2.21,2.21,0,0,1-1.24.41,2.49,2.49,0,0,1-2-1,4.13,4.13,0,0,1-.83-2.74,4.34,4.34,0,0,1,.86-2.84,2.63,2.63,0,0,1,2.1-1,2.6,2.6,0,0,1,1.63.58,3.55,3.55,0,0,1,1.17,1.7,9.69,9.69,0,0,1,.42,3.24,11.72,11.72,0,0,1-.45,3.67,4,4,0,0,1-1.21,1.9,2.66,2.66,0,0,1-1.7.6,2.39,2.39,0,0,1-1.79-.73A3.36,3.36,0,0,1,942.29,522Zm4.73-5.06a3.1,3.1,0,0,0-.55-1.93,1.6,1.6,0,0,0-1.26-.71,1.66,1.66,0,0,0-1.33.76,3.15,3.15,0,0,0-.58,2,2.7,2.7,0,0,0,.55,1.79,1.68,1.68,0,0,0,1.33.67,1.58,1.58,0,0,0,1.3-.67A3,3,0,0,0,947,516.94Z"/><g class="cls-2"><path class="cls-3" d="M290.62,262.83l.59-.27c28.75,16.39,49,37.22,56.17,59.31a50.59,50.59,0,0,1,2.43,23.31q.12,5.16-9.59,5.34-32.19-14-35.74-37.45a287.62,287.62,0,0,1-20-54.18l.45.45"/><path class="cls-3" d="M263.31,284.2a4.77,4.77,0,0,1-.19,2.08,77.65,77.65,0,0,0-2.41,16A268.87,268.87,0,0,0,264.28,349c.41,2.64,2,6.92,1.34,10.05.71-.49-1-14.86-.5-10.29-.7-6.4-2.12-12.73-1.78-19.15q-.57,11.44-.35,22.9.78,14.6,1.55,29.2-1.11,11.59,5.78,22.4a2.62,2.62,0,0,0,0-1.91"/><path class="cls-3" d="M241.69,285.57q-3.13-.84.51,2.7a423,423,0,0,1,16.1,45.62,256.3,256.3,0,0,1,10.08,43.59,2,2,0,0,1-.24,2.71c-1.71-13.12-7.7-26-10.61-39.08,0,7.82,1.81,15.82,2.73,23.59q1.13,9.76,1.83,19.52a2.68,2.68,0,0,1,.19,2.55"/><path class="cls-3" d="M97.94,533.36s-25.34-11.85,16,88.32,0,123.57,0,123.57h.91l1.6-1.32h.65l-1,.6"/><path class="cls-3" d="M281.72,264.24s-10.61,22.34-15.29,29.69-5.94,9-5.94,9v3.3s2.54-.36,1.27-1.56,0-1.68,0-1.68,1.37-.24.69.36-3,2.88-3,2.88"/></g></g></svg>