<svg id="Layer_1" data-name="Layer 1" xmlns="http://www.w3.org/2000/svg" xmlns:xlink="http://www.w3.org/1999/xlink" viewBox="0 0 1080 756"><defs><style>.cls-1,.cls-3{fill:none;}.cls-2{clip-path:url(#clip-path);}.cls-3{stroke:#231f20;stroke-width:0.25px;}.cls-4{fill:#231f20;}</style><clipPath id="clip-path"><rect class="cls-1" width="1080" height="756"/></clipPath></defs><title>Untitled-3</title><g class="cls-2"><g class="cls-2"><line class="cls-3" x1="180" y1="-18.36" x2="180" y2="790.92"/><line class="cls-3" x1="720" y1="-20.88" x2="720" y2="788.4"/><line class="cls-3" x1="359.88" y1="-18.36" x2="359.88" y2="790.92"/><line class="cls-3" x1="899.87" y1="-20.88" x2="899.87" y2="788.4"/><line class="cls-3" x1="-16.92" y1="251.88" x2="1101.6" y2="251.88"/><line class="cls-3" x1="-11.52" y1="504.13" x2="1107" y2="504.13"/><line class="cls-3" x1="540" y1="-19.44" x2="540" y2="789.84"/></g><path class="cls-4" d="M378.41,279.16l1.14-.21a2.07,2.07,0,0,0,.56,1.3,1.94,1.94,0,0,0,2.36.06,1.23,1.23,0,0,0,.41-.94.91.91,0,0,0-.36-.77,4.64,4.64,0,0,0-1.17-.47,8.74,8.74,0,0,1-1.8-.7,2,2,0,0,1-.7-.77,2.36,2.36,0,0,1-.25-1.11,2.31,2.31,0,0,1,.68-1.72,2.58,2.58,0,0,1,1.88-.67,3,3,0,0,1,1.34.28,2.13,2.13,0,0,1,.88.73,3.3,3.3,0,0,1,.42,1.32l-1.13.19a1.34,1.34,0,0,0-1.47-1.36,1.74,1.74,0,0,0-1.12.3.94.94,0,0,0-.37.77.87.87,0,0,0,.35.72,6.46,6.46,0,0,0,1.26.5,9.4,9.4,0,0,1,1.85.72,1.8,1.8,0,0,1,.65.74,2.38,2.38,0,0,1,.23,1.1,2.58,2.58,0,0,1-.75,1.93,2.82,2.82,0,0,1-2.06.74C379.61,281.84,378.67,281,378.41,279.16Z"/><path class="cls-4" d="M385.41,271.81V270.2h1.15v1.61Zm0,9.84v-8.3h1.15v8.3Z"/><path class="cls-4" d="M388.33,281.65v-8.3h1v1.17a2.76,2.76,0,0,1,.91-1,2.36,2.36,0,0,1,1.25-.34,2.44,2.44,0,0,1,1,.22,2.05,2.05,0,0,1,.75.56,2.21,2.21,0,0,1,.42.9,7.81,7.81,0,0,1,.14,1.71v5.1H392.7v-5a4.34,4.34,0,0,0-.15-1.34,1.36,1.36,0,0,0-.49-.65,1.27,1.27,0,0,0-.77-.23A1.6,1.6,0,0,0,390,275a3.46,3.46,0,0,0-.49,2.12v4.54Z"/><path class="cls-4" d="M395.4,282.34l1.12.2a1.48,1.48,0,0,0,.47,1,1.63,1.63,0,0,0,1.09.33,1.9,1.9,0,0,0,1.21-.36,2,2,0,0,0,.61-1.09,10,10,0,0,0,.1-1.84,2.68,2.68,0,0,1-.84.81,2.07,2.07,0,0,1-1,.27,2.49,2.49,0,0,1-2-1,5.07,5.07,0,0,1-.92-3.18,6.23,6.23,0,0,1,.41-2.34,3.24,3.24,0,0,1,1.06-1.47,2.53,2.53,0,0,1,1.48-.47,2.06,2.06,0,0,1,1.1.3,2.73,2.73,0,0,1,.88.88v-1h1.06v7.17a8.35,8.35,0,0,1-.31,2.73,2.62,2.62,0,0,1-1,1.29,3,3,0,0,1-1.71.48,2.72,2.72,0,0,1-2-.72A2.54,2.54,0,0,1,395.4,282.34Zm1-5a4.16,4.16,0,0,0,.54,2.39,1.59,1.59,0,0,0,1.32.75,1.62,1.62,0,0,0,1.34-.73,4,4,0,0,0,.54-2.35,3.91,3.91,0,0,0-.56-2.33,1.68,1.68,0,0,0-1.37-.76,1.56,1.56,0,0,0-1.26.76A3.86,3.86,0,0,0,396.35,277.35Z"/><path class="cls-4" d="M402.88,281.65V270.2H404v11.45Z"/><path class="cls-4" d="M410.48,279l1.19.18a3.61,3.61,0,0,1-1.07,2,2.84,2.84,0,0,1-1.93.68,2.89,2.89,0,0,1-2.34-1.1,5,5,0,0,1-.89-3.17,5.19,5.19,0,0,1,.9-3.28,2.8,2.8,0,0,1,2.28-1.13,2.72,2.72,0,0,1,2.21,1.11,5.05,5.05,0,0,1,.88,3.21v.38h-5.08a3.64,3.64,0,0,0,.65,2.11,1.78,1.78,0,0,0,1.41.71C409.54,280.68,410.15,280.11,410.48,279Zm-3.78-2.28h3.79a3.11,3.11,0,0,0-.46-1.61,1.68,1.68,0,0,0-2.73-.13A2.76,2.76,0,0,0,406.7,276.7Z"/><path class="cls-4" d="M416.78,271.81V270.2h1.15v1.61Zm0,9.84v-8.3h1.15v8.3Z"/><path class="cls-4" d="M419.7,281.65v-8.3h1v1.17a2.78,2.78,0,0,1,.92-1,2.43,2.43,0,0,1,2.25-.12,2.05,2.05,0,0,1,.75.56,2.36,2.36,0,0,1,.43.9,7.81,7.81,0,0,1,.14,1.71v5.1h-1.15v-5a4,4,0,0,0-.16-1.34,1.27,1.27,0,0,0-1.25-.88,1.58,1.58,0,0,0-1.32.61,3.45,3.45,0,0,0-.5,2.12v4.54Z"/><path class="cls-4" d="M426.55,279.16l1.15-.21a2,2,0,0,0,.55,1.3,1.94,1.94,0,0,0,2.36.06,1.23,1.23,0,0,0,.41-.94.91.91,0,0,0-.36-.77,4.64,4.64,0,0,0-1.17-.47,8.35,8.35,0,0,1-1.79-.7,2,2,0,0,1-.71-.77,2.48,2.48,0,0,1-.25-1.11,2.31,2.31,0,0,1,.68-1.72,2.6,2.6,0,0,1,1.88-.67,3,3,0,0,1,1.34.28,2.13,2.13,0,0,1,.88.73,3.3,3.3,0,0,1,.42,1.32l-1.13.19a1.34,1.34,0,0,0-1.47-1.36,1.74,1.74,0,0,0-1.12.3.94.94,0,0,0-.37.77.87.87,0,0,0,.35.72,6.46,6.46,0,0,0,1.26.5,9.4,9.4,0,0,1,1.85.72,1.8,1.8,0,0,1,.65.74,2.38,2.38,0,0,1,.24,1.1,2.58,2.58,0,0,1-.76,1.93,2.82,2.82,0,0,1-2.06.74C427.75,281.84,426.81,281,426.55,279.16Z"/><path class="cls-4" d="M436.12,280.39l.15,1.24a3.1,3.1,0,0,1-.86.13,1.71,1.71,0,0,1-1-.24,1.21,1.21,0,0,1-.51-.65,6.39,6.39,0,0,1-.14-1.65v-4.77H433v-1.1h.84V271.3l1.15-.85v2.9h1.17v1.1H435v4.85a2.42,2.42,0,0,0,.1.86.58.58,0,0,0,.56.29A2.86,2.86,0,0,0,436.12,280.39Z"/><path class="cls-4" d="M441.63,280.62a4,4,0,0,1-1.2.91,3,3,0,0,1-1.3.31,2.28,2.28,0,0,1-1.69-.64,2.38,2.38,0,0,1-.64-1.73,2.62,2.62,0,0,1,.3-1.27,2.27,2.27,0,0,1,.81-.87,4.33,4.33,0,0,1,1.57-.46,9,9,0,0,0,2.06-.49V276a1.78,1.78,0,0,0-.31-1.2,1.64,1.64,0,0,0-1.32-.5,1.85,1.85,0,0,0-1.2.33,2.21,2.21,0,0,0-.59,1.26l-1.13-.19a3.18,3.18,0,0,1,1-2,3.27,3.27,0,0,1,2.11-.61,3,3,0,0,1,1.68.41,1.67,1.67,0,0,1,.77,1,7,7,0,0,1,.16,1.74v1.87a23.12,23.12,0,0,0,.08,2.48,3.58,3.58,0,0,0,.29,1h-1.2A3.63,3.63,0,0,1,441.63,280.62Zm-.09-3.14a7.34,7.34,0,0,1-1.88.54,3.33,3.33,0,0,0-1,.28,1.21,1.21,0,0,0-.45.45,1.37,1.37,0,0,0-.16.68,1.24,1.24,0,0,0,.37.95,1.37,1.37,0,0,0,1,.35,2,2,0,0,0,1.88-1.17,3.78,3.78,0,0,0,.25-1.56Z"/><path class="cls-4" d="M444.5,281.65v-8.3h1v1.17a2.7,2.7,0,0,1,.92-1,2.33,2.33,0,0,1,1.24-.34,2.44,2.44,0,0,1,1,.22,2.05,2.05,0,0,1,.75.56,2.21,2.21,0,0,1,.42.9,7.23,7.23,0,0,1,.14,1.71v5.1h-1.14v-5a4.28,4.28,0,0,0-.16-1.34,1.36,1.36,0,0,0-.49-.65,1.27,1.27,0,0,0-.77-.23,1.6,1.6,0,0,0-1.32.61,3.46,3.46,0,0,0-.49,2.12v4.54Z"/><path class="cls-4" d="M456.25,278.61l1.13.18a3.73,3.73,0,0,1-1,2.26,2.54,2.54,0,0,1-1.88.79,2.67,2.67,0,0,1-2.2-1.1,5.16,5.16,0,0,1-.87-3.25,5.09,5.09,0,0,1,.87-3.24,2.75,2.75,0,0,1,2.24-1.09,2.53,2.53,0,0,1,1.78.66,3.26,3.26,0,0,1,.93,2l-1.12.2a2.39,2.39,0,0,0-.57-1.25,1.32,1.32,0,0,0-1-.42,1.69,1.69,0,0,0-1.41.75,4.12,4.12,0,0,0-.56,2.4,4.29,4.29,0,0,0,.54,2.45,1.59,1.59,0,0,0,1.37.76,1.48,1.48,0,0,0,1.12-.5A2.74,2.74,0,0,0,456.25,278.61Z"/><path class="cls-4" d="M463,279l1.19.18a3.62,3.62,0,0,1-1.08,2,2.83,2.83,0,0,1-1.92.68,2.86,2.86,0,0,1-2.34-1.1,4.89,4.89,0,0,1-.9-3.17,5.19,5.19,0,0,1,.9-3.28,2.82,2.82,0,0,1,2.29-1.13,2.71,2.71,0,0,1,2.2,1.11,5.05,5.05,0,0,1,.88,3.21v.38h-5.08a3.57,3.57,0,0,0,.65,2.11,1.75,1.75,0,0,0,1.4.71C462.07,280.68,462.67,280.11,463,279Zm-3.79-2.28H463a3.2,3.2,0,0,0-.47-1.61,1.68,1.68,0,0,0-2.73-.13A2.82,2.82,0,0,0,459.22,276.7Z"/><path class="cls-4" d="M465.21,279.16l1.15-.21a2.06,2.06,0,0,0,.55,1.3,1.94,1.94,0,0,0,2.36.06,1.23,1.23,0,0,0,.41-.94.93.93,0,0,0-.35-.77,4.64,4.64,0,0,0-1.17-.47,8.28,8.28,0,0,1-1.8-.7,1.93,1.93,0,0,1-.7-.77,2.36,2.36,0,0,1-.25-1.11,2.28,2.28,0,0,1,.68-1.72,2.58,2.58,0,0,1,1.88-.67,3,3,0,0,1,1.33.28,2.06,2.06,0,0,1,.88.73,3.3,3.3,0,0,1,.42,1.32l-1.12.19a1.35,1.35,0,0,0-1.48-1.36,1.76,1.76,0,0,0-1.12.3,1,1,0,0,0-.36.77.85.85,0,0,0,.35.72,6.55,6.55,0,0,0,1.25.5,9.4,9.4,0,0,1,1.85.72,1.89,1.89,0,0,1,.66.74,2.51,2.51,0,0,1,.23,1.1,2.58,2.58,0,0,1-.75,1.93,2.84,2.84,0,0,1-2.06.74C466.42,281.84,465.47,281,465.21,279.16Z"/><path class="cls-4" d="M472.55,281.65v-1.6h1.32v1.6a3.13,3.13,0,0,1-.28,1.46,1.8,1.8,0,0,1-.79.8l-.32-.6a1.2,1.2,0,0,0,.53-.56,2.72,2.72,0,0,0,.19-1.1Z"/><path class="cls-4" d="M18.85,271.81V270.2H20v1.61Zm0,9.84v-8.3H20v8.3Z"/><path class="cls-4" d="M26.17,281.65v-1a2.34,2.34,0,0,1-.8.92,2,2,0,0,1-1.07.32,2.58,2.58,0,0,1-2.08-1.14,5.16,5.16,0,0,1-.88-3.2,6.56,6.56,0,0,1,.39-2.4,3.23,3.23,0,0,1,1.05-1.46,2.35,2.35,0,0,1,1.44-.48,2,2,0,0,1,1.06.3,2.71,2.71,0,0,1,.81.84v-4.1h1.16v11.45Zm-3.65-4.14a4.15,4.15,0,0,0,.56,2.39,1.61,1.61,0,0,0,1.3.78,1.56,1.56,0,0,0,1.28-.75,3.9,3.9,0,0,0,.54-2.27,4.66,4.66,0,0,0-.54-2.54,1.61,1.61,0,0,0-1.36-.8,1.5,1.5,0,0,0-1.25.77A4.36,4.36,0,0,0,22.52,277.51Z"/><path class="cls-4" d="M18.7,27l1.1-.12c.18,1.2.7,1.81,1.57,1.81a1.59,1.59,0,0,0,1.05-.4,3.07,3.07,0,0,0,.8-1.4,7.58,7.58,0,0,0,.33-2.35v-.28a3,3,0,0,1-1,1.1,2.24,2.24,0,0,1-1.24.41,2.49,2.49,0,0,1-2-1A4.14,4.14,0,0,1,18.52,22a4.28,4.28,0,0,1,.87-2.84,2.62,2.62,0,0,1,3.73-.45,3.69,3.69,0,0,1,1.17,1.7,9.73,9.73,0,0,1,.41,3.24,12.07,12.07,0,0,1-.44,3.67,4,4,0,0,1-1.21,1.9,2.7,2.7,0,0,1-1.71.6,2.41,2.41,0,0,1-1.79-.73A3.41,3.41,0,0,1,18.7,27Zm4.72-5.06A3,3,0,0,0,22.87,20a1.57,1.57,0,0,0-1.26-.71,1.64,1.64,0,0,0-1.32.76,3.15,3.15,0,0,0-.59,2,2.7,2.7,0,0,0,.56,1.79,1.66,1.66,0,0,0,1.33.67,1.61,1.61,0,0,0,1.3-.67A3,3,0,0,0,23.42,21.94Z"/><path class="cls-4" d="M25.82,24a9.67,9.67,0,0,1,.78-4.37,2.46,2.46,0,0,1,2.29-1.48A2.4,2.4,0,0,1,31,19.35,8.89,8.89,0,0,1,32,24a9.68,9.68,0,0,1-.78,4.36,2.45,2.45,0,0,1-2.29,1.48,2.53,2.53,0,0,1-2.2-1.31A8.72,8.72,0,0,1,25.82,24ZM27,24a8.61,8.61,0,0,0,.54,3.74,1.56,1.56,0,0,0,1.37,1,1.53,1.53,0,0,0,1.32-1A8.65,8.65,0,0,0,30.77,24a8.6,8.6,0,0,0-.54-3.75,1.59,1.59,0,0,0-1.39-.95,1.52,1.52,0,0,0-1.31,1A8.78,8.78,0,0,0,27,24Z"/><path class="cls-4" d="M18.7,27l1.1-.12c.18,1.2.7,1.81,1.57,1.81a1.59,1.59,0,0,0,1.05-.4,3.07,3.07,0,0,0,.8-1.4,7.58,7.58,0,0,0,.33-2.35v-.28a3,3,0,0,1-1,1.1,2.24,2.24,0,0,1-1.24.41,2.49,2.49,0,0,1-2-1A4.14,4.14,0,0,1,18.52,22a4.28,4.28,0,0,1,.87-2.84,2.62,2.62,0,0,1,3.73-.45,3.69,3.69,0,0,1,1.17,1.7,9.73,9.73,0,0,1,.41,3.24,12.07,12.07,0,0,1-.44,3.67,4,4,0,0,1-1.21,1.9,2.7,2.7,0,0,1-1.71.6,2.41,2.41,0,0,1-1.79-.73A3.41,3.41,0,0,1,18.7,27Zm4.72-5.06A3,3,0,0,0,22.87,20a1.57,1.57,0,0,0-1.26-.71,1.64,1.64,0,0,0-1.32.76,3.15,3.15,0,0,0-.59,2,2.7,2.7,0,0,0,.56,1.79,1.66,1.66,0,0,0,1.33.67,1.61,1.61,0,0,0,1.3-.67A3,3,0,0,0,23.42,21.94Z"/><path class="cls-4" d="M25.82,24a9.67,9.67,0,0,1,.78-4.37,2.46,2.46,0,0,1,2.29-1.48A2.4,2.4,0,0,1,31,19.35,8.89,8.89,0,0,1,32,24a9.68,9.68,0,0,1-.78,4.36,2.45,2.45,0,0,1-2.29,1.48,2.53,2.53,0,0,1-2.2-1.31A8.72,8.72,0,0,1,25.82,24ZM27,24a8.61,8.61,0,0,0,.54,3.74,1.56,1.56,0,0,0,1.37,1,1.53,1.53,0,0,0,1.32-1A8.65,8.65,0,0,0,30.77,24a8.6,8.6,0,0,0-.54-3.75,1.59,1.59,0,0,0-1.39-.95,1.52,1.52,0,0,0-1.31,1A8.78,8.78,0,0,0,27,24Z"/><path class="cls-4" d="M558.85,281.65v-8.3h1v1.17a2.78,2.78,0,0,1,.92-1,2.33,2.33,0,0,1,1.24-.34,2.41,2.41,0,0,1,1,.22,2.05,2.05,0,0,1,.75.56,2.21,2.21,0,0,1,.42.9,7.11,7.11,0,0,1,.15,1.71v5.1h-1.15v-5a4.28,4.28,0,0,0-.16-1.34,1.3,1.3,0,0,0-.49-.65,1.27,1.27,0,0,0-.77-.23,1.6,1.6,0,0,0-1.32.61,3.46,3.46,0,0,0-.49,2.12v4.54Z"/><path class="cls-4" d="M565.71,277.5a5,5,0,0,1,.9-3.24,2.91,2.91,0,0,1,4.56,0,4.79,4.79,0,0,1,.92,3.15,5.17,5.17,0,0,1-.9,3.33,2.92,2.92,0,0,1-4.57,0A5,5,0,0,1,565.71,277.5Zm1.18,0a4,4,0,0,0,.59,2.39,1.74,1.74,0,0,0,1.45.79,1.67,1.67,0,0,0,1.39-.79,4,4,0,0,0,.59-2.39,4,4,0,0,0-.59-2.39,1.74,1.74,0,0,0-1.45-.79,1.68,1.68,0,0,0-1.4.79A4,4,0,0,0,566.89,277.5Z"/><path class="cls-4" d="M576,280.39l.15,1.24a3.1,3.1,0,0,1-.86.13,1.71,1.71,0,0,1-1-.24,1.21,1.21,0,0,1-.51-.65,6.54,6.54,0,0,1-.13-1.65v-4.77h-.85v-1.1h.85V271.3l1.14-.85v2.9H576v1.1h-1.17v4.85a2.14,2.14,0,0,0,.11.86.56.56,0,0,0,.55.29A2.86,2.86,0,0,0,576,280.39Z"/><path class="cls-4" d="M580.74,281.65v-8.3h1v1.17a2.78,2.78,0,0,1,.92-1,2.33,2.33,0,0,1,1.24-.34,2.41,2.41,0,0,1,1,.22,2.05,2.05,0,0,1,.75.56,2.21,2.21,0,0,1,.42.9,7.11,7.11,0,0,1,.15,1.71v5.1h-1.15v-5a4,4,0,0,0-.16-1.34,1.3,1.3,0,0,0-.49-.65,1.25,1.25,0,0,0-.77-.23,1.6,1.6,0,0,0-1.32.61,3.46,3.46,0,0,0-.49,2.12v4.54Z"/><path class="cls-4" d="M592.69,279l1.19.18a3.62,3.62,0,0,1-1.08,2,2.83,2.83,0,0,1-1.92.68,2.86,2.86,0,0,1-2.34-1.1,4.89,4.89,0,0,1-.9-3.17,5.19,5.19,0,0,1,.9-3.28,2.82,2.82,0,0,1,2.29-1.13,2.71,2.71,0,0,1,2.2,1.11,5.05,5.05,0,0,1,.88,3.21v.38h-5.08a3.57,3.57,0,0,0,.65,2.11,1.75,1.75,0,0,0,1.4.71C591.75,280.68,592.35,280.11,592.69,279Zm-3.79-2.28h3.8a3.2,3.2,0,0,0-.47-1.61,1.68,1.68,0,0,0-2.73-.13A2.82,2.82,0,0,0,588.9,276.7Z"/><path class="cls-4" d="M599.79,278.61l1.13.18a3.79,3.79,0,0,1-1,2.26,2.55,2.55,0,0,1-1.89.79,2.66,2.66,0,0,1-2.19-1.1,5.16,5.16,0,0,1-.87-3.25,5.09,5.09,0,0,1,.87-3.24,2.73,2.73,0,0,1,2.24-1.09,2.55,2.55,0,0,1,1.78.66,3.2,3.2,0,0,1,.92,2l-1.11.2a2.39,2.39,0,0,0-.57-1.25,1.32,1.32,0,0,0-1-.42,1.69,1.69,0,0,0-1.41.75,4.12,4.12,0,0,0-.56,2.4,4.29,4.29,0,0,0,.54,2.45,1.59,1.59,0,0,0,1.37.76,1.48,1.48,0,0,0,1.12-.5A2.74,2.74,0,0,0,599.79,278.61Z"/><path class="cls-4" d="M606.55,279l1.18.18a3.55,3.55,0,0,1-1.07,2,2.84,2.84,0,0,1-1.93.68,2.89,2.89,0,0,1-2.34-1.1,5,5,0,0,1-.89-3.17,5.19,5.19,0,0,1,.9-3.28,2.82,2.82,0,0,1,2.29-1.13,2.71,2.71,0,0,1,2.2,1.11,5.05,5.05,0,0,1,.88,3.21v.38h-5.08a3.5,3.5,0,0,0,.65,2.11,1.75,1.75,0,0,0,1.4.71C605.61,280.68,606.21,280.11,606.55,279Zm-3.79-2.28h3.79a3.11,3.11,0,0,0-.46-1.61,1.68,1.68,0,0,0-2.73-.13A2.82,2.82,0,0,0,602.76,276.7Z"/><path class="cls-4" d="M608.75,279.16l1.15-.21a2.06,2.06,0,0,0,.55,1.3,1.94,1.94,0,0,0,2.36.06,1.23,1.23,0,0,0,.41-.94.93.93,0,0,0-.35-.77,4.64,4.64,0,0,0-1.17-.47,8.28,8.28,0,0,1-1.8-.7,1.93,1.93,0,0,1-.7-.77,2.36,2.36,0,0,1-.25-1.11,2.31,2.31,0,0,1,.67-1.72,2.63,2.63,0,0,1,1.89-.67,3,3,0,0,1,1.33.28,2.06,2.06,0,0,1,.88.73,3.3,3.3,0,0,1,.42,1.32l-1.12.19a1.35,1.35,0,0,0-1.48-1.36,1.76,1.76,0,0,0-1.12.3,1,1,0,0,0-.37.77.86.86,0,0,0,.36.72,6.25,6.25,0,0,0,1.25.5,9.4,9.4,0,0,1,1.85.72,1.89,1.89,0,0,1,.66.74,2.51,2.51,0,0,1,.23,1.1,2.55,2.55,0,0,1-.76,1.93,2.8,2.8,0,0,1-2,.74C610,281.84,609,281,608.75,279.16Z"/><path class="cls-4" d="M615.31,279.16l1.15-.21a2.06,2.06,0,0,0,.55,1.3,1.68,1.68,0,0,0,1.2.43,1.65,1.65,0,0,0,1.16-.37,1.23,1.23,0,0,0,.41-.94.93.93,0,0,0-.35-.77,4.64,4.64,0,0,0-1.17-.47,8.28,8.28,0,0,1-1.8-.7,1.93,1.93,0,0,1-.7-.77,2.36,2.36,0,0,1-.25-1.11,2.28,2.28,0,0,1,.68-1.72,2.58,2.58,0,0,1,1.88-.67,2.93,2.93,0,0,1,1.33.28,2,2,0,0,1,.88.73,3.3,3.3,0,0,1,.42,1.32l-1.12.19a1.35,1.35,0,0,0-1.48-1.36,1.76,1.76,0,0,0-1.12.3,1,1,0,0,0-.36.77.85.85,0,0,0,.35.72,6.55,6.55,0,0,0,1.25.5,9.14,9.14,0,0,1,1.85.72,1.89,1.89,0,0,1,.66.74,2.51,2.51,0,0,1,.23,1.1,2.58,2.58,0,0,1-.75,1.93,2.84,2.84,0,0,1-2.06.74C616.52,281.84,615.57,281,615.31,279.16Z"/><path class="cls-4" d="M626.75,280.62a4.23,4.23,0,0,1-1.2.91,3,3,0,0,1-1.3.31,2.32,2.32,0,0,1-1.7-.64,2.37,2.37,0,0,1-.63-1.73,2.62,2.62,0,0,1,.3-1.27,2.27,2.27,0,0,1,.81-.87,4.33,4.33,0,0,1,1.56-.46,9,9,0,0,0,2.07-.49V276a1.85,1.85,0,0,0-.3-1.2,1.67,1.67,0,0,0-1.32-.5,1.83,1.83,0,0,0-1.2.33,2.21,2.21,0,0,0-.59,1.26l-1.13-.19a3.18,3.18,0,0,1,1-2,3.26,3.26,0,0,1,2.11-.61,3,3,0,0,1,1.68.41,1.71,1.71,0,0,1,.77,1,7,7,0,0,1,.16,1.74v1.87a24.27,24.27,0,0,0,.07,2.48,3.6,3.6,0,0,0,.3,1H627A3.64,3.64,0,0,1,626.75,280.62Zm-.09-3.14a7.44,7.44,0,0,1-1.89.54,3.33,3.33,0,0,0-1,.28,1.21,1.21,0,0,0-.45.45,1.37,1.37,0,0,0-.16.68,1.24,1.24,0,0,0,.37.95,1.37,1.37,0,0,0,1,.35,2,2,0,0,0,1.12-.32,2,2,0,0,0,.76-.85,4,4,0,0,0,.25-1.56Z"/><path class="cls-4" d="M629.62,281.65v-8.3h1v1.26a3.5,3.5,0,0,1,.73-1.16,1.12,1.12,0,0,1,.74-.29,2,2,0,0,1,1.18.46l-.39,1.3a1.43,1.43,0,0,0-.83-.3,1,1,0,0,0-.68.26,1.45,1.45,0,0,0-.43.71,6.79,6.79,0,0,0-.21,1.71v4.35Z"/><path class="cls-4" d="M634,271.81V270.2h1.15v1.61Zm0,9.84v-8.3h1.15v8.3Z"/><path class="cls-4" d="M636.86,281.65V270.2H638v11.45Z"/><path class="cls-4" d="M639.77,284.84l-.12-1.32a2,2,0,0,0,.66.13,1.11,1.11,0,0,0,.6-.15,1.14,1.14,0,0,0,.4-.46q0-.1.45-1.38l-2.59-8.31h1.24l1.43,4.8c.17.6.34,1.24.49,1.92.13-.64.28-1.27.47-1.89l1.45-4.83h1.16l-2.58,8.44A14.54,14.54,0,0,1,642,284a2,2,0,0,1-.66.79,1.53,1.53,0,0,1-.84.25A1.94,1.94,0,0,1,639.77,284.84Z"/><path class="cls-4" d="M650,281.65V270.2h1.15v11.45Z"/><path class="cls-4" d="M652.5,277.5a5,5,0,0,1,.9-3.24,2.91,2.91,0,0,1,4.56,0,4.79,4.79,0,0,1,.92,3.15,5.17,5.17,0,0,1-.9,3.33,2.92,2.92,0,0,1-4.57,0A5,5,0,0,1,652.5,277.5Zm1.18,0a4,4,0,0,0,.59,2.39,1.74,1.74,0,0,0,1.45.79,1.67,1.67,0,0,0,1.39-.79,4,4,0,0,0,.59-2.39,4,4,0,0,0-.59-2.39,1.75,1.75,0,0,0-1.45-.79,1.68,1.68,0,0,0-1.4.79A4,4,0,0,0,653.68,277.5Z"/><path class="cls-4" d="M660.23,281.65v-8.3h1v1.17a2.78,2.78,0,0,1,.92-1,2.35,2.35,0,0,1,1.24-.34,2.41,2.41,0,0,1,1,.22,2.05,2.05,0,0,1,.75.56,2.36,2.36,0,0,1,.43.9,7.81,7.81,0,0,1,.14,1.71v5.1h-1.15v-5a4,4,0,0,0-.16-1.34,1.3,1.3,0,0,0-1.25-.88,1.58,1.58,0,0,0-1.32.61,3.45,3.45,0,0,0-.5,2.12v4.54Z"/><path class="cls-4" d="M672.18,279l1.19.18a3.62,3.62,0,0,1-1.08,2,2.83,2.83,0,0,1-1.92.68,2.86,2.86,0,0,1-2.34-1.1,4.89,4.89,0,0,1-.9-3.17,5.13,5.13,0,0,1,.91-3.28,2.8,2.8,0,0,1,2.28-1.13,2.71,2.71,0,0,1,2.2,1.11,5.05,5.05,0,0,1,.89,3.21v.38h-5.08A3.57,3.57,0,0,0,669,280a1.75,1.75,0,0,0,1.41.71C671.24,280.68,671.84,280.11,672.18,279Zm-3.79-2.28h3.8a3.21,3.21,0,0,0-.46-1.61,1.69,1.69,0,0,0-1.42-.77A1.72,1.72,0,0,0,669,275,2.88,2.88,0,0,0,668.39,276.7Z"/><path class="cls-4" d="M674.79,281.65V270.2h1.15v11.45Z"/><path class="cls-4" d="M677.7,284.84l-.12-1.32a2,2,0,0,0,.66.13,1.11,1.11,0,0,0,.6-.15,1.14,1.14,0,0,0,.4-.46q0-.1.45-1.38l-2.59-8.31h1.24l1.43,4.8c.17.6.34,1.24.49,1.92.13-.64.28-1.27.47-1.89l1.45-4.83h1.16l-2.59,8.44A13.75,13.75,0,0,1,680,284a2,2,0,0,1-.66.79,1.53,1.53,0,0,1-.84.25A1.94,1.94,0,0,1,677.7,284.84Z"/><path class="cls-4" d="M683.71,281.65v-1.6H685v1.6a3.27,3.27,0,0,1-.28,1.46,1.85,1.85,0,0,1-.79.8l-.33-.6a1.18,1.18,0,0,0,.54-.56,2.72,2.72,0,0,0,.19-1.1Z"/><path class="cls-4" d="M558.41,296.7a5,5,0,0,1,.91-3.24,2.91,2.91,0,0,1,4.56,0,4.85,4.85,0,0,1,.91,3.15,5.17,5.17,0,0,1-.9,3.33,2.92,2.92,0,0,1-4.57,0A5,5,0,0,1,558.41,296.7Zm1.18,0a4,4,0,0,0,.59,2.39,1.74,1.74,0,0,0,1.45.79,1.7,1.7,0,0,0,1.4-.79,4,4,0,0,0,.58-2.39,4,4,0,0,0-.59-2.39,1.74,1.74,0,0,0-1.45-.79,1.69,1.69,0,0,0-1.4.79A4.08,4.08,0,0,0,559.59,296.7Z"/><path class="cls-4" d="M566.15,300.85v-8.3h1v1.26a3.5,3.5,0,0,1,.73-1.16,1.12,1.12,0,0,1,.74-.29,2,2,0,0,1,1.18.46l-.39,1.3a1.43,1.43,0,0,0-.83-.3,1,1,0,0,0-.67.26,1.32,1.32,0,0,0-.43.71,6.36,6.36,0,0,0-.22,1.71v4.35Z"/><path class="cls-4" d="M574.12,300.85V289.4h1.15v11.45Z"/><path class="cls-4" d="M576.64,296.7a5,5,0,0,1,.9-3.24,2.91,2.91,0,0,1,4.56,0,4.79,4.79,0,0,1,.92,3.15,5.17,5.17,0,0,1-.9,3.33,2.92,2.92,0,0,1-4.57,0A5,5,0,0,1,576.64,296.7Zm1.18,0a4,4,0,0,0,.59,2.39,1.74,1.74,0,0,0,1.45.79,1.67,1.67,0,0,0,1.39-.79,4,4,0,0,0,.59-2.39,4,4,0,0,0-.59-2.39,1.74,1.74,0,0,0-1.45-.79,1.68,1.68,0,0,0-1.4.79A4,4,0,0,0,577.82,296.7Z"/><path class="cls-4" d="M584.38,300.85v-8.3h1v1.17a2.78,2.78,0,0,1,.92-1,2.43,2.43,0,0,1,2.25-.12,2.05,2.05,0,0,1,.75.56,2.36,2.36,0,0,1,.43.9,7.81,7.81,0,0,1,.14,1.71v5.1h-1.15V295.8a4,4,0,0,0-.16-1.34,1.27,1.27,0,0,0-1.25-.88,1.58,1.58,0,0,0-1.32.61,3.45,3.45,0,0,0-.5,2.12v4.54Z"/><path class="cls-4" d="M591.45,301.54l1.12.2a1.43,1.43,0,0,0,.47,1,1.62,1.62,0,0,0,1.08.33,1.88,1.88,0,0,0,1.21-.36,1.92,1.92,0,0,0,.62-1.09,11.09,11.09,0,0,0,.1-1.84,2.6,2.6,0,0,1-.85.81,2,2,0,0,1-1,.27,2.49,2.49,0,0,1-2-1,5.07,5.07,0,0,1-.92-3.18,6.23,6.23,0,0,1,.4-2.34,3.33,3.33,0,0,1,1.07-1.47,2.51,2.51,0,0,1,1.48-.47,2.09,2.09,0,0,1,1.1.3,2.84,2.84,0,0,1,.88.88v-1h1.06v7.17a8.35,8.35,0,0,1-.31,2.73,2.62,2.62,0,0,1-1,1.29,3,3,0,0,1-1.72.48,2.73,2.73,0,0,1-2-.72A2.55,2.55,0,0,1,591.45,301.54Zm.95-5a4.16,4.16,0,0,0,.54,2.39,1.59,1.59,0,0,0,1.32.75,1.61,1.61,0,0,0,1.33-.73,5.21,5.21,0,0,0,0-4.68,1.7,1.7,0,0,0-1.37-.76,1.59,1.59,0,0,0-1.27.76A3.94,3.94,0,0,0,592.4,296.55Z"/><path class="cls-4" d="M599,291V289.4h1.15V291Zm0,9.84v-8.3h1.15v8.3Z"/><path class="cls-4" d="M601.88,300.85v-8.3h1v1.17a2.78,2.78,0,0,1,.92-1,2.33,2.33,0,0,1,1.24-.34,2.41,2.41,0,0,1,1,.22,2.05,2.05,0,0,1,.75.56,2.36,2.36,0,0,1,.43.9,7.81,7.81,0,0,1,.14,1.71v5.1h-1.15V295.8a4,4,0,0,0-.16-1.34,1.3,1.3,0,0,0-.49-.65,1.25,1.25,0,0,0-.77-.23,1.6,1.6,0,0,0-1.32.61,3.53,3.53,0,0,0-.49,2.12v4.54Z"/><path class="cls-4" d="M609,301.54l1.13.2a1.43,1.43,0,0,0,.47,1,1.62,1.62,0,0,0,1.08.33,1.88,1.88,0,0,0,1.21-.36,1.91,1.91,0,0,0,.61-1.09,10,10,0,0,0,.1-1.84,2.68,2.68,0,0,1-.84.81,2,2,0,0,1-1,.27,2.47,2.47,0,0,1-2-1,5,5,0,0,1-.92-3.18,6.23,6.23,0,0,1,.4-2.34,3.26,3.26,0,0,1,1.07-1.47,2.51,2.51,0,0,1,1.48-.47,2.09,2.09,0,0,1,1.1.3,2.84,2.84,0,0,1,.88.88v-1h1.06v7.17a8.64,8.64,0,0,1-.31,2.73,2.59,2.59,0,0,1-1,1.29,3,3,0,0,1-1.71.48,2.72,2.72,0,0,1-2-.72A2.6,2.6,0,0,1,609,301.54Zm1-5a4.16,4.16,0,0,0,.54,2.39,1.59,1.59,0,0,0,1.32.75,1.61,1.61,0,0,0,1.33-.73,4,4,0,0,0,.55-2.35,3.9,3.9,0,0,0-.57-2.33,1.67,1.67,0,0,0-1.37-.76,1.56,1.56,0,0,0-1.26.76A3.94,3.94,0,0,0,609.91,296.55Z"/><path class="cls-4" d="M616.84,300.85v-1.6h1.31v1.6Z"/><path class="cls-4" d="M737.86,533.65l3.62-11.45h1.33l3.85,11.45h-1.43l-1.09-3.47h-3.95l-1,3.47Zm2.69-4.7h3.2l-1-3.18c-.31-1-.53-1.76-.67-2.37a17.32,17.32,0,0,1-.51,2.19Z"/><path class="cls-4" d="M747.48,533.65v-8.3h1v1.17a2.76,2.76,0,0,1,.91-1,2.36,2.36,0,0,1,1.25-.34,2.44,2.44,0,0,1,1,.22,1.94,1.94,0,0,1,.74.56,2.22,2.22,0,0,1,.43.9,7.81,7.81,0,0,1,.14,1.71v5.1h-1.15v-5a4.34,4.34,0,0,0-.15-1.34,1.36,1.36,0,0,0-.49-.65,1.27,1.27,0,0,0-.77-.23,1.6,1.6,0,0,0-1.32.61,3.45,3.45,0,0,0-.5,2.12v4.54Z"/><path class="cls-4" d="M759.18,533.65v-1a2.42,2.42,0,0,1-.8.92,2,2,0,0,1-1.07.32,2.58,2.58,0,0,1-2.08-1.14,5.1,5.1,0,0,1-.88-3.2,6.56,6.56,0,0,1,.39-2.4,3.29,3.29,0,0,1,1-1.46,2.4,2.4,0,0,1,1.45-.48,2,2,0,0,1,1.06.3,2.58,2.58,0,0,1,.8.84v-4.1h1.17v11.45Zm-3.65-4.14a4.15,4.15,0,0,0,.56,2.39,1.6,1.6,0,0,0,1.3.78,1.56,1.56,0,0,0,1.28-.75,3.9,3.9,0,0,0,.54-2.27,4.66,4.66,0,0,0-.54-2.54,1.61,1.61,0,0,0-1.36-.8,1.52,1.52,0,0,0-1.26.77A4.46,4.46,0,0,0,755.53,529.51Z"/><path class="cls-4" d="M765.27,531.16l1.15-.21a2,2,0,0,0,.56,1.3,1.93,1.93,0,0,0,2.35.06,1.19,1.19,0,0,0,.41-.94.93.93,0,0,0-.35-.77,4.64,4.64,0,0,0-1.17-.47,8.28,8.28,0,0,1-1.8-.7,2,2,0,0,1-.7-.77,2.36,2.36,0,0,1-.25-1.11,2.31,2.31,0,0,1,.68-1.72,2.58,2.58,0,0,1,1.88-.67,2.93,2.93,0,0,1,1.33.28,2,2,0,0,1,.88.73,3,3,0,0,1,.42,1.32l-1.12.19a1.35,1.35,0,0,0-1.48-1.36,1.71,1.71,0,0,0-1.11.3.94.94,0,0,0-.37.77.87.87,0,0,0,.35.72,6.55,6.55,0,0,0,1.25.5,9.14,9.14,0,0,1,1.85.72,1.89,1.89,0,0,1,.66.74,2.51,2.51,0,0,1,.23,1.1,2.58,2.58,0,0,1-.75,1.93,2.82,2.82,0,0,1-2.06.74C766.48,533.84,765.53,533,765.27,531.16Z"/><path class="cls-4" d="M772.28,523.81V522.2h1.15v1.61Zm0,9.84v-8.3h1.15v8.3Z"/><path class="cls-4" d="M776.25,533.65h-1.07V522.2h1.16v4.08a2.66,2.66,0,0,1,.83-.84,2,2,0,0,1,1-.28,2.38,2.38,0,0,1,1.45.48,3.27,3.27,0,0,1,1.05,1.45,6.28,6.28,0,0,1,.39,2.35,5.22,5.22,0,0,1-.89,3.25,2.59,2.59,0,0,1-2.06,1.15,1.94,1.94,0,0,1-1.07-.31,2.56,2.56,0,0,1-.82-.92Zm0-4.21a5.85,5.85,0,0,0,.24,1.93,2.12,2.12,0,0,0,.66,1,1.5,1.5,0,0,0,1,.34,1.55,1.55,0,0,0,1.26-.8,5.49,5.49,0,0,0,0-4.79,1.56,1.56,0,0,0-1.3-.77,1.59,1.59,0,0,0-1.28.8A4.08,4.08,0,0,0,776.23,529.44Z"/><path class="cls-4" d="M782.45,533.65V522.2h1.15v11.45Z"/><path class="cls-4" d="M785.41,523.81V522.2h1.14v1.61Zm0,9.84v-8.3h1.14v8.3Z"/><path class="cls-4" d="M788.32,533.65v-8.3h1v1.17a2.7,2.7,0,0,1,.92-1,2.33,2.33,0,0,1,1.24-.34,2.44,2.44,0,0,1,1,.22,2.05,2.05,0,0,1,.75.56,2.21,2.21,0,0,1,.42.9,7.23,7.23,0,0,1,.14,1.71v5.1H792.7v-5a4.28,4.28,0,0,0-.16-1.34,1.36,1.36,0,0,0-.49-.65,1.27,1.27,0,0,0-.77-.23A1.6,1.6,0,0,0,790,527a3.46,3.46,0,0,0-.49,2.12v4.54Z"/><path class="cls-4" d="M795.39,534.34l1.13.2a1.43,1.43,0,0,0,.46,1,1.67,1.67,0,0,0,1.09.33,1.88,1.88,0,0,0,1.21-.36,1.91,1.91,0,0,0,.61-1.09,10,10,0,0,0,.1-1.84,2.68,2.68,0,0,1-.84.81,2,2,0,0,1-1,.27,2.47,2.47,0,0,1-2-1,5,5,0,0,1-.93-3.18,6.23,6.23,0,0,1,.41-2.34,3.26,3.26,0,0,1,1.07-1.47,2.51,2.51,0,0,1,1.48-.47,2.05,2.05,0,0,1,1.09.3,2.64,2.64,0,0,1,.88.88v-1h1.07v7.17a8.28,8.28,0,0,1-.32,2.73,2.57,2.57,0,0,1-1,1.29,3,3,0,0,1-1.71.48,2.72,2.72,0,0,1-2-.72A2.57,2.57,0,0,1,795.39,534.34Zm1-5a4.16,4.16,0,0,0,.54,2.39,1.57,1.57,0,0,0,2.66,0,4,4,0,0,0,.55-2.35,3.9,3.9,0,0,0-.57-2.33,1.67,1.67,0,0,0-1.37-.76,1.56,1.56,0,0,0-1.26.76A3.94,3.94,0,0,0,796.34,529.35Z"/><path class="cls-4" d="M802.47,531.16l1.15-.21a2,2,0,0,0,.55,1.3,1.94,1.94,0,0,0,2.36.06,1.23,1.23,0,0,0,.41-.94.93.93,0,0,0-.35-.77,5,5,0,0,0-1.18-.47,8.35,8.35,0,0,1-1.79-.7,2,2,0,0,1-.71-.77,2.48,2.48,0,0,1-.25-1.11,2.31,2.31,0,0,1,.68-1.72,2.61,2.61,0,0,1,1.89-.67,3,3,0,0,1,1.33.28,2.13,2.13,0,0,1,.88.73,3.3,3.3,0,0,1,.42,1.32l-1.13.19a1.34,1.34,0,0,0-1.47-1.36,1.76,1.76,0,0,0-1.12.3,1,1,0,0,0-.37.77.86.86,0,0,0,.36.72,6.25,6.25,0,0,0,1.25.5,9.4,9.4,0,0,1,1.85.72,1.8,1.8,0,0,1,.65.74,2.38,2.38,0,0,1,.24,1.1,2.55,2.55,0,0,1-.76,1.93,2.82,2.82,0,0,1-2.06.74C803.67,533.84,802.73,533,802.47,531.16Z"/><path class="cls-4" d="M813.12,533.65v-8.3h1v1.17a2.78,2.78,0,0,1,.92-1,2.43,2.43,0,0,1,2.25-.12,2.05,2.05,0,0,1,.75.56,2.36,2.36,0,0,1,.43.9,7.81,7.81,0,0,1,.14,1.71v5.1H817.5v-5a4,4,0,0,0-.16-1.34,1.27,1.27,0,0,0-1.25-.88,1.58,1.58,0,0,0-1.32.61,3.45,3.45,0,0,0-.5,2.12v4.54Z"/><path class="cls-4" d="M825.07,531l1.19.18a3.62,3.62,0,0,1-1.08,2,2.82,2.82,0,0,1-1.92.68,2.86,2.86,0,0,1-2.34-1.1,4.89,4.89,0,0,1-.9-3.17,5.13,5.13,0,0,1,.91-3.28,2.8,2.8,0,0,1,2.28-1.13,2.69,2.69,0,0,1,2.2,1.11,5.05,5.05,0,0,1,.89,3.21v.38h-5.08a3.57,3.57,0,0,0,.65,2.11,1.77,1.77,0,0,0,1.41.71C824.13,532.68,824.73,532.11,825.07,531Zm-3.79-2.28h3.8a3.21,3.21,0,0,0-.46-1.61,1.69,1.69,0,0,0-1.42-.77,1.72,1.72,0,0,0-1.32.64A2.88,2.88,0,0,0,821.28,528.7Z"/><path class="cls-4" d="M829.62,533.65l-2.59-8.3h1.22l1.46,5c.17.56.32,1.12.44,1.67.1-.44.24-1,.43-1.58l1.51-5.06h1.19l-2.59,8.3Z"/><path class="cls-4" d="M838.93,531l1.19.18a3.62,3.62,0,0,1-1.08,2,2.83,2.83,0,0,1-1.92.68,2.86,2.86,0,0,1-2.34-1.1,4.89,4.89,0,0,1-.9-3.17,5.13,5.13,0,0,1,.91-3.28,2.8,2.8,0,0,1,2.28-1.13,2.71,2.71,0,0,1,2.2,1.11,5.05,5.05,0,0,1,.89,3.21v.38h-5.08a3.57,3.57,0,0,0,.65,2.11,1.75,1.75,0,0,0,1.4.71C838,532.68,838.59,532.11,838.93,531Zm-3.79-2.28h3.8a3.21,3.21,0,0,0-.46-1.61,1.69,1.69,0,0,0-1.42-.77,1.72,1.72,0,0,0-1.32.64A2.88,2.88,0,0,0,835.14,528.7Z"/><path class="cls-4" d="M841.58,533.65v-8.3h1v1.26a3.5,3.5,0,0,1,.73-1.16,1.12,1.12,0,0,1,.74-.29,2,2,0,0,1,1.18.46l-.39,1.3a1.43,1.43,0,0,0-.83-.3,1,1,0,0,0-.67.26,1.32,1.32,0,0,0-.43.71,6.36,6.36,0,0,0-.22,1.71v4.35Z"/><path class="cls-4" d="M849.59,533.65V522.2h1.15v4.1a2.82,2.82,0,0,1,.92-.85,2.29,2.29,0,0,1,1.13-.29,2.17,2.17,0,0,1,1.71.7,3.8,3.8,0,0,1,.63,2.53v5.26H854v-5.26a2.45,2.45,0,0,0-.38-1.55,1.27,1.27,0,0,0-1.05-.46,1.64,1.64,0,0,0-1.28.6,3.28,3.28,0,0,0-.53,2.13v4.54Z"/><path class="cls-4" d="M861.32,532.62a4.23,4.23,0,0,1-1.2.91,3,3,0,0,1-1.3.31,2.32,2.32,0,0,1-1.7-.64,2.37,2.37,0,0,1-.63-1.73,2.62,2.62,0,0,1,.3-1.27,2.27,2.27,0,0,1,.81-.87,4.33,4.33,0,0,1,1.56-.46,9,9,0,0,0,2.07-.49V528a1.85,1.85,0,0,0-.3-1.2,1.67,1.67,0,0,0-1.32-.5,1.83,1.83,0,0,0-1.2.33,2.21,2.21,0,0,0-.59,1.26l-1.13-.19a3.18,3.18,0,0,1,1-2,3.26,3.26,0,0,1,2.11-.61,3,3,0,0,1,1.68.41,1.71,1.71,0,0,1,.77,1,7,7,0,0,1,.16,1.74v1.87c0,1.31,0,2.14.07,2.48a3.6,3.6,0,0,0,.3,1h-1.21A3.64,3.64,0,0,1,861.32,532.62Zm-.09-3.14a7.44,7.44,0,0,1-1.89.54,3.33,3.33,0,0,0-1,.28,1.21,1.21,0,0,0-.45.45,1.37,1.37,0,0,0-.16.68,1.24,1.24,0,0,0,.37,1,1.37,1.37,0,0,0,1,.35,2,2,0,0,0,1.12-.32,2,2,0,0,0,.76-.85,4,4,0,0,0,.25-1.56Z"/><path class="cls-4" d="M866.09,533.65l-2.59-8.3h1.22l1.46,5c.17.56.32,1.12.44,1.67.1-.44.24-1,.42-1.58l1.52-5.06h1.19l-2.59,8.3Z"/><path class="cls-4" d="M875.4,531l1.19.18a3.62,3.62,0,0,1-1.08,2,2.83,2.83,0,0,1-1.92.68,2.86,2.86,0,0,1-2.34-1.1,4.89,4.89,0,0,1-.9-3.17,5.19,5.19,0,0,1,.9-3.28,2.84,2.84,0,0,1,2.29-1.13,2.71,2.71,0,0,1,2.2,1.11,5.05,5.05,0,0,1,.88,3.21v.38h-5.08a3.57,3.57,0,0,0,.65,2.11,1.75,1.75,0,0,0,1.4.71C874.46,532.68,875.06,532.11,875.4,531Zm-3.79-2.28h3.8a3.32,3.32,0,0,0-.46-1.61,1.69,1.69,0,0,0-2.74-.13A2.88,2.88,0,0,0,871.61,528.7Z"/><path class="cls-4" d="M741.29,551.59l.16,1.24a3.21,3.21,0,0,1-.86.13,1.72,1.72,0,0,1-1-.24,1.21,1.21,0,0,1-.51-.65,6.54,6.54,0,0,1-.13-1.65v-4.77h-.85v-1.1H739v-2l1.14-.85v2.9h1.17v1.1h-1.17v4.85a2.14,2.14,0,0,0,.11.86.56.56,0,0,0,.55.29A2.86,2.86,0,0,0,741.29,551.59Z"/><path class="cls-4" d="M742.38,552.85V541.4h1.14v4.1a2.82,2.82,0,0,1,.92-.85,2.29,2.29,0,0,1,1.13-.29,2.2,2.2,0,0,1,1.72.7,3.87,3.87,0,0,1,.62,2.53v5.26h-1.14v-5.26a2.45,2.45,0,0,0-.39-1.55,1.27,1.27,0,0,0-1-.46,1.64,1.64,0,0,0-1.28.6,3.28,3.28,0,0,0-.53,2.13v4.54Z"/><path class="cls-4" d="M754.32,550.18l1.19.18a3.62,3.62,0,0,1-1.08,2,2.82,2.82,0,0,1-1.92.68,2.86,2.86,0,0,1-2.34-1.1,4.89,4.89,0,0,1-.9-3.17,5.13,5.13,0,0,1,.91-3.28,2.8,2.8,0,0,1,2.28-1.13,2.69,2.69,0,0,1,2.2,1.11,5.05,5.05,0,0,1,.89,3.21v.38h-5.08a3.57,3.57,0,0,0,.65,2.11,1.77,1.77,0,0,0,1.41.71C753.38,551.88,754,551.31,754.32,550.18Zm-3.79-2.28h3.8a3.21,3.21,0,0,0-.46-1.61,1.68,1.68,0,0,0-2.74-.12A2.83,2.83,0,0,0,750.53,547.9Z"/><path class="cls-4" d="M760.17,550.36l1.15-.21a2.06,2.06,0,0,0,.55,1.3,1.94,1.94,0,0,0,2.36.06,1.23,1.23,0,0,0,.41-.94.93.93,0,0,0-.35-.77,4.64,4.64,0,0,0-1.17-.47,8.28,8.28,0,0,1-1.8-.7,1.93,1.93,0,0,1-.7-.77,2.36,2.36,0,0,1-.25-1.11,2.28,2.28,0,0,1,.68-1.72,2.58,2.58,0,0,1,1.88-.67,3.1,3.1,0,0,1,1.33.28,2.06,2.06,0,0,1,.88.73,3.3,3.3,0,0,1,.42,1.32l-1.12.19a1.35,1.35,0,0,0-1.48-1.36,1.76,1.76,0,0,0-1.12.3,1,1,0,0,0-.36.77.85.85,0,0,0,.35.72,6.55,6.55,0,0,0,1.25.5,9.14,9.14,0,0,1,1.85.72,1.89,1.89,0,0,1,.66.74,2.53,2.53,0,0,1,.23,1.11,2.57,2.57,0,0,1-.75,1.92A2.84,2.84,0,0,1,763,553C761.38,553,760.43,552.15,760.17,550.36Z"/><path class="cls-4" d="M771.61,551.83a4.38,4.38,0,0,1-1.2.9,3,3,0,0,1-1.3.31,2.32,2.32,0,0,1-1.7-.64,2.37,2.37,0,0,1-.63-1.73,2.62,2.62,0,0,1,.3-1.27,2.27,2.27,0,0,1,.81-.87,4.2,4.2,0,0,1,1.56-.46,9,9,0,0,0,2.07-.49v-.36a1.85,1.85,0,0,0-.3-1.2,1.67,1.67,0,0,0-1.32-.5,1.83,1.83,0,0,0-1.2.33,2.15,2.15,0,0,0-.59,1.26l-1.13-.19a3.13,3.13,0,0,1,1-1.95,3.26,3.26,0,0,1,2.11-.61,3,3,0,0,1,1.68.41,1.74,1.74,0,0,1,.77,1,7,7,0,0,1,.16,1.74v1.87a24.27,24.27,0,0,0,.07,2.48,3.6,3.6,0,0,0,.3,1h-1.21A3.65,3.65,0,0,1,771.61,551.83Zm-.09-3.15a7.44,7.44,0,0,1-1.89.54,3.33,3.33,0,0,0-1,.28,1.08,1.08,0,0,0-.45.45,1.39,1.39,0,0,0-.16.68,1.24,1.24,0,0,0,.37,1,1.37,1.37,0,0,0,1,.35,2,2,0,0,0,1.12-.32,2,2,0,0,0,.76-.85,4,4,0,0,0,.25-1.56Z"/><path class="cls-4" d="M774.48,552.85v-8.3h1v1.16a2.61,2.61,0,0,1,.88-1,2.14,2.14,0,0,1,1.17-.35,1.86,1.86,0,0,1,1.92,1.45,3.27,3.27,0,0,1,.94-1.08,2,2,0,0,1,1.17-.37,1.94,1.94,0,0,1,1.55.67,3.28,3.28,0,0,1,.56,2.12v5.7h-1.15v-5.23a4.19,4.19,0,0,0-.13-1.27,1.11,1.11,0,0,0-1.07-.77,1.48,1.48,0,0,0-1.22.59,3,3,0,0,0-.47,1.85v4.83h-1.15v-5.4a2.49,2.49,0,0,0-.31-1.45,1,1,0,0,0-.87-.42,1.45,1.45,0,0,0-1.25.63,4.29,4.29,0,0,0-.46,2.33v4.31Z"/><path class="cls-4" d="M790.05,550.18l1.19.18a3.61,3.61,0,0,1-1.07,2,2.84,2.84,0,0,1-1.93.68,2.89,2.89,0,0,1-2.34-1.1,5,5,0,0,1-.89-3.17,5.19,5.19,0,0,1,.9-3.28,2.81,2.81,0,0,1,2.29-1.13,2.71,2.71,0,0,1,2.2,1.11,5.05,5.05,0,0,1,.88,3.21v.38H786.2a3.57,3.57,0,0,0,.64,2.11,1.78,1.78,0,0,0,1.41.71C789.11,551.88,789.72,551.31,790.05,550.18Zm-3.78-2.28h3.79a3.11,3.11,0,0,0-.46-1.61,1.68,1.68,0,0,0-1.41-.77,1.67,1.67,0,0,0-1.32.65A2.71,2.71,0,0,0,786.27,547.9Z"/><path class="cls-4" d="M796.35,552.85v-8.3h1v1.17a2.78,2.78,0,0,1,.92-1,2.33,2.33,0,0,1,1.24-.34,2.41,2.41,0,0,1,1,.22,2.05,2.05,0,0,1,.75.56,2.21,2.21,0,0,1,.42.9,7.11,7.11,0,0,1,.15,1.71v5.1h-1.15V547.8a4.28,4.28,0,0,0-.16-1.34,1.3,1.3,0,0,0-.49-.65,1.27,1.27,0,0,0-.77-.23,1.6,1.6,0,0,0-1.32.61,3.46,3.46,0,0,0-.49,2.12v4.54Z"/><path class="cls-4" d="M808.08,551.83a4.38,4.38,0,0,1-1.2.9,3,3,0,0,1-1.3.31,2.31,2.31,0,0,1-1.7-.64,2.37,2.37,0,0,1-.63-1.73,2.62,2.62,0,0,1,.3-1.27,2.27,2.27,0,0,1,.81-.87,4.2,4.2,0,0,1,1.56-.46,8.74,8.74,0,0,0,2.06-.49v-.36a1.85,1.85,0,0,0-.3-1.2,1.67,1.67,0,0,0-1.32-.5,1.88,1.88,0,0,0-1.21.33,2.21,2.21,0,0,0-.58,1.26l-1.13-.19a3.13,3.13,0,0,1,1-1.95,3.26,3.26,0,0,1,2.11-.61,3,3,0,0,1,1.68.41,1.79,1.79,0,0,1,.77,1,7.53,7.53,0,0,1,.16,1.74v1.87a24.27,24.27,0,0,0,.07,2.48,3.6,3.6,0,0,0,.3,1h-1.21A3.33,3.33,0,0,1,808.08,551.83Zm-.1-3.15a7.34,7.34,0,0,1-1.88.54,3.33,3.33,0,0,0-1,.28,1.08,1.08,0,0,0-.45.45,1.39,1.39,0,0,0-.16.68,1.27,1.27,0,0,0,.36,1,1.41,1.41,0,0,0,1,.35,2,2,0,0,0,1.12-.32,1.87,1.87,0,0,0,.75-.85,3.78,3.78,0,0,0,.25-1.56Z"/><path class="cls-4" d="M811,552.85v-8.3h1v1.16a2.71,2.71,0,0,1,.89-1,2.11,2.11,0,0,1,1.17-.35,1.86,1.86,0,0,1,1.92,1.45,3.16,3.16,0,0,1,.94-1.08,2.09,2.09,0,0,1,2.72.3,3.28,3.28,0,0,1,.56,2.12v5.7H819v-5.23a4.19,4.19,0,0,0-.13-1.27,1.11,1.11,0,0,0-.42-.57,1.07,1.07,0,0,0-.65-.2,1.48,1.48,0,0,0-1.22.59,3,3,0,0,0-.47,1.85v4.83H815v-5.4a2.49,2.49,0,0,0-.31-1.45,1.06,1.06,0,0,0-.88-.42,1.45,1.45,0,0,0-1.24.63,4.2,4.2,0,0,0-.46,2.33v4.31Z"/><path class="cls-4" d="M826.52,550.18l1.19.18a3.61,3.61,0,0,1-1.07,2,2.84,2.84,0,0,1-1.93.68,2.89,2.89,0,0,1-2.34-1.1,4.89,4.89,0,0,1-.89-3.17,5.19,5.19,0,0,1,.9-3.28,2.8,2.8,0,0,1,2.28-1.13,2.72,2.72,0,0,1,2.21,1.11,5.05,5.05,0,0,1,.88,3.21v.38h-5.08a3.64,3.64,0,0,0,.65,2.11,1.78,1.78,0,0,0,1.41.71C825.58,551.88,826.18,551.31,826.52,550.18Zm-3.79-2.28h3.8a3.11,3.11,0,0,0-.46-1.61,1.68,1.68,0,0,0-1.41-.77,1.67,1.67,0,0,0-1.32.65A2.77,2.77,0,0,0,822.73,547.9Z"/><path class="cls-4" d="M829.53,552.85v-1.6h1.31v1.6Z"/><path class="cls-4" d="M918.7,279l1.1-.12c.18,1.2.7,1.81,1.57,1.81a1.59,1.59,0,0,0,1-.4,3.07,3.07,0,0,0,.8-1.4,7.58,7.58,0,0,0,.33-2.35v-.28a3,3,0,0,1-1,1.1,2.24,2.24,0,0,1-1.24.41,2.49,2.49,0,0,1-2-1,4.14,4.14,0,0,1-.84-2.74,4.28,4.28,0,0,1,.87-2.84,2.62,2.62,0,0,1,3.73-.45,3.69,3.69,0,0,1,1.17,1.7,9.73,9.73,0,0,1,.41,3.24,12.07,12.07,0,0,1-.44,3.67,4,4,0,0,1-1.21,1.9,2.7,2.7,0,0,1-1.71.6,2.41,2.41,0,0,1-1.79-.73A3.41,3.41,0,0,1,918.7,279Zm4.72-5.06a3,3,0,0,0-.55-1.93,1.57,1.57,0,0,0-1.26-.71,1.64,1.64,0,0,0-1.32.76,3.15,3.15,0,0,0-.59,2,2.7,2.7,0,0,0,.56,1.79,1.66,1.66,0,0,0,1.33.67,1.61,1.61,0,0,0,1.3-.67A3,3,0,0,0,923.42,273.94Z"/><path class="cls-4" d="M930.16,281.65H929v-9a6.08,6.08,0,0,1-1.07.95,6.3,6.3,0,0,1-1.24.74V273a7.1,7.1,0,0,0,1.69-1.33,5.06,5.06,0,0,0,1-1.54h.75Z"/><path class="cls-4" d="M918.7,279l1.1-.12c.18,1.2.7,1.81,1.57,1.81a1.59,1.59,0,0,0,1-.4,3.07,3.07,0,0,0,.8-1.4,7.58,7.58,0,0,0,.33-2.35v-.28a3,3,0,0,1-1,1.1,2.24,2.24,0,0,1-1.24.41,2.49,2.49,0,0,1-2-1,4.14,4.14,0,0,1-.84-2.74,4.28,4.28,0,0,1,.87-2.84,2.62,2.62,0,0,1,3.73-.45,3.69,3.69,0,0,1,1.17,1.7,9.73,9.73,0,0,1,.41,3.24,12.07,12.07,0,0,1-.44,3.67,4,4,0,0,1-1.21,1.9,2.7,2.7,0,0,1-1.71.6,2.41,2.41,0,0,1-1.79-.73A3.41,3.41,0,0,1,918.7,279Zm4.72-5.06a3,3,0,0,0-.55-1.93,1.57,1.57,0,0,0-1.26-.71,1.64,1.64,0,0,0-1.32.76,3.15,3.15,0,0,0-.59,2,2.7,2.7,0,0,0,.56,1.79,1.66,1.66,0,0,0,1.33.67,1.61,1.61,0,0,0,1.3-.67A3,3,0,0,0,923.42,273.94Z"/><path class="cls-4" d="M930.16,281.65H929v-9a6.08,6.08,0,0,1-1.07.95,6.3,6.3,0,0,1-1.24.74V273a7.1,7.1,0,0,0,1.69-1.33,5.06,5.06,0,0,0,1-1.54h.75Z"/><g class="cls-2"><path class="cls-3" d="M198.12,556.72v1.51l1.12-1.51s10.17-10.24,14.38-14,36.83-18.38,36.83-18.38L265,520"/><path class="cls-3" d="M266.13,456c0-.1,0-.21-.05-.32.7-.95,2.1.05,2.83.22a20,20,0,0,1,3.9,1.05,7.74,7.74,0,0,0,3.26.53c1.29,0,2.55-.64,3.84-.74s2.55.06,3.82,0c.85,0,1.51.71,2.35.7a16.42,16.42,0,0,1,6.46.74,5.29,5.29,0,0,0,3.88.41,11.34,11.34,0,0,0,1.55-.79c.43-.25.92-.14,1.32-.51s.27-.49.61-.55c.6-.1,1.2.09,1.8,0,1.34-.16,2.67-.83,4-.8,1.53,0,3.06,0,4.59,0,2,0,3.8,1.48,5.76,1.48H321a4,4,0,0,0,2.05-.11c1.31-.69,2.45-2.11,3.81-2.17,1.8-.07,3.6-.4,5.4-.35a2.3,2.3,0,0,0,1.77-.64c.5-.48,1-1.88,1.57-1.7"/><path class="cls-3" d="M280.61,580.09c.16,8.93-.18,17.59-.5,26.42"/><path class="cls-3" d="M280.92,638.06c.05,12.91.46,26.74-1.32,38.83q-1,5.19-1.91,10.37c-.15,1-.21,1.89-.37,2.81"/><path class="cls-3" d="M274.06,707.12c2.33-12.37,4.41-26.52,8.5-34.29"/><path class="cls-3" d="M264,713.29l-.63.54,1.63-2.09q15.31-11.47,31.07-14.78c10.84-2.73,21.31-2.54,32.11-1.83"/><path class="cls-3" d="M259.91,743.23c-.05.31-.11.62-.17.93A91.36,91.36,0,0,0,290,747.4q19.59-.69,39.16-2.31a17.56,17.56,0,0,1,11.74,2.41c.73,1.09,1,1.75,1,4.21l-.12.23"/></g><line class="cls-3" x1="292.98" y1="749.54" x2="296.34" y2="749.54"/><g class="cls-2"><path class="cls-3" d="M289.15,677.59s.61-4.8.61-5.28v-7.44s-.3-3.6-.3-4.32,3.78-20.16,3.78-20.16"/><path class="cls-3" d="M292.54,656.71s-3.39-17.28-3.39-19v-4.08l.61-7.44s-.61-5.28-.61-6.24v-5.76c0-4.08-.49-32.16-.49-32.16V549h0v-4.32h0c0-.72-1.11-2.64,0-2.64v-1H298.8l1.88-1H292.8l-1-.72h-3.14"/></g></g></svg>