<svg id="Layer_1" data-name="Layer 1" xmlns="http://www.w3.org/2000/svg" xmlns:xlink="http://www.w3.org/1999/xlink" viewBox="0 0 1080 756"><defs><style>.cls-1,.cls-3{fill:none;}.cls-2{clip-path:url(#clip-path);}.cls-3{stroke:#231f20;stroke-width:0.25px;}.cls-4{fill:#231f20;}</style><clipPath id="clip-path"><rect class="cls-1" width="1080" height="756"/></clipPath></defs><title>Untitled-3</title><g class="cls-2"><g class="cls-2"><line class="cls-3" x1="180" y1="-18.36" x2="180" y2="790.92"/><line class="cls-3" x1="720" y1="-20.88" x2="720" y2="788.4"/><line class="cls-3" x1="359.88" y1="-18.36" x2="359.88" y2="790.92"/><line class="cls-3" x1="899.87" y1="-20.88" x2="899.87" y2="788.4"/><line class="cls-3" x1="-16.92" y1="251.88" x2="1101.6" y2="251.88"/><line class="cls-3" x1="-11.52" y1="504.13" x2="1107" y2="504.13"/><line class="cls-3" x1="540" y1="-19.44" x2="540" y2="789.84"/></g><path class="cls-4" d="M198.4,530.65l1.21-.13a2.88,2.88,0,0,0,.64,1.63,1.5,1.5,0,0,0,1.15.53,1.74,1.74,0,0,0,1.41-.75,3.22,3.22,0,0,0,.6-2.06,2.89,2.89,0,0,0-.58-1.91,1.8,1.8,0,0,0-1.44-.67,1.73,1.73,0,0,0-1,.29,2.05,2.05,0,0,0-.72.82l-1.09-.17.92-5.89h4.66v1.34h-3.75l-.5,3.09a2.7,2.7,0,0,1,1.77-.73,2.64,2.64,0,0,1,2.05,1,4,4,0,0,1,.87,2.71,4.77,4.77,0,0,1-.87,2.88,2.89,2.89,0,0,1-4.39.35A3.59,3.59,0,0,1,198.4,530.65Z"/><path class="cls-4" d="M207.48,527.43a2.37,2.37,0,0,1-1-.89,2.8,2.8,0,0,1-.35-1.45,3,3,0,0,1,.77-2.13,2.69,2.69,0,0,1,3.87,0,3.09,3.09,0,0,1,.77,2.16,2.69,2.69,0,0,1-.34,1.4,2.29,2.29,0,0,1-1,.89,2.61,2.61,0,0,1,1.31,1.09,4,4,0,0,1-.43,4.36,3,3,0,0,1-4.41,0,3.62,3.62,0,0,1-.88-2.54,3.45,3.45,0,0,1,.47-1.9A2.37,2.37,0,0,1,207.48,527.43Zm-.6,2.91a2.47,2.47,0,0,0,.56,1.7,1.74,1.74,0,0,0,1.35.64,1.72,1.72,0,0,0,1.35-.62,2.43,2.43,0,0,0,.56-1.67,2.46,2.46,0,0,0-.57-1.7,1.78,1.78,0,0,0-1.37-.65,1.74,1.74,0,0,0-1.34.64A2.49,2.49,0,0,0,206.88,530.34Zm.38-5.29a2,2,0,0,0,.44,1.34,1.42,1.42,0,0,0,1.09.5,1.44,1.44,0,0,0,1.08-.49,1.85,1.85,0,0,0,.44-1.27,1.92,1.92,0,0,0-.45-1.32,1.42,1.42,0,0,0-1.08-.51,1.38,1.38,0,0,0-1.07.5A1.79,1.79,0,0,0,207.26,525.05Z"/><path class="cls-4" d="M743.24,278.61l1.13.18a3.76,3.76,0,0,1-1,2.27,2.57,2.57,0,0,1-1.89.78,2.66,2.66,0,0,1-2.19-1.1,6.49,6.49,0,0,1,0-6.49,2.75,2.75,0,0,1,2.24-1.08,2.59,2.59,0,0,1,1.78.65,3.23,3.23,0,0,1,.92,2l-1.11.21a2.47,2.47,0,0,0-.57-1.26,1.32,1.32,0,0,0-1-.42,1.67,1.67,0,0,0-1.41.76,4.06,4.06,0,0,0-.56,2.39,4.29,4.29,0,0,0,.54,2.45,1.59,1.59,0,0,0,1.37.76,1.48,1.48,0,0,0,1.12-.5A2.74,2.74,0,0,0,743.24,278.61Z"/><path class="cls-4" d="M744.91,277.5a5,5,0,0,1,.9-3.24,2.93,2.93,0,0,1,4.56,0,4.8,4.8,0,0,1,.92,3.16,5.17,5.17,0,0,1-.9,3.33,2.93,2.93,0,0,1-4.57,0A5,5,0,0,1,744.91,277.5Zm1.18,0a4,4,0,0,0,.59,2.4,1.75,1.75,0,0,0,1.45.78,1.67,1.67,0,0,0,1.39-.79,4,4,0,0,0,.59-2.39,4,4,0,0,0-.59-2.39,1.74,1.74,0,0,0-1.45-.79,1.7,1.7,0,0,0-1.4.79A4,4,0,0,0,746.09,277.5Z"/><path class="cls-4" d="M752.65,281.65v-8.3h1v1.18a2.74,2.74,0,0,1,.92-1,2.35,2.35,0,0,1,1.24-.33,2.37,2.37,0,0,1,1,.21,2.17,2.17,0,0,1,.75.56,2.48,2.48,0,0,1,.43.91,7.71,7.71,0,0,1,.14,1.7v5.1H757v-5a4,4,0,0,0-.16-1.34,1.28,1.28,0,0,0-.48-.65,1.37,1.37,0,0,0-.77-.23,1.56,1.56,0,0,0-1.32.62,3.43,3.43,0,0,0-.5,2.12v4.53Z"/><path class="cls-4" d="M762.5,280.39l.16,1.25a3.54,3.54,0,0,1-.86.12,1.76,1.76,0,0,1-1-.24,1.2,1.2,0,0,1-.5-.65,6.39,6.39,0,0,1-.14-1.65v-4.77h-.84v-1.1h.84V271.3l1.15-.84v2.89h1.16v1.1h-1.16v4.85a2.49,2.49,0,0,0,.1.87.59.59,0,0,0,.56.28A2.67,2.67,0,0,0,762.5,280.39Z"/><path class="cls-4" d="M763.59,281.65v-8.3h1v1.26a3.67,3.67,0,0,1,.73-1.16,1.11,1.11,0,0,1,.75-.28,2,2,0,0,1,1.18.45l-.39,1.3a1.49,1.49,0,0,0-.84-.3,1,1,0,0,0-.67.26,1.31,1.31,0,0,0-.43.72,6.26,6.26,0,0,0-.22,1.71v4.34Z"/><path class="cls-4" d="M767.52,277.5a5,5,0,0,1,.9-3.24,2.93,2.93,0,0,1,4.56,0,4.8,4.8,0,0,1,.92,3.16,5.17,5.17,0,0,1-.9,3.33,2.93,2.93,0,0,1-4.57,0A5,5,0,0,1,767.52,277.5Zm1.18,0a4,4,0,0,0,.59,2.4,1.75,1.75,0,0,0,1.45.78,1.67,1.67,0,0,0,1.39-.79,4,4,0,0,0,.59-2.39,4,4,0,0,0-.59-2.39,1.75,1.75,0,0,0-1.45-.79,1.7,1.7,0,0,0-1.4.79A4,4,0,0,0,768.7,277.5Z"/><path class="cls-4" d="M775.22,281.65V270.2h1.14v11.45Z"/><path class="cls-4" d="M784.38,280.39l.16,1.25a3.61,3.61,0,0,1-.86.12,1.74,1.74,0,0,1-1-.24,1.18,1.18,0,0,1-.51-.65,6.54,6.54,0,0,1-.13-1.65v-4.77h-.85v-1.1h.85V271.3l1.15-.84v2.89h1.16v1.1h-1.16v4.85a2.26,2.26,0,0,0,.1.87.58.58,0,0,0,.55.28A2.86,2.86,0,0,0,784.38,280.39Z"/><path class="cls-4" d="M785,277.5a5,5,0,0,1,.9-3.24,2.93,2.93,0,0,1,4.56,0,4.8,4.8,0,0,1,.91,3.16,5.17,5.17,0,0,1-.9,3.33,2.92,2.92,0,0,1-4.56,0A5,5,0,0,1,785,277.5Zm1.18,0a4,4,0,0,0,.58,2.4,1.77,1.77,0,0,0,1.46.78,1.69,1.69,0,0,0,1.39-.79,4,4,0,0,0,.58-2.39,4,4,0,0,0-.58-2.39,1.75,1.75,0,0,0-1.46-.79,1.7,1.7,0,0,0-1.39.79A4,4,0,0,0,786.21,277.5Z"/><path class="cls-4" d="M794,281.65l-2.09-8.3h1.19l1.08,4.79.4,1.78.36-1.71,1.08-4.86h1.19l1,4.82.35,1.58.39-1.6,1.16-4.8h1.12l-2.12,8.3h-1.2l-1.09-5-.26-1.41-1.37,6.38Z"/><path class="cls-4" d="M806.88,279l1.19.18a3.62,3.62,0,0,1-1.08,2,2.83,2.83,0,0,1-1.92.68,2.86,2.86,0,0,1-2.34-1.1,4.89,4.89,0,0,1-.9-3.17,5.08,5.08,0,0,1,.91-3.27,2.78,2.78,0,0,1,2.28-1.13,2.71,2.71,0,0,1,2.2,1.11,5.05,5.05,0,0,1,.89,3.21v.37H803a3.57,3.57,0,0,0,.65,2.11,1.72,1.72,0,0,0,1.41.71C805.94,280.68,806.54,280.12,806.88,279Zm-3.79-2.27h3.8a3.18,3.18,0,0,0-.46-1.61,1.67,1.67,0,0,0-1.42-.78,1.69,1.69,0,0,0-1.32.65A2.88,2.88,0,0,0,803.09,276.71Z"/><path class="cls-4" d="M809.53,281.65v-8.3h1v1.26a3.5,3.5,0,0,1,.73-1.16,1.1,1.1,0,0,1,.74-.28,2,2,0,0,1,1.18.45l-.39,1.3a1.43,1.43,0,0,0-.83-.3,1,1,0,0,0-.67.26,1.31,1.31,0,0,0-.43.72,6.26,6.26,0,0,0-.22,1.71v4.34Z"/><path class="cls-4" d="M817.1,279.17l1.15-.22a2,2,0,0,0,.55,1.3,1.94,1.94,0,0,0,2.36.06,1.23,1.23,0,0,0,.41-.94.94.94,0,0,0-.35-.77,4.66,4.66,0,0,0-1.18-.46,8.79,8.79,0,0,1-1.79-.71,2,2,0,0,1-.71-.77,2.44,2.44,0,0,1-.25-1.1,2.32,2.32,0,0,1,.68-1.73,2.61,2.61,0,0,1,1.89-.66,3.1,3.1,0,0,1,1.33.27,2.2,2.2,0,0,1,.88.73,3.3,3.3,0,0,1,.42,1.33l-1.13.18a1.35,1.35,0,0,0-1.47-1.36,1.76,1.76,0,0,0-1.12.3,1,1,0,0,0-.37.77.83.83,0,0,0,.36.72,5.66,5.66,0,0,0,1.25.5,10.11,10.11,0,0,1,1.85.72,1.8,1.8,0,0,1,.65.74,2.39,2.39,0,0,1,.24,1.11,2.54,2.54,0,0,1-.76,1.92,2.82,2.82,0,0,1-2.06.74C818.3,281.84,817.36,281,817.1,279.17Z"/><path class="cls-4" d="M828.56,278.61l1.13.18a3.76,3.76,0,0,1-1,2.27,2.57,2.57,0,0,1-1.88.78,2.67,2.67,0,0,1-2.2-1.1,6.49,6.49,0,0,1,0-6.49,2.75,2.75,0,0,1,2.24-1.08,2.57,2.57,0,0,1,1.78.65,3.29,3.29,0,0,1,.93,2l-1.12.21a2.47,2.47,0,0,0-.57-1.26,1.32,1.32,0,0,0-1-.42,1.67,1.67,0,0,0-1.41.76,4.06,4.06,0,0,0-.56,2.39,4.29,4.29,0,0,0,.54,2.45,1.59,1.59,0,0,0,1.37.76,1.48,1.48,0,0,0,1.12-.5A2.74,2.74,0,0,0,828.56,278.61Z"/><path class="cls-4" d="M830.67,281.65v-8.3h1v1.26a3.5,3.5,0,0,1,.73-1.16,1.1,1.1,0,0,1,.74-.28,2,2,0,0,1,1.18.45l-.39,1.3a1.43,1.43,0,0,0-.83-.3,1,1,0,0,0-.67.26,1.31,1.31,0,0,0-.43.72,6.26,6.26,0,0,0-.22,1.71v4.34Z"/><path class="cls-4" d="M839.68,279l1.19.18a3.61,3.61,0,0,1-1.07,2,2.84,2.84,0,0,1-1.93.68,2.89,2.89,0,0,1-2.34-1.1,5,5,0,0,1-.89-3.17,5.14,5.14,0,0,1,.9-3.27,2.78,2.78,0,0,1,2.29-1.13,2.71,2.71,0,0,1,2.2,1.11,5.05,5.05,0,0,1,.88,3.21v.37h-5.07a3.57,3.57,0,0,0,.64,2.11,1.75,1.75,0,0,0,1.41.71C838.74,280.68,839.35,280.12,839.68,279Zm-3.78-2.27h3.79a3.08,3.08,0,0,0-.46-1.61,1.66,1.66,0,0,0-2.73-.13A2.76,2.76,0,0,0,835.9,276.71Z"/><path class="cls-4" d="M847,279l1.19.18a3.62,3.62,0,0,1-1.08,2,2.82,2.82,0,0,1-1.92.68,2.89,2.89,0,0,1-2.34-1.1,4.89,4.89,0,0,1-.9-3.17,5.14,5.14,0,0,1,.91-3.27,2.78,2.78,0,0,1,2.28-1.13,2.72,2.72,0,0,1,2.21,1.11,5.11,5.11,0,0,1,.88,3.21v.37h-5.08a3.57,3.57,0,0,0,.65,2.11,1.74,1.74,0,0,0,1.41.71C846,280.68,846.64,280.12,847,279Zm-3.79-2.27H847a3.18,3.18,0,0,0-.46-1.61,1.67,1.67,0,0,0-1.42-.78,1.69,1.69,0,0,0-1.32.65A2.88,2.88,0,0,0,843.19,276.71Z"/><path class="cls-4" d="M849.63,281.65v-8.3h1v1.18a2.72,2.72,0,0,1,.91-1,2.38,2.38,0,0,1,1.25-.33,2.44,2.44,0,0,1,1,.21,2.17,2.17,0,0,1,.75.56,2.32,2.32,0,0,1,.42.91,7.13,7.13,0,0,1,.14,1.7v5.1H854v-5a4.34,4.34,0,0,0-.15-1.34,1.36,1.36,0,0,0-.49-.65,1.34,1.34,0,0,0-.77-.23,1.59,1.59,0,0,0-1.32.62,3.44,3.44,0,0,0-.49,2.12v4.53Z"/><path class="cls-4" d="M857.26,281.65v-1.6h1.32v1.6a3.24,3.24,0,0,1-.28,1.46,1.89,1.89,0,0,1-.8.81l-.32-.6a1.27,1.27,0,0,0,.54-.56,2.81,2.81,0,0,0,.19-1.11Z"/><path class="cls-4" d="M738.79,300.85v-8.3h1v1.16a2.5,2.5,0,0,1,.88-1,2.06,2.06,0,0,1,1.17-.35,1.87,1.87,0,0,1,1.92,1.44,3.27,3.27,0,0,1,.94-1.08,2,2,0,0,1,1.17-.36,1.93,1.93,0,0,1,1.55.66,3.29,3.29,0,0,1,.56,2.13v5.69h-1.15v-5.23a4.07,4.07,0,0,0-.13-1.26,1.09,1.09,0,0,0-.42-.58,1.14,1.14,0,0,0-.65-.2,1.48,1.48,0,0,0-1.22.59A3,3,0,0,0,744,296v4.82h-1.15v-5.4a2.52,2.52,0,0,0-.31-1.45,1,1,0,0,0-.87-.42,1.45,1.45,0,0,0-1.25.63,4.22,4.22,0,0,0-.46,2.33v4.31Z"/><path class="cls-4" d="M754.15,299.83a4.27,4.27,0,0,1-1.21.9,2.82,2.82,0,0,1-1.29.31,2.31,2.31,0,0,1-1.7-.64,2.37,2.37,0,0,1-.63-1.73,2.73,2.73,0,0,1,.29-1.27,2.22,2.22,0,0,1,.82-.87,4.2,4.2,0,0,1,1.56-.46,8.87,8.87,0,0,0,2.06-.49v-.36a1.78,1.78,0,0,0-.31-1.2,1.64,1.64,0,0,0-1.32-.5,1.81,1.81,0,0,0-1.2.34,2.18,2.18,0,0,0-.58,1.25l-1.14-.19a3.12,3.12,0,0,1,1-1.94,3.25,3.25,0,0,1,2.12-.61,3,3,0,0,1,1.68.4,1.79,1.79,0,0,1,.77,1,7.53,7.53,0,0,1,.16,1.74v1.87a24.14,24.14,0,0,0,.07,2.48,3.83,3.83,0,0,0,.29,1h-1.2A3.33,3.33,0,0,1,754.15,299.83Zm-.1-3.14a7.84,7.84,0,0,1-1.88.53,3.76,3.76,0,0,0-1,.28,1.17,1.17,0,0,0-.45.46,1.44,1.44,0,0,0-.16.67,1.28,1.28,0,0,0,.37.95,1.4,1.4,0,0,0,1,.36,2,2,0,0,0,1.87-1.18,3.78,3.78,0,0,0,.25-1.56Z"/><path class="cls-4" d="M757,291V289.4h1.15V291Zm0,9.84v-8.3h1.15v8.3Z"/><path class="cls-4" d="M759.93,300.85v-8.3h1v1.18a2.72,2.72,0,0,1,.91-1,2.36,2.36,0,0,1,1.25-.33,2.44,2.44,0,0,1,1,.21,1.94,1.94,0,0,1,.74.56,2.33,2.33,0,0,1,.43.91,7.71,7.71,0,0,1,.14,1.7v5.1H764.3V295.8a4.34,4.34,0,0,0-.15-1.34,1.36,1.36,0,0,0-.49-.65,1.27,1.27,0,0,0-.77-.23,1.59,1.59,0,0,0-1.32.62,3.43,3.43,0,0,0-.49,2.11v4.54Z"/><path class="cls-4" d="M775.52,298.18l1.19.18a3.62,3.62,0,0,1-1.08,2,2.82,2.82,0,0,1-1.92.68,2.86,2.86,0,0,1-2.34-1.1,4.89,4.89,0,0,1-.9-3.17,5.08,5.08,0,0,1,.91-3.27,2.78,2.78,0,0,1,2.28-1.13,2.69,2.69,0,0,1,2.2,1.11,5,5,0,0,1,.89,3.21v.37h-5.08a3.57,3.57,0,0,0,.65,2.11,1.77,1.77,0,0,0,1.41.71C774.58,299.88,775.18,299.31,775.52,298.18Zm-3.79-2.27h3.8a3.18,3.18,0,0,0-.46-1.61,1.67,1.67,0,0,0-1.42-.78,1.69,1.69,0,0,0-1.32.65A2.88,2.88,0,0,0,771.73,295.91Z"/><path class="cls-4" d="M778.17,300.85v-8.3h1v1.18a2.72,2.72,0,0,1,.91-1,2.38,2.38,0,0,1,1.25-.33,2.44,2.44,0,0,1,1,.21,2.05,2.05,0,0,1,.75.56,2.32,2.32,0,0,1,.42.91,7.13,7.13,0,0,1,.14,1.7v5.1h-1.15V295.8a4.34,4.34,0,0,0-.15-1.34,1.36,1.36,0,0,0-.49-.65,1.27,1.27,0,0,0-.77-.23,1.59,1.59,0,0,0-1.32.62,3.43,3.43,0,0,0-.49,2.11v4.54Z"/><path class="cls-4" d="M788,299.59l.15,1.24a3.09,3.09,0,0,1-.85.13,1.72,1.72,0,0,1-1-.24,1.18,1.18,0,0,1-.51-.65,6.54,6.54,0,0,1-.13-1.65v-4.77h-.85v-1.1h.85V290.5l1.14-.84v2.89H788v1.1h-1.17v4.85a2.2,2.2,0,0,0,.11.87.57.57,0,0,0,.55.28A2.86,2.86,0,0,0,788,299.59Z"/><path class="cls-4" d="M789.11,300.85v-8.3h1v1.26a3.67,3.67,0,0,1,.73-1.16,1.13,1.13,0,0,1,.75-.28,2,2,0,0,1,1.18.45l-.39,1.3a1.49,1.49,0,0,0-.84-.3,1,1,0,0,0-.67.26,1.37,1.37,0,0,0-.43.72,6.67,6.67,0,0,0-.22,1.71v4.34Z"/><path class="cls-4" d="M797.91,299.83a4.24,4.24,0,0,1-1.2.9,2.86,2.86,0,0,1-1.3.31,2.28,2.28,0,0,1-1.69-.64,2.34,2.34,0,0,1-.64-1.73,2.62,2.62,0,0,1,.3-1.27,2.27,2.27,0,0,1,.81-.87,4.33,4.33,0,0,1,1.56-.46,9,9,0,0,0,2.07-.49v-.36a1.84,1.84,0,0,0-.31-1.2,1.67,1.67,0,0,0-1.32-.5,1.77,1.77,0,0,0-1.2.34,2.18,2.18,0,0,0-.59,1.25l-1.13-.19a3.12,3.12,0,0,1,1-1.94,3.22,3.22,0,0,1,2.11-.61,3,3,0,0,1,1.68.4,1.74,1.74,0,0,1,.77,1,7,7,0,0,1,.16,1.74v1.87a23,23,0,0,0,.08,2.48,3.48,3.48,0,0,0,.29,1h-1.2A3.64,3.64,0,0,1,797.91,299.83Zm-.09-3.14a7.8,7.8,0,0,1-1.89.53,3.66,3.66,0,0,0-1,.28,1.17,1.17,0,0,0-.45.46,1.33,1.33,0,0,0-.16.67,1.24,1.24,0,0,0,.37.95,1.37,1.37,0,0,0,1,.36,2.06,2.06,0,0,0,1.12-.32,2,2,0,0,0,.76-.86,4,4,0,0,0,.25-1.56Z"/><path class="cls-4" d="M800.78,300.85v-8.3h1v1.18a2.72,2.72,0,0,1,.91-1,2.36,2.36,0,0,1,1.25-.33,2.44,2.44,0,0,1,1,.21,2.05,2.05,0,0,1,.75.56,2.32,2.32,0,0,1,.42.91,7.71,7.71,0,0,1,.14,1.7v5.1h-1.15V295.8a4.34,4.34,0,0,0-.15-1.34,1.36,1.36,0,0,0-.49-.65,1.27,1.27,0,0,0-.77-.23,1.59,1.59,0,0,0-1.32.62,3.43,3.43,0,0,0-.49,2.11v4.54Z"/><path class="cls-4" d="M812.53,297.81l1.13.18a3.82,3.82,0,0,1-1,2.27,2.57,2.57,0,0,1-1.89.78,2.7,2.7,0,0,1-2.2-1.1,5.21,5.21,0,0,1-.86-3.25,5.09,5.09,0,0,1,.87-3.24,2.75,2.75,0,0,1,2.24-1.08,2.54,2.54,0,0,1,1.78.65,3.23,3.23,0,0,1,.92,2l-1.11.2a2.43,2.43,0,0,0-.57-1.25,1.32,1.32,0,0,0-1-.42,1.67,1.67,0,0,0-1.41.76,4.06,4.06,0,0,0-.56,2.39,4.29,4.29,0,0,0,.54,2.45,1.59,1.59,0,0,0,1.37.76,1.5,1.5,0,0,0,1.12-.5A2.74,2.74,0,0,0,812.53,297.81Z"/><path class="cls-4" d="M819.29,298.18l1.18.18a3.55,3.55,0,0,1-1.07,2,2.84,2.84,0,0,1-1.93.68,2.89,2.89,0,0,1-2.34-1.1,5,5,0,0,1-.89-3.17,5.14,5.14,0,0,1,.9-3.27,2.78,2.78,0,0,1,2.29-1.13,2.71,2.71,0,0,1,2.2,1.11,5,5,0,0,1,.88,3.21v.37h-5.07a3.5,3.5,0,0,0,.65,2.11,1.75,1.75,0,0,0,1.4.71C818.35,299.88,819,299.31,819.29,298.18Zm-3.79-2.27h3.79a3.08,3.08,0,0,0-.46-1.61,1.66,1.66,0,0,0-2.73-.13A2.76,2.76,0,0,0,815.5,295.91Z"/><path class="cls-4" d="M822.29,300.85v-1.6h1.32v1.6Z"/><path class="cls-4" d="M919,533.65V522.19h3.53a3.67,3.67,0,0,1,1.7.33,2.56,2.56,0,0,1,1,1,3,3,0,0,1,.4,1.55,2.9,2.9,0,0,1-.34,1.42,2.71,2.71,0,0,1-1,1,2.58,2.58,0,0,1,1.29,1,3.16,3.16,0,0,1,.47,1.76,3.72,3.72,0,0,1-.43,1.83,2.65,2.65,0,0,1-1.13,1.14,4.42,4.42,0,0,1-2,.36Zm1.25-6.65h2a4.4,4.4,0,0,0,1.14-.1,1.4,1.4,0,0,0,.74-.56,1.77,1.77,0,0,0,.27-1.05,2,2,0,0,0-.24-1,1.22,1.22,0,0,0-.64-.57,4.42,4.42,0,0,0-1.42-.16h-1.88Zm0,5.29h2.34a3.3,3.3,0,0,0,1.14-.14,1.61,1.61,0,0,0,.81-.66,2.3,2.3,0,0,0,.28-1.17,2.09,2.09,0,0,0-.27-1.1,1.63,1.63,0,0,0-.72-.66,3.76,3.76,0,0,0-1.41-.2h-2.17Z"/><path class="cls-4" d="M932.05,533.65v-1.22a3,3,0,0,1-.94,1.05,2.13,2.13,0,0,1-1.22.35,2.2,2.2,0,0,1-1.37-.43,2,2,0,0,1-.76-1.1,6.71,6.71,0,0,1-.19-1.81v-5.14h1.14V530a7.69,7.69,0,0,0,.13,1.72,1.36,1.36,0,0,0,.48.69,1.25,1.25,0,0,0,.79.26,1.63,1.63,0,0,0,1.36-.68,3.69,3.69,0,0,0,.45-2.15v-4.44h1.16v8.3Z"/><path class="cls-4" d="M934.45,531.16l1.15-.22a2,2,0,0,0,.55,1.31,1.94,1.94,0,0,0,2.36.06,1.25,1.25,0,0,0,.41-.95.92.92,0,0,0-.35-.76,4.55,4.55,0,0,0-1.18-.47,8.94,8.94,0,0,1-1.79-.7,2,2,0,0,1-.71-.78,2.44,2.44,0,0,1-.25-1.1,2.3,2.3,0,0,1,.68-1.72,2.57,2.57,0,0,1,1.89-.67,3.1,3.1,0,0,1,1.33.27,2.22,2.22,0,0,1,.88.74,3.3,3.3,0,0,1,.42,1.32l-1.13.19a1.34,1.34,0,0,0-1.47-1.36,1.76,1.76,0,0,0-1.12.3,1,1,0,0,0-.37.76.86.86,0,0,0,.36.73,5.86,5.86,0,0,0,1.25.49,9.9,9.9,0,0,1,1.85.73,1.77,1.77,0,0,1,.65.73,2.42,2.42,0,0,1,.24,1.11,2.56,2.56,0,0,1-.76,1.93,2.82,2.82,0,0,1-2.06.73C935.65,533.83,934.71,532.94,934.45,531.16Z"/><path class="cls-4" d="M941.42,536.84l-.13-1.32a2.38,2.38,0,0,0,.66.13,1.09,1.09,0,0,0,.6-.15,1.14,1.14,0,0,0,.4-.46q.06-.12.45-1.38l-2.58-8.31h1.24l1.42,4.8c.18.6.34,1.24.49,1.92.13-.64.29-1.27.47-1.89l1.45-4.83h1.16l-2.58,8.44a16.16,16.16,0,0,1-.8,2.19,2.15,2.15,0,0,1-.67.79,1.53,1.53,0,0,1-.84.24A1.83,1.83,0,0,1,941.42,536.84Z"/><path class="cls-4" d="M947.43,533.65V532h1.32v1.61Z"/><path class="cls-4" d="M920.75,29.66l-2.59-8.3h1.22l1.46,5c.17.56.32,1.12.44,1.67.1-.44.24-1,.42-1.58l1.52-5.06h1.19l-2.59,8.3Z"/><path class="cls-4" d="M925.41,19.82V18.2h1.15v1.62Zm0,9.84v-8.3h1.15v8.3Z"/><path class="cls-4" d="M933,27l1.19.18a3.61,3.61,0,0,1-1.08,2,2.81,2.81,0,0,1-1.92.67,2.88,2.88,0,0,1-2.34-1.09,4.91,4.91,0,0,1-.9-3.17,5.17,5.17,0,0,1,.91-3.28,2.8,2.8,0,0,1,2.28-1.13,2.72,2.72,0,0,1,2.21,1.11,5.11,5.11,0,0,1,.88,3.21v.38h-5.08a3.67,3.67,0,0,0,.65,2.11,1.78,1.78,0,0,0,1.41.71Q932.46,28.69,933,27Zm-3.79-2.27H933a3.21,3.21,0,0,0-.46-1.61,1.69,1.69,0,0,0-2.74-.13A2.88,2.88,0,0,0,929.18,24.71Z"/><path class="cls-4" d="M936.87,29.66l-2.09-8.3H936l1.08,4.79.4,1.78.36-1.71,1.08-4.86h1.19l1,4.81.34,1.59.39-1.6,1.17-4.8h1.12L942,29.66h-1.2l-1.09-5-.26-1.42-1.37,6.39Z"/><path class="cls-4" d="M945.09,32.84V21.36h1.06v1.08a2.7,2.7,0,0,1,.87-1,2,2,0,0,1,1.09-.3,2.38,2.38,0,0,1,1.45.48,3.26,3.26,0,0,1,1,1.45,6.29,6.29,0,0,1,.4,2.34,5.23,5.23,0,0,1-.89,3.26A2.59,2.59,0,0,1,948,29.84a2,2,0,0,1-1-.27,2.51,2.51,0,0,1-.79-.77v4Zm1-7.29a4.26,4.26,0,0,0,.53,2.38,1.47,1.47,0,0,0,2.59,0,4.29,4.29,0,0,0,.56-2.44,4.32,4.32,0,0,0-.54-2.41,1.42,1.42,0,0,0-2.57.06A4.36,4.36,0,0,0,946.14,25.55Z"/><path class="cls-4" d="M952,25.51a5,5,0,0,1,.9-3.24,2.91,2.91,0,0,1,4.56,0,4.79,4.79,0,0,1,.91,3.15,5.17,5.17,0,0,1-.9,3.33,2.93,2.93,0,0,1-4.56,0A5,5,0,0,1,952,25.51Zm1.18,0a4,4,0,0,0,.58,2.4,1.75,1.75,0,0,0,1.46.79,1.7,1.7,0,0,0,1.39-.8,4,4,0,0,0,.58-2.39,4,4,0,0,0-.58-2.39,1.77,1.77,0,0,0-1.46-.78,1.67,1.67,0,0,0-1.39.79A4,4,0,0,0,953.13,25.5Z"/><path class="cls-4" d="M959.68,29.66v-8.3h1v1.26a3.56,3.56,0,0,1,.73-1.16,1.12,1.12,0,0,1,.75-.29,2,2,0,0,1,1.18.45L963,22.93a1.51,1.51,0,0,0-.84-.31,1,1,0,0,0-.67.26,1.37,1.37,0,0,0-.43.72,6.36,6.36,0,0,0-.22,1.71v4.35Z"/><path class="cls-4" d="M966.61,28.4l.16,1.24a3.67,3.67,0,0,1-.86.13,1.76,1.76,0,0,1-1-.24,1.24,1.24,0,0,1-.5-.65,6.39,6.39,0,0,1-.14-1.65V22.45h-.84V21.36h.84V19.3l1.15-.84v2.9h1.16v1.09h-1.16V27.3a2.26,2.26,0,0,0,.1.87.56.56,0,0,0,.55.28A3.92,3.92,0,0,0,966.61,28.4Z"/><path class="cls-4" d="M918.52,278.65l1.21-.12a2.88,2.88,0,0,0,.64,1.63,1.54,1.54,0,0,0,1.15.53,1.74,1.74,0,0,0,1.41-.75,3.25,3.25,0,0,0,.6-2.07A2.86,2.86,0,0,0,923,276a1.81,1.81,0,0,0-1.44-.68,1.74,1.74,0,0,0-1,.3,2,2,0,0,0-.72.81l-1.09-.17.92-5.88h4.66v1.34h-3.75l-.5,3.08a2.69,2.69,0,0,1,1.77-.72,2.63,2.63,0,0,1,2,1,4,4,0,0,1,.88,2.71,4.72,4.72,0,0,1-.88,2.89,2.75,2.75,0,0,1-2.34,1.2,2.79,2.79,0,0,1-2-.85A3.64,3.64,0,0,1,918.52,278.65Z"/><path class="cls-4" d="M926,279l1.11-.12c.17,1.21.69,1.81,1.56,1.81a1.63,1.63,0,0,0,1.05-.39,3,3,0,0,0,.8-1.41,7.53,7.53,0,0,0,.33-2.35v-.28a2.88,2.88,0,0,1-1,1.1,2.24,2.24,0,0,1-1.24.41,2.49,2.49,0,0,1-2-1,4.11,4.11,0,0,1-.83-2.74,4.25,4.25,0,0,1,.86-2.83,2.62,2.62,0,0,1,3.73-.46,3.74,3.74,0,0,1,1.17,1.7,9.69,9.69,0,0,1,.42,3.24,11.72,11.72,0,0,1-.45,3.67,4.07,4.07,0,0,1-1.21,1.91,2.68,2.68,0,0,1-1.7.6,2.43,2.43,0,0,1-1.79-.73A3.41,3.41,0,0,1,926,279Zm4.72-5.06a3.12,3.12,0,0,0-.54-1.93,1.59,1.59,0,0,0-1.26-.7,1.67,1.67,0,0,0-1.33.75,3.17,3.17,0,0,0-.58,2,2.74,2.74,0,0,0,.55,1.8,1.7,1.7,0,0,0,1.33.67,1.6,1.6,0,0,0,1.3-.68A3,3,0,0,0,930.71,273.94Z"/><polyline class="cls-3" points="527.04 258.61 463.17 258.61 441.01 258.61 418.84 258.61 409.79 258.61 406.4 258.61 261.4 263.18 257.32 263.18 252.35 263.18 248.28 263.18 243.3 263.18 240.13 263.18 236.74 263.18 233.8 263.18 227.31 263.18 205.75 260.89 194.89 263.18 187.2 263.18"/><g class="cls-2"><path class="cls-3" d="M202.94,265.4l1.81-4.81,45.73,95.64,33,67.86L390.39,644.22l2.27,4.81h0c0,2.14,2.71,5.88,2.71,5.88s-.9,2.67,0,2.67,5.89,9.08,5.89,9.08l37.58,76.68v1.33l1.81,4.81"/><path class="cls-3" d="M334.13,728.09a2.14,2.14,0,0,1,1.08-1.49c1.9-2.36,3.73-4.76,5.71-7a31,31,0,0,0,2.37-2.84,39.53,39.53,0,0,0,1.87-4.26c1.28-2.64,2.6-5.3,3.73-8q.93-2.81,1.83-5.61a68.51,68.51,0,0,0,2.73-6.53c1.46-4.79,2.53-9.74,3.89-14.57.64-2.41,2.18-5.51,2.7-8a57,57,0,0,1,1.82-6.8,31.89,31.89,0,0,0,1.51-6.05c.67-4.19,2.6-8,3.48-12.13.7-3.27,1.94-6.89,2.55-10.19,1.12-6,2.45-12.24,2.55-17.48a29.63,29.63,0,0,0,.92-4.42A64.51,64.51,0,0,1,376,601.13a49.1,49.1,0,0,0,2.62-13.79c.38-6.28.41-12.38,1.27-18.62a60.31,60.31,0,0,0,.15-7.61,78.16,78.16,0,0,1,1.05-9.66c.56-4.24-.11-8.2-.16-12.45,0-2.47,0-5,0-7.42"/><path class="cls-3" d="M336.94,369.39c2.33-.35,3,2.74,4.23,4.53a45,45,0,0,1,4.42,8.66c.5,1.22,1.32,2.24,1.78,3.45.39-.47.56-.56.62-1.23-.37,3.61,1.73,7.82,2.31,11.36.9,5.42,2.79,10.57,4.3,15.82a72.81,72.81,0,0,0,6.6,15.49,12.31,12.31,0,0,1,1.9,5.82c.29,2.76,1.15,5.36,1.62,8.07a22.52,22.52,0,0,0,.88,4.29c.44,1.15,1.09,1.81,1.33,3.09.19,1,0,2.07.29,3.14a42.58,42.58,0,0,1,1.47,6.48c.16,2,.88,3.5,1.28,5.42.35,1.71.46,3.47.92,5.19.33,1.27,1.11,2.55,1.34,3.82.29,1.58.28,3.1.67,4.72a122.25,122.25,0,0,1,3.52,19.87,41.73,41.73,0,0,0,1.36,6.92c.49,2.08,1.51,4.28,1.83,6.43.65,4.53,1.37,8.73,1.79,13.33s0,9.74,0,14.46"/></g></g></svg>