<svg id="Layer_1" data-name="Layer 1" xmlns="http://www.w3.org/2000/svg" xmlns:xlink="http://www.w3.org/1999/xlink" viewBox="0 0 1080 756"><defs><style>.cls-1,.cls-3{fill:none;}.cls-2{clip-path:url(#clip-path);}.cls-3{stroke:#231f20;stroke-width:0.25px;}.cls-4{fill:#231f20;}</style><clipPath id="clip-path"><rect class="cls-1" width="1080" height="756"/></clipPath></defs><title>Untitled-3</title><g class="cls-2"><g class="cls-2"><line class="cls-3" x1="180" y1="-18.36" x2="180" y2="790.92"/><line class="cls-3" x1="720" y1="-20.88" x2="720" y2="788.4"/><line class="cls-3" x1="359.88" y1="-18.36" x2="359.88" y2="790.92"/><line class="cls-3" x1="899.87" y1="-20.88" x2="899.87" y2="788.4"/><line class="cls-3" x1="-16.92" y1="251.88" x2="1101.6" y2="251.88"/><line class="cls-3" x1="-11.52" y1="504.13" x2="1107" y2="504.13"/><line class="cls-3" x1="540" y1="-19.44" x2="540" y2="789.84"/></g><path class="cls-4" d="M378.41,27.16l1.14-.21a2.07,2.07,0,0,0,.56,1.3,1.94,1.94,0,0,0,2.36.06,1.23,1.23,0,0,0,.41-.94.91.91,0,0,0-.36-.77,4.64,4.64,0,0,0-1.17-.47,8.74,8.74,0,0,1-1.8-.7,2,2,0,0,1-.7-.77,2.36,2.36,0,0,1-.25-1.11,2.31,2.31,0,0,1,.68-1.72,2.58,2.58,0,0,1,1.88-.67,3,3,0,0,1,1.34.28,2.13,2.13,0,0,1,.88.73,3.3,3.3,0,0,1,.42,1.32l-1.13.19a1.34,1.34,0,0,0-1.47-1.36,1.74,1.74,0,0,0-1.12.3.94.94,0,0,0-.37.77.87.87,0,0,0,.35.72,6.46,6.46,0,0,0,1.26.5,9.4,9.4,0,0,1,1.85.72,1.8,1.8,0,0,1,.65.74,2.38,2.38,0,0,1,.23,1.1,2.58,2.58,0,0,1-.75,1.93,2.82,2.82,0,0,1-2.06.74C379.61,29.84,378.67,29,378.41,27.16Z"/><path class="cls-4" d="M385.41,32.83V21.35h1.07v1.08a2.77,2.77,0,0,1,.86-1,2,2,0,0,1,1.09-.3,2.36,2.36,0,0,1,1.45.48,3.27,3.27,0,0,1,1.05,1.45,6.3,6.3,0,0,1,.39,2.34,5.23,5.23,0,0,1-.89,3.26,2.59,2.59,0,0,1-2.08,1.15,1.86,1.86,0,0,1-1-.28,2.54,2.54,0,0,1-.8-.77v4Zm1-7.28a4.15,4.15,0,0,0,.54,2.37,1.47,1.47,0,0,0,2.59,0,4.3,4.3,0,0,0,.55-2.44,4.26,4.26,0,0,0-.54-2.4,1.42,1.42,0,0,0-2.57.06A4.33,4.33,0,0,0,386.46,25.55Z"/><path class="cls-4" d="M392.71,29.65v-8.3h1v1.26a3.67,3.67,0,0,1,.73-1.16,1.12,1.12,0,0,1,.75-.29,2,2,0,0,1,1.18.46l-.39,1.3a1.49,1.49,0,0,0-.84-.3,1,1,0,0,0-.67.26,1.32,1.32,0,0,0-.43.71,6.36,6.36,0,0,0-.22,1.71v4.35Z"/><path class="cls-4" d="M401.53,29.65V28.43a2.86,2.86,0,0,1-.94,1.05,2.13,2.13,0,0,1-1.21.36A2.21,2.21,0,0,1,398,29.4a2.06,2.06,0,0,1-.76-1.1,6.66,6.66,0,0,1-.19-1.81V21.35h1.15V26a7.82,7.82,0,0,0,.12,1.72,1.32,1.32,0,0,0,.48.69,1.25,1.25,0,0,0,.79.26A1.64,1.64,0,0,0,401,28a3.72,3.72,0,0,0,.46-2.15V21.35h1.15v8.3Z"/><path class="cls-4" d="M404.38,29.65v-8.3h1v1.17a2.78,2.78,0,0,1,.92-1,2.43,2.43,0,0,1,2.25-.12,2.05,2.05,0,0,1,.75.56,2.36,2.36,0,0,1,.43.9,7.81,7.81,0,0,1,.14,1.71v5.1h-1.15v-5a4,4,0,0,0-.16-1.34,1.27,1.27,0,0,0-1.25-.88A1.58,1.58,0,0,0,406,23a3.45,3.45,0,0,0-.5,2.12v4.54Z"/><path class="cls-4" d="M411.45,30.34l1.12.2a1.43,1.43,0,0,0,.47,1,1.62,1.62,0,0,0,1.08.33,1.88,1.88,0,0,0,1.21-.36,1.92,1.92,0,0,0,.62-1.09,11.09,11.09,0,0,0,.1-1.84,2.6,2.6,0,0,1-.85.81,2,2,0,0,1-1,.27,2.49,2.49,0,0,1-2-1,5.07,5.07,0,0,1-.92-3.18,6.23,6.23,0,0,1,.4-2.34,3.33,3.33,0,0,1,1.07-1.47,2.51,2.51,0,0,1,1.48-.47,2.09,2.09,0,0,1,1.1.3,2.84,2.84,0,0,1,.88.88v-1h1.06v7.17a8.35,8.35,0,0,1-.31,2.73,2.62,2.62,0,0,1-1,1.29,3,3,0,0,1-1.72.48,2.73,2.73,0,0,1-2-.72A2.57,2.57,0,0,1,411.45,30.34Zm.95-5a4.16,4.16,0,0,0,.54,2.39,1.59,1.59,0,0,0,1.32.75,1.61,1.61,0,0,0,1.33-.73,4,4,0,0,0,.55-2.35,4,4,0,0,0-.56-2.33,1.7,1.7,0,0,0-1.37-.76,1.59,1.59,0,0,0-1.27.76A3.94,3.94,0,0,0,412.4,25.35Z"/><path class="cls-4" d="M422.62,19.81V18.2h1.15v1.61Zm0,9.84v-8.3h1.15v8.3Z"/><path class="cls-4" d="M425.53,29.65v-8.3h1v1.17a2.7,2.7,0,0,1,.92-1,2.33,2.33,0,0,1,1.24-.34,2.44,2.44,0,0,1,1,.22,2.05,2.05,0,0,1,.75.56,2.21,2.21,0,0,1,.42.9,7.23,7.23,0,0,1,.14,1.71v5.1h-1.14v-5a4.28,4.28,0,0,0-.16-1.34,1.3,1.3,0,0,0-.49-.65,1.27,1.27,0,0,0-.77-.23,1.6,1.6,0,0,0-1.32.61,3.46,3.46,0,0,0-.49,2.12v4.54Z"/><path class="cls-4" d="M435.39,28.39l.16,1.24a3.21,3.21,0,0,1-.86.13,1.74,1.74,0,0,1-1-.24,1.26,1.26,0,0,1-.51-.65,6.54,6.54,0,0,1-.13-1.65V22.45h-.85v-1.1h.85V19.3l1.15-.85v2.9h1.16v1.1h-1.16V27.3a2.2,2.2,0,0,0,.1.86.56.56,0,0,0,.55.29A2.86,2.86,0,0,0,435.39,28.39Z"/><path class="cls-4" d="M436,25.5a5,5,0,0,1,.9-3.24,2.91,2.91,0,0,1,4.56,0,4.79,4.79,0,0,1,.91,3.15,5.23,5.23,0,0,1-.89,3.33,2.92,2.92,0,0,1-4.57,0A5,5,0,0,1,436,25.5Zm1.18,0a4,4,0,0,0,.58,2.39,1.77,1.77,0,0,0,1.46.79,1.69,1.69,0,0,0,1.39-.79,4,4,0,0,0,.58-2.39,4,4,0,0,0-.58-2.39,1.75,1.75,0,0,0-1.45-.79,1.68,1.68,0,0,0-1.4.79A4,4,0,0,0,437.22,25.5Z"/><path class="cls-4" d="M451.85,28.62a4,4,0,0,1-1.2.91,3,3,0,0,1-1.3.31,2.28,2.28,0,0,1-1.69-.64,2.34,2.34,0,0,1-.64-1.73,2.62,2.62,0,0,1,.3-1.27,2.27,2.27,0,0,1,.81-.87,4.33,4.33,0,0,1,1.57-.46,9,9,0,0,0,2.06-.49V24a1.84,1.84,0,0,0-.31-1.2,1.67,1.67,0,0,0-1.32-.5,1.83,1.83,0,0,0-1.2.33,2.21,2.21,0,0,0-.59,1.26l-1.13-.19a3.18,3.18,0,0,1,1-1.95,3.27,3.27,0,0,1,2.11-.61,3,3,0,0,1,1.68.41,1.67,1.67,0,0,1,.77,1,7,7,0,0,1,.16,1.74v1.87a23.12,23.12,0,0,0,.08,2.48,3.58,3.58,0,0,0,.29,1h-1.2A3.63,3.63,0,0,1,451.85,28.62Zm-.09-3.14a7.34,7.34,0,0,1-1.88.54,3.33,3.33,0,0,0-1,.28,1.21,1.21,0,0,0-.45.45,1.37,1.37,0,0,0-.16.68,1.24,1.24,0,0,0,.37.95,1.37,1.37,0,0,0,1,.35,2,2,0,0,0,1.12-.32,2,2,0,0,0,.76-.85,4,4,0,0,0,.25-1.56Z"/><path class="cls-4" d="M459.17,26.61l1.13.18a3.73,3.73,0,0,1-1,2.26,2.54,2.54,0,0,1-1.88.79,2.68,2.68,0,0,1-2.2-1.1,5.16,5.16,0,0,1-.86-3.25,5.09,5.09,0,0,1,.87-3.24,2.71,2.71,0,0,1,2.23-1.09,2.53,2.53,0,0,1,1.78.66,3.26,3.26,0,0,1,.93,2l-1.12.2a2.39,2.39,0,0,0-.57-1.25,1.32,1.32,0,0,0-1-.42,1.71,1.71,0,0,0-1.41.75,4.12,4.12,0,0,0-.56,2.4,4.29,4.29,0,0,0,.54,2.45,1.61,1.61,0,0,0,1.37.76,1.48,1.48,0,0,0,1.12-.5A2.74,2.74,0,0,0,459.17,26.61Z"/><path class="cls-4" d="M463.84,28.39l.16,1.24a3.15,3.15,0,0,1-.86.13,1.76,1.76,0,0,1-1-.24,1.24,1.24,0,0,1-.5-.65,6.39,6.39,0,0,1-.14-1.65V22.45h-.84v-1.1h.84V19.3l1.15-.85v2.9h1.16v1.1h-1.16V27.3a2.2,2.2,0,0,0,.1.86.58.58,0,0,0,.56.29A2.67,2.67,0,0,0,463.84,28.39Z"/><path class="cls-4" d="M464.93,19.81V18.2h1.15v1.61Zm0,9.84v-8.3h1.15v8.3Z"/><path class="cls-4" d="M467.41,25.5a5,5,0,0,1,.9-3.24,2.91,2.91,0,0,1,4.56,0,4.79,4.79,0,0,1,.91,3.15,5.17,5.17,0,0,1-.9,3.33,2.91,2.91,0,0,1-4.56,0A5,5,0,0,1,467.41,25.5Zm1.18,0a4,4,0,0,0,.58,2.39,1.75,1.75,0,0,0,1.45.79,1.69,1.69,0,0,0,1.4-.79,4,4,0,0,0,.58-2.39,4,4,0,0,0-.58-2.39,1.77,1.77,0,0,0-1.46-.79,1.7,1.7,0,0,0-1.4.79A4.09,4.09,0,0,0,468.59,25.5Z"/><path class="cls-4" d="M475.14,29.65v-8.3h1v1.17a2.7,2.7,0,0,1,.92-1,2.33,2.33,0,0,1,1.24-.34,2.44,2.44,0,0,1,1,.22,2.05,2.05,0,0,1,.75.56,2.21,2.21,0,0,1,.42.9,7.23,7.23,0,0,1,.14,1.71v5.1h-1.14v-5a4.28,4.28,0,0,0-.16-1.34,1.36,1.36,0,0,0-.49-.65,1.27,1.27,0,0,0-.77-.23,1.6,1.6,0,0,0-1.32.61,3.46,3.46,0,0,0-.49,2.12v4.54Z"/><path class="cls-4" d="M487.34,29.65l-2.09-8.3h1.19l1.09,4.79.4,1.78.36-1.71,1.08-4.86h1.19l1,4.81.34,1.59.39-1.6,1.16-4.8h1.13l-2.13,8.3h-1.2l-1.08-5-.26-1.41-1.38,6.38Z"/><path class="cls-4" d="M495.55,29.65V18.2h1.15v4.1a2.82,2.82,0,0,1,.92-.85,2.29,2.29,0,0,1,1.13-.29,2.16,2.16,0,0,1,1.71.7,3.8,3.8,0,0,1,.63,2.53v5.26H500V24.39a2.45,2.45,0,0,0-.39-1.55,1.27,1.27,0,0,0-1.05-.46,1.64,1.64,0,0,0-1.28.6,3.28,3.28,0,0,0-.53,2.13v4.54Z"/><path class="cls-4" d="M507.5,27l1.19.18a3.62,3.62,0,0,1-1.08,2,2.83,2.83,0,0,1-1.92.68,2.86,2.86,0,0,1-2.34-1.1,4.89,4.89,0,0,1-.9-3.17,5.13,5.13,0,0,1,.91-3.28,2.8,2.8,0,0,1,2.28-1.13,2.71,2.71,0,0,1,2.2,1.11,5.05,5.05,0,0,1,.89,3.21v.38h-5.08a3.57,3.57,0,0,0,.65,2.11,1.75,1.75,0,0,0,1.41.71C506.56,28.68,507.16,28.11,507.5,27Zm-3.79-2.28h3.8a3.21,3.21,0,0,0-.46-1.61,1.69,1.69,0,0,0-1.42-.77,1.72,1.72,0,0,0-1.32.64A2.88,2.88,0,0,0,503.71,24.7Z"/><path class="cls-4" d="M510.15,29.65v-8.3h1v1.17a2.76,2.76,0,0,1,.91-1,2.36,2.36,0,0,1,1.25-.34,2.44,2.44,0,0,1,1,.22,2.05,2.05,0,0,1,.75.56,2.21,2.21,0,0,1,.42.9,7.81,7.81,0,0,1,.14,1.71v5.1h-1.15v-5a4.34,4.34,0,0,0-.15-1.34,1.36,1.36,0,0,0-.49-.65,1.27,1.27,0,0,0-.77-.23,1.6,1.6,0,0,0-1.32.61,3.46,3.46,0,0,0-.49,2.12v4.54Z"/><path class="cls-4" d="M381.41,47.59l.16,1.24a3.15,3.15,0,0,1-.86.13,1.76,1.76,0,0,1-1-.24,1.24,1.24,0,0,1-.5-.65,6.39,6.39,0,0,1-.14-1.65V41.65h-.84v-1.1h.84v-2l1.15-.85v2.9h1.16v1.1h-1.16V46.5a2.2,2.2,0,0,0,.1.86.58.58,0,0,0,.56.29A2.67,2.67,0,0,0,381.41,47.59Z"/><path class="cls-4" d="M382.5,48.85V37.4h1.15v4.1a2.82,2.82,0,0,1,.92-.85,2.26,2.26,0,0,1,1.13-.29,2.17,2.17,0,0,1,1.71.7,3.8,3.8,0,0,1,.63,2.53v5.26h-1.15V43.59a2.52,2.52,0,0,0-.38-1.55,1.3,1.3,0,0,0-1.06-.46,1.62,1.62,0,0,0-1.27.6,3.22,3.22,0,0,0-.53,2.13v4.54Z"/><path class="cls-4" d="M394.45,46.18l1.18.18a3.61,3.61,0,0,1-1.07,2,2.84,2.84,0,0,1-1.93.68,2.89,2.89,0,0,1-2.34-1.1,5,5,0,0,1-.89-3.17,5.19,5.19,0,0,1,.9-3.28,2.81,2.81,0,0,1,2.29-1.13,2.71,2.71,0,0,1,2.2,1.11,5.05,5.05,0,0,1,.88,3.21v.38h-5.07a3.57,3.57,0,0,0,.64,2.11,1.78,1.78,0,0,0,1.41.71C393.5,47.88,394.11,47.31,394.45,46.18Zm-3.79-2.28h3.79a3.11,3.11,0,0,0-.46-1.61,1.68,1.68,0,0,0-1.41-.77,1.67,1.67,0,0,0-1.32.65A2.71,2.71,0,0,0,390.66,43.9Z"/><path class="cls-4" d="M400.74,48.85v-8.3h1v1.17a2.78,2.78,0,0,1,.92-1,2.33,2.33,0,0,1,1.24-.34,2.41,2.41,0,0,1,1,.22,2.05,2.05,0,0,1,.75.56,2.21,2.21,0,0,1,.42.9,7.11,7.11,0,0,1,.15,1.71v5.1h-1.15V43.8a4,4,0,0,0-.16-1.34,1.3,1.3,0,0,0-.49-.65,1.25,1.25,0,0,0-.77-.23,1.6,1.6,0,0,0-1.32.61,3.46,3.46,0,0,0-.49,2.12v4.54Z"/><path class="cls-4" d="M412.47,47.83a4.38,4.38,0,0,1-1.2.9A3,3,0,0,1,410,49a2.32,2.32,0,0,1-1.7-.64,2.37,2.37,0,0,1-.63-1.73,2.62,2.62,0,0,1,.3-1.27,2.27,2.27,0,0,1,.81-.87,4.2,4.2,0,0,1,1.56-.46,9,9,0,0,0,2.07-.49v-.36a1.85,1.85,0,0,0-.3-1.2,1.67,1.67,0,0,0-1.32-.5,1.88,1.88,0,0,0-1.21.33,2.21,2.21,0,0,0-.58,1.26l-1.13-.19a3.13,3.13,0,0,1,1-2,3.26,3.26,0,0,1,2.11-.61,3,3,0,0,1,1.68.41,1.74,1.74,0,0,1,.77,1,7,7,0,0,1,.16,1.74v1.87a24.27,24.27,0,0,0,.07,2.48,3.6,3.6,0,0,0,.3,1H412.7A3.33,3.33,0,0,1,412.47,47.83Zm-.09-3.15a7.44,7.44,0,0,1-1.89.54,3.33,3.33,0,0,0-1,.28A1.08,1.08,0,0,0,409,46a1.39,1.39,0,0,0-.16.68,1.27,1.27,0,0,0,.36.95,1.41,1.41,0,0,0,1,.35,2,2,0,0,0,1.12-.32,1.87,1.87,0,0,0,.75-.85,3.76,3.76,0,0,0,.26-1.56Z"/><path class="cls-4" d="M415.34,48.85v-8.3h1v1.16a2.61,2.61,0,0,1,.88-1,2.14,2.14,0,0,1,1.17-.35,1.86,1.86,0,0,1,1.92,1.45,3.16,3.16,0,0,1,.94-1.08,2,2,0,0,1,1.17-.37A1.94,1.94,0,0,1,424,41a3.28,3.28,0,0,1,.56,2.12v5.7h-1.15V43.62a4.19,4.19,0,0,0-.13-1.27,1.11,1.11,0,0,0-1.07-.77,1.48,1.48,0,0,0-1.22.59,3,3,0,0,0-.47,1.85v4.83h-1.15v-5.4a2.49,2.49,0,0,0-.31-1.45,1,1,0,0,0-.87-.42,1.45,1.45,0,0,0-1.25.63,4.2,4.2,0,0,0-.46,2.33v4.31Z"/><path class="cls-4" d="M430.91,46.18l1.19.18a3.61,3.61,0,0,1-1.07,2,2.84,2.84,0,0,1-1.93.68,2.89,2.89,0,0,1-2.34-1.1,5,5,0,0,1-.89-3.17,5.19,5.19,0,0,1,.9-3.28,2.8,2.8,0,0,1,2.28-1.13,2.72,2.72,0,0,1,2.21,1.11,5.05,5.05,0,0,1,.88,3.21v.38h-5.08a3.64,3.64,0,0,0,.65,2.11,1.78,1.78,0,0,0,1.41.71C430,47.88,430.58,47.31,430.91,46.18Zm-3.79-2.28h3.8a3.11,3.11,0,0,0-.46-1.61,1.68,1.68,0,0,0-1.41-.77,1.67,1.67,0,0,0-1.32.65A2.77,2.77,0,0,0,427.12,43.9Z"/><path class="cls-4" d="M438.46,48.85l-2.08-8.3h1.19l1.08,4.79.4,1.78.36-1.71,1.08-4.86h1.19l1,4.81L443,47l.38-1.6,1.17-4.8h1.12l-2.12,8.3h-1.2l-1.09-5L441,42.47l-1.37,6.38Z"/><path class="cls-4" d="M451.11,47.83a4.38,4.38,0,0,1-1.2.9,3,3,0,0,1-1.3.31,2.32,2.32,0,0,1-1.7-.64,2.37,2.37,0,0,1-.63-1.73,2.62,2.62,0,0,1,.3-1.27,2.27,2.27,0,0,1,.81-.87,4.2,4.2,0,0,1,1.56-.46,9,9,0,0,0,2.07-.49v-.36a1.85,1.85,0,0,0-.3-1.2,1.67,1.67,0,0,0-1.32-.5,1.83,1.83,0,0,0-1.2.33,2.15,2.15,0,0,0-.59,1.26l-1.13-.19a3.13,3.13,0,0,1,1-2,3.26,3.26,0,0,1,2.11-.61,3,3,0,0,1,1.68.41,1.74,1.74,0,0,1,.77,1,7,7,0,0,1,.16,1.74v1.87a24.27,24.27,0,0,0,.07,2.48,3.6,3.6,0,0,0,.3,1h-1.21A3.65,3.65,0,0,1,451.11,47.83ZM451,44.68a7.44,7.44,0,0,1-1.89.54,3.33,3.33,0,0,0-1,.28,1.08,1.08,0,0,0-.45.45,1.39,1.39,0,0,0-.16.68,1.24,1.24,0,0,0,.37.95,1.37,1.37,0,0,0,1,.35,2,2,0,0,0,1.12-.32,2,2,0,0,0,.76-.85A4,4,0,0,0,451,45.2Z"/><path class="cls-4" d="M453.53,46.36l1.15-.21a2.06,2.06,0,0,0,.55,1.3,1.94,1.94,0,0,0,2.36.06,1.23,1.23,0,0,0,.41-.94.93.93,0,0,0-.35-.77,4.64,4.64,0,0,0-1.17-.47,8.28,8.28,0,0,1-1.8-.7,1.93,1.93,0,0,1-.7-.77,2.36,2.36,0,0,1-.25-1.11,2.28,2.28,0,0,1,.68-1.72,2.58,2.58,0,0,1,1.88-.67,3.1,3.1,0,0,1,1.33.28,2.06,2.06,0,0,1,.88.73,3.3,3.3,0,0,1,.42,1.32l-1.12.19a1.35,1.35,0,0,0-1.48-1.36,1.76,1.76,0,0,0-1.12.3,1,1,0,0,0-.36.77.85.85,0,0,0,.35.72,6.55,6.55,0,0,0,1.25.5,9.4,9.4,0,0,1,1.85.72,1.89,1.89,0,0,1,.66.74,2.53,2.53,0,0,1,.23,1.11,2.57,2.57,0,0,1-.75,1.92,2.84,2.84,0,0,1-2.06.74C454.74,49,453.79,48.15,453.53,46.36Z"/><path class="cls-4" d="M468.64,45.81l1.13.18a3.73,3.73,0,0,1-1,2.26,2.54,2.54,0,0,1-1.88.79,2.68,2.68,0,0,1-2.2-1.1,5.16,5.16,0,0,1-.87-3.25,5.09,5.09,0,0,1,.87-3.24A2.75,2.75,0,0,1,467,40.36a2.53,2.53,0,0,1,1.78.66,3.26,3.26,0,0,1,.93,2l-1.12.2a2.39,2.39,0,0,0-.57-1.25,1.32,1.32,0,0,0-1-.42,1.69,1.69,0,0,0-1.41.75,4.12,4.12,0,0,0-.56,2.4,4.29,4.29,0,0,0,.54,2.45,1.61,1.61,0,0,0,1.37.76,1.48,1.48,0,0,0,1.12-.5A2.74,2.74,0,0,0,468.64,45.81Z"/><path class="cls-4" d="M475.18,47.83a4.38,4.38,0,0,1-1.2.9,3,3,0,0,1-1.3.31,2.32,2.32,0,0,1-1.7-.64,2.37,2.37,0,0,1-.63-1.73,2.62,2.62,0,0,1,.3-1.27,2.27,2.27,0,0,1,.81-.87,4.27,4.27,0,0,1,1.56-.46,9,9,0,0,0,2.07-.49v-.36a1.85,1.85,0,0,0-.3-1.2,1.67,1.67,0,0,0-1.32-.5,1.83,1.83,0,0,0-1.2.33,2.15,2.15,0,0,0-.59,1.26l-1.13-.19a3.18,3.18,0,0,1,1-2,3.26,3.26,0,0,1,2.11-.61,3,3,0,0,1,1.68.41,1.74,1.74,0,0,1,.77,1,7,7,0,0,1,.16,1.74v1.87a24.27,24.27,0,0,0,.07,2.48,3.6,3.6,0,0,0,.3,1h-1.21A3.65,3.65,0,0,1,475.18,47.83Zm-.09-3.15a7.44,7.44,0,0,1-1.89.54,3.33,3.33,0,0,0-1,.28,1.15,1.15,0,0,0-.45.45,1.39,1.39,0,0,0-.16.68,1.24,1.24,0,0,0,.37.95,1.37,1.37,0,0,0,1,.35,2,2,0,0,0,1.12-.32,2,2,0,0,0,.76-.85,4,4,0,0,0,.25-1.56Z"/><path class="cls-4" d="M478,48.85V37.4h1.15V48.85Z"/><path class="cls-4" d="M480.92,48.85V37.4h1.15V48.85Z"/><path class="cls-4" d="M488.52,46.18l1.19.18a3.61,3.61,0,0,1-1.07,2,2.84,2.84,0,0,1-1.93.68,2.89,2.89,0,0,1-2.34-1.1,4.89,4.89,0,0,1-.89-3.17,5.19,5.19,0,0,1,.9-3.28,2.8,2.8,0,0,1,2.28-1.13,2.72,2.72,0,0,1,2.21,1.11,5.05,5.05,0,0,1,.88,3.21v.38h-5.08a3.64,3.64,0,0,0,.65,2.11,1.78,1.78,0,0,0,1.41.71C487.58,47.88,488.18,47.31,488.52,46.18Zm-3.79-2.28h3.8a3.11,3.11,0,0,0-.46-1.61,1.68,1.68,0,0,0-1.41-.77,1.67,1.67,0,0,0-1.32.65A2.77,2.77,0,0,0,484.73,43.9Z"/><path class="cls-4" d="M495.58,48.85V47.8a2.36,2.36,0,0,1-.81.92,1.91,1.91,0,0,1-1.06.32,2.57,2.57,0,0,1-2.08-1.14,5.1,5.1,0,0,1-.88-3.2,6.56,6.56,0,0,1,.39-2.4,3.29,3.29,0,0,1,1-1.46,2.4,2.4,0,0,1,1.45-.48,1.87,1.87,0,0,1,1.05.31,2.39,2.39,0,0,1,.81.83V37.4h1.17V48.85Zm-3.65-4.14a4.15,4.15,0,0,0,.56,2.39,1.58,1.58,0,0,0,1.3.78,1.53,1.53,0,0,0,1.27-.75,3.88,3.88,0,0,0,.54-2.27,4.66,4.66,0,0,0-.54-2.54,1.59,1.59,0,0,0-1.36-.8,1.52,1.52,0,0,0-1.25.77A4.37,4.37,0,0,0,491.93,44.71Z"/><path class="cls-4" d="M378.41,63.9a5,5,0,0,1,.91-3.24,2.91,2.91,0,0,1,4.56,0,4.85,4.85,0,0,1,.91,3.15,5.17,5.17,0,0,1-.9,3.33,2.92,2.92,0,0,1-4.57,0A5,5,0,0,1,378.41,63.9Zm1.18,0a4,4,0,0,0,.59,2.39,1.74,1.74,0,0,0,1.45.79,1.7,1.7,0,0,0,1.4-.79,4,4,0,0,0,.58-2.39,4,4,0,0,0-.59-2.39,1.74,1.74,0,0,0-1.45-.79,1.69,1.69,0,0,0-1.4.79A4.08,4.08,0,0,0,379.59,63.9Z"/><path class="cls-4" d="M390.6,68.05V66.83a2.86,2.86,0,0,1-.94,1,2.13,2.13,0,0,1-1.21.36,2.21,2.21,0,0,1-1.38-.44,2.08,2.08,0,0,1-.76-1.09,6.79,6.79,0,0,1-.19-1.82V59.75h1.15v4.6a7.82,7.82,0,0,0,.12,1.72,1.32,1.32,0,0,0,.48.69,1.26,1.26,0,0,0,.79.27,1.65,1.65,0,0,0,1.36-.68,3.62,3.62,0,0,0,.46-2.15V59.75h1.15v8.3Z"/><path class="cls-4" d="M396,66.79l.15,1.24a3.1,3.1,0,0,1-.86.13,1.71,1.71,0,0,1-1-.24,1.21,1.21,0,0,1-.51-.65,6.54,6.54,0,0,1-.13-1.65V60.85h-.85v-1.1h.85v-2l1.14-.85v2.9H396v1.1h-1.17V65.7a2.14,2.14,0,0,0,.11.86.56.56,0,0,0,.55.29A2.86,2.86,0,0,0,396,66.79Z"/><path class="cls-4" d="M405.17,67a4.1,4.1,0,0,1-1.2.9,3,3,0,0,1-1.3.31A2.28,2.28,0,0,1,401,67.6a2.34,2.34,0,0,1-.64-1.73,2.62,2.62,0,0,1,.3-1.27,2.27,2.27,0,0,1,.81-.87,4.33,4.33,0,0,1,1.57-.46,9,9,0,0,0,2.06-.49v-.36a1.84,1.84,0,0,0-.31-1.2,1.65,1.65,0,0,0-1.32-.5,1.83,1.83,0,0,0-1.2.33,2.21,2.21,0,0,0-.59,1.26l-1.13-.19a3.18,3.18,0,0,1,1-1.95,3.27,3.27,0,0,1,2.11-.61,3,3,0,0,1,1.68.41,1.7,1.7,0,0,1,.77,1,7,7,0,0,1,.16,1.74v1.87a23.12,23.12,0,0,0,.08,2.48,3.58,3.58,0,0,0,.29,1h-1.2A3.64,3.64,0,0,1,405.17,67Zm-.09-3.15a7.34,7.34,0,0,1-1.88.54,3.33,3.33,0,0,0-1,.28,1.21,1.21,0,0,0-.45.45,1.39,1.39,0,0,0-.16.68,1.24,1.24,0,0,0,.37,1,1.37,1.37,0,0,0,1,.35,2,2,0,0,0,1.12-.32,2,2,0,0,0,.76-.85,3.78,3.78,0,0,0,.25-1.56Z"/><path class="cls-4" d="M408,68.05v-8.3h1v1.17a2.76,2.76,0,0,1,.91-1,2.39,2.39,0,0,1,1.25-.34,2.44,2.44,0,0,1,1,.22,2.05,2.05,0,0,1,.75.56,2.21,2.21,0,0,1,.42.9,7.23,7.23,0,0,1,.14,1.71v5.1h-1.15V63a4.34,4.34,0,0,0-.15-1.34,1.36,1.36,0,0,0-.49-.65,1.27,1.27,0,0,0-.77-.23,1.6,1.6,0,0,0-1.32.61,3.46,3.46,0,0,0-.49,2.12v4.54Z"/><path class="cls-4" d="M419.74,68.05V67a2.34,2.34,0,0,1-.8.92,2,2,0,0,1-1.06.32,2.58,2.58,0,0,1-2.09-1.14,5.16,5.16,0,0,1-.88-3.2,6.56,6.56,0,0,1,.39-2.4A3.23,3.23,0,0,1,416.35,60a2.35,2.35,0,0,1,1.44-.48,2,2,0,0,1,1.06.31,2.51,2.51,0,0,1,.81.84V56.6h1.16V68.05Zm-3.65-4.14a4.15,4.15,0,0,0,.56,2.39,1.61,1.61,0,0,0,1.3.78,1.56,1.56,0,0,0,1.28-.75,3.88,3.88,0,0,0,.54-2.27,4.66,4.66,0,0,0-.54-2.54,1.6,1.6,0,0,0-1.36-.8,1.5,1.5,0,0,0-1.25.77A4.36,4.36,0,0,0,416.09,63.91Z"/><path class="cls-4" d="M425.84,65.56l1.14-.21a2.07,2.07,0,0,0,.56,1.3,1.94,1.94,0,0,0,2.36.06,1.22,1.22,0,0,0,.4-.94A.9.9,0,0,0,430,65a4.64,4.64,0,0,0-1.17-.47,8.74,8.74,0,0,1-1.8-.7,2,2,0,0,1-.7-.77A2.34,2.34,0,0,1,426,62a2.32,2.32,0,0,1,.68-1.73,2.58,2.58,0,0,1,1.88-.67,3.14,3.14,0,0,1,1.34.28,2,2,0,0,1,.87.73,3.15,3.15,0,0,1,.43,1.32l-1.13.19a1.35,1.35,0,0,0-1.48-1.36,1.71,1.71,0,0,0-1.11.3.94.94,0,0,0-.37.77.87.87,0,0,0,.35.72,6.46,6.46,0,0,0,1.26.5,9.4,9.4,0,0,1,1.85.72,1.87,1.87,0,0,1,.65.74,2.39,2.39,0,0,1,.23,1.11,2.57,2.57,0,0,1-.75,1.92,2.82,2.82,0,0,1-2.06.74C427,68.24,426.1,67.35,425.84,65.56Z"/><path class="cls-4" d="M432.41,63.9a5,5,0,0,1,.9-3.24,2.91,2.91,0,0,1,4.56,0,4.79,4.79,0,0,1,.91,3.15,5.17,5.17,0,0,1-.9,3.33,2.91,2.91,0,0,1-4.56,0A5,5,0,0,1,432.41,63.9Zm1.18,0a4,4,0,0,0,.58,2.39,1.75,1.75,0,0,0,1.45.79,1.69,1.69,0,0,0,1.4-.79,4,4,0,0,0,.58-2.39,4,4,0,0,0-.58-2.39,1.77,1.77,0,0,0-1.46-.79,1.7,1.7,0,0,0-1.4.79A4.09,4.09,0,0,0,433.59,63.9Z"/><path class="cls-4" d="M440.15,68.05v-8.3h1v1.16a2.69,2.69,0,0,1,.88-1,2.15,2.15,0,0,1,1.18-.35,2,2,0,0,1,1.21.37,2,2,0,0,1,.71,1.08,3.14,3.14,0,0,1,.93-1.08,2,2,0,0,1,1.18-.37,1.93,1.93,0,0,1,1.54.67,3.22,3.22,0,0,1,.57,2.12v5.7h-1.15V62.82a4.55,4.55,0,0,0-.13-1.27,1.17,1.17,0,0,0-.42-.57,1.1,1.1,0,0,0-.66-.2,1.46,1.46,0,0,0-1.21.59,2.91,2.91,0,0,0-.47,1.85v4.83h-1.15v-5.4a2.48,2.48,0,0,0-.32-1.45,1,1,0,0,0-.87-.42,1.47,1.47,0,0,0-1.25.63,4.31,4.31,0,0,0-.45,2.33v4.31Z"/><path class="cls-4" d="M455.72,65.38l1.19.18a3.62,3.62,0,0,1-1.08,2,2.83,2.83,0,0,1-1.92.68,2.86,2.86,0,0,1-2.34-1.1,4.89,4.89,0,0,1-.9-3.17,5.19,5.19,0,0,1,.9-3.28,2.84,2.84,0,0,1,2.29-1.13,2.71,2.71,0,0,1,2.2,1.11,5.05,5.05,0,0,1,.89,3.21v.38h-5.08a3.57,3.57,0,0,0,.65,2.11,1.75,1.75,0,0,0,1.4.71C454.78,67.08,455.38,66.51,455.72,65.38Zm-3.79-2.28h3.8a3.32,3.32,0,0,0-.46-1.61,1.68,1.68,0,0,0-2.74-.12A2.83,2.83,0,0,0,451.93,63.1Z"/><path class="cls-4" d="M458.37,68.05V56.6h1.15v4.11a2.84,2.84,0,0,1,.91-.86,2.29,2.29,0,0,1,1.13-.29,2.18,2.18,0,0,1,1.72.7,3.8,3.8,0,0,1,.63,2.53v5.26h-1.15V62.79a2.52,2.52,0,0,0-.38-1.55,1.3,1.3,0,0,0-1.06-.46,1.64,1.64,0,0,0-1.28.6,3.28,3.28,0,0,0-.52,2.13v4.54Z"/><path class="cls-4" d="M465.23,63.9a5,5,0,0,1,.9-3.24,2.91,2.91,0,0,1,4.56,0,4.79,4.79,0,0,1,.91,3.15,5.17,5.17,0,0,1-.9,3.33,2.91,2.91,0,0,1-4.56,0A5,5,0,0,1,465.23,63.9Zm1.18,0a4,4,0,0,0,.58,2.39,1.75,1.75,0,0,0,1.46.79,1.69,1.69,0,0,0,1.39-.79,4,4,0,0,0,.58-2.39,4,4,0,0,0-.58-2.39,1.75,1.75,0,0,0-1.46-.79,1.7,1.7,0,0,0-1.4.79A4.09,4.09,0,0,0,466.41,63.9Z"/><path class="cls-4" d="M474.21,68.05l-2.09-8.3h1.2l1.08,4.79.4,1.78.36-1.71,1.08-4.86h1.19l1,4.81.35,1.59.38-1.6,1.17-4.8h1.12l-2.12,8.3h-1.2l-1.09-5-.26-1.41-1.37,6.38Z"/><path class="cls-4" d="M490.48,68.05V67a2.26,2.26,0,0,1-.8.92,1.94,1.94,0,0,1-1.06.32,2.57,2.57,0,0,1-2.08-1.14,5.1,5.1,0,0,1-.88-3.2,6.56,6.56,0,0,1,.39-2.4,3.22,3.22,0,0,1,1-1.46,2.35,2.35,0,0,1,1.44-.48,2,2,0,0,1,1.06.31,2.33,2.33,0,0,1,.81.84V56.6h1.16V68.05Zm-3.64-4.14a4.16,4.16,0,0,0,.55,2.39,1.61,1.61,0,0,0,1.31.78,1.55,1.55,0,0,0,1.27-.75,3.88,3.88,0,0,0,.54-2.27,4.66,4.66,0,0,0-.54-2.54,1.6,1.6,0,0,0-1.36-.8,1.52,1.52,0,0,0-1.25.77A4.37,4.37,0,0,0,486.84,63.91Z"/><path class="cls-4" d="M493.38,58.21V56.6h1.14v1.61Zm0,9.84v-8.3h1.14v8.3Z"/><path class="cls-4" d="M500.7,68.05V67a2.36,2.36,0,0,1-.81.92,1.94,1.94,0,0,1-1.06.32,2.57,2.57,0,0,1-2.08-1.14,5.1,5.1,0,0,1-.88-3.2,6.56,6.56,0,0,1,.39-2.4,3.22,3.22,0,0,1,1-1.46,2.36,2.36,0,0,1,1.45-.48,2,2,0,0,1,1.05.31,2.33,2.33,0,0,1,.81.84V56.6h1.16V68.05Zm-3.65-4.14a4.07,4.07,0,0,0,.56,2.39,1.58,1.58,0,0,0,1.3.78,1.55,1.55,0,0,0,1.27-.75,3.88,3.88,0,0,0,.54-2.27,4.66,4.66,0,0,0-.54-2.54,1.6,1.6,0,0,0-1.36-.8,1.52,1.52,0,0,0-1.25.77A4.37,4.37,0,0,0,497.05,63.91Z"/><path class="cls-4" d="M503.59,68.05v-8.3h1v1.17a2.87,2.87,0,0,1,.92-1,2.43,2.43,0,0,1,2.25-.12,2.05,2.05,0,0,1,.75.56,2.22,2.22,0,0,1,.43.9,7.81,7.81,0,0,1,.14,1.71v5.1H508V63a4,4,0,0,0-.16-1.34,1.27,1.27,0,0,0-1.25-.88,1.59,1.59,0,0,0-1.32.61,3.45,3.45,0,0,0-.5,2.12v4.54Z"/><path class="cls-4" d="M510.8,58.24V56.6H512v1.28a3.85,3.85,0,0,1-.27,1.65,1.89,1.89,0,0,1-.79.82l-.28-.55c.45-.23.68-.75.71-1.56Z"/><path class="cls-4" d="M516.36,66.79l.16,1.24a3.21,3.21,0,0,1-.86.13,1.72,1.72,0,0,1-1-.24,1.21,1.21,0,0,1-.51-.65,6.54,6.54,0,0,1-.13-1.65V60.85h-.85v-1.1h.85v-2l1.15-.85v2.9h1.16v1.1H515.2V65.7a2.2,2.2,0,0,0,.1.86.56.56,0,0,0,.55.29A2.86,2.86,0,0,0,516.36,66.79Z"/><path class="cls-4" d="M378.62,87.94l1.13.2a1.43,1.43,0,0,0,.47,1,1.62,1.62,0,0,0,1.08.33A1.67,1.67,0,0,0,383.12,88a9.73,9.73,0,0,0,.11-1.84,2.71,2.71,0,0,1-.85.81,2,2,0,0,1-1,.27,2.49,2.49,0,0,1-2-1A5.09,5.09,0,0,1,378.4,83a6.23,6.23,0,0,1,.4-2.34,3.27,3.27,0,0,1,1.07-1.47,2.51,2.51,0,0,1,1.48-.47,2.09,2.09,0,0,1,1.1.3,2.73,2.73,0,0,1,.88.88V79h1.06v7.17a8.35,8.35,0,0,1-.31,2.73,2.59,2.59,0,0,1-1,1.29,3,3,0,0,1-1.71.48,2.73,2.73,0,0,1-2-.72A2.61,2.61,0,0,1,378.62,87.94Zm1-5a4.16,4.16,0,0,0,.54,2.39,1.59,1.59,0,0,0,1.32.75,1.61,1.61,0,0,0,1.33-.73,5.21,5.21,0,0,0,0-4.68,1.67,1.67,0,0,0-1.37-.76,1.56,1.56,0,0,0-1.27.76A3.94,3.94,0,0,0,379.58,83Z"/><path class="cls-4" d="M390.8,84.58l1.18.18a3.55,3.55,0,0,1-1.07,2,2.84,2.84,0,0,1-1.93.68,2.89,2.89,0,0,1-2.34-1.1,5,5,0,0,1-.89-3.17,5.19,5.19,0,0,1,.9-3.28,2.82,2.82,0,0,1,2.29-1.13,2.71,2.71,0,0,1,2.2,1.11,5.05,5.05,0,0,1,.88,3.21v.38h-5.08a3.53,3.53,0,0,0,.65,2.11,1.75,1.75,0,0,0,1.4.71C389.86,86.28,390.46,85.71,390.8,84.58ZM387,82.3h3.79a3.11,3.11,0,0,0-.46-1.61,1.68,1.68,0,0,0-1.41-.77,1.66,1.66,0,0,0-1.32.64A2.82,2.82,0,0,0,387,82.3Z"/><path class="cls-4" d="M396,86l.15,1.24a3.1,3.1,0,0,1-.86.13,1.71,1.71,0,0,1-1-.24,1.21,1.21,0,0,1-.51-.65,6.54,6.54,0,0,1-.13-1.65V80h-.85V79h.85v-2l1.14-.85V79H396V80h-1.17V84.9a2.17,2.17,0,0,0,.11.86.55.55,0,0,0,.55.28A2.7,2.7,0,0,0,396,86Z"/><path class="cls-4" d="M403.3,86l.16,1.24a3.15,3.15,0,0,1-.86.13,1.76,1.76,0,0,1-1-.24,1.24,1.24,0,0,1-.5-.65,6.39,6.39,0,0,1-.14-1.65V80h-.84V79H401v-2l1.15-.85V79h1.16V80h-1.16V84.9a2.23,2.23,0,0,0,.1.86.57.57,0,0,0,.56.28A2.54,2.54,0,0,0,403.3,86Z"/><path class="cls-4" d="M404.39,77.41V75.79h1.15v1.62Zm0,9.84V79h1.15v8.3Z"/><path class="cls-4" d="M407.3,87.25V79h1v1.26a3.67,3.67,0,0,1,.73-1.16,1.14,1.14,0,0,1,.75-.29,2,2,0,0,1,1.18.46l-.39,1.3a1.49,1.49,0,0,0-.84-.3,1,1,0,0,0-.67.25,1.45,1.45,0,0,0-.43.72,6.79,6.79,0,0,0-.22,1.71v4.35Z"/><path class="cls-4" d="M416.32,84.58l1.19.18a3.62,3.62,0,0,1-1.08,2,2.82,2.82,0,0,1-1.92.68,2.86,2.86,0,0,1-2.34-1.1,4.89,4.89,0,0,1-.9-3.17,5.13,5.13,0,0,1,.91-3.28,2.8,2.8,0,0,1,2.28-1.13,2.69,2.69,0,0,1,2.2,1.11,5.05,5.05,0,0,1,.89,3.21v.38h-5.08a3.6,3.6,0,0,0,.65,2.11,1.77,1.77,0,0,0,1.41.71C415.38,86.28,416,85.71,416.32,84.58Zm-3.79-2.28h3.8a3.21,3.21,0,0,0-.46-1.61,1.69,1.69,0,0,0-2.74-.13A2.88,2.88,0,0,0,412.53,82.3Z"/><path class="cls-4" d="M423.38,87.25v-1a2.36,2.36,0,0,1-.81.92,1.94,1.94,0,0,1-1.06.32,2.57,2.57,0,0,1-2.08-1.14,5.12,5.12,0,0,1-.88-3.2,6.56,6.56,0,0,1,.39-2.4,3.16,3.16,0,0,1,1-1.46,2.35,2.35,0,0,1,1.44-.48,2,2,0,0,1,1.06.3,2.33,2.33,0,0,1,.81.84V75.79h1.16V87.25Zm-3.65-4.14a4.07,4.07,0,0,0,.56,2.39,1.58,1.58,0,0,0,1.3.78,1.55,1.55,0,0,0,1.27-.75,3.9,3.9,0,0,0,.54-2.27,4.63,4.63,0,0,0-.54-2.54,1.6,1.6,0,0,0-1.36-.8,1.52,1.52,0,0,0-1.25.77A4.37,4.37,0,0,0,419.73,83.11Z"/><path class="cls-4" d="M426.62,87.25v-1.6h1.32v1.6Z"/><path class="cls-4" d="M23.28,28.62a4,4,0,0,1-1.2.91,3,3,0,0,1-1.3.31,2.28,2.28,0,0,1-1.69-.64,2.34,2.34,0,0,1-.64-1.73,2.62,2.62,0,0,1,.3-1.27,2.27,2.27,0,0,1,.81-.87,4.33,4.33,0,0,1,1.56-.46,9,9,0,0,0,2.07-.49V24a1.84,1.84,0,0,0-.31-1.2,1.67,1.67,0,0,0-1.32-.5,1.83,1.83,0,0,0-1.2.33,2.21,2.21,0,0,0-.59,1.26l-1.13-.19a3.18,3.18,0,0,1,1-1.95,3.27,3.27,0,0,1,2.11-.61,3,3,0,0,1,1.68.41,1.71,1.71,0,0,1,.77,1,7,7,0,0,1,.16,1.74v1.87a23.12,23.12,0,0,0,.08,2.48,3.58,3.58,0,0,0,.29,1h-1.2A3.63,3.63,0,0,1,23.28,28.62Zm-.09-3.14A7.31,7.31,0,0,1,21.3,26a3.33,3.33,0,0,0-1,.28,1.21,1.21,0,0,0-.45.45,1.37,1.37,0,0,0-.16.68,1.24,1.24,0,0,0,.37.95,1.37,1.37,0,0,0,1,.35,2,2,0,0,0,1.12-.32,2,2,0,0,0,.76-.85A4,4,0,0,0,23.19,26Z"/><path class="cls-4" d="M30.6,26.61l1.13.18a3.73,3.73,0,0,1-1,2.26,2.54,2.54,0,0,1-1.88.79,2.68,2.68,0,0,1-2.2-1.1,5.16,5.16,0,0,1-.87-3.25,5,5,0,0,1,.88-3.24,2.71,2.71,0,0,1,2.23-1.09,2.53,2.53,0,0,1,1.78.66,3.26,3.26,0,0,1,.93,2L30.5,24a2.39,2.39,0,0,0-.57-1.25,1.32,1.32,0,0,0-1-.42,1.71,1.71,0,0,0-1.41.75,4.12,4.12,0,0,0-.56,2.4,4.29,4.29,0,0,0,.54,2.45,1.61,1.61,0,0,0,1.37.76,1.48,1.48,0,0,0,1.12-.5A2.74,2.74,0,0,0,30.6,26.61Z"/><path class="cls-4" d="M35.27,28.39l.16,1.24a3.15,3.15,0,0,1-.86.13,1.76,1.76,0,0,1-1-.24,1.24,1.24,0,0,1-.5-.65A6.39,6.39,0,0,1,33,27.22V22.45h-.84v-1.1H33V19.3l1.15-.85v2.9h1.16v1.1H34.11V27.3a2.2,2.2,0,0,0,.1.86.58.58,0,0,0,.56.29A2.67,2.67,0,0,0,35.27,28.39Z"/><path class="cls-4" d="M36.36,19.81V18.2h1.15v1.61Zm0,9.84v-8.3h1.15v8.3Z"/><path class="cls-4" d="M41.17,29.65l-2.58-8.3H39.8l1.47,5c.17.56.31,1.12.44,1.67.1-.44.24-1,.42-1.58l1.52-5.06h1.19l-2.59,8.3Z"/><path class="cls-4" d="M50.48,27l1.19.18a3.61,3.61,0,0,1-1.07,2,2.84,2.84,0,0,1-1.93.68,2.89,2.89,0,0,1-2.34-1.1,5,5,0,0,1-.89-3.17,5.19,5.19,0,0,1,.9-3.28,2.8,2.8,0,0,1,2.28-1.13,2.72,2.72,0,0,1,2.21,1.11,5.05,5.05,0,0,1,.88,3.21v.38H46.62A3.64,3.64,0,0,0,47.27,28a1.78,1.78,0,0,0,1.41.71C49.54,28.68,50.15,28.11,50.48,27ZM46.7,24.7h3.79A3.11,3.11,0,0,0,50,23.09,1.68,1.68,0,0,0,47.3,23,2.76,2.76,0,0,0,46.7,24.7Z"/><path class="cls-4" d="M378.6,524.19v-1.35h6.07v1.09a17.43,17.43,0,0,0-2.39,4.6,19.71,19.71,0,0,0-1.19,5.61h-1.18a17,17,0,0,1,.46-3.35,20,20,0,0,1,1.19-3.65,16.14,16.14,0,0,1,1.63-2.95Z"/><path class="cls-4" d="M385.82,528.49a9.62,9.62,0,0,1,.78-4.36,2.47,2.47,0,0,1,2.29-1.49,2.39,2.39,0,0,1,2.12,1.21,8.83,8.83,0,0,1,.94,4.64,9.62,9.62,0,0,1-.78,4.36,2.46,2.46,0,0,1-2.29,1.49,2.55,2.55,0,0,1-2.2-1.31A8.79,8.79,0,0,1,385.82,528.49Zm1.18,0a8.58,8.58,0,0,0,.54,3.74,1.55,1.55,0,0,0,1.37.95,1.53,1.53,0,0,0,1.32-1,13.19,13.19,0,0,0,0-7.47,1.57,1.57,0,0,0-1.39-1,1.53,1.53,0,0,0-1.31,1A8.78,8.78,0,0,0,387,528.49Z"/><path class="cls-4" d="M558.94,281.65V270.2h1.24v10.1h4.62v1.35Z"/><path class="cls-4" d="M570.8,279l1.18.18a3.55,3.55,0,0,1-1.07,2,2.84,2.84,0,0,1-1.93.68,2.89,2.89,0,0,1-2.34-1.1,5,5,0,0,1-.89-3.17,5.19,5.19,0,0,1,.9-3.28,2.82,2.82,0,0,1,2.29-1.13,2.71,2.71,0,0,1,2.2,1.11,5.05,5.05,0,0,1,.88,3.21v.38h-5.08a3.5,3.5,0,0,0,.65,2.11,1.75,1.75,0,0,0,1.4.71C569.86,280.68,570.46,280.11,570.8,279ZM567,276.7h3.79a3.11,3.11,0,0,0-.46-1.61,1.68,1.68,0,0,0-2.73-.13A2.82,2.82,0,0,0,567,276.7Z"/><path class="cls-4" d="M573.22,282.34l1.12.2a1.48,1.48,0,0,0,.47,1,1.63,1.63,0,0,0,1.09.33,1.9,1.9,0,0,0,1.21-.36,1.91,1.91,0,0,0,.61-1.09,10,10,0,0,0,.1-1.84,2.68,2.68,0,0,1-.84.81,2.07,2.07,0,0,1-1,.27,2.49,2.49,0,0,1-2-1,5.07,5.07,0,0,1-.92-3.18,6.23,6.23,0,0,1,.41-2.34,3.24,3.24,0,0,1,1.06-1.47,2.56,2.56,0,0,1,1.49-.47,2.05,2.05,0,0,1,1.09.3,2.73,2.73,0,0,1,.88.88v-1H579v7.17a8.35,8.35,0,0,1-.31,2.73,2.62,2.62,0,0,1-1,1.29,3,3,0,0,1-1.71.48,2.72,2.72,0,0,1-2-.72A2.54,2.54,0,0,1,573.22,282.34Zm.95-5a4.16,4.16,0,0,0,.54,2.39,1.59,1.59,0,0,0,1.33.75,1.62,1.62,0,0,0,1.33-.73,4,4,0,0,0,.54-2.35,3.91,3.91,0,0,0-.56-2.33,1.68,1.68,0,0,0-1.37-.76,1.56,1.56,0,0,0-1.26.76A3.86,3.86,0,0,0,574.17,277.35Z"/><path class="cls-4" d="M580.3,279.16l1.15-.21a2,2,0,0,0,.55,1.3,1.94,1.94,0,0,0,2.36.06,1.23,1.23,0,0,0,.41-.94.91.91,0,0,0-.36-.77,4.64,4.64,0,0,0-1.17-.47,8.35,8.35,0,0,1-1.79-.7,2,2,0,0,1-.71-.77,2.48,2.48,0,0,1-.25-1.11,2.31,2.31,0,0,1,.68-1.72,2.58,2.58,0,0,1,1.88-.67,3,3,0,0,1,1.34.28,2.13,2.13,0,0,1,.88.73,3.3,3.3,0,0,1,.42,1.32l-1.13.19a1.34,1.34,0,0,0-1.47-1.36,1.74,1.74,0,0,0-1.12.3.94.94,0,0,0-.37.77.87.87,0,0,0,.35.72,6.46,6.46,0,0,0,1.26.5,9.4,9.4,0,0,1,1.85.72,1.8,1.8,0,0,1,.65.74,2.38,2.38,0,0,1,.24,1.1,2.58,2.58,0,0,1-.76,1.93,2.82,2.82,0,0,1-2.06.74C581.5,281.84,580.56,281,580.3,279.16Z"/><path class="cls-4" d="M591,281.65v-8.3h1v1.17a2.78,2.78,0,0,1,.92-1,2.33,2.33,0,0,1,1.24-.34,2.41,2.41,0,0,1,1,.22,2.05,2.05,0,0,1,.75.56,2.36,2.36,0,0,1,.43.9,7.81,7.81,0,0,1,.14,1.71v5.1h-1.15v-5a4,4,0,0,0-.16-1.34,1.3,1.3,0,0,0-1.26-.88,1.6,1.6,0,0,0-1.32.61,3.53,3.53,0,0,0-.49,2.12v4.54Z"/><path class="cls-4" d="M597.81,277.5a5,5,0,0,1,.9-3.24,2.91,2.91,0,0,1,4.56,0,4.79,4.79,0,0,1,.92,3.15,5.17,5.17,0,0,1-.9,3.33,2.92,2.92,0,0,1-4.57,0A5,5,0,0,1,597.81,277.5Zm1.18,0a4,4,0,0,0,.59,2.39,1.74,1.74,0,0,0,1.45.79,1.7,1.7,0,0,0,1.4-.79,4.11,4.11,0,0,0,.58-2.39,4,4,0,0,0-.59-2.39,1.74,1.74,0,0,0-1.45-.79,1.69,1.69,0,0,0-1.4.79A4,4,0,0,0,599,277.5Z"/><path class="cls-4" d="M608.11,280.39l.16,1.24a3.21,3.21,0,0,1-.86.13,1.72,1.72,0,0,1-1-.24,1.21,1.21,0,0,1-.51-.65,6.54,6.54,0,0,1-.13-1.65v-4.77H605v-1.1h.85V271.3l1.15-.85v2.9h1.16v1.1H607v4.85a2.2,2.2,0,0,0,.1.86.56.56,0,0,0,.55.29A2.86,2.86,0,0,0,608.11,280.39Z"/><path class="cls-4" d="M612.4,279.16l1.15-.21a2,2,0,0,0,.55,1.3,1.94,1.94,0,0,0,2.36.06,1.23,1.23,0,0,0,.41-.94.93.93,0,0,0-.35-.77,5,5,0,0,0-1.18-.47,8.35,8.35,0,0,1-1.79-.7,2,2,0,0,1-.71-.77,2.48,2.48,0,0,1-.25-1.11,2.31,2.31,0,0,1,.68-1.72,2.61,2.61,0,0,1,1.89-.67,3,3,0,0,1,1.33.28,2.13,2.13,0,0,1,.88.73,3.3,3.3,0,0,1,.42,1.32l-1.13.19a1.34,1.34,0,0,0-1.47-1.36,1.76,1.76,0,0,0-1.12.3,1,1,0,0,0-.37.77.86.86,0,0,0,.36.72,6.25,6.25,0,0,0,1.25.5,9.4,9.4,0,0,1,1.85.72,1.8,1.8,0,0,1,.65.74,2.38,2.38,0,0,1,.24,1.1,2.55,2.55,0,0,1-.76,1.93,2.82,2.82,0,0,1-2.06.74C613.6,281.84,612.66,281,612.4,279.16Z"/><path class="cls-4" d="M619,277.5a5,5,0,0,1,.9-3.24,2.91,2.91,0,0,1,4.56,0,4.79,4.79,0,0,1,.91,3.15,5.23,5.23,0,0,1-.89,3.33,2.92,2.92,0,0,1-4.57,0A5,5,0,0,1,619,277.5Zm1.18,0a4,4,0,0,0,.58,2.39,1.75,1.75,0,0,0,1.46.79,1.69,1.69,0,0,0,1.39-.79,4,4,0,0,0,.58-2.39,4,4,0,0,0-.58-2.39,1.75,1.75,0,0,0-1.46-.79,1.67,1.67,0,0,0-1.39.79A4,4,0,0,0,620.15,277.5Z"/><path class="cls-4" d="M626.7,281.65v-8.3h1v1.26a3.67,3.67,0,0,1,.73-1.16,1.12,1.12,0,0,1,.75-.29,2,2,0,0,1,1.18.46l-.39,1.3a1.49,1.49,0,0,0-.84-.3,1,1,0,0,0-.67.26,1.38,1.38,0,0,0-.43.71,6.36,6.36,0,0,0-.22,1.71v4.35Z"/><path class="cls-4" d="M635.72,279l1.19.18a3.62,3.62,0,0,1-1.08,2,2.83,2.83,0,0,1-1.92.68,2.86,2.86,0,0,1-2.34-1.1,4.89,4.89,0,0,1-.9-3.17,5.19,5.19,0,0,1,.9-3.28,2.84,2.84,0,0,1,2.29-1.13,2.71,2.71,0,0,1,2.2,1.11,5.05,5.05,0,0,1,.89,3.21v.38h-5.08a3.57,3.57,0,0,0,.65,2.11,1.75,1.75,0,0,0,1.4.71C634.78,280.68,635.38,280.11,635.72,279Zm-3.79-2.28h3.8a3.32,3.32,0,0,0-.46-1.61,1.69,1.69,0,0,0-2.74-.13A2.88,2.88,0,0,0,631.93,276.7Z"/><path class="cls-4" d="M638.7,281.65v-1.6H640v1.6a3.27,3.27,0,0,1-.28,1.46,1.85,1.85,0,0,1-.79.8l-.33-.6a1.18,1.18,0,0,0,.54-.56,2.72,2.72,0,0,0,.19-1.1Z"/><path class="cls-4" d="M645.66,271.81V270.2h1.15v1.61Zm0,9.84v-8.3h1.15v8.3Z"/><path class="cls-4" d="M648.59,281.65v-8.3h1v1.16a2.69,2.69,0,0,1,.88-1,2.15,2.15,0,0,1,1.18-.35,2,2,0,0,1,1.21.37,2,2,0,0,1,.7,1.08,3.27,3.27,0,0,1,.94-1.08,2,2,0,0,1,1.17-.37,1.94,1.94,0,0,1,1.55.67,3.28,3.28,0,0,1,.56,2.12v5.7h-1.15v-5.23a4.19,4.19,0,0,0-.13-1.27,1.11,1.11,0,0,0-1.07-.77,1.45,1.45,0,0,0-1.21.59,2.91,2.91,0,0,0-.48,1.85v4.83h-1.15v-5.4a2.49,2.49,0,0,0-.31-1.45,1,1,0,0,0-.87-.42,1.47,1.47,0,0,0-1.25.63,4.29,4.29,0,0,0-.46,2.33v4.31Z"/><path class="cls-4" d="M659.51,284.83V273.35h1.06v1.08a2.7,2.7,0,0,1,.87-1,2,2,0,0,1,1.09-.3,2.38,2.38,0,0,1,1.45.48,3.26,3.26,0,0,1,1,1.45,6.3,6.3,0,0,1,.39,2.34,5.23,5.23,0,0,1-.88,3.26,2.61,2.61,0,0,1-2.08,1.15,1.87,1.87,0,0,1-1-.28,2.51,2.51,0,0,1-.79-.77v4Zm1-7.28a4.24,4.24,0,0,0,.53,2.37,1.47,1.47,0,0,0,2.59,0,4.3,4.3,0,0,0,.55-2.44,4.35,4.35,0,0,0-.53-2.4,1.43,1.43,0,0,0-2.58.06A4.42,4.42,0,0,0,660.56,277.55Z"/><path class="cls-4" d="M666.37,277.5a5,5,0,0,1,.9-3.24,2.91,2.91,0,0,1,4.56,0,4.79,4.79,0,0,1,.91,3.15,5.17,5.17,0,0,1-.9,3.33,2.91,2.91,0,0,1-4.56,0A5,5,0,0,1,666.37,277.5Zm1.18,0a4,4,0,0,0,.58,2.39,1.75,1.75,0,0,0,1.46.79,1.69,1.69,0,0,0,1.39-.79,4,4,0,0,0,.58-2.39,4,4,0,0,0-.58-2.39,1.75,1.75,0,0,0-1.46-.79,1.7,1.7,0,0,0-1.4.79A4.09,4.09,0,0,0,667.55,277.5Z"/><path class="cls-4" d="M674.1,281.65v-8.3h1v1.26a3.67,3.67,0,0,1,.73-1.16,1.12,1.12,0,0,1,.75-.29,2,2,0,0,1,1.18.46l-.39,1.3a1.49,1.49,0,0,0-.84-.3,1,1,0,0,0-.67.26,1.38,1.38,0,0,0-.43.71,6.36,6.36,0,0,0-.22,1.71v4.35Z"/><path class="cls-4" d="M681,280.39l.16,1.24a3.21,3.21,0,0,1-.86.13,1.74,1.74,0,0,1-1-.24,1.19,1.19,0,0,1-.5-.65,6,6,0,0,1-.14-1.65v-4.77h-.84v-1.1h.84V271.3l1.15-.85v2.9H681v1.1h-1.16v4.85a2.2,2.2,0,0,0,.1.86.56.56,0,0,0,.55.29A2.86,2.86,0,0,0,681,280.39Z"/><path class="cls-4" d="M686.55,280.62a4.14,4.14,0,0,1-1.21.91,2.92,2.92,0,0,1-1.29.31,2.31,2.31,0,0,1-1.7-.64,2.37,2.37,0,0,1-.63-1.73,2.62,2.62,0,0,1,.3-1.27,2.13,2.13,0,0,1,.81-.87,4.2,4.2,0,0,1,1.56-.46,8.74,8.74,0,0,0,2.06-.49V276a1.85,1.85,0,0,0-.3-1.2,1.67,1.67,0,0,0-1.32-.5,1.88,1.88,0,0,0-1.21.33,2.21,2.21,0,0,0-.58,1.26l-1.14-.19a3.23,3.23,0,0,1,1-2,3.3,3.3,0,0,1,2.12-.61,3,3,0,0,1,1.68.41,1.75,1.75,0,0,1,.77,1,7.53,7.53,0,0,1,.16,1.74v1.87a24.27,24.27,0,0,0,.07,2.48,3.94,3.94,0,0,0,.29,1h-1.2A3.33,3.33,0,0,1,686.55,280.62Zm-.1-3.14a7.34,7.34,0,0,1-1.88.54,3.51,3.51,0,0,0-1,.28,1.12,1.12,0,0,0-.44.45,1.37,1.37,0,0,0-.16.68,1.27,1.27,0,0,0,.36.95,1.41,1.41,0,0,0,1,.35,2,2,0,0,0,1.12-.32,1.87,1.87,0,0,0,.75-.85,3.78,3.78,0,0,0,.25-1.56Z"/><path class="cls-4" d="M689.41,281.65v-8.3h1v1.17a2.78,2.78,0,0,1,.92-1,2.35,2.35,0,0,1,1.24-.34,2.41,2.41,0,0,1,1,.22,2.05,2.05,0,0,1,.75.56,2.36,2.36,0,0,1,.43.9,7.81,7.81,0,0,1,.14,1.71v5.1h-1.15v-5a4,4,0,0,0-.16-1.34,1.3,1.3,0,0,0-1.25-.88,1.61,1.61,0,0,0-1.33.61,3.53,3.53,0,0,0-.49,2.12v4.54Z"/><path class="cls-4" d="M699.27,280.39l.16,1.24a3.15,3.15,0,0,1-.86.13,1.76,1.76,0,0,1-1-.24,1.24,1.24,0,0,1-.5-.65,6.39,6.39,0,0,1-.14-1.65v-4.77h-.84v-1.1H697V271.3l1.15-.85v2.9h1.16v1.1h-1.16v4.85a2.2,2.2,0,0,0,.1.86.58.58,0,0,0,.56.29A2.67,2.67,0,0,0,699.27,280.39Z"/><path class="cls-4" d="M558.41,298.36l1.14-.21a2.07,2.07,0,0,0,.56,1.3,1.94,1.94,0,0,0,2.36.06,1.23,1.23,0,0,0,.41-.94.91.91,0,0,0-.36-.77,4.64,4.64,0,0,0-1.17-.47,8.74,8.74,0,0,1-1.8-.7,2,2,0,0,1-.7-.77,2.36,2.36,0,0,1-.25-1.11,2.31,2.31,0,0,1,.68-1.72,2.58,2.58,0,0,1,1.88-.67,3.14,3.14,0,0,1,1.34.28,2.13,2.13,0,0,1,.88.73,3.3,3.3,0,0,1,.42,1.32l-1.13.19a1.34,1.34,0,0,0-1.47-1.36,1.74,1.74,0,0,0-1.12.3.94.94,0,0,0-.37.77.87.87,0,0,0,.35.72,6.46,6.46,0,0,0,1.26.5,9.4,9.4,0,0,1,1.85.72,1.8,1.8,0,0,1,.65.74,2.39,2.39,0,0,1,.23,1.11,2.57,2.57,0,0,1-.75,1.92,2.82,2.82,0,0,1-2.06.74C559.61,301,558.67,300.15,558.41,298.36Z"/><path class="cls-4" d="M568,299.59l.15,1.24a3.1,3.1,0,0,1-.86.13,1.76,1.76,0,0,1-1-.24,1.24,1.24,0,0,1-.5-.65,6.39,6.39,0,0,1-.14-1.65v-4.77h-.84v-1.1h.84V290.5l1.15-.85v2.9H568v1.1h-1.17v4.85a2.42,2.42,0,0,0,.1.86.58.58,0,0,0,.56.29A2.86,2.86,0,0,0,568,299.59Z"/><path class="cls-4" d="M569.06,300.85v-8.3h1v1.26a3.67,3.67,0,0,1,.73-1.16,1.12,1.12,0,0,1,.75-.29,2,2,0,0,1,1.18.46l-.39,1.3a1.49,1.49,0,0,0-.84-.3,1,1,0,0,0-.67.26,1.38,1.38,0,0,0-.43.71,6.36,6.36,0,0,0-.22,1.71v4.35Z"/><path class="cls-4" d="M578.08,298.18l1.19.18a3.62,3.62,0,0,1-1.08,2,2.83,2.83,0,0,1-1.92.68,2.86,2.86,0,0,1-2.34-1.1,4.89,4.89,0,0,1-.9-3.17,5.19,5.19,0,0,1,.9-3.28,2.84,2.84,0,0,1,2.29-1.13,2.71,2.71,0,0,1,2.2,1.11,5.05,5.05,0,0,1,.88,3.21v.38h-5.08a3.57,3.57,0,0,0,.65,2.11,1.75,1.75,0,0,0,1.4.71C577.14,299.88,577.74,299.31,578.08,298.18Zm-3.79-2.28h3.8a3.2,3.2,0,0,0-.47-1.61,1.67,1.67,0,0,0-2.73-.12A2.83,2.83,0,0,0,574.29,295.9Z"/><path class="cls-4" d="M583.29,299.59l.16,1.24a3.21,3.21,0,0,1-.86.13,1.72,1.72,0,0,1-1-.24,1.21,1.21,0,0,1-.51-.65,6.54,6.54,0,0,1-.13-1.65v-4.77h-.85v-1.1H581V290.5l1.14-.85v2.9h1.17v1.1h-1.17v4.85a2.14,2.14,0,0,0,.11.86.56.56,0,0,0,.55.29A2.86,2.86,0,0,0,583.29,299.59Z"/><path class="cls-4" d="M588.83,297.81,590,298a3.79,3.79,0,0,1-1,2.26,2.55,2.55,0,0,1-1.89.79,2.7,2.7,0,0,1-2.2-1.1,5.23,5.23,0,0,1-.86-3.25,5.09,5.09,0,0,1,.87-3.24,2.73,2.73,0,0,1,2.24-1.09,2.55,2.55,0,0,1,1.78.66,3.2,3.2,0,0,1,.92,2l-1.11.2a2.39,2.39,0,0,0-.57-1.25,1.32,1.32,0,0,0-1-.42,1.69,1.69,0,0,0-1.41.75,4.12,4.12,0,0,0-.56,2.4,4.29,4.29,0,0,0,.54,2.45,1.59,1.59,0,0,0,1.37.76,1.5,1.5,0,0,0,1.12-.5A2.74,2.74,0,0,0,588.83,297.81Z"/><path class="cls-4" d="M590.94,300.85V289.4h1.15v4.1a2.8,2.8,0,0,1,.91-.85,2.29,2.29,0,0,1,1.13-.29,2.18,2.18,0,0,1,1.72.7,3.8,3.8,0,0,1,.63,2.53v5.26h-1.15v-5.26A2.52,2.52,0,0,0,595,294a1.3,1.3,0,0,0-1.06-.46,1.64,1.64,0,0,0-1.28.6,3.28,3.28,0,0,0-.52,2.13v4.54Z"/><path class="cls-4" d="M598.59,300.85v-1.6h1.32v1.6Z"/><path class="cls-4" d="M918.71,271.7v-1.36h6.07v1.1a16.71,16.71,0,0,0-2.39,4.6,19.23,19.23,0,0,0-1.19,5.61H920a16.77,16.77,0,0,1,.45-3.35,20.52,20.52,0,0,1,1.19-3.65,16.41,16.41,0,0,1,1.63-2.95Z"/><path class="cls-4" d="M930.27,281.65h-1.16v-9a5.74,5.74,0,0,1-1.07.95,6.55,6.55,0,0,1-1.23.74V273a7.25,7.25,0,0,0,1.68-1.33,5.11,5.11,0,0,0,1-1.54h.75Z"/><g class="cls-2"><path class="cls-3" d="M950.56,735.87l-1.2-182.4v-31.2a44,44,0,0,1,0-10.24l-.26-31.28"/><path class="cls-3" d="M911.86,642.27a3.53,3.53,0,0,1-2.08-.27c-2.31-1.53,2.16-4.36,2.9-4.9,4.73-3.47,10.14-6.24,15.24-9.08,1.08-.6,11.55-7.54,12.14-6.45"/><path class="cls-3" d="M941.76,628.57c-3,0-6.08-.13-9.12,0a31.92,31.92,0,0,0-8.48,1.14,7.2,7.2,0,0,1-2.4.65"/><path class="cls-3" d="M985.36,641.67l-.86.14q23.16-5.41,46.5-9.75-12.21,1.47-24.42,3.07a124.57,124.57,0,0,1-14.64,2.07l1.82-.93"/><path class="cls-3" d="M972.88,617.55s10.64-5.76,18.88-5.76,10.64,1.44,10.64,1.44"/><path class="cls-3" d="M990.16,601.71s6.92-3.84,13.78-1.44"/><path class="cls-3" d="M953.78,622.35s20.18-6.73,27-1"/><path class="cls-3" d="M930,378.07c1.23-.16,1.59,1.23,2.23,2a18.61,18.61,0,0,1,2.34,3.89c.27.55.7,1,.95,1.54.2-.21.29-.25.33-.55-.2,1.62.91,3.51,1.22,5.11a55.24,55.24,0,0,0,2.27,7.1,30.45,30.45,0,0,0,3.49,7,5,5,0,0,1,1,2.61c.15,1.24.61,2.41.86,3.63a8.4,8.4,0,0,0,.46,1.92,6.71,6.71,0,0,1,.7,1.39c.1.46,0,.93.16,1.41a16.2,16.2,0,0,1,.77,2.91,16.82,16.82,0,0,0,.68,2.43c.19.77.25,1.56.49,2.34.18.56.59,1.14.71,1.71s.15,1.39.35,2.12a47.19,47.19,0,0,1,1.86,8.92,17,17,0,0,0,.72,3.11c.26.94.81,1.93,1,2.89.35,2,.73,3.92.95,6a63.86,63.86,0,0,1,0,6.49"/><path class="cls-3" d="M831.61,471c5,.58,13.59-.72,18-1.17,4.67-.48,10.7-1.69,15.64-1.66"/></g></g></svg>