<svg id="Layer_1" data-name="Layer 1" xmlns="http://www.w3.org/2000/svg" xmlns:xlink="http://www.w3.org/1999/xlink" viewBox="0 0 1080 756"><defs><style>.cls-1,.cls-3{fill:none;}.cls-2{clip-path:url(#clip-path);}.cls-3{stroke:#231f20;stroke-width:0.25px;}.cls-4{fill:#231f20;}</style><clipPath id="clip-path"><rect class="cls-1" width="1080" height="756"/></clipPath></defs><title>Untitled-3</title><g class="cls-2"><g class="cls-2"><line class="cls-3" x1="180" y1="-18.36" x2="180" y2="790.92"/><line class="cls-3" x1="720" y1="-20.88" x2="720" y2="788.4"/><line class="cls-3" x1="359.88" y1="-18.36" x2="359.88" y2="790.92"/><line class="cls-3" x1="899.87" y1="-20.88" x2="899.87" y2="788.4"/><line class="cls-3" x1="-16.92" y1="251.88" x2="1101.6" y2="251.88"/><line class="cls-3" x1="-11.52" y1="504.13" x2="1107" y2="504.13"/><line class="cls-3" x1="540" y1="-19.44" x2="540" y2="789.84"/></g><path class="cls-4" d="M378.7,24.64v-1.3l6.22-3.22v1.39L380,24l4.93,2.49v1.4Z"/><path class="cls-4" d="M386.08,25.5a5,5,0,0,1,.9-3.24,2.91,2.91,0,0,1,4.56,0,4.79,4.79,0,0,1,.91,3.15,5.17,5.17,0,0,1-.9,3.33,2.91,2.91,0,0,1-4.56,0A5,5,0,0,1,386.08,25.5Zm1.18,0a4,4,0,0,0,.58,2.39,1.75,1.75,0,0,0,1.46.79,1.69,1.69,0,0,0,1.39-.79,4,4,0,0,0,.58-2.39,4,4,0,0,0-.58-2.39,1.75,1.75,0,0,0-1.46-.79,1.67,1.67,0,0,0-1.39.79A4,4,0,0,0,387.26,25.5Z"/><path class="cls-4" d="M393.77,29.65V18.2h1.15V29.65Z"/><path class="cls-4" d="M402.8,24.64l-6.22,3.24v-1.4L401.51,24l-4.93-2.48V20.12l6.22,3.22Z"/><path class="cls-4" d="M198.52,530.65l1.21-.13a2.93,2.93,0,0,0,.64,1.63,1.53,1.53,0,0,0,1.15.54,1.76,1.76,0,0,0,1.42-.76,3.28,3.28,0,0,0,.59-2.06A2.85,2.85,0,0,0,203,528a1.84,1.84,0,0,0-2.42-.39,2.08,2.08,0,0,0-.73.82l-1.08-.17.91-5.89h4.66v1.35h-3.74l-.51,3.08a2.69,2.69,0,0,1,1.78-.72,2.64,2.64,0,0,1,2,1,4,4,0,0,1,.87,2.71,4.77,4.77,0,0,1-.87,2.88,2.75,2.75,0,0,1-2.34,1.2,2.81,2.81,0,0,1-2.06-.84A3.64,3.64,0,0,1,198.52,530.65Z"/><path class="cls-4" d="M211.8,525l-1.15.11a2.8,2.8,0,0,0-.48-1.25,1.43,1.43,0,0,0-1.11-.55,1.85,1.85,0,0,0-1.62,1.25,7.9,7.9,0,0,0-.53,3.19,2.93,2.93,0,0,1,1-1.13,2.34,2.34,0,0,1,1.28-.39,2.49,2.49,0,0,1,1.95,1,4.18,4.18,0,0,1,.83,2.71,5,5,0,0,1-.42,2.08,3.27,3.27,0,0,1-1.07,1.38,2.5,2.5,0,0,1-1.45.44,2.75,2.75,0,0,1-2.34-1.28,7.47,7.47,0,0,1-.92-4.27,8.86,8.86,0,0,1,.94-4.73,2.83,2.83,0,0,1,2.42-1.41,2.41,2.41,0,0,1,1.79.73A3.48,3.48,0,0,1,211.8,525Zm-4.71,5a3.14,3.14,0,0,0,.59,2,1.68,1.68,0,0,0,1.36.76,1.52,1.52,0,0,0,1.21-.71,3.19,3.19,0,0,0,.54-2,3,3,0,0,0-.53-1.89,1.61,1.61,0,0,0-1.3-.67,1.65,1.65,0,0,0-1.31.67A2.74,2.74,0,0,0,207.09,529.94Z"/><path class="cls-4" d="M567.05,26.61l1.13.18a3.79,3.79,0,0,1-1,2.26,2.55,2.55,0,0,1-1.89.79,2.7,2.7,0,0,1-2.2-1.1,5.23,5.23,0,0,1-.86-3.25,5.09,5.09,0,0,1,.87-3.24,2.73,2.73,0,0,1,2.24-1.09,2.55,2.55,0,0,1,1.78.66,3.2,3.2,0,0,1,.92,2L567,24a2.39,2.39,0,0,0-.57-1.25,1.33,1.33,0,0,0-1-.42,1.69,1.69,0,0,0-1.41.75,4.12,4.12,0,0,0-.56,2.4,4.38,4.38,0,0,0,.53,2.45,1.62,1.62,0,0,0,1.38.76,1.5,1.5,0,0,0,1.12-.5A2.81,2.81,0,0,0,567.05,26.61Z"/><path class="cls-4" d="M568.72,25.5a5,5,0,0,1,.9-3.24,2.91,2.91,0,0,1,4.56,0,4.79,4.79,0,0,1,.91,3.15,5.23,5.23,0,0,1-.89,3.33,2.92,2.92,0,0,1-4.57,0A5,5,0,0,1,568.72,25.5Zm1.18,0a4,4,0,0,0,.58,2.39,1.77,1.77,0,0,0,1.46.79,1.69,1.69,0,0,0,1.39-.79,4,4,0,0,0,.58-2.39,4,4,0,0,0-.58-2.39,1.75,1.75,0,0,0-1.45-.79,1.68,1.68,0,0,0-1.4.79A4,4,0,0,0,569.9,25.5Z"/><path class="cls-4" d="M576.41,29.65V18.2h1.15V29.65Z"/><path class="cls-4" d="M579.33,29.65V18.2h1.15V29.65Z"/><path class="cls-4" d="M586.71,28.62a4.1,4.1,0,0,1-1.2.91,3,3,0,0,1-1.3.31,2.28,2.28,0,0,1-1.69-.64,2.34,2.34,0,0,1-.64-1.73,2.62,2.62,0,0,1,.3-1.27,2.27,2.27,0,0,1,.81-.87,4.33,4.33,0,0,1,1.56-.46,9,9,0,0,0,2.07-.49V24a1.85,1.85,0,0,0-.3-1.2,1.67,1.67,0,0,0-1.32-.5,1.83,1.83,0,0,0-1.2.33,2.21,2.21,0,0,0-.59,1.26l-1.13-.19a3.18,3.18,0,0,1,1-1.95,3.26,3.26,0,0,1,2.11-.61,3,3,0,0,1,1.68.41,1.71,1.71,0,0,1,.77,1,7,7,0,0,1,.16,1.74v1.87a23.12,23.12,0,0,0,.08,2.48,3.58,3.58,0,0,0,.29,1H587A3.63,3.63,0,0,1,586.71,28.62Zm-.09-3.14a7.31,7.31,0,0,1-1.89.54,3.33,3.33,0,0,0-1,.28,1.21,1.21,0,0,0-.45.45,1.37,1.37,0,0,0-.16.68,1.24,1.24,0,0,0,.37.95,1.37,1.37,0,0,0,1,.35,2,2,0,0,0,1.12-.32,2,2,0,0,0,.76-.85,4,4,0,0,0,.25-1.56Z"/><path class="cls-4" d="M592.14,28.39l.16,1.24a3.21,3.21,0,0,1-.86.13,1.74,1.74,0,0,1-1-.24,1.26,1.26,0,0,1-.51-.65,6.54,6.54,0,0,1-.13-1.65V22.45H589v-1.1h.85V19.3l1.15-.85v2.9h1.16v1.1H591V27.3a2.2,2.2,0,0,0,.1.86.56.56,0,0,0,.55.29A2.86,2.86,0,0,0,592.14,28.39Z"/><path class="cls-4" d="M597.88,27l1.18.18a3.61,3.61,0,0,1-1.07,2,2.84,2.84,0,0,1-1.93.68,2.89,2.89,0,0,1-2.34-1.1,5,5,0,0,1-.89-3.17,5.19,5.19,0,0,1,.9-3.28A2.81,2.81,0,0,1,596,21.16a2.71,2.71,0,0,1,2.2,1.11,5.05,5.05,0,0,1,.88,3.21v.38H594a3.57,3.57,0,0,0,.64,2.11,1.78,1.78,0,0,0,1.41.71C596.93,28.68,597.54,28.11,597.88,27Zm-3.79-2.28h3.79a3.11,3.11,0,0,0-.46-1.61,1.68,1.68,0,0,0-2.73-.13A2.76,2.76,0,0,0,594.09,24.7Z"/><path class="cls-4" d="M604.93,29.65v-1a2.36,2.36,0,0,1-.81.92,1.91,1.91,0,0,1-1.06.32A2.58,2.58,0,0,1,601,28.7a5.1,5.1,0,0,1-.88-3.2,6.56,6.56,0,0,1,.39-2.4,3.29,3.29,0,0,1,1-1.46,2.4,2.4,0,0,1,1.45-.48,2,2,0,0,1,1.06.3,2.58,2.58,0,0,1,.8.84V18.2H606V29.65Zm-3.65-4.14a4.15,4.15,0,0,0,.56,2.39,1.6,1.6,0,0,0,1.3.78,1.56,1.56,0,0,0,1.28-.75,3.9,3.9,0,0,0,.54-2.27,4.66,4.66,0,0,0-.54-2.54,1.61,1.61,0,0,0-1.36-.8,1.52,1.52,0,0,0-1.26.77A4.46,4.46,0,0,0,601.28,25.51Z"/><path class="cls-4" d="M611.47,32.83V21.35h1.06v1.08a2.7,2.7,0,0,1,.87-1,2,2,0,0,1,1.09-.3,2.38,2.38,0,0,1,1.45.48,3.26,3.26,0,0,1,1,1.45,6.29,6.29,0,0,1,.4,2.34,5.23,5.23,0,0,1-.89,3.26,2.61,2.61,0,0,1-2.08,1.15,1.87,1.87,0,0,1-1-.28,2.51,2.51,0,0,1-.79-.77v4Zm1-7.28a4.24,4.24,0,0,0,.53,2.37,1.47,1.47,0,0,0,2.59,0,4.29,4.29,0,0,0,.56-2.44,4.26,4.26,0,0,0-.54-2.4,1.42,1.42,0,0,0-2.57.06A4.33,4.33,0,0,0,612.52,25.55Z"/><path class="cls-4" d="M623.2,28.62a4.14,4.14,0,0,1-1.21.91,3,3,0,0,1-1.29.31,2.31,2.31,0,0,1-1.7-.64,2.37,2.37,0,0,1-.63-1.73,2.73,2.73,0,0,1,.29-1.27,2.22,2.22,0,0,1,.82-.87,4.2,4.2,0,0,1,1.56-.46,8.87,8.87,0,0,0,2.06-.49V24a1.78,1.78,0,0,0-.31-1.2,1.64,1.64,0,0,0-1.32-.5,1.87,1.87,0,0,0-1.2.33,2.21,2.21,0,0,0-.58,1.26l-1.14-.19a3.18,3.18,0,0,1,1-1.95,3.3,3.3,0,0,1,2.12-.61,3,3,0,0,1,1.68.41,1.75,1.75,0,0,1,.77,1,7.53,7.53,0,0,1,.16,1.74v1.87a24.27,24.27,0,0,0,.07,2.48,3.94,3.94,0,0,0,.29,1h-1.2A3.33,3.33,0,0,1,623.2,28.62Zm-.1-3.14a7.34,7.34,0,0,1-1.88.54,3.42,3.42,0,0,0-1,.28,1.21,1.21,0,0,0-.45.45,1.48,1.48,0,0,0-.16.68,1.28,1.28,0,0,0,.37.95,1.39,1.39,0,0,0,1,.35,2,2,0,0,0,1.87-1.17A3.78,3.78,0,0,0,623.1,26Z"/><path class="cls-4" d="M625.84,30.34l1.12.2a1.43,1.43,0,0,0,.47,1,1.63,1.63,0,0,0,1.09.33,1.87,1.87,0,0,0,1.2-.36,1.92,1.92,0,0,0,.62-1.09,11.09,11.09,0,0,0,.1-1.84,2.6,2.6,0,0,1-.85.81,2,2,0,0,1-1,.27,2.49,2.49,0,0,1-2-1,5.07,5.07,0,0,1-.92-3.18A6.23,6.23,0,0,1,626,23.1a3.24,3.24,0,0,1,1.06-1.47,2.53,2.53,0,0,1,1.48-.47,2.09,2.09,0,0,1,1.1.3,2.84,2.84,0,0,1,.88.88v-1h1.06v7.17a8.35,8.35,0,0,1-.31,2.73,2.62,2.62,0,0,1-1,1.29,3,3,0,0,1-1.72.48,2.73,2.73,0,0,1-2-.72A2.57,2.57,0,0,1,625.84,30.34Zm.95-5a4.16,4.16,0,0,0,.54,2.39,1.59,1.59,0,0,0,1.32.75,1.61,1.61,0,0,0,1.33-.73,4,4,0,0,0,.55-2.35,4,4,0,0,0-.56-2.33,1.7,1.7,0,0,0-1.37-.76,1.59,1.59,0,0,0-1.27.76A3.94,3.94,0,0,0,626.79,25.35Z"/><path class="cls-4" d="M638,27l1.19.18a3.62,3.62,0,0,1-1.08,2,2.83,2.83,0,0,1-1.92.68,2.86,2.86,0,0,1-2.34-1.1,4.89,4.89,0,0,1-.9-3.17,5.19,5.19,0,0,1,.9-3.28,2.82,2.82,0,0,1,2.29-1.13,2.71,2.71,0,0,1,2.2,1.11,5.05,5.05,0,0,1,.88,3.21v.38h-5.08A3.57,3.57,0,0,0,634.8,28a1.75,1.75,0,0,0,1.4.71C637.07,28.68,637.67,28.11,638,27Zm-3.79-2.28H638a3.2,3.2,0,0,0-.47-1.61,1.68,1.68,0,0,0-2.73-.13A2.82,2.82,0,0,0,634.22,24.7Z"/><path class="cls-4" d="M640.21,27.16l1.15-.21a2.06,2.06,0,0,0,.55,1.3,1.94,1.94,0,0,0,2.36.06,1.23,1.23,0,0,0,.41-.94.93.93,0,0,0-.35-.77,4.64,4.64,0,0,0-1.17-.47,8.28,8.28,0,0,1-1.8-.7,1.93,1.93,0,0,1-.7-.77,2.36,2.36,0,0,1-.25-1.11,2.28,2.28,0,0,1,.68-1.72,2.58,2.58,0,0,1,1.88-.67,3,3,0,0,1,1.33.28,2.06,2.06,0,0,1,.88.73,3.3,3.3,0,0,1,.42,1.32l-1.12.19A1.35,1.35,0,0,0,643,22.32a1.76,1.76,0,0,0-1.12.3,1,1,0,0,0-.36.77.85.85,0,0,0,.35.72,6.55,6.55,0,0,0,1.25.5,9.4,9.4,0,0,1,1.85.72,1.89,1.89,0,0,1,.66.74,2.51,2.51,0,0,1,.23,1.1,2.58,2.58,0,0,1-.75,1.93,2.84,2.84,0,0,1-2.06.74C641.42,29.84,640.47,29,640.21,27.16Z"/><path class="cls-4" d="M647.58,29.65v-1.6h1.31v1.6Z"/><path class="cls-4" d="M918.7,528.64v-1.3l6.22-3.22v1.39L920,528l4.93,2.49v1.4Z"/><path class="cls-4" d="M925.66,533.84,928.38,522h.94l-2.73,11.84Z"/><path class="cls-4" d="M929.73,529.5a5,5,0,0,1,.9-3.24,2.91,2.91,0,0,1,4.56,0,4.79,4.79,0,0,1,.91,3.15,5.17,5.17,0,0,1-.9,3.33,2.91,2.91,0,0,1-4.56,0A5,5,0,0,1,929.73,529.5Zm1.18,0a4,4,0,0,0,.58,2.39,1.75,1.75,0,0,0,1.46.79,1.69,1.69,0,0,0,1.39-.79,4,4,0,0,0,.58-2.39,4,4,0,0,0-.58-2.39,1.75,1.75,0,0,0-1.46-.79,1.7,1.7,0,0,0-1.4.79A4.09,4.09,0,0,0,930.91,529.5Z"/><path class="cls-4" d="M937.42,533.65V522.2h1.15v11.45Z"/><path class="cls-4" d="M946.45,528.64l-6.22,3.24v-1.4l4.93-2.49-4.93-2.48v-1.39l6.22,3.22Z"/><path class="cls-4" d="M918.52,26.65l1.21-.13a2.93,2.93,0,0,0,.64,1.63,1.53,1.53,0,0,0,1.15.54,1.76,1.76,0,0,0,1.42-.76,3.28,3.28,0,0,0,.59-2.06A2.85,2.85,0,0,0,923,24a1.84,1.84,0,0,0-2.42-.39,2.08,2.08,0,0,0-.73.82l-1.08-.17.91-5.89h4.66v1.35h-3.74l-.51,3.08a2.69,2.69,0,0,1,1.78-.72,2.64,2.64,0,0,1,2,1,4,4,0,0,1,.87,2.71,4.77,4.77,0,0,1-.87,2.88,2.75,2.75,0,0,1-2.34,1.2,2.81,2.81,0,0,1-2.06-.84A3.64,3.64,0,0,1,918.52,26.65Z"/><path class="cls-4" d="M925.9,19.7V18.34H932v1.1a17,17,0,0,0-2.39,4.6,19.56,19.56,0,0,0-1.19,5.61h-1.18a16.86,16.86,0,0,1,.46-3.35,19.74,19.74,0,0,1,1.19-3.65,15.81,15.81,0,0,1,1.62-2.95Z"/><g class="cls-2"><path class="cls-3" d="M77.4,279s77.65,9,102.72,0,98.88-9,109.68-9,52.2-.12,88.2-.12,115.2-13,86.4.12-284.28,48.6-284.28,48.6,24.65-9,86.06-13.61,100.11-13.62,128-13.62c55.8,0,76.51-10.57,76.51-10.57S215.88,336.6,198,336.6s216-36.23,226.8-36.23,57.6-10.57,77.4-10.57S558,286.2,702,288s266.4,12.37,266.4,12.37,54,7.43-136.8,18.23c-29.3,1.66-65.89.43-79.75,4.72-5.26,1.62-15.33,8.14-65,6.21s-115.58,7.2-110.86,7.2c9,0-126,15-118.8,14.27,199.8-21.6,100.89-36,100.89-36L399.6,307.58H558.09"/></g></g></svg>