<svg id="Layer_1" data-name="Layer 1" xmlns="http://www.w3.org/2000/svg" xmlns:xlink="http://www.w3.org/1999/xlink" viewBox="0 0 1080 756"><defs><style>.cls-1,.cls-3{fill:none;}.cls-2{clip-path:url(#clip-path);}.cls-3{stroke:#231f20;stroke-width:0.25px;}.cls-4{fill:#231f20;}</style><clipPath id="clip-path"><rect class="cls-1" width="1080" height="756"/></clipPath></defs><title>Untitled-3</title><g class="cls-2"><g class="cls-2"><line class="cls-3" x1="180" y1="-18.36" x2="180" y2="790.92"/><line class="cls-3" x1="720" y1="-20.88" x2="720" y2="788.4"/><line class="cls-3" x1="359.88" y1="-18.36" x2="359.88" y2="790.92"/><line class="cls-3" x1="899.87" y1="-20.88" x2="899.87" y2="788.4"/><line class="cls-3" x1="-16.92" y1="251.88" x2="1101.6" y2="251.88"/><line class="cls-3" x1="-11.52" y1="504.13" x2="1107" y2="504.13"/><line class="cls-3" x1="540" y1="-19.44" x2="540" y2="789.84"/></g><path class="cls-4" d="M378.7,276.39v-1.3l6.22-3.22v1.39L380,275.74l4.93,2.49v1.4Z"/><path class="cls-4" d="M386.52,281.4V270h1.14v4.1a2.82,2.82,0,0,1,.92-.85,2.29,2.29,0,0,1,1.13-.29,2.2,2.2,0,0,1,1.72.7,3.87,3.87,0,0,1,.62,2.53v5.26h-1.14v-5.26a2.45,2.45,0,0,0-.39-1.55,1.28,1.28,0,0,0-1-.47,1.65,1.65,0,0,0-1.28.61,3.28,3.28,0,0,0-.53,2.13v4.54Z"/><path class="cls-4" d="M398.46,278.73l1.19.18a3.62,3.62,0,0,1-1.08,2,2.82,2.82,0,0,1-1.92.68,2.88,2.88,0,0,1-2.34-1.1,4.89,4.89,0,0,1-.9-3.17,5.13,5.13,0,0,1,.91-3.28,2.8,2.8,0,0,1,2.28-1.13,2.69,2.69,0,0,1,2.2,1.11,5.05,5.05,0,0,1,.89,3.21v.38H394.6a3.57,3.57,0,0,0,.65,2.11,1.77,1.77,0,0,0,1.41.71C397.52,280.43,398.12,279.86,398.46,278.73Zm-3.79-2.28h3.8a3.21,3.21,0,0,0-.46-1.61,1.69,1.69,0,0,0-1.42-.77,1.72,1.72,0,0,0-1.32.64A2.88,2.88,0,0,0,394.67,276.45Z"/><path class="cls-4" d="M405.54,280.38a4.38,4.38,0,0,1-1.2.9,3,3,0,0,1-1.3.31,2.32,2.32,0,0,1-1.7-.64,2.37,2.37,0,0,1-.63-1.73A2.62,2.62,0,0,1,401,278a2.27,2.27,0,0,1,.81-.87,4.2,4.2,0,0,1,1.56-.46,8.4,8.4,0,0,0,2.07-.5v-.35a1.85,1.85,0,0,0-.3-1.2,1.67,1.67,0,0,0-1.32-.5,1.88,1.88,0,0,0-1.21.33,2.21,2.21,0,0,0-.58,1.26l-1.13-.19a3.13,3.13,0,0,1,1-2,3.26,3.26,0,0,1,2.11-.61,3,3,0,0,1,1.68.41,1.71,1.71,0,0,1,.77,1,7,7,0,0,1,.16,1.74v1.87a24.27,24.27,0,0,0,.07,2.48,3.6,3.6,0,0,0,.3,1h-1.21A3.65,3.65,0,0,1,405.54,280.38Zm-.09-3.15a7.44,7.44,0,0,1-1.89.54,3.33,3.33,0,0,0-1,.28,1.08,1.08,0,0,0-.45.45,1.37,1.37,0,0,0-.16.68,1.27,1.27,0,0,0,.36.95,1.41,1.41,0,0,0,1,.35,2,2,0,0,0,1.12-.32,2,2,0,0,0,.76-.85,4,4,0,0,0,.25-1.56Z"/><path class="cls-4" d="M412.81,281.4v-1a2.34,2.34,0,0,1-.8.92,1.94,1.94,0,0,1-1.06.32,2.58,2.58,0,0,1-2.09-1.14,5.18,5.18,0,0,1-.88-3.2,6.56,6.56,0,0,1,.39-2.4,3.23,3.23,0,0,1,1.05-1.46,2.35,2.35,0,0,1,1.44-.48,2,2,0,0,1,1.06.3,2.71,2.71,0,0,1,.81.84V270h1.16V281.4Zm-3.65-4.14a4.15,4.15,0,0,0,.56,2.39,1.61,1.61,0,0,0,1.3.78,1.56,1.56,0,0,0,1.28-.75,3.9,3.9,0,0,0,.54-2.27,4.66,4.66,0,0,0-.54-2.54,1.6,1.6,0,0,0-1.36-.8,1.5,1.5,0,0,0-1.25.77A4.36,4.36,0,0,0,409.16,277.26Z"/><path class="cls-4" d="M420.35,278.73l1.19.18a3.62,3.62,0,0,1-1.08,2,2.82,2.82,0,0,1-1.92.68,2.89,2.89,0,0,1-2.34-1.1,4.89,4.89,0,0,1-.9-3.17,5.19,5.19,0,0,1,.91-3.28,2.8,2.8,0,0,1,2.28-1.13A2.72,2.72,0,0,1,420.7,274a5.11,5.11,0,0,1,.88,3.21v.38h-5.08a3.57,3.57,0,0,0,.65,2.11,1.78,1.78,0,0,0,1.41.71C419.41,280.43,420,279.86,420.35,278.73Zm-3.79-2.28h3.8a3.21,3.21,0,0,0-.46-1.61,1.69,1.69,0,0,0-1.42-.77,1.72,1.72,0,0,0-1.32.64A2.88,2.88,0,0,0,416.56,276.45Z"/><path class="cls-4" d="M423,281.4v-8.3h1v1.26a3.5,3.5,0,0,1,.73-1.16,1.12,1.12,0,0,1,.75-.29,2,2,0,0,1,1.18.46l-.4,1.3a1.43,1.43,0,0,0-.83-.3,1,1,0,0,0-.67.25,1.39,1.39,0,0,0-.43.72,6.36,6.36,0,0,0-.22,1.71v4.35Z"/><path class="cls-4" d="M433.44,276.39l-6.22,3.24v-1.4l4.93-2.49-4.93-2.48v-1.39l6.22,3.22Z"/><path class="cls-4" d="M198.52,26.62l1.15-.19c.24,1.5.85,2.26,1.83,2.26a1.8,1.8,0,0,0,1.37-.67,2.6,2.6,0,0,0,.58-1.73,2.37,2.37,0,0,0-.54-1.62,1.68,1.68,0,0,0-1.3-.61,2.55,2.55,0,0,0-.81.16l.13-1.24.18,0A1.81,1.81,0,0,0,203,21.08a1.84,1.84,0,0,0-.45-1.29,1.42,1.42,0,0,0-1.08-.49,1.47,1.47,0,0,0-1.13.52,2.77,2.77,0,0,0-.58,1.55l-1.15-.25a3.82,3.82,0,0,1,1-2.22,2.66,2.66,0,0,1,3.79.09,2.94,2.94,0,0,1,.8,2.13,2.72,2.72,0,0,1-.34,1.38,2.43,2.43,0,0,1-.94.94,2.23,2.23,0,0,1,.93.52,2.66,2.66,0,0,1,.59,1,3.81,3.81,0,0,1,.22,1.34,3.65,3.65,0,0,1-.93,2.58,2.92,2.92,0,0,1-2.22,1,2.7,2.7,0,0,1-2-.87A3.71,3.71,0,0,1,198.52,26.62Z"/><path class="cls-4" d="M211.8,21l-1.15.11a2.8,2.8,0,0,0-.48-1.25,1.43,1.43,0,0,0-1.11-.55,1.85,1.85,0,0,0-1.62,1.25,7.9,7.9,0,0,0-.53,3.19,2.93,2.93,0,0,1,1-1.13,2.34,2.34,0,0,1,1.28-.39,2.49,2.49,0,0,1,1.95,1,4.18,4.18,0,0,1,.83,2.71,5,5,0,0,1-.42,2.08,3.27,3.27,0,0,1-1.07,1.38,2.5,2.5,0,0,1-1.45.44,2.75,2.75,0,0,1-2.34-1.28,7.47,7.47,0,0,1-.92-4.27,8.86,8.86,0,0,1,.94-4.73,2.83,2.83,0,0,1,2.42-1.41,2.41,2.41,0,0,1,1.79.73A3.48,3.48,0,0,1,211.8,21Zm-4.71,5a3.14,3.14,0,0,0,.59,2,1.68,1.68,0,0,0,1.36.76,1.52,1.52,0,0,0,1.21-.71,3.19,3.19,0,0,0,.54-2,3,3,0,0,0-.53-1.89,1.61,1.61,0,0,0-1.3-.67,1.65,1.65,0,0,0-1.31.67A2.74,2.74,0,0,0,207.09,25.94Z"/><path class="cls-4" d="M559,29.65v-8.3h1v1.26a3.67,3.67,0,0,1,.73-1.16,1.14,1.14,0,0,1,.75-.29,2,2,0,0,1,1.18.46l-.39,1.3a1.49,1.49,0,0,0-.84-.3,1,1,0,0,0-.67.26,1.45,1.45,0,0,0-.43.71,6.79,6.79,0,0,0-.22,1.71v4.35Z"/><path class="cls-4" d="M568,27l1.19.18a3.62,3.62,0,0,1-1.08,2,2.82,2.82,0,0,1-1.92.68,2.88,2.88,0,0,1-2.34-1.1,4.89,4.89,0,0,1-.9-3.17,5.13,5.13,0,0,1,.91-3.28,2.8,2.8,0,0,1,2.28-1.13,2.69,2.69,0,0,1,2.2,1.11,5.05,5.05,0,0,1,.89,3.21v.38H564.1a3.57,3.57,0,0,0,.65,2.11,1.77,1.77,0,0,0,1.41.71C567,28.68,567.62,28.11,568,27Zm-3.79-2.28H568a3.21,3.21,0,0,0-.46-1.61,1.69,1.69,0,0,0-1.42-.77,1.72,1.72,0,0,0-1.32.64A2.88,2.88,0,0,0,564.17,24.7Z"/><path class="cls-4" d="M570.62,29.65v-8.3h1v1.16a2.69,2.69,0,0,1,.88-1,2.15,2.15,0,0,1,1.18-.35,2,2,0,0,1,1.21.37,2,2,0,0,1,.71,1.08,3.14,3.14,0,0,1,.93-1.08,2,2,0,0,1,1.18-.37,1.93,1.93,0,0,1,1.54.67,3.22,3.22,0,0,1,.56,2.12v5.7H578.7V24.42a4.55,4.55,0,0,0-.13-1.27,1.17,1.17,0,0,0-.42-.57,1.12,1.12,0,0,0-.66-.2,1.46,1.46,0,0,0-1.21.59,2.91,2.91,0,0,0-.48,1.85v4.83h-1.14v-5.4a2.48,2.48,0,0,0-.32-1.45,1,1,0,0,0-.87-.42,1.47,1.47,0,0,0-1.25.63,4.31,4.31,0,0,0-.45,2.33v4.31Z"/><path class="cls-4" d="M586.19,27l1.19.18a3.62,3.62,0,0,1-1.08,2,2.83,2.83,0,0,1-1.92.68,2.86,2.86,0,0,1-2.34-1.1,4.89,4.89,0,0,1-.9-3.17,5.19,5.19,0,0,1,.9-3.28,2.82,2.82,0,0,1,2.29-1.13,2.71,2.71,0,0,1,2.2,1.11,5.05,5.05,0,0,1,.88,3.21v.38h-5.08A3.57,3.57,0,0,0,583,28a1.75,1.75,0,0,0,1.4.71C585.25,28.68,585.85,28.11,586.19,27ZM582.4,24.7h3.8a3.2,3.2,0,0,0-.47-1.61A1.68,1.68,0,0,0,583,23,2.82,2.82,0,0,0,582.4,24.7Z"/><path class="cls-4" d="M588.84,29.65v-8.3h1v1.16a2.61,2.61,0,0,1,.88-1,2.14,2.14,0,0,1,1.17-.35,1.86,1.86,0,0,1,1.92,1.45,3.16,3.16,0,0,1,.94-1.08,2,2,0,0,1,1.17-.37,1.94,1.94,0,0,1,1.55.67,3.28,3.28,0,0,1,.56,2.12v5.7h-1.15V24.42a4.19,4.19,0,0,0-.13-1.27,1.11,1.11,0,0,0-1.07-.77,1.48,1.48,0,0,0-1.22.59,3,3,0,0,0-.47,1.85v4.83h-1.15v-5.4a2.49,2.49,0,0,0-.31-1.45,1,1,0,0,0-.87-.42,1.45,1.45,0,0,0-1.25.63,4.2,4.2,0,0,0-.46,2.33v4.31Z"/><path class="cls-4" d="M600.82,29.65h-1.07V18.2h1.16v4.08a2.66,2.66,0,0,1,.83-.84,2,2,0,0,1,1-.28,2.38,2.38,0,0,1,1.45.48,3.27,3.27,0,0,1,1,1.45,6.28,6.28,0,0,1,.39,2.35,5.22,5.22,0,0,1-.89,3.25,2.59,2.59,0,0,1-2.06,1.15,1.94,1.94,0,0,1-1.07-.31,2.56,2.56,0,0,1-.82-.92Zm0-4.21a5.85,5.85,0,0,0,.24,1.93,2.12,2.12,0,0,0,.66,1,1.5,1.5,0,0,0,1,.34,1.55,1.55,0,0,0,1.26-.8,4.23,4.23,0,0,0,.56-2.4,4.2,4.2,0,0,0-.54-2.39,1.56,1.56,0,0,0-1.3-.77,1.59,1.59,0,0,0-1.28.8A4.08,4.08,0,0,0,600.8,25.44Z"/><path class="cls-4" d="M611.71,27l1.19.18a3.62,3.62,0,0,1-1.08,2,2.82,2.82,0,0,1-1.92.68,2.88,2.88,0,0,1-2.34-1.1,4.89,4.89,0,0,1-.9-3.17,5.13,5.13,0,0,1,.91-3.28,2.8,2.8,0,0,1,2.28-1.13,2.69,2.69,0,0,1,2.2,1.11,5.05,5.05,0,0,1,.89,3.21v.38h-5.08A3.57,3.57,0,0,0,608.5,28a1.77,1.77,0,0,0,1.41.71C610.77,28.68,611.37,28.11,611.71,27Zm-3.79-2.28h3.8a3.21,3.21,0,0,0-.46-1.61,1.69,1.69,0,0,0-1.42-.77,1.72,1.72,0,0,0-1.32.64A2.88,2.88,0,0,0,607.92,24.7Z"/><path class="cls-4" d="M614.36,29.65v-8.3h1v1.26a3.5,3.5,0,0,1,.73-1.16,1.12,1.12,0,0,1,.75-.29,2,2,0,0,1,1.17.46l-.39,1.3a1.43,1.43,0,0,0-.83-.3,1,1,0,0,0-.67.26,1.32,1.32,0,0,0-.43.71,6.36,6.36,0,0,0-.22,1.71v4.35Z"/><path class="cls-4" d="M623.43,29.65h-1.07V18.2h1.16v4.08a2.66,2.66,0,0,1,.83-.84,2,2,0,0,1,1-.28,2.38,2.38,0,0,1,1.45.48,3.27,3.27,0,0,1,1,1.45,6.28,6.28,0,0,1,.39,2.35,5.22,5.22,0,0,1-.89,3.25,2.59,2.59,0,0,1-2.06,1.15,1.94,1.94,0,0,1-1.07-.31,2.56,2.56,0,0,1-.82-.92Zm0-4.21a5.85,5.85,0,0,0,.24,1.93,2.12,2.12,0,0,0,.66,1,1.5,1.5,0,0,0,1,.34,1.55,1.55,0,0,0,1.26-.8,4.23,4.23,0,0,0,.56-2.4,4.2,4.2,0,0,0-.54-2.39,1.56,1.56,0,0,0-1.3-.77,1.59,1.59,0,0,0-1.28.8A4.08,4.08,0,0,0,623.41,25.44Z"/><path class="cls-4" d="M634.32,27l1.19.18a3.62,3.62,0,0,1-1.08,2,2.82,2.82,0,0,1-1.92.68,2.86,2.86,0,0,1-2.34-1.1,4.89,4.89,0,0,1-.9-3.17,5.13,5.13,0,0,1,.91-3.28,2.8,2.8,0,0,1,2.28-1.13,2.69,2.69,0,0,1,2.2,1.11,5.05,5.05,0,0,1,.89,3.21v.38h-5.08a3.57,3.57,0,0,0,.65,2.11,1.77,1.77,0,0,0,1.41.71C633.38,28.68,634,28.11,634.32,27Zm-3.79-2.28h3.8a3.21,3.21,0,0,0-.46-1.61,1.69,1.69,0,0,0-1.42-.77,1.72,1.72,0,0,0-1.32.64A2.88,2.88,0,0,0,630.53,24.7Z"/><path class="cls-4" d="M637,19.81V18.2h1.15v1.61Zm0,9.84v-8.3h1.15v8.3Z"/><path class="cls-4" d="M639.88,29.65v-8.3h1v1.17a2.78,2.78,0,0,1,.92-1,2.33,2.33,0,0,1,1.24-.34,2.41,2.41,0,0,1,1,.22,2.05,2.05,0,0,1,.75.56,2.36,2.36,0,0,1,.43.9,7.81,7.81,0,0,1,.14,1.71v5.1h-1.15v-5a4,4,0,0,0-.16-1.34,1.3,1.3,0,0,0-.49-.65,1.25,1.25,0,0,0-.77-.23,1.6,1.6,0,0,0-1.32.61,3.53,3.53,0,0,0-.49,2.12v4.54Z"/><path class="cls-4" d="M647,30.34l1.13.2a1.43,1.43,0,0,0,.47,1,1.62,1.62,0,0,0,1.08.33,1.88,1.88,0,0,0,1.21-.36,1.91,1.91,0,0,0,.61-1.09,10,10,0,0,0,.1-1.84,2.68,2.68,0,0,1-.84.81,2,2,0,0,1-1,.27,2.47,2.47,0,0,1-2-1,5,5,0,0,1-.92-3.18,6.23,6.23,0,0,1,.4-2.34,3.26,3.26,0,0,1,1.07-1.47,2.51,2.51,0,0,1,1.48-.47,2.09,2.09,0,0,1,1.1.3,2.84,2.84,0,0,1,.88.88v-1h1.06v7.17a8.64,8.64,0,0,1-.31,2.73,2.59,2.59,0,0,1-1,1.29,3,3,0,0,1-1.71.48,2.72,2.72,0,0,1-2-.72A2.61,2.61,0,0,1,647,30.34Zm1-5a4.16,4.16,0,0,0,.54,2.39,1.59,1.59,0,0,0,1.32.75,1.61,1.61,0,0,0,1.33-.73,4,4,0,0,0,.55-2.35,3.9,3.9,0,0,0-.57-2.33,1.67,1.67,0,0,0-1.37-.76,1.56,1.56,0,0,0-1.26.76A3.94,3.94,0,0,0,647.91,25.35Z"/><path class="cls-4" d="M560.2,46.65l-2.09-8.3h1.19l1.08,4.79.41,1.78.35-1.71,1.08-4.86h1.2l1,4.81.34,1.59.39-1.6,1.16-4.8h1.13l-2.13,8.3h-1.2l-1.08-5-.26-1.41-1.38,6.38Z"/><path class="cls-4" d="M573.06,44l1.19.18a3.67,3.67,0,0,1-1.07,2,2.84,2.84,0,0,1-1.93.68,2.89,2.89,0,0,1-2.34-1.1,4.89,4.89,0,0,1-.89-3.17,5.19,5.19,0,0,1,.9-3.28,2.8,2.8,0,0,1,2.28-1.13,2.72,2.72,0,0,1,2.21,1.11,5.05,5.05,0,0,1,.88,3.21v.38H569.2a3.64,3.64,0,0,0,.65,2.11,1.78,1.78,0,0,0,1.41.71C572.12,45.68,572.72,45.11,573.06,44Zm-3.79-2.28h3.8a3.21,3.21,0,0,0-.46-1.61,1.68,1.68,0,0,0-2.73-.13A2.82,2.82,0,0,0,569.27,41.7Z"/><path class="cls-4" d="M575.67,46.65V35.2h1.15V46.65Z"/><path class="cls-4" d="M583.08,43.61l1.13.18a3.79,3.79,0,0,1-1,2.26,2.55,2.55,0,0,1-1.89.79,2.7,2.7,0,0,1-2.2-1.1,5.23,5.23,0,0,1-.86-3.25,5.09,5.09,0,0,1,.87-3.24,2.73,2.73,0,0,1,2.24-1.09,2.55,2.55,0,0,1,1.78.66,3.2,3.2,0,0,1,.92,2L583,41a2.39,2.39,0,0,0-.57-1.25,1.32,1.32,0,0,0-1-.42,1.69,1.69,0,0,0-1.41.75,4.12,4.12,0,0,0-.56,2.4,4.29,4.29,0,0,0,.54,2.45,1.59,1.59,0,0,0,1.37.76,1.5,1.5,0,0,0,1.12-.5A2.74,2.74,0,0,0,583.08,43.61Z"/><path class="cls-4" d="M584.75,42.5a5,5,0,0,1,.9-3.24,2.91,2.91,0,0,1,4.56,0,4.79,4.79,0,0,1,.91,3.15,5.17,5.17,0,0,1-.89,3.33,2.92,2.92,0,0,1-4.57,0A5,5,0,0,1,584.75,42.5Zm1.18,0a3.92,3.92,0,0,0,.59,2.39,1.74,1.74,0,0,0,1.45.79,1.67,1.67,0,0,0,1.39-.79A4,4,0,0,0,590,42.5a4,4,0,0,0-.59-2.39,1.75,1.75,0,0,0-1.45-.79,1.68,1.68,0,0,0-1.4.79A4,4,0,0,0,585.93,42.5Z"/><path class="cls-4" d="M592.49,46.65v-8.3h1v1.16a2.78,2.78,0,0,1,.88-1,2.17,2.17,0,0,1,1.18-.35,2,2,0,0,1,1.21.37,2,2,0,0,1,.71,1.08,3.06,3.06,0,0,1,.94-1.08,2,2,0,0,1,1.17-.37,1.92,1.92,0,0,1,1.54.67,3.22,3.22,0,0,1,.57,2.12v5.7h-1.15V41.42a4.19,4.19,0,0,0-.13-1.27,1.17,1.17,0,0,0-.42-.57,1.07,1.07,0,0,0-.65-.2,1.47,1.47,0,0,0-1.22.59,3,3,0,0,0-.47,1.85v4.83h-1.15v-5.4a2.41,2.41,0,0,0-.32-1.45,1,1,0,0,0-.87-.42,1.45,1.45,0,0,0-1.24.63,4.2,4.2,0,0,0-.46,2.33v4.31Z"/><path class="cls-4" d="M608.06,44l1.19.18a3.67,3.67,0,0,1-1.07,2,2.84,2.84,0,0,1-1.93.68,2.89,2.89,0,0,1-2.34-1.1,4.89,4.89,0,0,1-.89-3.17,5.19,5.19,0,0,1,.9-3.28,2.8,2.8,0,0,1,2.28-1.13,2.72,2.72,0,0,1,2.21,1.11,5.05,5.05,0,0,1,.88,3.21v.38H604.2a3.64,3.64,0,0,0,.65,2.11,1.78,1.78,0,0,0,1.41.71C607.12,45.68,607.72,45.11,608.06,44Zm-3.79-2.28h3.8a3.21,3.21,0,0,0-.46-1.61,1.68,1.68,0,0,0-2.73-.13A2.82,2.82,0,0,0,604.27,41.7Z"/><path class="cls-4" d="M615.12,46.65v-1a2.36,2.36,0,0,1-.81.92,1.94,1.94,0,0,1-1.06.32,2.57,2.57,0,0,1-2.08-1.14,5.1,5.1,0,0,1-.88-3.2,6.56,6.56,0,0,1,.39-2.4,3.29,3.29,0,0,1,1-1.46,2.38,2.38,0,0,1,1.45-.48,1.94,1.94,0,0,1,1.05.3,2.51,2.51,0,0,1,.81.84V35.2h1.17V46.65Zm-3.65-4.14A4.15,4.15,0,0,0,612,44.9a1.58,1.58,0,0,0,1.3.78,1.55,1.55,0,0,0,1.27-.75,3.9,3.9,0,0,0,.54-2.27,4.66,4.66,0,0,0-.54-2.54,1.6,1.6,0,0,0-1.36-.8,1.52,1.52,0,0,0-1.25.77A4.37,4.37,0,0,0,611.47,42.51Z"/><path class="cls-4" d="M618.34,46.65v-1.6h1.32v1.6a3.13,3.13,0,0,1-.28,1.46,1.85,1.85,0,0,1-.79.8l-.32-.6a1.2,1.2,0,0,0,.53-.56,2.72,2.72,0,0,0,.19-1.1Z"/><path class="cls-4" d="M629.76,46.65V45.43a3,3,0,0,1-.94,1,2.16,2.16,0,0,1-1.22.36,2.2,2.2,0,0,1-1.37-.44,2.08,2.08,0,0,1-.77-1.1,7.09,7.09,0,0,1-.19-1.81V38.35h1.15V43a7.06,7.06,0,0,0,.13,1.72,1.32,1.32,0,0,0,.48.69,1.23,1.23,0,0,0,.79.26,1.65,1.65,0,0,0,1.36-.67,3.73,3.73,0,0,0,.45-2.15V38.35h1.16v8.3Z"/><path class="cls-4" d="M632.6,49.83V38.35h1.06v1.08a2.7,2.7,0,0,1,.87-1,2,2,0,0,1,1.09-.3,2.36,2.36,0,0,1,1.45.48,3.26,3.26,0,0,1,1,1.45,6.09,6.09,0,0,1,.4,2.34,5.23,5.23,0,0,1-.89,3.26,2.59,2.59,0,0,1-2.08,1.15,1.81,1.81,0,0,1-1-.28,2.44,2.44,0,0,1-.8-.77v4Zm1-7.28a4.15,4.15,0,0,0,.54,2.37,1.56,1.56,0,0,0,1.3.76,1.54,1.54,0,0,0,1.28-.79,4.29,4.29,0,0,0,.56-2.44,4.26,4.26,0,0,0-.54-2.4,1.42,1.42,0,0,0-2.57.06A4.33,4.33,0,0,0,633.65,42.55Z"/><path class="cls-4" d="M639.46,42.5a5,5,0,0,1,.9-3.24,2.91,2.91,0,0,1,4.56,0,4.79,4.79,0,0,1,.92,3.15,5.17,5.17,0,0,1-.9,3.33,2.92,2.92,0,0,1-4.57,0A5,5,0,0,1,639.46,42.5Zm1.18,0a4,4,0,0,0,.59,2.39,1.74,1.74,0,0,0,1.45.79,1.67,1.67,0,0,0,1.39-.79,4,4,0,0,0,.59-2.39,4,4,0,0,0-.59-2.39,1.74,1.74,0,0,0-1.45-.79,1.68,1.68,0,0,0-1.4.79A4,4,0,0,0,640.64,42.5Z"/><path class="cls-4" d="M647.2,46.65v-8.3h1v1.17a2.78,2.78,0,0,1,.92-1,2.43,2.43,0,0,1,2.25-.12,2.05,2.05,0,0,1,.75.56,2.36,2.36,0,0,1,.43.9,7.81,7.81,0,0,1,.14,1.71v5.1h-1.15v-5a4,4,0,0,0-.16-1.34,1.27,1.27,0,0,0-1.25-.88,1.58,1.58,0,0,0-1.32.61,3.45,3.45,0,0,0-.5,2.12v4.54Z"/><path class="cls-4" d="M558.91,63.65V52.2h1.14V63.65Z"/><path class="cls-4" d="M566.29,62.62a4.23,4.23,0,0,1-1.2.91,3,3,0,0,1-1.3.31,2.32,2.32,0,0,1-1.7-.64,2.37,2.37,0,0,1-.63-1.73,2.62,2.62,0,0,1,.3-1.27,2.27,2.27,0,0,1,.81-.87,4.2,4.2,0,0,1,1.56-.46,9,9,0,0,0,2.07-.49V58a1.85,1.85,0,0,0-.3-1.2,1.67,1.67,0,0,0-1.32-.5,1.83,1.83,0,0,0-1.2.33,2.15,2.15,0,0,0-.59,1.26l-1.13-.19a3.13,3.13,0,0,1,1-1.95,3.26,3.26,0,0,1,2.11-.61,3,3,0,0,1,1.68.41,1.71,1.71,0,0,1,.77,1,7,7,0,0,1,.16,1.74v1.87a24.27,24.27,0,0,0,.07,2.48,3.6,3.6,0,0,0,.3,1h-1.21A3.64,3.64,0,0,1,566.29,62.62Zm-.09-3.14a7.44,7.44,0,0,1-1.89.54,3.33,3.33,0,0,0-1,.28,1.08,1.08,0,0,0-.45.45,1.37,1.37,0,0,0-.16.68,1.27,1.27,0,0,0,.36,1,1.41,1.41,0,0,0,1,.35,2,2,0,0,0,1.12-.32,2,2,0,0,0,.76-.85A4,4,0,0,0,566.2,60Z"/><path class="cls-4" d="M569.16,63.65v-8.3h1v1.17a2.76,2.76,0,0,1,.91-1,2.36,2.36,0,0,1,1.25-.34,2.44,2.44,0,0,1,1,.22,2.1,2.1,0,0,1,.74.56,2.22,2.22,0,0,1,.43.9,7.81,7.81,0,0,1,.14,1.71v5.1h-1.15v-5a4.34,4.34,0,0,0-.15-1.34,1.36,1.36,0,0,0-.49-.65,1.27,1.27,0,0,0-.77-.23,1.59,1.59,0,0,0-1.32.61,3.45,3.45,0,0,0-.5,2.12v4.54Z"/><path class="cls-4" d="M580.86,63.65v-1a2.36,2.36,0,0,1-.81.92,1.91,1.91,0,0,1-1.06.32,2.58,2.58,0,0,1-2.08-1.14,5.1,5.1,0,0,1-.88-3.2,6.56,6.56,0,0,1,.39-2.4,3.29,3.29,0,0,1,1-1.46,2.4,2.4,0,0,1,1.45-.48,2,2,0,0,1,1.06.3,2.58,2.58,0,0,1,.8.84V52.2h1.17V63.65Zm-3.65-4.14a4.15,4.15,0,0,0,.56,2.39,1.6,1.6,0,0,0,1.3.78,1.56,1.56,0,0,0,1.28-.75,3.9,3.9,0,0,0,.53-2.27,4.67,4.67,0,0,0-.53-2.54,1.61,1.61,0,0,0-1.36-.8,1.52,1.52,0,0,0-1.26.77A4.46,4.46,0,0,0,577.21,59.51Z"/><path class="cls-4" d="M583.75,53.81V52.2h1.15v1.61Zm0,9.84v-8.3h1.15v8.3Z"/><path class="cls-4" d="M586.66,63.65v-8.3h1v1.17a2.78,2.78,0,0,1,.92-1,2.35,2.35,0,0,1,1.24-.34,2.41,2.41,0,0,1,1,.22,2.05,2.05,0,0,1,.75.56,2.36,2.36,0,0,1,.43.9,7.81,7.81,0,0,1,.14,1.71v5.1H591v-5a4,4,0,0,0-.16-1.34,1.3,1.3,0,0,0-1.26-.88,1.6,1.6,0,0,0-1.32.61,3.53,3.53,0,0,0-.49,2.12v4.54Z"/><path class="cls-4" d="M593.73,64.34l1.13.2a1.43,1.43,0,0,0,.47,1,1.62,1.62,0,0,0,1.08.33,1.88,1.88,0,0,0,1.21-.36,1.91,1.91,0,0,0,.61-1.09,9.73,9.73,0,0,0,.11-1.84,2.7,2.7,0,0,1-.85.81,2,2,0,0,1-1,.27,2.49,2.49,0,0,1-2-1,5.07,5.07,0,0,1-.92-3.18,6.23,6.23,0,0,1,.4-2.34A3.26,3.26,0,0,1,595,55.63a2.51,2.51,0,0,1,1.48-.47,2.09,2.09,0,0,1,1.1.3,2.84,2.84,0,0,1,.88.88v-1h1.06v7.17a8.35,8.35,0,0,1-.31,2.73,2.59,2.59,0,0,1-1,1.29,3,3,0,0,1-1.71.48,2.73,2.73,0,0,1-2-.72A2.61,2.61,0,0,1,593.73,64.34Zm1-5a4.16,4.16,0,0,0,.54,2.39,1.59,1.59,0,0,0,1.32.75,1.61,1.61,0,0,0,1.33-.73,4,4,0,0,0,.55-2.35,4,4,0,0,0-.56-2.33,1.7,1.7,0,0,0-1.37-.76,1.57,1.57,0,0,0-1.27.76A3.94,3.94,0,0,0,594.69,59.35Z"/><path class="cls-4" d="M601.59,63.65v-1.6h1.32v1.6a3.13,3.13,0,0,1-.28,1.46,1.85,1.85,0,0,1-.79.8l-.32-.6a1.2,1.2,0,0,0,.53-.56,2.72,2.72,0,0,0,.19-1.1Z"/><path class="cls-4" d="M609.61,63.65h-1.07V52.2h1.16v4.08a2.66,2.66,0,0,1,.83-.84,2,2,0,0,1,1-.28,2.38,2.38,0,0,1,1.45.48,3.18,3.18,0,0,1,1,1.45,6.08,6.08,0,0,1,.4,2.35,5.22,5.22,0,0,1-.89,3.25,2.59,2.59,0,0,1-2.06,1.15,1.94,1.94,0,0,1-1.07-.31,2.56,2.56,0,0,1-.82-.92Zm0-4.21a5.85,5.85,0,0,0,.24,1.93,2.12,2.12,0,0,0,.66,1,1.5,1.5,0,0,0,1,.34,1.55,1.55,0,0,0,1.26-.8,5.49,5.49,0,0,0,0-4.79,1.56,1.56,0,0,0-1.31-.77,1.59,1.59,0,0,0-1.27.8A4.08,4.08,0,0,0,609.59,59.44Z"/><path class="cls-4" d="M615.81,66.84l-.12-1.32a2,2,0,0,0,.65.13,1.13,1.13,0,0,0,.61-.15,1.14,1.14,0,0,0,.4-.46q0-.11.45-1.38l-2.59-8.31h1.24l1.43,4.8c.17.6.34,1.24.49,1.92.13-.64.28-1.27.47-1.89l1.45-4.83h1.16l-2.59,8.44a13.75,13.75,0,0,1-.8,2.19,2.06,2.06,0,0,1-.66.79,1.53,1.53,0,0,1-.84.25A1.94,1.94,0,0,1,615.81,66.84Z"/><path class="cls-4" d="M630.49,62.62a4,4,0,0,1-1.2.91,3,3,0,0,1-1.3.31,2.28,2.28,0,0,1-1.69-.64,2.38,2.38,0,0,1-.64-1.73,2.62,2.62,0,0,1,.3-1.27,2.27,2.27,0,0,1,.81-.87,4.33,4.33,0,0,1,1.57-.46,9,9,0,0,0,2.06-.49V58a1.84,1.84,0,0,0-.31-1.2,1.64,1.64,0,0,0-1.32-.5,1.85,1.85,0,0,0-1.2.33,2.21,2.21,0,0,0-.59,1.26l-1.13-.19a3.18,3.18,0,0,1,1-1.95,3.27,3.27,0,0,1,2.11-.61,3,3,0,0,1,1.68.41,1.67,1.67,0,0,1,.77,1,7,7,0,0,1,.16,1.74v1.87a23.12,23.12,0,0,0,.08,2.48,3.58,3.58,0,0,0,.29,1h-1.2A3.63,3.63,0,0,1,630.49,62.62Zm-.09-3.14a7.34,7.34,0,0,1-1.88.54,3.33,3.33,0,0,0-1,.28,1.21,1.21,0,0,0-.45.45,1.37,1.37,0,0,0-.16.68,1.24,1.24,0,0,0,.37,1,1.37,1.37,0,0,0,1,.35,2,2,0,0,0,1.12-.32,2,2,0,0,0,.76-.85A3.78,3.78,0,0,0,630.4,60Z"/><path class="cls-4" d="M633.32,63.65V52.2h1.15V63.65Z"/><path class="cls-4" d="M636.23,63.65V52.2h1.15V63.65Z"/><path class="cls-4" d="M645.4,62.39l.15,1.24a3.09,3.09,0,0,1-.85.13,1.72,1.72,0,0,1-1-.24,1.21,1.21,0,0,1-.51-.65,6.54,6.54,0,0,1-.13-1.65V56.45h-.85v-1.1h.85V53.3l1.14-.85v2.9h1.17v1.1h-1.17V61.3a2.14,2.14,0,0,0,.11.86.56.56,0,0,0,.55.29A2.86,2.86,0,0,0,645.4,62.39Z"/><path class="cls-4" d="M646.48,63.65V52.2h1.15v4.1a2.82,2.82,0,0,1,.92-.85,2.29,2.29,0,0,1,1.13-.29,2.16,2.16,0,0,1,1.71.7,3.8,3.8,0,0,1,.63,2.53v5.26h-1.14V58.39a2.45,2.45,0,0,0-.39-1.55,1.27,1.27,0,0,0-1-.46,1.64,1.64,0,0,0-1.28.6,3.28,3.28,0,0,0-.53,2.13v4.54Z"/><path class="cls-4" d="M658.43,61l1.19.18a3.62,3.62,0,0,1-1.08,2,2.83,2.83,0,0,1-1.92.68,2.86,2.86,0,0,1-2.34-1.1,4.89,4.89,0,0,1-.9-3.17,5.13,5.13,0,0,1,.91-3.28,2.8,2.8,0,0,1,2.28-1.13,2.71,2.71,0,0,1,2.2,1.11,5.05,5.05,0,0,1,.89,3.21v.38h-5.08a3.57,3.57,0,0,0,.65,2.11,1.75,1.75,0,0,0,1.4.71C657.49,62.68,658.09,62.11,658.43,61Zm-3.79-2.28h3.8a3.21,3.21,0,0,0-.46-1.61,1.69,1.69,0,0,0-1.42-.77,1.72,1.72,0,0,0-1.32.64A2.88,2.88,0,0,0,654.64,58.7Z"/><path class="cls-4" d="M660.63,61.16l1.15-.21a2.06,2.06,0,0,0,.55,1.3,1.69,1.69,0,0,0,1.21.43,1.64,1.64,0,0,0,1.15-.37,1.23,1.23,0,0,0,.41-.94.93.93,0,0,0-.35-.77,4.64,4.64,0,0,0-1.17-.47,8.28,8.28,0,0,1-1.8-.7,2,2,0,0,1-.7-.77,2.36,2.36,0,0,1-.25-1.11,2.28,2.28,0,0,1,.68-1.72,2.58,2.58,0,0,1,1.88-.67,2.93,2.93,0,0,1,1.33.28,2,2,0,0,1,.88.73,3.15,3.15,0,0,1,.42,1.32l-1.12.19a1.35,1.35,0,0,0-1.48-1.36,1.76,1.76,0,0,0-1.12.3,1,1,0,0,0-.36.77.85.85,0,0,0,.35.72,6.55,6.55,0,0,0,1.25.5,9.14,9.14,0,0,1,1.85.72,1.89,1.89,0,0,1,.66.74,2.51,2.51,0,0,1,.23,1.1,2.58,2.58,0,0,1-.75,1.93,2.84,2.84,0,0,1-2.06.74C661.84,63.84,660.89,63,660.63,61.16Z"/><path class="cls-4" d="M672.29,61l1.19.18a3.62,3.62,0,0,1-1.08,2,2.83,2.83,0,0,1-1.92.68,2.86,2.86,0,0,1-2.34-1.1,4.89,4.89,0,0,1-.9-3.17,5.19,5.19,0,0,1,.9-3.28,2.84,2.84,0,0,1,2.29-1.13,2.71,2.71,0,0,1,2.2,1.11,5.05,5.05,0,0,1,.89,3.21v.38h-5.08a3.57,3.57,0,0,0,.65,2.11,1.75,1.75,0,0,0,1.4.71C671.35,62.68,672,62.11,672.29,61ZM668.5,58.7h3.8a3.21,3.21,0,0,0-.46-1.61,1.69,1.69,0,0,0-1.42-.77,1.72,1.72,0,0,0-1.32.64A2.88,2.88,0,0,0,668.5,58.7Z"/><path class="cls-4" d="M559,80.65V69.2h1.14v4.1a2.82,2.82,0,0,1,.92-.85,2.29,2.29,0,0,1,1.13-.29,2.2,2.2,0,0,1,1.72.7,3.87,3.87,0,0,1,.62,2.53v5.26h-1.14V75.39a2.45,2.45,0,0,0-.39-1.55,1.27,1.27,0,0,0-1.05-.46,1.64,1.64,0,0,0-1.28.6,3.28,3.28,0,0,0-.53,2.13v4.54Z"/><path class="cls-4" d="M570.89,78l1.19.18a3.62,3.62,0,0,1-1.08,2,2.82,2.82,0,0,1-1.92.68,2.86,2.86,0,0,1-2.34-1.1,4.89,4.89,0,0,1-.9-3.17,5.13,5.13,0,0,1,.91-3.28A2.8,2.8,0,0,1,569,72.16a2.69,2.69,0,0,1,2.2,1.11,5.05,5.05,0,0,1,.89,3.21v.38H567a3.57,3.57,0,0,0,.65,2.11,1.77,1.77,0,0,0,1.41.71C570,79.68,570.55,79.11,570.89,78ZM567.1,75.7h3.8a3.21,3.21,0,0,0-.46-1.61,1.69,1.69,0,0,0-1.42-.77,1.72,1.72,0,0,0-1.32.64A2.88,2.88,0,0,0,567.1,75.7Z"/><path class="cls-4" d="M578,79.62a4.23,4.23,0,0,1-1.2.91,3,3,0,0,1-1.3.31,2.32,2.32,0,0,1-1.7-.64,2.37,2.37,0,0,1-.63-1.73,2.62,2.62,0,0,1,.3-1.27,2.27,2.27,0,0,1,.81-.87,4.2,4.2,0,0,1,1.56-.46,9,9,0,0,0,2.07-.49V75a1.85,1.85,0,0,0-.3-1.2,1.67,1.67,0,0,0-1.32-.5,1.88,1.88,0,0,0-1.21.33,2.21,2.21,0,0,0-.58,1.26l-1.13-.19a3.13,3.13,0,0,1,1-2,3.26,3.26,0,0,1,2.11-.61,3,3,0,0,1,1.68.41,1.71,1.71,0,0,1,.77,1A7,7,0,0,1,579,75.3v1.87a24.27,24.27,0,0,0,.07,2.48,3.6,3.6,0,0,0,.3,1H578.2A3.33,3.33,0,0,1,578,79.62Zm-.09-3.14A7.44,7.44,0,0,1,576,77a3.33,3.33,0,0,0-1,.28,1.08,1.08,0,0,0-.45.45,1.37,1.37,0,0,0-.16.68,1.27,1.27,0,0,0,.36.95,1.41,1.41,0,0,0,1,.35,2,2,0,0,0,1.12-.32,1.87,1.87,0,0,0,.75-.85,3.76,3.76,0,0,0,.26-1.56Z"/><path class="cls-4" d="M585.24,80.65V79.6a2.34,2.34,0,0,1-.8.92,2,2,0,0,1-1.06.32,2.58,2.58,0,0,1-2.09-1.14,5.16,5.16,0,0,1-.88-3.2,6.56,6.56,0,0,1,.39-2.4,3.23,3.23,0,0,1,1.05-1.46,2.35,2.35,0,0,1,1.44-.48,2,2,0,0,1,1.06.3,2.71,2.71,0,0,1,.81.84V69.2h1.16V80.65Zm-3.65-4.14a4.15,4.15,0,0,0,.56,2.39,1.61,1.61,0,0,0,1.3.78,1.56,1.56,0,0,0,1.28-.75,3.9,3.9,0,0,0,.54-2.27,4.66,4.66,0,0,0-.54-2.54,1.6,1.6,0,0,0-1.36-.8,1.5,1.5,0,0,0-1.25.77A4.36,4.36,0,0,0,581.59,76.51Z"/><path class="cls-4" d="M592.78,78l1.19.18a3.62,3.62,0,0,1-1.08,2,2.82,2.82,0,0,1-1.92.68,2.88,2.88,0,0,1-2.34-1.1,4.89,4.89,0,0,1-.9-3.17,5.19,5.19,0,0,1,.91-3.28,2.8,2.8,0,0,1,2.28-1.13,2.69,2.69,0,0,1,2.2,1.11,5.05,5.05,0,0,1,.89,3.21v.38h-5.08a3.57,3.57,0,0,0,.65,2.11,1.77,1.77,0,0,0,1.41.71C591.84,79.68,592.44,79.11,592.78,78ZM589,75.7h3.8a3.21,3.21,0,0,0-.46-1.61,1.69,1.69,0,0,0-1.42-.77,1.72,1.72,0,0,0-1.32.64A2.88,2.88,0,0,0,589,75.7Z"/><path class="cls-4" d="M595.43,80.65v-8.3h1v1.26a3.5,3.5,0,0,1,.73-1.16,1.12,1.12,0,0,1,.75-.29,2,2,0,0,1,1.17.46l-.39,1.3a1.43,1.43,0,0,0-.83-.3,1,1,0,0,0-.67.26,1.32,1.32,0,0,0-.43.71,6.36,6.36,0,0,0-.22,1.71v4.35Z"/><path class="cls-4" d="M599.35,78.16,600.5,78a2.06,2.06,0,0,0,.55,1.3,1.94,1.94,0,0,0,2.36.06,1.23,1.23,0,0,0,.41-.94.93.93,0,0,0-.35-.77,4.64,4.64,0,0,0-1.17-.47,8.28,8.28,0,0,1-1.8-.7,1.93,1.93,0,0,1-.7-.77,2.36,2.36,0,0,1-.25-1.11,2.28,2.28,0,0,1,.68-1.72,2.58,2.58,0,0,1,1.88-.67,3,3,0,0,1,1.33.28,2.06,2.06,0,0,1,.88.73,3.3,3.3,0,0,1,.42,1.32l-1.12.19a1.35,1.35,0,0,0-1.48-1.36,1.76,1.76,0,0,0-1.12.3,1,1,0,0,0-.36.77.85.85,0,0,0,.35.72,6.55,6.55,0,0,0,1.25.5,9.4,9.4,0,0,1,1.85.72,1.89,1.89,0,0,1,.66.74,2.51,2.51,0,0,1,.23,1.1,2.58,2.58,0,0,1-.75,1.93,2.84,2.84,0,0,1-2.06.74C600.56,80.84,599.61,80,599.35,78.16Z"/><path class="cls-4" d="M610,80.65V69.2h1.15v4.1a2.8,2.8,0,0,1,.91-.85,2.32,2.32,0,0,1,1.13-.29,2.18,2.18,0,0,1,1.72.7,3.8,3.8,0,0,1,.63,2.53v5.26H614.4V75.39a2.52,2.52,0,0,0-.38-1.55,1.3,1.3,0,0,0-1.06-.46,1.66,1.66,0,0,0-1.28.6,3.28,3.28,0,0,0-.52,2.13v4.54Z"/><path class="cls-4" d="M616.87,76.5a5,5,0,0,1,.9-3.24,2.91,2.91,0,0,1,4.56,0,4.79,4.79,0,0,1,.91,3.15,5.17,5.17,0,0,1-.9,3.33,2.91,2.91,0,0,1-4.56,0A5,5,0,0,1,616.87,76.5Zm1.18,0a4,4,0,0,0,.58,2.39,1.75,1.75,0,0,0,1.46.79,1.69,1.69,0,0,0,1.39-.79,4,4,0,0,0,.58-2.39,4,4,0,0,0-.58-2.39,1.75,1.75,0,0,0-1.46-.79,1.7,1.7,0,0,0-1.4.79A4.09,4.09,0,0,0,618.05,76.5Z"/><path class="cls-4" d="M624.56,80.65V69.2h1.15V80.65Z"/><path class="cls-4" d="M631.92,80.65V79.6a2.34,2.34,0,0,1-.8.92,2,2,0,0,1-1.07.32A2.58,2.58,0,0,1,628,79.7a5.16,5.16,0,0,1-.88-3.2,6.56,6.56,0,0,1,.39-2.4,3.23,3.23,0,0,1,1-1.46,2.35,2.35,0,0,1,1.44-.48,2,2,0,0,1,1.06.3,2.71,2.71,0,0,1,.81.84V69.2H633V80.65Zm-3.65-4.14a4.15,4.15,0,0,0,.56,2.39,1.61,1.61,0,0,0,1.3.78,1.56,1.56,0,0,0,1.28-.75,3.9,3.9,0,0,0,.54-2.27,4.66,4.66,0,0,0-.54-2.54,1.61,1.61,0,0,0-1.36-.8,1.5,1.5,0,0,0-1.25.77A4.36,4.36,0,0,0,628.27,76.51Z"/><path class="cls-4" d="M634.81,70.81V69.2H636v1.61Zm0,9.84v-8.3H636v8.3Z"/><path class="cls-4" d="M637.73,80.65v-8.3h1v1.17a2.76,2.76,0,0,1,.91-1,2.36,2.36,0,0,1,1.25-.34,2.44,2.44,0,0,1,1,.22,1.94,1.94,0,0,1,.74.56,2.22,2.22,0,0,1,.43.9,7.81,7.81,0,0,1,.14,1.71v5.1H642.1V75.6a4.34,4.34,0,0,0-.15-1.34,1.36,1.36,0,0,0-.49-.65,1.27,1.27,0,0,0-.77-.23,1.6,1.6,0,0,0-1.32.61,3.46,3.46,0,0,0-.49,2.12v4.54Z"/><path class="cls-4" d="M644.8,81.34l1.12.2a1.43,1.43,0,0,0,.47,1,1.63,1.63,0,0,0,1.09.33,1.87,1.87,0,0,0,1.2-.36,1.92,1.92,0,0,0,.62-1.09,11.09,11.09,0,0,0,.1-1.84,2.6,2.6,0,0,1-.85.81,2,2,0,0,1-1,.27,2.49,2.49,0,0,1-2-1,5.07,5.07,0,0,1-.92-3.18A6.23,6.23,0,0,1,645,74.1,3.24,3.24,0,0,1,646,72.63a2.53,2.53,0,0,1,1.48-.47,2.09,2.09,0,0,1,1.1.3,2.73,2.73,0,0,1,.88.88v-1h1.06v7.17a8.35,8.35,0,0,1-.31,2.73,2.62,2.62,0,0,1-1,1.29,3,3,0,0,1-1.71.48,2.76,2.76,0,0,1-2-.72A2.57,2.57,0,0,1,644.8,81.34Zm1-5a4.16,4.16,0,0,0,.54,2.39,1.59,1.59,0,0,0,1.32.75,1.61,1.61,0,0,0,1.33-.73,5.21,5.21,0,0,0,0-4.68,1.68,1.68,0,0,0-1.37-.76,1.59,1.59,0,0,0-1.27.76A3.94,3.94,0,0,0,645.75,76.35Z"/><path class="cls-4" d="M558.5,95.16l1.15-.21a2.06,2.06,0,0,0,.55,1.3,1.94,1.94,0,0,0,2.36.06,1.23,1.23,0,0,0,.41-.94.93.93,0,0,0-.35-.77,4.64,4.64,0,0,0-1.17-.47,8.28,8.28,0,0,1-1.8-.7,1.93,1.93,0,0,1-.7-.77,2.36,2.36,0,0,1-.25-1.11,2.28,2.28,0,0,1,.68-1.72,2.58,2.58,0,0,1,1.88-.67,3,3,0,0,1,1.33.28,2.06,2.06,0,0,1,.88.73,3.3,3.3,0,0,1,.42,1.32l-1.12.19a1.35,1.35,0,0,0-1.48-1.36,1.76,1.76,0,0,0-1.12.3,1,1,0,0,0-.37.77.86.86,0,0,0,.36.72,6.25,6.25,0,0,0,1.25.5,9.4,9.4,0,0,1,1.85.72,1.89,1.89,0,0,1,.66.74,2.51,2.51,0,0,1,.23,1.1,2.55,2.55,0,0,1-.76,1.93,2.8,2.8,0,0,1-2,.74C559.71,97.84,558.76,97,558.5,95.16Z"/><path class="cls-4" d="M565.51,87.81V86.2h1.15v1.61Zm0,9.84v-8.3h1.15v8.3Z"/><path class="cls-4" d="M568.2,98.34l1.12.2a1.43,1.43,0,0,0,.47,1,1.63,1.63,0,0,0,1.09.33,1.87,1.87,0,0,0,1.2-.36,1.92,1.92,0,0,0,.62-1.09,11.09,11.09,0,0,0,.1-1.84,2.6,2.6,0,0,1-.85.81,2,2,0,0,1-1,.27,2.49,2.49,0,0,1-2-1,5.07,5.07,0,0,1-.92-3.18,6,6,0,0,1,.41-2.34,3.24,3.24,0,0,1,1.06-1.47,2.53,2.53,0,0,1,1.48-.47,2.09,2.09,0,0,1,1.1.3,2.84,2.84,0,0,1,.88.88v-1H574v7.17a8.35,8.35,0,0,1-.31,2.73,2.59,2.59,0,0,1-1,1.29,3,3,0,0,1-1.71.48,2.73,2.73,0,0,1-2-.72A2.57,2.57,0,0,1,568.2,98.34Zm.95-5a4.16,4.16,0,0,0,.54,2.39,1.59,1.59,0,0,0,1.32.75,1.61,1.61,0,0,0,1.33-.73,5.21,5.21,0,0,0,0-4.68,1.7,1.7,0,0,0-1.37-.76,1.59,1.59,0,0,0-1.27.76A3.94,3.94,0,0,0,569.15,93.35Z"/><path class="cls-4" d="M575.72,97.65v-8.3h1v1.17a2.76,2.76,0,0,1,.91-1,2.39,2.39,0,0,1,1.25-.34,2.44,2.44,0,0,1,1,.22,2.05,2.05,0,0,1,.75.56,2.21,2.21,0,0,1,.42.9,7.23,7.23,0,0,1,.14,1.71v5.1h-1.15V92.6a4.34,4.34,0,0,0-.15-1.34,1.36,1.36,0,0,0-.49-.65,1.27,1.27,0,0,0-.77-.23,1.6,1.6,0,0,0-1.32.61,3.46,3.46,0,0,0-.49,2.12v4.54Z"/><path class="cls-4" d="M587.92,97.65l-2.09-8.3H587l1.08,4.79.4,1.78.36-1.71,1.08-4.86h1.19l1,4.81.34,1.59.39-1.6,1.16-4.8h1.12L593,97.65h-1.2l-1.09-5-.25-1.41-1.38,6.38Z"/><path class="cls-4" d="M596.13,87.81V86.2h1.15v1.61Zm0,9.84v-8.3h1.15v8.3Z"/><path class="cls-4" d="M601.61,96.39l.16,1.24a3.21,3.21,0,0,1-.86.13,1.72,1.72,0,0,1-1-.24,1.21,1.21,0,0,1-.51-.65,6.54,6.54,0,0,1-.13-1.65V90.45h-.85v-1.1h.85v-2l1.15-.85v2.9h1.16v1.1h-1.16V95.3a2.2,2.2,0,0,0,.1.86.56.56,0,0,0,.55.29A2.86,2.86,0,0,0,601.61,96.39Z"/><path class="cls-4" d="M602.7,97.65V86.2h1.14v4.1a2.82,2.82,0,0,1,.92-.85,2.29,2.29,0,0,1,1.13-.29,2.2,2.2,0,0,1,1.72.7,3.87,3.87,0,0,1,.62,2.53v5.26h-1.14V92.39a2.45,2.45,0,0,0-.39-1.55,1.27,1.27,0,0,0-1.05-.46,1.64,1.64,0,0,0-1.28.6,3.28,3.28,0,0,0-.53,2.13v4.54Z"/><path class="cls-4" d="M614.7,97.65h-1.08V86.2h1.16v4.08a2.77,2.77,0,0,1,.83-.84,2,2,0,0,1,1-.28,2.4,2.4,0,0,1,1.45.48,3.26,3.26,0,0,1,1,1.45,6.28,6.28,0,0,1,.39,2.35,5.22,5.22,0,0,1-.88,3.25,2.59,2.59,0,0,1-2.07,1.15,2,2,0,0,1-1.07-.31,2.54,2.54,0,0,1-.81-.92Zm0-4.21a6.18,6.18,0,0,0,.23,1.93,2.13,2.13,0,0,0,.67,1,1.48,1.48,0,0,0,.95.34,1.56,1.56,0,0,0,1.27-.8,4.24,4.24,0,0,0,.55-2.4,4.29,4.29,0,0,0-.53-2.39,1.45,1.45,0,0,0-2.58,0A4.08,4.08,0,0,0,614.68,93.44Z"/><path class="cls-4" d="M620.94,87.81V86.2h1.15v1.61Zm0,9.84v-8.3h1.15v8.3Z"/><path class="cls-4" d="M623.62,98.34l1.13.2a1.43,1.43,0,0,0,.47,1,1.62,1.62,0,0,0,1.08.33,1.67,1.67,0,0,0,1.82-1.45,9.73,9.73,0,0,0,.11-1.84,2.6,2.6,0,0,1-.85.81,2,2,0,0,1-1,.27,2.49,2.49,0,0,1-2-1,5.07,5.07,0,0,1-.92-3.18,6.23,6.23,0,0,1,.4-2.34,3.33,3.33,0,0,1,1.07-1.47,2.51,2.51,0,0,1,1.48-.47,2.09,2.09,0,0,1,1.1.3,2.84,2.84,0,0,1,.88.88v-1h1.06v7.17a8.35,8.35,0,0,1-.31,2.73,2.59,2.59,0,0,1-1,1.29,3,3,0,0,1-1.71.48,2.73,2.73,0,0,1-2-.72A2.61,2.61,0,0,1,623.62,98.34Zm1-5a4.16,4.16,0,0,0,.54,2.39,1.59,1.59,0,0,0,1.32.75,1.61,1.61,0,0,0,1.33-.73,5.21,5.21,0,0,0,0-4.68,1.7,1.7,0,0,0-1.37-.76,1.59,1.59,0,0,0-1.27.76A3.94,3.94,0,0,0,624.58,93.35Z"/><path class="cls-4" d="M634.76,97.65V86.2h1.15V97.65Z"/><path class="cls-4" d="M642.36,95l1.19.18a3.62,3.62,0,0,1-1.08,2,2.83,2.83,0,0,1-1.92.68,2.86,2.86,0,0,1-2.34-1.1,4.89,4.89,0,0,1-.9-3.17,5.19,5.19,0,0,1,.9-3.28,2.84,2.84,0,0,1,2.29-1.13,2.71,2.71,0,0,1,2.2,1.11,5.05,5.05,0,0,1,.89,3.21v.38H638.5a3.57,3.57,0,0,0,.65,2.11,1.75,1.75,0,0,0,1.4.71C641.42,96.68,642,96.11,642.36,95Zm-3.79-2.28h3.8a3.21,3.21,0,0,0-.46-1.61,1.69,1.69,0,0,0-1.42-.77,1.72,1.72,0,0,0-1.32.64A2.88,2.88,0,0,0,638.57,92.7Z"/><path class="cls-4" d="M647.57,96.39l.16,1.24a3.21,3.21,0,0,1-.86.13,1.74,1.74,0,0,1-1-.24,1.26,1.26,0,0,1-.51-.65,6.54,6.54,0,0,1-.13-1.65V90.45h-.85v-1.1h.85v-2l1.15-.85v2.9h1.16v1.1h-1.16V95.3a2.2,2.2,0,0,0,.1.86.56.56,0,0,0,.55.29A2.86,2.86,0,0,0,647.57,96.39Z"/><path class="cls-4" d="M651.22,96.39l.16,1.24a3.21,3.21,0,0,1-.86.13,1.72,1.72,0,0,1-1-.24,1.21,1.21,0,0,1-.51-.65,6.54,6.54,0,0,1-.13-1.65V90.45h-.85v-1.1h.85v-2l1.14-.85v2.9h1.17v1.1h-1.17V95.3a2.14,2.14,0,0,0,.11.86.56.56,0,0,0,.55.29A2.86,2.86,0,0,0,651.22,96.39Z"/><path class="cls-4" d="M657,95l1.19.18a3.67,3.67,0,0,1-1.07,2,2.84,2.84,0,0,1-1.93.68,2.89,2.89,0,0,1-2.34-1.1,4.89,4.89,0,0,1-.89-3.17,5.19,5.19,0,0,1,.9-3.28,2.8,2.8,0,0,1,2.28-1.13,2.72,2.72,0,0,1,2.21,1.11,5.05,5.05,0,0,1,.88,3.21v.38h-5.08a3.64,3.64,0,0,0,.65,2.11,1.78,1.78,0,0,0,1.41.71C656,96.68,656.61,96.11,657,95Zm-3.79-2.28H657a3.21,3.21,0,0,0-.46-1.61,1.68,1.68,0,0,0-2.73-.13A2.82,2.82,0,0,0,653.16,92.7Z"/><path class="cls-4" d="M659.6,97.65v-8.3h1v1.26a3.67,3.67,0,0,1,.73-1.16,1.12,1.12,0,0,1,.75-.29,2,2,0,0,1,1.18.46l-.39,1.3a1.49,1.49,0,0,0-.84-.3,1,1,0,0,0-.67.26,1.38,1.38,0,0,0-.43.71,6.36,6.36,0,0,0-.22,1.71v4.35Z"/><path class="cls-4" d="M663.52,95.16l1.15-.21a2,2,0,0,0,.56,1.3,1.93,1.93,0,0,0,2.35.06,1.19,1.19,0,0,0,.41-.94.9.9,0,0,0-.35-.77,4.64,4.64,0,0,0-1.17-.47,8.28,8.28,0,0,1-1.8-.7,2,2,0,0,1-.7-.77,2.36,2.36,0,0,1-.25-1.11,2.31,2.31,0,0,1,.68-1.72,2.58,2.58,0,0,1,1.88-.67,2.93,2.93,0,0,1,1.33.28,2,2,0,0,1,.88.73,3,3,0,0,1,.42,1.32l-1.12.19a1.35,1.35,0,0,0-1.48-1.36,1.71,1.71,0,0,0-1.11.3.94.94,0,0,0-.37.77.87.87,0,0,0,.35.72,6.55,6.55,0,0,0,1.25.5,9.14,9.14,0,0,1,1.85.72,1.89,1.89,0,0,1,.66.74,2.51,2.51,0,0,1,.23,1.1,2.58,2.58,0,0,1-.75,1.93,2.82,2.82,0,0,1-2.06.74C664.73,97.84,663.78,97,663.52,95.16Z"/><path class="cls-4" d="M672.7,94.83l0-.42a4.29,4.29,0,0,1,.38-1.9,7,7,0,0,1,1.12-1.45,4.14,4.14,0,0,0,.76-1,2,2,0,0,0,.18-.84,2.12,2.12,0,0,0-.55-1.46,1.68,1.68,0,0,0-1.26-.6,1.58,1.58,0,0,0-1.23.55,3.13,3.13,0,0,0-.66,1.76l-1.18-.17a4.07,4.07,0,0,1,1-2.48A2.8,2.8,0,0,1,673.3,86a2.84,2.84,0,0,1,2.14.88,3.07,3.07,0,0,1,.86,2.24A3.47,3.47,0,0,1,676,90.5a6.66,6.66,0,0,1-1.13,1.55,4.21,4.21,0,0,0-.89,1.22,4.83,4.83,0,0,0-.2,1.56Zm-.08,2.82v-1.6h1.31v1.6Z"/><path class="cls-4" d="M739,281.65V270.2h3.54a5.91,5.91,0,0,1,1.84.21,2.54,2.54,0,0,1,1.3,1.11,3.76,3.76,0,0,1,.48,2,3.9,3.9,0,0,1-.79,2.53,3.31,3.31,0,0,1-2.72,1h-2.41v4.66Zm1.24-6h2.43a2.32,2.32,0,0,0,1.68-.52,2.13,2.13,0,0,0,.53-1.57,2.45,2.45,0,0,0-.26-1.16,1.55,1.55,0,0,0-.63-.66,3.45,3.45,0,0,0-1.34-.18h-2.41Z"/><path class="cls-4" d="M752.25,279l1.19.18a3.62,3.62,0,0,1-1.08,2,2.83,2.83,0,0,1-1.92.68,2.86,2.86,0,0,1-2.34-1.1,4.89,4.89,0,0,1-.9-3.17,5.13,5.13,0,0,1,.91-3.28,2.8,2.8,0,0,1,2.28-1.13,2.71,2.71,0,0,1,2.2,1.11,5.05,5.05,0,0,1,.89,3.21v.38h-5.08A3.57,3.57,0,0,0,749,280a1.75,1.75,0,0,0,1.41.71C751.31,280.68,751.91,280.11,752.25,279Zm-3.79-2.28h3.8a3.21,3.21,0,0,0-.46-1.61,1.69,1.69,0,0,0-1.42-.77,1.72,1.72,0,0,0-1.32.64A2.88,2.88,0,0,0,748.46,276.7Z"/><path class="cls-4" d="M754.9,281.65v-8.3h1v1.26a3.5,3.5,0,0,1,.73-1.16,1.12,1.12,0,0,1,.74-.29,2,2,0,0,1,1.18.46l-.39,1.3a1.43,1.43,0,0,0-.83-.3,1,1,0,0,0-.67.26,1.32,1.32,0,0,0-.43.71,6.36,6.36,0,0,0-.22,1.71v4.35Z"/><path class="cls-4" d="M759.27,281.65V270.2h1.14v4.1a2.82,2.82,0,0,1,.92-.85,2.29,2.29,0,0,1,1.13-.29,2.2,2.2,0,0,1,1.72.7,3.87,3.87,0,0,1,.62,2.53v5.26h-1.14v-5.26a2.45,2.45,0,0,0-.39-1.55,1.27,1.27,0,0,0-1-.46,1.64,1.64,0,0,0-1.28.6,3.28,3.28,0,0,0-.53,2.13v4.54Z"/><path class="cls-4" d="M771,280.62a4,4,0,0,1-1.2.91,3,3,0,0,1-1.3.31,2.28,2.28,0,0,1-1.69-.64,2.38,2.38,0,0,1-.64-1.73,2.62,2.62,0,0,1,.3-1.27,2.27,2.27,0,0,1,.81-.87,4.33,4.33,0,0,1,1.57-.46,9,9,0,0,0,2.06-.49V276a1.84,1.84,0,0,0-.31-1.2,1.64,1.64,0,0,0-1.32-.5,1.85,1.85,0,0,0-1.2.33,2.21,2.21,0,0,0-.59,1.26l-1.13-.19a3.18,3.18,0,0,1,1-2,3.27,3.27,0,0,1,2.11-.61,3,3,0,0,1,1.68.41,1.67,1.67,0,0,1,.77,1,7,7,0,0,1,.16,1.74v1.87a23.12,23.12,0,0,0,.08,2.48,3.58,3.58,0,0,0,.29,1h-1.2A3.63,3.63,0,0,1,771,280.62Zm-.09-3.14A7.34,7.34,0,0,1,769,278a3.33,3.33,0,0,0-1,.28,1.21,1.21,0,0,0-.45.45,1.37,1.37,0,0,0-.16.68,1.24,1.24,0,0,0,.37.95,1.37,1.37,0,0,0,1,.35,2,2,0,0,0,1.12-.32,2,2,0,0,0,.76-.85,3.78,3.78,0,0,0,.25-1.56Z"/><path class="cls-4" d="M773.86,284.83V273.35h1.06v1.08a2.7,2.7,0,0,1,.87-1,2,2,0,0,1,1.09-.3,2.36,2.36,0,0,1,1.45.48,3.26,3.26,0,0,1,1,1.45,6.29,6.29,0,0,1,.4,2.34,5.23,5.23,0,0,1-.89,3.26,2.61,2.61,0,0,1-2.08,1.15,1.87,1.87,0,0,1-1-.28,2.51,2.51,0,0,1-.79-.77v4Zm1-7.28a4.15,4.15,0,0,0,.54,2.37,1.46,1.46,0,0,0,2.58,0,5.6,5.6,0,0,0,0-4.84,1.42,1.42,0,0,0-2.57.06A4.33,4.33,0,0,0,774.91,277.55Z"/><path class="cls-4" d="M780.71,279.16l1.15-.21a2.06,2.06,0,0,0,.55,1.3,1.94,1.94,0,0,0,2.36.06,1.23,1.23,0,0,0,.41-.94.93.93,0,0,0-.35-.77,4.64,4.64,0,0,0-1.17-.47,8.28,8.28,0,0,1-1.8-.7,1.93,1.93,0,0,1-.7-.77,2.36,2.36,0,0,1-.25-1.11,2.28,2.28,0,0,1,.68-1.72,2.58,2.58,0,0,1,1.88-.67,3,3,0,0,1,1.33.28,2.06,2.06,0,0,1,.88.73,3.3,3.3,0,0,1,.42,1.32l-1.12.19a1.35,1.35,0,0,0-1.48-1.36,1.76,1.76,0,0,0-1.12.3,1,1,0,0,0-.36.77.85.85,0,0,0,.35.72,6.55,6.55,0,0,0,1.25.5,9.4,9.4,0,0,1,1.85.72,1.89,1.89,0,0,1,.66.74,2.51,2.51,0,0,1,.23,1.1,2.58,2.58,0,0,1-.75,1.93,2.84,2.84,0,0,1-2.06.74C781.92,281.84,781,281,780.71,279.16Z"/><path class="cls-4" d="M791.37,281.65V270.2h1.15v4.1a2.8,2.8,0,0,1,.91-.85,2.29,2.29,0,0,1,1.13-.29,2.18,2.18,0,0,1,1.72.7,3.8,3.8,0,0,1,.63,2.53v5.26h-1.15v-5.26a2.52,2.52,0,0,0-.38-1.55,1.3,1.3,0,0,0-1.06-.46,1.64,1.64,0,0,0-1.28.6,3.28,3.28,0,0,0-.52,2.13v4.54Z"/><path class="cls-4" d="M803.09,280.62a4,4,0,0,1-1.2.91,3,3,0,0,1-1.3.31,2.3,2.3,0,0,1-1.69-.64,2.37,2.37,0,0,1-.63-1.73,2.62,2.62,0,0,1,.29-1.27,2.22,2.22,0,0,1,.82-.87,4.2,4.2,0,0,1,1.56-.46,8.87,8.87,0,0,0,2.06-.49V276a1.78,1.78,0,0,0-.31-1.2,1.64,1.64,0,0,0-1.32-.5,1.87,1.87,0,0,0-1.2.33,2.21,2.21,0,0,0-.59,1.26l-1.13-.19a3.18,3.18,0,0,1,1-2,3.27,3.27,0,0,1,2.11-.61,3,3,0,0,1,1.68.41,1.67,1.67,0,0,1,.77,1,7,7,0,0,1,.16,1.74v1.87a23.12,23.12,0,0,0,.08,2.48,3.94,3.94,0,0,0,.29,1h-1.2A3.63,3.63,0,0,1,803.09,280.62Zm-.09-3.14a7.34,7.34,0,0,1-1.88.54,3.33,3.33,0,0,0-1,.28,1.21,1.21,0,0,0-.45.45,1.48,1.48,0,0,0-.16.68,1.24,1.24,0,0,0,.37.95,1.38,1.38,0,0,0,1,.35,2,2,0,0,0,1.87-1.17A3.78,3.78,0,0,0,803,278Z"/><path class="cls-4" d="M807.86,281.65l-2.59-8.3h1.22l1.47,5c.16.56.31,1.12.43,1.67.1-.44.24-1,.43-1.58l1.52-5.06h1.18l-2.58,8.3Z"/><path class="cls-4" d="M812.52,271.81V270.2h1.15v1.61Zm0,9.84v-8.3h1.15v8.3Z"/><path class="cls-4" d="M815.44,281.65v-8.3h1v1.17a2.76,2.76,0,0,1,.91-1,2.36,2.36,0,0,1,1.25-.34,2.44,2.44,0,0,1,1,.22,2.05,2.05,0,0,1,.75.56,2.35,2.35,0,0,1,.42.9,7.81,7.81,0,0,1,.14,1.71v5.1h-1.15v-5a4.34,4.34,0,0,0-.15-1.34,1.36,1.36,0,0,0-.49-.65,1.27,1.27,0,0,0-.77-.23,1.6,1.6,0,0,0-1.32.61,3.46,3.46,0,0,0-.49,2.12v4.54Z"/><path class="cls-4" d="M822.51,282.34l1.12.2a1.43,1.43,0,0,0,.47,1,1.63,1.63,0,0,0,1.09.33,1.87,1.87,0,0,0,1.2-.36,1.92,1.92,0,0,0,.62-1.09,10,10,0,0,0,.1-1.84,2.68,2.68,0,0,1-.84.81,2.07,2.07,0,0,1-1,.27,2.49,2.49,0,0,1-2-1,5.07,5.07,0,0,1-.92-3.18,6.23,6.23,0,0,1,.41-2.34,3.24,3.24,0,0,1,1.06-1.47,2.53,2.53,0,0,1,1.48-.47,2.06,2.06,0,0,1,1.1.3,2.73,2.73,0,0,1,.88.88v-1h1.06v7.17a8.35,8.35,0,0,1-.31,2.73,2.62,2.62,0,0,1-1,1.29,3,3,0,0,1-1.71.48,2.72,2.72,0,0,1-2-.72A2.54,2.54,0,0,1,822.51,282.34Zm1-5a4.16,4.16,0,0,0,.54,2.39,1.59,1.59,0,0,0,1.32.75,1.62,1.62,0,0,0,1.34-.73,4,4,0,0,0,.54-2.35,3.91,3.91,0,0,0-.56-2.33,1.68,1.68,0,0,0-1.37-.76,1.59,1.59,0,0,0-1.27.76A3.94,3.94,0,0,0,823.46,277.35Z"/><path class="cls-4" d="M836.24,280.39l.16,1.24a3.21,3.21,0,0,1-.86.13,1.76,1.76,0,0,1-1-.24,1.24,1.24,0,0,1-.5-.65,6.39,6.39,0,0,1-.14-1.65v-4.77h-.84v-1.1h.84V271.3l1.15-.85v2.9h1.16v1.1h-1.16v4.85a2.2,2.2,0,0,0,.1.86.56.56,0,0,0,.55.29A2.86,2.86,0,0,0,836.24,280.39Z"/><path class="cls-4" d="M836.89,277.5a5,5,0,0,1,.9-3.24,2.91,2.91,0,0,1,4.56,0,4.79,4.79,0,0,1,.92,3.15,5.17,5.17,0,0,1-.9,3.33,2.92,2.92,0,0,1-4.57,0A5,5,0,0,1,836.89,277.5Zm1.18,0a4,4,0,0,0,.59,2.39,1.74,1.74,0,0,0,1.45.79,1.67,1.67,0,0,0,1.39-.79,4,4,0,0,0,.59-2.39,4,4,0,0,0-.59-2.39,1.75,1.75,0,0,0-1.45-.79,1.68,1.68,0,0,0-1.4.79A4,4,0,0,0,838.07,277.5Z"/><path class="cls-4" d="M848.27,281.65v-8.3h1v1.26a3.67,3.67,0,0,1,.73-1.16,1.12,1.12,0,0,1,.75-.29,2,2,0,0,1,1.18.46l-.39,1.3a1.49,1.49,0,0,0-.84-.3,1,1,0,0,0-.67.26,1.38,1.38,0,0,0-.43.71,6.79,6.79,0,0,0-.22,1.71v4.35Z"/><path class="cls-4" d="M857.29,279l1.19.18a3.62,3.62,0,0,1-1.08,2,2.83,2.83,0,0,1-1.92.68,2.86,2.86,0,0,1-2.34-1.1,4.89,4.89,0,0,1-.9-3.17,5.19,5.19,0,0,1,.9-3.28,2.84,2.84,0,0,1,2.29-1.13,2.71,2.71,0,0,1,2.2,1.11,5.05,5.05,0,0,1,.89,3.21v.38h-5.08a3.57,3.57,0,0,0,.65,2.11,1.75,1.75,0,0,0,1.4.71C856.35,280.68,857,280.11,857.29,279Zm-3.79-2.28h3.8a3.21,3.21,0,0,0-.46-1.61,1.69,1.69,0,0,0-1.42-.77,1.72,1.72,0,0,0-1.32.64A2.88,2.88,0,0,0,853.5,276.7Z"/><path class="cls-4" d="M859.49,279.16l1.15-.21a2.06,2.06,0,0,0,.55,1.3,1.68,1.68,0,0,0,1.2.43,1.65,1.65,0,0,0,1.16-.37,1.23,1.23,0,0,0,.41-.94.93.93,0,0,0-.35-.77,4.64,4.64,0,0,0-1.17-.47,8.28,8.28,0,0,1-1.8-.7,1.93,1.93,0,0,1-.7-.77,2.36,2.36,0,0,1-.25-1.11,2.28,2.28,0,0,1,.68-1.72,2.58,2.58,0,0,1,1.88-.67,3,3,0,0,1,1.33.28,2.06,2.06,0,0,1,.88.73,3.3,3.3,0,0,1,.42,1.32l-1.12.19a1.35,1.35,0,0,0-1.48-1.36,1.76,1.76,0,0,0-1.12.3,1,1,0,0,0-.36.77.85.85,0,0,0,.35.72,6.55,6.55,0,0,0,1.25.5,9.14,9.14,0,0,1,1.85.72,1.89,1.89,0,0,1,.66.74,2.51,2.51,0,0,1,.23,1.1,2.58,2.58,0,0,1-.75,1.93,2.84,2.84,0,0,1-2.06.74C860.7,281.84,859.75,281,859.49,279.16Z"/><path class="cls-4" d="M866.06,277.5a5,5,0,0,1,.9-3.24,2.91,2.91,0,0,1,4.56,0,4.79,4.79,0,0,1,.92,3.15,5.17,5.17,0,0,1-.9,3.33,2.92,2.92,0,0,1-4.57,0A5,5,0,0,1,866.06,277.5Zm1.18,0a4,4,0,0,0,.59,2.39,1.74,1.74,0,0,0,1.45.79,1.7,1.7,0,0,0,1.4-.79,4.11,4.11,0,0,0,.58-2.39,4,4,0,0,0-.59-2.39,1.74,1.74,0,0,0-1.45-.79,1.69,1.69,0,0,0-1.4.79A4,4,0,0,0,867.24,277.5Z"/><path class="cls-4" d="M873.8,281.65v-8.3h1v1.26a3.35,3.35,0,0,1,.73-1.16,1.12,1.12,0,0,1,.74-.29,2,2,0,0,1,1.18.46l-.39,1.3a1.43,1.43,0,0,0-.83-.3,1,1,0,0,0-.68.26,1.45,1.45,0,0,0-.43.71,6.79,6.79,0,0,0-.21,1.71v4.35Z"/><path class="cls-4" d="M880.73,280.39l.15,1.24a3.1,3.1,0,0,1-.86.13,1.76,1.76,0,0,1-1-.24,1.24,1.24,0,0,1-.5-.65,6.39,6.39,0,0,1-.14-1.65v-4.77h-.84v-1.1h.84V271.3l1.15-.85v2.9h1.17v1.1h-1.17v4.85a2.42,2.42,0,0,0,.1.86.58.58,0,0,0,.56.29A2.86,2.86,0,0,0,880.73,280.39Z"/><path class="cls-4" d="M741.41,297.39l.16,1.24a3.15,3.15,0,0,1-.86.13,1.76,1.76,0,0,1-1-.24,1.24,1.24,0,0,1-.5-.65,6.39,6.39,0,0,1-.14-1.65v-4.77h-.84v-1.1h.84V288.3l1.15-.85v2.9h1.16v1.1h-1.16v4.85a2.2,2.2,0,0,0,.1.86.58.58,0,0,0,.56.29A2.67,2.67,0,0,0,741.41,297.39Z"/><path class="cls-4" d="M742.06,294.5a5,5,0,0,1,.9-3.24,2.91,2.91,0,0,1,4.56,0,4.79,4.79,0,0,1,.92,3.15,5.17,5.17,0,0,1-.9,3.33,2.92,2.92,0,0,1-4.57,0A5,5,0,0,1,742.06,294.5Zm1.18,0a4,4,0,0,0,.59,2.39,1.74,1.74,0,0,0,1.45.79,1.7,1.7,0,0,0,1.4-.79,4.11,4.11,0,0,0,.58-2.39,4,4,0,0,0-.59-2.39,1.74,1.74,0,0,0-1.45-.79,1.69,1.69,0,0,0-1.4.79A4,4,0,0,0,743.24,294.5Z"/><path class="cls-4" d="M756,297.39l.15,1.24a3.1,3.1,0,0,1-.86.13,1.71,1.71,0,0,1-1-.24,1.21,1.21,0,0,1-.51-.65,6.54,6.54,0,0,1-.13-1.65v-4.77h-.85v-1.1h.85V288.3l1.14-.85v2.9H756v1.1h-1.17v4.85a2.14,2.14,0,0,0,.11.86.56.56,0,0,0,.55.29A2.86,2.86,0,0,0,756,297.39Z"/><path class="cls-4" d="M761.52,297.62a4,4,0,0,1-1.2.91,3,3,0,0,1-1.3.31,2.3,2.3,0,0,1-1.69-.64,2.37,2.37,0,0,1-.63-1.73,2.62,2.62,0,0,1,.29-1.27,2.27,2.27,0,0,1,.81-.87,4.33,4.33,0,0,1,1.57-.46,9,9,0,0,0,2.06-.49V293a1.78,1.78,0,0,0-.31-1.2,1.64,1.64,0,0,0-1.32-.5,1.87,1.87,0,0,0-1.2.33,2.21,2.21,0,0,0-.59,1.26l-1.13-.19a3.18,3.18,0,0,1,1-2,3.27,3.27,0,0,1,2.11-.61,3,3,0,0,1,1.68.41,1.67,1.67,0,0,1,.77,1,7,7,0,0,1,.16,1.74v1.87a23.12,23.12,0,0,0,.08,2.48,3.94,3.94,0,0,0,.29,1h-1.2A3.63,3.63,0,0,1,761.52,297.62Zm-.09-3.14a7.34,7.34,0,0,1-1.88.54,3.33,3.33,0,0,0-1,.28,1.21,1.21,0,0,0-.45.45,1.48,1.48,0,0,0-.16.68,1.24,1.24,0,0,0,.37.95,1.37,1.37,0,0,0,1,.35,2,2,0,0,0,1.88-1.17,3.78,3.78,0,0,0,.25-1.56Z"/><path class="cls-4" d="M764.41,298.65V287.2h1.15v6.54l2.74-3.39h1.49l-2.6,3.08,2.86,5.22h-1.41l-2.26-4.25-.82,1v3.29Z"/><path class="cls-4" d="M771,288.81V287.2h1.15v1.61Zm0,9.84v-8.3h1.15v8.3Z"/><path class="cls-4" d="M773.87,298.65v-8.3h1v1.17a2.76,2.76,0,0,1,.91-1,2.36,2.36,0,0,1,1.25-.34,2.44,2.44,0,0,1,1,.22,2.05,2.05,0,0,1,.75.56,2.35,2.35,0,0,1,.42.9,7.81,7.81,0,0,1,.14,1.71v5.1h-1.15v-5a4.34,4.34,0,0,0-.15-1.34,1.36,1.36,0,0,0-.49-.65,1.27,1.27,0,0,0-.77-.23,1.6,1.6,0,0,0-1.32.61,3.46,3.46,0,0,0-.49,2.12v4.54Z"/><path class="cls-4" d="M780.94,299.34l1.12.2a1.43,1.43,0,0,0,.47,1,1.63,1.63,0,0,0,1.09.33,1.87,1.87,0,0,0,1.2-.36,1.92,1.92,0,0,0,.62-1.09,11.09,11.09,0,0,0,.1-1.84,2.68,2.68,0,0,1-.84.81,2.07,2.07,0,0,1-1,.27,2.49,2.49,0,0,1-2-1,5.07,5.07,0,0,1-.92-3.18,6.23,6.23,0,0,1,.41-2.34,3.24,3.24,0,0,1,1.06-1.47,2.53,2.53,0,0,1,1.48-.47,2.06,2.06,0,0,1,1.1.3,2.73,2.73,0,0,1,.88.88v-1h1.06v7.17a8.35,8.35,0,0,1-.31,2.73,2.62,2.62,0,0,1-1,1.29,3,3,0,0,1-1.71.48,2.76,2.76,0,0,1-2-.72A2.57,2.57,0,0,1,780.94,299.34Zm.95-5a4.16,4.16,0,0,0,.54,2.39,1.56,1.56,0,0,0,2.65,0,4,4,0,0,0,.55-2.35,3.91,3.91,0,0,0-.56-2.33,1.68,1.68,0,0,0-1.37-.76,1.59,1.59,0,0,0-1.27.76A3.94,3.94,0,0,0,781.89,294.35Z"/><path class="cls-4" d="M794.67,297.39l.16,1.24a3.21,3.21,0,0,1-.86.13,1.76,1.76,0,0,1-1-.24,1.19,1.19,0,0,1-.5-.65,6.39,6.39,0,0,1-.14-1.65v-4.77h-.84v-1.1h.84V288.3l1.15-.85v2.9h1.16v1.1h-1.16v4.85a2.2,2.2,0,0,0,.1.86.56.56,0,0,0,.55.29A2.86,2.86,0,0,0,794.67,297.39Z"/><path class="cls-4" d="M795.76,298.65V287.2h1.15v4.1a2.8,2.8,0,0,1,.91-.85,2.32,2.32,0,0,1,1.13-.29,2.18,2.18,0,0,1,1.72.7,3.8,3.8,0,0,1,.63,2.53v5.26h-1.15v-5.26a2.52,2.52,0,0,0-.38-1.55,1.3,1.3,0,0,0-1.06-.46,1.66,1.66,0,0,0-1.28.6,3.28,3.28,0,0,0-.52,2.13v4.54Z"/><path class="cls-4" d="M807.7,296l1.19.18a3.67,3.67,0,0,1-1.07,2,2.84,2.84,0,0,1-1.93.68,2.89,2.89,0,0,1-2.34-1.1,4.89,4.89,0,0,1-.89-3.17,5.19,5.19,0,0,1,.9-3.28,2.8,2.8,0,0,1,2.28-1.13,2.72,2.72,0,0,1,2.21,1.11,5.05,5.05,0,0,1,.88,3.21v.38h-5.08a3.64,3.64,0,0,0,.65,2.11,1.78,1.78,0,0,0,1.41.71C806.76,297.68,807.36,297.11,807.7,296Zm-3.79-2.28h3.8a3.21,3.21,0,0,0-.46-1.61,1.68,1.68,0,0,0-2.73-.13A2.82,2.82,0,0,0,803.91,293.7Z"/><path class="cls-4" d="M813.55,296.16l1.15-.21a2.07,2.07,0,0,0,.56,1.3,1.65,1.65,0,0,0,1.2.43,1.62,1.62,0,0,0,1.15-.37,1.19,1.19,0,0,0,.41-.94.9.9,0,0,0-.35-.77,4.64,4.64,0,0,0-1.17-.47,8.28,8.28,0,0,1-1.8-.7,2,2,0,0,1-.7-.77,2.36,2.36,0,0,1-.25-1.11,2.31,2.31,0,0,1,.68-1.72,2.58,2.58,0,0,1,1.88-.67,2.93,2.93,0,0,1,1.33.28,2,2,0,0,1,.88.73,3.15,3.15,0,0,1,.43,1.32l-1.13.19a1.35,1.35,0,0,0-1.48-1.36,1.71,1.71,0,0,0-1.11.3.94.94,0,0,0-.37.77.87.87,0,0,0,.35.72,6.55,6.55,0,0,0,1.25.5,9.31,9.31,0,0,1,1.86.72,1.87,1.87,0,0,1,.65.74,2.51,2.51,0,0,1,.23,1.1,2.58,2.58,0,0,1-.75,1.93,2.82,2.82,0,0,1-2.06.74C814.76,298.84,813.82,298,813.55,296.16Z"/><path class="cls-4" d="M820.56,298.65V287.2h1.15v4.1a2.82,2.82,0,0,1,.92-.85,2.29,2.29,0,0,1,1.13-.29,2.17,2.17,0,0,1,1.71.7,3.8,3.8,0,0,1,.63,2.53v5.26H825v-5.26a2.45,2.45,0,0,0-.38-1.55,1.28,1.28,0,0,0-1.05-.46,1.64,1.64,0,0,0-1.28.6,3.28,3.28,0,0,0-.53,2.13v4.54Z"/><path class="cls-4" d="M832.31,298.65v-1.22a2.93,2.93,0,0,1-.93,1.05,2.16,2.16,0,0,1-1.22.36,2.21,2.21,0,0,1-1.38-.44,2.06,2.06,0,0,1-.76-1.1,6.66,6.66,0,0,1-.19-1.81v-5.14H829V295a7.06,7.06,0,0,0,.13,1.72,1.3,1.3,0,0,0,1.27.95,1.63,1.63,0,0,0,1.35-.67,3.64,3.64,0,0,0,.46-2.15v-4.45h1.15v8.3Z"/><path class="cls-4" d="M837.72,297.39l.16,1.24a3.21,3.21,0,0,1-.86.13,1.72,1.72,0,0,1-1-.24,1.21,1.21,0,0,1-.51-.65,6.54,6.54,0,0,1-.13-1.65v-4.77h-.85v-1.1h.85V288.3l1.14-.85v2.9h1.17v1.1h-1.17v4.85a2.14,2.14,0,0,0,.11.86.56.56,0,0,0,.55.29A2.86,2.86,0,0,0,837.72,297.39Z"/><path class="cls-4" d="M841.37,297.39l.15,1.24a3.1,3.1,0,0,1-.86.13,1.71,1.71,0,0,1-1-.24,1.21,1.21,0,0,1-.51-.65,6.39,6.39,0,0,1-.14-1.65v-4.77h-.84v-1.1h.84V288.3l1.15-.85v2.9h1.17v1.1H840.2v4.85a2.42,2.42,0,0,0,.1.86.58.58,0,0,0,.56.29A2.86,2.86,0,0,0,841.37,297.39Z"/><path class="cls-4" d="M842.41,298.65V287.2h1.15v11.45Z"/><path class="cls-4" d="M850,296l1.18.18a3.61,3.61,0,0,1-1.07,2,2.84,2.84,0,0,1-1.93.68,2.89,2.89,0,0,1-2.34-1.1,5,5,0,0,1-.89-3.17,5.19,5.19,0,0,1,.9-3.28,2.81,2.81,0,0,1,2.29-1.13,2.71,2.71,0,0,1,2.2,1.11,5.05,5.05,0,0,1,.88,3.21v.38h-5.07a3.57,3.57,0,0,0,.64,2.11,1.78,1.78,0,0,0,1.41.71C849.08,297.68,849.68,297.11,850,296Zm-3.79-2.28H850a3.11,3.11,0,0,0-.46-1.61,1.68,1.68,0,0,0-2.73-.13A2.76,2.76,0,0,0,846.23,293.7Z"/><path class="cls-4" d="M853,298.65v-1.6h1.31v1.6a3.28,3.28,0,0,1-.27,1.46,1.82,1.82,0,0,1-.8.8l-.32-.6a1.16,1.16,0,0,0,.53-.56,2.69,2.69,0,0,0,.2-1.1Z"/><path class="cls-4" d="M859.52,294.5a5,5,0,0,1,.91-3.24,2.9,2.9,0,0,1,4.55,0,4.79,4.79,0,0,1,.92,3.15,5.17,5.17,0,0,1-.9,3.33,2.92,2.92,0,0,1-4.57,0A5,5,0,0,1,859.52,294.5Zm1.18,0a4,4,0,0,0,.59,2.39,1.74,1.74,0,0,0,1.45.79,1.7,1.7,0,0,0,1.4-.79,4.11,4.11,0,0,0,.58-2.39,4,4,0,0,0-.59-2.39,1.74,1.74,0,0,0-1.45-.79,1.69,1.69,0,0,0-1.4.79A4.08,4.08,0,0,0,860.7,294.5Z"/><path class="cls-4" d="M871.71,298.65v-1.22a2.86,2.86,0,0,1-.94,1.05,2.13,2.13,0,0,1-1.22.36,2.2,2.2,0,0,1-1.37-.44,2.06,2.06,0,0,1-.76-1.1,6.66,6.66,0,0,1-.19-1.81v-5.14h1.15V295a7.82,7.82,0,0,0,.12,1.72,1.32,1.32,0,0,0,.48.69,1.25,1.25,0,0,0,.79.26,1.64,1.64,0,0,0,1.36-.67,3.72,3.72,0,0,0,.46-2.15v-4.45h1.15v8.3Z"/><path class="cls-4" d="M877.12,297.39l.15,1.24a3.1,3.1,0,0,1-.86.13,1.71,1.71,0,0,1-1-.24,1.21,1.21,0,0,1-.51-.65,6.39,6.39,0,0,1-.14-1.65v-4.77H874v-1.1h.84V288.3l1.15-.85v2.9h1.17v1.1H876v4.85a2.42,2.42,0,0,0,.1.86.58.58,0,0,0,.56.29A2.86,2.86,0,0,0,877.12,297.39Z"/><path class="cls-4" d="M738.41,311.5a5,5,0,0,1,.91-3.24,2.91,2.91,0,0,1,4.56,0,4.85,4.85,0,0,1,.91,3.15,5.17,5.17,0,0,1-.9,3.33,2.92,2.92,0,0,1-4.57,0A5,5,0,0,1,738.41,311.5Zm1.18,0a4,4,0,0,0,.59,2.39,1.74,1.74,0,0,0,1.45.79,1.7,1.7,0,0,0,1.4-.79,4,4,0,0,0,.58-2.39,4,4,0,0,0-.59-2.39,1.74,1.74,0,0,0-1.45-.79,1.69,1.69,0,0,0-1.4.79A4.08,4.08,0,0,0,739.59,311.5Z"/><path class="cls-4" d="M746.47,315.65v-7.2h-1v-1.1h1v-.88a4.2,4.2,0,0,1,.2-1.47,1.62,1.62,0,0,1,.62-.74,2,2,0,0,1,1.06-.26,4.37,4.37,0,0,1,1.08.15l-.17,1.22a3.39,3.39,0,0,0-.68-.08.9.9,0,0,0-.74.27,1.69,1.69,0,0,0-.22,1v.76H749v1.1h-1.33v7.2Z"/><path class="cls-4" d="M753.77,315.65v-7.2h-1v-1.1h1v-.88A4,4,0,0,1,754,305a1.56,1.56,0,0,1,.62-.74,2,2,0,0,1,1.06-.26,4.5,4.5,0,0,1,1.08.15l-.18,1.22a3.22,3.22,0,0,0-.67-.08.9.9,0,0,0-.74.27,1.67,1.67,0,0,0-.23,1v.76h1.33v1.1h-1.33v7.2Z"/><path class="cls-4" d="M761.52,314.62a4,4,0,0,1-1.2.91,3,3,0,0,1-1.3.31,2.3,2.3,0,0,1-1.69-.64,2.37,2.37,0,0,1-.63-1.73,2.62,2.62,0,0,1,.29-1.27,2.27,2.27,0,0,1,.81-.87,4.33,4.33,0,0,1,1.57-.46,9,9,0,0,0,2.06-.49V310a1.78,1.78,0,0,0-.31-1.2,1.64,1.64,0,0,0-1.32-.5,1.87,1.87,0,0,0-1.2.33,2.21,2.21,0,0,0-.59,1.26l-1.13-.19a3.18,3.18,0,0,1,1-2,3.27,3.27,0,0,1,2.11-.61,3,3,0,0,1,1.68.41,1.67,1.67,0,0,1,.77,1,7,7,0,0,1,.16,1.74v1.87a23.12,23.12,0,0,0,.08,2.48,3.94,3.94,0,0,0,.29,1h-1.2A3.63,3.63,0,0,1,761.52,314.62Zm-.09-3.14a7.34,7.34,0,0,1-1.88.54,3.33,3.33,0,0,0-1,.28,1.21,1.21,0,0,0-.45.45,1.48,1.48,0,0,0-.16.68,1.24,1.24,0,0,0,.37.95,1.37,1.37,0,0,0,1,.35,2,2,0,0,0,1.88-1.17,3.78,3.78,0,0,0,.25-1.56Z"/><path class="cls-4" d="M767,314.39l.16,1.24a3.21,3.21,0,0,1-.86.13,1.76,1.76,0,0,1-1-.24,1.24,1.24,0,0,1-.5-.65,6.39,6.39,0,0,1-.14-1.65v-4.77h-.84v-1.1h.84V305.3l1.15-.85v2.9H767v1.1h-1.16v4.85a2.2,2.2,0,0,0,.1.86.57.57,0,0,0,.56.29A2.67,2.67,0,0,0,767,314.39Z"/><path class="cls-4" d="M768,305.81V304.2h1.15v1.61Zm0,9.84v-8.3h1.15v8.3Z"/><path class="cls-4" d="M770.73,316.34l1.12.2a1.43,1.43,0,0,0,.47,1,1.63,1.63,0,0,0,1.09.33,1.87,1.87,0,0,0,1.2-.36,1.92,1.92,0,0,0,.62-1.09,11.09,11.09,0,0,0,.1-1.84,2.6,2.6,0,0,1-.85.81,2,2,0,0,1-1,.27,2.49,2.49,0,0,1-2-1,5.07,5.07,0,0,1-.92-3.18,6.23,6.23,0,0,1,.41-2.34,3.24,3.24,0,0,1,1.06-1.47,2.53,2.53,0,0,1,1.48-.47,2.09,2.09,0,0,1,1.1.3,2.84,2.84,0,0,1,.88.88v-1h1.06v7.17a8.35,8.35,0,0,1-.31,2.73,2.62,2.62,0,0,1-1,1.29,3,3,0,0,1-1.71.48,2.76,2.76,0,0,1-2-.72A2.57,2.57,0,0,1,770.73,316.34Zm.95-5a4.16,4.16,0,0,0,.54,2.39,1.59,1.59,0,0,0,1.32.75,1.61,1.61,0,0,0,1.33-.73,5.21,5.21,0,0,0,0-4.68,1.68,1.68,0,0,0-1.37-.76,1.59,1.59,0,0,0-1.27.76A3.94,3.94,0,0,0,771.68,311.35Z"/><path class="cls-4" d="M782.7,315.65v-1.22a2.93,2.93,0,0,1-.93,1.05,2.16,2.16,0,0,1-1.22.36,2.21,2.21,0,0,1-1.38-.44,2.06,2.06,0,0,1-.76-1.1,6.66,6.66,0,0,1-.19-1.81v-5.14h1.15V312a7.06,7.06,0,0,0,.13,1.72,1.3,1.3,0,0,0,1.27.95,1.63,1.63,0,0,0,1.35-.67,3.64,3.64,0,0,0,.46-2.15v-4.45h1.15v8.3Z"/><path class="cls-4" d="M790.2,313l1.18.18a3.61,3.61,0,0,1-1.07,2,2.84,2.84,0,0,1-1.93.68,2.89,2.89,0,0,1-2.34-1.1,5,5,0,0,1-.89-3.17,5.19,5.19,0,0,1,.9-3.28,2.81,2.81,0,0,1,2.29-1.13,2.71,2.71,0,0,1,2.2,1.11,5.05,5.05,0,0,1,.88,3.21v.38h-5.07A3.57,3.57,0,0,0,787,314a1.78,1.78,0,0,0,1.41.71C789.25,314.68,789.86,314.11,790.2,313Zm-3.79-2.28h3.79a3.11,3.11,0,0,0-.46-1.61A1.68,1.68,0,0,0,787,309,2.76,2.76,0,0,0,786.41,310.7Z"/><path class="cls-4" d="M793.18,315.65v-1.6h1.31v1.6a3.28,3.28,0,0,1-.27,1.46,1.82,1.82,0,0,1-.8.8l-.32-.6a1.16,1.16,0,0,0,.53-.56,2.69,2.69,0,0,0,.2-1.1Z"/><path class="cls-4" d="M802.7,314.39l.16,1.24a3.21,3.21,0,0,1-.86.13,1.76,1.76,0,0,1-1-.24,1.24,1.24,0,0,1-.5-.65,6.39,6.39,0,0,1-.14-1.65v-4.77h-.84v-1.1h.84V305.3l1.15-.85v2.9h1.16v1.1h-1.16v4.85a2.2,2.2,0,0,0,.1.86.57.57,0,0,0,.56.29A2.67,2.67,0,0,0,802.7,314.39Z"/><path class="cls-4" d="M803.35,311.5a5,5,0,0,1,.9-3.24,2.91,2.91,0,0,1,4.56,0,4.79,4.79,0,0,1,.92,3.15,5.17,5.17,0,0,1-.9,3.33,2.92,2.92,0,0,1-4.57,0A5,5,0,0,1,803.35,311.5Zm1.18,0a4,4,0,0,0,.59,2.39,1.74,1.74,0,0,0,1.45.79,1.67,1.67,0,0,0,1.39-.79,4,4,0,0,0,.59-2.39,4,4,0,0,0-.59-2.39,1.74,1.74,0,0,0-1.45-.79,1.69,1.69,0,0,0-1.4.79A4,4,0,0,0,804.53,311.5Z"/><path class="cls-4" d="M817.3,314.39l.15,1.24a3.1,3.1,0,0,1-.86.13,1.76,1.76,0,0,1-1-.24,1.24,1.24,0,0,1-.5-.65,6.39,6.39,0,0,1-.14-1.65v-4.77h-.84v-1.1H815V305.3l1.15-.85v2.9h1.17v1.1h-1.17v4.85a2.42,2.42,0,0,0,.1.86.58.58,0,0,0,.56.29A2.86,2.86,0,0,0,817.3,314.39Z"/><path class="cls-4" d="M818.38,315.65V304.2h1.15v4.1a2.82,2.82,0,0,1,.92-.85,2.29,2.29,0,0,1,1.13-.29,2.17,2.17,0,0,1,1.71.7,3.8,3.8,0,0,1,.63,2.53v5.26h-1.15v-5.26a2.45,2.45,0,0,0-.38-1.55,1.28,1.28,0,0,0-1-.46,1.64,1.64,0,0,0-1.28.6,3.28,3.28,0,0,0-.53,2.13v4.54Z"/><path class="cls-4" d="M830.33,313l1.19.18a3.62,3.62,0,0,1-1.08,2,2.83,2.83,0,0,1-1.92.68,2.86,2.86,0,0,1-2.34-1.1,4.89,4.89,0,0,1-.9-3.17,5.19,5.19,0,0,1,.9-3.28,2.84,2.84,0,0,1,2.29-1.13,2.71,2.71,0,0,1,2.2,1.11,5.05,5.05,0,0,1,.88,3.21v.38h-5.08a3.57,3.57,0,0,0,.65,2.11,1.75,1.75,0,0,0,1.4.71C829.39,314.68,830,314.11,830.33,313Zm-3.79-2.28h3.8a3.32,3.32,0,0,0-.46-1.61,1.69,1.69,0,0,0-2.74-.13A2.88,2.88,0,0,0,826.54,310.7Z"/><path class="cls-4" d="M841.08,312.61l1.13.18a3.79,3.79,0,0,1-1,2.26,2.55,2.55,0,0,1-1.89.79,2.7,2.7,0,0,1-2.2-1.1,5.23,5.23,0,0,1-.86-3.25,5.09,5.09,0,0,1,.87-3.24,2.73,2.73,0,0,1,2.24-1.09,2.55,2.55,0,0,1,1.78.66,3.2,3.2,0,0,1,.92,2L841,310a2.39,2.39,0,0,0-.57-1.25,1.32,1.32,0,0,0-1-.42,1.69,1.69,0,0,0-1.41.75,4.12,4.12,0,0,0-.56,2.4,4.29,4.29,0,0,0,.54,2.45,1.59,1.59,0,0,0,1.37.76,1.5,1.5,0,0,0,1.12-.5A2.74,2.74,0,0,0,841.08,312.61Z"/><path class="cls-4" d="M843.15,315.65V304.2h1.15v11.45Z"/><path class="cls-4" d="M845.66,311.5a5,5,0,0,1,.91-3.24,2.9,2.9,0,0,1,4.55,0,4.79,4.79,0,0,1,.92,3.15,5.17,5.17,0,0,1-.9,3.33,2.92,2.92,0,0,1-4.57,0A5,5,0,0,1,845.66,311.5Zm1.18,0a4,4,0,0,0,.59,2.39,1.74,1.74,0,0,0,1.45.79,1.7,1.7,0,0,0,1.4-.79,4,4,0,0,0,.58-2.39,4,4,0,0,0-.59-2.39,1.74,1.74,0,0,0-1.45-.79,1.69,1.69,0,0,0-1.4.79A4.08,4.08,0,0,0,846.84,311.5Z"/><path class="cls-4" d="M853,313.16l1.15-.21a2,2,0,0,0,.56,1.3,1.93,1.93,0,0,0,2.35.06,1.19,1.19,0,0,0,.41-.94.93.93,0,0,0-.35-.77,4.64,4.64,0,0,0-1.17-.47,8.28,8.28,0,0,1-1.8-.7,2,2,0,0,1-.7-.77,2.36,2.36,0,0,1-.25-1.11,2.31,2.31,0,0,1,.68-1.72,2.58,2.58,0,0,1,1.88-.67,2.93,2.93,0,0,1,1.33.28,2,2,0,0,1,.88.73,3.15,3.15,0,0,1,.42,1.32l-1.12.19a1.35,1.35,0,0,0-1.48-1.36,1.76,1.76,0,0,0-1.12.3,1,1,0,0,0-.36.77.87.87,0,0,0,.35.72,6.55,6.55,0,0,0,1.25.5,9.14,9.14,0,0,1,1.85.72,1.89,1.89,0,0,1,.66.74,2.51,2.51,0,0,1,.23,1.1,2.58,2.58,0,0,1-.75,1.93,2.84,2.84,0,0,1-2.06.74C854.16,315.84,853.21,315,853,313.16Z"/><path class="cls-4" d="M864.61,313l1.19.18a3.62,3.62,0,0,1-1.08,2,2.83,2.83,0,0,1-1.92.68,2.86,2.86,0,0,1-2.34-1.1,4.89,4.89,0,0,1-.9-3.17,5.19,5.19,0,0,1,.9-3.28,2.84,2.84,0,0,1,2.29-1.13,2.71,2.71,0,0,1,2.2,1.11,5.05,5.05,0,0,1,.89,3.21v.38h-5.08a3.57,3.57,0,0,0,.65,2.11,1.75,1.75,0,0,0,1.4.71C863.67,314.68,864.27,314.11,864.61,313Zm-3.79-2.28h3.8a3.21,3.21,0,0,0-.46-1.61,1.69,1.69,0,0,0-1.42-.77,1.72,1.72,0,0,0-1.32.64A2.88,2.88,0,0,0,860.82,310.7Z"/><path class="cls-4" d="M866.81,313.16,868,313a2.06,2.06,0,0,0,.55,1.3,1.68,1.68,0,0,0,1.2.43,1.65,1.65,0,0,0,1.16-.37,1.23,1.23,0,0,0,.41-.94.93.93,0,0,0-.35-.77,4.64,4.64,0,0,0-1.17-.47,8.28,8.28,0,0,1-1.8-.7,1.93,1.93,0,0,1-.7-.77,2.36,2.36,0,0,1-.25-1.11,2.28,2.28,0,0,1,.68-1.72,2.58,2.58,0,0,1,1.88-.67,2.93,2.93,0,0,1,1.33.28,2,2,0,0,1,.88.73,3.3,3.3,0,0,1,.42,1.32l-1.12.19a1.35,1.35,0,0,0-1.48-1.36,1.76,1.76,0,0,0-1.12.3,1,1,0,0,0-.36.77.85.85,0,0,0,.35.72,6.55,6.55,0,0,0,1.25.5,9.14,9.14,0,0,1,1.85.72,1.89,1.89,0,0,1,.66.74,2.51,2.51,0,0,1,.23,1.1,2.58,2.58,0,0,1-.75,1.93,2.84,2.84,0,0,1-2.06.74C868,315.84,867.07,315,866.81,313.16Z"/><path class="cls-4" d="M876.38,314.39l.16,1.24a3.21,3.21,0,0,1-.86.13,1.76,1.76,0,0,1-1-.24,1.24,1.24,0,0,1-.5-.65,6.39,6.39,0,0,1-.14-1.65v-4.77h-.84v-1.1h.84V305.3l1.15-.85v2.9h1.16v1.1h-1.16v4.85a2.2,2.2,0,0,0,.1.86.57.57,0,0,0,.56.29A2.86,2.86,0,0,0,876.38,314.39Z"/><path class="cls-4" d="M738.41,330.16l1.14-.21a2.07,2.07,0,0,0,.56,1.3,1.94,1.94,0,0,0,2.36.06,1.23,1.23,0,0,0,.41-.94.91.91,0,0,0-.36-.77,4.64,4.64,0,0,0-1.17-.47,8.74,8.74,0,0,1-1.8-.7,2,2,0,0,1-.7-.77,2.36,2.36,0,0,1-.25-1.11,2.31,2.31,0,0,1,.68-1.72,2.58,2.58,0,0,1,1.88-.67,3,3,0,0,1,1.34.28,2.13,2.13,0,0,1,.88.73,3.3,3.3,0,0,1,.42,1.32l-1.13.19a1.34,1.34,0,0,0-1.47-1.36,1.74,1.74,0,0,0-1.12.3.94.94,0,0,0-.37.77.87.87,0,0,0,.35.72,6.46,6.46,0,0,0,1.26.5,9.4,9.4,0,0,1,1.85.72,1.8,1.8,0,0,1,.65.74,2.38,2.38,0,0,1,.23,1.1,2.58,2.58,0,0,1-.75,1.93,2.82,2.82,0,0,1-2.06.74C739.61,332.84,738.67,332,738.41,330.16Z"/><path class="cls-4" d="M748,331.39l.15,1.24a3.1,3.1,0,0,1-.86.13,1.76,1.76,0,0,1-1-.24,1.24,1.24,0,0,1-.5-.65,6.39,6.39,0,0,1-.14-1.65v-4.77h-.84v-1.1h.84V322.3l1.15-.85v2.9H748v1.1h-1.17v4.85a2.42,2.42,0,0,0,.1.86.58.58,0,0,0,.56.29A2.86,2.86,0,0,0,748,331.39Z"/><path class="cls-4" d="M748.62,328.5a5,5,0,0,1,.91-3.24,2.91,2.91,0,0,1,4.56,0,4.79,4.79,0,0,1,.91,3.15,5.17,5.17,0,0,1-.9,3.33,2.91,2.91,0,0,1-4.56,0A5,5,0,0,1,748.62,328.5Zm1.18,0a4,4,0,0,0,.59,2.39,1.75,1.75,0,0,0,1.45.79,1.69,1.69,0,0,0,1.4-.79,4,4,0,0,0,.58-2.39,4,4,0,0,0-.59-2.39,1.74,1.74,0,0,0-1.45-.79,1.69,1.69,0,0,0-1.4.79A4.08,4.08,0,0,0,749.8,328.5Z"/><path class="cls-4" d="M756.36,335.83V324.35h1.06v1.08a2.7,2.7,0,0,1,.87-1,2,2,0,0,1,1.09-.3,2.36,2.36,0,0,1,1.45.48,3.26,3.26,0,0,1,1,1.45,6.29,6.29,0,0,1,.4,2.34,5.23,5.23,0,0,1-.89,3.26,2.61,2.61,0,0,1-2.08,1.15,1.87,1.87,0,0,1-1-.28,2.51,2.51,0,0,1-.79-.77v4Zm1-7.28a4.15,4.15,0,0,0,.54,2.37,1.46,1.46,0,0,0,2.58,0,5.6,5.6,0,0,0,0-4.84,1.42,1.42,0,0,0-2.57.06A4.33,4.33,0,0,0,757.41,328.55Z"/><path class="cls-4" d="M769.87,331.39l.15,1.24a3.1,3.1,0,0,1-.86.13,1.71,1.71,0,0,1-1-.24,1.21,1.21,0,0,1-.51-.65,6.39,6.39,0,0,1-.14-1.65v-4.77h-.84v-1.1h.84V322.3l1.15-.85v2.9h1.17v1.1H768.7v4.85a2.42,2.42,0,0,0,.1.86.58.58,0,0,0,.56.29A2.86,2.86,0,0,0,769.87,331.39Z"/><path class="cls-4" d="M770.52,328.5a5,5,0,0,1,.9-3.24,2.91,2.91,0,0,1,4.56,0,4.79,4.79,0,0,1,.91,3.15,5.17,5.17,0,0,1-.9,3.33,2.91,2.91,0,0,1-4.56,0A5,5,0,0,1,770.52,328.5Zm1.18,0a4,4,0,0,0,.58,2.39,1.75,1.75,0,0,0,1.45.79,1.69,1.69,0,0,0,1.4-.79,4,4,0,0,0,.58-2.39,3.92,3.92,0,0,0-.59-2.39,1.74,1.74,0,0,0-1.45-.79,1.69,1.69,0,0,0-1.4.79A4.09,4.09,0,0,0,771.7,328.5Z"/><path class="cls-4" d="M786.3,332.65v-1a2.26,2.26,0,0,1-.8.92,1.94,1.94,0,0,1-1.06.32,2.57,2.57,0,0,1-2.08-1.14,5.1,5.1,0,0,1-.88-3.2,6.56,6.56,0,0,1,.39-2.4,3.22,3.22,0,0,1,1-1.46,2.35,2.35,0,0,1,1.44-.48,2,2,0,0,1,1.06.3,2.51,2.51,0,0,1,.81.84v-4.1h1.16v11.45Zm-3.64-4.14a4.16,4.16,0,0,0,.55,2.39,1.61,1.61,0,0,0,1.31.78,1.55,1.55,0,0,0,1.27-.75,3.9,3.9,0,0,0,.54-2.27,4.66,4.66,0,0,0-.54-2.54,1.6,1.6,0,0,0-1.36-.8,1.52,1.52,0,0,0-1.25.77A4.37,4.37,0,0,0,782.66,328.51Z"/><path class="cls-4" d="M793.84,330l1.19.18a3.61,3.61,0,0,1-1.07,2,2.84,2.84,0,0,1-1.93.68,2.89,2.89,0,0,1-2.34-1.1,4.89,4.89,0,0,1-.89-3.17,5.19,5.19,0,0,1,.9-3.28,2.8,2.8,0,0,1,2.28-1.13,2.72,2.72,0,0,1,2.21,1.11,5.05,5.05,0,0,1,.88,3.21v.38H790a3.64,3.64,0,0,0,.65,2.11,1.78,1.78,0,0,0,1.41.71C792.9,331.68,793.5,331.11,793.84,330Zm-3.79-2.28h3.8a3.11,3.11,0,0,0-.46-1.61,1.68,1.68,0,0,0-2.73-.13A2.82,2.82,0,0,0,790.05,327.7Z"/><path class="cls-4" d="M796.05,330.16l1.15-.21a2,2,0,0,0,.55,1.3,1.94,1.94,0,0,0,2.36.06,1.23,1.23,0,0,0,.41-.94.91.91,0,0,0-.36-.77,4.64,4.64,0,0,0-1.17-.47,8.35,8.35,0,0,1-1.79-.7,2,2,0,0,1-.71-.77,2.48,2.48,0,0,1-.25-1.11,2.31,2.31,0,0,1,.68-1.72,2.6,2.6,0,0,1,1.88-.67,3,3,0,0,1,1.34.28,2.13,2.13,0,0,1,.88.73,3.3,3.3,0,0,1,.42,1.32l-1.13.19a1.34,1.34,0,0,0-1.47-1.36,1.74,1.74,0,0,0-1.12.3.94.94,0,0,0-.37.77.87.87,0,0,0,.35.72,6.46,6.46,0,0,0,1.26.5,9.4,9.4,0,0,1,1.85.72,1.8,1.8,0,0,1,.65.74,2.38,2.38,0,0,1,.24,1.1,2.58,2.58,0,0,1-.76,1.93,2.82,2.82,0,0,1-2.06.74C797.25,332.84,796.31,332,796.05,330.16Z"/><path class="cls-4" d="M805.62,331.39l.15,1.24a3.1,3.1,0,0,1-.86.13,1.71,1.71,0,0,1-1-.24,1.21,1.21,0,0,1-.51-.65,6.39,6.39,0,0,1-.14-1.65v-4.77h-.84v-1.1h.84V322.3l1.15-.85v2.9h1.17v1.1h-1.17v4.85a2.42,2.42,0,0,0,.1.86.58.58,0,0,0,.56.29A2.86,2.86,0,0,0,805.62,331.39Z"/><path class="cls-4" d="M806.7,322.81V321.2h1.15v1.61Zm0,9.84v-8.3h1.15v8.3Z"/><path class="cls-4" d="M809.62,332.65v-8.3h1v1.17a2.76,2.76,0,0,1,.91-1,2.36,2.36,0,0,1,1.25-.34,2.44,2.44,0,0,1,1,.22,2.05,2.05,0,0,1,.75.56,2.35,2.35,0,0,1,.42.9,7.81,7.81,0,0,1,.14,1.71v5.1H814v-5a4.34,4.34,0,0,0-.15-1.34,1.36,1.36,0,0,0-.49-.65,1.27,1.27,0,0,0-.77-.23,1.6,1.6,0,0,0-1.32.61,3.46,3.46,0,0,0-.49,2.12v4.54Z"/><path class="cls-4" d="M821.34,331.62a4,4,0,0,1-1.2.91,3,3,0,0,1-1.3.31,2.3,2.3,0,0,1-1.69-.64,2.37,2.37,0,0,1-.63-1.73,2.62,2.62,0,0,1,.29-1.27,2.27,2.27,0,0,1,.81-.87,4.33,4.33,0,0,1,1.57-.46,9,9,0,0,0,2.06-.49V327a1.78,1.78,0,0,0-.31-1.2,1.64,1.64,0,0,0-1.32-.5,1.87,1.87,0,0,0-1.2.33,2.21,2.21,0,0,0-.59,1.26l-1.13-.19a3.18,3.18,0,0,1,1-2,3.27,3.27,0,0,1,2.11-.61,3,3,0,0,1,1.68.41,1.67,1.67,0,0,1,.77,1,7,7,0,0,1,.16,1.74v1.87a23.12,23.12,0,0,0,.08,2.48,3.94,3.94,0,0,0,.29,1h-1.2A3.63,3.63,0,0,1,821.34,331.62Zm-.09-3.14a7.34,7.34,0,0,1-1.88.54,3.33,3.33,0,0,0-1,.28,1.21,1.21,0,0,0-.45.45,1.48,1.48,0,0,0-.16.68,1.24,1.24,0,0,0,.37.95,1.37,1.37,0,0,0,1,.35,2,2,0,0,0,1.88-1.17,3.78,3.78,0,0,0,.25-1.56Z"/><path class="cls-4" d="M826.77,331.39l.16,1.24a3.15,3.15,0,0,1-.86.13,1.76,1.76,0,0,1-1-.24,1.24,1.24,0,0,1-.5-.65,6.39,6.39,0,0,1-.14-1.65v-4.77h-.84v-1.1h.84V322.3l1.15-.85v2.9h1.16v1.1h-1.16v4.85a2.2,2.2,0,0,0,.1.86.58.58,0,0,0,.56.29A2.67,2.67,0,0,0,826.77,331.39Z"/><path class="cls-4" d="M827.86,322.81V321.2H829v1.61Zm0,9.84v-8.3H829v8.3Z"/><path class="cls-4" d="M830.34,328.5a5,5,0,0,1,.9-3.24,2.91,2.91,0,0,1,4.56,0,4.79,4.79,0,0,1,.91,3.15,5.17,5.17,0,0,1-.9,3.33,2.91,2.91,0,0,1-4.56,0A5,5,0,0,1,830.34,328.5Zm1.18,0a4,4,0,0,0,.58,2.39,1.75,1.75,0,0,0,1.45.79,1.69,1.69,0,0,0,1.4-.79,4,4,0,0,0,.58-2.39,4,4,0,0,0-.58-2.39,1.77,1.77,0,0,0-1.46-.79,1.7,1.7,0,0,0-1.4.79A4.09,4.09,0,0,0,831.52,328.5Z"/><path class="cls-4" d="M838.07,332.65v-8.3h1v1.17a2.7,2.7,0,0,1,.92-1,2.33,2.33,0,0,1,1.24-.34,2.44,2.44,0,0,1,1,.22,2.05,2.05,0,0,1,.75.56,2.21,2.21,0,0,1,.42.9,7.23,7.23,0,0,1,.14,1.71v5.1h-1.14v-5a4.28,4.28,0,0,0-.16-1.34,1.36,1.36,0,0,0-.49-.65,1.27,1.27,0,0,0-.77-.23,1.6,1.6,0,0,0-1.32.61,3.46,3.46,0,0,0-.49,2.12v4.54Z"/><path class="cls-4" d="M845.73,332.65v-1.6H847v1.6Z"/><path class="cls-4" d="M738.94,29.65V18.2h1.24V28.3h4.62v1.35Z"/><path class="cls-4" d="M745.71,25.5a5,5,0,0,1,.9-3.24,2.91,2.91,0,0,1,4.56,0,4.79,4.79,0,0,1,.92,3.15,5.17,5.17,0,0,1-.9,3.33,2.92,2.92,0,0,1-4.57,0A5,5,0,0,1,745.71,25.5Zm1.18,0a4,4,0,0,0,.59,2.39,1.74,1.74,0,0,0,1.45.79,1.67,1.67,0,0,0,1.39-.79,4,4,0,0,0,.59-2.39,4,4,0,0,0-.59-2.39,1.74,1.74,0,0,0-1.45-.79,1.68,1.68,0,0,0-1.4.79A4,4,0,0,0,746.89,25.5Z"/><path class="cls-4" d="M753,25.5a5,5,0,0,1,.9-3.24,2.91,2.91,0,0,1,4.56,0,4.79,4.79,0,0,1,.91,3.15,5.17,5.17,0,0,1-.9,3.33,2.91,2.91,0,0,1-4.56,0A5,5,0,0,1,753,25.5Zm1.18,0a4,4,0,0,0,.58,2.39,1.75,1.75,0,0,0,1.46.79,1.69,1.69,0,0,0,1.39-.79,4,4,0,0,0,.58-2.39,4,4,0,0,0-.58-2.39,1.75,1.75,0,0,0-1.46-.79,1.67,1.67,0,0,0-1.39.79A4,4,0,0,0,754.19,25.5Z"/><path class="cls-4" d="M760.77,29.65V18.2h1.14v6.54l2.74-3.39h1.49l-2.6,3.08,2.86,5.22H765l-2.26-4.25-.82,1v3.29Z"/><path class="cls-4" d="M767.3,19.81V18.2h1.15v1.61Zm0,9.84v-8.3h1.15v8.3Z"/><path class="cls-4" d="M770.22,29.65v-8.3h1v1.17a2.76,2.76,0,0,1,.91-1,2.39,2.39,0,0,1,1.25-.34,2.44,2.44,0,0,1,1,.22,2.05,2.05,0,0,1,.75.56,2.21,2.21,0,0,1,.42.9,7.23,7.23,0,0,1,.14,1.71v5.1h-1.15v-5a4.34,4.34,0,0,0-.15-1.34,1.36,1.36,0,0,0-.49-.65,1.27,1.27,0,0,0-.77-.23,1.6,1.6,0,0,0-1.32.61,3.46,3.46,0,0,0-.49,2.12v4.54Z"/><path class="cls-4" d="M777.29,30.34l1.12.2a1.48,1.48,0,0,0,.47,1,1.63,1.63,0,0,0,1.09.33,1.9,1.9,0,0,0,1.21-.36,1.91,1.91,0,0,0,.61-1.09,10,10,0,0,0,.1-1.84,2.68,2.68,0,0,1-.84.81,2.07,2.07,0,0,1-1,.27,2.51,2.51,0,0,1-2-1,5.07,5.07,0,0,1-.92-3.18,6.23,6.23,0,0,1,.41-2.34,3.18,3.18,0,0,1,1.07-1.47,2.51,2.51,0,0,1,1.48-.47,2.05,2.05,0,0,1,1.09.3,2.73,2.73,0,0,1,.88.88v-1h1.06v7.17a8.35,8.35,0,0,1-.31,2.73,2.62,2.62,0,0,1-1,1.29A3,3,0,0,1,780,33a2.72,2.72,0,0,1-2-.72A2.54,2.54,0,0,1,777.29,30.34Zm1-5a4.16,4.16,0,0,0,.54,2.39,1.59,1.59,0,0,0,1.33.75,1.62,1.62,0,0,0,1.33-.73,4,4,0,0,0,.54-2.35,3.91,3.91,0,0,0-.56-2.33,1.68,1.68,0,0,0-1.37-.76,1.56,1.56,0,0,0-1.26.76A3.86,3.86,0,0,0,778.24,25.35Z"/><path class="cls-4" d="M788.78,29.65v-7.2h-1v-1.1h1v-.88A4.2,4.2,0,0,1,789,19a1.58,1.58,0,0,1,.63-.74,2,2,0,0,1,1-.26,4.37,4.37,0,0,1,1.08.15l-.17,1.22a3.39,3.39,0,0,0-.68-.08.92.92,0,0,0-.74.27,1.69,1.69,0,0,0-.22,1v.76h1.33v1.1h-1.33v7.2Z"/><path class="cls-4" d="M791.67,25.5a5,5,0,0,1,.9-3.24,2.91,2.91,0,0,1,4.56,0,4.79,4.79,0,0,1,.92,3.15,5.17,5.17,0,0,1-.9,3.33,2.92,2.92,0,0,1-4.57,0A5,5,0,0,1,791.67,25.5Zm1.18,0a4,4,0,0,0,.59,2.39,1.74,1.74,0,0,0,1.45.79,1.7,1.7,0,0,0,1.4-.79,4.11,4.11,0,0,0,.58-2.39,4,4,0,0,0-.59-2.39,1.74,1.74,0,0,0-1.45-.79,1.69,1.69,0,0,0-1.4.79A4,4,0,0,0,792.85,25.5Z"/><path class="cls-4" d="M799.41,29.65v-8.3h1v1.26a3.35,3.35,0,0,1,.73-1.16,1.12,1.12,0,0,1,.74-.29,2,2,0,0,1,1.18.46l-.39,1.3a1.46,1.46,0,0,0-.83-.3,1,1,0,0,0-.68.26,1.45,1.45,0,0,0-.43.71,6.79,6.79,0,0,0-.22,1.71v4.35Z"/><path class="cls-4" d="M810,28.39l.16,1.24a3.15,3.15,0,0,1-.86.13,1.76,1.76,0,0,1-1-.24,1.24,1.24,0,0,1-.5-.65,6.39,6.39,0,0,1-.14-1.65V22.45h-.84v-1.1h.84V19.3l1.15-.85v2.9H810v1.1h-1.16V27.3a2.2,2.2,0,0,0,.1.86.58.58,0,0,0,.56.29A2.67,2.67,0,0,0,810,28.39Z"/><path class="cls-4" d="M811.07,29.65V18.2h1.15v4.1a2.82,2.82,0,0,1,.92-.85,2.26,2.26,0,0,1,1.13-.29,2.17,2.17,0,0,1,1.71.7,3.8,3.8,0,0,1,.63,2.53v5.26h-1.15V24.39a2.52,2.52,0,0,0-.38-1.55,1.3,1.3,0,0,0-1.06-.46,1.62,1.62,0,0,0-1.27.6,3.22,3.22,0,0,0-.53,2.13v4.54Z"/><path class="cls-4" d="M823,27l1.18.18a3.61,3.61,0,0,1-1.07,2,2.84,2.84,0,0,1-1.93.68,2.89,2.89,0,0,1-2.34-1.1,5,5,0,0,1-.89-3.17,5.19,5.19,0,0,1,.9-3.28,2.81,2.81,0,0,1,2.29-1.13,2.71,2.71,0,0,1,2.2,1.11,5.05,5.05,0,0,1,.88,3.21v.38h-5.07A3.57,3.57,0,0,0,819.8,28a1.78,1.78,0,0,0,1.41.71C822.08,28.68,822.68,28.11,823,27Zm-3.79-2.28H823a3.11,3.11,0,0,0-.46-1.61,1.68,1.68,0,0,0-2.73-.13A2.76,2.76,0,0,0,819.23,24.7Z"/><path class="cls-4" d="M829.31,29.65v-8.3h1v1.26a3.67,3.67,0,0,1,.73-1.16,1.12,1.12,0,0,1,.75-.29,2,2,0,0,1,1.18.46l-.39,1.3a1.49,1.49,0,0,0-.84-.3,1,1,0,0,0-.67.26,1.38,1.38,0,0,0-.43.71,6.36,6.36,0,0,0-.22,1.71v4.35Z"/><path class="cls-4" d="M833.68,19.81V18.2h1.15v1.61Zm0,9.84v-8.3h1.15v8.3Z"/><path class="cls-4" d="M836.37,30.34l1.12.2a1.43,1.43,0,0,0,.47,1,1.63,1.63,0,0,0,1.09.33,1.87,1.87,0,0,0,1.2-.36,1.92,1.92,0,0,0,.62-1.09,11.09,11.09,0,0,0,.1-1.84,2.6,2.6,0,0,1-.85.81,2,2,0,0,1-1,.27,2.49,2.49,0,0,1-2-1,5.07,5.07,0,0,1-.92-3.18,6.23,6.23,0,0,1,.41-2.34,3.24,3.24,0,0,1,1.06-1.47,2.53,2.53,0,0,1,1.48-.47,2.06,2.06,0,0,1,1.1.3,2.73,2.73,0,0,1,.88.88v-1h1.06v7.17a8.35,8.35,0,0,1-.31,2.73,2.62,2.62,0,0,1-1,1.29,3,3,0,0,1-1.71.48,2.76,2.76,0,0,1-2-.72A2.57,2.57,0,0,1,836.37,30.34Zm1-5a4.16,4.16,0,0,0,.54,2.39,1.56,1.56,0,0,0,2.65,0,4,4,0,0,0,.55-2.35,3.91,3.91,0,0,0-.56-2.33,1.68,1.68,0,0,0-1.37-.76,1.59,1.59,0,0,0-1.27.76A3.94,3.94,0,0,0,837.32,25.35Z"/><path class="cls-4" d="M843.89,29.65V18.2H845v4.1a2.82,2.82,0,0,1,.92-.85,2.26,2.26,0,0,1,1.13-.29,2.17,2.17,0,0,1,1.71.7,3.8,3.8,0,0,1,.63,2.53v5.26h-1.15V24.39a2.52,2.52,0,0,0-.38-1.55,1.3,1.3,0,0,0-1.06-.46,1.62,1.62,0,0,0-1.27.6,3.22,3.22,0,0,0-.53,2.13v4.54Z"/><path class="cls-4" d="M853.75,28.39l.16,1.24a3.21,3.21,0,0,1-.86.13,1.74,1.74,0,0,1-1-.24,1.26,1.26,0,0,1-.51-.65,6.54,6.54,0,0,1-.13-1.65V22.45h-.85v-1.1h.85V19.3l1.15-.85v2.9h1.16v1.1h-1.16V27.3a2.2,2.2,0,0,0,.1.86.56.56,0,0,0,.55.29A2.86,2.86,0,0,0,853.75,28.39Z"/><path class="cls-4" d="M738.41,42.5a5,5,0,0,1,.91-3.24,2.91,2.91,0,0,1,4.56,0,4.85,4.85,0,0,1,.91,3.15,5.17,5.17,0,0,1-.9,3.33,2.92,2.92,0,0,1-4.57,0A5,5,0,0,1,738.41,42.5Zm1.18,0a4,4,0,0,0,.59,2.39,1.74,1.74,0,0,0,1.45.79,1.7,1.7,0,0,0,1.4-.79,4,4,0,0,0,.58-2.39,4,4,0,0,0-.59-2.39,1.74,1.74,0,0,0-1.45-.79,1.69,1.69,0,0,0-1.4.79A4.08,4.08,0,0,0,739.59,42.5Z"/><path class="cls-4" d="M746.15,46.65v-8.3h1v1.17a2.76,2.76,0,0,1,.91-1,2.36,2.36,0,0,1,1.25-.34,2.44,2.44,0,0,1,1,.22,2.05,2.05,0,0,1,.75.56,2.21,2.21,0,0,1,.42.9,7.81,7.81,0,0,1,.14,1.71v5.1h-1.15v-5a4.34,4.34,0,0,0-.15-1.34,1.36,1.36,0,0,0-.49-.65,1.27,1.27,0,0,0-.77-.23,1.6,1.6,0,0,0-1.32.61,3.46,3.46,0,0,0-.49,2.12v4.54Z"/><path class="cls-4" d="M758.09,44l1.19.18a3.61,3.61,0,0,1-1.07,2,2.84,2.84,0,0,1-1.93.68,2.89,2.89,0,0,1-2.34-1.1,4.89,4.89,0,0,1-.89-3.17,5.19,5.19,0,0,1,.9-3.28,2.8,2.8,0,0,1,2.28-1.13,2.72,2.72,0,0,1,2.21,1.11,5.05,5.05,0,0,1,.88,3.21v.38h-5.08a3.64,3.64,0,0,0,.65,2.11,1.78,1.78,0,0,0,1.41.71C757.15,45.68,757.75,45.11,758.09,44ZM754.3,41.7h3.8a3.11,3.11,0,0,0-.46-1.61,1.68,1.68,0,0,0-2.73-.13A2.82,2.82,0,0,0,754.3,41.7Z"/><path class="cls-4" d="M761.1,46.65v-1.6h1.31v1.6Z"/><path class="cls-4" d="M738.64,528.64v-1.3l6.22-3.22v1.39L739.93,528l4.93,2.49v1.4Z"/><path class="cls-4" d="M745.59,533.84,748.32,522h.93l-2.73,11.84Z"/><path class="cls-4" d="M750.1,533.65V522.2h1.15v4.1a2.82,2.82,0,0,1,.92-.85,2.29,2.29,0,0,1,1.13-.29,2.17,2.17,0,0,1,1.71.7,3.8,3.8,0,0,1,.63,2.53v5.26h-1.15v-5.26a2.52,2.52,0,0,0-.38-1.55,1.3,1.3,0,0,0-1.06-.46,1.62,1.62,0,0,0-1.27.6,3.28,3.28,0,0,0-.53,2.13v4.54Z"/><path class="cls-4" d="M762.05,531l1.18.18a3.55,3.55,0,0,1-1.07,2,2.84,2.84,0,0,1-1.93.68,2.89,2.89,0,0,1-2.34-1.1,5,5,0,0,1-.89-3.17,5.19,5.19,0,0,1,.9-3.28,2.82,2.82,0,0,1,2.29-1.13,2.71,2.71,0,0,1,2.2,1.11,5.05,5.05,0,0,1,.88,3.21v.38h-5.08a3.5,3.5,0,0,0,.65,2.11,1.75,1.75,0,0,0,1.4.71C761.11,532.68,761.71,532.11,762.05,531Zm-3.79-2.28h3.79a3.11,3.11,0,0,0-.46-1.61,1.68,1.68,0,0,0-2.73-.13A2.82,2.82,0,0,0,758.26,528.7Z"/><path class="cls-4" d="M769.12,532.62a4,4,0,0,1-1.2.91,3,3,0,0,1-1.3.31,2.3,2.3,0,0,1-1.69-.64,2.37,2.37,0,0,1-.63-1.73,2.73,2.73,0,0,1,.29-1.27,2.22,2.22,0,0,1,.82-.87,4.2,4.2,0,0,1,1.56-.46,8.87,8.87,0,0,0,2.06-.49V528a1.78,1.78,0,0,0-.31-1.2,1.64,1.64,0,0,0-1.32-.5,1.87,1.87,0,0,0-1.2.33,2.28,2.28,0,0,0-.59,1.26l-1.13-.19a3.18,3.18,0,0,1,1-2,3.29,3.29,0,0,1,2.12-.61,3,3,0,0,1,1.68.41,1.75,1.75,0,0,1,.77,1,7.53,7.53,0,0,1,.16,1.74v1.87a24.27,24.27,0,0,0,.07,2.48,3.94,3.94,0,0,0,.29,1h-1.2A3.63,3.63,0,0,1,769.12,532.62Zm-.09-3.14a7.34,7.34,0,0,1-1.88.54,3.42,3.42,0,0,0-1,.28,1.21,1.21,0,0,0-.45.45,1.48,1.48,0,0,0-.16.68,1.28,1.28,0,0,0,.37,1,1.39,1.39,0,0,0,1,.35,2,2,0,0,0,1.87-1.17A3.78,3.78,0,0,0,769,530Z"/><path class="cls-4" d="M776.4,533.65v-1a2.36,2.36,0,0,1-.81.92,1.91,1.91,0,0,1-1.06.32,2.58,2.58,0,0,1-2.08-1.14,5.1,5.1,0,0,1-.88-3.2,6.56,6.56,0,0,1,.39-2.4,3.29,3.29,0,0,1,1-1.46,2.4,2.4,0,0,1,1.45-.48,1.94,1.94,0,0,1,1,.3,2.51,2.51,0,0,1,.81.84v-4.1h1.17v11.45Zm-3.65-4.14a4.15,4.15,0,0,0,.56,2.39,1.6,1.6,0,0,0,1.3.78,1.53,1.53,0,0,0,1.27-.75,3.9,3.9,0,0,0,.54-2.27,4.66,4.66,0,0,0-.54-2.54,1.59,1.59,0,0,0-1.36-.8,1.52,1.52,0,0,0-1.25.77A4.37,4.37,0,0,0,772.75,529.51Z"/><path class="cls-4" d="M783.94,531l1.18.18a3.55,3.55,0,0,1-1.07,2,3,3,0,0,1-4.26-.42,4.89,4.89,0,0,1-.9-3.17,5.19,5.19,0,0,1,.9-3.28,2.82,2.82,0,0,1,2.29-1.13,2.71,2.71,0,0,1,2.2,1.11,5.05,5.05,0,0,1,.88,3.21v.38h-5.08a3.5,3.5,0,0,0,.65,2.11,1.75,1.75,0,0,0,1.4.71C783,532.68,783.6,532.11,783.94,531Zm-3.79-2.28H784a3.2,3.2,0,0,0-.47-1.61,1.68,1.68,0,0,0-2.73-.13A2.82,2.82,0,0,0,780.15,528.7Z"/><path class="cls-4" d="M786.59,533.65v-8.3h1v1.26a3.49,3.49,0,0,1,.74-1.16,1.12,1.12,0,0,1,.74-.29,2,2,0,0,1,1.18.46l-.39,1.3a1.46,1.46,0,0,0-.84-.3,1,1,0,0,0-.67.26,1.45,1.45,0,0,0-.43.71,6.79,6.79,0,0,0-.22,1.71v4.35Z"/><path class="cls-4" d="M797,528.64l-6.22,3.24v-1.4l4.93-2.49-4.93-2.48v-1.39l6.22,3.22Z"/><path class="cls-4" d="M558.52,278.62l1.15-.19c.24,1.5.85,2.26,1.83,2.26a1.8,1.8,0,0,0,1.37-.67,2.6,2.6,0,0,0,.58-1.73,2.37,2.37,0,0,0-.54-1.62,1.68,1.68,0,0,0-1.3-.61,2.55,2.55,0,0,0-.81.16l.13-1.24.18,0a1.81,1.81,0,0,0,1.92-1.92,1.84,1.84,0,0,0-.45-1.29,1.42,1.42,0,0,0-1.08-.49,1.47,1.47,0,0,0-1.13.52,2.77,2.77,0,0,0-.58,1.55l-1.15-.25a3.82,3.82,0,0,1,1-2.22,2.66,2.66,0,0,1,3.79.09,2.94,2.94,0,0,1,.8,2.13,2.72,2.72,0,0,1-.34,1.38,2.43,2.43,0,0,1-.94.94,2.23,2.23,0,0,1,.93.52,2.66,2.66,0,0,1,.59,1,3.81,3.81,0,0,1,.22,1.34,3.65,3.65,0,0,1-.93,2.58,2.92,2.92,0,0,1-2.22,1,2.7,2.7,0,0,1-2-.87A3.71,3.71,0,0,1,558.52,278.62Z"/><path class="cls-4" d="M565.9,271.7v-1.36H572v1.1a17,17,0,0,0-2.39,4.6,19.56,19.56,0,0,0-1.19,5.61h-1.18a16.86,16.86,0,0,1,.46-3.35,19.74,19.74,0,0,1,1.19-3.65,15.81,15.81,0,0,1,1.62-2.95Z"/><g class="cls-2"><path class="cls-3" d="M66.6,73.8Q61.67,82.43,56,90.54c12.24-7.25,22.63-18.67,36.37-23.27-2.45,16.83-9.51,32.72-13,49.39,4.11.82,6.66-4.53,9.21-7.14-5.12,9.19-12.21,24.34-8,35,.3-2.42.68-5.87,2.63-6.88.37,8.69-5.4,16.52-9.45,23.57A99.72,99.72,0,0,0,59,192.37q-7.71,8.81-2.44,15.11c16-23.3,28.4-48.06,40.34-73.67,1.14,10.74-2.44,26.64-4.41,35.61-8.56,39-26,76.43-41.16,113.16,5.16-3.68,14.22-17.06,17.65-21.26,4.71-5.79,9.09-12.31,14.1-17.89,1.49,5-16.19,48.53-14.82,45.1-4.42,11.1-10.64,22.18-12.81,34.06-.53,2.9-1,21-.82,19.56.42-2.69-6.42,24.46-4.82,25.86,6.74-7.18,10.87-19.58,20.21-23.7-.07,18.36-1.3,37.4-5.14,55.87A22.78,22.78,0,0,1,67,396.25a160.48,160.48,0,0,1-4.34,22.21c-1.48,7-10.63,34.44-5.17,42.35,5-3.11,13.47-11,19.78-8.56-4.06,14.83-11,30.19-12.52,45.49,5.42-4,10.1-8.95,15.28-13.26q3,7.49-2.53,15a55.63,55.63,0,0,0-3.76,22.85c6.54.65,11.69-4.75,17.46-7.25,1.4,1.93.6,4.11-1.11,6a186.92,186.92,0,0,1,29.3-14q1.32,4-3,6.36c8.9,6.66-19.32,41.58-24.18,50.07a51.53,51.53,0,0,0,20-8.4q4.27,11.37-9.24,19.7a222,222,0,0,0-15.24,25.38A58.74,58.74,0,0,0,95,597.5c4.34,6.76-3.34,17.49-6.1,23.69,4.35,7.36,14.22-4.93,20,0-5.52,5-14.14,10.85-17.11,17.84"/><path class="cls-3" d="M75.6,675l34.2-127.8L92.7,464.4V403.2c0-10.8,44.1-50.13,56.7-50.13S241.2,293.4,246.6,288,351,171,351,171s14.4-23.4,27-27,72-27,72-27l43.2,36"/><path class="cls-3" d="M36,718.2c-.29,6.88,17.84,4.1,22.15,3.69,1.64-.15,2.08-1.72,4.3-2,6.58-.77,13.71.09,20.35.09"/><path class="cls-3" d="M64.8,712.8c11-3.23,24.85,0,34.2-7.2"/><path class="cls-3" d="M1000.8,531a204.73,204.73,0,0,1-42.37,20.46l-42.76,15.37a50.62,50.62,0,0,0-27.58,10.53c8,1.9,16.15,3.5,24.18,5.5q-16,14-40.63,8.43c-52.24,7.46-107,8-158.13,22.28-3.88,1.09-11.61,5-16.13,3.63,7.94-10,20.27-18.18,28.68-28.75a19.5,19.5,0,0,0-8.89.17c-13,.82-26.32-.26-39.35-.87A43,43,0,0,1,697.57,580a199.27,199.27,0,0,0,36.21-16.28c-19.4-2.83-43.36-.49-62.44,2.8-12.55,2.17-29.34,5.26-39.87,13.85A2.78,2.78,0,0,1,633,583c-6,5.53-15.21,9.71-22.37,13.64-11.87,6.53-25.59,12.3-38,17.45,7.8-.25,15.69-2.07,23.45-1.82.14,3.34,1.41,5.08,3.13,8.32,14,26.53,37.88,37.36,63.94,50.55-7.2.72-14.55-.39-21.42,2.15,2.68-.19,15.08-.49,15.22,2.26-8.67,1.12-18.52,3.5-27.1,3.81a32.08,32.08,0,0,0,3.8-2.52"/><path class="cls-3" d="M977.4,273.6c3.19-11.1,4.39-20.56,3.44-32-1.22-14.61-.15-27.48.9-42.09,1.21-17-4.45-29.05-9.15-44.69a64,64,0,0,1-2.05-26.08c1.24-10.35,8.88-19.27,8.66-29.76"/><path class="cls-3" d="M984.6,50.4c8.24,9.75,6.38,23.75,6,35.69,0-.39.68,17.92-.79,20.4-1.84,3.11-5.37,3.53-7.26,7.34-5.74,11.52-1.72,24-1.57,35.57"/><path class="cls-3" d="M968.4,171c-.16,16.63,3.86,32.52,8.55,48.41,3.68,12.52,11.36,25.67,6.74,38.59C978.36,272.88,971,286.68,966,301.6c-4.79,14.26-3.38,27.27.22,41.71,3.22,12.94,1.77,20-1.17,32.64-2.57,11,.05,18.71,3.38,29.05"/></g></g></svg>