<svg id="Layer_1" data-name="Layer 1" xmlns="http://www.w3.org/2000/svg" xmlns:xlink="http://www.w3.org/1999/xlink" viewBox="0 0 1080 756"><defs><style>.cls-1,.cls-3{fill:none;}.cls-2{clip-path:url(#clip-path);}.cls-3{stroke:#231f20;stroke-width:0.25px;}.cls-4{fill:#231f20;}</style><clipPath id="clip-path"><rect class="cls-1" width="1080" height="756"/></clipPath></defs><title>Untitled-3</title><g class="cls-2"><g class="cls-2"><line class="cls-3" x1="180" y1="-18.36" x2="180" y2="790.92"/><line class="cls-3" x1="720" y1="-20.88" x2="720" y2="788.4"/><line class="cls-3" x1="359.88" y1="-18.36" x2="359.88" y2="790.92"/><line class="cls-3" x1="899.87" y1="-20.88" x2="899.87" y2="788.4"/><line class="cls-3" x1="-16.92" y1="251.88" x2="1101.6" y2="251.88"/><line class="cls-3" x1="-11.52" y1="504.13" x2="1107" y2="504.13"/><line class="cls-3" x1="540" y1="-19.44" x2="540" y2="789.84"/></g><path class="cls-4" d="M200.75,281.65l-2.59-8.3h1.22l1.47,5c.16.56.31,1.12.44,1.67.09-.44.24-1,.42-1.58l1.52-5.06h1.18l-2.58,8.3Z"/><path class="cls-4" d="M206.67,281.65l-2.09-8.3h1.19l1.08,4.79.4,1.78.36-1.71,1.08-4.86h1.19l1,4.81.34,1.59.39-1.6,1.16-4.8h1.12l-2.12,8.3h-1.2l-1.09-5-.25-1.41-1.38,6.38Z"/><path class="cls-4" d="M20.3,527.68a2.23,2.23,0,0,1-1-.89,2.71,2.71,0,0,1-.35-1.45,3,3,0,0,1,.76-2.12,2.68,2.68,0,0,1,3.87,0,3,3,0,0,1,.78,2.16,2.67,2.67,0,0,1-.34,1.4,2.29,2.29,0,0,1-1,.89,2.66,2.66,0,0,1,1.31,1.09,4,4,0,0,1-.43,4.36,3,3,0,0,1-4.41,0,3.62,3.62,0,0,1-.89-2.54A3.42,3.42,0,0,1,19,528.7,2.35,2.35,0,0,1,20.3,527.68Zm-.6,2.91a2.46,2.46,0,0,0,.57,1.7,1.75,1.75,0,0,0,1.35.65,1.73,1.73,0,0,0,1.35-.63,2.4,2.4,0,0,0,.55-1.67,2.48,2.48,0,0,0-.57-1.7,1.73,1.73,0,0,0-1.36-.64,1.69,1.69,0,0,0-1.34.64A2.47,2.47,0,0,0,19.7,530.59Zm.39-5.29a1.92,1.92,0,0,0,.44,1.34,1.42,1.42,0,0,0,1.09.5,1.4,1.4,0,0,0,1.08-.49,2.07,2.07,0,0,0,0-2.58,1.37,1.37,0,0,0-1.07-.52,1.41,1.41,0,0,0-1.08.5A1.85,1.85,0,0,0,20.09,525.3Z"/><path class="cls-4" d="M27.6,527.68a2.18,2.18,0,0,1-1-.89,2.71,2.71,0,0,1-.36-1.45,3,3,0,0,1,.77-2.12,2.51,2.51,0,0,1,1.93-.82,2.54,2.54,0,0,1,1.94.83,3,3,0,0,1,.78,2.16,2.67,2.67,0,0,1-.35,1.4,2.24,2.24,0,0,1-1,.89,2.62,2.62,0,0,1,1.31,1.09,3.47,3.47,0,0,1,.46,1.86,3.53,3.53,0,0,1-.89,2.5,3,3,0,0,1-4.4,0,3.62,3.62,0,0,1-.89-2.54,3.51,3.51,0,0,1,.47-1.89A2.37,2.37,0,0,1,27.6,527.68Zm-.6,2.91a2.46,2.46,0,0,0,.57,1.7,1.74,1.74,0,0,0,2.7,0,2.4,2.4,0,0,0,.55-1.67,2.48,2.48,0,0,0-.57-1.7,1.75,1.75,0,0,0-1.36-.64,1.69,1.69,0,0,0-1.34.64A2.42,2.42,0,0,0,27,530.59Zm.38-5.29a1.92,1.92,0,0,0,.45,1.34,1.4,1.4,0,0,0,1.09.5,1.37,1.37,0,0,0,1.07-.49,1.81,1.81,0,0,0,.45-1.27,1.85,1.85,0,0,0-.46-1.31,1.37,1.37,0,0,0-1.08-.52,1.41,1.41,0,0,0-1.07.5A1.81,1.81,0,0,0,27.38,525.3Z"/><path class="cls-4" d="M560,29.65h-1.07V18.2h1.16v4.08a2.66,2.66,0,0,1,.83-.84,2,2,0,0,1,1-.28,2.38,2.38,0,0,1,1.45.48,3.27,3.27,0,0,1,1.05,1.45,6.28,6.28,0,0,1,.39,2.35,5.22,5.22,0,0,1-.89,3.25,2.59,2.59,0,0,1-2.06,1.15,1.94,1.94,0,0,1-1.07-.31,2.56,2.56,0,0,1-.82-.92Zm0-4.21a5.85,5.85,0,0,0,.24,1.93,2.12,2.12,0,0,0,.66,1,1.5,1.5,0,0,0,1,.34,1.55,1.55,0,0,0,1.26-.8,4.23,4.23,0,0,0,.56-2.4,4.2,4.2,0,0,0-.54-2.39,1.56,1.56,0,0,0-1.3-.77,1.59,1.59,0,0,0-1.28.8A4.08,4.08,0,0,0,560,25.44Z"/><path class="cls-4" d="M570.89,27l1.19.18a3.62,3.62,0,0,1-1.08,2,2.82,2.82,0,0,1-1.92.68,2.86,2.86,0,0,1-2.34-1.1,4.89,4.89,0,0,1-.9-3.17,5.13,5.13,0,0,1,.91-3.28A2.8,2.8,0,0,1,569,21.16a2.69,2.69,0,0,1,2.2,1.11,5.05,5.05,0,0,1,.89,3.21v.38H567a3.57,3.57,0,0,0,.65,2.11,1.77,1.77,0,0,0,1.41.71C570,28.68,570.55,28.11,570.89,27ZM567.1,24.7h3.8a3.21,3.21,0,0,0-.46-1.61,1.69,1.69,0,0,0-1.42-.77,1.72,1.72,0,0,0-1.32.64A2.88,2.88,0,0,0,567.1,24.7Z"/><path class="cls-4" d="M573.09,27.16l1.15-.21a2,2,0,0,0,.56,1.3,1.93,1.93,0,0,0,2.35.06,1.19,1.19,0,0,0,.41-.94.9.9,0,0,0-.35-.77,4.64,4.64,0,0,0-1.17-.47,8.28,8.28,0,0,1-1.8-.7,2,2,0,0,1-.7-.77,2.36,2.36,0,0,1-.25-1.11,2.31,2.31,0,0,1,.68-1.72,2.58,2.58,0,0,1,1.88-.67,2.93,2.93,0,0,1,1.33.28,2,2,0,0,1,.88.73,3,3,0,0,1,.42,1.32l-1.12.19a1.35,1.35,0,0,0-1.48-1.36,1.71,1.71,0,0,0-1.11.3.94.94,0,0,0-.37.77.87.87,0,0,0,.35.72,6.55,6.55,0,0,0,1.25.5,9.14,9.14,0,0,1,1.85.72,1.89,1.89,0,0,1,.66.74,2.51,2.51,0,0,1,.23,1.1A2.58,2.58,0,0,1,578,29.1a2.82,2.82,0,0,1-2.06.74C574.3,29.84,573.35,29,573.09,27.16Z"/><path class="cls-4" d="M582.66,28.39l.16,1.24a3.15,3.15,0,0,1-.86.13,1.76,1.76,0,0,1-1-.24,1.24,1.24,0,0,1-.5-.65,6.39,6.39,0,0,1-.14-1.65V22.45h-.84v-1.1h.84V19.3l1.15-.85v2.9h1.16v1.1H581.5V27.3a2.2,2.2,0,0,0,.1.86.58.58,0,0,0,.56.29A2.67,2.67,0,0,0,582.66,28.39Z"/><path class="cls-4" d="M590,28.39l.16,1.24a3.21,3.21,0,0,1-.86.13,1.74,1.74,0,0,1-1-.24,1.19,1.19,0,0,1-.5-.65,6,6,0,0,1-.14-1.65V22.45h-.85v-1.1h.85V19.3l1.15-.85v2.9H590v1.1H588.8V27.3a2.2,2.2,0,0,0,.1.86.56.56,0,0,0,.55.29A2.86,2.86,0,0,0,590,28.39Z"/><path class="cls-4" d="M590.61,25.5a5,5,0,0,1,.9-3.24,2.91,2.91,0,0,1,4.56,0,4.79,4.79,0,0,1,.91,3.15,5.23,5.23,0,0,1-.89,3.33,2.92,2.92,0,0,1-4.57,0A5,5,0,0,1,590.61,25.5Zm1.18,0a3.92,3.92,0,0,0,.59,2.39,1.74,1.74,0,0,0,1.45.79,1.69,1.69,0,0,0,1.39-.79,4,4,0,0,0,.58-2.39,4,4,0,0,0-.58-2.39,1.75,1.75,0,0,0-1.45-.79,1.68,1.68,0,0,0-1.4.79A4,4,0,0,0,591.79,25.5Z"/><path class="cls-4" d="M603.25,29.65l-2.09-8.3h1.19l1.08,4.79.4,1.78.36-1.71,1.08-4.86h1.19l1,4.81.35,1.59.39-1.6,1.16-4.8h1.12l-2.12,8.3h-1.2l-1.09-5-.26-1.41-1.37,6.38Z"/><path class="cls-4" d="M615.89,28.62a4.23,4.23,0,0,1-1.2.91,3,3,0,0,1-1.3.31,2.28,2.28,0,0,1-1.69-.64,2.34,2.34,0,0,1-.64-1.73,2.62,2.62,0,0,1,.3-1.27,2.27,2.27,0,0,1,.81-.87,4.33,4.33,0,0,1,1.56-.46,9,9,0,0,0,2.07-.49V24a1.85,1.85,0,0,0-.3-1.2,1.67,1.67,0,0,0-1.32-.5,1.83,1.83,0,0,0-1.2.33,2.21,2.21,0,0,0-.59,1.26l-1.13-.19a3.18,3.18,0,0,1,1-1.95,3.26,3.26,0,0,1,2.11-.61,3,3,0,0,1,1.68.41,1.71,1.71,0,0,1,.77,1A7,7,0,0,1,617,24.3v1.87a23.12,23.12,0,0,0,.08,2.48,3.27,3.27,0,0,0,.29,1h-1.21A3.64,3.64,0,0,1,615.89,28.62Zm-.09-3.14a7.31,7.31,0,0,1-1.89.54,3.33,3.33,0,0,0-1,.28,1.21,1.21,0,0,0-.45.45,1.37,1.37,0,0,0-.16.68,1.24,1.24,0,0,0,.37.95,1.37,1.37,0,0,0,1,.35,2,2,0,0,0,1.12-.32,2,2,0,0,0,.76-.85A4,4,0,0,0,615.8,26Z"/><path class="cls-4" d="M618.76,29.65v-8.3h1v1.26a3.5,3.5,0,0,1,.73-1.16,1.12,1.12,0,0,1,.74-.29,2,2,0,0,1,1.18.46l-.39,1.3a1.43,1.43,0,0,0-.83-.3,1,1,0,0,0-.68.26,1.45,1.45,0,0,0-.43.71,6.79,6.79,0,0,0-.21,1.71v4.35Z"/><path class="cls-4" d="M623.13,29.65v-8.3h1v1.16a2.78,2.78,0,0,1,.88-1,2.17,2.17,0,0,1,1.18-.35,1.86,1.86,0,0,1,1.92,1.45,3.16,3.16,0,0,1,.94-1.08,2,2,0,0,1,1.17-.37,1.92,1.92,0,0,1,1.54.67,3.22,3.22,0,0,1,.57,2.12v5.7h-1.15V24.42a4.19,4.19,0,0,0-.13-1.27,1.11,1.11,0,0,0-.42-.57,1.07,1.07,0,0,0-.65-.2,1.48,1.48,0,0,0-1.22.59,3,3,0,0,0-.47,1.85v4.83h-1.15v-5.4a2.49,2.49,0,0,0-.31-1.45,1.06,1.06,0,0,0-.88-.42,1.45,1.45,0,0,0-1.24.63,4.2,4.2,0,0,0-.46,2.33v4.31Z"/><path class="cls-4" d="M642.16,29.65V28.43a3,3,0,0,1-.94,1.05,2.16,2.16,0,0,1-1.22.36,2.21,2.21,0,0,1-1.38-.44,2.12,2.12,0,0,1-.76-1.1,7.09,7.09,0,0,1-.19-1.81V21.35h1.15V26a7.06,7.06,0,0,0,.13,1.72,1.26,1.26,0,0,0,.48.69,1.23,1.23,0,0,0,.79.26,1.66,1.66,0,0,0,1.36-.67A3.73,3.73,0,0,0,642,25.8V21.35h1.16v8.3Z"/><path class="cls-4" d="M645,32.83V21.35h1.06v1.08a2.7,2.7,0,0,1,.87-1,2,2,0,0,1,1.09-.3,2.36,2.36,0,0,1,1.45.48,3.26,3.26,0,0,1,1,1.45,6.09,6.09,0,0,1,.4,2.34,5.23,5.23,0,0,1-.89,3.26,2.61,2.61,0,0,1-2.08,1.15,1.81,1.81,0,0,1-1-.28,2.44,2.44,0,0,1-.8-.77v4Zm1-7.28a4.15,4.15,0,0,0,.54,2.37,1.46,1.46,0,0,0,2.58,0,4.29,4.29,0,0,0,.56-2.44,4.26,4.26,0,0,0-.54-2.4,1.42,1.42,0,0,0-2.57.06A4.33,4.33,0,0,0,646.05,25.55Z"/><path class="cls-4" d="M657,29.65h-1.07V18.2h1.16v4.08a2.66,2.66,0,0,1,.83-.84,2,2,0,0,1,1-.28,2.38,2.38,0,0,1,1.45.48,3.27,3.27,0,0,1,1.05,1.45,6.28,6.28,0,0,1,.39,2.35,5.22,5.22,0,0,1-.89,3.25,2.59,2.59,0,0,1-2.06,1.15,1.94,1.94,0,0,1-1.07-.31,2.56,2.56,0,0,1-.82-.92Zm0-4.21a5.85,5.85,0,0,0,.24,1.93,2.12,2.12,0,0,0,.66,1,1.5,1.5,0,0,0,1,.34,1.55,1.55,0,0,0,1.26-.8,4.23,4.23,0,0,0,.56-2.4,4.2,4.2,0,0,0-.54-2.39,1.56,1.56,0,0,0-1.3-.77,1.59,1.59,0,0,0-1.28.8A4.08,4.08,0,0,0,657,25.44Z"/><path class="cls-4" d="M667.89,27l1.19.18a3.62,3.62,0,0,1-1.08,2,2.82,2.82,0,0,1-1.92.68,2.86,2.86,0,0,1-2.34-1.1,4.89,4.89,0,0,1-.9-3.17,5.13,5.13,0,0,1,.91-3.28A2.8,2.8,0,0,1,666,21.16a2.69,2.69,0,0,1,2.2,1.11,5.05,5.05,0,0,1,.89,3.21v.38H664a3.57,3.57,0,0,0,.65,2.11,1.77,1.77,0,0,0,1.41.71C667,28.68,667.55,28.11,667.89,27ZM664.1,24.7h3.8a3.21,3.21,0,0,0-.46-1.61,1.69,1.69,0,0,0-1.42-.77,1.72,1.72,0,0,0-1.32.64A2.88,2.88,0,0,0,664.1,24.7Z"/><path class="cls-4" d="M670.86,29.65v-7.2h-1v-1.1h1v-.88a4.2,4.2,0,0,1,.2-1.47,1.58,1.58,0,0,1,.63-.74,2,2,0,0,1,1-.26,4.37,4.37,0,0,1,1.08.15l-.17,1.22a3.39,3.39,0,0,0-.68-.08.9.9,0,0,0-.74.27,1.69,1.69,0,0,0-.22,1v.76h1.33v1.1H672v7.2Z"/><path class="cls-4" d="M673.75,25.5a5,5,0,0,1,.9-3.24,2.91,2.91,0,0,1,4.56,0,4.79,4.79,0,0,1,.91,3.15,5.17,5.17,0,0,1-.89,3.33,2.92,2.92,0,0,1-4.57,0A5,5,0,0,1,673.75,25.5Zm1.18,0a3.92,3.92,0,0,0,.59,2.39,1.74,1.74,0,0,0,1.45.79,1.67,1.67,0,0,0,1.39-.79A4,4,0,0,0,679,25.5a4,4,0,0,0-.59-2.39,1.75,1.75,0,0,0-1.45-.79,1.68,1.68,0,0,0-1.4.79A4,4,0,0,0,674.93,25.5Z"/><path class="cls-4" d="M681.48,29.65v-8.3h1v1.26a3.67,3.67,0,0,1,.73-1.16,1.14,1.14,0,0,1,.75-.29,2,2,0,0,1,1.18.46l-.39,1.3a1.49,1.49,0,0,0-.84-.3,1,1,0,0,0-.67.26,1.38,1.38,0,0,0-.43.71,6.79,6.79,0,0,0-.22,1.71v4.35Z"/><path class="cls-4" d="M690.5,27l1.19.18a3.62,3.62,0,0,1-1.08,2,2.83,2.83,0,0,1-1.92.68,2.86,2.86,0,0,1-2.34-1.1,4.89,4.89,0,0,1-.9-3.17,5.13,5.13,0,0,1,.91-3.28,2.8,2.8,0,0,1,2.28-1.13,2.71,2.71,0,0,1,2.2,1.11,5.05,5.05,0,0,1,.89,3.21v.38h-5.08a3.57,3.57,0,0,0,.65,2.11,1.75,1.75,0,0,0,1.41.71C689.56,28.68,690.16,28.11,690.5,27Zm-3.79-2.28h3.8a3.21,3.21,0,0,0-.46-1.61,1.69,1.69,0,0,0-1.42-.77,1.72,1.72,0,0,0-1.32.64A2.88,2.88,0,0,0,686.71,24.7Z"/><path class="cls-4" d="M563.38,45.62a4.14,4.14,0,0,1-1.21.91,3,3,0,0,1-1.29.31,2.31,2.31,0,0,1-1.7-.64,2.37,2.37,0,0,1-.63-1.73,2.73,2.73,0,0,1,.29-1.27,2.22,2.22,0,0,1,.82-.87,4.2,4.2,0,0,1,1.56-.46,8.87,8.87,0,0,0,2.06-.49V41a1.78,1.78,0,0,0-.31-1.2,1.64,1.64,0,0,0-1.32-.5,1.87,1.87,0,0,0-1.2.33,2.21,2.21,0,0,0-.58,1.26l-1.14-.19a3.18,3.18,0,0,1,1-1.95,3.29,3.29,0,0,1,2.12-.61,3,3,0,0,1,1.68.41,1.75,1.75,0,0,1,.77,1,7.53,7.53,0,0,1,.16,1.74v1.87a24.27,24.27,0,0,0,.07,2.48,3.94,3.94,0,0,0,.29,1h-1.2A3.33,3.33,0,0,1,563.38,45.62Zm-.1-3.14a7.34,7.34,0,0,1-1.88.54,3.42,3.42,0,0,0-1,.28,1.21,1.21,0,0,0-.45.45,1.48,1.48,0,0,0-.16.68,1.28,1.28,0,0,0,.37,1,1.39,1.39,0,0,0,1,.35A2,2,0,0,0,563,44.56a3.78,3.78,0,0,0,.25-1.56Z"/><path class="cls-4" d="M566.24,46.65v-8.3h1v1.17a2.78,2.78,0,0,1,.92-1,2.33,2.33,0,0,1,1.24-.34,2.41,2.41,0,0,1,1,.22,2.05,2.05,0,0,1,.75.56,2.21,2.21,0,0,1,.42.9,7.11,7.11,0,0,1,.15,1.71v5.1h-1.15v-5a4,4,0,0,0-.16-1.34,1.3,1.3,0,0,0-.49-.65,1.25,1.25,0,0,0-.77-.23,1.6,1.6,0,0,0-1.32.61,3.46,3.46,0,0,0-.49,2.12v4.54Z"/><path class="cls-4" d="M573.5,49.84l-.12-1.32a2,2,0,0,0,.65.13,1.13,1.13,0,0,0,.61-.15A1.06,1.06,0,0,0,575,48c0-.07.19-.53.46-1.38l-2.59-8.31h1.24l1.42,4.8c.18.6.34,1.24.49,1.92.13-.64.29-1.27.47-1.89L578,38.35h1.15l-2.58,8.44a14.86,14.86,0,0,1-.8,2.19,2.07,2.07,0,0,1-.67.79,1.49,1.49,0,0,1-.84.25A1.89,1.89,0,0,1,573.5,49.84Z"/><path class="cls-4" d="M583.71,46.65V35.2h1.15V46.65Z"/><path class="cls-4" d="M586.23,42.5a5,5,0,0,1,.9-3.24,2.91,2.91,0,0,1,4.56,0,4.79,4.79,0,0,1,.91,3.15,5.17,5.17,0,0,1-.9,3.33,2.91,2.91,0,0,1-4.56,0A5,5,0,0,1,586.23,42.5Zm1.18,0a4,4,0,0,0,.58,2.39,1.75,1.75,0,0,0,1.46.79,1.69,1.69,0,0,0,1.39-.79,4,4,0,0,0,.58-2.39,4,4,0,0,0-.58-2.39,1.75,1.75,0,0,0-1.46-.79,1.7,1.7,0,0,0-1.4.79A4.09,4.09,0,0,0,587.41,42.5Z"/><path class="cls-4" d="M594,46.65v-8.3h1v1.17a2.7,2.7,0,0,1,.92-1,2.33,2.33,0,0,1,1.24-.34,2.44,2.44,0,0,1,1,.22,2.05,2.05,0,0,1,.75.56,2.21,2.21,0,0,1,.42.9,7.23,7.23,0,0,1,.14,1.71v5.1h-1.14v-5a4.28,4.28,0,0,0-.16-1.34,1.3,1.3,0,0,0-.49-.65,1.27,1.27,0,0,0-.77-.23,1.6,1.6,0,0,0-1.32.61,3.46,3.46,0,0,0-.49,2.12v4.54Z"/><path class="cls-4" d="M601,47.34l1.13.2a1.43,1.43,0,0,0,.46,1,1.67,1.67,0,0,0,1.09.33,1.88,1.88,0,0,0,1.21-.36,1.91,1.91,0,0,0,.61-1.09,10,10,0,0,0,.1-1.84,2.68,2.68,0,0,1-.84.81,2,2,0,0,1-1,.27,2.47,2.47,0,0,1-2-1,5,5,0,0,1-.93-3.18,6.23,6.23,0,0,1,.41-2.34,3.26,3.26,0,0,1,1.07-1.47,2.51,2.51,0,0,1,1.48-.47,2.12,2.12,0,0,1,1.1.3,2.71,2.71,0,0,1,.87.88v-1h1.07v7.17a8.28,8.28,0,0,1-.32,2.73,2.57,2.57,0,0,1-1,1.29,3,3,0,0,1-1.71.48,2.72,2.72,0,0,1-2-.72A2.61,2.61,0,0,1,601,47.34Zm1-5a4.16,4.16,0,0,0,.54,2.39,1.57,1.57,0,0,0,2.66,0,4,4,0,0,0,.55-2.35,3.9,3.9,0,0,0-.57-2.33,1.67,1.67,0,0,0-1.37-.76,1.56,1.56,0,0,0-1.26.76A3.94,3.94,0,0,0,602,42.35Z"/><path class="cls-4" d="M613.2,44l1.19.18a3.67,3.67,0,0,1-1.07,2,2.84,2.84,0,0,1-1.93.68,2.89,2.89,0,0,1-2.34-1.1,4.89,4.89,0,0,1-.89-3.17,5.19,5.19,0,0,1,.9-3.28,2.8,2.8,0,0,1,2.28-1.13,2.72,2.72,0,0,1,2.21,1.11,5.05,5.05,0,0,1,.88,3.21v.38h-5.08A3.64,3.64,0,0,0,610,45a1.78,1.78,0,0,0,1.41.71C612.26,45.68,612.86,45.11,613.2,44Zm-3.79-2.28h3.8a3.21,3.21,0,0,0-.46-1.61A1.68,1.68,0,0,0,610,40,2.82,2.82,0,0,0,609.41,41.7Z"/><path class="cls-4" d="M615.85,46.65v-8.3h1v1.26a3.67,3.67,0,0,1,.73-1.16,1.12,1.12,0,0,1,.75-.29,2,2,0,0,1,1.18.46l-.39,1.3a1.49,1.49,0,0,0-.84-.3,1,1,0,0,0-.67.26,1.38,1.38,0,0,0-.43.71A6.36,6.36,0,0,0,617,42.3v4.35Z"/><path class="cls-4" d="M623.42,44.16l1.15-.21a2.06,2.06,0,0,0,.55,1.3,1.94,1.94,0,0,0,2.36.06,1.23,1.23,0,0,0,.41-.94.93.93,0,0,0-.35-.77,4.64,4.64,0,0,0-1.17-.47,8.28,8.28,0,0,1-1.8-.7,1.93,1.93,0,0,1-.7-.77,2.36,2.36,0,0,1-.25-1.11,2.28,2.28,0,0,1,.68-1.72,2.58,2.58,0,0,1,1.88-.67,3,3,0,0,1,1.33.28,2.06,2.06,0,0,1,.88.73,3.3,3.3,0,0,1,.42,1.32l-1.12.19a1.35,1.35,0,0,0-1.48-1.36,1.76,1.76,0,0,0-1.12.3,1,1,0,0,0-.36.77.85.85,0,0,0,.35.72,6.55,6.55,0,0,0,1.25.5,9.14,9.14,0,0,1,1.85.72,1.89,1.89,0,0,1,.66.74,2.51,2.51,0,0,1,.23,1.1,2.58,2.58,0,0,1-.75,1.93,2.84,2.84,0,0,1-2.06.74C624.63,46.84,623.68,46,623.42,44.16Z"/><path class="cls-4" d="M633,45.39l.16,1.24a3.21,3.21,0,0,1-.86.13,1.76,1.76,0,0,1-1-.24,1.24,1.24,0,0,1-.5-.65,6.39,6.39,0,0,1-.14-1.65V39.45h-.84v-1.1h.84V36.3l1.15-.85v2.9H633v1.1h-1.16V44.3a2.2,2.2,0,0,0,.1.86.56.56,0,0,0,.55.29A2.86,2.86,0,0,0,633,45.39Z"/><path class="cls-4" d="M634.08,46.65v-8.3h1v1.26a3.5,3.5,0,0,1,.73-1.16,1.12,1.12,0,0,1,.74-.29,2,2,0,0,1,1.18.46l-.39,1.3a1.43,1.43,0,0,0-.83-.3,1,1,0,0,0-.67.26,1.32,1.32,0,0,0-.43.71,6.36,6.36,0,0,0-.22,1.71v4.35Z"/><path class="cls-4" d="M643.09,44l1.19.18a3.61,3.61,0,0,1-1.07,2,2.84,2.84,0,0,1-1.93.68,2.89,2.89,0,0,1-2.34-1.1,4.89,4.89,0,0,1-.89-3.17,5.19,5.19,0,0,1,.9-3.28,2.8,2.8,0,0,1,2.28-1.13,2.72,2.72,0,0,1,2.21,1.11,5.05,5.05,0,0,1,.88,3.21v.38h-5.08a3.64,3.64,0,0,0,.65,2.11,1.78,1.78,0,0,0,1.41.71C642.15,45.68,642.75,45.11,643.09,44ZM639.3,41.7h3.8a3.11,3.11,0,0,0-.46-1.61,1.68,1.68,0,0,0-2.73-.13A2.82,2.82,0,0,0,639.3,41.7Z"/><path class="cls-4" d="M648.3,45.39l.16,1.24a3.15,3.15,0,0,1-.86.13,1.76,1.76,0,0,1-1-.24,1.24,1.24,0,0,1-.5-.65,6.39,6.39,0,0,1-.14-1.65V39.45h-.84v-1.1H646V36.3l1.15-.85v2.9h1.16v1.1h-1.16V44.3a2.2,2.2,0,0,0,.1.86.58.58,0,0,0,.56.29A2.67,2.67,0,0,0,648.3,45.39Z"/><path class="cls-4" d="M653.84,43.61l1.14.18a3.79,3.79,0,0,1-1,2.26,2.58,2.58,0,0,1-1.89.79,2.7,2.7,0,0,1-2.2-1.1,5.16,5.16,0,0,1-.86-3.25,5.09,5.09,0,0,1,.87-3.24,2.73,2.73,0,0,1,2.24-1.09,2.52,2.52,0,0,1,1.77.66,3.21,3.21,0,0,1,.93,2l-1.12.2a2.39,2.39,0,0,0-.57-1.25,1.3,1.3,0,0,0-1-.42,1.69,1.69,0,0,0-1.41.75,4,4,0,0,0-.56,2.4,4.38,4.38,0,0,0,.53,2.45,1.62,1.62,0,0,0,1.37.76,1.48,1.48,0,0,0,1.12-.5A2.74,2.74,0,0,0,653.84,43.61Z"/><path class="cls-4" d="M656,46.65V35.2h1.15v4.1a2.82,2.82,0,0,1,.92-.85,2.29,2.29,0,0,1,1.13-.29,2.17,2.17,0,0,1,1.71.7,3.8,3.8,0,0,1,.63,2.53v5.26h-1.15V41.39a2.45,2.45,0,0,0-.38-1.55,1.28,1.28,0,0,0-1.05-.46,1.64,1.64,0,0,0-1.28.6,3.28,3.28,0,0,0-.53,2.13v4.54Z"/><path class="cls-4" d="M666.46,42.5a5,5,0,0,1,.9-3.24,2.91,2.91,0,0,1,4.56,0,4.79,4.79,0,0,1,.92,3.15,5.17,5.17,0,0,1-.9,3.33,2.92,2.92,0,0,1-4.57,0A5,5,0,0,1,666.46,42.5Zm1.18,0a4,4,0,0,0,.59,2.39,1.74,1.74,0,0,0,1.45.79,1.67,1.67,0,0,0,1.39-.79,4,4,0,0,0,.59-2.39,4,4,0,0,0-.59-2.39,1.74,1.74,0,0,0-1.45-.79,1.68,1.68,0,0,0-1.4.79A4,4,0,0,0,667.64,42.5Z"/><path class="cls-4" d="M674.52,46.65v-7.2h-1v-1.1h1v-.88a4,4,0,0,1,.2-1.47,1.56,1.56,0,0,1,.62-.74A2,2,0,0,1,676.4,35a4.5,4.5,0,0,1,1.08.15l-.18,1.22a3.23,3.23,0,0,0-.68-.08.89.89,0,0,0-.73.27,1.67,1.67,0,0,0-.23,1v.76H677v1.1h-1.33v7.2Z"/><path class="cls-4" d="M563.59,61l1.19.18a3.61,3.61,0,0,1-1.07,2,2.84,2.84,0,0,1-1.93.68,2.89,2.89,0,0,1-2.34-1.1,4.89,4.89,0,0,1-.89-3.17,5.19,5.19,0,0,1,.9-3.28,2.8,2.8,0,0,1,2.28-1.13,2.72,2.72,0,0,1,2.21,1.11,5.05,5.05,0,0,1,.88,3.21v.38h-5.08a3.64,3.64,0,0,0,.65,2.11,1.78,1.78,0,0,0,1.41.71C562.65,62.68,563.25,62.11,563.59,61ZM559.8,58.7h3.8a3.11,3.11,0,0,0-.46-1.61,1.68,1.68,0,0,0-2.73-.13A2.82,2.82,0,0,0,559.8,58.7Z"/><path class="cls-4" d="M565.49,63.65,568,59.34l-2.28-4h1.44l1,1.94c.2.36.35.67.48.93l.52-.9,1.15-2h1.37l-2.35,3.9,2.53,4.4h-1.41l-1.4-2.58-.37-.7-1.79,3.28Z"/><path class="cls-4" d="M577.26,63.65V62.43a3,3,0,0,1-.94,1,2.16,2.16,0,0,1-1.22.36,2.2,2.2,0,0,1-1.37-.44,2.08,2.08,0,0,1-.77-1.1,7.09,7.09,0,0,1-.19-1.81V55.35h1.15V60a7.06,7.06,0,0,0,.13,1.72,1.32,1.32,0,0,0,.48.69,1.23,1.23,0,0,0,.79.26,1.65,1.65,0,0,0,1.36-.67,3.73,3.73,0,0,0,.45-2.15V55.35h1.16v8.3Z"/><path class="cls-4" d="M580.06,63.65V52.2h1.15V63.65Z"/><path class="cls-4" d="M585.58,62.39l.15,1.24a3.09,3.09,0,0,1-.85.13,1.72,1.72,0,0,1-1-.24,1.21,1.21,0,0,1-.51-.65,6.54,6.54,0,0,1-.13-1.65V56.45h-.85v-1.1h.85V53.3l1.14-.85v2.9h1.17v1.1h-1.17V61.3a2.14,2.14,0,0,0,.11.86.56.56,0,0,0,.55.29A2.86,2.86,0,0,0,585.58,62.39Z"/><path class="cls-4" d="M591.09,62.62a4,4,0,0,1-1.2.91,3,3,0,0,1-1.3.31,2.3,2.3,0,0,1-1.69-.64,2.37,2.37,0,0,1-.63-1.73,2.62,2.62,0,0,1,.29-1.27,2.22,2.22,0,0,1,.82-.87,4.2,4.2,0,0,1,1.56-.46,8.87,8.87,0,0,0,2.06-.49V58a1.78,1.78,0,0,0-.31-1.2,1.64,1.64,0,0,0-1.32-.5,1.87,1.87,0,0,0-1.2.33,2.21,2.21,0,0,0-.59,1.26l-1.13-.19a3.18,3.18,0,0,1,1-1.95,3.27,3.27,0,0,1,2.11-.61,3,3,0,0,1,1.68.41,1.67,1.67,0,0,1,.77,1,7,7,0,0,1,.16,1.74v1.87a23.12,23.12,0,0,0,.08,2.48,3.94,3.94,0,0,0,.29,1h-1.2A3.63,3.63,0,0,1,591.09,62.62ZM591,59.48a7.34,7.34,0,0,1-1.88.54,3.33,3.33,0,0,0-1,.28,1.21,1.21,0,0,0-.45.45,1.48,1.48,0,0,0-.16.68,1.24,1.24,0,0,0,.37,1,1.38,1.38,0,0,0,1,.35,2,2,0,0,0,1.87-1.17A3.78,3.78,0,0,0,591,60Z"/><path class="cls-4" d="M596.52,62.39l.16,1.24a3.15,3.15,0,0,1-.86.13,1.76,1.76,0,0,1-1-.24,1.24,1.24,0,0,1-.5-.65,6.39,6.39,0,0,1-.14-1.65V56.45h-.84v-1.1h.84V53.3l1.15-.85v2.9h1.16v1.1h-1.16V61.3a2.2,2.2,0,0,0,.1.86.58.58,0,0,0,.56.29A2.67,2.67,0,0,0,596.52,62.39Z"/><path class="cls-4" d="M597.61,53.81V52.2h1.15v1.61Zm0,9.84v-8.3h1.15v8.3Z"/><path class="cls-4" d="M600.09,59.5a5,5,0,0,1,.9-3.24,2.91,2.91,0,0,1,4.56,0,4.79,4.79,0,0,1,.91,3.15,5.17,5.17,0,0,1-.9,3.33,2.91,2.91,0,0,1-4.56,0A5,5,0,0,1,600.09,59.5Zm1.18,0a4,4,0,0,0,.58,2.39,1.75,1.75,0,0,0,1.45.79,1.69,1.69,0,0,0,1.4-.79,4,4,0,0,0,.58-2.39,4,4,0,0,0-.58-2.39,1.77,1.77,0,0,0-1.46-.79,1.7,1.7,0,0,0-1.4.79A4.09,4.09,0,0,0,601.27,59.5Z"/><path class="cls-4" d="M607.82,63.65v-8.3h1v1.17a2.7,2.7,0,0,1,.92-1,2.33,2.33,0,0,1,1.24-.34,2.44,2.44,0,0,1,1,.22,2.05,2.05,0,0,1,.75.56,2.21,2.21,0,0,1,.42.9,7.23,7.23,0,0,1,.14,1.71v5.1H612.2v-5a4.28,4.28,0,0,0-.16-1.34,1.36,1.36,0,0,0-.49-.65,1.27,1.27,0,0,0-.77-.23,1.6,1.6,0,0,0-1.32.61,3.46,3.46,0,0,0-.49,2.12v4.54Z"/><path class="cls-4" d="M615.48,63.65v-1.6h1.31v1.6Z"/><path class="cls-4" d="M920.3,527.68a2.23,2.23,0,0,1-1-.89,2.71,2.71,0,0,1-.35-1.45,3,3,0,0,1,.76-2.12,2.68,2.68,0,0,1,3.87,0,3,3,0,0,1,.78,2.16,2.67,2.67,0,0,1-.34,1.4,2.29,2.29,0,0,1-1,.89,2.66,2.66,0,0,1,1.31,1.09,4,4,0,0,1-.43,4.36,3,3,0,0,1-4.41,0,3.62,3.62,0,0,1-.89-2.54,3.42,3.42,0,0,1,.48-1.89A2.35,2.35,0,0,1,920.3,527.68Zm-.6,2.91a2.46,2.46,0,0,0,.57,1.7,1.75,1.75,0,0,0,1.35.65,1.73,1.73,0,0,0,1.35-.63,2.4,2.4,0,0,0,.55-1.67,2.48,2.48,0,0,0-.57-1.7,1.73,1.73,0,0,0-1.36-.64,1.69,1.69,0,0,0-1.34.64A2.47,2.47,0,0,0,919.7,530.59Zm.39-5.29a1.92,1.92,0,0,0,.44,1.34,1.42,1.42,0,0,0,1.09.5,1.4,1.4,0,0,0,1.08-.49,2.07,2.07,0,0,0,0-2.58,1.37,1.37,0,0,0-1.07-.52,1.41,1.41,0,0,0-1.08.5A1.85,1.85,0,0,0,920.09,525.3Z"/><path class="cls-4" d="M926,531.25l1.11-.13c.18,1.21.7,1.82,1.56,1.82a1.55,1.55,0,0,0,1.05-.4,3,3,0,0,0,.81-1.4,7.9,7.9,0,0,0,.32-2.35v-.28a2.94,2.94,0,0,1-1,1.1,2.27,2.27,0,0,1-1.25.41,2.52,2.52,0,0,1-2-1,4.19,4.19,0,0,1-.83-2.74,4.34,4.34,0,0,1,.86-2.84,2.65,2.65,0,0,1,2.1-1,2.6,2.6,0,0,1,1.63.58,3.63,3.63,0,0,1,1.18,1.7,10,10,0,0,1,.41,3.24,11.72,11.72,0,0,1-.45,3.67,3.9,3.9,0,0,1-1.2,1.9,2.7,2.7,0,0,1-1.71.6,2.41,2.41,0,0,1-1.79-.73A3.41,3.41,0,0,1,926,531.25Zm4.73-5.06a3,3,0,0,0-.55-1.93,1.58,1.58,0,0,0-1.26-.71,1.66,1.66,0,0,0-1.33.76,3.15,3.15,0,0,0-.58,2,2.7,2.7,0,0,0,.56,1.79,1.66,1.66,0,0,0,1.33.67,1.61,1.61,0,0,0,1.3-.67A3,3,0,0,0,930.72,526.19Z"/><g class="cls-2"><path class="cls-3" d="M104.4,50.4c-23.06,12.41-46.2,24.65-69.29,37q27.33-1.74,54.53-5.27c-8,.75,109.88-11.68,115.83-7.45q-34.56,12.84-68.77,26.49l.59-1A99.71,99.71,0,0,1,179,94.35c29.19-2.28,62.26-3.63,92-2.61a206.93,206.93,0,0,0-28.69,1.85,319.1,319.1,0,0,1,52,.85l83.86,4.35q35.93-13.23,54.12,8.89c-14.58,3.1-29.3,5.51-43.71,9.32,8.63,0,17.13-2,25.82-2-3.75,2.32-8.31,2.51-12.42,4,5.28-.21,11.7-1.41,16.61,1.07-1.41.82-2.83,2.93-4.3,3.67a10.5,10.5,0,0,1,7.12,2,76.63,76.63,0,0,0,.57,7.73c4.53,2.4,9.57,2.83,14.16,5.1a7.73,7.73,0,0,1-.73,4.8c9.25,4,19.77-1.16,28.93,6.07.37,3.64-4,5.31-6.65,6.64,3.21,2.78,3,5.75,3.06,9.54,0,1.45.54,3.82.24,5.2-.93,4.18-5.79,7.58-5.84,11.91-.13,11.79,14.43,9.52,19.14,17.18-.39-.63-.79,4.47-.75,4.75,1,6.33,5.31,14,7,20.37"/><path class="cls-3" d="M460.8,288c4.69,0,75.48-2.81,74.84,4.49a376.3,376.3,0,0,1-45.31,4.7c24.88-.71,50.84-1.92,75.25,3.75q-11.76,3.12-23.75,5.19c44,11.43,90.26,8.3,135,15.48q-5.6-1.37-8,2.29c18.35,1.13,36.32,3.79,54.43,6.87a61.41,61.41,0,0,1-16.57-2.3c34.36-2.2,68.87-1,103.29-1-8.41,1.11-18,4-26,1.22,12.13-1.35,26-1.39,37.87-4.24a37.74,37.74,0,0,1-5.26-2.87A24.49,24.49,0,0,1,833.25,315c-5.45,1.9,44.66-16.16,45.66-15-15.63,2.8,6.84,4.28,5,4.2,8,.33,14.53,3.46,22.48,4.7,14.64,2.29,30.48,1.48,45.22,2.17.86,0,18,2.88,20.36-1.42"/><path class="cls-3" d="M1000.8,630H864c-14.4,0-18,8.75-54-.12S755.87,612,738,613.8s-36-12.6-64.8-14.4-29.34-.12-77.4-.12-61.2-.84-82.8-.84,36-.12-45-.12-36-.13-117-.13S190.8,586.8,190.8,586.8c7.2-.12,691.2-30.6,691.2-30.6s-75.6-.13-109.8-.13S685.8,556,671.4,556s-95.21-5.15-113.31-14.15S520.2,522,513,522s-27-.12-27-.12L882,462.6"/></g></g></svg>