<svg id="Layer_1" data-name="Layer 1" xmlns="http://www.w3.org/2000/svg" xmlns:xlink="http://www.w3.org/1999/xlink" viewBox="0 0 1080 756"><defs><style>.cls-1,.cls-3{fill:none;}.cls-2{clip-path:url(#clip-path);}.cls-3{stroke:#231f20;stroke-width:0.25px;}.cls-4{fill:#231f20;}</style><clipPath id="clip-path"><rect class="cls-1" width="1080" height="756"/></clipPath></defs><title>Untitled-3</title><g class="cls-2"><g class="cls-2"><line class="cls-3" x1="180" y1="-18.36" x2="180" y2="790.92"/><line class="cls-3" x1="720" y1="-20.88" x2="720" y2="788.4"/><line class="cls-3" x1="359.88" y1="-18.36" x2="359.88" y2="790.92"/><line class="cls-3" x1="899.87" y1="-20.88" x2="899.87" y2="788.4"/><line class="cls-3" x1="-16.92" y1="251.88" x2="1101.6" y2="251.88"/><line class="cls-3" x1="-11.52" y1="504.13" x2="1107" y2="504.13"/><line class="cls-3" x1="540" y1="-19.44" x2="540" y2="789.84"/></g><path class="cls-4" d="M383.22,532.75a4.33,4.33,0,0,1-1.2.91,3,3,0,0,1-1.3.3,2.25,2.25,0,0,1-1.69-.64,2.32,2.32,0,0,1-.64-1.73,2.62,2.62,0,0,1,.3-1.27,2.27,2.27,0,0,1,.81-.87,4.54,4.54,0,0,1,1.57-.46,9,9,0,0,0,2.06-.49v-.36a1.79,1.79,0,0,0-.31-1.19,1.63,1.63,0,0,0-1.32-.5,1.83,1.83,0,0,0-1.2.33,2.18,2.18,0,0,0-.59,1.25l-1.13-.19a3.12,3.12,0,0,1,1-1.94,3.22,3.22,0,0,1,2.11-.61,3,3,0,0,1,1.68.4,1.69,1.69,0,0,1,.77,1,6.87,6.87,0,0,1,.16,1.73v1.88a23.12,23.12,0,0,0,.08,2.48,3.51,3.51,0,0,0,.29,1h-1.2A3.48,3.48,0,0,1,383.22,532.75Zm-.09-3.14a7,7,0,0,1-1.88.53,3.27,3.27,0,0,0-1,.29,1.08,1.08,0,0,0-.45.45,1.33,1.33,0,0,0-.16.67,1.23,1.23,0,0,0,.37,1,1.37,1.37,0,0,0,1,.36,2.06,2.06,0,0,0,1.12-.32,2,2,0,0,0,.76-.86,3.88,3.88,0,0,0,.25-1.56Z"/><path class="cls-4" d="M387.14,533.77h-1.07V522.32h1.16v4.09a2.47,2.47,0,0,1,.83-.84,2,2,0,0,1,1-.28,2.4,2.4,0,0,1,1.45.48,3.22,3.22,0,0,1,1,1.44,6.32,6.32,0,0,1,.39,2.35,5.25,5.25,0,0,1-.89,3.26A2.55,2.55,0,0,1,389,534a1.89,1.89,0,0,1-1.07-.31,2.57,2.57,0,0,1-.82-.92Zm0-4.21a5.86,5.86,0,0,0,.23,1.93,2.11,2.11,0,0,0,.67,1,1.5,1.5,0,0,0,1,.33,1.54,1.54,0,0,0,1.27-.8,4.2,4.2,0,0,0,.55-2.39,4.31,4.31,0,0,0-.53-2.4,1.56,1.56,0,0,0-1.31-.76,1.54,1.54,0,0,0-1.27.8A3.94,3.94,0,0,0,387.13,529.56Z"/><path class="cls-4" d="M392.94,531.29l1.15-.22a2.09,2.09,0,0,0,.55,1.31,1.69,1.69,0,0,0,1.2.42,1.65,1.65,0,0,0,1.16-.37,1.21,1.21,0,0,0,.41-.94.91.91,0,0,0-.35-.76,4.27,4.27,0,0,0-1.17-.47,8.15,8.15,0,0,1-1.8-.71,1.93,1.93,0,0,1-.7-.77,2.54,2.54,0,0,1,.43-2.83,2.58,2.58,0,0,1,1.88-.66,3.1,3.1,0,0,1,1.33.27,2.16,2.16,0,0,1,.88.74,3.2,3.2,0,0,1,.42,1.32l-1.12.18a1.35,1.35,0,0,0-1.48-1.35,1.7,1.7,0,0,0-1.12.3.93.93,0,0,0-.36.76.82.82,0,0,0,.35.72,5.91,5.91,0,0,0,1.25.5,9.9,9.9,0,0,1,1.85.73,1.87,1.87,0,0,1,.66.73,2.53,2.53,0,0,1,.23,1.11,2.58,2.58,0,0,1-.76,1.93,2.79,2.79,0,0,1-2.05.73C394.15,534,393.2,533.07,392.94,531.29Z"/><path class="cls-4" d="M399.51,529.62a5,5,0,0,1,.9-3.24,2.93,2.93,0,0,1,4.56,0,4.8,4.8,0,0,1,.92,3.16,5.17,5.17,0,0,1-.9,3.33,2.93,2.93,0,0,1-4.57,0A5,5,0,0,1,399.51,529.62Zm1.18,0a4,4,0,0,0,.59,2.4,1.75,1.75,0,0,0,1.45.78,1.67,1.67,0,0,0,1.39-.79,5.14,5.14,0,0,0,0-4.78,1.75,1.75,0,0,0-1.45-.78,1.68,1.68,0,0,0-1.4.79A4,4,0,0,0,400.69,529.62Z"/><path class="cls-4" d="M407.21,533.77V522.32h1.14v11.45Z"/><path class="cls-4" d="M414.61,533.77v-1.22a2.89,2.89,0,0,1-.94,1.06,2.17,2.17,0,0,1-1.21.35,2.2,2.2,0,0,1-1.38-.43,2.1,2.1,0,0,1-.76-1.1,6.71,6.71,0,0,1-.19-1.81v-5.14h1.15v4.6a7,7,0,0,0,.13,1.71,1.29,1.29,0,0,0,1.26,1,1.65,1.65,0,0,0,1.36-.68,3.62,3.62,0,0,0,.46-2.15v-4.44h1.15v8.29Z"/><path class="cls-4" d="M420,532.52l.15,1.24a3.47,3.47,0,0,1-.85.12,1.72,1.72,0,0,1-1-.24,1.14,1.14,0,0,1-.51-.65,6.43,6.43,0,0,1-.13-1.65v-4.77h-.85v-1.09h.85v-2.06l1.14-.84v2.9H420v1.09h-1.17v4.85a2.2,2.2,0,0,0,.11.87.55.55,0,0,0,.55.28A3.92,3.92,0,0,0,420,532.52Z"/><path class="cls-4" d="M425.75,531.1l1.19.18a3.7,3.7,0,0,1-1.07,2,2.84,2.84,0,0,1-1.93.67,2.89,2.89,0,0,1-2.34-1.1,4.86,4.86,0,0,1-.89-3.16,5.15,5.15,0,0,1,.9-3.28,2.8,2.8,0,0,1,2.28-1.13,2.72,2.72,0,0,1,2.21,1.11,5.05,5.05,0,0,1,.88,3.21V530h-5.08a3.62,3.62,0,0,0,.65,2.11,1.75,1.75,0,0,0,1.41.71C424.81,532.8,425.41,532.24,425.75,531.1ZM422,528.83h3.8a3.18,3.18,0,0,0-.46-1.61,1.68,1.68,0,0,0-2.73-.13A2.82,2.82,0,0,0,422,528.83Z"/><path class="cls-4" d="M432.05,533.77v-8.29h1v1.25a3.5,3.5,0,0,1,.73-1.16,1.11,1.11,0,0,1,.75-.28,2,2,0,0,1,1.18.45l-.4,1.31a1.38,1.38,0,0,0-.83-.31,1,1,0,0,0-.67.26,1.31,1.31,0,0,0-.43.72,6.31,6.31,0,0,0-.22,1.71v4.34Z"/><path class="cls-4" d="M440.87,533.77v-1.22a3,3,0,0,1-.94,1.06,2.35,2.35,0,0,1-2.59-.08,2.1,2.1,0,0,1-.76-1.1,6.71,6.71,0,0,1-.19-1.81v-5.14h1.14v4.6a7.58,7.58,0,0,0,.13,1.71,1.38,1.38,0,0,0,.48.7,1.31,1.31,0,0,0,.79.26,1.66,1.66,0,0,0,1.36-.68,3.7,3.7,0,0,0,.46-2.15v-4.44h1.15v8.29Z"/><path class="cls-4" d="M443.67,533.77V522.32h1.15v11.45Z"/><path class="cls-4" d="M451.28,531.1l1.18.18a3.58,3.58,0,0,1-1.07,2,2.84,2.84,0,0,1-1.93.67,2.89,2.89,0,0,1-2.34-1.1,4.92,4.92,0,0,1-.89-3.16,5.15,5.15,0,0,1,.9-3.28,2.82,2.82,0,0,1,2.29-1.13,2.71,2.71,0,0,1,2.2,1.11,5.05,5.05,0,0,1,.88,3.21V530h-5.08a3.48,3.48,0,0,0,.65,2.11,1.72,1.72,0,0,0,1.4.71C450.34,532.8,450.94,532.24,451.28,531.1Zm-3.79-2.27h3.79a3.08,3.08,0,0,0-.46-1.61,1.68,1.68,0,0,0-2.73-.13A2.76,2.76,0,0,0,447.49,528.83Z"/><path class="cls-4" d="M454.26,533.77v-1.6h1.31v1.6a3.25,3.25,0,0,1-.27,1.46,1.89,1.89,0,0,1-.8.81l-.32-.6a1.2,1.2,0,0,0,.53-.56,2.78,2.78,0,0,0,.2-1.11Z"/><path class="cls-4" d="M378.79,32.83V21.35h1.06v1.08a2.7,2.7,0,0,1,.87-1,2,2,0,0,1,1.09-.3,2.36,2.36,0,0,1,1.45.48,3.26,3.26,0,0,1,1,1.45,6.09,6.09,0,0,1,.4,2.34,5.23,5.23,0,0,1-.89,3.26,2.59,2.59,0,0,1-2.08,1.15,1.83,1.83,0,0,1-1-.28,2.44,2.44,0,0,1-.8-.77v4Zm1-7.28a4.15,4.15,0,0,0,.54,2.37,1.56,1.56,0,0,0,1.3.76,1.54,1.54,0,0,0,1.28-.79,4.29,4.29,0,0,0,.56-2.44,4.26,4.26,0,0,0-.54-2.4,1.42,1.42,0,0,0-2.57.06A4.33,4.33,0,0,0,379.84,25.55Z"/><path class="cls-4" d="M385.65,25.5a5,5,0,0,1,.9-3.24,2.91,2.91,0,0,1,4.56,0,4.79,4.79,0,0,1,.92,3.15,5.17,5.17,0,0,1-.9,3.33,2.92,2.92,0,0,1-4.57,0A5,5,0,0,1,385.65,25.5Zm1.18,0a4,4,0,0,0,.59,2.39,1.74,1.74,0,0,0,1.45.79,1.67,1.67,0,0,0,1.39-.79,4,4,0,0,0,.59-2.39,4,4,0,0,0-.59-2.39,1.74,1.74,0,0,0-1.45-.79,1.68,1.68,0,0,0-1.4.79A4,4,0,0,0,386.83,25.5Z"/><path class="cls-4" d="M392.94,27.16l1.15-.21a2.06,2.06,0,0,0,.55,1.3,1.94,1.94,0,0,0,2.36.06,1.23,1.23,0,0,0,.41-.94.93.93,0,0,0-.35-.77,4.64,4.64,0,0,0-1.17-.47,8.28,8.28,0,0,1-1.8-.7,1.93,1.93,0,0,1-.7-.77,2.36,2.36,0,0,1-.25-1.11,2.28,2.28,0,0,1,.68-1.72,2.58,2.58,0,0,1,1.88-.67,3,3,0,0,1,1.33.28,2.06,2.06,0,0,1,.88.73,3.3,3.3,0,0,1,.42,1.32l-1.12.19a1.35,1.35,0,0,0-1.48-1.36,1.76,1.76,0,0,0-1.12.3,1,1,0,0,0-.36.77.85.85,0,0,0,.35.72,6.55,6.55,0,0,0,1.25.5,9.4,9.4,0,0,1,1.85.72,1.89,1.89,0,0,1,.66.74,2.51,2.51,0,0,1,.23,1.1,2.55,2.55,0,0,1-.76,1.93,2.8,2.8,0,0,1-2.05.74C394.15,29.84,393.2,29,392.94,27.16Z"/><path class="cls-4" d="M400,19.81V18.2h1.15v1.61Zm0,9.84v-8.3h1.15v8.3Z"/><path class="cls-4" d="M405.42,28.39l.16,1.24a3.15,3.15,0,0,1-.86.13,1.76,1.76,0,0,1-1-.24,1.24,1.24,0,0,1-.5-.65,6.39,6.39,0,0,1-.14-1.65V22.45h-.84v-1.1h.84V19.3l1.15-.85v2.9h1.16v1.1h-1.16V27.3a2.2,2.2,0,0,0,.1.86.58.58,0,0,0,.56.29A2.67,2.67,0,0,0,405.42,28.39Z"/><path class="cls-4" d="M406.51,19.81V18.2h1.15v1.61Zm0,9.84v-8.3h1.15v8.3Z"/><path class="cls-4" d="M409,25.5a5,5,0,0,1,.9-3.24,2.91,2.91,0,0,1,4.56,0,4.79,4.79,0,0,1,.91,3.15,5.17,5.17,0,0,1-.9,3.33,2.91,2.91,0,0,1-4.56,0A5,5,0,0,1,409,25.5Zm1.18,0a4,4,0,0,0,.58,2.39,1.75,1.75,0,0,0,1.46.79,1.69,1.69,0,0,0,1.39-.79,4,4,0,0,0,.58-2.39,4,4,0,0,0-.58-2.39,1.75,1.75,0,0,0-1.46-.79,1.67,1.67,0,0,0-1.39.79A4,4,0,0,0,410.17,25.5Z"/><path class="cls-4" d="M416.72,29.65v-8.3h1v1.17a2.78,2.78,0,0,1,.92-1,2.33,2.33,0,0,1,1.24-.34,2.41,2.41,0,0,1,1,.22,2.05,2.05,0,0,1,.75.56,2.21,2.21,0,0,1,.42.9,7.11,7.11,0,0,1,.15,1.71v5.1H421.1v-5a4.28,4.28,0,0,0-.16-1.34,1.3,1.3,0,0,0-.49-.65,1.27,1.27,0,0,0-.77-.23,1.6,1.6,0,0,0-1.32.61,3.46,3.46,0,0,0-.49,2.12v4.54Z"/><path class="cls-4" d="M24.35,280.3v1.35H18.14a3.79,3.79,0,0,1,.5-1.84,10.09,10.09,0,0,1,1.9-2.4,13.65,13.65,0,0,0,2.12-2.49,3.39,3.39,0,0,0,.5-1.64,2,2,0,0,0-.52-1.42,1.65,1.65,0,0,0-1.26-.56,1.68,1.68,0,0,0-1.32.6,2.57,2.57,0,0,0-.51,1.71l-1.19-.15a3.85,3.85,0,0,1,.93-2.48,2.85,2.85,0,0,1,2.13-.83,2.56,2.56,0,0,1,2.18,1,3.54,3.54,0,0,1,.74,2.2,4.21,4.21,0,0,1-.58,2.1,15.77,15.77,0,0,1-2.2,2.67c-.68.71-1.13,1.19-1.33,1.44a4.71,4.71,0,0,0-.49.77Z"/><path class="cls-4" d="M25.57,276a9.67,9.67,0,0,1,.78-4.37,2.46,2.46,0,0,1,2.29-1.48,2.4,2.4,0,0,1,2.12,1.2A8.89,8.89,0,0,1,31.7,276a9.68,9.68,0,0,1-.78,4.36,2.46,2.46,0,0,1-2.3,1.48,2.53,2.53,0,0,1-2.19-1.31A8.72,8.72,0,0,1,25.57,276Zm1.18,0a8.61,8.61,0,0,0,.54,3.74,1.56,1.56,0,0,0,1.37.95,1.53,1.53,0,0,0,1.32-1,13.22,13.22,0,0,0,0-7.48,1.59,1.59,0,0,0-1.39-.95,1.52,1.52,0,0,0-1.31,1A8.78,8.78,0,0,0,26.75,276Z"/><path class="cls-4" d="M560.11,29.65,558,21.35h1.19l1.08,4.79.4,1.78.36-1.71,1.08-4.86h1.19l1,4.81.35,1.59.39-1.6,1.16-4.8h1.12l-2.12,8.3H564l-1.09-5-.26-1.41-1.37,6.38Zm7.78-4.15a5,5,0,0,1,.9-3.24,2.91,2.91,0,0,1,4.56,0,4.79,4.79,0,0,1,.91,3.15,5.17,5.17,0,0,1-.9,3.33,2.91,2.91,0,0,1-4.56,0A5,5,0,0,1,567.89,25.5Zm1.18,0a4,4,0,0,0,.58,2.39,1.75,1.75,0,0,0,1.45.79,1.72,1.72,0,0,0,1.4-.79,4,4,0,0,0,.58-2.39,4,4,0,0,0-.58-2.39,1.77,1.77,0,0,0-1.46-.79,1.7,1.7,0,0,0-1.4.79A4.09,4.09,0,0,0,569.07,25.5Zm6.55,4.15v-8.3h1v1.26a3.5,3.5,0,0,1,.73-1.16,1.12,1.12,0,0,1,.75-.29,2,2,0,0,1,1.17.46l-.39,1.3a1.43,1.43,0,0,0-.83-.3,1,1,0,0,0-.67.25,1.39,1.39,0,0,0-.43.72,6.36,6.36,0,0,0-.22,1.71v4.35Zm4.33,0V18.2h1.15V29.65Zm7.36,0v-1a2.36,2.36,0,0,1-.81.92,1.94,1.94,0,0,1-1.06.32,2.57,2.57,0,0,1-2.08-1.14,5.12,5.12,0,0,1-.88-3.2,6.56,6.56,0,0,1,.39-2.4,3.22,3.22,0,0,1,1-1.46,2.38,2.38,0,0,1,1.45-.48,1.94,1.94,0,0,1,1,.3,2.51,2.51,0,0,1,.81.84V18.2h1.16V29.65Zm-3.65-4.14a4.07,4.07,0,0,0,.56,2.39,1.58,1.58,0,0,0,1.3.78,1.55,1.55,0,0,0,1.27-.75,3.9,3.9,0,0,0,.54-2.27,4.63,4.63,0,0,0-.54-2.54,1.6,1.6,0,0,0-1.36-.8,1.52,1.52,0,0,0-1.25.77A4.37,4.37,0,0,0,583.66,25.51Zm14.59,4.14v-1a2.36,2.36,0,0,1-.81.92,1.91,1.91,0,0,1-1.06.32,2.58,2.58,0,0,1-2.08-1.14,5.12,5.12,0,0,1-.88-3.2,6.56,6.56,0,0,1,.39-2.4,3.29,3.29,0,0,1,1-1.46,2.4,2.4,0,0,1,1.45-.48,2,2,0,0,1,1.06.3,2.58,2.58,0,0,1,.8.84V18.2h1.17V29.65Zm-3.65-4.14a4.15,4.15,0,0,0,.56,2.39,1.6,1.6,0,0,0,1.3.78,1.56,1.56,0,0,0,1.28-.75,3.9,3.9,0,0,0,.54-2.27,4.63,4.63,0,0,0-.54-2.54,1.61,1.61,0,0,0-1.36-.8,1.52,1.52,0,0,0-1.26.77A4.46,4.46,0,0,0,594.6,25.51ZM604,28.68c.87,0,1.47-.57,1.81-1.7l1.19.18a3.62,3.62,0,0,1-1.08,2,2.83,2.83,0,0,1-1.92.68,2.86,2.86,0,0,1-2.34-1.1,4.89,4.89,0,0,1-.9-3.17,5.19,5.19,0,0,1,.9-3.28,2.82,2.82,0,0,1,2.29-1.13,2.71,2.71,0,0,1,2.2,1.11,5.05,5.05,0,0,1,.88,3.21v.38h-5.08a3.6,3.6,0,0,0,.65,2.11,1.75,1.75,0,0,0,1.4.71Zm-2-4h3.8a3.2,3.2,0,0,0-.47-1.61A1.68,1.68,0,0,0,602.6,23,2.82,2.82,0,0,0,602,24.7Zm6.75,4.95v-7.2h-1v-1.1h1v-.8a3.14,3.14,0,0,1,.48-1.95,1.62,1.62,0,0,1,1.33-.6,3.68,3.68,0,0,1,1.17.18l-.18,1.19a2.81,2.81,0,0,0-.62-.07,1,1,0,0,0-.81.28,2.22,2.22,0,0,0-.22,1.23v.54h1.32v1.1H609.9v7.2Zm3.33-9.84V18.2h1.15v1.61Zm0,9.84v-8.3h1.15v8.3Zm2.92,0v-8.3h1v1.17a2.78,2.78,0,0,1,.92-1,2.43,2.43,0,0,1,2.25-.12,2.05,2.05,0,0,1,.75.56,2.36,2.36,0,0,1,.43.9,7.81,7.81,0,0,1,.14,1.71v5.1h-1.15v-5a4,4,0,0,0-.16-1.34,1.28,1.28,0,0,0-.48-.65,1.3,1.3,0,0,0-.77-.24,1.59,1.59,0,0,0-1.32.62,3.45,3.45,0,0,0-.5,2.12v4.54Zm10.13-1c.87,0,1.47-.57,1.81-1.7l1.19.18a3.62,3.62,0,0,1-1.08,2,2.83,2.83,0,0,1-1.92.68,2.86,2.86,0,0,1-2.34-1.1,4.89,4.89,0,0,1-.9-3.17,5.19,5.19,0,0,1,.9-3.28,2.84,2.84,0,0,1,2.29-1.13,2.71,2.71,0,0,1,2.2,1.11,5.05,5.05,0,0,1,.89,3.21v.38h-5.08a3.6,3.6,0,0,0,.65,2.11,1.75,1.75,0,0,0,1.4.71Zm-2-4H627a3.21,3.21,0,0,0-.46-1.61,1.69,1.69,0,0,0-1.42-.77,1.72,1.72,0,0,0-1.32.64A2.88,2.88,0,0,0,623.15,24.7ZM634,29.65v-1a2.34,2.34,0,0,1-.8.92,1.94,1.94,0,0,1-1.06.32A2.58,2.58,0,0,1,630,28.7a5.18,5.18,0,0,1-.87-3.2,6.57,6.57,0,0,1,.38-2.4,3.23,3.23,0,0,1,1.05-1.46,2.35,2.35,0,0,1,1.44-.48,2,2,0,0,1,1.06.3,2.71,2.71,0,0,1,.81.84V18.2h1.16V29.65Zm-3.65-4.14a4.15,4.15,0,0,0,.56,2.39,1.61,1.61,0,0,0,1.31.78,1.55,1.55,0,0,0,1.27-.75,3.9,3.9,0,0,0,.54-2.27,4.63,4.63,0,0,0-.54-2.54,1.6,1.6,0,0,0-1.36-.8,1.5,1.5,0,0,0-1.25.77A4.36,4.36,0,0,0,630.34,25.51Zm11.25,4.14h-1.07V18.2h1.15v4.08a2.77,2.77,0,0,1,.83-.84,2,2,0,0,1,1-.28,2.4,2.4,0,0,1,1.45.48,3.26,3.26,0,0,1,1,1.45,6.28,6.28,0,0,1,.39,2.35,5.22,5.22,0,0,1-.88,3.25,2.59,2.59,0,0,1-2.07,1.15,2,2,0,0,1-1.07-.31,2.54,2.54,0,0,1-.81-.92Zm0-4.21a6.18,6.18,0,0,0,.23,1.93,2.13,2.13,0,0,0,.67,1,1.48,1.48,0,0,0,.95.34,1.56,1.56,0,0,0,1.27-.8,4.22,4.22,0,0,0,.55-2.4,4.29,4.29,0,0,0-.53-2.39,1.45,1.45,0,0,0-2.58,0A4,4,0,0,0,641.57,25.44Zm7,7.58a1.85,1.85,0,0,1-.74-.18l-.13-1.32a2.06,2.06,0,0,0,.66.13,1.15,1.15,0,0,0,.61-.15,1.13,1.13,0,0,0,.39-.46q.06-.11.45-1.38l-2.58-8.31h1.24l1.42,4.8c.18.6.34,1.24.49,1.92.13-.64.29-1.27.47-1.89l1.45-4.83h1.16l-2.58,8.44A16.16,16.16,0,0,1,650,32a2.07,2.07,0,0,1-.67.79,1.53,1.53,0,0,1-.84.25Zm9.5-.19V21.35h1.07v1.08a2.77,2.77,0,0,1,.86-1,2,2,0,0,1,1.09-.3,2.41,2.41,0,0,1,1.46.48,3.34,3.34,0,0,1,1,1.45,6.3,6.3,0,0,1,.39,2.34,5.16,5.16,0,0,1-.89,3.26A2.59,2.59,0,0,1,661,29.84a2,2,0,0,1-1-.28,2.54,2.54,0,0,1-.8-.77v4Zm1.05-7.28a4.15,4.15,0,0,0,.54,2.37,1.47,1.47,0,0,0,2.59,0,4.3,4.3,0,0,0,.55-2.44,4.26,4.26,0,0,0-.54-2.4,1.42,1.42,0,0,0-2.57.06A4.33,4.33,0,0,0,659.08,25.55ZM670,29.65a3.64,3.64,0,0,1-.23-1,4.23,4.23,0,0,1-1.2.91,3,3,0,0,1-1.3.31,2.32,2.32,0,0,1-1.7-.64,2.37,2.37,0,0,1-.63-1.73,2.62,2.62,0,0,1,.3-1.27,2.27,2.27,0,0,1,.81-.87,4.33,4.33,0,0,1,1.56-.46,8.4,8.4,0,0,0,2.07-.5V24a1.85,1.85,0,0,0-.3-1.2,1.67,1.67,0,0,0-1.32-.5,1.83,1.83,0,0,0-1.2.33,2.21,2.21,0,0,0-.59,1.26l-1.13-.19a3.18,3.18,0,0,1,1-1.95,3.26,3.26,0,0,1,2.11-.61,3,3,0,0,1,1.68.41,1.71,1.71,0,0,1,.77,1,7,7,0,0,1,.16,1.74v1.87c0,1.31,0,2.14.07,2.48a3.6,3.6,0,0,0,.3,1Zm-.32-4.17a7.44,7.44,0,0,1-1.89.54,3.33,3.33,0,0,0-1,.28,1.21,1.21,0,0,0-.45.45,1.37,1.37,0,0,0-.16.68,1.24,1.24,0,0,0,.37.95,1.37,1.37,0,0,0,1,.35,2,2,0,0,0,1.12-.32,2,2,0,0,0,.76-.85,4,4,0,0,0,.25-1.56Zm3,4.17v-8.3h1v1.26a3.35,3.35,0,0,1,.73-1.16,1.12,1.12,0,0,1,.74-.29,2,2,0,0,1,1.18.46l-.39,1.3a1.46,1.46,0,0,0-.83-.3,1,1,0,0,0-.68.25,1.53,1.53,0,0,0-.43.72,6.79,6.79,0,0,0-.22,1.71v4.35Zm7.21-1c.86,0,1.46-.57,1.8-1.7l1.19.18a3.67,3.67,0,0,1-1.07,2,2.84,2.84,0,0,1-1.93.68,2.89,2.89,0,0,1-2.34-1.1,4.89,4.89,0,0,1-.89-3.17,5.19,5.19,0,0,1,.9-3.28,2.8,2.8,0,0,1,2.28-1.13A2.72,2.72,0,0,1,682,22.27a5.05,5.05,0,0,1,.88,3.21v.38h-5.08a3.67,3.67,0,0,0,.65,2.11,1.78,1.78,0,0,0,1.41.71Zm-2-4h3.8a3.21,3.21,0,0,0-.46-1.61,1.68,1.68,0,0,0-2.73-.13A2.82,2.82,0,0,0,677.85,24.7Zm6.44,4.95v-8.3h1v1.17a2.7,2.7,0,0,1,.92-1,2.33,2.33,0,0,1,1.24-.34,2.44,2.44,0,0,1,1,.22,2.05,2.05,0,0,1,.75.56,2.21,2.21,0,0,1,.42.9,7.23,7.23,0,0,1,.14,1.71v5.1h-1.14v-5a4.28,4.28,0,0,0-.16-1.34,1.36,1.36,0,0,0-.49-.65,1.28,1.28,0,0,0-.77-.24,1.61,1.61,0,0,0-1.32.62,3.46,3.46,0,0,0-.49,2.12v4.54Zm9.35-1.2a2.86,2.86,0,0,0,.51-.06l.15,1.24a3.09,3.09,0,0,1-.85.13,1.72,1.72,0,0,1-1-.24,1.21,1.21,0,0,1-.51-.65,6.54,6.54,0,0,1-.13-1.65V22.45H691v-1.1h.85V19.3l1.14-.85v2.9h1.17v1.1H693V27.3a2.17,2.17,0,0,0,.11.86.56.56,0,0,0,.55.29Z"/><path class="cls-4" d="M559.91,48.85h-1.07V37.4H560v4.08a2.77,2.77,0,0,1,.83-.84,2,2,0,0,1,1-.28,2.4,2.4,0,0,1,1.45.48,3.26,3.26,0,0,1,1,1.45,6.28,6.28,0,0,1,.39,2.35,5.22,5.22,0,0,1-.88,3.25A2.59,2.59,0,0,1,561.79,49a2,2,0,0,1-1.07-.31,2.63,2.63,0,0,1-.81-.92Zm0-4.21a6.18,6.18,0,0,0,.23,1.93,2.13,2.13,0,0,0,.67,1,1.5,1.5,0,0,0,1,.34,1.56,1.56,0,0,0,1.26-.8,4.24,4.24,0,0,0,.55-2.4,4.29,4.29,0,0,0-.53-2.39,1.45,1.45,0,0,0-2.58,0A4.08,4.08,0,0,0,559.89,44.64Z"/><path class="cls-4" d="M570.8,46.18l1.18.18a3.55,3.55,0,0,1-1.07,2A2.84,2.84,0,0,1,569,49a2.89,2.89,0,0,1-2.34-1.1,5,5,0,0,1-.89-3.17,5.19,5.19,0,0,1,.9-3.28,2.82,2.82,0,0,1,2.29-1.13,2.71,2.71,0,0,1,2.2,1.11,5.05,5.05,0,0,1,.88,3.21v.38h-5.08a3.5,3.5,0,0,0,.65,2.11,1.75,1.75,0,0,0,1.4.71C569.86,47.88,570.46,47.31,570.8,46.18ZM567,43.9h3.79a3.11,3.11,0,0,0-.46-1.61,1.68,1.68,0,0,0-1.41-.77,1.67,1.67,0,0,0-1.32.65A2.77,2.77,0,0,0,567,43.9Z"/><path class="cls-4" d="M573.77,48.85v-7.2h-1v-1.1h1v-.88a4,4,0,0,1,.2-1.47,1.56,1.56,0,0,1,.62-.74,2,2,0,0,1,1.06-.26,4.5,4.5,0,0,1,1.08.15l-.18,1.22a3.22,3.22,0,0,0-.67-.08.9.9,0,0,0-.74.27,1.67,1.67,0,0,0-.23,1v.76h1.33v1.1h-1.33v7.2Z"/><path class="cls-4" d="M576.66,44.7a5,5,0,0,1,.9-3.24,2.91,2.91,0,0,1,4.56,0,4.79,4.79,0,0,1,.91,3.15,5.17,5.17,0,0,1-.9,3.33,2.91,2.91,0,0,1-4.56,0A5,5,0,0,1,576.66,44.7Zm1.18,0a4,4,0,0,0,.58,2.39,1.75,1.75,0,0,0,1.46.79,1.69,1.69,0,0,0,1.39-.79,4,4,0,0,0,.58-2.39,4,4,0,0,0-.58-2.39,1.75,1.75,0,0,0-1.46-.79,1.7,1.7,0,0,0-1.4.79A4.09,4.09,0,0,0,577.84,44.7Z"/><path class="cls-4" d="M584.39,48.85v-8.3h1v1.26a3.67,3.67,0,0,1,.73-1.16,1.12,1.12,0,0,1,.75-.29,2,2,0,0,1,1.18.46l-.39,1.3a1.49,1.49,0,0,0-.84-.3,1,1,0,0,0-.67.26,1.32,1.32,0,0,0-.43.71,6.36,6.36,0,0,0-.22,1.71v4.35Z"/><path class="cls-4" d="M593.41,46.18l1.18.18a3.55,3.55,0,0,1-1.07,2,2.84,2.84,0,0,1-1.93.68,2.89,2.89,0,0,1-2.34-1.1,5,5,0,0,1-.89-3.17,5.19,5.19,0,0,1,.9-3.28,2.81,2.81,0,0,1,2.29-1.13,2.71,2.71,0,0,1,2.2,1.11,5.05,5.05,0,0,1,.88,3.21v.38h-5.07a3.5,3.5,0,0,0,.65,2.11,1.75,1.75,0,0,0,1.4.71C592.47,47.88,593.07,47.31,593.41,46.18Zm-3.79-2.28h3.79a3.11,3.11,0,0,0-.46-1.61,1.68,1.68,0,0,0-1.41-.77,1.67,1.67,0,0,0-1.32.65A2.71,2.71,0,0,0,589.62,43.9Z"/><path class="cls-4" d="M600.76,48.85h-1.07V37.4h1.15v4.08a2.8,2.8,0,0,1,.84-.84,2,2,0,0,1,1-.28,2.38,2.38,0,0,1,1.45.48,3.26,3.26,0,0,1,1,1.45,6.28,6.28,0,0,1,.39,2.35,5.22,5.22,0,0,1-.88,3.25A2.59,2.59,0,0,1,602.64,49a1.94,1.94,0,0,1-1.06-.31,2.56,2.56,0,0,1-.82-.92Zm0-4.21a5.85,5.85,0,0,0,.24,1.93,2,2,0,0,0,.66,1,1.5,1.5,0,0,0,1,.34,1.56,1.56,0,0,0,1.26-.8,4.24,4.24,0,0,0,.55-2.4,4.21,4.21,0,0,0-.53-2.39,1.56,1.56,0,0,0-1.31-.77,1.58,1.58,0,0,0-1.27.8A4.08,4.08,0,0,0,600.74,44.64Z"/><path class="cls-4" d="M611.65,46.18l1.19.18a3.62,3.62,0,0,1-1.08,2,2.83,2.83,0,0,1-1.92.68,2.86,2.86,0,0,1-2.34-1.1,4.89,4.89,0,0,1-.9-3.17,5.19,5.19,0,0,1,.9-3.28,2.84,2.84,0,0,1,2.29-1.13,2.71,2.71,0,0,1,2.2,1.11,5.05,5.05,0,0,1,.89,3.21v.38h-5.08a3.57,3.57,0,0,0,.65,2.11,1.75,1.75,0,0,0,1.4.71C610.71,47.88,611.31,47.31,611.65,46.18Zm-3.79-2.28h3.8a3.32,3.32,0,0,0-.46-1.61,1.68,1.68,0,0,0-2.74-.12A2.83,2.83,0,0,0,607.86,43.9Z"/><path class="cls-4" d="M614.3,39V37.4h1.15V39Zm0,9.84v-8.3h1.15v8.3Z"/><path class="cls-4" d="M617.21,48.85v-8.3h1v1.17a2.7,2.7,0,0,1,.92-1,2.33,2.33,0,0,1,1.24-.34,2.44,2.44,0,0,1,1,.22,2.05,2.05,0,0,1,.75.56,2.21,2.21,0,0,1,.42.9,7.23,7.23,0,0,1,.14,1.71v5.1h-1.14V43.8a4.28,4.28,0,0,0-.16-1.34,1.3,1.3,0,0,0-.49-.65,1.27,1.27,0,0,0-.77-.23,1.6,1.6,0,0,0-1.32.61,3.46,3.46,0,0,0-.49,2.12v4.54Z"/><path class="cls-4" d="M624.28,49.54l1.13.2a1.39,1.39,0,0,0,.47,1,1.62,1.62,0,0,0,1.08.33,1.88,1.88,0,0,0,1.21-.36,1.91,1.91,0,0,0,.61-1.09,10,10,0,0,0,.1-1.84,2.68,2.68,0,0,1-.84.81,2,2,0,0,1-1,.27,2.47,2.47,0,0,1-2-1,5,5,0,0,1-.93-3.18,6.23,6.23,0,0,1,.41-2.34,3.26,3.26,0,0,1,1.07-1.47,2.51,2.51,0,0,1,1.48-.47,2.12,2.12,0,0,1,1.1.3,2.71,2.71,0,0,1,.87.88v-1h1.07v7.17a8.28,8.28,0,0,1-.32,2.73,2.57,2.57,0,0,1-1,1.29,3,3,0,0,1-1.71.48,2.72,2.72,0,0,1-2-.72A2.6,2.6,0,0,1,624.28,49.54Zm1-5a4.16,4.16,0,0,0,.54,2.39,1.57,1.57,0,0,0,2.66,0,4,4,0,0,0,.55-2.35,3.9,3.9,0,0,0-.57-2.33,1.67,1.67,0,0,0-1.37-.76,1.56,1.56,0,0,0-1.26.76A3.94,3.94,0,0,0,625.23,44.55Z"/><path class="cls-4" d="M639.88,47.83a4.1,4.1,0,0,1-1.2.9,3,3,0,0,1-1.3.31,2.28,2.28,0,0,1-1.69-.64,2.38,2.38,0,0,1-.64-1.73,2.62,2.62,0,0,1,.3-1.27,2.27,2.27,0,0,1,.81-.87,4.33,4.33,0,0,1,1.57-.46,9,9,0,0,0,2.06-.49v-.36a1.78,1.78,0,0,0-.31-1.2,1.64,1.64,0,0,0-1.32-.5,1.85,1.85,0,0,0-1.2.33,2.21,2.21,0,0,0-.59,1.26l-1.13-.19a3.18,3.18,0,0,1,1-2,3.27,3.27,0,0,1,2.11-.61,3,3,0,0,1,1.68.41,1.7,1.7,0,0,1,.77,1A7,7,0,0,1,641,43.5v1.87a23.12,23.12,0,0,0,.08,2.48,3.58,3.58,0,0,0,.29,1h-1.2A3.64,3.64,0,0,1,639.88,47.83Zm-.09-3.15a7.34,7.34,0,0,1-1.88.54,3.33,3.33,0,0,0-1,.28,1.21,1.21,0,0,0-.45.45,1.39,1.39,0,0,0-.16.68,1.24,1.24,0,0,0,.37.95,1.37,1.37,0,0,0,1,.35,2,2,0,0,0,1.88-1.17,3.78,3.78,0,0,0,.25-1.56Z"/><path class="cls-4" d="M642.71,48.85V37.4h1.15V48.85Z"/><path class="cls-4" d="M645.62,48.85V37.4h1.15V48.85Z"/><path class="cls-4" d="M648.14,44.7a5,5,0,0,1,.9-3.24,2.91,2.91,0,0,1,4.56,0,4.79,4.79,0,0,1,.92,3.15,5.17,5.17,0,0,1-.9,3.33,2.92,2.92,0,0,1-4.57,0A5,5,0,0,1,648.14,44.7Zm1.18,0a4,4,0,0,0,.59,2.39,1.74,1.74,0,0,0,1.45.79,1.67,1.67,0,0,0,1.39-.79,4,4,0,0,0,.59-2.39,4,4,0,0,0-.59-2.39,1.74,1.74,0,0,0-1.45-.79,1.68,1.68,0,0,0-1.4.79A4,4,0,0,0,649.32,44.7Z"/><path class="cls-4" d="M657.13,48.85,655,40.55h1.19l1.08,4.79.4,1.78.36-1.71,1.08-4.86h1.19l1,4.81L661.7,47l.39-1.6,1.16-4.8h1.13l-2.13,8.3h-1.2l-1.09-5-.25-1.41-1.38,6.38Z"/><path class="cls-4" d="M670,46.18l1.19.18a3.67,3.67,0,0,1-1.07,2,2.84,2.84,0,0,1-1.93.68,2.89,2.89,0,0,1-2.34-1.1,4.89,4.89,0,0,1-.89-3.17,5.19,5.19,0,0,1,.9-3.28,2.8,2.8,0,0,1,2.28-1.13,2.72,2.72,0,0,1,2.21,1.11,5.11,5.11,0,0,1,.88,3.21v.38h-5.08a3.64,3.64,0,0,0,.65,2.11,1.78,1.78,0,0,0,1.41.71C669.05,47.88,669.65,47.31,670,46.18ZM666.2,43.9H670a3.21,3.21,0,0,0-.46-1.61,1.68,1.68,0,0,0-2.74-.12A2.83,2.83,0,0,0,666.2,43.9Z"/><path class="cls-4" d="M677.05,48.85V47.8a2.36,2.36,0,0,1-.81.92,1.94,1.94,0,0,1-1.06.32,2.57,2.57,0,0,1-2.08-1.14,5.1,5.1,0,0,1-.88-3.2,6.56,6.56,0,0,1,.39-2.4,3.29,3.29,0,0,1,1-1.46,2.38,2.38,0,0,1,1.45-.48,1.87,1.87,0,0,1,1,.31,2.39,2.39,0,0,1,.81.83V37.4h1.16V48.85Zm-3.65-4.14A4.07,4.07,0,0,0,674,47.1a1.58,1.58,0,0,0,1.3.78,1.55,1.55,0,0,0,1.27-.75,3.88,3.88,0,0,0,.54-2.27,4.66,4.66,0,0,0-.54-2.54,1.6,1.6,0,0,0-1.36-.8,1.52,1.52,0,0,0-1.25.77A4.37,4.37,0,0,0,673.4,44.71Z"/><path class="cls-4" d="M686.15,47.59l.15,1.24a3.09,3.09,0,0,1-.85.13,1.72,1.72,0,0,1-1-.24,1.21,1.21,0,0,1-.51-.65,6.54,6.54,0,0,1-.13-1.65V41.65H683v-1.1h.85v-2l1.14-.85v2.9h1.17v1.1H685V46.5a2.14,2.14,0,0,0,.11.86.56.56,0,0,0,.55.29A2.86,2.86,0,0,0,686.15,47.59Z"/><path class="cls-4" d="M686.8,44.7a5,5,0,0,1,.9-3.24,2.91,2.91,0,0,1,4.56,0,4.79,4.79,0,0,1,.91,3.15,5.17,5.17,0,0,1-.9,3.33,2.91,2.91,0,0,1-4.56,0A5,5,0,0,1,686.8,44.7Zm1.18,0a4,4,0,0,0,.58,2.39,1.75,1.75,0,0,0,1.46.79,1.69,1.69,0,0,0,1.39-.79A4,4,0,0,0,692,44.7a4,4,0,0,0-.58-2.39,1.75,1.75,0,0,0-1.46-.79,1.7,1.7,0,0,0-1.4.79A4.09,4.09,0,0,0,688,44.7Z"/><path class="cls-4" d="M558.85,68.05v-8.3h1V61a3.67,3.67,0,0,1,.73-1.16,1.12,1.12,0,0,1,.75-.29,2,2,0,0,1,1.18.46l-.39,1.3a1.49,1.49,0,0,0-.84-.3,1,1,0,0,0-.67.26,1.38,1.38,0,0,0-.43.71,6.38,6.38,0,0,0-.22,1.72v4.34Z"/><path class="cls-4" d="M562.78,63.9a5,5,0,0,1,.9-3.24,2.91,2.91,0,0,1,4.56,0,4.79,4.79,0,0,1,.92,3.15,5.17,5.17,0,0,1-.9,3.33,2.92,2.92,0,0,1-4.57,0A5,5,0,0,1,562.78,63.9Zm1.18,0a4,4,0,0,0,.59,2.39,1.74,1.74,0,0,0,1.45.79,1.67,1.67,0,0,0,1.39-.79A4,4,0,0,0,568,63.9a4,4,0,0,0-.59-2.39,1.74,1.74,0,0,0-1.45-.79,1.68,1.68,0,0,0-1.4.79A4,4,0,0,0,564,63.9Z"/><path class="cls-4" d="M575,67a4.27,4.27,0,0,1-1.21.9,3,3,0,0,1-1.29.31,2.31,2.31,0,0,1-1.7-.64,2.37,2.37,0,0,1-.63-1.73,2.73,2.73,0,0,1,.29-1.27,2.22,2.22,0,0,1,.82-.87,4.2,4.2,0,0,1,1.56-.46,8.87,8.87,0,0,0,2.06-.49v-.36a1.78,1.78,0,0,0-.31-1.2,1.64,1.64,0,0,0-1.32-.5,1.87,1.87,0,0,0-1.2.33,2.21,2.21,0,0,0-.58,1.26l-1.14-.19a3.18,3.18,0,0,1,1-1.95,3.3,3.3,0,0,1,2.12-.61,3,3,0,0,1,1.68.41,1.79,1.79,0,0,1,.77,1A7.53,7.53,0,0,1,576,62.7v1.87a24.27,24.27,0,0,0,.07,2.48,3.94,3.94,0,0,0,.29,1h-1.2A3.33,3.33,0,0,1,575,67Zm-.1-3.15a7.34,7.34,0,0,1-1.88.54,3.42,3.42,0,0,0-1,.28,1.21,1.21,0,0,0-.45.45,1.51,1.51,0,0,0-.16.68,1.28,1.28,0,0,0,.37,1,1.39,1.39,0,0,0,1,.35A2,2,0,0,0,574.6,66a3.78,3.78,0,0,0,.25-1.56Z"/><path class="cls-4" d="M577.82,68.05v-8.3h1v1.16a2.69,2.69,0,0,1,.88-1,2.15,2.15,0,0,1,1.18-.35,2,2,0,0,1,1.21.37,2,2,0,0,1,.71,1.08,3.06,3.06,0,0,1,.94-1.08,2,2,0,0,1,1.17-.37,1.92,1.92,0,0,1,1.54.67,3.22,3.22,0,0,1,.57,2.12v5.7H585.9V62.82a4.19,4.19,0,0,0-.13-1.27,1.17,1.17,0,0,0-.42-.57,1.09,1.09,0,0,0-.65-.2,1.47,1.47,0,0,0-1.22.59,3,3,0,0,0-.47,1.85v4.83h-1.15v-5.4a2.48,2.48,0,0,0-.32-1.45,1,1,0,0,0-.87-.42,1.45,1.45,0,0,0-1.24.63,4.2,4.2,0,0,0-.46,2.33v4.31Z"/><path class="cls-4" d="M589.1,68.05v-1.6h1.31v1.6Z"/><path class="cls-4" d="M743.3,278.73l1.14.18a3.82,3.82,0,0,1-1,2.27,2.61,2.61,0,0,1-1.89.78,2.7,2.7,0,0,1-2.2-1.1,5.2,5.2,0,0,1-.86-3.24,5.1,5.1,0,0,1,.87-3.25,2.75,2.75,0,0,1,2.24-1.08,2.52,2.52,0,0,1,1.77.66,3.18,3.18,0,0,1,.93,2l-1.12.21a2.47,2.47,0,0,0-.57-1.26,1.29,1.29,0,0,0-1-.41,1.69,1.69,0,0,0-1.41.75,4,4,0,0,0-.56,2.39,4.45,4.45,0,0,0,.53,2.46,1.63,1.63,0,0,0,1.37.75,1.43,1.43,0,0,0,1.12-.5A2.74,2.74,0,0,0,743.3,278.73Z"/><path class="cls-4" d="M750.06,279.1l1.19.18a3.7,3.7,0,0,1-1.07,2,2.84,2.84,0,0,1-1.93.67,2.89,2.89,0,0,1-2.34-1.1,4.86,4.86,0,0,1-.89-3.16,5.15,5.15,0,0,1,.9-3.28,2.8,2.8,0,0,1,2.28-1.13,2.72,2.72,0,0,1,2.21,1.11,5.05,5.05,0,0,1,.88,3.21V278H746.2a3.62,3.62,0,0,0,.65,2.11,1.75,1.75,0,0,0,1.41.71C749.12,280.8,749.72,280.24,750.06,279.1Zm-3.79-2.27h3.8a3.18,3.18,0,0,0-.46-1.61,1.68,1.68,0,0,0-2.73-.13A2.82,2.82,0,0,0,746.27,276.83Z"/><path class="cls-4" d="M752.71,281.77v-8.29h1v1.25a3.67,3.67,0,0,1,.73-1.16,1.11,1.11,0,0,1,.75-.28,2,2,0,0,1,1.18.45l-.39,1.31a1.43,1.43,0,0,0-.84-.31,1,1,0,0,0-.67.26,1.31,1.31,0,0,0-.43.72,6.31,6.31,0,0,0-.22,1.71v4.34Z"/><path class="cls-4" d="M759.64,280.52l.16,1.24a3.61,3.61,0,0,1-.86.12,1.74,1.74,0,0,1-1-.24,1.18,1.18,0,0,1-.51-.65,6.43,6.43,0,0,1-.13-1.65v-4.77h-.85v-1.09h.85v-2.06l1.15-.84v2.9h1.16v1.09h-1.16v4.85a2.26,2.26,0,0,0,.1.87.56.56,0,0,0,.55.28A3.92,3.92,0,0,0,759.64,280.52Z"/><path class="cls-4" d="M765.16,280.75a4.52,4.52,0,0,1-1.21.91,2.94,2.94,0,0,1-1.29.3,2.27,2.27,0,0,1-1.7-.64,2.36,2.36,0,0,1-.63-1.73,2.73,2.73,0,0,1,.29-1.27,2.22,2.22,0,0,1,.82-.87A4.4,4.4,0,0,1,763,277a8.87,8.87,0,0,0,2.06-.49v-.36a1.8,1.8,0,0,0-.3-1.19,1.63,1.63,0,0,0-1.32-.5,1.88,1.88,0,0,0-1.21.33,2.18,2.18,0,0,0-.58,1.25l-1.14-.19a3.12,3.12,0,0,1,1-1.94,3.25,3.25,0,0,1,2.12-.61,3,3,0,0,1,1.68.4,1.77,1.77,0,0,1,.77,1,7.37,7.37,0,0,1,.16,1.73v1.88a24.27,24.27,0,0,0,.07,2.48,3.87,3.87,0,0,0,.29,1h-1.2A3.2,3.2,0,0,1,765.16,280.75Zm-.1-3.14a7,7,0,0,1-1.88.53,3.46,3.46,0,0,0-1,.29,1.08,1.08,0,0,0-.45.45,1.44,1.44,0,0,0-.16.67,1.26,1.26,0,0,0,.37.95,1.4,1.4,0,0,0,1,.36,2.09,2.09,0,0,0,1.12-.32,2,2,0,0,0,.75-.86,3.72,3.72,0,0,0,.25-1.56Z"/><path class="cls-4" d="M768,271.94v-1.62h1.15v1.62Zm0,9.83v-8.29h1.15v8.29Z"/><path class="cls-4" d="M770.94,281.77v-8.29h1v1.17a2.61,2.61,0,0,1,.91-1,2.28,2.28,0,0,1,1.25-.34,2.44,2.44,0,0,1,1,.21,2.08,2.08,0,0,1,.75.57,2.35,2.35,0,0,1,.42.9,7.77,7.77,0,0,1,.14,1.7v5.1h-1.15v-5a4.39,4.39,0,0,0-.15-1.34,1.36,1.36,0,0,0-.49-.65,1.34,1.34,0,0,0-.77-.23,1.61,1.61,0,0,0-1.32.62,3.46,3.46,0,0,0-.49,2.12v4.53Z"/><path class="cls-4" d="M781.88,271.94v-1.62H783v1.62Zm0,9.83v-8.29H783v8.29Z"/><path class="cls-4" d="M784.8,281.77v-8.29h1v1.17a2.61,2.61,0,0,1,.91-1,2.28,2.28,0,0,1,1.25-.34,2.44,2.44,0,0,1,1,.21,2,2,0,0,1,.74.57,2.22,2.22,0,0,1,.43.9,7.77,7.77,0,0,1,.14,1.7v5.1h-1.15v-5a4.39,4.39,0,0,0-.15-1.34,1.36,1.36,0,0,0-.49-.65,1.34,1.34,0,0,0-.77-.23,1.61,1.61,0,0,0-1.32.62,3.46,3.46,0,0,0-.49,2.12v4.53Z"/><path class="cls-4" d="M796.74,279.1l1.19.18a3.7,3.7,0,0,1-1.07,2,2.84,2.84,0,0,1-1.93.67,2.89,2.89,0,0,1-2.34-1.1,4.86,4.86,0,0,1-.89-3.16,5.15,5.15,0,0,1,.9-3.28,2.8,2.8,0,0,1,2.28-1.13,2.72,2.72,0,0,1,2.21,1.11,5.11,5.11,0,0,1,.88,3.21V278h-5.08a3.62,3.62,0,0,0,.65,2.11,1.75,1.75,0,0,0,1.41.71C795.8,280.8,796.4,280.24,796.74,279.1ZM793,276.83h3.8a3.18,3.18,0,0,0-.46-1.61,1.66,1.66,0,0,0-1.41-.77,1.69,1.69,0,0,0-1.33.64A2.88,2.88,0,0,0,793,276.83Z"/><path class="cls-4" d="M799,279.29l1.14-.22a2.1,2.1,0,0,0,.56,1.31,1.69,1.69,0,0,0,1.2.42,1.62,1.62,0,0,0,1.15-.37,1.18,1.18,0,0,0,.41-.94.88.88,0,0,0-.35-.76,4.27,4.27,0,0,0-1.17-.47,8.61,8.61,0,0,1-1.8-.71,2,2,0,0,1-.7-.77,2.54,2.54,0,0,1,.43-2.83,2.58,2.58,0,0,1,1.88-.66,3.14,3.14,0,0,1,1.34.27,2.13,2.13,0,0,1,.87.74,3,3,0,0,1,.43,1.32l-1.13.18a1.35,1.35,0,0,0-1.48-1.35,1.65,1.65,0,0,0-1.11.3.91.91,0,0,0-.37.76.85.85,0,0,0,.35.72,5.91,5.91,0,0,0,1.25.5,9.79,9.79,0,0,1,1.86.73,1.84,1.84,0,0,1,.65.73,2.39,2.39,0,0,1,.23,1.11,2.61,2.61,0,0,1-.75,1.93,2.82,2.82,0,0,1-2.06.73C800.15,282,799.21,281.07,799,279.29Z"/><path class="cls-4" d="M810.41,278.73l1.13.18a3.82,3.82,0,0,1-1,2.27,2.57,2.57,0,0,1-1.89.78,2.7,2.7,0,0,1-2.2-1.1,5.2,5.2,0,0,1-.86-3.24,5.1,5.1,0,0,1,.87-3.25,2.75,2.75,0,0,1,2.24-1.08,2.56,2.56,0,0,1,1.78.66,3.17,3.17,0,0,1,.92,2l-1.12.21a2.39,2.39,0,0,0-.57-1.26,1.29,1.29,0,0,0-1-.41,1.69,1.69,0,0,0-1.41.75,4.06,4.06,0,0,0-.56,2.39,4.45,4.45,0,0,0,.53,2.46,1.64,1.64,0,0,0,1.38.75,1.46,1.46,0,0,0,1.12-.5A2.81,2.81,0,0,0,810.41,278.73Z"/><path class="cls-4" d="M817,280.75a4.52,4.52,0,0,1-1.21.91,2.94,2.94,0,0,1-1.29.3,2.27,2.27,0,0,1-1.7-.64,2.36,2.36,0,0,1-.63-1.73,2.73,2.73,0,0,1,.29-1.27,2.22,2.22,0,0,1,.82-.87,4.4,4.4,0,0,1,1.56-.46,8.87,8.87,0,0,0,2.06-.49v-.36a1.73,1.73,0,0,0-.31-1.19,1.61,1.61,0,0,0-1.32-.5,1.87,1.87,0,0,0-1.2.33,2.18,2.18,0,0,0-.58,1.25l-1.14-.19a3.12,3.12,0,0,1,1-1.94,3.25,3.25,0,0,1,2.12-.61,3,3,0,0,1,1.68.4,1.77,1.77,0,0,1,.77,1,7.37,7.37,0,0,1,.16,1.73v1.88a24.27,24.27,0,0,0,.07,2.48,3.87,3.87,0,0,0,.29,1h-1.2A3.2,3.2,0,0,1,817,280.75Zm-.1-3.14a7,7,0,0,1-1.88.53,3.36,3.36,0,0,0-1,.29,1.08,1.08,0,0,0-.45.45,1.44,1.44,0,0,0-.16.67,1.26,1.26,0,0,0,.37.95,1.4,1.4,0,0,0,1,.36,2.09,2.09,0,0,0,1.12-.32,2,2,0,0,0,.75-.86,3.72,3.72,0,0,0,.25-1.56Z"/><path class="cls-4" d="M819.81,285V273.48h1.07v1.07a2.55,2.55,0,0,1,.86-1,2,2,0,0,1,1.09-.3,2.36,2.36,0,0,1,1.45.48,3.31,3.31,0,0,1,1.05,1.44,6.3,6.3,0,0,1,.39,2.34,5.26,5.26,0,0,1-.89,3.27,2.58,2.58,0,0,1-2.08,1.14,1.94,1.94,0,0,1-1-.27,2.47,2.47,0,0,1-.8-.78v4Zm1.05-7.28a4.11,4.11,0,0,0,.54,2.37,1.56,1.56,0,0,0,1.3.76A1.58,1.58,0,0,0,824,280a4.38,4.38,0,0,0,.55-2.44,4.3,4.3,0,0,0-.54-2.41,1.42,1.42,0,0,0-2.57.06A4.33,4.33,0,0,0,820.86,277.67Z"/><path class="cls-4" d="M831.54,280.75a4.64,4.64,0,0,1-1.2.91,3,3,0,0,1-1.3.3,2.28,2.28,0,0,1-1.7-.64,2.36,2.36,0,0,1-.63-1.73,2.62,2.62,0,0,1,.3-1.27,2.27,2.27,0,0,1,.81-.87,4.4,4.4,0,0,1,1.56-.46,9,9,0,0,0,2.07-.49v-.36a1.8,1.8,0,0,0-.3-1.19,1.63,1.63,0,0,0-1.32-.5,1.88,1.88,0,0,0-1.21.33A2.18,2.18,0,0,0,828,276l-1.13-.19a3.07,3.07,0,0,1,1-1.94,3.2,3.2,0,0,1,2.11-.61,3,3,0,0,1,1.68.4,1.73,1.73,0,0,1,.77,1,6.87,6.87,0,0,1,.16,1.73v1.88a24.27,24.27,0,0,0,.07,2.48,3.53,3.53,0,0,0,.3,1h-1.21A3.49,3.49,0,0,1,831.54,280.75Zm-.09-3.14a7.1,7.1,0,0,1-1.89.53,3.28,3.28,0,0,0-1,.29,1,1,0,0,0-.45.45,1.33,1.33,0,0,0-.16.67,1.26,1.26,0,0,0,.36.95,1.41,1.41,0,0,0,1,.36,2.06,2.06,0,0,0,1.12-.32,2,2,0,0,0,.76-.86,3.88,3.88,0,0,0,.25-1.56Z"/><path class="cls-4" d="M835.46,281.77h-1.07V270.32h1.16v4.09a2.47,2.47,0,0,1,.83-.84,1.92,1.92,0,0,1,1-.28,2.36,2.36,0,0,1,1.45.48,3.17,3.17,0,0,1,1,1.44,6.32,6.32,0,0,1,.39,2.35,5.25,5.25,0,0,1-.89,3.26,2.57,2.57,0,0,1-2.06,1.14,1.87,1.87,0,0,1-1.07-.31,2.48,2.48,0,0,1-.82-.92Zm0-4.21a5.81,5.81,0,0,0,.24,1.93,2.1,2.1,0,0,0,.66,1,1.55,1.55,0,0,0,1,.33,1.51,1.51,0,0,0,1.26-.8,5.49,5.49,0,0,0,0-4.79,1.54,1.54,0,0,0-1.3-.76,1.57,1.57,0,0,0-1.28.8A4,4,0,0,0,835.44,277.56Z"/><path class="cls-4" d="M841.66,281.77V270.32h1.15v11.45Z"/><path class="cls-4" d="M849.27,279.1l1.18.18a3.64,3.64,0,0,1-1.07,2,2.84,2.84,0,0,1-1.93.67,2.89,2.89,0,0,1-2.34-1.1,4.92,4.92,0,0,1-.89-3.16,5.15,5.15,0,0,1,.9-3.28,2.81,2.81,0,0,1,2.29-1.13,2.71,2.71,0,0,1,2.2,1.11,5.05,5.05,0,0,1,.88,3.21V278h-5.07a3.55,3.55,0,0,0,.64,2.11,1.75,1.75,0,0,0,1.41.71C848.33,280.8,848.93,280.24,849.27,279.1Zm-3.79-2.27h3.79a3.08,3.08,0,0,0-.46-1.61,1.68,1.68,0,0,0-2.73-.13A2.76,2.76,0,0,0,845.48,276.83Z"/><path class="cls-4" d="M738.85,304.15V292.68h1.06v1.07a2.66,2.66,0,0,1,.87-1,2,2,0,0,1,1.09-.3,2.36,2.36,0,0,1,1.45.48,3.2,3.2,0,0,1,1,1.45,6,6,0,0,1,.4,2.33,5.26,5.26,0,0,1-.89,3.27,2.58,2.58,0,0,1-2.08,1.14,1.89,1.89,0,0,1-1-.27,2.38,2.38,0,0,1-.8-.78v4Zm1-7.28a4.11,4.11,0,0,0,.54,2.37,1.47,1.47,0,0,0,2.58,0,5.62,5.62,0,0,0,0-4.85,1.42,1.42,0,0,0-2.57.06A4.33,4.33,0,0,0,739.9,296.87Z"/><path class="cls-4" d="M750.58,300a4.64,4.64,0,0,1-1.2.91,3,3,0,0,1-1.3.3,2.27,2.27,0,0,1-1.7-.64,2.36,2.36,0,0,1-.63-1.73,2.62,2.62,0,0,1,.3-1.27,2.27,2.27,0,0,1,.81-.87,4.4,4.4,0,0,1,1.56-.46,8.74,8.74,0,0,0,2.06-.49v-.36a1.81,1.81,0,0,0-.3-1.19,1.63,1.63,0,0,0-1.32-.5,1.88,1.88,0,0,0-1.21.33,2.18,2.18,0,0,0-.58,1.25L746,295a3.07,3.07,0,0,1,1-1.94,3.2,3.2,0,0,1,2.11-.61,3,3,0,0,1,1.68.4,1.77,1.77,0,0,1,.77,1,7.37,7.37,0,0,1,.16,1.73v1.88a24.27,24.27,0,0,0,.07,2.48,3.53,3.53,0,0,0,.3,1h-1.21A3.2,3.2,0,0,1,750.58,300Zm-.1-3.14a7,7,0,0,1-1.88.53,3.28,3.28,0,0,0-1,.29,1,1,0,0,0-.45.45,1.33,1.33,0,0,0-.16.67,1.26,1.26,0,0,0,.36.95,1.41,1.41,0,0,0,1,.36,2.09,2.09,0,0,0,1.12-.32,1.9,1.9,0,0,0,.75-.86,3.7,3.7,0,0,0,.25-1.55Z"/><path class="cls-4" d="M753.45,301v-8.29h1v1.25a3.67,3.67,0,0,1,.73-1.16,1.13,1.13,0,0,1,.75-.28,2,2,0,0,1,1.18.45l-.39,1.31a1.43,1.43,0,0,0-.84-.31,1,1,0,0,0-.67.26,1.44,1.44,0,0,0-.43.72,6.79,6.79,0,0,0-.22,1.71V301Z"/><path class="cls-4" d="M762.24,300a4.33,4.33,0,0,1-1.2.91,3,3,0,0,1-1.3.3,2.25,2.25,0,0,1-1.69-.64,2.32,2.32,0,0,1-.64-1.73,2.62,2.62,0,0,1,.3-1.27,2.27,2.27,0,0,1,.81-.87,4.54,4.54,0,0,1,1.57-.46,9,9,0,0,0,2.06-.49v-.36a1.81,1.81,0,0,0-.31-1.19,1.62,1.62,0,0,0-1.32-.5,1.85,1.85,0,0,0-1.2.33,2.18,2.18,0,0,0-.59,1.25l-1.13-.19a3.12,3.12,0,0,1,1-1.94,3.22,3.22,0,0,1,2.11-.61,3,3,0,0,1,1.68.4,1.69,1.69,0,0,1,.77,1,6.87,6.87,0,0,1,.16,1.73v1.88a23.12,23.12,0,0,0,.08,2.48,3.51,3.51,0,0,0,.29,1h-1.2A3.48,3.48,0,0,1,762.24,300Zm-.09-3.14a7,7,0,0,1-1.88.53,3.27,3.27,0,0,0-1,.29,1.08,1.08,0,0,0-.45.45,1.33,1.33,0,0,0-.16.67,1.23,1.23,0,0,0,.37.95,1.37,1.37,0,0,0,1,.36,2.06,2.06,0,0,0,1.12-.32,2,2,0,0,0,.76-.86,3.7,3.7,0,0,0,.25-1.55Z"/><path class="cls-4" d="M769.52,301v-1a2.33,2.33,0,0,1-.81.91,1.86,1.86,0,0,1-1.06.32,2.57,2.57,0,0,1-2.08-1.14,5.07,5.07,0,0,1-.88-3.19,6.48,6.48,0,0,1,.39-2.4,3.11,3.11,0,0,1,1-1.46,2.38,2.38,0,0,1,1.45-.48,1.94,1.94,0,0,1,1,.3,2.33,2.33,0,0,1,.81.84v-4.11h1.16V301Zm-3.65-4.14a4.05,4.05,0,0,0,.56,2.39,1.58,1.58,0,0,0,1.3.78,1.55,1.55,0,0,0,1.27-.75,3.86,3.86,0,0,0,.54-2.26,4.63,4.63,0,0,0-.54-2.54,1.58,1.58,0,0,0-1.36-.8,1.49,1.49,0,0,0-1.25.77A4.33,4.33,0,0,0,765.87,296.83Z"/><path class="cls-4" d="M772.41,291.14v-1.62h1.14v1.62Zm0,9.83v-8.29h1.14V301Z"/><path class="cls-4" d="M775.09,301.66l1.13.2a1.46,1.46,0,0,0,.47,1,1.62,1.62,0,0,0,1.08.32,1.88,1.88,0,0,0,1.21-.36,1.85,1.85,0,0,0,.61-1.08,9.8,9.8,0,0,0,.11-1.84,2.78,2.78,0,0,1-.85.8,2,2,0,0,1-1,.27,2.46,2.46,0,0,1-2-1,5,5,0,0,1-.92-3.18,6.15,6.15,0,0,1,.4-2.33,3.2,3.2,0,0,1,1.07-1.47,2.51,2.51,0,0,1,1.48-.47,2.18,2.18,0,0,1,1.1.29,2.87,2.87,0,0,1,.88.89v-1h1.06v7.17a8.68,8.68,0,0,1-.31,2.73,2.67,2.67,0,0,1-1,1.29,3,3,0,0,1-1.71.47,2.76,2.76,0,0,1-2-.71A2.62,2.62,0,0,1,775.09,301.66Zm1-5a4.18,4.18,0,0,0,.54,2.39,1.59,1.59,0,0,0,1.32.75,1.62,1.62,0,0,0,1.33-.74,3.92,3.92,0,0,0,.55-2.34,4,4,0,0,0-.56-2.33,1.67,1.67,0,0,0-1.37-.76,1.55,1.55,0,0,0-1.27.76A3.92,3.92,0,0,0,776.05,296.68Z"/><path class="cls-4" d="M782.62,301v-8.29h1v1.15a2.5,2.5,0,0,1,.88-1,2.14,2.14,0,0,1,1.17-.35,1.87,1.87,0,0,1,1.92,1.44,3.27,3.27,0,0,1,.94-1.08,2,2,0,0,1,1.17-.36,1.93,1.93,0,0,1,1.55.66,3.31,3.31,0,0,1,.56,2.13V301H790.7v-5.23a4.16,4.16,0,0,0-.13-1.26,1.09,1.09,0,0,0-.42-.58,1.14,1.14,0,0,0-.65-.2,1.51,1.51,0,0,0-1.22.59,3,3,0,0,0-.47,1.86V301h-1.15v-5.39a2.53,2.53,0,0,0-.31-1.46,1,1,0,0,0-.87-.42,1.45,1.45,0,0,0-1.25.64,4.25,4.25,0,0,0-.46,2.32V301Z"/><path class="cls-4" d="M793.1,298.49l1.15-.22a2.09,2.09,0,0,0,.55,1.31,1.69,1.69,0,0,0,1.2.42,1.65,1.65,0,0,0,1.16-.37,1.21,1.21,0,0,0,.41-.94.91.91,0,0,0-.35-.76,4.27,4.27,0,0,0-1.17-.47,8.15,8.15,0,0,1-1.8-.71,1.93,1.93,0,0,1-.7-.77,2.54,2.54,0,0,1,.43-2.83,2.58,2.58,0,0,1,1.88-.66,3.1,3.1,0,0,1,1.33.27,2.16,2.16,0,0,1,.88.74,3.2,3.2,0,0,1,.42,1.32l-1.12.18a1.35,1.35,0,0,0-1.48-1.35,1.76,1.76,0,0,0-1.12.3.93.93,0,0,0-.36.76.82.82,0,0,0,.35.72,5.38,5.38,0,0,0,1.25.5,9.9,9.9,0,0,1,1.85.73,1.87,1.87,0,0,1,.66.73,2.53,2.53,0,0,1,.23,1.11,2.61,2.61,0,0,1-.75,1.93,2.84,2.84,0,0,1-2.06.73C794.31,301.16,793.36,300.27,793.1,298.49Z"/><path class="cls-4" d="M800.45,301v-1.6h1.31V301a3.11,3.11,0,0,1-.28,1.46,1.87,1.87,0,0,1-.79.81l-.32-.6a1.25,1.25,0,0,0,.53-.56,2.81,2.81,0,0,0,.19-1.11Z"/><path class="cls-4" d="M918.41,277.62a5,5,0,0,1,.91-3.24,2.93,2.93,0,0,1,4.56,0,4.86,4.86,0,0,1,.91,3.16,5.17,5.17,0,0,1-.9,3.33A2.83,2.83,0,0,1,921.6,282a2.86,2.86,0,0,1-2.28-1.1A5,5,0,0,1,918.41,277.62Zm1.18,0a4,4,0,0,0,.59,2.4,1.75,1.75,0,0,0,1.45.78A1.7,1.7,0,0,0,923,280a5.17,5.17,0,0,0,0-4.78,1.75,1.75,0,0,0-1.45-.78,1.69,1.69,0,0,0-1.4.79A4,4,0,0,0,919.59,277.62Z"/><path class="cls-4" d="M926.15,281.77v-8.29h1v1.17a2.61,2.61,0,0,1,.91-1,2.28,2.28,0,0,1,1.25-.34,2.44,2.44,0,0,1,1,.21,2.08,2.08,0,0,1,.75.57,2.21,2.21,0,0,1,.42.9,7.77,7.77,0,0,1,.14,1.7v5.1h-1.15v-5a4.39,4.39,0,0,0-.15-1.34,1.36,1.36,0,0,0-.49-.65,1.34,1.34,0,0,0-.77-.23,1.61,1.61,0,0,0-1.32.62,3.46,3.46,0,0,0-.49,2.12v4.53Z"/><path class="cls-4" d="M933.41,281.77V270.32h1.14v11.45Z"/><path class="cls-4" d="M936.32,285l-.12-1.32a2.2,2.2,0,0,0,.65.12,1.13,1.13,0,0,0,.61-.15,1,1,0,0,0,.39-.46c0-.07.19-.53.46-1.37l-2.59-8.31H937l1.42,4.8c.18.6.34,1.24.5,1.92a18.62,18.62,0,0,1,.46-1.89l1.46-4.83H942l-2.58,8.43a14.66,14.66,0,0,1-.8,2.2,2.23,2.23,0,0,1-.66.79,1.53,1.53,0,0,1-.85.24A2.05,2.05,0,0,1,936.32,285Z"/><path class="cls-4" d="M949.13,280.52l.16,1.24a3.61,3.61,0,0,1-.86.12,1.76,1.76,0,0,1-1-.24,1.17,1.17,0,0,1-.5-.65,6.29,6.29,0,0,1-.14-1.65v-4.77H946v-1.09h.84v-2.06l1.15-.84v2.9h1.16v1.09H948v4.85a2.26,2.26,0,0,0,.1.87.56.56,0,0,0,.55.28A3.92,3.92,0,0,0,949.13,280.52Z"/><path class="cls-4" d="M949.78,277.62a5,5,0,0,1,.9-3.24,2.93,2.93,0,0,1,4.56,0,4.8,4.8,0,0,1,.92,3.16,5.17,5.17,0,0,1-.9,3.33A2.83,2.83,0,0,1,953,282a2.86,2.86,0,0,1-2.28-1.1A5,5,0,0,1,949.78,277.62Zm1.18,0a4,4,0,0,0,.59,2.4,1.75,1.75,0,0,0,1.45.78,1.67,1.67,0,0,0,1.39-.79,5.14,5.14,0,0,0,0-4.78,1.75,1.75,0,0,0-1.45-.78,1.68,1.68,0,0,0-1.4.79A4,4,0,0,0,951,277.62Z"/><path class="cls-4" d="M961.16,281.77v-8.29h1v1.25a3.67,3.67,0,0,1,.73-1.16,1.13,1.13,0,0,1,.75-.28,2,2,0,0,1,1.18.45l-.39,1.31a1.43,1.43,0,0,0-.84-.31,1,1,0,0,0-.67.26,1.37,1.37,0,0,0-.43.72,6.73,6.73,0,0,0-.22,1.71v4.34Z"/><path class="cls-4" d="M970.18,279.1l1.19.18a3.65,3.65,0,0,1-1.08,2,2.83,2.83,0,0,1-1.92.67,2.86,2.86,0,0,1-2.34-1.1,4.86,4.86,0,0,1-.9-3.16,5.09,5.09,0,0,1,.91-3.28,2.8,2.8,0,0,1,2.28-1.13,2.71,2.71,0,0,1,2.2,1.11,5.05,5.05,0,0,1,.89,3.21V278h-5.08a3.55,3.55,0,0,0,.65,2.11,1.72,1.72,0,0,0,1.41.71C969.24,280.8,969.84,280.24,970.18,279.1Zm-3.79-2.27h3.8a3.18,3.18,0,0,0-.46-1.61,1.66,1.66,0,0,0-1.42-.77,1.68,1.68,0,0,0-1.32.64A2.88,2.88,0,0,0,966.39,276.83Z"/><path class="cls-4" d="M974.73,281.77l-2.59-8.29h1.22l1.46,5c.17.56.32,1.12.44,1.67.1-.44.24-1,.42-1.58l1.52-5.06h1.19l-2.59,8.29Z"/><path class="cls-4" d="M984,279.1l1.19.18a3.65,3.65,0,0,1-1.08,2,2.83,2.83,0,0,1-1.92.67,2.86,2.86,0,0,1-2.34-1.1,4.86,4.86,0,0,1-.9-3.16,5.15,5.15,0,0,1,.9-3.28,2.84,2.84,0,0,1,2.29-1.13,2.71,2.71,0,0,1,2.2,1.11,5.05,5.05,0,0,1,.89,3.21V278h-5.08a3.55,3.55,0,0,0,.65,2.11,1.72,1.72,0,0,0,1.4.71C983.1,280.8,983.7,280.24,984,279.1Zm-3.79-2.27h3.8a3.18,3.18,0,0,0-.46-1.61,1.66,1.66,0,0,0-1.42-.77,1.68,1.68,0,0,0-1.32.64A2.88,2.88,0,0,0,980.25,276.83Z"/><path class="cls-4" d="M991.12,280.75a4.52,4.52,0,0,1-1.21.91,2.91,2.91,0,0,1-1.29.3,2.27,2.27,0,0,1-1.7-.64,2.36,2.36,0,0,1-.63-1.73,2.62,2.62,0,0,1,.3-1.27,2.13,2.13,0,0,1,.81-.87A4.4,4.4,0,0,1,989,277a8.74,8.74,0,0,0,2.06-.49v-.36a1.8,1.8,0,0,0-.3-1.19,1.63,1.63,0,0,0-1.32-.5,1.88,1.88,0,0,0-1.21.33,2.18,2.18,0,0,0-.58,1.25l-1.14-.19a3.17,3.17,0,0,1,1-1.94,3.25,3.25,0,0,1,2.12-.61,3,3,0,0,1,1.68.4,1.77,1.77,0,0,1,.77,1,7.37,7.37,0,0,1,.16,1.73v1.88a24.27,24.27,0,0,0,.07,2.48,3.87,3.87,0,0,0,.29,1h-1.2A3.2,3.2,0,0,1,991.12,280.75Zm-.1-3.14a7,7,0,0,1-1.88.53,3.46,3.46,0,0,0-1,.29,1,1,0,0,0-.44.45,1.33,1.33,0,0,0-.16.67,1.26,1.26,0,0,0,.36.95,1.41,1.41,0,0,0,1,.36,2.09,2.09,0,0,0,1.12-.32,1.9,1.9,0,0,0,.75-.86,3.72,3.72,0,0,0,.25-1.56Z"/><path class="cls-4" d="M994,281.77V270.32h1.14v11.45Z"/><path class="cls-4" d="M1005,280.75a4.52,4.52,0,0,1-1.21.91,2.94,2.94,0,0,1-1.29.3,2.27,2.27,0,0,1-1.7-.64,2.36,2.36,0,0,1-.63-1.73,2.62,2.62,0,0,1,.3-1.27,2.13,2.13,0,0,1,.81-.87,4.4,4.4,0,0,1,1.56-.46,8.74,8.74,0,0,0,2.06-.49v-.36a1.8,1.8,0,0,0-.3-1.19,1.63,1.63,0,0,0-1.32-.5,1.88,1.88,0,0,0-1.21.33,2.18,2.18,0,0,0-.58,1.25l-1.14-.19a3.12,3.12,0,0,1,1-1.94,3.25,3.25,0,0,1,2.12-.61,3,3,0,0,1,1.68.4,1.77,1.77,0,0,1,.77,1,7.37,7.37,0,0,1,.16,1.73v1.88a24.27,24.27,0,0,0,.07,2.48,3.87,3.87,0,0,0,.29,1h-1.2A3.2,3.2,0,0,1,1005,280.75Zm-.1-3.14a7,7,0,0,1-1.88.53,3.46,3.46,0,0,0-1,.29,1,1,0,0,0-.44.45,1.33,1.33,0,0,0-.16.67,1.26,1.26,0,0,0,.36.95,1.41,1.41,0,0,0,1,.36,2.09,2.09,0,0,0,1.12-.32,2,2,0,0,0,.75-.86,3.72,3.72,0,0,0,.25-1.56Z"/><path class="cls-4" d="M1007.84,281.77v-8.29h1v1.17a2.63,2.63,0,0,1,.92-1,2.27,2.27,0,0,1,1.24-.34,2.4,2.4,0,0,1,1,.21,2.08,2.08,0,0,1,.75.57,2.36,2.36,0,0,1,.43.9,7.77,7.77,0,0,1,.14,1.7v5.1h-1.15v-5a4,4,0,0,0-.16-1.34,1.25,1.25,0,0,0-.49-.65,1.32,1.32,0,0,0-.77-.23,1.61,1.61,0,0,0-1.32.62,3.53,3.53,0,0,0-.49,2.12v4.53Z"/><path class="cls-4" d="M1014.7,277.62a5,5,0,0,1,.91-3.24,2.92,2.92,0,0,1,4.55,0,4.8,4.8,0,0,1,.92,3.16,5.17,5.17,0,0,1-.9,3.33,2.83,2.83,0,0,1-2.29,1.09,2.86,2.86,0,0,1-2.28-1.1A5,5,0,0,1,1014.7,277.62Zm1.18,0a4,4,0,0,0,.59,2.4,1.75,1.75,0,0,0,1.45.78,1.7,1.7,0,0,0,1.4-.79,4.11,4.11,0,0,0,.58-2.39,4,4,0,0,0-.59-2.39,1.75,1.75,0,0,0-1.45-.78,1.69,1.69,0,0,0-1.4.79A4,4,0,0,0,1015.88,277.62Z"/><path class="cls-4" d="M1025,280.52l.16,1.24a3.61,3.61,0,0,1-.86.12,1.74,1.74,0,0,1-1-.24,1.18,1.18,0,0,1-.51-.65,6.43,6.43,0,0,1-.13-1.65v-4.77h-.85v-1.09h.85v-2.06l1.15-.84v2.9H1025v1.09h-1.16v4.85a2.26,2.26,0,0,0,.1.87.56.56,0,0,0,.55.28A3.92,3.92,0,0,0,1025,280.52Z"/><path class="cls-4" d="M1026.09,281.77V270.32h1.14v4.11a2.86,2.86,0,0,1,.92-.86,2.28,2.28,0,0,1,1.13-.28,2.22,2.22,0,0,1,1.72.69,3.84,3.84,0,0,1,.62,2.54v5.25h-1.14v-5.25a2.43,2.43,0,0,0-.39-1.55,1.28,1.28,0,0,0-1-.47,1.64,1.64,0,0,0-1.28.6,3.28,3.28,0,0,0-.53,2.13v4.54Z"/><path class="cls-4" d="M1038,279.1l1.19.18a3.65,3.65,0,0,1-1.08,2,2.81,2.81,0,0,1-1.92.67,2.88,2.88,0,0,1-2.34-1.1,4.86,4.86,0,0,1-.9-3.16,5.15,5.15,0,0,1,.91-3.28,2.8,2.8,0,0,1,2.28-1.13,2.72,2.72,0,0,1,2.21,1.11,5.11,5.11,0,0,1,.88,3.21V278h-5.08a3.55,3.55,0,0,0,.65,2.11,1.74,1.74,0,0,0,1.41.71C1037.09,280.8,1037.69,280.24,1038,279.1Zm-3.79-2.27h3.8a3.18,3.18,0,0,0-.46-1.61,1.66,1.66,0,0,0-1.42-.77,1.68,1.68,0,0,0-1.32.64A2.88,2.88,0,0,0,1034.24,276.83Z"/><path class="cls-4" d="M1040.68,281.77v-8.29h1v1.25a3.5,3.5,0,0,1,.73-1.16,1.11,1.11,0,0,1,.75-.28,2,2,0,0,1,1.18.45l-.4,1.31a1.38,1.38,0,0,0-.83-.31,1,1,0,0,0-.67.26,1.31,1.31,0,0,0-.43.72,6.31,6.31,0,0,0-.22,1.71v4.34Z"/><path class="cls-4" d="M918.41,298.49l1.14-.22a2.1,2.1,0,0,0,.56,1.31,1.69,1.69,0,0,0,1.2.42,1.67,1.67,0,0,0,1.16-.37,1.21,1.21,0,0,0,.41-.94.89.89,0,0,0-.36-.76,4.27,4.27,0,0,0-1.17-.47,8.61,8.61,0,0,1-1.8-.71,2,2,0,0,1-.7-.77,2.54,2.54,0,0,1,.43-2.83,2.58,2.58,0,0,1,1.88-.66,3.14,3.14,0,0,1,1.34.27,2.22,2.22,0,0,1,.88.74,3.2,3.2,0,0,1,.42,1.32l-1.13.18a1.34,1.34,0,0,0-1.47-1.35,1.74,1.74,0,0,0-1.12.3.91.91,0,0,0-.37.76.85.85,0,0,0,.35.72,5.33,5.33,0,0,0,1.26.5,9.9,9.9,0,0,1,1.85.73,1.77,1.77,0,0,1,.65.73,2.39,2.39,0,0,1,.23,1.11,2.61,2.61,0,0,1-.75,1.93,2.82,2.82,0,0,1-2.06.73C919.61,301.16,918.67,300.27,918.41,298.49Z"/><path class="cls-4" d="M930.06,298.3l1.19.18a3.67,3.67,0,0,1-1.07,2,2.84,2.84,0,0,1-1.93.67,2.89,2.89,0,0,1-2.34-1.1,4.86,4.86,0,0,1-.89-3.16,5.15,5.15,0,0,1,.9-3.28,2.8,2.8,0,0,1,2.28-1.13,2.72,2.72,0,0,1,2.21,1.11,5.05,5.05,0,0,1,.88,3.21v.37H926.2a3.62,3.62,0,0,0,.65,2.11,1.75,1.75,0,0,0,1.41.71C929.12,300,929.72,299.44,930.06,298.3ZM926.27,296h3.8a3.18,3.18,0,0,0-.46-1.61,1.68,1.68,0,0,0-2.73-.13A2.82,2.82,0,0,0,926.27,296Z"/><path class="cls-4" d="M935.27,299.72l.16,1.24a3.54,3.54,0,0,1-.86.12,1.76,1.76,0,0,1-1-.24,1.17,1.17,0,0,1-.5-.65,6.29,6.29,0,0,1-.14-1.65v-4.77h-.84v-1.09H933v-2.06l1.15-.84v2.9h1.16v1.09h-1.16v4.85a2.26,2.26,0,0,0,.1.87.57.57,0,0,0,.56.28A3.64,3.64,0,0,0,935.27,299.72Z"/><path class="cls-4" d="M939.57,296.83a5,5,0,0,1,.9-3.25,2.93,2.93,0,0,1,4.56,0,4.8,4.8,0,0,1,.92,3.16,5.17,5.17,0,0,1-.9,3.33,2.93,2.93,0,0,1-4.57,0A4.94,4.94,0,0,1,939.57,296.83Zm1.18,0a4,4,0,0,0,.59,2.4,1.75,1.75,0,0,0,1.45.78,1.67,1.67,0,0,0,1.39-.79,5.14,5.14,0,0,0,0-4.78,1.76,1.76,0,0,0-1.45-.78,1.68,1.68,0,0,0-1.4.79A4,4,0,0,0,940.75,296.82Z"/><path class="cls-4" d="M947.62,301v-7.2h-1v-1.09h1v-.89a3.85,3.85,0,0,1,.21-1.46,1.49,1.49,0,0,1,.62-.75,2,2,0,0,1,1-.25,5,5,0,0,1,1.09.14l-.18,1.22a3.31,3.31,0,0,0-.68-.08.88.88,0,0,0-.73.27,1.69,1.69,0,0,0-.23,1v.77h1.33v1.09h-1.33V301Z"/><path class="cls-4" d="M954.6,301v-8.29h1v1.25a3.67,3.67,0,0,1,.73-1.16,1.11,1.11,0,0,1,.75-.28,2,2,0,0,1,1.18.45l-.39,1.31a1.43,1.43,0,0,0-.84-.31,1,1,0,0,0-.67.26,1.37,1.37,0,0,0-.43.72,6.36,6.36,0,0,0-.22,1.71V301Z"/><path class="cls-4" d="M963.42,301v-1.22a2.89,2.89,0,0,1-.94,1.06,2.35,2.35,0,0,1-2.59-.08,2.1,2.1,0,0,1-.76-1.1,6.71,6.71,0,0,1-.19-1.81v-5.14h1.15v4.6a7.77,7.77,0,0,0,.12,1.71,1.38,1.38,0,0,0,.48.7,1.31,1.31,0,0,0,.79.26,1.65,1.65,0,0,0,1.36-.68,3.62,3.62,0,0,0,.46-2.15v-4.44h1.15V301Z"/><path class="cls-4" d="M966.23,301V289.52h1.15V301Z"/><path class="cls-4" d="M973.83,298.3l1.19.18a3.61,3.61,0,0,1-1.08,2,2.83,2.83,0,0,1-1.92.67,2.86,2.86,0,0,1-2.34-1.1,4.86,4.86,0,0,1-.9-3.16,5.15,5.15,0,0,1,.9-3.28,2.84,2.84,0,0,1,2.29-1.13,2.71,2.71,0,0,1,2.2,1.11,5.05,5.05,0,0,1,.88,3.21v.37H970a3.55,3.55,0,0,0,.65,2.11,1.72,1.72,0,0,0,1.4.71C972.89,300,973.49,299.44,973.83,298.3ZM970,296h3.8a3.28,3.28,0,0,0-.46-1.61,1.69,1.69,0,0,0-1.42-.77,1.67,1.67,0,0,0-1.32.64A2.88,2.88,0,0,0,970,296Z"/><path class="cls-4" d="M976,298.49l1.15-.22a2.09,2.09,0,0,0,.55,1.31,1.69,1.69,0,0,0,1.2.42,1.65,1.65,0,0,0,1.16-.37,1.21,1.21,0,0,0,.41-.94.91.91,0,0,0-.35-.76,4.27,4.27,0,0,0-1.17-.47,8.15,8.15,0,0,1-1.8-.71,1.93,1.93,0,0,1-.7-.77,2.54,2.54,0,0,1,.43-2.83,2.58,2.58,0,0,1,1.88-.66,3.1,3.1,0,0,1,1.33.27,2.16,2.16,0,0,1,.88.74,3.2,3.2,0,0,1,.42,1.32l-1.12.18a1.35,1.35,0,0,0-1.48-1.35,1.76,1.76,0,0,0-1.12.3.93.93,0,0,0-.36.76.82.82,0,0,0,.35.72,5.38,5.38,0,0,0,1.25.5,9.9,9.9,0,0,1,1.85.73,1.87,1.87,0,0,1,.66.73,2.53,2.53,0,0,1,.23,1.11,2.61,2.61,0,0,1-.75,1.93,2.84,2.84,0,0,1-2.06.73C977.24,301.16,976.29,300.27,976,298.49Z"/><path class="cls-4" d="M991.12,300a4.52,4.52,0,0,1-1.21.91,2.91,2.91,0,0,1-1.29.3,2.27,2.27,0,0,1-1.7-.64,2.36,2.36,0,0,1-.63-1.73,2.62,2.62,0,0,1,.3-1.27,2.13,2.13,0,0,1,.81-.87,4.4,4.4,0,0,1,1.56-.46,8.74,8.74,0,0,0,2.06-.49v-.36a1.81,1.81,0,0,0-.3-1.19,1.63,1.63,0,0,0-1.32-.5,1.88,1.88,0,0,0-1.21.33,2.18,2.18,0,0,0-.58,1.25l-1.14-.19a3.17,3.17,0,0,1,1-1.94,3.25,3.25,0,0,1,2.12-.61,3,3,0,0,1,1.68.4,1.77,1.77,0,0,1,.77,1,7.37,7.37,0,0,1,.16,1.73v1.88a24.27,24.27,0,0,0,.07,2.48,3.87,3.87,0,0,0,.29,1h-1.2A3.2,3.2,0,0,1,991.12,300Zm-.1-3.14a7,7,0,0,1-1.88.53,3.46,3.46,0,0,0-1,.29,1,1,0,0,0-.44.45,1.33,1.33,0,0,0-.16.67,1.26,1.26,0,0,0,.36.95,1.41,1.41,0,0,0,1,.36,2.09,2.09,0,0,0,1.12-.32,1.9,1.9,0,0,0,.75-.86,3.7,3.7,0,0,0,.25-1.55Z"/><path class="cls-4" d="M994,301v-8.29h1v1.17a2.63,2.63,0,0,1,.92-1,2.27,2.27,0,0,1,1.24-.34,2.4,2.4,0,0,1,1,.21,2.19,2.19,0,0,1,.75.57,2.36,2.36,0,0,1,.43.9,7.77,7.77,0,0,1,.14,1.7V301h-1.15v-5.05a4,4,0,0,0-.16-1.34,1.25,1.25,0,0,0-.49-.65,1.31,1.31,0,0,0-.76-.23,1.62,1.62,0,0,0-1.33.62,3.53,3.53,0,0,0-.49,2.12V301Z"/><path class="cls-4" d="M1005.69,301v-1a2.33,2.33,0,0,1-.81.91,1.86,1.86,0,0,1-1.06.32,2.57,2.57,0,0,1-2.08-1.14,5.07,5.07,0,0,1-.88-3.19,6.48,6.48,0,0,1,.39-2.4,3.18,3.18,0,0,1,1-1.46,2.38,2.38,0,0,1,1.45-.48,1.94,1.94,0,0,1,1,.3,2.33,2.33,0,0,1,.81.84v-4.11h1.17V301Zm-3.65-4.14a4.13,4.13,0,0,0,.56,2.39,1.58,1.58,0,0,0,1.3.78,1.55,1.55,0,0,0,1.27-.75,3.86,3.86,0,0,0,.54-2.26,4.63,4.63,0,0,0-.54-2.54,1.58,1.58,0,0,0-1.36-.8,1.49,1.49,0,0,0-1.25.77A4.33,4.33,0,0,0,1002,296.83Z"/><path class="cls-4" d="M1012.23,301v-8.29h1v1.17a2.61,2.61,0,0,1,.91-1,2.28,2.28,0,0,1,1.25-.34,2.44,2.44,0,0,1,1,.21,2.06,2.06,0,0,1,.74.57,2.22,2.22,0,0,1,.43.9,7.77,7.77,0,0,1,.14,1.7V301h-1.15v-5.05a4.39,4.39,0,0,0-.15-1.34,1.36,1.36,0,0,0-.49-.65,1.34,1.34,0,0,0-.77-.23,1.61,1.61,0,0,0-1.32.62,3.46,3.46,0,0,0-.49,2.12V301Z"/><path class="cls-4" d="M1024,300a4.33,4.33,0,0,1-1.2.91,3,3,0,0,1-1.3.3,2.26,2.26,0,0,1-1.69-.64,2.36,2.36,0,0,1-.64-1.73,2.62,2.62,0,0,1,.3-1.27,2.27,2.27,0,0,1,.81-.87,4.54,4.54,0,0,1,1.57-.46,9,9,0,0,0,2.06-.49v-.36a1.75,1.75,0,0,0-.31-1.19,1.61,1.61,0,0,0-1.32-.5,1.85,1.85,0,0,0-1.2.33,2.18,2.18,0,0,0-.59,1.25l-1.13-.19a3.12,3.12,0,0,1,1-1.94,3.22,3.22,0,0,1,2.11-.61,3,3,0,0,1,1.68.4,1.69,1.69,0,0,1,.77,1,6.87,6.87,0,0,1,.16,1.73v1.88a23.12,23.12,0,0,0,.08,2.48,3.87,3.87,0,0,0,.29,1h-1.2A3.48,3.48,0,0,1,1024,300Zm-.09-3.14a7,7,0,0,1-1.88.53,3.27,3.27,0,0,0-1,.29,1.08,1.08,0,0,0-.45.45,1.44,1.44,0,0,0-.16.67,1.23,1.23,0,0,0,.37.95,1.37,1.37,0,0,0,1,.36,2.1,2.1,0,0,0,1.13-.32,2,2,0,0,0,.75-.86,3.7,3.7,0,0,0,.25-1.55Z"/><path class="cls-4" d="M1029.38,299.72l.16,1.24a3.61,3.61,0,0,1-.86.12,1.76,1.76,0,0,1-1-.24,1.17,1.17,0,0,1-.5-.65,6.29,6.29,0,0,1-.14-1.65v-4.77h-.84v-1.09h.84v-2.06l1.15-.84v2.9h1.16v1.09h-1.16v4.85a2.26,2.26,0,0,0,.1.87.57.57,0,0,0,.56.28A4,4,0,0,0,1029.38,299.72Z"/><path class="cls-4" d="M1034.92,301v-1.22a2.89,2.89,0,0,1-.94,1.06,2.35,2.35,0,0,1-2.59-.08,2.1,2.1,0,0,1-.76-1.1,6.71,6.71,0,0,1-.19-1.81v-5.14h1.15v4.6a7.77,7.77,0,0,0,.12,1.71,1.38,1.38,0,0,0,.48.7,1.31,1.31,0,0,0,.79.26,1.65,1.65,0,0,0,1.36-.68,3.62,3.62,0,0,0,.46-2.15v-4.44H1036V301Z"/><path class="cls-4" d="M1037.77,301v-8.29h1v1.25a3.49,3.49,0,0,1,.74-1.16,1.09,1.09,0,0,1,.74-.28,2,2,0,0,1,1.18.45l-.39,1.31a1.43,1.43,0,0,0-.84-.31,1,1,0,0,0-.67.26,1.44,1.44,0,0,0-.43.72,6.79,6.79,0,0,0-.22,1.71V301Z"/><path class="cls-4" d="M1046.56,300a4.33,4.33,0,0,1-1.2.91,3,3,0,0,1-1.3.3,2.25,2.25,0,0,1-1.69-.64,2.36,2.36,0,0,1-.64-1.73,2.62,2.62,0,0,1,.3-1.27,2.27,2.27,0,0,1,.81-.87,4.54,4.54,0,0,1,1.57-.46,9,9,0,0,0,2.06-.49v-.36a1.75,1.75,0,0,0-.31-1.19,1.61,1.61,0,0,0-1.32-.5,1.85,1.85,0,0,0-1.2.33,2.18,2.18,0,0,0-.59,1.25l-1.13-.19a3.12,3.12,0,0,1,1-1.94,3.22,3.22,0,0,1,2.11-.61,3,3,0,0,1,1.68.4,1.69,1.69,0,0,1,.77,1,6.87,6.87,0,0,1,.16,1.73v1.88a23.12,23.12,0,0,0,.08,2.48,3.51,3.51,0,0,0,.29,1h-1.2A3.48,3.48,0,0,1,1046.56,300Zm-.09-3.14a7,7,0,0,1-1.88.53,3.27,3.27,0,0,0-1,.29,1.08,1.08,0,0,0-.45.45,1.33,1.33,0,0,0-.16.67,1.23,1.23,0,0,0,.37.95,1.37,1.37,0,0,0,1,.36,2.06,2.06,0,0,0,1.12-.32,2,2,0,0,0,.76-.86,3.7,3.7,0,0,0,.25-1.55Z"/><path class="cls-4" d="M1049.39,301V289.52h1.15V301Z"/><path class="cls-4" d="M918.81,320.17V308.72H920v11.45Z"/><path class="cls-4" d="M926.2,319.15a4.52,4.52,0,0,1-1.21.91,2.94,2.94,0,0,1-1.29.3,2.27,2.27,0,0,1-1.7-.64,2.36,2.36,0,0,1-.63-1.73,2.73,2.73,0,0,1,.29-1.27,2.22,2.22,0,0,1,.82-.87,4.4,4.4,0,0,1,1.56-.46,8.87,8.87,0,0,0,2.06-.49v-.36a1.75,1.75,0,0,0-.31-1.19,1.61,1.61,0,0,0-1.32-.5,1.87,1.87,0,0,0-1.2.33,2.18,2.18,0,0,0-.58,1.25l-1.14-.19a3.15,3.15,0,0,1,1-1.94,3.25,3.25,0,0,1,2.12-.61,3,3,0,0,1,1.68.4,1.77,1.77,0,0,1,.77,1,7.37,7.37,0,0,1,.16,1.73v1.88a24.27,24.27,0,0,0,.07,2.48,3.87,3.87,0,0,0,.29,1h-1.2A3.2,3.2,0,0,1,926.2,319.15Zm-.1-3.14a7,7,0,0,1-1.88.53,3.36,3.36,0,0,0-1,.29,1.08,1.08,0,0,0-.45.45,1.45,1.45,0,0,0-.16.68,1.26,1.26,0,0,0,.37.94,1.4,1.4,0,0,0,1,.36,2.09,2.09,0,0,0,1.12-.32,2,2,0,0,0,.75-.86,3.7,3.7,0,0,0,.25-1.55Z"/><path class="cls-4" d="M930.32,320.17l-2.09-8.29h1.19l1.08,4.79.4,1.78.36-1.71,1.08-4.86h1.19l1,4.81.35,1.59.39-1.61,1.16-4.79h1.12l-2.12,8.29h-1.2l-1.09-5-.26-1.42-1.37,6.38Z"/><path class="cls-4" d="M938.09,317.69l1.14-.22a2.1,2.1,0,0,0,.56,1.31,1.69,1.69,0,0,0,1.2.43,1.67,1.67,0,0,0,1.16-.38,1.2,1.2,0,0,0,.4-.94.88.88,0,0,0-.35-.76,4.27,4.27,0,0,0-1.17-.47,9.38,9.38,0,0,1-1.8-.7,2.1,2.1,0,0,1-.7-.78,2.54,2.54,0,0,1,.43-2.83,2.58,2.58,0,0,1,1.88-.66,3.14,3.14,0,0,1,1.34.27,2.13,2.13,0,0,1,.87.74,3,3,0,0,1,.43,1.32l-1.13.19a1.35,1.35,0,0,0-1.47-1.36,1.74,1.74,0,0,0-1.12.3.91.91,0,0,0-.37.76.85.85,0,0,0,.35.72,5.33,5.33,0,0,0,1.26.5,9.9,9.9,0,0,1,1.85.73,1.84,1.84,0,0,1,.65.73,2.39,2.39,0,0,1,.23,1.11,2.61,2.61,0,0,1-.75,1.93,2.82,2.82,0,0,1-2.06.73C939.29,320.36,938.35,319.47,938.09,317.69Z"/><path class="cls-4" d="M945.45,320.17v-1.6h1.32v1.6Z"/><path class="cls-4" d="M561.41,532.39l.16,1.24a3.15,3.15,0,0,1-.86.13,1.76,1.76,0,0,1-1-.24,1.24,1.24,0,0,1-.5-.65,6.39,6.39,0,0,1-.14-1.65v-4.77h-.84v-1.1h.84V523.3l1.15-.85v2.9h1.16v1.1h-1.16v4.85a2.2,2.2,0,0,0,.1.86.58.58,0,0,0,.56.29A2.67,2.67,0,0,0,561.41,532.39Z"/><path class="cls-4" d="M562.5,533.65V522.2h1.15v4.1a2.82,2.82,0,0,1,.92-.85,2.26,2.26,0,0,1,1.13-.29,2.17,2.17,0,0,1,1.71.7,3.8,3.8,0,0,1,.63,2.53v5.26h-1.15v-5.26a2.52,2.52,0,0,0-.38-1.55,1.3,1.3,0,0,0-1.06-.46,1.62,1.62,0,0,0-1.27.6,3.22,3.22,0,0,0-.53,2.13v4.54Z"/><path class="cls-4" d="M574.23,532.62a4.14,4.14,0,0,1-1.21.91,3,3,0,0,1-1.29.31,2.31,2.31,0,0,1-1.7-.64,2.37,2.37,0,0,1-.63-1.73,2.62,2.62,0,0,1,.3-1.27,2.13,2.13,0,0,1,.81-.87,4.2,4.2,0,0,1,1.56-.46,8.74,8.74,0,0,0,2.06-.49V528a1.85,1.85,0,0,0-.3-1.2,1.67,1.67,0,0,0-1.32-.5,1.88,1.88,0,0,0-1.21.33,2.21,2.21,0,0,0-.58,1.26l-1.14-.19a3.18,3.18,0,0,1,1-2,3.3,3.3,0,0,1,2.12-.61,3,3,0,0,1,1.68.41,1.75,1.75,0,0,1,.77,1,7.53,7.53,0,0,1,.16,1.74v1.87a24.27,24.27,0,0,0,.07,2.48,3.94,3.94,0,0,0,.29,1h-1.2A3.33,3.33,0,0,1,574.23,532.62Zm-.1-3.14a7.34,7.34,0,0,1-1.88.54,3.51,3.51,0,0,0-1,.28,1.12,1.12,0,0,0-.44.45,1.37,1.37,0,0,0-.17.68,1.28,1.28,0,0,0,.37,1,1.41,1.41,0,0,0,1,.35,2,2,0,0,0,1.12-.32,1.93,1.93,0,0,0,.75-.85,3.78,3.78,0,0,0,.25-1.56Z"/><path class="cls-4" d="M579.66,532.39l.15,1.24a3.1,3.1,0,0,1-.86.13,1.76,1.76,0,0,1-1-.24,1.24,1.24,0,0,1-.5-.65,6.39,6.39,0,0,1-.14-1.65v-4.77h-.84v-1.1h.84V523.3l1.15-.85v2.9h1.17v1.1h-1.17v4.85a2.42,2.42,0,0,0,.1.86.58.58,0,0,0,.56.29A2.86,2.86,0,0,0,579.66,532.39Z"/><path class="cls-4" d="M585.64,533.65l-2.09-8.3h1.2l1.08,4.79.4,1.78.36-1.71,1.08-4.86h1.19l1,4.81.34,1.59.39-1.6,1.17-4.8h1.12l-2.12,8.3h-1.2l-1.09-5-.26-1.41-1.37,6.38Z"/><path class="cls-4" d="M593.42,529.5a5,5,0,0,1,.9-3.24,2.91,2.91,0,0,1,4.56,0,4.79,4.79,0,0,1,.92,3.15,5.17,5.17,0,0,1-.9,3.33,2.92,2.92,0,0,1-4.57,0A5,5,0,0,1,593.42,529.5Zm1.18,0a4,4,0,0,0,.59,2.39,1.74,1.74,0,0,0,1.45.79,1.7,1.7,0,0,0,1.4-.79,4.11,4.11,0,0,0,.58-2.39,4,4,0,0,0-.59-2.39,1.74,1.74,0,0,0-1.45-.79,1.69,1.69,0,0,0-1.4.79A4,4,0,0,0,594.6,529.5Z"/><path class="cls-4" d="M601.16,533.65v-8.3h1v1.26a3.35,3.35,0,0,1,.73-1.16,1.12,1.12,0,0,1,.74-.29,2,2,0,0,1,1.18.46l-.39,1.3a1.46,1.46,0,0,0-.84-.3,1,1,0,0,0-.67.26,1.45,1.45,0,0,0-.43.71,6.79,6.79,0,0,0-.22,1.71v4.35Z"/><path class="cls-4" d="M609.93,533.65v-1a2.36,2.36,0,0,1-.81.92,1.91,1.91,0,0,1-1.06.32A2.58,2.58,0,0,1,606,532.7a5.1,5.1,0,0,1-.88-3.2,6.56,6.56,0,0,1,.39-2.4,3.29,3.29,0,0,1,1-1.46,2.4,2.4,0,0,1,1.45-.48,2,2,0,0,1,1.06.3,2.58,2.58,0,0,1,.8.84v-4.1H611v11.45Zm-3.65-4.14a4.15,4.15,0,0,0,.56,2.39,1.6,1.6,0,0,0,1.3.78,1.56,1.56,0,0,0,1.28-.75,3.9,3.9,0,0,0,.54-2.27,4.66,4.66,0,0,0-.54-2.54,1.61,1.61,0,0,0-1.36-.8,1.52,1.52,0,0,0-1.26.77A4.46,4.46,0,0,0,606.28,529.51Z"/><path class="cls-4" d="M617.65,524.31V526h-1.24v-1.29a3.8,3.8,0,0,1,.27-1.64,1.79,1.79,0,0,1,.79-.82l.29.55a1.17,1.17,0,0,0-.51.5,2.48,2.48,0,0,0-.2,1.06Z"/><path class="cls-4" d="M619.38,533.65v-8.3h1v1.26a3.67,3.67,0,0,1,.73-1.16,1.12,1.12,0,0,1,.75-.29,2,2,0,0,1,1.18.46l-.39,1.3a1.49,1.49,0,0,0-.84-.3,1,1,0,0,0-.67.26,1.38,1.38,0,0,0-.43.71,6.36,6.36,0,0,0-.22,1.71v4.35Z"/><path class="cls-4" d="M628.4,531l1.19.18a3.62,3.62,0,0,1-1.08,2,2.83,2.83,0,0,1-1.92.68,2.86,2.86,0,0,1-2.34-1.1,4.89,4.89,0,0,1-.9-3.17,5.19,5.19,0,0,1,.9-3.28,2.84,2.84,0,0,1,2.29-1.13,2.71,2.71,0,0,1,2.2,1.11,5.05,5.05,0,0,1,.88,3.21v.38h-5.08a3.57,3.57,0,0,0,.65,2.11,1.75,1.75,0,0,0,1.4.71C627.46,532.68,628.06,532.11,628.4,531Zm-3.79-2.28h3.8a3.32,3.32,0,0,0-.46-1.61,1.69,1.69,0,0,0-2.74-.13A2.88,2.88,0,0,0,624.61,528.7Z"/><path class="cls-4" d="M631,533.65V522.2h1.15v11.45Z"/><path class="cls-4" d="M638.39,532.62a4.23,4.23,0,0,1-1.2.91,3,3,0,0,1-1.3.31,2.28,2.28,0,0,1-1.69-.64,2.34,2.34,0,0,1-.64-1.73,2.62,2.62,0,0,1,.3-1.27,2.27,2.27,0,0,1,.81-.87,4.33,4.33,0,0,1,1.56-.46,9,9,0,0,0,2.07-.49V528a1.85,1.85,0,0,0-.3-1.2,1.67,1.67,0,0,0-1.32-.5,1.83,1.83,0,0,0-1.2.33,2.21,2.21,0,0,0-.59,1.26l-1.13-.19a3.18,3.18,0,0,1,1-2,3.26,3.26,0,0,1,2.11-.61,3,3,0,0,1,1.68.41,1.71,1.71,0,0,1,.77,1,7,7,0,0,1,.16,1.74v1.87a23.12,23.12,0,0,0,.08,2.48,3.27,3.27,0,0,0,.29,1h-1.21A3.64,3.64,0,0,1,638.39,532.62Zm-.09-3.14a7.31,7.31,0,0,1-1.89.54,3.33,3.33,0,0,0-1,.28,1.21,1.21,0,0,0-.45.45,1.37,1.37,0,0,0-.16.68,1.24,1.24,0,0,0,.37,1,1.37,1.37,0,0,0,1,.35,2,2,0,0,0,1.12-.32,2,2,0,0,0,.76-.85,4,4,0,0,0,.25-1.56Z"/><path class="cls-4" d="M643.82,532.39l.16,1.24a3.21,3.21,0,0,1-.86.13,1.74,1.74,0,0,1-1-.24,1.26,1.26,0,0,1-.51-.65,6.54,6.54,0,0,1-.13-1.65v-4.77h-.85v-1.1h.85V523.3l1.15-.85v2.9h1.16v1.1h-1.16v4.85a2.2,2.2,0,0,0,.1.86.56.56,0,0,0,.55.29A2.86,2.86,0,0,0,643.82,532.39Z"/><path class="cls-4" d="M644.91,523.81V522.2h1.14v1.61Zm0,9.84v-8.3h1.14v8.3Z"/><path class="cls-4" d="M649.72,533.65l-2.59-8.3h1.22l1.47,5c.16.56.31,1.12.43,1.67.1-.44.24-1,.43-1.58l1.52-5.06h1.18l-2.59,8.3Z"/><path class="cls-4" d="M659,531l1.19.18a3.62,3.62,0,0,1-1.08,2,2.82,2.82,0,0,1-1.92.68,2.88,2.88,0,0,1-2.34-1.1,4.89,4.89,0,0,1-.9-3.17,5.19,5.19,0,0,1,.91-3.28,2.8,2.8,0,0,1,2.28-1.13,2.72,2.72,0,0,1,2.21,1.11,5.11,5.11,0,0,1,.88,3.21v.38h-5.08a3.57,3.57,0,0,0,.65,2.11,1.77,1.77,0,0,0,1.41.71C658.09,532.68,658.69,532.11,659,531Zm-3.79-2.28H659a3.21,3.21,0,0,0-.46-1.61,1.69,1.69,0,0,0-1.42-.77,1.72,1.72,0,0,0-1.32.64A2.88,2.88,0,0,0,655.24,528.7Z"/><path class="cls-4" d="M661.59,523.84V522.2h1.25v1.28a3.77,3.77,0,0,1-.27,1.64,1.89,1.89,0,0,1-.8.83l-.28-.55c.46-.23.69-.75.71-1.56Z"/><path class="cls-4" d="M664.93,533.65v-1.6h1.31v1.6a3.28,3.28,0,0,1-.27,1.46,1.82,1.82,0,0,1-.8.8l-.32-.6a1.16,1.16,0,0,0,.53-.56,2.69,2.69,0,0,0,.2-1.1Z"/><path class="cls-4" d="M743.28,532.62a4,4,0,0,1-1.2.91,3,3,0,0,1-1.3.31,2.28,2.28,0,0,1-1.69-.64,2.34,2.34,0,0,1-.64-1.73,2.62,2.62,0,0,1,.3-1.27,2.27,2.27,0,0,1,.81-.87,4.33,4.33,0,0,1,1.56-.46,9,9,0,0,0,2.07-.49V528a1.84,1.84,0,0,0-.31-1.2,1.67,1.67,0,0,0-1.32-.5,1.83,1.83,0,0,0-1.2.33,2.21,2.21,0,0,0-.59,1.26l-1.13-.19a3.18,3.18,0,0,1,1-2,3.27,3.27,0,0,1,2.11-.61,3,3,0,0,1,1.68.41,1.71,1.71,0,0,1,.77,1,7,7,0,0,1,.16,1.74v1.87a23.12,23.12,0,0,0,.08,2.48,3.58,3.58,0,0,0,.29,1h-1.2A3.63,3.63,0,0,1,743.28,532.62Zm-.09-3.14a7.31,7.31,0,0,1-1.89.54,3.33,3.33,0,0,0-1,.28,1.21,1.21,0,0,0-.45.45,1.37,1.37,0,0,0-.16.68,1.24,1.24,0,0,0,.37,1,1.37,1.37,0,0,0,1,.35,2,2,0,0,0,1.12-.32,2,2,0,0,0,.76-.85,4,4,0,0,0,.25-1.56Z"/><path class="cls-4" d="M750.6,530.61l1.13.18a3.73,3.73,0,0,1-1,2.26,2.54,2.54,0,0,1-1.88.79,2.68,2.68,0,0,1-2.2-1.1,5.16,5.16,0,0,1-.87-3.25,5,5,0,0,1,.88-3.24,2.71,2.71,0,0,1,2.23-1.09,2.53,2.53,0,0,1,1.78.66,3.26,3.26,0,0,1,.93,2l-1.12.2a2.39,2.39,0,0,0-.57-1.25,1.32,1.32,0,0,0-1-.42,1.71,1.71,0,0,0-1.41.75,4.12,4.12,0,0,0-.56,2.4,4.29,4.29,0,0,0,.54,2.45,1.61,1.61,0,0,0,1.37.76,1.48,1.48,0,0,0,1.12-.5A2.74,2.74,0,0,0,750.6,530.61Z"/><path class="cls-4" d="M757.16,530.61l1.14.18a3.79,3.79,0,0,1-1,2.26,2.58,2.58,0,0,1-1.89.79,2.7,2.7,0,0,1-2.2-1.1,5.23,5.23,0,0,1-.86-3.25,5.09,5.09,0,0,1,.87-3.24,2.73,2.73,0,0,1,2.24-1.09,2.52,2.52,0,0,1,1.77.66,3.21,3.21,0,0,1,.93,2l-1.12.2a2.39,2.39,0,0,0-.57-1.25,1.3,1.3,0,0,0-1-.42,1.69,1.69,0,0,0-1.41.75,4,4,0,0,0-.56,2.4,4.38,4.38,0,0,0,.53,2.45,1.62,1.62,0,0,0,1.37.76,1.48,1.48,0,0,0,1.12-.5A2.74,2.74,0,0,0,757.16,530.61Z"/><path class="cls-4" d="M763.73,533.65v-1.22a3,3,0,0,1-.94,1.05,2.16,2.16,0,0,1-1.22.36,2.18,2.18,0,0,1-1.37-.44,2.08,2.08,0,0,1-.77-1.1,7.09,7.09,0,0,1-.19-1.81v-5.14h1.15V530a7.06,7.06,0,0,0,.13,1.72,1.26,1.26,0,0,0,.48.69,1.23,1.23,0,0,0,.79.26,1.66,1.66,0,0,0,1.36-.67,3.73,3.73,0,0,0,.45-2.15v-4.45h1.16v8.3Z"/><path class="cls-4" d="M766.57,533.65v-8.3h1v1.26a3.67,3.67,0,0,1,.73-1.16,1.12,1.12,0,0,1,.75-.29,2,2,0,0,1,1.18.46l-.39,1.3a1.49,1.49,0,0,0-.84-.3,1,1,0,0,0-.67.26,1.32,1.32,0,0,0-.43.71,6.36,6.36,0,0,0-.22,1.71v4.35Z"/><path class="cls-4" d="M770.49,531.16l1.15-.21a2.06,2.06,0,0,0,.55,1.3,1.68,1.68,0,0,0,1.2.43,1.65,1.65,0,0,0,1.16-.37,1.23,1.23,0,0,0,.41-.94.93.93,0,0,0-.35-.77,4.64,4.64,0,0,0-1.17-.47,8.28,8.28,0,0,1-1.8-.7,1.93,1.93,0,0,1-.7-.77,2.36,2.36,0,0,1-.25-1.11,2.28,2.28,0,0,1,.68-1.72,2.58,2.58,0,0,1,1.88-.67,3,3,0,0,1,1.33.28,2.06,2.06,0,0,1,.88.73,3.3,3.3,0,0,1,.42,1.32l-1.12.19a1.35,1.35,0,0,0-1.48-1.36,1.76,1.76,0,0,0-1.12.3,1,1,0,0,0-.36.77.85.85,0,0,0,.35.72,6.55,6.55,0,0,0,1.25.5,9.14,9.14,0,0,1,1.85.72,1.89,1.89,0,0,1,.66.74,2.51,2.51,0,0,1,.23,1.1,2.58,2.58,0,0,1-.75,1.93,2.84,2.84,0,0,1-2.06.74C771.7,533.84,770.75,533,770.49,531.16Z"/><path class="cls-4" d="M782.15,531l1.19.18a3.62,3.62,0,0,1-1.08,2,2.83,2.83,0,0,1-1.92.68,2.86,2.86,0,0,1-2.34-1.1,4.89,4.89,0,0,1-.9-3.17,5.19,5.19,0,0,1,.9-3.28,2.84,2.84,0,0,1,2.29-1.13,2.71,2.71,0,0,1,2.2,1.11,5.05,5.05,0,0,1,.89,3.21v.38h-5.08a3.57,3.57,0,0,0,.65,2.11,1.75,1.75,0,0,0,1.4.71C781.21,532.68,781.81,532.11,782.15,531Zm-3.79-2.28h3.8a3.32,3.32,0,0,0-.46-1.61A1.69,1.69,0,0,0,779,527,2.88,2.88,0,0,0,778.36,528.7Z"/><path class="cls-4" d="M789.2,533.65v-1a2.26,2.26,0,0,1-.8.92,1.94,1.94,0,0,1-1.06.32,2.58,2.58,0,0,1-2.09-1.14,5.16,5.16,0,0,1-.87-3.2,6.57,6.57,0,0,1,.38-2.4,3.31,3.31,0,0,1,1-1.46,2.35,2.35,0,0,1,1.44-.48,2,2,0,0,1,1.06.3,2.71,2.71,0,0,1,.81.84v-4.1h1.16v11.45Zm-3.65-4.14a4.15,4.15,0,0,0,.56,2.39,1.61,1.61,0,0,0,1.31.78,1.55,1.55,0,0,0,1.27-.75,3.9,3.9,0,0,0,.54-2.27,4.66,4.66,0,0,0-.54-2.54,1.6,1.6,0,0,0-1.36-.8,1.5,1.5,0,0,0-1.25.77A4.36,4.36,0,0,0,785.55,529.51Z"/><path class="cls-4" d="M800.2,530.61l1.13.18a3.79,3.79,0,0,1-1,2.26,2.56,2.56,0,0,1-1.89.79,2.7,2.7,0,0,1-2.2-1.1,5.23,5.23,0,0,1-.86-3.25,5.09,5.09,0,0,1,.87-3.24,2.73,2.73,0,0,1,2.24-1.09,2.56,2.56,0,0,1,1.78.66,3.2,3.2,0,0,1,.92,2l-1.12.2a2.39,2.39,0,0,0-.57-1.25,1.3,1.3,0,0,0-1-.42,1.69,1.69,0,0,0-1.41.75,4,4,0,0,0-.56,2.4,4.38,4.38,0,0,0,.53,2.45,1.62,1.62,0,0,0,1.37.76,1.5,1.5,0,0,0,1.13-.5A2.81,2.81,0,0,0,800.2,530.61Z"/><path class="cls-4" d="M806.73,532.62a4,4,0,0,1-1.2.91,3,3,0,0,1-1.3.31,2.3,2.3,0,0,1-1.69-.64,2.37,2.37,0,0,1-.63-1.73,2.62,2.62,0,0,1,.29-1.27,2.22,2.22,0,0,1,.82-.87,4.2,4.2,0,0,1,1.56-.46,8.87,8.87,0,0,0,2.06-.49V528a1.78,1.78,0,0,0-.31-1.2,1.64,1.64,0,0,0-1.32-.5,1.87,1.87,0,0,0-1.2.33,2.21,2.21,0,0,0-.59,1.26l-1.13-.19a3.18,3.18,0,0,1,1-2,3.29,3.29,0,0,1,2.12-.61,3,3,0,0,1,1.68.41,1.69,1.69,0,0,1,.76,1,7,7,0,0,1,.16,1.74v1.87a23.12,23.12,0,0,0,.08,2.48,3.94,3.94,0,0,0,.29,1H807A3.63,3.63,0,0,1,806.73,532.62Zm-.09-3.14a7.34,7.34,0,0,1-1.88.54,3.33,3.33,0,0,0-1,.28,1.21,1.21,0,0,0-.45.45,1.48,1.48,0,0,0-.16.68,1.24,1.24,0,0,0,.37,1,1.39,1.39,0,0,0,1,.35,2,2,0,0,0,1.87-1.17,3.78,3.78,0,0,0,.25-1.56Z"/><path class="cls-4" d="M811.5,533.65l-2.59-8.3h1.22l1.47,5c.16.56.31,1.12.44,1.67.09-.44.24-1,.42-1.58l1.52-5.06h1.18l-2.58,8.3Z"/><path class="cls-4" d="M820.81,531l1.19.18a3.67,3.67,0,0,1-1.07,2,2.84,2.84,0,0,1-1.93.68,2.89,2.89,0,0,1-2.34-1.1,4.89,4.89,0,0,1-.89-3.17,5.19,5.19,0,0,1,.9-3.28,2.8,2.8,0,0,1,2.28-1.13,2.72,2.72,0,0,1,2.21,1.11,5.05,5.05,0,0,1,.88,3.21v.38H817a3.64,3.64,0,0,0,.65,2.11,1.78,1.78,0,0,0,1.41.71C819.87,532.68,820.47,532.11,820.81,531ZM817,528.7h3.8a3.21,3.21,0,0,0-.46-1.61,1.68,1.68,0,0,0-1.41-.77,1.72,1.72,0,0,0-1.33.64A2.88,2.88,0,0,0,817,528.7Z"/><path class="cls-4" d="M827.89,532.62a4.23,4.23,0,0,1-1.2.91,3,3,0,0,1-1.3.31,2.28,2.28,0,0,1-1.69-.64,2.34,2.34,0,0,1-.64-1.73,2.62,2.62,0,0,1,.3-1.27,2.27,2.27,0,0,1,.81-.87,4.33,4.33,0,0,1,1.56-.46,9,9,0,0,0,2.07-.49V528a1.85,1.85,0,0,0-.3-1.2,1.67,1.67,0,0,0-1.32-.5,1.83,1.83,0,0,0-1.2.33,2.21,2.21,0,0,0-.59,1.26l-1.13-.19a3.18,3.18,0,0,1,1-2,3.26,3.26,0,0,1,2.11-.61,3,3,0,0,1,1.68.41,1.71,1.71,0,0,1,.77,1,7,7,0,0,1,.16,1.74v1.87a23.12,23.12,0,0,0,.08,2.48,3.27,3.27,0,0,0,.29,1h-1.21A3.64,3.64,0,0,1,827.89,532.62Zm-.09-3.14a7.31,7.31,0,0,1-1.89.54,3.33,3.33,0,0,0-1,.28,1.21,1.21,0,0,0-.45.45,1.37,1.37,0,0,0-.16.68,1.24,1.24,0,0,0,.37,1,1.37,1.37,0,0,0,1,.35,2,2,0,0,0,1.12-.32,2,2,0,0,0,.76-.85,4,4,0,0,0,.25-1.56Z"/><path class="cls-4" d="M833.32,532.39l.16,1.24a3.21,3.21,0,0,1-.86.13,1.74,1.74,0,0,1-1-.24,1.26,1.26,0,0,1-.51-.65,6.54,6.54,0,0,1-.13-1.65v-4.77h-.85v-1.1H831V523.3l1.15-.85v2.9h1.16v1.1h-1.16v4.85a2.2,2.2,0,0,0,.1.86.56.56,0,0,0,.55.29A2.86,2.86,0,0,0,833.32,532.39Z"/><path class="cls-4" d="M834.74,533.65v-1.6h1.31v1.6a3.28,3.28,0,0,1-.27,1.46,1.82,1.82,0,0,1-.8.8l-.32-.6a1.18,1.18,0,0,0,.54-.56,2.72,2.72,0,0,0,.19-1.1Z"/><path class="cls-4" d="M741.06,556.22a16.64,16.64,0,0,1-1.56-3.32,12.12,12.12,0,0,1-.71-4.21,14.19,14.19,0,0,1,2.27-7.49h.83a28.1,28.1,0,0,0-1.21,2.85,14.5,14.5,0,0,0-.52,2.22,15.34,15.34,0,0,0-.19,2.44,16.4,16.4,0,0,0,1.92,7.51Z"/><path class="cls-4" d="M742.78,548.7a5,5,0,0,1,.9-3.24,2.91,2.91,0,0,1,4.56,0,4.79,4.79,0,0,1,.92,3.15,5.17,5.17,0,0,1-.9,3.33,2.92,2.92,0,0,1-4.57,0A5,5,0,0,1,742.78,548.7Zm1.18,0a4,4,0,0,0,.59,2.39,1.74,1.74,0,0,0,1.45.79,1.67,1.67,0,0,0,1.39-.79,4,4,0,0,0,.59-2.39,4,4,0,0,0-.59-2.39,1.74,1.74,0,0,0-1.45-.79,1.68,1.68,0,0,0-1.4.79A4,4,0,0,0,744,548.7Z"/><path class="cls-4" d="M750.52,552.85v-8.3h1v1.17a2.78,2.78,0,0,1,.92-1,2.43,2.43,0,0,1,2.25-.12,2.05,2.05,0,0,1,.75.56,2.36,2.36,0,0,1,.43.9,7.81,7.81,0,0,1,.14,1.71v5.1h-1.15V547.8a4,4,0,0,0-.16-1.34,1.27,1.27,0,0,0-1.25-.88,1.58,1.58,0,0,0-1.32.61,3.45,3.45,0,0,0-.5,2.12v4.54Z"/><path class="cls-4" d="M757.77,552.85V541.4h1.15v11.45Z"/><path class="cls-4" d="M760.69,556l-.13-1.32a2.06,2.06,0,0,0,.66.13,1.15,1.15,0,0,0,.61-.15,1.13,1.13,0,0,0,.39-.46q.06-.11.45-1.38l-2.58-8.31h1.24l1.42,4.8c.18.6.34,1.24.49,1.92.13-.64.29-1.27.47-1.89l1.45-4.83h1.16L763.74,553a16.16,16.16,0,0,1-.8,2.19,2.07,2.07,0,0,1-.67.79,1.53,1.53,0,0,1-.84.25A1.85,1.85,0,0,1,760.69,556Z"/><path class="cls-4" d="M770.94,552.85v-8.3h1v1.26a3.5,3.5,0,0,1,.73-1.16,1.12,1.12,0,0,1,.74-.29,2,2,0,0,1,1.18.46l-.39,1.3a1.43,1.43,0,0,0-.83-.3,1,1,0,0,0-.68.26,1.45,1.45,0,0,0-.43.71,6.79,6.79,0,0,0-.21,1.71v4.35Z"/><path class="cls-4" d="M780,550.18l1.19.18a3.67,3.67,0,0,1-1.07,2,2.84,2.84,0,0,1-1.93.68,2.89,2.89,0,0,1-2.34-1.1,4.89,4.89,0,0,1-.89-3.17,5.19,5.19,0,0,1,.9-3.28,2.8,2.8,0,0,1,2.28-1.13,2.72,2.72,0,0,1,2.21,1.11,5.05,5.05,0,0,1,.88,3.21v.38h-5.08a3.64,3.64,0,0,0,.65,2.11,1.78,1.78,0,0,0,1.41.71C779,551.88,779.61,551.31,780,550.18Zm-3.79-2.28H780a3.21,3.21,0,0,0-.46-1.61,1.68,1.68,0,0,0-1.41-.77,1.67,1.67,0,0,0-1.32.65A2.77,2.77,0,0,0,776.16,547.9Z"/><path class="cls-4" d="M782.56,552.85V541.4h1.15v11.45Z"/><path class="cls-4" d="M790,551.83a4.27,4.27,0,0,1-1.21.9,3,3,0,0,1-1.29.31,2.31,2.31,0,0,1-1.7-.64,2.37,2.37,0,0,1-.63-1.73,2.73,2.73,0,0,1,.29-1.27,2.22,2.22,0,0,1,.82-.87,4.2,4.2,0,0,1,1.56-.46,8.87,8.87,0,0,0,2.06-.49v-.36a1.78,1.78,0,0,0-.31-1.2,1.64,1.64,0,0,0-1.32-.5,1.87,1.87,0,0,0-1.2.33,2.21,2.21,0,0,0-.58,1.26l-1.14-.19a3.18,3.18,0,0,1,1-1.95,3.3,3.3,0,0,1,2.12-.61,3,3,0,0,1,1.68.41,1.79,1.79,0,0,1,.77,1,7.53,7.53,0,0,1,.16,1.74v1.87a24.27,24.27,0,0,0,.07,2.48,3.94,3.94,0,0,0,.29,1h-1.2A3.33,3.33,0,0,1,790,551.83Zm-.1-3.15a7.34,7.34,0,0,1-1.88.54,3.42,3.42,0,0,0-1,.28,1.21,1.21,0,0,0-.45.45,1.51,1.51,0,0,0-.16.68,1.28,1.28,0,0,0,.37,1,1.39,1.39,0,0,0,1,.35,2,2,0,0,0,1.87-1.17,3.78,3.78,0,0,0,.25-1.56Z"/><path class="cls-4" d="M795.38,551.59l.15,1.24a3.15,3.15,0,0,1-.86.13,1.76,1.76,0,0,1-1-.24,1.24,1.24,0,0,1-.5-.65,6.39,6.39,0,0,1-.14-1.65v-4.77h-.84v-1.1h.84v-2l1.15-.85v2.9h1.17v1.1h-1.17v4.85a2.42,2.42,0,0,0,.1.86.58.58,0,0,0,.56.29A2.86,2.86,0,0,0,795.38,551.59Z"/><path class="cls-4" d="M796.46,543V541.4h1.15V543Zm0,9.84v-8.3h1.15v8.3Z"/><path class="cls-4" d="M801.28,552.85l-2.59-8.3h1.22l1.46,5c.17.56.31,1.12.44,1.67.1-.44.24-1,.42-1.58l1.52-5.06h1.19l-2.59,8.3Z"/><path class="cls-4" d="M810.59,550.18l1.18.18a3.55,3.55,0,0,1-1.07,2,2.84,2.84,0,0,1-1.93.68,2.89,2.89,0,0,1-2.34-1.1,5,5,0,0,1-.89-3.17,5.19,5.19,0,0,1,.9-3.28,2.81,2.81,0,0,1,2.29-1.13,2.71,2.71,0,0,1,2.2,1.11,5.05,5.05,0,0,1,.88,3.21v.38h-5.07a3.5,3.5,0,0,0,.65,2.11,1.75,1.75,0,0,0,1.4.71C809.65,551.88,810.25,551.31,810.59,550.18Zm-3.79-2.28h3.79a3.11,3.11,0,0,0-.46-1.61,1.68,1.68,0,0,0-1.41-.77,1.67,1.67,0,0,0-1.32.65A2.71,2.71,0,0,0,806.8,547.9Z"/><path class="cls-4" d="M813.2,552.85V541.4h1.14v11.45Z"/><path class="cls-4" d="M816.11,556l-.13-1.32a2.06,2.06,0,0,0,.66.13,1.13,1.13,0,0,0,.61-.15,1.06,1.06,0,0,0,.39-.46c0-.07.19-.53.46-1.38l-2.59-8.31h1.24l1.42,4.8c.18.6.34,1.24.49,1.92.13-.64.29-1.27.47-1.89l1.46-4.83h1.15L819.16,553a16.16,16.16,0,0,1-.8,2.19,2.07,2.07,0,0,1-.67.79,1.49,1.49,0,0,1-.84.25A1.89,1.89,0,0,1,816.11,556Z"/><path class="cls-4" d="M826.36,552.85V541.4h1.15v4.1a2.73,2.73,0,0,1,.92-.85,2.25,2.25,0,0,1,1.12-.29,2.18,2.18,0,0,1,1.72.7,3.8,3.8,0,0,1,.63,2.53v5.26h-1.15v-5.26a2.52,2.52,0,0,0-.38-1.55,1.3,1.3,0,0,0-1.06-.46,1.62,1.62,0,0,0-1.27.6,3.22,3.22,0,0,0-.53,2.13v4.54Z"/><path class="cls-4" d="M838.09,551.83a4.27,4.27,0,0,1-1.21.9,3,3,0,0,1-1.29.31,2.31,2.31,0,0,1-1.7-.64,2.37,2.37,0,0,1-.63-1.73,2.73,2.73,0,0,1,.29-1.27,2.22,2.22,0,0,1,.82-.87,4.2,4.2,0,0,1,1.56-.46,8.87,8.87,0,0,0,2.06-.49v-.36a1.85,1.85,0,0,0-.3-1.2,1.67,1.67,0,0,0-1.32-.5,1.88,1.88,0,0,0-1.21.33,2.21,2.21,0,0,0-.58,1.26l-1.14-.19a3.18,3.18,0,0,1,1-1.95,3.3,3.3,0,0,1,2.12-.61,3,3,0,0,1,1.68.41,1.79,1.79,0,0,1,.77,1,7.53,7.53,0,0,1,.16,1.74v1.87a24.27,24.27,0,0,0,.07,2.48,3.94,3.94,0,0,0,.29,1h-1.2A3.33,3.33,0,0,1,838.09,551.83Zm-.1-3.15a7.34,7.34,0,0,1-1.88.54,3.42,3.42,0,0,0-1,.28,1.21,1.21,0,0,0-.45.45,1.51,1.51,0,0,0-.16.68,1.28,1.28,0,0,0,.37,1,1.39,1.39,0,0,0,1,.35,2,2,0,0,0,1.12-.32,1.93,1.93,0,0,0,.75-.85,3.78,3.78,0,0,0,.25-1.56Z"/><path class="cls-4" d="M841,556V544.55H842v1.08a2.68,2.68,0,0,1,.86-1,2,2,0,0,1,1.09-.3,2.36,2.36,0,0,1,1.45.48,3.27,3.27,0,0,1,1.05,1.45,6.3,6.3,0,0,1,.39,2.34,5.23,5.23,0,0,1-.89,3.26,2.59,2.59,0,0,1-2.08,1.15,1.86,1.86,0,0,1-1-.28,2.54,2.54,0,0,1-.8-.77v4Zm1-7.28a4.15,4.15,0,0,0,.54,2.37,1.47,1.47,0,0,0,2.59,0,5.65,5.65,0,0,0,0-4.84,1.42,1.42,0,0,0-2.57.06A4.33,4.33,0,0,0,842,548.75Z"/><path class="cls-4" d="M848.25,556V544.55h1.06v1.08a2.7,2.7,0,0,1,.87-1,2,2,0,0,1,1.09-.3,2.36,2.36,0,0,1,1.45.48,3.26,3.26,0,0,1,1,1.45,6.09,6.09,0,0,1,.4,2.34,5.23,5.23,0,0,1-.89,3.26,2.61,2.61,0,0,1-2.08,1.15,1.81,1.81,0,0,1-1-.28,2.44,2.44,0,0,1-.8-.77v4Zm1-7.28a4.15,4.15,0,0,0,.54,2.37,1.46,1.46,0,0,0,2.58,0,5.6,5.6,0,0,0,0-4.84,1.42,1.42,0,0,0-2.57.06A4.33,4.33,0,0,0,849.3,548.75Z"/><path class="cls-4" d="M855.51,556l-.13-1.32a2.06,2.06,0,0,0,.66.13,1.15,1.15,0,0,0,.61-.15,1.13,1.13,0,0,0,.39-.46q.06-.11.45-1.38l-2.58-8.31h1.24l1.42,4.8c.18.6.34,1.24.49,1.92.13-.64.29-1.27.47-1.89l1.45-4.83h1.16L858.56,553a16.16,16.16,0,0,1-.8,2.19,2.07,2.07,0,0,1-.67.79,1.53,1.53,0,0,1-.84.25A1.85,1.85,0,0,1,855.51,556Z"/><path class="cls-4" d="M862.56,556.22h-.83a16.4,16.4,0,0,0,1.92-7.51,16.6,16.6,0,0,0-.19-2.44,14.5,14.5,0,0,0-.52-2.22,24.1,24.1,0,0,0-1.21-2.85h.83a14.19,14.19,0,0,1,2.27,7.49,12.67,12.67,0,0,1-.68,4.15A15.62,15.62,0,0,1,862.56,556.22Z"/><path class="cls-4" d="M866.84,552.85v-1.6h1.31v1.6Z"/><path class="cls-4" d="M924.35,28.3v1.35h-6.21a3.79,3.79,0,0,1,.5-1.84,10.09,10.09,0,0,1,1.9-2.4,13.65,13.65,0,0,0,2.12-2.49,3.39,3.39,0,0,0,.5-1.64,2,2,0,0,0-.52-1.42,1.65,1.65,0,0,0-1.26-.56,1.68,1.68,0,0,0-1.32.6,2.57,2.57,0,0,0-.51,1.71l-1.19-.15a3.85,3.85,0,0,1,.93-2.48,2.85,2.85,0,0,1,2.13-.83,2.56,2.56,0,0,1,2.18,1,3.54,3.54,0,0,1,.74,2.2,4.21,4.21,0,0,1-.58,2.1,15.77,15.77,0,0,1-2.2,2.67c-.68.71-1.13,1.19-1.33,1.44a4.71,4.71,0,0,0-.49.77Z"/><path class="cls-4" d="M929.91,29.65h-1.15v-9a6.08,6.08,0,0,1-1.07.95,6.3,6.3,0,0,1-1.24.74V21a7.1,7.1,0,0,0,1.69-1.33,5.06,5.06,0,0,0,1-1.54h.75Z"/><g class="cls-2"><path class="cls-3" d="M206.17,532.23A4.21,4.21,0,0,1,206,531c0-.72,3.14-110.08,3.14-110.08l.34-14-.25-.56a5.32,5.32,0,0,1,.23-2.07c.34-.79.11-.87.11-.87l.71.25-2.22-.86,4.76,1.54,9.5,2.72,18.21,5.23"/><path class="cls-3" d="M231.49,409.12l16.23,5.53,11.48,3.1s43.36,13.32,43.39,12.43"/><path class="cls-3" d="M275.66,468.48l.2.08-.15-1.69s-.94-15.15-1.26-21.41-.88-54-.88-54l0-21.19"/><path class="cls-3" d="M274.24,406c.09.83.08,2,.12,2.89.08,1.79.14,3.61.16,5.43,0,2.7,0,5.33.1,8,0,1,.12,1.92.16,2.9.06,1.35.05,2.73.09,4.07,0,.46.06.93.1,1.38.09,1.27.06,2.42,0,3.71s0,2.44.09,3.64,0,2.56,0,3.84c0,1.62,0,3.23.05,4.85,0,1.84-.05,3.54-.14,5.35-.14,2.93-.17,6-.25,8.94"/><path class="cls-3" d="M273.31,364l-.05.05a36.74,36.74,0,0,1,.16-4.06c.09-1.85.17-3.73.31-5.55.11-1.56.16-3.08.21-4.68.06-1.86,0-3.7.07-5.56s.12-3.66.17-5.49c0-1.23.16-2.13.2-3.35.09-3.11.17-6.21.38-9.26.12-1.79.23-3.71.22-5.56,0-.75,0-1.52,0-2.27s0-1.33,0-1.93a7.6,7.6,0,0,1,0-.9c0-.86.06-1.72.08-2.58,0-1.93,0-3.88.07-5.83q.1-3.3.2-6.61c.08-2.83.36-5.39.45-8.2q.1-3.57.22-7.12c0-1,.09-2,.07-3,0-1.92-.17-3.63-.12-5.58.07-2.6.1-5.21.19-7.79,0-.85,0-1.73,0-2.58a22.41,22.41,0,0,1-.16-2.34"/><path class="cls-3" d="M276.25,235.26s-.22,61.55-.88,71.22"/><path class="cls-3" d="M283,350.83c1.28.17,2.49,1.17,3.73,2.16"/><path class="cls-3" d="M291.47,353.25c1.85.56,3.84.64,5.48,3.89l1.39,3.36a7.62,7.62,0,0,1,.38.69"/><path class="cls-3" d="M301.05,366.73c-1.61-4-3.47-7.8-4.36-14.19"/><path class="cls-3" d="M301.55,381.55c0,.31,0,.61,0,.92l-.18-2.45q-.77-22.63-.55-45.53c.09-15.76.51-30.84,1-46.37"/><path class="cls-3" d="M306.45,389.13l.12.29q1.24-21.57,1.8-43.5.79-28.28,1.45-56.59.14-8.59.85-16.82c.18-1,.28-1.3.62-1.18l0,.18"/><path class="cls-3" d="M308.5,307.76c-.25-2.21.18-22.74.15-21,.09-5.39.2-12,.38-17.65,0,.13,0,.26,0,.39"/><path class="cls-3" d="M308.31,341.65c.23-1.6.46-3.21.68-4.82"/><path class="cls-3" d="M308.5,282.79q-.22-17.28.79-34.35l1.95-38.08a127.37,127.37,0,0,1,2.21-26.29"/><path class="cls-3" d="M311.57,188c-.07,5.7-.1,11.46-.21,17.14,0-.06,0,.09,0,.19"/><path class="cls-3" d="M316,282.35v.53c-.07-8.34.18-17.07.37-25.29s.45-16.7.68-25"/><path class="cls-3" d="M317.39,266.48c.31-11.52.62-23.22.94-34.81,0,.66-.05,1.19-.11,1.77"/><path class="cls-3" d="M319.78,299.62a2.73,2.73,0,0,0-.06.45q.34-9.82.49-19.73c.3-16.2.47-32.89.05-49.11,0-1.1-.1-2.33-.06-3.46,0,.18,0,.34.05.51,0-.56,0-1.12,0-1.68"/><path class="cls-3" d="M322.3,305s.53-71.16-.69-60.32,2.42,47.4,2.42,47.4"/><path class="cls-3" d="M315.63,234.94s3.16-72.74,4.31-76.63-.13-3-.13-3"/><path class="cls-3" d="M324,148.38s-4,72.06-7.1,84.07"/><path class="cls-3" d="M329.7,200.66l0,.21q.4-18.52,1.37-36.82.81-23,2.92-44.83"/><path class="cls-3" d="M317.86,73.36v.21l.48-16.19c.06-2.13.18-5,.21-7.36,0,.59,0,1.18,0,1.77.05,3.38-.35,6.62-.25,10,.53-5.64-.37-11.78.24-17.32q.69-5.55,1.13-11.39a.38.38,0,0,0,0,.33"/><path class="cls-3" d="M310.51,165.25S308,100.63,307.26,86.8"/><path class="cls-3" d="M244,119.46s15.55,44.18,24.09-12"/><path class="cls-3" d="M248.73,26.23s3.41,61.85,26.44,9.58S266,63.76,266,63.76L274.36,31l3.35-5.24S260.32,51,275.93,34.65"/></g></g></svg>