<svg id="Layer_1" data-name="Layer 1" xmlns="http://www.w3.org/2000/svg" xmlns:xlink="http://www.w3.org/1999/xlink" viewBox="0 0 1080 756"><defs><style>.cls-1,.cls-3{fill:none;}.cls-2{clip-path:url(#clip-path);}.cls-3{stroke:#231f20;stroke-width:0.25px;}.cls-4{fill:#231f20;}</style><clipPath id="clip-path"><rect class="cls-1" width="1080" height="756"/></clipPath></defs><title>Untitled-3</title><g class="cls-2"><g class="cls-2"><line class="cls-3" x1="180" y1="-18.36" x2="180" y2="790.92"/><line class="cls-3" x1="720" y1="-20.88" x2="720" y2="788.4"/><line class="cls-3" x1="359.88" y1="-18.36" x2="359.88" y2="790.92"/><line class="cls-3" x1="899.87" y1="-20.88" x2="899.87" y2="788.4"/><line class="cls-3" x1="-16.92" y1="251.88" x2="1101.6" y2="251.88"/><line class="cls-3" x1="-11.52" y1="504.13" x2="1107" y2="504.13"/><line class="cls-3" x1="540" y1="-19.44" x2="540" y2="789.84"/></g><path class="cls-4" d="M379.17,29.65v-7.2h-1V21.36h1v-.89a3.85,3.85,0,0,1,.21-1.46,1.49,1.49,0,0,1,.62-.75,2,2,0,0,1,1.05-.26,4.37,4.37,0,0,1,1.08.15L382,19.37a3.31,3.31,0,0,0-.68-.08.92.92,0,0,0-.74.27,1.71,1.71,0,0,0-.22,1v.77h1.33v1.09h-1.33v7.2Z"/><path class="cls-4" d="M382.06,25.5a5,5,0,0,1,.9-3.24,2.93,2.93,0,0,1,4.56,0,4.8,4.8,0,0,1,.92,3.16,5.17,5.17,0,0,1-.9,3.33,2.83,2.83,0,0,1-2.29,1.09,2.86,2.86,0,0,1-2.28-1.1A5,5,0,0,1,382.06,25.5Zm1.18,0a4,4,0,0,0,.59,2.4,1.75,1.75,0,0,0,1.45.78,1.7,1.7,0,0,0,1.4-.79,4.11,4.11,0,0,0,.58-2.39,4,4,0,0,0-.59-2.39,1.75,1.75,0,0,0-1.45-.78,1.69,1.69,0,0,0-1.4.79A4,4,0,0,0,383.24,25.5Z"/><path class="cls-4" d="M389.8,29.65V21.36h1v1.25a3.35,3.35,0,0,1,.73-1.16,1.1,1.1,0,0,1,.74-.28,2,2,0,0,1,1.18.45l-.39,1.31a1.38,1.38,0,0,0-.83-.31,1.05,1.05,0,0,0-.68.26,1.44,1.44,0,0,0-.43.72,6.73,6.73,0,0,0-.21,1.71v4.34Z"/><path class="cls-4" d="M398.62,26.61l1.13.18a3.82,3.82,0,0,1-1,2.27,2.57,2.57,0,0,1-1.89.78,2.7,2.7,0,0,1-2.2-1.1,5.2,5.2,0,0,1-.86-3.24,5.1,5.1,0,0,1,.87-3.25,2.75,2.75,0,0,1,2.24-1.08,2.55,2.55,0,0,1,1.78.66,3.17,3.17,0,0,1,.92,2l-1.11.21a2.47,2.47,0,0,0-.57-1.26,1.32,1.32,0,0,0-1-.41,1.69,1.69,0,0,0-1.41.75,4.06,4.06,0,0,0-.56,2.39,4.35,4.35,0,0,0,.54,2.46,1.61,1.61,0,0,0,1.37.75,1.46,1.46,0,0,0,1.12-.5A2.81,2.81,0,0,0,398.62,26.61Z"/><path class="cls-4" d="M405.38,27l1.18.18a3.64,3.64,0,0,1-1.07,2,2.84,2.84,0,0,1-1.93.67,2.89,2.89,0,0,1-2.34-1.1,4.92,4.92,0,0,1-.89-3.16,5.15,5.15,0,0,1,.9-3.28,2.78,2.78,0,0,1,2.29-1.13,2.71,2.71,0,0,1,2.2,1.11,5.05,5.05,0,0,1,.88,3.21v.37h-5.07a3.55,3.55,0,0,0,.64,2.11,1.75,1.75,0,0,0,1.41.71C404.43,28.68,405,28.12,405.38,27Zm-3.79-2.27h3.79a3.08,3.08,0,0,0-.46-1.61,1.68,1.68,0,0,0-2.73-.13A2.76,2.76,0,0,0,401.59,24.71Z"/><path class="cls-4" d="M412.43,29.65v-1a2.33,2.33,0,0,1-.81.91,1.84,1.84,0,0,1-1.06.32,2.58,2.58,0,0,1-2.08-1.14,5.08,5.08,0,0,1-.88-3.2,6.47,6.47,0,0,1,.39-2.39,3.18,3.18,0,0,1,1-1.46,2.4,2.4,0,0,1,1.45-.48,2,2,0,0,1,1.06.3,2.39,2.39,0,0,1,.8.84V18.2h1.17V29.65Zm-3.65-4.14a4.13,4.13,0,0,0,.56,2.39,1.6,1.6,0,0,0,1.3.78,1.56,1.56,0,0,0,1.28-.75,3.86,3.86,0,0,0,.54-2.26,4.63,4.63,0,0,0-.54-2.54,1.59,1.59,0,0,0-1.36-.8,1.51,1.51,0,0,0-1.26.76A4.48,4.48,0,0,0,408.78,25.51Z"/><path class="cls-4" d="M423.4,28.63a4.64,4.64,0,0,1-1.2.91,3,3,0,0,1-1.3.3,2.27,2.27,0,0,1-1.7-.64,2.36,2.36,0,0,1-.63-1.73,2.62,2.62,0,0,1,.3-1.27,2.27,2.27,0,0,1,.81-.87,4.2,4.2,0,0,1,1.56-.46,8.74,8.74,0,0,0,2.06-.49V24a1.8,1.8,0,0,0-.3-1.19,1.63,1.63,0,0,0-1.32-.5,1.88,1.88,0,0,0-1.21.33,2.18,2.18,0,0,0-.58,1.25l-1.13-.19a3.07,3.07,0,0,1,1-1.94,3.2,3.2,0,0,1,2.11-.61,3,3,0,0,1,1.68.4,1.73,1.73,0,0,1,.77,1,6.87,6.87,0,0,1,.16,1.73v1.88a24.27,24.27,0,0,0,.07,2.48,3.53,3.53,0,0,0,.3,1h-1.21A3.2,3.2,0,0,1,423.4,28.63Zm-.1-3.14a7,7,0,0,1-1.88.53,3.28,3.28,0,0,0-1,.29,1,1,0,0,0-.45.45,1.33,1.33,0,0,0-.16.67,1.26,1.26,0,0,0,.36.95,1.41,1.41,0,0,0,1,.36,2.09,2.09,0,0,0,1.12-.32,1.9,1.9,0,0,0,.75-.86A3.72,3.72,0,0,0,423.3,26Z"/><path class="cls-4" d="M426.27,29.65V21.36h1v1.17a2.63,2.63,0,0,1,.92-1,2.27,2.27,0,0,1,1.24-.34,2.37,2.37,0,0,1,1,.21,2.08,2.08,0,0,1,.75.57,2.36,2.36,0,0,1,.43.9,7.77,7.77,0,0,1,.14,1.7v5.1h-1.15v-5a4,4,0,0,0-.16-1.34,1.28,1.28,0,0,0-.48-.65,1.37,1.37,0,0,0-.77-.23,1.59,1.59,0,0,0-1.32.62,3.45,3.45,0,0,0-.5,2.12v4.53Z"/><path class="cls-4" d="M438,29.65v-1a2.33,2.33,0,0,1-.81.91,1.84,1.84,0,0,1-1.06.32A2.58,2.58,0,0,1,434,28.7a5.08,5.08,0,0,1-.88-3.2,6.47,6.47,0,0,1,.39-2.39,3.18,3.18,0,0,1,1-1.46,2.4,2.4,0,0,1,1.45-.48,2,2,0,0,1,1.06.3,2.39,2.39,0,0,1,.8.84V18.2h1.17V29.65Zm-3.65-4.14a4.13,4.13,0,0,0,.56,2.39,1.6,1.6,0,0,0,1.3.78,1.56,1.56,0,0,0,1.28-.75,4,4,0,0,0,.53-2.26,4.74,4.74,0,0,0-.53-2.54,1.59,1.59,0,0,0-1.37-.8,1.5,1.5,0,0,0-1.25.76A4.48,4.48,0,0,0,434.32,25.51Z"/><path class="cls-4" d="M444.51,29.65V18.2h1.15v4.11a2.84,2.84,0,0,1,.91-.86,2.31,2.31,0,0,1,1.13-.28,2.21,2.21,0,0,1,1.72.69,3.84,3.84,0,0,1,.63,2.54v5.25H448.9V24.4a2.5,2.5,0,0,0-.38-1.55,1.31,1.31,0,0,0-1.06-.47,1.66,1.66,0,0,0-1.28.6,3.28,3.28,0,0,0-.52,2.13v4.54Z"/><path class="cls-4" d="M456.23,28.63a4.33,4.33,0,0,1-1.2.91,3,3,0,0,1-1.3.3A2.26,2.26,0,0,1,452,29.2a2.36,2.36,0,0,1-.63-1.73,2.62,2.62,0,0,1,.29-1.27,2.22,2.22,0,0,1,.82-.87,4.2,4.2,0,0,1,1.56-.46,8.87,8.87,0,0,0,2.06-.49V24a1.73,1.73,0,0,0-.31-1.19,1.61,1.61,0,0,0-1.32-.5,1.87,1.87,0,0,0-1.2.33,2.18,2.18,0,0,0-.59,1.25l-1.13-.19a3.12,3.12,0,0,1,1-1.94,3.23,3.23,0,0,1,2.12-.61,3,3,0,0,1,1.68.4,1.71,1.71,0,0,1,.76,1,6.87,6.87,0,0,1,.16,1.73v1.88a23.12,23.12,0,0,0,.08,2.48,3.87,3.87,0,0,0,.29,1h-1.2A3.48,3.48,0,0,1,456.23,28.63Zm-.09-3.14a7,7,0,0,1-1.88.53,3.27,3.27,0,0,0-1,.29,1.08,1.08,0,0,0-.45.45,1.44,1.44,0,0,0-.16.67,1.23,1.23,0,0,0,.37.95,1.4,1.4,0,0,0,1,.36,2.09,2.09,0,0,0,1.12-.32,2,2,0,0,0,.75-.86,3.72,3.72,0,0,0,.25-1.56Z"/><path class="cls-4" d="M463.55,26.61l1.14.18a3.82,3.82,0,0,1-1,2.27,2.61,2.61,0,0,1-1.89.78,2.7,2.7,0,0,1-2.2-1.1,5.2,5.2,0,0,1-.86-3.24,5.1,5.1,0,0,1,.87-3.25,2.75,2.75,0,0,1,2.24-1.08,2.52,2.52,0,0,1,1.77.66,3.18,3.18,0,0,1,.93,2l-1.12.21a2.47,2.47,0,0,0-.57-1.26,1.29,1.29,0,0,0-1-.41,1.69,1.69,0,0,0-1.41.75,4,4,0,0,0-.56,2.39,4.45,4.45,0,0,0,.53,2.46,1.63,1.63,0,0,0,1.37.75,1.43,1.43,0,0,0,1.12-.5A2.74,2.74,0,0,0,463.55,26.61Z"/><path class="cls-4" d="M465.69,29.65V18.2h1.15v6.54l2.73-3.38h1.5l-2.61,3.08,2.86,5.21h-1.41l-2.26-4.25-.81,1v3.29Z"/><path class="cls-4" d="M472.19,32.85l-.13-1.32a2.32,2.32,0,0,0,.66.12,1.15,1.15,0,0,0,.61-.15,1.06,1.06,0,0,0,.39-.46c0-.07.19-.53.45-1.37l-2.58-8.31h1.24l1.42,4.8c.18.6.34,1.24.49,1.92.13-.65.29-1.28.47-1.89l1.45-4.83h1.16l-2.58,8.43a15.92,15.92,0,0,1-.8,2.2,2.15,2.15,0,0,1-.67.79,1.53,1.53,0,0,1-.84.24A2,2,0,0,1,472.19,32.85Z"/><path class="cls-4" d="M378.41,46.37l1.14-.22a2.1,2.1,0,0,0,.56,1.31,1.69,1.69,0,0,0,1.2.42,1.67,1.67,0,0,0,1.16-.37,1.21,1.21,0,0,0,.41-.94.89.89,0,0,0-.36-.76,4.27,4.27,0,0,0-1.17-.47,8.61,8.61,0,0,1-1.8-.71,2,2,0,0,1-.7-.77,2.54,2.54,0,0,1,.43-2.83,2.58,2.58,0,0,1,1.88-.66,3.14,3.14,0,0,1,1.34.27,2.22,2.22,0,0,1,.88.74,3.2,3.2,0,0,1,.42,1.32l-1.13.18a1.34,1.34,0,0,0-1.47-1.35,1.68,1.68,0,0,0-1.12.3.91.91,0,0,0-.37.76.85.85,0,0,0,.35.72,5.84,5.84,0,0,0,1.26.5,9.9,9.9,0,0,1,1.85.73,1.77,1.77,0,0,1,.65.73,2.39,2.39,0,0,1,.23,1.11,2.61,2.61,0,0,1-.75,1.93,2.82,2.82,0,0,1-2.06.73C379.61,49,378.67,48.15,378.41,46.37Z"/><path class="cls-4" d="M385,44.71a5,5,0,0,1,.9-3.25,2.93,2.93,0,0,1,4.56,0,4.8,4.8,0,0,1,.91,3.16,5.17,5.17,0,0,1-.9,3.33,2.92,2.92,0,0,1-4.56,0A4.94,4.94,0,0,1,385,44.71Zm1.18,0a4,4,0,0,0,.58,2.4,1.77,1.77,0,0,0,1.46.78,1.69,1.69,0,0,0,1.39-.79,4,4,0,0,0,.58-2.39,4,4,0,0,0-.58-2.39,1.77,1.77,0,0,0-1.46-.78,1.7,1.7,0,0,0-1.4.79A4.05,4.05,0,0,0,386.16,44.7Z"/><path class="cls-4" d="M392.67,48.85V37.4h1.15V48.85Z"/><path class="cls-4" d="M400.08,48.85V47.63a3,3,0,0,1-.94,1.06,2.35,2.35,0,0,1-2.59-.08,2,2,0,0,1-.76-1.1,6.65,6.65,0,0,1-.2-1.81V40.56h1.15v4.6a7.58,7.58,0,0,0,.13,1.71,1.38,1.38,0,0,0,.48.7,1.29,1.29,0,0,0,.79.26,1.66,1.66,0,0,0,1.36-.68A3.71,3.71,0,0,0,400,45V40.56h1.16v8.29Z"/><path class="cls-4" d="M405.48,47.6l.16,1.24a3.54,3.54,0,0,1-.86.12,1.76,1.76,0,0,1-1-.24,1.17,1.17,0,0,1-.5-.65,6.29,6.29,0,0,1-.14-1.65V41.65h-.84V40.56h.84V38.5l1.15-.84v2.9h1.16v1.09h-1.16V46.5a2.26,2.26,0,0,0,.1.87.57.57,0,0,0,.56.28A3.64,3.64,0,0,0,405.48,47.6Z"/><path class="cls-4" d="M406.57,39V37.4h1.15V39Zm0,9.83V40.56h1.15v8.29Z"/><path class="cls-4" d="M409.05,44.71a5,5,0,0,1,.9-3.25,2.93,2.93,0,0,1,4.56,0,4.8,4.8,0,0,1,.91,3.16,5.17,5.17,0,0,1-.9,3.33,2.92,2.92,0,0,1-4.56,0A4.94,4.94,0,0,1,409.05,44.71Zm1.18,0a4,4,0,0,0,.58,2.4,1.77,1.77,0,0,0,1.46.78,1.69,1.69,0,0,0,1.39-.79,4,4,0,0,0,.58-2.39,4,4,0,0,0-.58-2.39,1.77,1.77,0,0,0-1.46-.78,1.7,1.7,0,0,0-1.4.79A4.05,4.05,0,0,0,410.23,44.7Z"/><path class="cls-4" d="M416.78,48.85V40.56h1v1.17a2.63,2.63,0,0,1,.92-1,2.24,2.24,0,0,1,1.24-.34,2.44,2.44,0,0,1,1,.21,2,2,0,0,1,1.17,1.47,7.19,7.19,0,0,1,.14,1.7v5.1h-1.14V43.8a4.32,4.32,0,0,0-.16-1.34,1.3,1.3,0,0,0-.49-.65,1.34,1.34,0,0,0-.77-.23,1.61,1.61,0,0,0-1.32.62,3.46,3.46,0,0,0-.49,2.12v4.53Z"/><path class="cls-4" d="M424.44,48.85v-1.6h1.31v1.6Z"/><path class="cls-4" d="M198.91,29.65V18.2h1.15v4.11a2.86,2.86,0,0,1,.92-.86,2.28,2.28,0,0,1,1.13-.28,2.19,2.19,0,0,1,1.71.69,3.84,3.84,0,0,1,.63,2.54v5.25H203.3V24.4a2.43,2.43,0,0,0-.38-1.55,1.28,1.28,0,0,0-1-.47,1.64,1.64,0,0,0-1.28.6,3.28,3.28,0,0,0-.53,2.13v4.54Z"/><path class="cls-4" d="M210.86,27l1.19.18a3.65,3.65,0,0,1-1.08,2,2.83,2.83,0,0,1-1.92.67,2.86,2.86,0,0,1-2.34-1.1,4.86,4.86,0,0,1-.9-3.16,5.15,5.15,0,0,1,.9-3.28A2.81,2.81,0,0,1,209,21.17a2.71,2.71,0,0,1,2.2,1.11,5.05,5.05,0,0,1,.89,3.21v.37H207a3.55,3.55,0,0,0,.65,2.11,1.72,1.72,0,0,0,1.4.71C209.92,28.68,210.52,28.12,210.86,27Zm-3.79-2.27h3.8a3.18,3.18,0,0,0-.46-1.61,1.66,1.66,0,0,0-1.42-.77,1.68,1.68,0,0,0-1.32.64A2.88,2.88,0,0,0,207.07,24.71Z"/><path class="cls-4" d="M213.51,19.82V18.2h1.15v1.62Zm0,9.83V21.36h1.15v8.29Z"/><path class="cls-4" d="M216.2,30.34l1.12.2a1.46,1.46,0,0,0,.47,1,1.63,1.63,0,0,0,1.09.32,1.69,1.69,0,0,0,1.82-1.44,11.18,11.18,0,0,0,.1-1.84,2.67,2.67,0,0,1-.85.8,2,2,0,0,1-1,.27,2.46,2.46,0,0,1-2-1,5.07,5.07,0,0,1-.92-3.18,6,6,0,0,1,.41-2.33,3.19,3.19,0,0,1,1.06-1.47,2.53,2.53,0,0,1,1.48-.47,2.18,2.18,0,0,1,1.1.29,2.87,2.87,0,0,1,.88.89v-1H222v7.17a8.43,8.43,0,0,1-.31,2.73,2.67,2.67,0,0,1-1,1.29,3,3,0,0,1-1.71.47,2.77,2.77,0,0,1-2-.71A2.58,2.58,0,0,1,216.2,30.34Zm1-5a4.18,4.18,0,0,0,.54,2.39,1.59,1.59,0,0,0,1.32.75,1.62,1.62,0,0,0,1.33-.74,3.92,3.92,0,0,0,.55-2.34,4,4,0,0,0-.56-2.33,1.67,1.67,0,0,0-1.37-.76,1.56,1.56,0,0,0-1.27.76A3.92,3.92,0,0,0,217.15,25.36Z"/><path class="cls-4" d="M223.72,29.65V18.2h1.15v4.11a2.76,2.76,0,0,1,.92-.86,2.24,2.24,0,0,1,1.12-.28,2.21,2.21,0,0,1,1.72.69,3.84,3.84,0,0,1,.63,2.54v5.25h-1.15V24.4a2.5,2.5,0,0,0-.38-1.55,1.31,1.31,0,0,0-1.06-.47,1.66,1.66,0,0,0-1.28.6,3.28,3.28,0,0,0-.52,2.13v4.54Z"/><path class="cls-4" d="M233.58,28.4l.15,1.24a3.47,3.47,0,0,1-.85.12,1.72,1.72,0,0,1-1-.24,1.14,1.14,0,0,1-.51-.65,6.43,6.43,0,0,1-.13-1.65V22.45h-.85V21.36h.85V19.3l1.14-.84v2.9h1.17v1.09h-1.17V27.3a2.2,2.2,0,0,0,.11.87.55.55,0,0,0,.55.28A3.92,3.92,0,0,0,233.58,28.4Z"/><path class="cls-4" d="M198.4,278.64l1.21-.12a3,3,0,0,0,.64,1.63,1.55,1.55,0,0,0,1.15.53,1.77,1.77,0,0,0,1.42-.75,3.3,3.3,0,0,0,.59-2.06,2.88,2.88,0,0,0-.57-1.91,1.84,1.84,0,0,0-1.44-.68,1.74,1.74,0,0,0-1,.3,2,2,0,0,0-.73.82l-1.08-.18.91-5.88h4.66v1.34h-3.74l-.51,3.08a2.69,2.69,0,0,1,1.78-.72,2.65,2.65,0,0,1,2,1,4,4,0,0,1,.87,2.71,4.77,4.77,0,0,1-.87,2.88,2.75,2.75,0,0,1-2.34,1.2,2.78,2.78,0,0,1-2.06-.85A3.62,3.62,0,0,1,198.4,278.64Z"/><path class="cls-4" d="M205.7,276a9.64,9.64,0,0,1,.78-4.37,2.47,2.47,0,0,1,2.29-1.49,2.39,2.39,0,0,1,2.12,1.21,8.89,8.89,0,0,1,.94,4.65,9.6,9.6,0,0,1-.78,4.35,2.47,2.47,0,0,1-2.3,1.49,2.55,2.55,0,0,1-2.19-1.31A8.77,8.77,0,0,1,205.7,276Zm1.18,0a8.58,8.58,0,0,0,.54,3.74,1.55,1.55,0,0,0,1.37.95,1.53,1.53,0,0,0,1.32-1,13.19,13.19,0,0,0,0-7.47,1.59,1.59,0,0,0-1.39-.95,1.53,1.53,0,0,0-1.31,1A8.82,8.82,0,0,0,206.88,276Z"/><path class="cls-4" d="M738.52,530.65l1.21-.13a2.93,2.93,0,0,0,.64,1.63,1.53,1.53,0,0,0,1.15.54,1.76,1.76,0,0,0,1.42-.76,3.28,3.28,0,0,0,.59-2.06A2.85,2.85,0,0,0,743,528a1.84,1.84,0,0,0-2.42-.39,2.08,2.08,0,0,0-.73.82l-1.08-.17.91-5.89h4.66v1.35h-3.74l-.51,3.08a2.69,2.69,0,0,1,1.78-.72,2.64,2.64,0,0,1,2,1,4,4,0,0,1,.87,2.71,4.77,4.77,0,0,1-.87,2.88,2.75,2.75,0,0,1-2.34,1.2,2.81,2.81,0,0,1-2.06-.84A3.64,3.64,0,0,1,738.52,530.65Z"/><path class="cls-4" d="M750.16,533.65H749v-9a6.08,6.08,0,0,1-1.07.95,6.3,6.3,0,0,1-1.24.74V525a7.1,7.1,0,0,0,1.69-1.33,5.06,5.06,0,0,0,1-1.54h.75Z"/><polyline class="cls-3" points="1064.87 461.91 1042.41 445.17 1002.27 415.25 999.35 413.08 996.27 410.79 992.89 408.26 939.05 368.15 932.29 363.1 927.06 359.21 918.13 352.56 902.14 340.64 895.93 335.86 889.47 331.2 871.99 318.17"/><g class="cls-2"><path class="cls-3" d="M1050.76,329.39c-7.17,1.28-14,3.22-21.3,4-15.6,1.73-30.86,4.57-46.46,6.35-11.06,1.26-22.42,1.21-33.14,3.73q-9.37,2.58-19.12,4.25c-1,.15-10.87,2.34-12-.85,3,0,6.3.75,9.28,1a14.74,14.74,0,0,1-9.12.62q-9.48.09-18.95.6-8.4,1-16.56,2.88c-2.68.37-8.89,1.5-11.42-.52"/><path class="cls-3" d="M795,452.07l.83-.3a107.66,107.66,0,0,0-5.11-24.41q-3.24-13.26-15.5-23c-6.63-6.22-14.81-14.68-25.69-17.06"/><path class="cls-3" d="M787.46,368.1s1.93-21.48,25-39.24,18-18.15,31.6-27.51S857.91,291,857.91,291"/><path class="cls-3" d="M864.33,301.56s-16.54,28,8.42-6.25,23.64-38.65,23.64-38.65"/><path class="cls-3" d="M950.17,318s-11.65-11.54-49.18-36.6-2.46-1.83-2.46-1.83"/></g></g></svg>