<svg id="Layer_1" data-name="Layer 1" xmlns="http://www.w3.org/2000/svg" xmlns:xlink="http://www.w3.org/1999/xlink" viewBox="0 0 1080 756"><defs><style>.cls-1,.cls-3{fill:none;}.cls-2{clip-path:url(#clip-path);}.cls-3{stroke:#231f20;stroke-width:0.25px;}.cls-4{fill:#231f20;}</style><clipPath id="clip-path"><rect class="cls-1" width="1080" height="756"/></clipPath></defs><title>Untitled-3</title><g class="cls-2"><g class="cls-2"><line class="cls-3" x1="180" y1="-18.36" x2="180" y2="790.92"/><line class="cls-3" x1="720" y1="-20.88" x2="720" y2="788.4"/><line class="cls-3" x1="359.88" y1="-18.36" x2="359.88" y2="790.92"/><line class="cls-3" x1="899.87" y1="-20.88" x2="899.87" y2="788.4"/><line class="cls-3" x1="-16.92" y1="251.88" x2="1101.6" y2="251.88"/><line class="cls-3" x1="-11.52" y1="504.13" x2="1107" y2="504.13"/><line class="cls-3" x1="540" y1="-19.44" x2="540" y2="789.84"/></g><path class="cls-4" d="M18.41,531.16l1.14-.21a2.07,2.07,0,0,0,.56,1.3,1.94,1.94,0,0,0,2.36.06,1.23,1.23,0,0,0,.41-.94.91.91,0,0,0-.36-.77,4.64,4.64,0,0,0-1.17-.47,8.74,8.74,0,0,1-1.8-.7,2,2,0,0,1-.7-.77,2.36,2.36,0,0,1-.25-1.11,2.31,2.31,0,0,1,.68-1.72,2.58,2.58,0,0,1,1.88-.67,3,3,0,0,1,1.34.28,2.13,2.13,0,0,1,.88.73,3.3,3.3,0,0,1,.42,1.32l-1.13.19a1.34,1.34,0,0,0-1.47-1.36,1.74,1.74,0,0,0-1.12.3.94.94,0,0,0-.37.77.87.87,0,0,0,.35.72,6.46,6.46,0,0,0,1.26.5,9.4,9.4,0,0,1,1.85.72,1.8,1.8,0,0,1,.65.74,2.38,2.38,0,0,1,.23,1.1,2.58,2.58,0,0,1-.75,1.93,2.82,2.82,0,0,1-2.06.74C19.61,533.84,18.67,533,18.41,531.16Z"/><path class="cls-4" d="M29.87,530.61l1.13.18a3.79,3.79,0,0,1-1,2.26,2.55,2.55,0,0,1-1.89.79,2.7,2.7,0,0,1-2.2-1.1,5.23,5.23,0,0,1-.86-3.25,5.09,5.09,0,0,1,.87-3.24,2.73,2.73,0,0,1,2.24-1.09,2.55,2.55,0,0,1,1.78.66,3.2,3.2,0,0,1,.92,2l-1.11.2a2.39,2.39,0,0,0-.57-1.25,1.33,1.33,0,0,0-1-.42,1.69,1.69,0,0,0-1.41.75,4.12,4.12,0,0,0-.56,2.4,4.29,4.29,0,0,0,.54,2.45,1.59,1.59,0,0,0,1.37.76,1.5,1.5,0,0,0,1.12-.5A2.81,2.81,0,0,0,29.87,530.61Z"/><path class="cls-4" d="M32,533.65v-8.3h1v1.26a3.35,3.35,0,0,1,.73-1.16,1.12,1.12,0,0,1,.74-.29,2,2,0,0,1,1.18.46l-.39,1.3a1.43,1.43,0,0,0-.83-.3,1,1,0,0,0-.68.26,1.45,1.45,0,0,0-.43.71,6.79,6.79,0,0,0-.22,1.71v4.35Z"/><path class="cls-4" d="M35.91,529.5a5,5,0,0,1,.9-3.24,2.91,2.91,0,0,1,4.56,0,4.79,4.79,0,0,1,.91,3.15,5.17,5.17,0,0,1-.9,3.33,2.91,2.91,0,0,1-4.56,0A5,5,0,0,1,35.91,529.5Zm1.18,0a4,4,0,0,0,.58,2.39,1.75,1.75,0,0,0,1.45.79,1.69,1.69,0,0,0,1.4-.79,4,4,0,0,0,.58-2.39,4,4,0,0,0-.58-2.39,1.77,1.77,0,0,0-1.46-.79,1.7,1.7,0,0,0-1.4.79A4.09,4.09,0,0,0,37.09,529.5Z"/><path class="cls-4" d="M43.6,533.65V522.2h1.15v11.45Z"/><path class="cls-4" d="M46.52,533.65V522.2h1.14v11.45Z"/><path class="cls-4" d="M20.3,23.43a2.23,2.23,0,0,1-1-.89,2.71,2.71,0,0,1-.35-1.45A3,3,0,0,1,19.67,19a2.68,2.68,0,0,1,3.87,0,3,3,0,0,1,.78,2.16,2.67,2.67,0,0,1-.34,1.4,2.29,2.29,0,0,1-1,.89,2.66,2.66,0,0,1,1.31,1.09,3.56,3.56,0,0,1,.45,1.86,3.57,3.57,0,0,1-.88,2.5,3,3,0,0,1-4.41,0,3.62,3.62,0,0,1-.89-2.54A3.42,3.42,0,0,1,19,24.45,2.35,2.35,0,0,1,20.3,23.43Zm-.6,2.91a2.46,2.46,0,0,0,.57,1.7,1.75,1.75,0,0,0,1.35.65A1.73,1.73,0,0,0,23,28.06a2.4,2.4,0,0,0,.55-1.67,2.48,2.48,0,0,0-.57-1.7,1.73,1.73,0,0,0-1.36-.64,1.69,1.69,0,0,0-1.34.64A2.47,2.47,0,0,0,19.7,26.34Zm.39-5.29a1.92,1.92,0,0,0,.44,1.34,1.42,1.42,0,0,0,1.09.5,1.4,1.4,0,0,0,1.08-.49,2.07,2.07,0,0,0,0-2.58,1.37,1.37,0,0,0-1.07-.52,1.41,1.41,0,0,0-1.08.5A1.85,1.85,0,0,0,20.09,21.05Z"/><path class="cls-4" d="M25.82,24a9.67,9.67,0,0,1,.78-4.37,2.46,2.46,0,0,1,2.29-1.48A2.4,2.4,0,0,1,31,19.35,8.89,8.89,0,0,1,32,24a9.68,9.68,0,0,1-.78,4.36,2.45,2.45,0,0,1-2.29,1.48,2.53,2.53,0,0,1-2.2-1.31A8.72,8.72,0,0,1,25.82,24ZM27,24a8.61,8.61,0,0,0,.54,3.74,1.56,1.56,0,0,0,1.37,1,1.53,1.53,0,0,0,1.32-1A8.65,8.65,0,0,0,30.77,24a8.6,8.6,0,0,0-.54-3.75,1.59,1.59,0,0,0-1.39-.95,1.52,1.52,0,0,0-1.31,1A8.78,8.78,0,0,0,27,24Z"/><path class="cls-4" d="M918.86,284.84l-.13-1.32a2.06,2.06,0,0,0,.66.13,1.13,1.13,0,0,0,.61-.15,1.06,1.06,0,0,0,.39-.46c0-.07.19-.53.46-1.38l-2.59-8.31h1.24l1.42,4.8c.18.6.34,1.24.49,1.92.13-.64.29-1.27.47-1.89l1.46-4.83h1.15l-2.58,8.44a16.16,16.16,0,0,1-.8,2.19,2.07,2.07,0,0,1-.67.79,1.49,1.49,0,0,1-.84.25A1.89,1.89,0,0,1,918.86,284.84Z"/><path class="cls-4" d="M929.89,280.62a4.23,4.23,0,0,1-1.2.91,3,3,0,0,1-1.3.31,2.28,2.28,0,0,1-1.69-.64,2.34,2.34,0,0,1-.64-1.73,2.62,2.62,0,0,1,.3-1.27,2.27,2.27,0,0,1,.81-.87,4.33,4.33,0,0,1,1.56-.46,9,9,0,0,0,2.07-.49V276a1.85,1.85,0,0,0-.3-1.2,1.67,1.67,0,0,0-1.32-.5,1.83,1.83,0,0,0-1.2.33,2.21,2.21,0,0,0-.59,1.26l-1.13-.19a3.18,3.18,0,0,1,1-2,3.26,3.26,0,0,1,2.11-.61,3,3,0,0,1,1.68.41,1.71,1.71,0,0,1,.77,1,7,7,0,0,1,.16,1.74v1.87a23.12,23.12,0,0,0,.08,2.48,3.27,3.27,0,0,0,.29,1h-1.21A3.64,3.64,0,0,1,929.89,280.62Zm-.09-3.14a7.31,7.31,0,0,1-1.89.54,3.33,3.33,0,0,0-1,.28,1.21,1.21,0,0,0-.45.45,1.37,1.37,0,0,0-.16.68,1.24,1.24,0,0,0,.37.95,1.37,1.37,0,0,0,1,.35,2,2,0,0,0,1.12-.32,2,2,0,0,0,.76-.85,4,4,0,0,0,.25-1.56Z"/><path class="cls-4" d="M932.76,281.65v-8.3h1v1.17a2.76,2.76,0,0,1,.91-1,2.36,2.36,0,0,1,1.25-.34,2.44,2.44,0,0,1,1,.22,2.05,2.05,0,0,1,.75.56,2.21,2.21,0,0,1,.42.9,7.81,7.81,0,0,1,.14,1.71v5.1h-1.15v-5a4.34,4.34,0,0,0-.15-1.34,1.36,1.36,0,0,0-.49-.65,1.27,1.27,0,0,0-.77-.23,1.6,1.6,0,0,0-1.32.61,3.46,3.46,0,0,0-.49,2.12v4.54Z"/><path class="cls-4" d="M940.08,281.65V270.2h1.15v6.54l2.73-3.39h1.5l-2.61,3.08,2.86,5.22H944.3L942,277.4l-.81,1v3.29Z"/><path class="cls-4" d="M946.62,271.81V270.2h1.15v1.61Zm0,9.84v-8.3h1.15v8.3Z"/><path class="cls-4" d="M949.53,281.65v-8.3h1v1.17a2.7,2.7,0,0,1,.92-1,2.33,2.33,0,0,1,1.24-.34,2.44,2.44,0,0,1,1,.22,2.05,2.05,0,0,1,.75.56,2.21,2.21,0,0,1,.42.9,7.23,7.23,0,0,1,.14,1.71v5.1h-1.14v-5a4.28,4.28,0,0,0-.16-1.34,1.3,1.3,0,0,0-.49-.65,1.27,1.27,0,0,0-.77-.23,1.6,1.6,0,0,0-1.32.61,3.46,3.46,0,0,0-.49,2.12v4.54Z"/><path class="cls-4" d="M956.6,282.34l1.13.2a1.39,1.39,0,0,0,.47,1,1.62,1.62,0,0,0,1.08.33,1.88,1.88,0,0,0,1.21-.36,1.91,1.91,0,0,0,.61-1.09,10,10,0,0,0,.1-1.84,2.68,2.68,0,0,1-.84.81,2,2,0,0,1-1,.27,2.47,2.47,0,0,1-2-1,5,5,0,0,1-.92-3.18,6.23,6.23,0,0,1,.4-2.34,3.26,3.26,0,0,1,1.07-1.47,2.51,2.51,0,0,1,1.48-.47,2.12,2.12,0,0,1,1.1.3,2.71,2.71,0,0,1,.87.88v-1h1.07v7.17a8.28,8.28,0,0,1-.32,2.73,2.57,2.57,0,0,1-1,1.29,3,3,0,0,1-1.71.48,2.72,2.72,0,0,1-2-.72A2.61,2.61,0,0,1,956.6,282.34Zm.95-5a4.16,4.16,0,0,0,.54,2.39,1.57,1.57,0,0,0,2.66,0,4,4,0,0,0,.55-2.35,3.9,3.9,0,0,0-.57-2.33,1.67,1.67,0,0,0-1.37-.76,1.56,1.56,0,0,0-1.26.76A3.94,3.94,0,0,0,957.55,277.35Z"/><path class="cls-4" d="M967.78,281.65v-8.3h1v1.16a2.69,2.69,0,0,1,.88-1,2.17,2.17,0,0,1,1.18-.35,2,2,0,0,1,1.21.37,2,2,0,0,1,.71,1.08,3.06,3.06,0,0,1,.94-1.08,2,2,0,0,1,1.17-.37,1.92,1.92,0,0,1,1.54.67A3.22,3.22,0,0,1,977,276v5.7h-1.15v-5.23a4.19,4.19,0,0,0-.13-1.27,1.17,1.17,0,0,0-.42-.57,1.07,1.07,0,0,0-.65-.2,1.47,1.47,0,0,0-1.22.59,3,3,0,0,0-.47,1.85v4.83h-1.15v-5.4a2.48,2.48,0,0,0-.32-1.45,1,1,0,0,0-.87-.42,1.45,1.45,0,0,0-1.24.63,4.2,4.2,0,0,0-.46,2.33v4.31Z"/><path class="cls-4" d="M983.13,280.62a4,4,0,0,1-1.2.91,3,3,0,0,1-1.3.31,2.28,2.28,0,0,1-1.69-.64,2.38,2.38,0,0,1-.64-1.73,2.62,2.62,0,0,1,.3-1.27,2.27,2.27,0,0,1,.81-.87,4.33,4.33,0,0,1,1.57-.46,9,9,0,0,0,2.06-.49V276a1.78,1.78,0,0,0-.31-1.2,1.64,1.64,0,0,0-1.32-.5,1.85,1.85,0,0,0-1.2.33,2.21,2.21,0,0,0-.59,1.26l-1.13-.19a3.18,3.18,0,0,1,1-2,3.27,3.27,0,0,1,2.11-.61,3,3,0,0,1,1.68.41,1.67,1.67,0,0,1,.77,1,7,7,0,0,1,.16,1.74v1.87a23.12,23.12,0,0,0,.08,2.48,3.58,3.58,0,0,0,.29,1h-1.2A3.63,3.63,0,0,1,983.13,280.62Zm-.09-3.14a7.34,7.34,0,0,1-1.88.54,3.33,3.33,0,0,0-1,.28,1.21,1.21,0,0,0-.45.45,1.37,1.37,0,0,0-.16.68,1.24,1.24,0,0,0,.37.95,1.37,1.37,0,0,0,1,.35,2,2,0,0,0,1.88-1.17A3.78,3.78,0,0,0,983,278Z"/><path class="cls-4" d="M990.41,281.65v-1a2.36,2.36,0,0,1-.81.92,1.94,1.94,0,0,1-1.06.32,2.57,2.57,0,0,1-2.08-1.14,5.1,5.1,0,0,1-.88-3.2,6.56,6.56,0,0,1,.39-2.4,3.29,3.29,0,0,1,1-1.46,2.38,2.38,0,0,1,1.45-.48,1.94,1.94,0,0,1,1,.3,2.51,2.51,0,0,1,.81.84v-4.1h1.16v11.45Zm-3.65-4.14a4.07,4.07,0,0,0,.56,2.39,1.58,1.58,0,0,0,1.3.78,1.55,1.55,0,0,0,1.27-.75,3.9,3.9,0,0,0,.54-2.27,4.66,4.66,0,0,0-.54-2.54,1.6,1.6,0,0,0-1.36-.8,1.52,1.52,0,0,0-1.25.77A4.37,4.37,0,0,0,986.76,277.51Z"/><path class="cls-4" d="M998,279l1.18.18a3.61,3.61,0,0,1-1.07,2,2.84,2.84,0,0,1-1.93.68,2.89,2.89,0,0,1-2.34-1.1,5,5,0,0,1-.89-3.17,5.19,5.19,0,0,1,.9-3.28,2.81,2.81,0,0,1,2.29-1.13,2.71,2.71,0,0,1,2.2,1.11,5.05,5.05,0,0,1,.88,3.21v.38h-5.07a3.57,3.57,0,0,0,.64,2.11,1.78,1.78,0,0,0,1.41.71C997,280.68,997.61,280.11,998,279Zm-3.79-2.28H998a3.11,3.11,0,0,0-.46-1.61,1.68,1.68,0,0,0-2.73-.13A2.76,2.76,0,0,0,994.16,276.7Z"/><path class="cls-4" d="M1006.8,280.39l.16,1.24a3.15,3.15,0,0,1-.86.13,1.76,1.76,0,0,1-1-.24,1.24,1.24,0,0,1-.5-.65,6.39,6.39,0,0,1-.14-1.65v-4.77h-.84v-1.1h.84V271.3l1.15-.85v2.9h1.16v1.1h-1.16v4.85a2.2,2.2,0,0,0,.1.86.58.58,0,0,0,.56.29A2.67,2.67,0,0,0,1006.8,280.39Z"/><path class="cls-4" d="M1007.89,281.65V270.2H1009v4.1a2.82,2.82,0,0,1,.92-.85,2.26,2.26,0,0,1,1.13-.29,2.17,2.17,0,0,1,1.71.7,3.8,3.8,0,0,1,.63,2.53v5.26h-1.15v-5.26a2.52,2.52,0,0,0-.38-1.55,1.3,1.3,0,0,0-1.06-.46,1.62,1.62,0,0,0-1.27.6,3.22,3.22,0,0,0-.53,2.13v4.54Z"/><path class="cls-4" d="M1019.84,279l1.18.18a3.55,3.55,0,0,1-1.07,2,2.84,2.84,0,0,1-1.93.68,2.89,2.89,0,0,1-2.34-1.1,5,5,0,0,1-.89-3.17,5.19,5.19,0,0,1,.9-3.28,2.81,2.81,0,0,1,2.29-1.13,2.71,2.71,0,0,1,2.2,1.11,5.05,5.05,0,0,1,.88,3.21v.38H1016a3.57,3.57,0,0,0,.64,2.11,1.78,1.78,0,0,0,1.41.71C1018.9,280.68,1019.5,280.11,1019.84,279Zm-3.79-2.28h3.79a3.11,3.11,0,0,0-.46-1.61,1.68,1.68,0,0,0-2.73-.13A2.76,2.76,0,0,0,1016.05,276.7Z"/><path class="cls-4" d="M1027.39,281.65l-2.09-8.3h1.19l1.08,4.79.4,1.78.36-1.71,1.08-4.86h1.19l1,4.81.35,1.59.39-1.6,1.16-4.8h1.12l-2.12,8.3h-1.2l-1.09-5-.26-1.41-1.37,6.38Z"/><path class="cls-4" d="M1035.6,281.65V270.2h1.15v4.1a2.82,2.82,0,0,1,.92-.85,2.29,2.29,0,0,1,1.13-.29,2.17,2.17,0,0,1,1.71.7,3.8,3.8,0,0,1,.63,2.53v5.26H1040v-5.26a2.52,2.52,0,0,0-.38-1.55,1.3,1.3,0,0,0-1.06-.46,1.62,1.62,0,0,0-1.27.6,3.28,3.28,0,0,0-.53,2.13v4.54Z"/><path class="cls-4" d="M1042.46,277.5a5,5,0,0,1,.9-3.24,2.91,2.91,0,0,1,4.56,0,4.79,4.79,0,0,1,.92,3.15,5.17,5.17,0,0,1-.9,3.33,2.92,2.92,0,0,1-4.57,0A5,5,0,0,1,1042.46,277.5Zm1.18,0a4,4,0,0,0,.59,2.39,1.74,1.74,0,0,0,1.45.79,1.67,1.67,0,0,0,1.39-.79,4,4,0,0,0,.59-2.39,4,4,0,0,0-.59-2.39,1.74,1.74,0,0,0-1.45-.79,1.68,1.68,0,0,0-1.4.79A4,4,0,0,0,1043.64,277.5Z"/><path class="cls-4" d="M1050.16,281.65V270.2h1.14v11.45Z"/><path class="cls-4" d="M1057.76,279l1.19.18a3.62,3.62,0,0,1-1.08,2,2.83,2.83,0,0,1-1.92.68,2.86,2.86,0,0,1-2.34-1.1,4.89,4.89,0,0,1-.9-3.17,5.19,5.19,0,0,1,.9-3.28,2.82,2.82,0,0,1,2.29-1.13,2.71,2.71,0,0,1,2.2,1.11,5.05,5.05,0,0,1,.88,3.21v.38h-5.08a3.57,3.57,0,0,0,.65,2.11,1.75,1.75,0,0,0,1.4.71C1056.82,280.68,1057.42,280.11,1057.76,279ZM1054,276.7h3.8a3.2,3.2,0,0,0-.47-1.61,1.68,1.68,0,0,0-2.73-.13A2.82,2.82,0,0,0,1054,276.7Z"/><path class="cls-4" d="M920,298.65h-1.07V287.2H920v4.08a2.66,2.66,0,0,1,.83-.84,2,2,0,0,1,1-.28,2.4,2.4,0,0,1,1.45.48,3.26,3.26,0,0,1,1,1.45,6.28,6.28,0,0,1,.39,2.35,5.22,5.22,0,0,1-.89,3.25,2.56,2.56,0,0,1-2.06,1.15,2,2,0,0,1-1.07-.31,2.65,2.65,0,0,1-.82-.92Zm0-4.21a5.9,5.9,0,0,0,.23,1.93,2.13,2.13,0,0,0,.67,1,1.46,1.46,0,0,0,.95.34,1.56,1.56,0,0,0,1.27-.8,4.24,4.24,0,0,0,.55-2.4,4.29,4.29,0,0,0-.53-2.39,1.45,1.45,0,0,0-2.58,0A4,4,0,0,0,919.94,294.44Z"/><path class="cls-4" d="M925.76,294.5a5,5,0,0,1,.9-3.24,2.91,2.91,0,0,1,4.56,0,4.79,4.79,0,0,1,.91,3.15,5.17,5.17,0,0,1-.9,3.33,2.91,2.91,0,0,1-4.56,0A5,5,0,0,1,925.76,294.5Zm1.18,0a4,4,0,0,0,.58,2.39,1.75,1.75,0,0,0,1.46.79,1.69,1.69,0,0,0,1.39-.79,4,4,0,0,0,.58-2.39,4,4,0,0,0-.58-2.39,1.75,1.75,0,0,0-1.46-.79,1.67,1.67,0,0,0-1.39.79A4,4,0,0,0,926.94,294.5Z"/><path class="cls-4" d="M937.9,298.65v-1a2.36,2.36,0,0,1-.81.92,1.91,1.91,0,0,1-1.06.32A2.58,2.58,0,0,1,934,297.7a5.1,5.1,0,0,1-.88-3.2,6.56,6.56,0,0,1,.39-2.4,3.29,3.29,0,0,1,1-1.46,2.4,2.4,0,0,1,1.45-.48,1.94,1.94,0,0,1,1,.3,2.51,2.51,0,0,1,.81.84v-4.1H939v11.45Zm-3.65-4.14a4.15,4.15,0,0,0,.56,2.39,1.6,1.6,0,0,0,1.3.78,1.53,1.53,0,0,0,1.27-.75,3.9,3.9,0,0,0,.54-2.27,4.66,4.66,0,0,0-.54-2.54,1.59,1.59,0,0,0-1.36-.8,1.52,1.52,0,0,0-1.25.77A4.37,4.37,0,0,0,934.25,294.51Z"/><path class="cls-4" d="M940.75,301.84l-.13-1.32a2.06,2.06,0,0,0,.66.13,1.13,1.13,0,0,0,.61-.15,1.06,1.06,0,0,0,.39-.46c0-.07.19-.53.46-1.38l-2.59-8.31h1.24l1.42,4.8c.18.6.34,1.24.49,1.92.13-.64.29-1.27.47-1.89l1.46-4.83h1.15l-2.58,8.44A14.86,14.86,0,0,1,943,301a2.07,2.07,0,0,1-.67.79,1.49,1.49,0,0,1-.84.25A1.89,1.89,0,0,1,940.75,301.84Z"/><path class="cls-4" d="M950.55,296.16l1.15-.21a2.07,2.07,0,0,0,.56,1.3,1.65,1.65,0,0,0,1.2.43,1.62,1.62,0,0,0,1.15-.37,1.19,1.19,0,0,0,.41-.94.9.9,0,0,0-.35-.77,4.64,4.64,0,0,0-1.17-.47,8.28,8.28,0,0,1-1.8-.7,2,2,0,0,1-.7-.77,2.36,2.36,0,0,1-.25-1.11,2.31,2.31,0,0,1,.68-1.72,2.58,2.58,0,0,1,1.88-.67,2.93,2.93,0,0,1,1.33.28,2,2,0,0,1,.88.73,3.15,3.15,0,0,1,.43,1.32l-1.13.19a1.35,1.35,0,0,0-1.48-1.36,1.71,1.71,0,0,0-1.11.3.94.94,0,0,0-.37.77.87.87,0,0,0,.35.72,6.55,6.55,0,0,0,1.25.5,9.31,9.31,0,0,1,1.86.72,1.87,1.87,0,0,1,.65.74,2.51,2.51,0,0,1,.23,1.1,2.58,2.58,0,0,1-.75,1.93,2.82,2.82,0,0,1-2.06.74C951.76,298.84,950.82,298,950.55,296.16Z"/><path class="cls-4" d="M957.56,298.65V287.2h1.15v4.1a2.82,2.82,0,0,1,.92-.85,2.29,2.29,0,0,1,1.13-.29,2.17,2.17,0,0,1,1.71.7,3.8,3.8,0,0,1,.63,2.53v5.26H962v-5.26a2.45,2.45,0,0,0-.38-1.55,1.28,1.28,0,0,0-1.05-.46,1.64,1.64,0,0,0-1.28.6,3.28,3.28,0,0,0-.53,2.13v4.54Z"/><path class="cls-4" d="M964.86,288.81V287.2H966v1.61Zm0,9.84v-8.3H966v8.3Z"/><path class="cls-4" d="M969.67,298.65l-2.58-8.3h1.21l1.47,5c.17.56.31,1.12.44,1.67.1-.44.24-1,.42-1.58l1.52-5.06h1.19l-2.59,8.3Z"/><path class="cls-4" d="M979,296l1.19.18a3.61,3.61,0,0,1-1.07,2,2.84,2.84,0,0,1-1.93.68,2.89,2.89,0,0,1-2.34-1.1,5,5,0,0,1-.89-3.17,5.19,5.19,0,0,1,.9-3.28,2.8,2.8,0,0,1,2.28-1.13,2.72,2.72,0,0,1,2.21,1.11,5.05,5.05,0,0,1,.88,3.21v.38h-5.08a3.64,3.64,0,0,0,.65,2.11,1.78,1.78,0,0,0,1.41.71C978,297.68,978.65,297.11,979,296Zm-3.78-2.28H979a3.11,3.11,0,0,0-.46-1.61,1.68,1.68,0,0,0-2.73-.13A2.76,2.76,0,0,0,975.2,293.7Z"/><path class="cls-4" d="M981.63,298.65v-8.3h1v1.26a3.67,3.67,0,0,1,.73-1.16,1.12,1.12,0,0,1,.75-.29,2,2,0,0,1,1.18.46l-.39,1.3a1.49,1.49,0,0,0-.84-.3,1,1,0,0,0-.67.26,1.38,1.38,0,0,0-.43.71,6.36,6.36,0,0,0-.22,1.71v4.35Z"/><path class="cls-4" d="M985.66,298.65v-1.6H987v1.6Z"/><path class="cls-4" d="M560.18,275.43a2.25,2.25,0,0,1-1-.89,2.8,2.8,0,0,1-.35-1.45,3,3,0,0,1,.77-2.12,2.51,2.51,0,0,1,1.93-.82,2.56,2.56,0,0,1,1.94.83,3,3,0,0,1,.78,2.16,2.67,2.67,0,0,1-.35,1.4,2.24,2.24,0,0,1-1,.89,2.62,2.62,0,0,1,1.31,1.09,3.47,3.47,0,0,1,.46,1.86,3.57,3.57,0,0,1-.89,2.5,2.86,2.86,0,0,1-2.19,1,2.89,2.89,0,0,1-2.22-1,3.62,3.62,0,0,1-.88-2.54,3.51,3.51,0,0,1,.47-1.89A2.37,2.37,0,0,1,560.18,275.43Zm-.6,2.91a2.51,2.51,0,0,0,.56,1.7,1.76,1.76,0,0,0,1.36.65,1.7,1.7,0,0,0,1.34-.63,2.41,2.41,0,0,0,.56-1.67,2.48,2.48,0,0,0-.57-1.7,1.75,1.75,0,0,0-1.37-.64,1.67,1.67,0,0,0-1.33.64A2.42,2.42,0,0,0,559.58,278.34Zm.38-5.29a1.92,1.92,0,0,0,.45,1.34,1.39,1.39,0,0,0,1.09.5,1.37,1.37,0,0,0,1.07-.49,1.81,1.81,0,0,0,.45-1.27,1.9,1.9,0,0,0-.46-1.31,1.37,1.37,0,0,0-1.08-.52,1.39,1.39,0,0,0-1.07.5A1.81,1.81,0,0,0,560,273.05Z"/><path class="cls-4" d="M570,281.65h-1.16v-9a5.74,5.74,0,0,1-1.07.95,6.55,6.55,0,0,1-1.23.74V273a7.25,7.25,0,0,0,1.68-1.33,5.11,5.11,0,0,0,1-1.54H570Z"/><g class="cls-2"><path class="cls-3" d="M207,127.8c24.56-4.31,50-21.06,70.45-33.4C309.7,75,341.82,53.15,372,30.54c-3.67,0-4.5,3.79-7.36,5.48l-6.33,1.57a905.33,905.33,0,0,0-88.07,77.1C239,144.13,201.81,178.06,175,213.11c5.2-6.66,17.24-12.14,23.17-15.94,65.76-42.28,129-90.22,197.14-128.49-40.6,24.94-81.88,49-121.64,75.3,19.85-8.43,39.84-16.76,59.86-24.77.87-.35,53.42-24.27,63.91-21.16-5.67,4.31-11.58,8.71-16.82,13.54,16.27-5.67,32.7-11.6,48.69-17.88q30.19-11.89,59.34-26.17a22.39,22.39,0,0,0,9.78-5.62c-18.62,18.37-169.59,121.73-155,111.48L237.67,247.34a302,302,0,0,0-73.73,59.46c3.22,2.84,30.76-20.88,23.46-15.89,48.79-33.33,102.17-60,155.78-84.52a20.51,20.51,0,0,1-7.15,4.7c-27.23,17.79-54.07,36-82,52.75,17-8.59,34.55-14.85,53.43-17.69-3.73,9.67-14.85,16.76-22,23.74q48.79-15.93,97.13-33.26l61.19-24.84a209.73,209.73,0,0,1,37.28-18A779.4,779.4,0,0,1,391.51,272l-92.37,78.14Q251,364.46,250.2,401.4"/><path class="cls-3" d="M597.6,406.8c1.07-1.7,63-39.58,47.57-30.24,16.27-9.86,34.61-21.64,52.7-29-13.48,13-29.86,22-46,31.32a14.87,14.87,0,0,0,11-4.85c23.67-11.36,48.36-20.41,71.57-32.76a109.6,109.6,0,0,0,30.72-20.13c3.56-4.78,4.58-11.07,9.88-14.48-13.27,28.75-45.16,67.7-61,89.41-48.53,66.54-100.73,130.28-148.72,197.2,28.91-27,62.39-49.55,96.26-70.12-13.5,21.82-36.27,33.7-51.35,53.7,10.34-3.36,17.08-12.59,26.93-16.82l1,1c-36.68,25.9-109.48,49.63-145.8,61.85Q415.13,648,335.91,666a85.36,85.36,0,0,0-32.85,10.37c26.26-8.62,47.94-11.17,76.66-14.25,64.12-6.89,129.13-10.88,193.46-15.86-22.15,8.6-44.25,17.09-66.58,25.25q-40,14.19-79.68,29-8.69,2.78-2.33,1.77a11.16,11.16,0,0,1-6.24-.27c119.79-15.45,240.81-27.79,361.21-36.85l107.64-6.87q21.19-9.91,36.2.54"/><path class="cls-3" d="M829.8,90c23.49-9.77,47.93-18.26,70.2-30.6"/><path class="cls-3" d="M910.8,118.8a4.28,4.28,0,0,0,3.6-1.8"/><path class="cls-3" d="M675,131.4a4.28,4.28,0,0,1-3.6,1.8"/><path class="cls-3" d="M763.2,253.8c-9.19,15-9.7,33.19-16.22,49.34-2.2,5.47-2.94,8.38-7.6,11.58-5.55,3.81-12.86,6.23-18.92,9.16-3.35,1.63-7.15,3-9.86,5.53-2.14,2-1.38,4.57-5,5.39"/></g><line class="cls-3" x1="705.6" y1="291.6" x2="705.6" y2="295.2"/><g class="cls-2"><path class="cls-3" d="M657,354.6l-6.37,6.8C720.8,298,782.69,226.67,846,156.6"/><path class="cls-3" d="M793.8,140.4c-9.69,16.88-16.16,35.52-23.68,53.39a772,772,0,0,1-37.7,80.61q-10.12,8.06-10.62,19"/><path class="cls-3" d="M811.8,237.6q4,15.53-9.41,29.07c-6.16,6.24-9.68,21.11-13.43,29-4.88,10.21-10.9,18.83-19.52,26.27-5,4.33-14.41,12.5-21.78,11.46-9.28-1.3-5.45-13.26-3.36-19.27,5.08-14.63,15.81-26.43,24.52-38.94,13.59-19.53,27.54-41,46.58-55.55"/></g></g></svg>