<svg id="Layer_1" data-name="Layer 1" xmlns="http://www.w3.org/2000/svg" xmlns:xlink="http://www.w3.org/1999/xlink" viewBox="0 0 1080 756"><defs><style>.cls-1,.cls-3{fill:none;}.cls-2{clip-path:url(#clip-path);}.cls-3{stroke:#231f20;stroke-width:0.25px;}.cls-4{fill:#231f20;}</style><clipPath id="clip-path"><rect class="cls-1" width="1080" height="756"/></clipPath></defs><title>Untitled-3</title><g class="cls-2"><g class="cls-2"><line class="cls-3" x1="180" y1="-18.36" x2="180" y2="790.92"/><line class="cls-3" x1="720" y1="-20.88" x2="720" y2="788.4"/><line class="cls-3" x1="359.88" y1="-18.36" x2="359.88" y2="790.92"/><line class="cls-3" x1="899.87" y1="-20.88" x2="899.87" y2="788.4"/><line class="cls-3" x1="-16.92" y1="251.88" x2="1101.6" y2="251.88"/><line class="cls-3" x1="-11.52" y1="504.13" x2="1107" y2="504.13"/><line class="cls-3" x1="540" y1="-19.44" x2="540" y2="789.84"/></g><path class="cls-4" d="M199.1,281.71v-7.2h-1v-1.09h1v-.81a3.13,3.13,0,0,1,.49-1.95,1.6,1.6,0,0,1,1.33-.6,3.68,3.68,0,0,1,1.17.18l-.19,1.19a3.57,3.57,0,0,0-.62-.07,1,1,0,0,0-.81.29,2.32,2.32,0,0,0-.22,1.23v.54h1.32v1.09h-1.32v7.2Zm3.33,0V270.26h1.15v11.45Zm2.48-4.15a5,5,0,0,1,.91-3.24,2.93,2.93,0,0,1,4.56,0,4.86,4.86,0,0,1,.91,3.16,5.17,5.17,0,0,1-.9,3.33,2.93,2.93,0,0,1-4.57,0A5,5,0,0,1,204.91,277.56Zm1.18,0a4,4,0,0,0,.59,2.4,1.75,1.75,0,0,0,1.45.78,1.7,1.7,0,0,0,1.4-.79,5.17,5.17,0,0,0,0-4.78,1.75,1.75,0,0,0-1.45-.78,1.69,1.69,0,0,0-1.4.79A4,4,0,0,0,206.09,277.56Zm11.22,4.15a3.2,3.2,0,0,1-.23-1,4.52,4.52,0,0,1-1.21.91,2.91,2.91,0,0,1-1.29.3,2.27,2.27,0,0,1-1.7-.64,2.36,2.36,0,0,1-.63-1.73,2.62,2.62,0,0,1,.3-1.27,2.13,2.13,0,0,1,.81-.87,4.2,4.2,0,0,1,1.56-.46,8.74,8.74,0,0,0,2.06-.49v-.36a1.8,1.8,0,0,0-.3-1.19,1.63,1.63,0,0,0-1.32-.5,1.88,1.88,0,0,0-1.21.33,2.18,2.18,0,0,0-.58,1.25l-1.14-.19a3.17,3.17,0,0,1,1-1.94,3.25,3.25,0,0,1,2.12-.61,3,3,0,0,1,1.68.4,1.77,1.77,0,0,1,.77,1,7.37,7.37,0,0,1,.16,1.73v1.88a24.27,24.27,0,0,0,.07,2.48,3.87,3.87,0,0,0,.29,1Zm-.33-4.16a7.4,7.4,0,0,1-1.88.53,3.28,3.28,0,0,0-1,.29,1,1,0,0,0-.45.45,1.33,1.33,0,0,0-.16.67,1.26,1.26,0,0,0,.36.95,1.41,1.41,0,0,0,1,.36,2.09,2.09,0,0,0,1.12-.32,1.9,1.9,0,0,0,.75-.86,3.72,3.72,0,0,0,.25-1.56Zm5,3a3.92,3.92,0,0,0,.51-.05l.15,1.24a3.54,3.54,0,0,1-.86.12,1.76,1.76,0,0,1-1-.24,1.17,1.17,0,0,1-.5-.65,6.29,6.29,0,0,1-.14-1.65v-4.77h-.84v-1.09h.84v-2.06l1.15-.84v2.9h1.17v1.09h-1.17v4.85a2.49,2.49,0,0,0,.1.87.57.57,0,0,0,.56.28Z"/><path class="cls-4" d="M384.6,28.3v1.35h-6.21a3.9,3.9,0,0,1,.5-1.84,10.09,10.09,0,0,1,1.9-2.4,13.65,13.65,0,0,0,2.12-2.49,3.39,3.39,0,0,0,.5-1.64,2,2,0,0,0-.52-1.42,1.65,1.65,0,0,0-1.26-.56,1.68,1.68,0,0,0-1.32.6,2.57,2.57,0,0,0-.51,1.71l-1.19-.15a3.85,3.85,0,0,1,.93-2.48,2.85,2.85,0,0,1,2.13-.83,2.56,2.56,0,0,1,2.18,1,3.54,3.54,0,0,1,.74,2.2,4.21,4.21,0,0,1-.58,2.1,15.77,15.77,0,0,1-2.2,2.67c-.69.71-1.13,1.19-1.33,1.44a4.71,4.71,0,0,0-.49.77Z"/><path class="cls-4" d="M389.52,29.65V26.91h-4.07V25.62l4.28-7.42h.94v7.42H392v1.29h-1.28v2.74Zm0-4V20.45l-2.94,5.17Z"/><path class="cls-4" d="M739.91,281.77h-1.07V270.32H740v4.09a2.56,2.56,0,0,1,.83-.84,2,2,0,0,1,1-.28,2.4,2.4,0,0,1,1.45.48,3.22,3.22,0,0,1,1,1.44,6.32,6.32,0,0,1,.39,2.35,5.25,5.25,0,0,1-.88,3.26,2.58,2.58,0,0,1-2.07,1.14,1.91,1.91,0,0,1-1.07-.31,2.55,2.55,0,0,1-.81-.92Zm0-4.21a6.14,6.14,0,0,0,.23,1.93,2.11,2.11,0,0,0,.67,1A1.45,1.45,0,0,0,743,280a4.2,4.2,0,0,0,.55-2.39,4.31,4.31,0,0,0-.53-2.4,1.46,1.46,0,0,0-2.58,0A4,4,0,0,0,739.89,277.56Z"/><path class="cls-4" d="M746.15,271.94v-1.62h1.15v1.62Zm0,9.83v-8.29h1.15v8.29Z"/><path class="cls-4" d="M749.06,281.77v-8.29h1v1.17a2.63,2.63,0,0,1,.92-1,2.24,2.24,0,0,1,1.24-.34,2.4,2.4,0,0,1,1,.21,2.08,2.08,0,0,1,.75.57,2.36,2.36,0,0,1,.43.9,7.77,7.77,0,0,1,.14,1.7v5.1h-1.15v-5a4,4,0,0,0-.16-1.34,1.3,1.3,0,0,0-.49-.65,1.32,1.32,0,0,0-.77-.23,1.61,1.61,0,0,0-1.32.62,3.53,3.53,0,0,0-.49,2.12v4.53Z"/><path class="cls-4" d="M760.79,280.75a4.64,4.64,0,0,1-1.2.91,3,3,0,0,1-1.3.3,2.28,2.28,0,0,1-1.7-.64,2.36,2.36,0,0,1-.63-1.73,2.62,2.62,0,0,1,.3-1.27,2.27,2.27,0,0,1,.81-.87,4.4,4.4,0,0,1,1.56-.46,9,9,0,0,0,2.07-.49v-.36a1.8,1.8,0,0,0-.3-1.19,1.63,1.63,0,0,0-1.32-.5,1.83,1.83,0,0,0-1.2.33,2.12,2.12,0,0,0-.59,1.25l-1.13-.19a3.07,3.07,0,0,1,1-1.94,3.2,3.2,0,0,1,2.11-.61,3,3,0,0,1,1.68.4,1.73,1.73,0,0,1,.77,1,6.87,6.87,0,0,1,.16,1.73v1.88a24.27,24.27,0,0,0,.07,2.48,3.53,3.53,0,0,0,.3,1H761A3.49,3.49,0,0,1,760.79,280.75Zm-.09-3.14a7.1,7.1,0,0,1-1.89.53,3.28,3.28,0,0,0-1,.29,1,1,0,0,0-.45.45,1.33,1.33,0,0,0-.16.67,1.26,1.26,0,0,0,.36.95,1.41,1.41,0,0,0,1,.36,2.06,2.06,0,0,0,1.12-.32,2,2,0,0,0,.76-.86,3.88,3.88,0,0,0,.25-1.56Z"/><path class="cls-4" d="M763.66,281.77v-8.29h1v1.25a3.35,3.35,0,0,1,.73-1.16,1.1,1.1,0,0,1,.74-.28,2,2,0,0,1,1.18.45l-.39,1.31a1.41,1.41,0,0,0-.84-.31,1,1,0,0,0-.67.26,1.44,1.44,0,0,0-.43.72,6.73,6.73,0,0,0-.22,1.71v4.34Z"/><path class="cls-4" d="M768,285l-.12-1.32a2.26,2.26,0,0,0,.66.12,1.11,1.11,0,0,0,.6-.15,1.08,1.08,0,0,0,.4-.46c0-.07.19-.53.45-1.37l-2.59-8.31h1.24l1.43,4.8c.17.6.34,1.24.49,1.92.13-.65.29-1.28.47-1.89l1.45-4.83h1.16L771,281.91a14.35,14.35,0,0,1-.81,2.2,2,2,0,0,1-.66.79,1.53,1.53,0,0,1-.84.24A2.1,2.1,0,0,1,768,285Z"/><path class="cls-4" d="M782.64,281.77v-1a2.39,2.39,0,0,1-.8.91,1.89,1.89,0,0,1-1.07.32,2.58,2.58,0,0,1-2.08-1.14,5.14,5.14,0,0,1-.88-3.2,6.47,6.47,0,0,1,.39-2.39,3.18,3.18,0,0,1,1-1.46,2.4,2.4,0,0,1,1.45-.48,2,2,0,0,1,1.06.3,2.39,2.39,0,0,1,.8.84v-4.11h1.17v11.45ZM779,277.63a4.13,4.13,0,0,0,.56,2.39,1.6,1.6,0,0,0,1.3.78,1.56,1.56,0,0,0,1.28-.75,3.86,3.86,0,0,0,.54-2.26,4.63,4.63,0,0,0-.54-2.54,1.59,1.59,0,0,0-1.36-.8,1.49,1.49,0,0,0-1.25.76A4.38,4.38,0,0,0,779,277.63Z"/><path class="cls-4" d="M785.53,271.94v-1.62h1.15v1.62Zm0,9.83v-8.29h1.15v8.29Z"/><path class="cls-4" d="M788,279.29l1.15-.22a2.09,2.09,0,0,0,.55,1.31,1.69,1.69,0,0,0,1.2.42,1.65,1.65,0,0,0,1.16-.37,1.21,1.21,0,0,0,.41-.94.91.91,0,0,0-.35-.76,4.27,4.27,0,0,0-1.17-.47,8.15,8.15,0,0,1-1.8-.71,1.93,1.93,0,0,1-.7-.77,2.54,2.54,0,0,1,.43-2.83,2.58,2.58,0,0,1,1.88-.66,3.1,3.1,0,0,1,1.33.27,2.16,2.16,0,0,1,.88.74,3.2,3.2,0,0,1,.42,1.32l-1.12.18a1.35,1.35,0,0,0-1.48-1.35,1.7,1.7,0,0,0-1.12.3.94.94,0,0,0-.37.76.83.83,0,0,0,.36.72,5.66,5.66,0,0,0,1.25.5,9.9,9.9,0,0,1,1.85.73,1.87,1.87,0,0,1,.66.73,2.53,2.53,0,0,1,.23,1.11,2.58,2.58,0,0,1-.76,1.93,2.79,2.79,0,0,1-2,.73C789.21,282,788.26,281.07,788,279.29Z"/><path class="cls-4" d="M797.57,280.52l.16,1.24a3.61,3.61,0,0,1-.86.12,1.74,1.74,0,0,1-1-.24,1.18,1.18,0,0,1-.51-.65,6.43,6.43,0,0,1-.13-1.65v-4.77h-.85v-1.09h.85v-2.06l1.15-.84v2.9h1.16v1.09h-1.16v4.85a2.26,2.26,0,0,0,.1.87.56.56,0,0,0,.55.28A3.92,3.92,0,0,0,797.57,280.52Z"/><path class="cls-4" d="M798.66,271.94v-1.62h1.14v1.62Zm0,9.83v-8.29h1.14v8.29Z"/><path class="cls-4" d="M801.57,281.77v-8.29h1v1.17a2.56,2.56,0,0,1,.92-1,2.24,2.24,0,0,1,1.24-.34,2.44,2.44,0,0,1,1,.21,2.08,2.08,0,0,1,.75.57,2.21,2.21,0,0,1,.42.9,7.19,7.19,0,0,1,.14,1.7v5.1H806v-5a4.32,4.32,0,0,0-.16-1.34,1.36,1.36,0,0,0-.49-.65,1.34,1.34,0,0,0-.77-.23,1.61,1.61,0,0,0-1.32.62,3.46,3.46,0,0,0-.49,2.12v4.53Z"/><path class="cls-4" d="M813.32,278.73l1.13.18a3.76,3.76,0,0,1-1,2.27,2.57,2.57,0,0,1-1.88.78,2.68,2.68,0,0,1-2.2-1.1,6.49,6.49,0,0,1,0-6.49,2.77,2.77,0,0,1,2.24-1.08,2.53,2.53,0,0,1,1.78.66,3.23,3.23,0,0,1,.93,2l-1.12.21a2.47,2.47,0,0,0-.57-1.26,1.31,1.31,0,0,0-1-.41,1.69,1.69,0,0,0-1.41.75,4.06,4.06,0,0,0-.56,2.39,4.35,4.35,0,0,0,.54,2.46,1.61,1.61,0,0,0,1.37.75,1.45,1.45,0,0,0,1.12-.5A2.74,2.74,0,0,0,813.32,278.73Z"/><path class="cls-4" d="M818,280.52l.16,1.24a3.61,3.61,0,0,1-.86.12,1.76,1.76,0,0,1-1-.24,1.17,1.17,0,0,1-.5-.65,6.29,6.29,0,0,1-.14-1.65v-4.77h-.84v-1.09h.84v-2.06l1.15-.84v2.9H818v1.09h-1.16v4.85a2.26,2.26,0,0,0,.1.87.56.56,0,0,0,.55.28A3.92,3.92,0,0,0,818,280.52Z"/><path class="cls-4" d="M819.08,271.94v-1.62h1.15v1.62Zm0,9.83v-8.29h1.15v8.29Z"/><path class="cls-4" d="M821.55,277.62a5,5,0,0,1,.91-3.24,2.93,2.93,0,0,1,4.56,0,4.86,4.86,0,0,1,.91,3.16,5.17,5.17,0,0,1-.9,3.33,2.83,2.83,0,0,1-2.29,1.09,2.86,2.86,0,0,1-2.28-1.1A5,5,0,0,1,821.55,277.62Zm1.18,0a4,4,0,0,0,.59,2.4,1.76,1.76,0,0,0,1.45.78,1.69,1.69,0,0,0,1.4-.79,5.17,5.17,0,0,0,0-4.78,1.75,1.75,0,0,0-1.45-.78,1.69,1.69,0,0,0-1.4.79A4,4,0,0,0,822.73,277.62Z"/><path class="cls-4" d="M829.29,281.77v-8.29h1v1.17a2.61,2.61,0,0,1,.91-1,2.3,2.3,0,0,1,1.25-.34,2.44,2.44,0,0,1,1,.21,2.08,2.08,0,0,1,.75.57,2.21,2.21,0,0,1,.42.9,7.19,7.19,0,0,1,.14,1.7v5.1h-1.15v-5a4.39,4.39,0,0,0-.15-1.34,1.36,1.36,0,0,0-.49-.65,1.34,1.34,0,0,0-.77-.23,1.61,1.61,0,0,0-1.32.62,3.46,3.46,0,0,0-.49,2.12v4.53Z"/><path class="cls-4" d="M842.45,285.14a16,16,0,0,1-1.57-3.31,12.4,12.4,0,0,1-.71-4.21,14.18,14.18,0,0,1,2.28-7.5h.82a27.16,27.16,0,0,0-1.2,2.85,13.76,13.76,0,0,0-.53,2.23,15.64,15.64,0,0,0,1.73,9.94Z"/><path class="cls-4" d="M844.6,281.77v-8.29h1v1.17a2.63,2.63,0,0,1,.92-1,2.24,2.24,0,0,1,1.24-.34,2.4,2.4,0,0,1,1,.21,2.08,2.08,0,0,1,.75.57,2.21,2.21,0,0,1,.42.9,7.19,7.19,0,0,1,.14,1.7v5.1H849v-5a4.32,4.32,0,0,0-.16-1.34,1.3,1.3,0,0,0-.49-.65,1.34,1.34,0,0,0-.77-.23,1.61,1.61,0,0,0-1.32.62,3.46,3.46,0,0,0-.49,2.12v4.53Z"/><path class="cls-4" d="M851.46,277.62a5,5,0,0,1,.9-3.24,2.93,2.93,0,0,1,4.56,0,4.8,4.8,0,0,1,.92,3.16,5.17,5.17,0,0,1-.9,3.33,2.83,2.83,0,0,1-2.29,1.09,2.86,2.86,0,0,1-2.28-1.1A5,5,0,0,1,851.46,277.62Zm1.18,0a4,4,0,0,0,.59,2.4,1.75,1.75,0,0,0,1.45.78,1.67,1.67,0,0,0,1.39-.79,5.14,5.14,0,0,0,0-4.78,1.75,1.75,0,0,0-1.45-.78,1.68,1.68,0,0,0-1.4.79A4,4,0,0,0,852.64,277.62Z"/><path class="cls-4" d="M738.85,291.14v-1.62H740v1.62Zm0,9.83v-8.29H740V301Z"/><path class="cls-4" d="M741.77,301v-8.29h1v1.17a2.63,2.63,0,0,1,.92-1,2.27,2.27,0,0,1,1.24-.34,2.37,2.37,0,0,1,1,.21,2.19,2.19,0,0,1,.75.57,2.36,2.36,0,0,1,.43.9,7.77,7.77,0,0,1,.14,1.7V301h-1.15v-5.05a4,4,0,0,0-.16-1.34,1.28,1.28,0,0,0-.48-.65,1.37,1.37,0,0,0-.77-.23,1.59,1.59,0,0,0-1.32.62,3.45,3.45,0,0,0-.5,2.12V301Z"/><path class="cls-4" d="M751.62,299.72l.16,1.24a3.54,3.54,0,0,1-.86.12,1.76,1.76,0,0,1-1-.24,1.17,1.17,0,0,1-.5-.65,6.29,6.29,0,0,1-.14-1.65v-4.77h-.84v-1.09h.84v-2.06l1.15-.84v2.9h1.16v1.09h-1.16v4.85a2.49,2.49,0,0,0,.1.87.57.57,0,0,0,.56.28A3.64,3.64,0,0,0,751.62,299.72Z"/><path class="cls-4" d="M757.36,298.3l1.19.18a3.61,3.61,0,0,1-1.08,2,2.83,2.83,0,0,1-1.92.67,2.86,2.86,0,0,1-2.34-1.1,4.86,4.86,0,0,1-.9-3.16,5.15,5.15,0,0,1,.9-3.28,2.84,2.84,0,0,1,2.29-1.13,2.71,2.71,0,0,1,2.2,1.11,5.05,5.05,0,0,1,.89,3.21v.37H753.5a3.55,3.55,0,0,0,.65,2.11,1.72,1.72,0,0,0,1.4.71C756.42,300,757,299.44,757.36,298.3ZM753.57,296h3.8a3.18,3.18,0,0,0-.46-1.61,1.66,1.66,0,0,0-1.42-.77,1.68,1.68,0,0,0-1.32.64A2.88,2.88,0,0,0,753.57,296Z"/><path class="cls-4" d="M760,301v-8.29h1v1.25a3.5,3.5,0,0,1,.73-1.16,1.1,1.1,0,0,1,.74-.28,2,2,0,0,1,1.18.45l-.39,1.31a1.38,1.38,0,0,0-.83-.31,1.05,1.05,0,0,0-.68.26,1.36,1.36,0,0,0-.42.72,6.36,6.36,0,0,0-.22,1.71V301Z"/><path class="cls-4" d="M764.38,304.15V292.68h1.06v1.07a2.73,2.73,0,0,1,.86-1,2,2,0,0,1,1.1-.3,2.4,2.4,0,0,1,1.45.48,3.28,3.28,0,0,1,1,1.45,6.21,6.21,0,0,1,.39,2.33,5.2,5.2,0,0,1-.89,3.27,2.58,2.58,0,0,1-2.08,1.14,1.94,1.94,0,0,1-1-.27,2.47,2.47,0,0,1-.8-.78v4Zm1-7.28a4.11,4.11,0,0,0,.54,2.37,1.56,1.56,0,0,0,1.3.76,1.58,1.58,0,0,0,1.29-.78,5.67,5.67,0,0,0,0-4.85,1.55,1.55,0,0,0-1.31-.78,1.57,1.57,0,0,0-1.26.84A4.33,4.33,0,0,0,765.42,296.87Z"/><path class="cls-4" d="M771.23,296.83a5,5,0,0,1,.91-3.25,2.93,2.93,0,0,1,4.56,0,4.86,4.86,0,0,1,.91,3.16,5.17,5.17,0,0,1-.9,3.33,2.83,2.83,0,0,1-2.29,1.09,2.86,2.86,0,0,1-2.28-1.1A5,5,0,0,1,771.23,296.83Zm1.18,0a4,4,0,0,0,.59,2.4,1.76,1.76,0,0,0,1.45.78,1.69,1.69,0,0,0,1.4-.79,5.17,5.17,0,0,0,0-4.78,1.75,1.75,0,0,0-1.45-.78,1.69,1.69,0,0,0-1.4.79A4,4,0,0,0,772.41,296.82Z"/><path class="cls-4" d="M778.93,301V289.52h1.15V301Z"/><path class="cls-4" d="M786.31,300a4.33,4.33,0,0,1-1.2.91,3,3,0,0,1-1.3.3,2.25,2.25,0,0,1-1.69-.64,2.36,2.36,0,0,1-.64-1.73,2.62,2.62,0,0,1,.3-1.27,2.27,2.27,0,0,1,.81-.87,4.54,4.54,0,0,1,1.57-.46,9,9,0,0,0,2.06-.49v-.36a1.81,1.81,0,0,0-.31-1.19,1.61,1.61,0,0,0-1.32-.5,1.85,1.85,0,0,0-1.2.33,2.18,2.18,0,0,0-.59,1.25l-1.13-.19a3.12,3.12,0,0,1,1-1.94,3.22,3.22,0,0,1,2.11-.61,3,3,0,0,1,1.68.4,1.69,1.69,0,0,1,.77,1,6.87,6.87,0,0,1,.16,1.73v1.88a23.12,23.12,0,0,0,.08,2.48,3.51,3.51,0,0,0,.29,1h-1.2A3.48,3.48,0,0,1,786.31,300Zm-.09-3.14a7,7,0,0,1-1.88.53,3.27,3.27,0,0,0-1,.29,1.08,1.08,0,0,0-.45.45,1.33,1.33,0,0,0-.16.67,1.23,1.23,0,0,0,.37.95,1.37,1.37,0,0,0,1,.36,2.06,2.06,0,0,0,1.12-.32,2,2,0,0,0,.76-.86,3.7,3.7,0,0,0,.25-1.55Z"/><path class="cls-4" d="M791.74,299.72l.16,1.24a3.61,3.61,0,0,1-.86.12,1.76,1.76,0,0,1-1-.24,1.17,1.17,0,0,1-.5-.65,6.29,6.29,0,0,1-.14-1.65v-4.77h-.84v-1.09h.84v-2.06l1.15-.84v2.9h1.16v1.09h-1.16v4.85a2.26,2.26,0,0,0,.1.87.56.56,0,0,0,.55.28A3.92,3.92,0,0,0,791.74,299.72Z"/><path class="cls-4" d="M792.83,291.14v-1.62H794v1.62Zm0,9.83v-8.29H794V301Z"/><path class="cls-4" d="M795.3,296.83a5,5,0,0,1,.91-3.25,2.93,2.93,0,0,1,4.56,0,4.8,4.8,0,0,1,.91,3.16,5.17,5.17,0,0,1-.9,3.33,2.83,2.83,0,0,1-2.29,1.09,2.86,2.86,0,0,1-2.28-1.1A5,5,0,0,1,795.3,296.83Zm1.18,0a4,4,0,0,0,.59,2.4,1.76,1.76,0,0,0,1.45.78,1.69,1.69,0,0,0,1.4-.79,5.17,5.17,0,0,0,0-4.78,1.75,1.75,0,0,0-1.45-.78,1.69,1.69,0,0,0-1.4.79A4,4,0,0,0,796.48,296.82Z"/><path class="cls-4" d="M803,301v-8.29h1v1.17a2.61,2.61,0,0,1,.91-1,2.3,2.3,0,0,1,1.25-.34,2.44,2.44,0,0,1,1,.21,2,2,0,0,1,1.17,1.47,7.19,7.19,0,0,1,.14,1.7V301h-1.15v-5.05a4.39,4.39,0,0,0-.15-1.34,1.36,1.36,0,0,0-.49-.65,1.34,1.34,0,0,0-.77-.23,1.61,1.61,0,0,0-1.32.62,3.46,3.46,0,0,0-.49,2.12V301Z"/><path class="cls-4" d="M818.41,300a4.33,4.33,0,0,1-1.2.91,3,3,0,0,1-1.3.3,2.26,2.26,0,0,1-1.69-.64,2.36,2.36,0,0,1-.63-1.73,2.62,2.62,0,0,1,.29-1.27,2.22,2.22,0,0,1,.82-.87,4.4,4.4,0,0,1,1.56-.46,8.87,8.87,0,0,0,2.06-.49v-.36a1.75,1.75,0,0,0-.31-1.19,1.61,1.61,0,0,0-1.32-.5,1.87,1.87,0,0,0-1.2.33,2.18,2.18,0,0,0-.59,1.25l-1.13-.19a3.12,3.12,0,0,1,1-1.94,3.23,3.23,0,0,1,2.12-.61,3,3,0,0,1,1.67.4,1.69,1.69,0,0,1,.77,1,6.87,6.87,0,0,1,.16,1.73v1.88a23.12,23.12,0,0,0,.08,2.48,3.87,3.87,0,0,0,.29,1h-1.2A3.48,3.48,0,0,1,818.41,300Zm-.09-3.14a7,7,0,0,1-1.88.53,3.27,3.27,0,0,0-1,.29,1.08,1.08,0,0,0-.45.45,1.44,1.44,0,0,0-.16.67,1.23,1.23,0,0,0,.37.95,1.38,1.38,0,0,0,1,.36,2.09,2.09,0,0,0,1.12-.32,2,2,0,0,0,.75-.86,3.7,3.7,0,0,0,.25-1.55Z"/><path class="cls-4" d="M821.24,301V289.52h1.15V301Z"/><path class="cls-4" d="M824.16,301V289.52h1.14V301Z"/><path class="cls-4" d="M826.67,296.83a5,5,0,0,1,.9-3.25,2.93,2.93,0,0,1,4.56,0,4.8,4.8,0,0,1,.92,3.16,5.17,5.17,0,0,1-.9,3.33,2.83,2.83,0,0,1-2.29,1.09,2.86,2.86,0,0,1-2.28-1.1A5,5,0,0,1,826.67,296.83Zm1.18,0a4,4,0,0,0,.59,2.4,1.75,1.75,0,0,0,1.45.78,1.7,1.7,0,0,0,1.4-.79,4.11,4.11,0,0,0,.58-2.39,4,4,0,0,0-.59-2.39,1.75,1.75,0,0,0-1.45-.78,1.69,1.69,0,0,0-1.4.79A4,4,0,0,0,827.85,296.82Z"/><path class="cls-4" d="M835.66,301l-2.09-8.29h1.19l1.09,4.79.4,1.78.36-1.71,1.08-4.86h1.19l1,4.81.34,1.59.39-1.61,1.16-4.79h1.13L840.78,301h-1.2l-1.08-5-.26-1.41L836.86,301Z"/><path class="cls-4" d="M848.52,298.3l1.19.18a3.6,3.6,0,0,1-1.07,2,2.84,2.84,0,0,1-1.93.67,2.89,2.89,0,0,1-2.34-1.1,4.86,4.86,0,0,1-.89-3.16,5.15,5.15,0,0,1,.9-3.28,2.8,2.8,0,0,1,2.28-1.13,2.72,2.72,0,0,1,2.21,1.11,5.05,5.05,0,0,1,.88,3.21v.37h-5.08a3.62,3.62,0,0,0,.65,2.11,1.75,1.75,0,0,0,1.41.71C847.58,300,848.18,299.44,848.52,298.3ZM844.73,296h3.8a3.08,3.08,0,0,0-.46-1.61,1.68,1.68,0,0,0-2.73-.13A2.82,2.82,0,0,0,844.73,296Z"/><path class="cls-4" d="M855.58,301v-1a2.33,2.33,0,0,1-.81.91,1.84,1.84,0,0,1-1.06.32,2.57,2.57,0,0,1-2.08-1.14,5.07,5.07,0,0,1-.88-3.19,6.48,6.48,0,0,1,.39-2.4,3.18,3.18,0,0,1,1-1.46,2.4,2.4,0,0,1,1.45-.48,1.94,1.94,0,0,1,1,.3,2.33,2.33,0,0,1,.81.84v-4.11h1.17V301Zm-3.65-4.14a4.13,4.13,0,0,0,.56,2.39,1.58,1.58,0,0,0,1.3.78,1.53,1.53,0,0,0,1.27-.75,3.86,3.86,0,0,0,.54-2.26,4.63,4.63,0,0,0-.54-2.54,1.57,1.57,0,0,0-1.36-.8,1.49,1.49,0,0,0-1.25.77A4.33,4.33,0,0,0,851.93,296.83Z"/><path class="cls-4" d="M858.92,304.34h-.83a15.64,15.64,0,0,0,1.73-9.94,14.92,14.92,0,0,0-.52-2.23,24.84,24.84,0,0,0-1.21-2.84h.83a14.19,14.19,0,0,1,2.27,7.49,12.66,12.66,0,0,1-.68,4.14A15.4,15.4,0,0,1,858.92,304.34Z"/><path class="cls-4" d="M741.41,318.92l.16,1.24a3.54,3.54,0,0,1-.86.12,1.76,1.76,0,0,1-1-.24,1.17,1.17,0,0,1-.5-.65,6.29,6.29,0,0,1-.14-1.65V313h-.84v-1.09h.84v-2.06l1.15-.84v2.9h1.16V313h-1.16v4.85a2.26,2.26,0,0,0,.1.87.57.57,0,0,0,.56.28A3.64,3.64,0,0,0,741.41,318.92Z"/><path class="cls-4" d="M742.5,320.17V308.72h1.15v4.11a3,3,0,0,1,.92-.86,2.26,2.26,0,0,1,1.13-.28,2.2,2.2,0,0,1,1.71.69,3.84,3.84,0,0,1,.63,2.54v5.25h-1.15v-5.25a2.5,2.5,0,0,0-.38-1.55,1.31,1.31,0,0,0-1.06-.47,1.62,1.62,0,0,0-1.27.6,3.22,3.22,0,0,0-.53,2.13v4.54Z"/><path class="cls-4" d="M749.8,310.34v-1.62H751v1.62Zm0,9.83v-8.29H751v8.29Z"/><path class="cls-4" d="M752.27,317.69l1.14-.22a2.1,2.1,0,0,0,.56,1.31,1.69,1.69,0,0,0,1.2.43,1.67,1.67,0,0,0,1.16-.38,1.2,1.2,0,0,0,.4-.94.88.88,0,0,0-.35-.76,4.27,4.27,0,0,0-1.17-.47,9.38,9.38,0,0,1-1.8-.7,2.1,2.1,0,0,1-.7-.78,2.54,2.54,0,0,1,.43-2.83,2.58,2.58,0,0,1,1.88-.66,3.14,3.14,0,0,1,1.34.27,2.13,2.13,0,0,1,.87.74,3,3,0,0,1,.43,1.32l-1.13.19a1.35,1.35,0,0,0-1.48-1.36,1.71,1.71,0,0,0-1.11.3.91.91,0,0,0-.37.76.85.85,0,0,0,.35.72,5.38,5.38,0,0,0,1.25.5,9.79,9.79,0,0,1,1.86.73,1.84,1.84,0,0,1,.65.73,2.39,2.39,0,0,1,.23,1.11,2.61,2.61,0,0,1-.75,1.93,2.82,2.82,0,0,1-2.06.73C753.47,320.36,752.53,319.47,752.27,317.69Z"/><path class="cls-4" d="M767.35,319.15a4.33,4.33,0,0,1-1.2.91,3,3,0,0,1-1.3.3,2.25,2.25,0,0,1-1.69-.64,2.32,2.32,0,0,1-.64-1.73,2.62,2.62,0,0,1,.3-1.27,2.27,2.27,0,0,1,.81-.87,4.54,4.54,0,0,1,1.57-.46,9,9,0,0,0,2.06-.49v-.36a1.81,1.81,0,0,0-.31-1.19,1.63,1.63,0,0,0-1.32-.5,1.83,1.83,0,0,0-1.2.33,2.18,2.18,0,0,0-.59,1.25l-1.13-.19a3.15,3.15,0,0,1,1-1.94,3.22,3.22,0,0,1,2.11-.61,3,3,0,0,1,1.68.4,1.69,1.69,0,0,1,.77,1,6.87,6.87,0,0,1,.16,1.73v1.88a23.12,23.12,0,0,0,.08,2.48,3.51,3.51,0,0,0,.29,1h-1.2A3.48,3.48,0,0,1,767.35,319.15Zm-.09-3.14a7,7,0,0,1-1.88.53,3.27,3.27,0,0,0-1,.29,1.08,1.08,0,0,0-.45.45,1.34,1.34,0,0,0-.16.68,1.22,1.22,0,0,0,.37.94,1.37,1.37,0,0,0,1,.36,2.06,2.06,0,0,0,1.12-.32,2,2,0,0,0,.76-.86,3.86,3.86,0,0,0,.25-1.55Z"/><path class="cls-4" d="M770.22,320.17v-8.29h1v1.17a2.61,2.61,0,0,1,.91-1,2.3,2.3,0,0,1,1.25-.34,2.44,2.44,0,0,1,1,.21,2,2,0,0,1,1.17,1.47,7.19,7.19,0,0,1,.14,1.7v5.1h-1.15v-5.05a4.39,4.39,0,0,0-.15-1.34,1.41,1.41,0,0,0-.49-.65,1.34,1.34,0,0,0-.77-.23,1.61,1.61,0,0,0-1.32.62,3.46,3.46,0,0,0-.49,2.12v4.53Z"/><path class="cls-4" d="M782,317.13l1.13.18a3.82,3.82,0,0,1-1,2.27,2.57,2.57,0,0,1-1.89.78,2.64,2.64,0,0,1-2.19-1.1,6.49,6.49,0,0,1,0-6.49,2.75,2.75,0,0,1,2.24-1.08,2.55,2.55,0,0,1,1.78.66,3.17,3.17,0,0,1,.92,2l-1.11.21a2.47,2.47,0,0,0-.57-1.26,1.31,1.31,0,0,0-1-.41,1.69,1.69,0,0,0-1.41.75,4.06,4.06,0,0,0-.56,2.39,4.35,4.35,0,0,0,.54,2.46,1.62,1.62,0,0,0,1.37.76,1.46,1.46,0,0,0,1.12-.51A2.71,2.71,0,0,0,782,317.13Z"/><path class="cls-4" d="M784.08,320.17V308.72h1.15v4.11a3,3,0,0,1,.91-.86,2.31,2.31,0,0,1,1.13-.28,2.21,2.21,0,0,1,1.72.69,3.84,3.84,0,0,1,.63,2.54v5.25h-1.15v-5.25a2.5,2.5,0,0,0-.38-1.55,1.31,1.31,0,0,0-1.06-.47,1.66,1.66,0,0,0-1.28.6,3.28,3.28,0,0,0-.52,2.13v4.54Z"/><path class="cls-4" d="M790.94,316a5,5,0,0,1,.9-3.25,2.93,2.93,0,0,1,4.56,0,4.8,4.8,0,0,1,.91,3.16,5.17,5.17,0,0,1-.9,3.33,2.92,2.92,0,0,1-4.56,0A4.94,4.94,0,0,1,790.94,316Zm1.18,0a4,4,0,0,0,.58,2.4,1.78,1.78,0,0,0,1.46.79,1.7,1.7,0,0,0,1.39-.8,5.21,5.21,0,0,0,0-4.78,1.77,1.77,0,0,0-1.46-.78,1.67,1.67,0,0,0-1.39.79A4,4,0,0,0,792.12,316Z"/><path class="cls-4" d="M798.67,320.17v-8.29h1v1.25a3.8,3.8,0,0,1,.73-1.16,1.11,1.11,0,0,1,.75-.28,2,2,0,0,1,1.18.45l-.39,1.31a1.43,1.43,0,0,0-.84-.31,1,1,0,0,0-.67.26,1.37,1.37,0,0,0-.43.72,6.36,6.36,0,0,0-.22,1.71v4.34Z"/><path class="cls-4" d="M806.65,320.17V308.72h1.15v11.45Z"/><path class="cls-4" d="M809.6,310.34v-1.62h1.15v1.62Zm0,9.83v-8.29h1.15v8.29Z"/><path class="cls-4" d="M812.54,320.17V308.72h1.15v6.54l2.73-3.38h1.5l-2.6,3.08,2.86,5.21h-1.42l-2.26-4.25-.81,1v3.29Z"/><path class="cls-4" d="M823.73,317.5l1.18.18a3.54,3.54,0,0,1-1.07,2,3.07,3.07,0,0,1-4.27-.43,4.92,4.92,0,0,1-.89-3.16,5.15,5.15,0,0,1,.9-3.28,2.82,2.82,0,0,1,2.29-1.13,2.71,2.71,0,0,1,2.2,1.11A5.05,5.05,0,0,1,825,316v.37h-5.08a3.48,3.48,0,0,0,.65,2.11,1.73,1.73,0,0,0,1.4.72C822.79,319.21,823.39,318.64,823.73,317.5Zm-3.79-2.27h3.79a3.08,3.08,0,0,0-.46-1.61,1.68,1.68,0,0,0-2.73-.13A2.76,2.76,0,0,0,819.94,315.23Z"/><path class="cls-4" d="M834.45,319.15a4.33,4.33,0,0,1-1.2.91,3,3,0,0,1-1.3.3,2.26,2.26,0,0,1-1.69-.64,2.36,2.36,0,0,1-.64-1.73,2.62,2.62,0,0,1,.3-1.27,2.27,2.27,0,0,1,.81-.87,4.54,4.54,0,0,1,1.57-.46,9,9,0,0,0,2.06-.49v-.36a1.75,1.75,0,0,0-.31-1.19,1.61,1.61,0,0,0-1.32-.5,1.85,1.85,0,0,0-1.2.33,2.18,2.18,0,0,0-.59,1.25l-1.13-.19a3.15,3.15,0,0,1,1-1.94,3.22,3.22,0,0,1,2.11-.61,3,3,0,0,1,1.68.4,1.69,1.69,0,0,1,.77,1,6.87,6.87,0,0,1,.16,1.73v1.88a23.12,23.12,0,0,0,.08,2.48,3.87,3.87,0,0,0,.29,1h-1.2A3.48,3.48,0,0,1,834.45,319.15Zm-.09-3.14a7,7,0,0,1-1.88.53,3.27,3.27,0,0,0-1,.29,1.08,1.08,0,0,0-.45.45,1.45,1.45,0,0,0-.16.68,1.22,1.22,0,0,0,.37.94,1.37,1.37,0,0,0,1,.36,2.1,2.1,0,0,0,1.13-.32,2,2,0,0,0,.75-.86,3.7,3.7,0,0,0,.25-1.55Z"/><path class="cls-4" d="M837.32,320.17v-8.29h1v1.17a2.56,2.56,0,0,1,.92-1,2.24,2.24,0,0,1,1.24-.34,2.44,2.44,0,0,1,1,.21,2,2,0,0,1,1.17,1.47,7.19,7.19,0,0,1,.14,1.7v5.1H841.7v-5.05a4.32,4.32,0,0,0-.16-1.34,1.41,1.41,0,0,0-.49-.65,1.34,1.34,0,0,0-.77-.23,1.61,1.61,0,0,0-1.32.62,3.46,3.46,0,0,0-.49,2.12v4.53Z"/><path class="cls-4" d="M738.85,329.54v-1.62H740v1.62Zm0,9.83v-8.29H740v8.29Z"/><path class="cls-4" d="M741.77,339.37v-8.29h1v1.17a2.63,2.63,0,0,1,.92-1,2.27,2.27,0,0,1,1.24-.34,2.37,2.37,0,0,1,1,.21,2.08,2.08,0,0,1,.75.57,2.36,2.36,0,0,1,.43.9,7.77,7.77,0,0,1,.14,1.7v5.1h-1.15v-5.05A4,4,0,0,0,746,333a1.28,1.28,0,0,0-.48-.65,1.37,1.37,0,0,0-.77-.23,1.59,1.59,0,0,0-1.32.62,3.45,3.45,0,0,0-.5,2.12v4.53Z"/><path class="cls-4" d="M753.71,336.7l1.19.18a3.58,3.58,0,0,1-1.08,2,2.82,2.82,0,0,1-1.92.68,2.88,2.88,0,0,1-2.34-1.1,4.89,4.89,0,0,1-.9-3.17,5.08,5.08,0,0,1,.91-3.27,2.78,2.78,0,0,1,2.28-1.13,2.69,2.69,0,0,1,2.2,1.11,5.05,5.05,0,0,1,.89,3.21v.37h-5.08a3.55,3.55,0,0,0,.65,2.11,1.74,1.74,0,0,0,1.41.71C752.77,338.4,753.37,337.84,753.71,336.7Zm-3.79-2.27h3.8a3.18,3.18,0,0,0-.46-1.61,1.67,1.67,0,0,0-1.42-.78,1.69,1.69,0,0,0-1.32.65A2.88,2.88,0,0,0,749.92,334.43Z"/><path class="cls-4" d="M755.91,336.89l1.15-.22a2,2,0,0,0,.56,1.31,1.69,1.69,0,0,0,1.2.42A1.64,1.64,0,0,0,760,338a1.18,1.18,0,0,0,.41-.94.88.88,0,0,0-.35-.76,4,4,0,0,0-1.17-.47,8.15,8.15,0,0,1-1.8-.71,2,2,0,0,1-.7-.77,2.54,2.54,0,0,1,.43-2.83,2.58,2.58,0,0,1,1.88-.66,3.07,3.07,0,0,1,1.33.27,2,2,0,0,1,.88.74,2.93,2.93,0,0,1,.42,1.32l-1.12.18A1.35,1.35,0,0,0,758.7,332a1.71,1.71,0,0,0-1.11.3.94.94,0,0,0-.37.77.85.85,0,0,0,.35.72,5.91,5.91,0,0,0,1.25.5,9,9,0,0,1,1.85.73,1.79,1.79,0,0,1,.66.73,2.53,2.53,0,0,1,.23,1.11,2.61,2.61,0,0,1-.75,1.93,2.82,2.82,0,0,1-2.06.73C757.12,339.56,756.17,338.67,755.91,336.89Z"/><path class="cls-4" d="M767.38,336.33l1.13.18a3.82,3.82,0,0,1-1,2.27,2.59,2.59,0,0,1-1.89.78,2.7,2.7,0,0,1-2.2-1.1,5.2,5.2,0,0,1-.86-3.24,5.1,5.1,0,0,1,.87-3.25,2.75,2.75,0,0,1,2.24-1.08,2.56,2.56,0,0,1,1.77.65,3.24,3.24,0,0,1,.93,2l-1.12.21a2.47,2.47,0,0,0-.57-1.26,1.3,1.3,0,0,0-1-.42,1.7,1.7,0,0,0-1.41.76,4,4,0,0,0-.56,2.39,4.45,4.45,0,0,0,.53,2.46,1.63,1.63,0,0,0,1.37.75,1.47,1.47,0,0,0,1.13-.5A2.89,2.89,0,0,0,767.38,336.33Z"/><path class="cls-4" d="M773.91,338.35a4.33,4.33,0,0,1-1.2.91,3,3,0,0,1-1.3.3,2.26,2.26,0,0,1-1.69-.64,2.36,2.36,0,0,1-.63-1.73,2.62,2.62,0,0,1,.29-1.27,2.22,2.22,0,0,1,.82-.87,4.2,4.2,0,0,1,1.56-.46,8.87,8.87,0,0,0,2.06-.49v-.36a1.78,1.78,0,0,0-.31-1.2,1.64,1.64,0,0,0-1.32-.5,1.87,1.87,0,0,0-1.2.34,2.18,2.18,0,0,0-.59,1.25l-1.13-.19a3.12,3.12,0,0,1,1-1.94,3.23,3.23,0,0,1,2.12-.61,3,3,0,0,1,1.67.4,1.69,1.69,0,0,1,.77,1A6.87,6.87,0,0,1,775,334v1.88a23.12,23.12,0,0,0,.08,2.48,3.87,3.87,0,0,0,.29,1h-1.2A3.48,3.48,0,0,1,773.91,338.35Zm-.09-3.14a7.4,7.4,0,0,1-1.88.53,3.27,3.27,0,0,0-1,.29,1.08,1.08,0,0,0-.45.45,1.44,1.44,0,0,0-.16.67,1.23,1.23,0,0,0,.37,1,1.38,1.38,0,0,0,1,.36,2,2,0,0,0,1.87-1.18,3.72,3.72,0,0,0,.25-1.56Z"/><path class="cls-4" d="M776.78,342.55V331.08h1.06v1.07a2.66,2.66,0,0,1,.87-1,2,2,0,0,1,1.09-.3,2.36,2.36,0,0,1,1.45.48,3.22,3.22,0,0,1,1,1.44,6.09,6.09,0,0,1,.4,2.34,5.26,5.26,0,0,1-.89,3.27,2.58,2.58,0,0,1-2.08,1.14,1.89,1.89,0,0,1-1-.27,2.47,2.47,0,0,1-.8-.78v4Zm1.05-7.28a4.15,4.15,0,0,0,.54,2.37,1.47,1.47,0,0,0,2.58,0,5.62,5.62,0,0,0,0-4.85,1.42,1.42,0,0,0-2.57.06A4.33,4.33,0,0,0,777.83,335.27Z"/><path class="cls-4" d="M788.51,338.35a4.52,4.52,0,0,1-1.21.91,2.91,2.91,0,0,1-1.29.3,2.27,2.27,0,0,1-1.7-.64,2.36,2.36,0,0,1-.63-1.73,2.62,2.62,0,0,1,.3-1.27,2.19,2.19,0,0,1,.81-.87,4.2,4.2,0,0,1,1.56-.46,8.74,8.74,0,0,0,2.06-.49v-.36a1.85,1.85,0,0,0-.3-1.2,1.67,1.67,0,0,0-1.32-.5,1.88,1.88,0,0,0-1.21.34,2.18,2.18,0,0,0-.58,1.25l-1.13-.19a3.07,3.07,0,0,1,1-1.94,3.2,3.2,0,0,1,2.11-.61,3,3,0,0,1,1.68.4,1.77,1.77,0,0,1,.77,1,7.37,7.37,0,0,1,.16,1.73v1.88a24.27,24.27,0,0,0,.07,2.48,3.53,3.53,0,0,0,.3,1h-1.21A3.2,3.2,0,0,1,788.51,338.35Zm-.1-3.14a7.4,7.4,0,0,1-1.88.53,3.28,3.28,0,0,0-1,.29,1,1,0,0,0-.45.45,1.33,1.33,0,0,0-.16.67,1.26,1.26,0,0,0,.36,1,1.41,1.41,0,0,0,1,.36,2.09,2.09,0,0,0,1.12-.32,2,2,0,0,0,.75-.86,3.72,3.72,0,0,0,.25-1.56Z"/><path class="cls-4" d="M792.43,339.37h-1.07V327.92h1.16V332a2.47,2.47,0,0,1,.83-.84,1.92,1.92,0,0,1,1-.28,2.38,2.38,0,0,1,1.45.48,3.24,3.24,0,0,1,1,1.44,6.32,6.32,0,0,1,.39,2.35,5.25,5.25,0,0,1-.89,3.26,2.57,2.57,0,0,1-2.06,1.14,1.87,1.87,0,0,1-1.07-.31,2.48,2.48,0,0,1-.82-.92Zm0-4.21a5.81,5.81,0,0,0,.24,1.93,2.15,2.15,0,0,0,.66,1,1.55,1.55,0,0,0,1,.33,1.53,1.53,0,0,0,1.26-.8,5.49,5.49,0,0,0,0-4.79,1.56,1.56,0,0,0-1.3-.77,1.58,1.58,0,0,0-1.28.81A4,4,0,0,0,792.41,335.16Z"/><path class="cls-4" d="M798.63,339.37V327.92h1.15v11.45Z"/><path class="cls-4" d="M806.23,336.7l1.19.18a3.57,3.57,0,0,1-1.07,2,2.84,2.84,0,0,1-1.93.68,2.89,2.89,0,0,1-2.34-1.1,5,5,0,0,1-.89-3.17,5.14,5.14,0,0,1,.9-3.27,2.78,2.78,0,0,1,2.29-1.13,2.72,2.72,0,0,1,2.2,1.11,5.05,5.05,0,0,1,.88,3.21v.37h-5.07a3.55,3.55,0,0,0,.64,2.11,1.75,1.75,0,0,0,1.41.71C805.29,338.4,805.9,337.84,806.23,336.7Zm-3.78-2.27h3.79a3.08,3.08,0,0,0-.46-1.61,1.66,1.66,0,0,0-2.73-.13A2.76,2.76,0,0,0,802.45,334.43Z"/><path class="cls-4" d="M812.53,342.55V331.08h1.06v1.07a2.66,2.66,0,0,1,.87-1,2,2,0,0,1,1.09-.3,2.36,2.36,0,0,1,1.45.48,3.22,3.22,0,0,1,1,1.44,6.09,6.09,0,0,1,.4,2.34,5.26,5.26,0,0,1-.89,3.27,2.58,2.58,0,0,1-2.08,1.14,1.89,1.89,0,0,1-1-.27,2.47,2.47,0,0,1-.8-.78v4Zm1.05-7.28a4.15,4.15,0,0,0,.54,2.37,1.47,1.47,0,0,0,2.58,0,5.62,5.62,0,0,0,0-4.85,1.42,1.42,0,0,0-2.57.06A4.33,4.33,0,0,0,813.58,335.27Z"/><path class="cls-4" d="M819.83,339.37v-8.29h1v1.25a3.5,3.5,0,0,1,.73-1.16,1.1,1.1,0,0,1,.74-.28,2,2,0,0,1,1.18.45l-.39,1.31a1.38,1.38,0,0,0-.83-.31,1.05,1.05,0,0,0-.68.26,1.36,1.36,0,0,0-.42.72A6.26,6.26,0,0,0,821,335v4.34Z"/><path class="cls-4" d="M823.76,335.22a5,5,0,0,1,.9-3.24,2.93,2.93,0,0,1,4.56,0,4.8,4.8,0,0,1,.91,3.16,5.17,5.17,0,0,1-.9,3.33,2.92,2.92,0,0,1-4.56,0A5,5,0,0,1,823.76,335.22Zm1.18,0a4,4,0,0,0,.58,2.4,1.77,1.77,0,0,0,1.46.78,1.69,1.69,0,0,0,1.39-.79,5.21,5.21,0,0,0,0-4.78,1.78,1.78,0,0,0-1.46-.79,1.7,1.7,0,0,0-1.39.79A4,4,0,0,0,824.94,335.22Z"/><path class="cls-4" d="M831.49,342.55V331.08h1.06v1.07a2.66,2.66,0,0,1,.87-1,2,2,0,0,1,1.09-.3,2.36,2.36,0,0,1,1.45.48,3.22,3.22,0,0,1,1,1.44,6.09,6.09,0,0,1,.4,2.34,5.26,5.26,0,0,1-.89,3.27,2.58,2.58,0,0,1-2.08,1.14,1.94,1.94,0,0,1-1-.27,2.47,2.47,0,0,1-.8-.78v4Zm1-7.28a4.15,4.15,0,0,0,.54,2.37,1.56,1.56,0,0,0,1.3.76,1.58,1.58,0,0,0,1.29-.78,4.38,4.38,0,0,0,.55-2.44,4.28,4.28,0,0,0-.54-2.41,1.42,1.42,0,0,0-2.57.06A4.33,4.33,0,0,0,832.54,335.27Z"/><path class="cls-4" d="M838.79,339.37V327.92h1.15V332a2.76,2.76,0,0,1,.92-.86,2.24,2.24,0,0,1,1.12-.28,2.21,2.21,0,0,1,1.72.69,3.84,3.84,0,0,1,.63,2.54v5.25h-1.15v-5.25a2.5,2.5,0,0,0-.38-1.55,1.31,1.31,0,0,0-1.06-.47,1.66,1.66,0,0,0-1.28.6,3.28,3.28,0,0,0-.52,2.13v4.54Z"/><path class="cls-4" d="M850.73,336.7l1.19.18a3.57,3.57,0,0,1-1.07,2,2.84,2.84,0,0,1-1.93.68,2.89,2.89,0,0,1-2.34-1.1,5,5,0,0,1-.89-3.17,5.14,5.14,0,0,1,.9-3.27,2.78,2.78,0,0,1,2.29-1.13,2.72,2.72,0,0,1,2.2,1.11,5.05,5.05,0,0,1,.88,3.21v.37h-5.07a3.55,3.55,0,0,0,.64,2.11,1.75,1.75,0,0,0,1.41.71C849.79,338.4,850.4,337.84,850.73,336.7ZM847,334.43h3.79a3.08,3.08,0,0,0-.46-1.61,1.66,1.66,0,0,0-2.73-.13A2.76,2.76,0,0,0,847,334.43Z"/><path class="cls-4" d="M857.84,336.33l1.13.18a3.82,3.82,0,0,1-1,2.27,2.59,2.59,0,0,1-1.89.78,2.7,2.7,0,0,1-2.2-1.1,5.2,5.2,0,0,1-.86-3.24,5.1,5.1,0,0,1,.87-3.25,2.75,2.75,0,0,1,2.24-1.08,2.6,2.6,0,0,1,1.78.65,3.23,3.23,0,0,1,.92,2l-1.12.21a2.47,2.47,0,0,0-.57-1.26,1.3,1.3,0,0,0-1-.42,1.7,1.7,0,0,0-1.41.76,4.06,4.06,0,0,0-.56,2.39,4.45,4.45,0,0,0,.53,2.46,1.63,1.63,0,0,0,1.37.75,1.47,1.47,0,0,0,1.13-.5A2.81,2.81,0,0,0,857.84,336.33Z"/><path class="cls-4" d="M859.91,342.57l-.13-1.32a2.32,2.32,0,0,0,.66.12,1.11,1.11,0,0,0,.6-.15,1.14,1.14,0,0,0,.4-.46c0-.07.19-.53.45-1.37l-2.59-8.31h1.25l1.42,4.8c.18.6.34,1.24.49,1.92.13-.65.29-1.28.47-1.89l1.45-4.83h1.16L863,339.51a15.92,15.92,0,0,1-.8,2.2,2.15,2.15,0,0,1-.67.79,1.53,1.53,0,0,1-.84.24A2,2,0,0,1,859.91,342.57Z"/><path class="cls-4" d="M865.94,339.37v-1.6h1.31v1.6Z"/><path class="cls-4" d="M925.13,532.36v1.35h-6.21a3.88,3.88,0,0,1,.49-1.84,10.59,10.59,0,0,1,1.91-2.4,13.49,13.49,0,0,0,2.11-2.49,3.25,3.25,0,0,0,.5-1.63,2,2,0,0,0-.51-1.43,1.64,1.64,0,0,0-1.26-.55,1.67,1.67,0,0,0-1.32.59,2.57,2.57,0,0,0-.52,1.71l-1.18-.15a3.85,3.85,0,0,1,.93-2.48,2.85,2.85,0,0,1,2.13-.83,2.54,2.54,0,0,1,2.17,1,3.48,3.48,0,0,1,.74,2.2,4.11,4.11,0,0,1-.58,2.1,14.77,14.77,0,0,1-2.19,2.67c-.69.71-1.13,1.19-1.33,1.44a4.12,4.12,0,0,0-.49.77Z"/><path class="cls-4" d="M926.35,530.71l1.21-.12a2.82,2.82,0,0,0,.63,1.62,1.55,1.55,0,0,0,1.16.54,1.75,1.75,0,0,0,1.41-.75,3.27,3.27,0,0,0,.59-2.07,2.85,2.85,0,0,0-.57-1.9,1.81,1.81,0,0,0-1.44-.68,1.74,1.74,0,0,0-1,.3,1.89,1.89,0,0,0-.72.81l-1.09-.17.91-5.88h4.67v1.34h-3.75l-.5,3.08a2.67,2.67,0,0,1,1.77-.72,2.63,2.63,0,0,1,2.05,1,4,4,0,0,1,.87,2.71,4.78,4.78,0,0,1-.87,2.89,2.75,2.75,0,0,1-2.34,1.2,2.82,2.82,0,0,1-2.06-.85A3.58,3.58,0,0,1,926.35,530.71Z"/><g class="cls-2"><path class="cls-3" d="M550.8,721.76l367-3.6-4.8.48v-.48h.72l4.08.48s-1.44-2,0-2.79,0-1.05,0-1.05l-.24-1.2-1.2-36.48-2.4-70.56"/><path class="cls-3" d="M964.08,613a6.78,6.78,0,0,0-4.2-.78c-2.88.18-.48.38-.48.38l.48.4s2-1.57.3-1.19-2.36.57-2.36.57h-4.24s-38.39-.58-42.26-.1-3.16.72-6.52.1-.72-1.54,0-1.54"/><path class="cls-3" d="M564.82,716.35a2.18,2.18,0,0,1-.7-1.55c0-1-1.8-147.6-1.8-147.6l-.48-18.72-1.2-.63a2.63,2.63,0,0,1,.72-2.85c1.37-1.2.36-1.2.36-1.2h3.1l-9.7-.12,20.76-.13,41.44-.7,79.4-1.33"/><path class="cls-3" d="M656.88,541.4h70.8l49.92-1.08s188.88-1.92,188.88-3.12"/><path class="cls-3" d="M855.84,600.32h1l-1-2.16s-6.48-19.68-8.88-27.84S835.32,499,835.32,499l-2.76-28.19"/><path class="cls-3" d="M840.24,518a17.45,17.45,0,0,1,1,3.77,59.46,59.46,0,0,1,1.57,7.12,104.88,104.88,0,0,0,1.68,10.58c.32,1.29.85,2.5,1.21,3.77.5,1.76.62,3.6,1.06,5.35a13.35,13.35,0,0,0,.67,1.79,16.27,16.27,0,0,1,.81,4.89,29,29,0,0,0,1,4.78,48,48,0,0,1,.68,5.08c.28,2.14.65,4.27.91,6.42a34.27,34.27,0,0,1,0,7.16c-.31,4-.05,8-.05,12"/><path class="cls-3" d="M933.78,404.53l-.19.09c-.59-1.34,0-4.06.13-5.48.18-2.5.3-5.05.65-7.53a44.54,44.54,0,0,0,.33-6.32c0-2.5-.4-4.94-.46-7.44s0-4.92,0-7.38c0-1.65.44-2.92.44-4.55a94.8,94.8,0,0,1,.46-12.5,31,31,0,0,0,.25-7.51c-.12-1-.3-2-.49-3s-.09-1.77-.32-2.56c-.14-.5-.3-.51-.33-1.17-.07-1.16.05-2.32,0-3.48-.1-2.59-.52-5.17-.5-7.78q0-4.46,0-8.89c0-3.81.92-7.36.92-11.13v-9.57a23.89,23.89,0,0,0-.07-4c-.43-2.54-1.31-4.73-1.34-7.37,0-3.48-.25-7-.22-10.45a11.28,11.28,0,0,0-.4-3.42c-.29-1-1.16-2-1-3"/><path class="cls-3" d="M870.6,440.66c5.65-.36,11.13.43,16.72,1.2"/><path class="cls-3" d="M907.32,440.06c8.16-.11,16.91-.91,24.55,2.64l6.56,3.83c.65.29,1.19.41,1.77.73"/><path class="cls-3" d="M951,453.56c-7.79-4.59-16.71-8.68-21.6-16.71"/><path class="cls-3" d="M954.9,473.06c.11.41.23.81.34,1.21-.44-1-.88-2.1-1.31-3.15A355.55,355.55,0,0,1,944.65,411c-1.72-21-1.6-41.24-1.15-62.14"/><path class="cls-3" d="M976.5,480.85l.58.33a542.59,542.59,0,0,0,2-58.58q-.42-37.89-1.42-75.77a97.14,97.14,0,0,1,1.49-22.73c.67-1.41,1.08-1.86,2.6-1.86l.15.22"/></g></g></svg>