<svg id="Layer_1" data-name="Layer 1" xmlns="http://www.w3.org/2000/svg" xmlns:xlink="http://www.w3.org/1999/xlink" viewBox="0 0 540 756"><defs><style>.cls-1,.cls-3{fill:none;}.cls-2{clip-path:url(#clip-path);}.cls-3{stroke:#231f20;stroke-width:0.25px;}.cls-4{fill:#231f20;}</style><clipPath id="clip-path"><rect class="cls-1" width="540" height="756"/></clipPath></defs><title>Untitled-3</title><g class="cls-2"><g class="cls-2"><line class="cls-3" x1="180" y1="-20.88" x2="180" y2="788.4"/><line class="cls-3" x1="359.88" y1="-20.88" x2="359.88" y2="788.4"/><line class="cls-3" x1="-556.92" y1="251.88" x2="561.6" y2="251.88"/><line class="cls-3" x1="-551.52" y1="504.13" x2="567" y2="504.13"/><line class="cls-3" y1="-19.44" y2="789.84"/></g><path class="cls-4" d="M18.5,30.34l1.12.2a1.48,1.48,0,0,0,.47,1,1.65,1.65,0,0,0,1.09.33,1.9,1.9,0,0,0,1.21-.36A1.91,1.91,0,0,0,23,30.41a10,10,0,0,0,.1-1.84,2.68,2.68,0,0,1-.84.81,2,2,0,0,1-1,.27,2.47,2.47,0,0,1-2-1,5,5,0,0,1-.93-3.18,6.23,6.23,0,0,1,.41-2.34,3.26,3.26,0,0,1,1.07-1.47,2.51,2.51,0,0,1,1.48-.47,2.05,2.05,0,0,1,1.09.3,2.64,2.64,0,0,1,.88.88v-1h1.07v7.17A8.28,8.28,0,0,1,24,31.25a2.57,2.57,0,0,1-1,1.29,3,3,0,0,1-1.71.48,2.72,2.72,0,0,1-2-.72A2.54,2.54,0,0,1,18.5,30.34Zm.95-5A4.16,4.16,0,0,0,20,27.74a1.59,1.59,0,0,0,1.33.75,1.62,1.62,0,0,0,1.33-.73,4,4,0,0,0,.55-2.35,3.9,3.9,0,0,0-.57-2.33,1.67,1.67,0,0,0-1.37-.76,1.56,1.56,0,0,0-1.26.76A3.86,3.86,0,0,0,19.45,25.35Z"/><path class="cls-4" d="M18.28,279.16l1.15-.21a2.06,2.06,0,0,0,.55,1.3,1.94,1.94,0,0,0,2.36.06,1.23,1.23,0,0,0,.41-.94.93.93,0,0,0-.35-.77,4.64,4.64,0,0,0-1.17-.47,8.28,8.28,0,0,1-1.8-.7,1.93,1.93,0,0,1-.7-.77,2.36,2.36,0,0,1-.25-1.11,2.28,2.28,0,0,1,.68-1.72,2.58,2.58,0,0,1,1.88-.67,3,3,0,0,1,1.33.28,2.06,2.06,0,0,1,.88.73,3.3,3.3,0,0,1,.42,1.32l-1.12.19a1.35,1.35,0,0,0-1.48-1.36,1.76,1.76,0,0,0-1.12.3,1,1,0,0,0-.36.77.85.85,0,0,0,.35.72,6.55,6.55,0,0,0,1.25.5,9.4,9.4,0,0,1,1.85.72,1.89,1.89,0,0,1,.66.74,2.51,2.51,0,0,1,.23,1.1,2.58,2.58,0,0,1-.75,1.93,2.84,2.84,0,0,1-2.06.74C19.49,281.84,18.54,281,18.28,279.16Z"/><path class="cls-4" d="M18.79,533.9v-8.3h1v1.26a3.5,3.5,0,0,1,.73-1.16,1.12,1.12,0,0,1,.74-.29,2,2,0,0,1,1.18.46l-.39,1.3a1.43,1.43,0,0,0-.83-.3,1,1,0,0,0-.67.25,1.39,1.39,0,0,0-.43.72,6.36,6.36,0,0,0-.22,1.71v4.35Z"/><path class="cls-4" d="M198.81,29.65V18.2H200V29.65Z"/><path class="cls-4" d="M198.34,279.16l1.15-.21a2,2,0,0,0,.56,1.3,1.93,1.93,0,0,0,2.35.06,1.19,1.19,0,0,0,.41-.94.9.9,0,0,0-.35-.77,4.64,4.64,0,0,0-1.17-.47,8.28,8.28,0,0,1-1.8-.7,2,2,0,0,1-.7-.77,2.36,2.36,0,0,1-.25-1.11,2.31,2.31,0,0,1,.68-1.72,2.58,2.58,0,0,1,1.88-.67,2.93,2.93,0,0,1,1.33.28,2,2,0,0,1,.88.73,3,3,0,0,1,.42,1.32l-1.12.19a1.35,1.35,0,0,0-1.48-1.36,1.71,1.71,0,0,0-1.11.3.94.94,0,0,0-.37.77.87.87,0,0,0,.35.72,6.55,6.55,0,0,0,1.25.5,9.14,9.14,0,0,1,1.85.72,1.89,1.89,0,0,1,.66.74,2.51,2.51,0,0,1,.23,1.1,2.58,2.58,0,0,1-.75,1.93,2.82,2.82,0,0,1-2.06.74C199.55,281.84,198.6,281,198.34,279.16Z"/><path class="cls-4" d="M198.88,537.09l-.13-1.32a2,2,0,0,0,.66.13,1.11,1.11,0,0,0,.6-.15,1.14,1.14,0,0,0,.4-.46c0-.07.19-.53.45-1.38l-2.59-8.31h1.25l1.42,4.8c.17.6.34,1.24.49,1.92.13-.64.29-1.27.47-1.89l1.45-4.83h1.16L201.93,534a14.54,14.54,0,0,1-.81,2.19,2,2,0,0,1-.66.79,1.53,1.53,0,0,1-.84.25A1.85,1.85,0,0,1,198.88,537.09Z"/><path class="cls-4" d="M378.41,25.5a5,5,0,0,1,.91-3.24,2.91,2.91,0,0,1,4.56,0,4.85,4.85,0,0,1,.91,3.15,5.17,5.17,0,0,1-.9,3.33,2.92,2.92,0,0,1-4.57,0A5,5,0,0,1,378.41,25.5Zm1.18,0a4,4,0,0,0,.59,2.39,1.74,1.74,0,0,0,1.45.79,1.7,1.7,0,0,0,1.4-.79,4,4,0,0,0,.58-2.39,4,4,0,0,0-.59-2.39,1.74,1.74,0,0,0-1.45-.79,1.69,1.69,0,0,0-1.4.79A4.08,4.08,0,0,0,379.59,25.5Z"/><path class="cls-4" d="M383.28,280.62a4,4,0,0,1-1.2.91,3,3,0,0,1-1.3.31,2.28,2.28,0,0,1-1.69-.64,2.34,2.34,0,0,1-.64-1.73,2.62,2.62,0,0,1,.3-1.27,2.27,2.27,0,0,1,.81-.87,4.33,4.33,0,0,1,1.56-.46,9,9,0,0,0,2.07-.49V276a1.84,1.84,0,0,0-.31-1.2,1.67,1.67,0,0,0-1.32-.5,1.83,1.83,0,0,0-1.2.33,2.21,2.21,0,0,0-.59,1.26l-1.13-.19a3.18,3.18,0,0,1,1-2,3.27,3.27,0,0,1,2.11-.61,3,3,0,0,1,1.68.41,1.71,1.71,0,0,1,.77,1,7,7,0,0,1,.16,1.74v1.87a23.12,23.12,0,0,0,.08,2.48,3.58,3.58,0,0,0,.29,1h-1.2A3.63,3.63,0,0,1,383.28,280.62Zm-.09-3.14a7.31,7.31,0,0,1-1.89.54,3.33,3.33,0,0,0-1,.28,1.21,1.21,0,0,0-.45.45,1.37,1.37,0,0,0-.16.68,1.24,1.24,0,0,0,.37.95,1.37,1.37,0,0,0,1,.35,2,2,0,0,0,1.12-.32,2,2,0,0,0,.76-.85,4,4,0,0,0,.25-1.56Z"/><polyline class="cls-3" points="415.8 687.6 415.8 604.8 415.93 522 416.05 513.36 416.18 511.2 415.99 509.04"/><g class="cls-2"><path class="cls-3" d="M414.9,687c0-12.91.49-26-.32-38.88-.32-5-.91-10.17-.47-15.19.32-3.61.35-7.14.35-10.82,0,13.33.26,26.72,0,40,0,2.48-.4,4.84-.49,7.3s0,4.83,0,7.23c0,2.59.56,4.94.42,7.51.27-1.34.69-2.39.93-3.82a51.91,51.91,0,0,0,.44-8.19c-.81,4.3-.45,8.89-.46,13.32a6.58,6.58,0,0,0-.08-1.83,36.31,36.31,0,0,1-.84-6.21c-.05-4.84,0-9.62.38-14.41a65.83,65.83,0,0,0,.12-7.3c-.05-1.59-.42-3.05-.49-4.64-.1-2.48,0-5,0-7.53,0,10.41-.44,20.74-.44,31.16v7.68c0,1.71-.3,4.42.09,6a8,8,0,0,0,.37-3.93q0-6.12,0-12.23c0-4.7,0-9.4,0-14.11a101.47,101.47,0,0,0,.42,13.63,71.43,71.43,0,0,1,.9,9.45c0,1.16,0,2.33,0,3.49,0,2-.6,4.17-.46,6.11.05-1.68,0-3.37,0-5.05,0,2.15,0,4.29,0,6.43,0,1.13-.32,3.38.37,4.13a3.6,3.6,0,0,0-.26-1.5,42.72,42.72,0,0,1-.09-5.66,25,25,0,0,0-.22-5.12c-.24-1.55-.83-3-.71-4.66,0,4.14,1.11,7.78,1.38,11.76.13,1.85,0,3.87,0,5.74"/><path class="cls-3" d="M418.32,686.16c-.95-.19-3.2.42-3.68,1.25a2.21,2.21,0,0,0,2.24.91l8.39-.35q17.79-1.79,35.62-3.2,12.66-.88,25.35-.87c2.66.08,6,0,8.55,1-.08.43-.37.6-.87.52"/><path class="cls-3" d="M473,682.56c7.47-.1,14.92,2,22.43,2.2,6.91.21,13.86,0,20.77,0"/><path class="cls-3" d="M443.16,673.56a35.87,35.87,0,0,1-.38,5.17c-.79-.79,5.36-2.89,4-2.37a33.73,33.73,0,0,1,14.59-2.42c-.28,1-1.88,1.48-2.62,1.78a19.52,19.52,0,0,1-7.18,1.59c-1.44,0-2.88-.07-4.32,0-.88,0-2,.22-2.73-.43.38-.67,4.06-.72,4.42-.76a75,75,0,0,1,8.74-.35c-1,0-2,.06-3,0a29.37,29.37,0,0,1,9.67,1.42c-.92.54-6,.94-6.3,1a38.41,38.41,0,0,1-5,.14,50,50,0,0,1,8.56.31q3.38.68,6.78,1.27.84-.14,1,.51a4.05,4.05,0,0,1-3.33-.59c1.54-.38,4.56.09,6,.19a22.06,22.06,0,0,1,4.8.77c-.57.15-1.35-.14-1.9.34a15.76,15.76,0,0,0,3.47.38c7,1,14.21,1.81,21.29,2.22"/><path class="cls-3" d="M414.49,608.4l-14.17-167s-21.6-322.56-231.84-295.2"/><path class="cls-3" d="M126,356.4a13.51,13.51,0,0,1,6.69-.11l11.78,2.17a351.31,351.31,0,0,0,86.33,10.68l86.66,1.3a192,192,0,0,0,78.47-11.3c7.27-2.58,14.33-6.08,21.67-8.5"/><path class="cls-3" d="M103.68,376.4S259.2,349.2,315.36,378s-79.2.11-79.2.11"/><path class="cls-3" d="M38.38,342c.07-51.89,1-103.39,2.64-155.22Q41.5,171,42,155.3q0-13.68.17-27.36c.09-1.52.41-9.36,2.13-8.7-.13-5,0-10,0-15,0-3,1.22-28.06-.68-29.32-.45,2-1.91,4.68-2.18,6.57-.34,2.35.49,6.4.83,8.61.95,6.29,2.32,12.42,2,19.16C43.71,99.15,45,87.6,45,77.49c0-7,0-14,0-21,0,11.15-.12,22.32,0,33.47-.23-5.18-.88-10.15-.77-15.45.05,3.11,0,5.32.79,8.15,0-2.87.76-13.11-.6-14.29-.26,4,.24,10.47-1.52,13.3-.52-5,.06-10.94-.16-16C42.36,57,40.62,50.5,40,42.24c1.47,3.23,1.37,7.69,2.62,11.13.46-4.33.16-9.51.08-14,.49,3.37.8,7.19,1.57,10.36,0-2.9,0-5.8-.09-8.7.16,4,.39,8.11.81,12.09,0-4,0-7.93,0-11.89C45,47.1,45,53,45,58.85c.11-6.68-.27-13.39-.79-20,.11,4.39,0,8.81,0,13.2,0-2.7,0-5.39,0-8.09.77,2.54.7,7.21.84,10.22-.41-3.12-.61-6.33-.84-9.51q.06,4.16,0,8.32c0-3.45,0-6.89,0-10.34.21,1.62.48,3.22.81,4.76,0-1.86-.76-9.38-.09-11.18.78-2.13,4.17,0,5.91,0"/></g></g></svg>