<svg id="Layer_1" data-name="Layer 1" xmlns="http://www.w3.org/2000/svg" xmlns:xlink="http://www.w3.org/1999/xlink" viewBox="0 0 1080 756"><defs><style>.cls-1,.cls-3{fill:none;}.cls-2{clip-path:url(#clip-path);}.cls-3{stroke:#231f20;stroke-width:0.25px;}.cls-4{fill:#231f20;}</style><clipPath id="clip-path"><rect class="cls-1" width="1080" height="756"/></clipPath></defs><title>Untitled-3</title><g class="cls-2"><g class="cls-2"><line class="cls-3" x1="180" y1="-18.36" x2="180" y2="790.92"/><line class="cls-3" x1="720" y1="-20.88" x2="720" y2="788.4"/><line class="cls-3" x1="359.88" y1="-18.36" x2="359.88" y2="790.92"/><line class="cls-3" x1="899.87" y1="-20.88" x2="899.87" y2="788.4"/><line class="cls-3" x1="-16.92" y1="251.88" x2="1101.6" y2="251.88"/><line class="cls-3" x1="-11.52" y1="504.13" x2="1107" y2="504.13"/><line class="cls-3" x1="540" y1="-19.44" x2="540" y2="789.84"/></g><path class="cls-4" d="M383.28,28.62a4,4,0,0,1-1.2.91,3,3,0,0,1-1.3.31,2.28,2.28,0,0,1-1.69-.64,2.34,2.34,0,0,1-.64-1.73,2.62,2.62,0,0,1,.3-1.27,2.27,2.27,0,0,1,.81-.87,4.33,4.33,0,0,1,1.56-.46,9,9,0,0,0,2.07-.49V24a1.84,1.84,0,0,0-.31-1.2,1.67,1.67,0,0,0-1.32-.5,1.83,1.83,0,0,0-1.2.33,2.21,2.21,0,0,0-.59,1.26l-1.13-.19a3.18,3.18,0,0,1,1-1.95,3.27,3.27,0,0,1,2.11-.61,3,3,0,0,1,1.68.41,1.71,1.71,0,0,1,.77,1,7,7,0,0,1,.16,1.74v1.87a23.12,23.12,0,0,0,.08,2.48,3.58,3.58,0,0,0,.29,1h-1.2A3.63,3.63,0,0,1,383.28,28.62Zm-.09-3.14a7.31,7.31,0,0,1-1.89.54,3.33,3.33,0,0,0-1,.28,1.21,1.21,0,0,0-.45.45,1.37,1.37,0,0,0-.16.68,1.24,1.24,0,0,0,.37.95,1.37,1.37,0,0,0,1,.35,2,2,0,0,0,1.12-.32,2,2,0,0,0,.76-.85,4,4,0,0,0,.25-1.56Z"/><path class="cls-4" d="M386.11,29.65V18.2h1.15V29.65Z"/><path class="cls-4" d="M393.71,27l1.19.18a3.62,3.62,0,0,1-1.08,2,2.82,2.82,0,0,1-1.92.68,2.88,2.88,0,0,1-2.34-1.1,4.89,4.89,0,0,1-.9-3.17,5.13,5.13,0,0,1,.91-3.28,2.8,2.8,0,0,1,2.28-1.13,2.69,2.69,0,0,1,2.2,1.11,5.05,5.05,0,0,1,.89,3.21v.38h-5.08A3.57,3.57,0,0,0,390.5,28a1.77,1.77,0,0,0,1.41.71C392.77,28.68,393.37,28.11,393.71,27Zm-3.79-2.28h3.8a3.21,3.21,0,0,0-.46-1.61,1.69,1.69,0,0,0-1.42-.77,1.72,1.72,0,0,0-1.32.64A2.88,2.88,0,0,0,389.92,24.7Z"/><path class="cls-4" d="M396.36,29.65v-8.3h1v1.26a3.5,3.5,0,0,1,.73-1.16,1.12,1.12,0,0,1,.75-.29,2,2,0,0,1,1.17.46l-.39,1.3a1.43,1.43,0,0,0-.83-.3,1,1,0,0,0-.67.26,1.32,1.32,0,0,0-.43.71,6.36,6.36,0,0,0-.22,1.71v4.35Z"/><path class="cls-4" d="M403.29,28.39l.16,1.24a3.21,3.21,0,0,1-.86.13,1.72,1.72,0,0,1-1-.24,1.21,1.21,0,0,1-.51-.65,6.54,6.54,0,0,1-.13-1.65V22.45h-.85v-1.1H401V19.3l1.14-.85v2.9h1.17v1.1h-1.17V27.3a2.14,2.14,0,0,0,.11.86.56.56,0,0,0,.55.29A2.86,2.86,0,0,0,403.29,28.39Z"/><path class="cls-4" d="M202.87,29.4h-1.16v-9a5.74,5.74,0,0,1-1.07.95,6.55,6.55,0,0,1-1.23.74V20.77a7.25,7.25,0,0,0,1.68-1.33,5.11,5.11,0,0,0,1-1.54h.75Z"/><path class="cls-4" d="M205.82,26.37l1.15-.19c.24,1.5.85,2.26,1.82,2.26a1.77,1.77,0,0,0,1.37-.67,2.55,2.55,0,0,0,.58-1.73,2.36,2.36,0,0,0-.53-1.62,1.68,1.68,0,0,0-1.3-.61,2.66,2.66,0,0,0-.82.16l.14-1.24.18,0a1.82,1.82,0,0,0,1.92-1.92,1.84,1.84,0,0,0-.45-1.29,1.46,1.46,0,0,0-2.21,0,2.7,2.7,0,0,0-.58,1.55l-1.15-.25a3.76,3.76,0,0,1,1-2.22,2.66,2.66,0,0,1,3.79.09,3,3,0,0,1,.8,2.13,2.72,2.72,0,0,1-.34,1.38,2.5,2.5,0,0,1-.94.94,2.13,2.13,0,0,1,.92.52,2.53,2.53,0,0,1,.59,1A3.8,3.8,0,0,1,212,26a3.65,3.65,0,0,1-.93,2.58,2.92,2.92,0,0,1-2.23,1,2.73,2.73,0,0,1-2-.87A3.76,3.76,0,0,1,205.82,26.37Z"/><path class="cls-4" d="M213.12,23.75a9.83,9.83,0,0,1,.77-4.37,2.48,2.48,0,0,1,2.3-1.48,2.39,2.39,0,0,1,2.11,1.2,8.79,8.79,0,0,1,.94,4.65,9.84,9.84,0,0,1-.77,4.36,2.47,2.47,0,0,1-2.3,1.48,2.54,2.54,0,0,1-2.2-1.31A8.74,8.74,0,0,1,213.12,23.75Zm1.18,0a8.81,8.81,0,0,0,.53,3.74,1.59,1.59,0,0,0,1.38,1,1.55,1.55,0,0,0,1.32-1,8.85,8.85,0,0,0,.53-3.73,8.8,8.8,0,0,0-.53-3.75,1.59,1.59,0,0,0-1.39-.95,1.53,1.53,0,0,0-1.31,1A8.62,8.62,0,0,0,214.3,23.75Z"/><path class="cls-4" d="M563.38,28.62a4.14,4.14,0,0,1-1.21.91,3,3,0,0,1-1.29.31,2.31,2.31,0,0,1-1.7-.64,2.37,2.37,0,0,1-.63-1.73,2.73,2.73,0,0,1,.29-1.27,2.22,2.22,0,0,1,.82-.87,4.2,4.2,0,0,1,1.56-.46,8.87,8.87,0,0,0,2.06-.49V24a1.78,1.78,0,0,0-.31-1.2,1.64,1.64,0,0,0-1.32-.5,1.87,1.87,0,0,0-1.2.33,2.21,2.21,0,0,0-.58,1.26l-1.14-.19a3.18,3.18,0,0,1,1-1.95,3.29,3.29,0,0,1,2.12-.61,3,3,0,0,1,1.68.41,1.75,1.75,0,0,1,.77,1,7.53,7.53,0,0,1,.16,1.74v1.87a24.27,24.27,0,0,0,.07,2.48,3.94,3.94,0,0,0,.29,1h-1.2A3.33,3.33,0,0,1,563.38,28.62Zm-.1-3.14a7.34,7.34,0,0,1-1.88.54,3.42,3.42,0,0,0-1,.28,1.21,1.21,0,0,0-.45.45,1.48,1.48,0,0,0-.16.68,1.28,1.28,0,0,0,.37.95,1.39,1.39,0,0,0,1,.35A2,2,0,0,0,563,27.56a3.78,3.78,0,0,0,.25-1.56Z"/><path class="cls-4" d="M569.89,32.83V21.35H571v1.08a2.7,2.7,0,0,1,.87-1,2,2,0,0,1,1.09-.3,2.36,2.36,0,0,1,1.45.48,3.26,3.26,0,0,1,1,1.45,6.09,6.09,0,0,1,.4,2.34,5.23,5.23,0,0,1-.89,3.26,2.61,2.61,0,0,1-2.08,1.15,1.81,1.81,0,0,1-1-.28,2.44,2.44,0,0,1-.8-.77v4Zm1.05-7.28a4.15,4.15,0,0,0,.54,2.37,1.46,1.46,0,0,0,2.58,0,4.29,4.29,0,0,0,.56-2.44,4.26,4.26,0,0,0-.54-2.4,1.42,1.42,0,0,0-2.57.06A4.33,4.33,0,0,0,570.94,25.55Z"/><path class="cls-4" d="M576.75,25.5a5,5,0,0,1,.9-3.24,2.91,2.91,0,0,1,4.56,0,4.79,4.79,0,0,1,.91,3.15,5.17,5.17,0,0,1-.89,3.33,2.92,2.92,0,0,1-4.57,0A5,5,0,0,1,576.75,25.5Zm1.18,0a3.92,3.92,0,0,0,.59,2.39,1.74,1.74,0,0,0,1.45.79,1.67,1.67,0,0,0,1.39-.79A4,4,0,0,0,582,25.5a4,4,0,0,0-.59-2.39,1.75,1.75,0,0,0-1.45-.79,1.68,1.68,0,0,0-1.4.79A4,4,0,0,0,577.93,25.5Z"/><path class="cls-4" d="M584.48,29.65v-8.3h1v1.26a3.67,3.67,0,0,1,.73-1.16,1.14,1.14,0,0,1,.75-.29,2,2,0,0,1,1.18.46l-.39,1.3a1.49,1.49,0,0,0-.84-.3,1,1,0,0,0-.67.26,1.38,1.38,0,0,0-.43.71,6.79,6.79,0,0,0-.22,1.71v4.35Z"/><path class="cls-4" d="M591.41,28.39l.16,1.24a3.15,3.15,0,0,1-.86.13,1.76,1.76,0,0,1-1-.24,1.24,1.24,0,0,1-.5-.65,6.39,6.39,0,0,1-.14-1.65V22.45h-.84v-1.1h.84V19.3l1.15-.85v2.9h1.16v1.1h-1.16V27.3a2.2,2.2,0,0,0,.1.86.58.58,0,0,0,.56.29A2.67,2.67,0,0,0,591.41,28.39Z"/><path class="cls-4" d="M596.93,28.62a4.23,4.23,0,0,1-1.2.91,3,3,0,0,1-1.3.31,2.32,2.32,0,0,1-1.7-.64,2.37,2.37,0,0,1-.63-1.73,2.62,2.62,0,0,1,.3-1.27,2.27,2.27,0,0,1,.81-.87,4.27,4.27,0,0,1,1.56-.46,9,9,0,0,0,2.07-.49V24a1.85,1.85,0,0,0-.3-1.2,1.67,1.67,0,0,0-1.32-.5,1.83,1.83,0,0,0-1.2.33,2.15,2.15,0,0,0-.59,1.26l-1.13-.19a3.18,3.18,0,0,1,1-1.95,3.26,3.26,0,0,1,2.11-.61,3,3,0,0,1,1.68.41,1.71,1.71,0,0,1,.77,1A7,7,0,0,1,598,24.3v1.87a24.27,24.27,0,0,0,.07,2.48,3.6,3.6,0,0,0,.3,1h-1.21A3.64,3.64,0,0,1,596.93,28.62Zm-.09-3.14A7.44,7.44,0,0,1,595,26a3.33,3.33,0,0,0-1,.28,1.15,1.15,0,0,0-.45.45,1.37,1.37,0,0,0-.16.68,1.24,1.24,0,0,0,.37.95,1.37,1.37,0,0,0,1,.35,2,2,0,0,0,1.12-.32,2,2,0,0,0,.76-.85,4,4,0,0,0,.25-1.56Z"/><path class="cls-4" d="M599.76,29.65V18.2h1.15V29.65Z"/><path class="cls-4" d="M608.92,28.39l.16,1.24a3.21,3.21,0,0,1-.86.13,1.76,1.76,0,0,1-1-.24,1.19,1.19,0,0,1-.5-.65,6.39,6.39,0,0,1-.14-1.65V22.45h-.84v-1.1h.84V19.3l1.15-.85v2.9h1.16v1.1h-1.16V27.3a2.2,2.2,0,0,0,.1.86.56.56,0,0,0,.55.29A2.86,2.86,0,0,0,608.92,28.39Z"/><path class="cls-4" d="M609.57,25.5a5,5,0,0,1,.9-3.24,2.91,2.91,0,0,1,4.56,0,4.79,4.79,0,0,1,.92,3.15,5.17,5.17,0,0,1-.9,3.33,2.92,2.92,0,0,1-4.57,0A5,5,0,0,1,609.57,25.5Zm1.18,0a4,4,0,0,0,.59,2.39,1.74,1.74,0,0,0,1.45.79,1.67,1.67,0,0,0,1.39-.79,4,4,0,0,0,.59-2.39,4,4,0,0,0-.59-2.39,1.75,1.75,0,0,0-1.45-.79,1.68,1.68,0,0,0-1.4.79A4,4,0,0,0,610.75,25.5Z"/><path class="cls-4" d="M625.38,28.62a4,4,0,0,1-1.2.91,3,3,0,0,1-1.3.31,2.28,2.28,0,0,1-1.69-.64,2.38,2.38,0,0,1-.64-1.73,2.62,2.62,0,0,1,.3-1.27,2.27,2.27,0,0,1,.81-.87,4.33,4.33,0,0,1,1.57-.46,9,9,0,0,0,2.06-.49V24a1.78,1.78,0,0,0-.31-1.2,1.64,1.64,0,0,0-1.32-.5,1.85,1.85,0,0,0-1.2.33,2.21,2.21,0,0,0-.59,1.26l-1.13-.19a3.18,3.18,0,0,1,1-1.95,3.27,3.27,0,0,1,2.11-.61,3,3,0,0,1,1.68.41,1.67,1.67,0,0,1,.77,1,7,7,0,0,1,.16,1.74v1.87a23.12,23.12,0,0,0,.08,2.48,3.58,3.58,0,0,0,.29,1h-1.2A3.63,3.63,0,0,1,625.38,28.62Zm-.09-3.14a7.34,7.34,0,0,1-1.88.54,3.33,3.33,0,0,0-1,.28,1.21,1.21,0,0,0-.45.45,1.37,1.37,0,0,0-.16.68,1.24,1.24,0,0,0,.37.95,1.37,1.37,0,0,0,1,.35A2,2,0,0,0,625,27.56a3.78,3.78,0,0,0,.25-1.56Z"/><path class="cls-4" d="M628.25,29.65v-8.3h1v1.17a2.7,2.7,0,0,1,.92-1,2.33,2.33,0,0,1,1.24-.34,2.44,2.44,0,0,1,1,.22,2.05,2.05,0,0,1,.75.56,2.21,2.21,0,0,1,.42.9,7.23,7.23,0,0,1,.14,1.71v5.1h-1.15v-5a4.34,4.34,0,0,0-.15-1.34,1.36,1.36,0,0,0-.49-.65,1.27,1.27,0,0,0-.77-.23,1.6,1.6,0,0,0-1.32.61,3.46,3.46,0,0,0-.49,2.12v4.54Z"/><path class="cls-4" d="M635.11,25.5a5,5,0,0,1,.9-3.24,2.91,2.91,0,0,1,4.56,0,4.79,4.79,0,0,1,.91,3.15,5.23,5.23,0,0,1-.89,3.33,2.92,2.92,0,0,1-4.57,0A5,5,0,0,1,635.11,25.5Zm1.18,0a3.92,3.92,0,0,0,.59,2.39,1.74,1.74,0,0,0,1.45.79,1.69,1.69,0,0,0,1.39-.79,4,4,0,0,0,.58-2.39,4,4,0,0,0-.58-2.39,1.75,1.75,0,0,0-1.45-.79,1.68,1.68,0,0,0-1.4.79A4,4,0,0,0,636.29,25.5Z"/><path class="cls-4" d="M645.41,28.39l.15,1.24a3.1,3.1,0,0,1-.86.13,1.76,1.76,0,0,1-1-.24,1.24,1.24,0,0,1-.5-.65,6.39,6.39,0,0,1-.14-1.65V22.45h-.84v-1.1h.84V19.3l1.15-.85v2.9h1.17v1.1h-1.17V27.3a2.42,2.42,0,0,0,.1.86.58.58,0,0,0,.56.29A2.86,2.86,0,0,0,645.41,28.39Z"/><path class="cls-4" d="M646.49,29.65V18.2h1.15v4.1a2.82,2.82,0,0,1,.92-.85,2.29,2.29,0,0,1,1.13-.29,2.17,2.17,0,0,1,1.71.7,3.8,3.8,0,0,1,.63,2.53v5.26h-1.15V24.39a2.52,2.52,0,0,0-.38-1.55,1.28,1.28,0,0,0-1-.46,1.64,1.64,0,0,0-1.28.6,3.28,3.28,0,0,0-.53,2.13v4.54Z"/><path class="cls-4" d="M658.44,27l1.18.18a3.55,3.55,0,0,1-1.07,2,3,3,0,0,1-4.26-.42,4.89,4.89,0,0,1-.9-3.17,5.19,5.19,0,0,1,.9-3.28,2.82,2.82,0,0,1,2.29-1.13,2.71,2.71,0,0,1,2.2,1.11,5.05,5.05,0,0,1,.88,3.21v.38h-5.08a3.5,3.5,0,0,0,.65,2.11,1.75,1.75,0,0,0,1.4.71C657.5,28.68,658.1,28.11,658.44,27Zm-3.79-2.28h3.8a3.2,3.2,0,0,0-.47-1.61,1.68,1.68,0,0,0-2.73-.13A2.82,2.82,0,0,0,654.65,24.7Z"/><path class="cls-4" d="M661.09,29.65v-8.3h1v1.26a3.49,3.49,0,0,1,.74-1.16,1.12,1.12,0,0,1,.74-.29,2,2,0,0,1,1.18.46l-.39,1.3a1.46,1.46,0,0,0-.84-.3,1,1,0,0,0-.67.26,1.45,1.45,0,0,0-.43.71,6.79,6.79,0,0,0-.22,1.71v4.35Z"/><path class="cls-4" d="M560.2,46.65l-2.09-8.3h1.19l1.08,4.79.41,1.78.35-1.71,1.08-4.86h1.2l1,4.81.34,1.59.39-1.6,1.16-4.8h1.13l-2.13,8.3h-1.2l-1.08-5-.26-1.41-1.38,6.38Z"/><path class="cls-4" d="M568,42.5a5,5,0,0,1,.9-3.24,2.91,2.91,0,0,1,4.56,0,4.79,4.79,0,0,1,.91,3.15,5.17,5.17,0,0,1-.9,3.33,2.91,2.91,0,0,1-4.56,0A5,5,0,0,1,568,42.5Zm1.18,0a4,4,0,0,0,.58,2.39,1.75,1.75,0,0,0,1.46.79,1.69,1.69,0,0,0,1.39-.79,4,4,0,0,0,.58-2.39,4,4,0,0,0-.58-2.39,1.75,1.75,0,0,0-1.46-.79,1.7,1.7,0,0,0-1.4.79A4.09,4.09,0,0,0,569.16,42.5Z"/><path class="cls-4" d="M575.71,46.65v-8.3h1v1.26a3.67,3.67,0,0,1,.73-1.16,1.12,1.12,0,0,1,.75-.29,2,2,0,0,1,1.18.46l-.39,1.3a1.49,1.49,0,0,0-.84-.3,1,1,0,0,0-.67.26,1.32,1.32,0,0,0-.43.71,6.36,6.36,0,0,0-.22,1.71v4.35Z"/><path class="cls-4" d="M580,46.65V35.2h1.15V46.65Z"/><path class="cls-4" d="M587.4,46.65v-1a2.36,2.36,0,0,1-.81.92,1.91,1.91,0,0,1-1.06.32,2.58,2.58,0,0,1-2.08-1.14,5.1,5.1,0,0,1-.88-3.2,6.56,6.56,0,0,1,.39-2.4,3.29,3.29,0,0,1,1-1.46,2.4,2.4,0,0,1,1.45-.48,1.94,1.94,0,0,1,1,.3,2.51,2.51,0,0,1,.81.84V35.2h1.17V46.65Zm-3.65-4.14a4.15,4.15,0,0,0,.56,2.39,1.6,1.6,0,0,0,1.3.78,1.53,1.53,0,0,0,1.27-.75,3.9,3.9,0,0,0,.54-2.27,4.66,4.66,0,0,0-.54-2.54,1.59,1.59,0,0,0-1.36-.8,1.52,1.52,0,0,0-1.25.77A4.37,4.37,0,0,0,583.75,42.51Z"/><path class="cls-4" d="M590.94,43.8l-.35-6.07V35.2H592v2.53l-.33,6.07Zm-.29,2.85v-1.6H592v1.6Z"/><path class="cls-4" d="M558,533.65l3.63-11.45h1.33l3.84,11.45h-1.42l-1.09-3.47h-3.95l-1,3.47Zm2.7-4.7h3.2l-1-3.18q-.45-1.46-.66-2.37a15.8,15.8,0,0,1-.52,2.19Z"/><path class="cls-4" d="M570.55,533.65v-8.3h1v1.16a2.71,2.71,0,0,1,.89-1,2.14,2.14,0,0,1,1.17-.35,1.86,1.86,0,0,1,1.92,1.45,3.16,3.16,0,0,1,.94-1.08,2,2,0,0,1,1.17-.37,1.94,1.94,0,0,1,1.55.67,3.28,3.28,0,0,1,.56,2.12v5.7h-1.15v-5.23a4.19,4.19,0,0,0-.13-1.27,1.11,1.11,0,0,0-1.07-.77,1.48,1.48,0,0,0-1.22.59,3,3,0,0,0-.47,1.85v4.83h-1.15v-5.4a2.49,2.49,0,0,0-.31-1.45,1,1,0,0,0-.87-.42,1.45,1.45,0,0,0-1.25.63,4.2,4.2,0,0,0-.46,2.33v4.31Z"/><path class="cls-4" d="M586.12,531l1.19.18a3.61,3.61,0,0,1-1.07,2,2.84,2.84,0,0,1-1.93.68,2.89,2.89,0,0,1-2.34-1.1,5,5,0,0,1-.89-3.17,5.19,5.19,0,0,1,.9-3.28,2.8,2.8,0,0,1,2.28-1.13,2.72,2.72,0,0,1,2.21,1.11,5.05,5.05,0,0,1,.88,3.21v.38h-5.08a3.64,3.64,0,0,0,.65,2.11,1.78,1.78,0,0,0,1.41.71C585.18,532.68,585.79,532.11,586.12,531Zm-3.79-2.28h3.8a3.11,3.11,0,0,0-.46-1.61,1.68,1.68,0,0,0-2.73-.13A2.82,2.82,0,0,0,582.33,528.7Z"/><path class="cls-4" d="M588.33,531.16l1.15-.21a2,2,0,0,0,.55,1.3,1.94,1.94,0,0,0,2.36.06,1.23,1.23,0,0,0,.41-.94.91.91,0,0,0-.36-.77,4.64,4.64,0,0,0-1.17-.47,8.35,8.35,0,0,1-1.79-.7,2,2,0,0,1-.71-.77,2.48,2.48,0,0,1-.25-1.11,2.31,2.31,0,0,1,.68-1.72,2.6,2.6,0,0,1,1.88-.67,3,3,0,0,1,1.34.28,2.13,2.13,0,0,1,.88.73,3.3,3.3,0,0,1,.42,1.32l-1.13.19a1.34,1.34,0,0,0-1.47-1.36,1.74,1.74,0,0,0-1.12.3.94.94,0,0,0-.37.77.87.87,0,0,0,.35.72,6.46,6.46,0,0,0,1.26.5,9.4,9.4,0,0,1,1.85.72,1.8,1.8,0,0,1,.65.74,2.38,2.38,0,0,1,.24,1.1,2.58,2.58,0,0,1-.76,1.93,2.82,2.82,0,0,1-2.06.74C589.53,533.84,588.59,533,588.33,531.16Z"/><path class="cls-4" d="M594.89,531.16,596,531a2.06,2.06,0,0,0,.55,1.3,1.94,1.94,0,0,0,2.36.06,1.23,1.23,0,0,0,.41-.94.93.93,0,0,0-.35-.77,4.59,4.59,0,0,0-1.18-.47,8.35,8.35,0,0,1-1.79-.7,2,2,0,0,1-.71-.77,2.48,2.48,0,0,1-.25-1.11,2.31,2.31,0,0,1,.68-1.72,2.63,2.63,0,0,1,1.89-.67,3,3,0,0,1,1.33.28,2.06,2.06,0,0,1,.88.73,3.3,3.3,0,0,1,.42,1.32l-1.12.19a1.35,1.35,0,0,0-1.48-1.36,1.76,1.76,0,0,0-1.12.3,1,1,0,0,0-.37.77.86.86,0,0,0,.36.72,6.25,6.25,0,0,0,1.25.5,9.4,9.4,0,0,1,1.85.72,1.8,1.8,0,0,1,.65.74,2.38,2.38,0,0,1,.24,1.1,2.55,2.55,0,0,1-.76,1.93,2.8,2.8,0,0,1-2,.74C596.1,533.84,595.15,533,594.89,531.16Z"/><path class="cls-4" d="M606.33,532.62a4.14,4.14,0,0,1-1.21.91,2.92,2.92,0,0,1-1.29.31,2.31,2.31,0,0,1-1.7-.64,2.37,2.37,0,0,1-.63-1.73,2.62,2.62,0,0,1,.3-1.27,2.13,2.13,0,0,1,.81-.87,4.2,4.2,0,0,1,1.56-.46,8.74,8.74,0,0,0,2.06-.49V528a1.85,1.85,0,0,0-.3-1.2,1.67,1.67,0,0,0-1.32-.5,1.88,1.88,0,0,0-1.21.33,2.21,2.21,0,0,0-.58,1.26l-1.14-.19a3.23,3.23,0,0,1,1-2,3.3,3.3,0,0,1,2.12-.61,3,3,0,0,1,1.68.41,1.75,1.75,0,0,1,.77,1,7.53,7.53,0,0,1,.16,1.74v1.87a24.27,24.27,0,0,0,.07,2.48,3.94,3.94,0,0,0,.29,1h-1.2A3.33,3.33,0,0,1,606.33,532.62Zm-.1-3.14a7.34,7.34,0,0,1-1.88.54,3.51,3.51,0,0,0-1,.28,1.12,1.12,0,0,0-.44.45,1.37,1.37,0,0,0-.16.68,1.27,1.27,0,0,0,.36,1,1.41,1.41,0,0,0,1,.35,2,2,0,0,0,1.12-.32,1.87,1.87,0,0,0,.75-.85,3.78,3.78,0,0,0,.25-1.56Z"/><path class="cls-4" d="M609,534.34l1.12.2a1.43,1.43,0,0,0,.47,1,1.63,1.63,0,0,0,1.09.33,1.87,1.87,0,0,0,1.2-.36,1.92,1.92,0,0,0,.62-1.09,10,10,0,0,0,.1-1.84,2.68,2.68,0,0,1-.84.81,2.07,2.07,0,0,1-1,.27,2.49,2.49,0,0,1-2-1,5.07,5.07,0,0,1-.92-3.18,6.23,6.23,0,0,1,.41-2.34,3.24,3.24,0,0,1,1.06-1.47,2.53,2.53,0,0,1,1.48-.47,2.06,2.06,0,0,1,1.1.3,2.73,2.73,0,0,1,.88.88v-1h1.06v7.17a8.35,8.35,0,0,1-.31,2.73,2.62,2.62,0,0,1-1,1.29,3,3,0,0,1-1.71.48,2.72,2.72,0,0,1-2-.72A2.54,2.54,0,0,1,609,534.34Zm.95-5a4.16,4.16,0,0,0,.54,2.39,1.59,1.59,0,0,0,1.32.75,1.62,1.62,0,0,0,1.34-.73,4,4,0,0,0,.54-2.35,3.91,3.91,0,0,0-.56-2.33,1.68,1.68,0,0,0-1.37-.76,1.59,1.59,0,0,0-1.27.76A3.94,3.94,0,0,0,609.92,529.35Z"/><path class="cls-4" d="M621.14,531l1.19.18a3.62,3.62,0,0,1-1.08,2,2.83,2.83,0,0,1-1.92.68,2.86,2.86,0,0,1-2.34-1.1,4.89,4.89,0,0,1-.9-3.17,5.13,5.13,0,0,1,.91-3.28,2.8,2.8,0,0,1,2.28-1.13,2.71,2.71,0,0,1,2.2,1.11,5.05,5.05,0,0,1,.89,3.21v.38h-5.08a3.57,3.57,0,0,0,.65,2.11,1.75,1.75,0,0,0,1.4.71C620.2,532.68,620.8,532.11,621.14,531Zm-3.79-2.28h3.8a3.21,3.21,0,0,0-.46-1.61,1.69,1.69,0,0,0-1.42-.77A1.72,1.72,0,0,0,618,527,2.88,2.88,0,0,0,617.35,528.7Z"/><path class="cls-4" d="M627.76,533.65v-7.2h-1v-1.1h1v-.88A4.2,4.2,0,0,1,628,523a1.56,1.56,0,0,1,.62-.74,2,2,0,0,1,1.06-.26,4.37,4.37,0,0,1,1.08.15l-.17,1.22a3.39,3.39,0,0,0-.68-.08.9.9,0,0,0-.74.27,1.69,1.69,0,0,0-.22,1v.76h1.32v1.1h-1.32v7.2Z"/><path class="cls-4" d="M631.08,533.65v-8.3h1v1.26a3.67,3.67,0,0,1,.73-1.16,1.14,1.14,0,0,1,.75-.29,2,2,0,0,1,1.18.46l-.39,1.3a1.49,1.49,0,0,0-.84-.3,1,1,0,0,0-.67.26,1.45,1.45,0,0,0-.43.71,6.79,6.79,0,0,0-.22,1.71v4.35Z"/><path class="cls-4" d="M635,529.5a5,5,0,0,1,.91-3.24,2.91,2.91,0,0,1,4.56,0,4.85,4.85,0,0,1,.91,3.15,5.17,5.17,0,0,1-.9,3.33,2.92,2.92,0,0,1-4.57,0A5,5,0,0,1,635,529.5Zm1.18,0a4,4,0,0,0,.59,2.39,1.75,1.75,0,0,0,1.45.79,1.69,1.69,0,0,0,1.4-.79,4,4,0,0,0,.58-2.39,4,4,0,0,0-.59-2.39,1.74,1.74,0,0,0-1.45-.79,1.69,1.69,0,0,0-1.4.79A4.08,4.08,0,0,0,636.19,529.5Z"/><path class="cls-4" d="M642.76,533.65v-8.3h1v1.16a2.69,2.69,0,0,1,.88-1,2.15,2.15,0,0,1,1.18-.35,2,2,0,0,1,1.21.37,2,2,0,0,1,.71,1.08,3.14,3.14,0,0,1,.93-1.08,2,2,0,0,1,1.18-.37,1.93,1.93,0,0,1,1.54.67A3.28,3.28,0,0,1,652,528v5.7h-1.15v-5.23a4.65,4.65,0,0,0-.12-1.27,1.17,1.17,0,0,0-.42-.57,1.12,1.12,0,0,0-.66-.2,1.46,1.46,0,0,0-1.21.59,2.91,2.91,0,0,0-.48,1.85v4.83H646.8v-5.4a2.48,2.48,0,0,0-.32-1.45,1,1,0,0,0-.87-.42,1.47,1.47,0,0,0-1.25.63,4.31,4.31,0,0,0-.45,2.33v4.31Z"/><path class="cls-4" d="M661.76,532.62a4.14,4.14,0,0,1-1.21.91,2.92,2.92,0,0,1-1.29.31,2.31,2.31,0,0,1-1.7-.64,2.37,2.37,0,0,1-.63-1.73,2.62,2.62,0,0,1,.3-1.27,2.13,2.13,0,0,1,.81-.87,4.2,4.2,0,0,1,1.56-.46,8.74,8.74,0,0,0,2.06-.49V528a1.85,1.85,0,0,0-.3-1.2,1.67,1.67,0,0,0-1.32-.5,1.88,1.88,0,0,0-1.21.33,2.21,2.21,0,0,0-.58,1.26l-1.14-.19a3.23,3.23,0,0,1,1-2,3.3,3.3,0,0,1,2.12-.61,3,3,0,0,1,1.68.41,1.75,1.75,0,0,1,.77,1,7.53,7.53,0,0,1,.16,1.74v1.87a24.27,24.27,0,0,0,.07,2.48,3.94,3.94,0,0,0,.29,1H662A3.33,3.33,0,0,1,661.76,532.62Zm-.1-3.14a7.34,7.34,0,0,1-1.88.54,3.51,3.51,0,0,0-1,.28,1.12,1.12,0,0,0-.44.45,1.37,1.37,0,0,0-.16.68,1.27,1.27,0,0,0,.36,1,1.41,1.41,0,0,0,1,.35,2,2,0,0,0,1.12-.32,1.87,1.87,0,0,0,.75-.85,3.78,3.78,0,0,0,.25-1.56Z"/><path class="cls-4" d="M664.94,533.65v-7.2h-1v-1.1h1v-.88a3.94,3.94,0,0,1,.21-1.47,1.51,1.51,0,0,1,.62-.74,2,2,0,0,1,1.05-.26,4.51,4.51,0,0,1,1.09.15l-.18,1.22a3.31,3.31,0,0,0-.68-.08.88.88,0,0,0-.73.27,1.67,1.67,0,0,0-.23,1v.76h1.33v1.1h-1.33v7.2Z"/><path class="cls-4" d="M672.7,532.62a4,4,0,0,1-1.2.91,3,3,0,0,1-1.3.31,2.28,2.28,0,0,1-1.69-.64,2.34,2.34,0,0,1-.64-1.73,2.62,2.62,0,0,1,.3-1.27,2.27,2.27,0,0,1,.81-.87,4.33,4.33,0,0,1,1.57-.46,9,9,0,0,0,2.06-.49V528a1.84,1.84,0,0,0-.31-1.2,1.65,1.65,0,0,0-1.32-.5,1.85,1.85,0,0,0-1.2.33,2.21,2.21,0,0,0-.59,1.26l-1.13-.19a3.18,3.18,0,0,1,1-2,3.27,3.27,0,0,1,2.11-.61,3,3,0,0,1,1.68.41,1.67,1.67,0,0,1,.77,1,7,7,0,0,1,.16,1.74v1.87a23.12,23.12,0,0,0,.08,2.48,3.58,3.58,0,0,0,.29,1h-1.2A3.63,3.63,0,0,1,672.7,532.62Zm-.09-3.14a7.34,7.34,0,0,1-1.88.54,3.33,3.33,0,0,0-1,.28,1.21,1.21,0,0,0-.45.45,1.37,1.37,0,0,0-.16.68,1.24,1.24,0,0,0,.37,1,1.37,1.37,0,0,0,1,.35,2,2,0,0,0,1.12-.32,2,2,0,0,0,.76-.85,3.78,3.78,0,0,0,.25-1.56Z"/><path class="cls-4" d="M675.57,533.65v-8.3h1v1.26a3.5,3.5,0,0,1,.73-1.16,1.12,1.12,0,0,1,.74-.29,2,2,0,0,1,1.18.46l-.39,1.3a1.43,1.43,0,0,0-.83-.3,1,1,0,0,0-.67.26,1.32,1.32,0,0,0-.43.71,6.36,6.36,0,0,0-.22,1.71v4.35Z"/><path class="cls-4" d="M679.58,533.65v-1.6h1.32v1.6a3.13,3.13,0,0,1-.28,1.46,1.8,1.8,0,0,1-.79.8l-.32-.6a1.2,1.2,0,0,0,.53-.56,2.72,2.72,0,0,0,.19-1.1Z"/><path class="cls-4" d="M559.17,550.65v-7.2h-1v-1.1h1v-.88a3.94,3.94,0,0,1,.21-1.47,1.51,1.51,0,0,1,.62-.74,2,2,0,0,1,1-.26,4.37,4.37,0,0,1,1.08.15l-.17,1.22a3.31,3.31,0,0,0-.68-.08.92.92,0,0,0-.74.27,1.69,1.69,0,0,0-.22,1v.76h1.33v1.1h-1.33v7.2Z"/><path class="cls-4" d="M562.5,550.65v-8.3h1v1.26a3.5,3.5,0,0,1,.73-1.16,1.12,1.12,0,0,1,.75-.29,2,2,0,0,1,1.18.46l-.4,1.3a1.43,1.43,0,0,0-.83-.3,1,1,0,0,0-.67.26,1.32,1.32,0,0,0-.43.71,6.36,6.36,0,0,0-.22,1.71v4.35Z"/><path class="cls-4" d="M566.43,546.5a5,5,0,0,1,.9-3.24,2.91,2.91,0,0,1,4.56,0,4.79,4.79,0,0,1,.91,3.15,5.23,5.23,0,0,1-.89,3.33,2.92,2.92,0,0,1-4.57,0A5,5,0,0,1,566.43,546.5Zm1.18,0a3.92,3.92,0,0,0,.59,2.39,1.74,1.74,0,0,0,1.45.79,1.67,1.67,0,0,0,1.39-.79,4,4,0,0,0,.58-2.39,4,4,0,0,0-.58-2.39,1.75,1.75,0,0,0-1.45-.79,1.68,1.68,0,0,0-1.4.79A4,4,0,0,0,567.61,546.5Z"/><path class="cls-4" d="M574.17,550.65v-8.3h1v1.16a2.78,2.78,0,0,1,.88-1,2.17,2.17,0,0,1,1.18-.35,2,2,0,0,1,1.21.37,2,2,0,0,1,.71,1.08,3.06,3.06,0,0,1,.94-1.08,2,2,0,0,1,1.17-.37,1.92,1.92,0,0,1,1.54.67,3.22,3.22,0,0,1,.57,2.12v5.7h-1.15v-5.23a4.19,4.19,0,0,0-.13-1.27,1.17,1.17,0,0,0-.42-.57,1.07,1.07,0,0,0-.65-.2,1.47,1.47,0,0,0-1.22.59,3,3,0,0,0-.47,1.85v4.83h-1.15v-5.4a2.41,2.41,0,0,0-.32-1.45,1,1,0,0,0-.87-.42,1.45,1.45,0,0,0-1.24.63,4.2,4.2,0,0,0-.46,2.33v4.31Z"/><path class="cls-4" d="M593.2,550.65v-1.22a3,3,0,0,1-.94,1.05,2.16,2.16,0,0,1-1.22.36,2.21,2.21,0,0,1-1.38-.44,2.06,2.06,0,0,1-.76-1.1,6.66,6.66,0,0,1-.19-1.81v-5.14h1.15V547a7.06,7.06,0,0,0,.13,1.72,1.25,1.25,0,0,0,.47.69,1.28,1.28,0,0,0,.8.26,1.66,1.66,0,0,0,1.36-.67,3.73,3.73,0,0,0,.45-2.15v-4.45h1.16v8.3Z"/><path class="cls-4" d="M596,550.65v-8.3h1v1.17a2.76,2.76,0,0,1,.91-1,2.39,2.39,0,0,1,1.25-.34,2.44,2.44,0,0,1,1,.22,2.05,2.05,0,0,1,.75.56,2.21,2.21,0,0,1,.42.9,7.23,7.23,0,0,1,.14,1.71v5.1h-1.15v-5a4.34,4.34,0,0,0-.15-1.34,1.36,1.36,0,0,0-.49-.65,1.27,1.27,0,0,0-.77-.23,1.6,1.6,0,0,0-1.32.61,3.46,3.46,0,0,0-.49,2.12v4.54Z"/><path class="cls-4" d="M603.36,550.65V539.2h1.15v6.54l2.74-3.39h1.49l-2.6,3.08,2.86,5.22h-1.42l-2.26-4.25-.81,1v3.29Z"/><path class="cls-4" d="M609.9,550.65v-8.3h1v1.17a2.76,2.76,0,0,1,.91-1,2.36,2.36,0,0,1,1.25-.34,2.44,2.44,0,0,1,1,.22,2.05,2.05,0,0,1,.75.56,2.21,2.21,0,0,1,.42.9,7.23,7.23,0,0,1,.14,1.71v5.1h-1.15v-5a4.34,4.34,0,0,0-.15-1.34,1.36,1.36,0,0,0-.49-.65,1.27,1.27,0,0,0-.77-.23,1.6,1.6,0,0,0-1.32.61,3.46,3.46,0,0,0-.49,2.12v4.54Z"/><path class="cls-4" d="M616.76,546.5a5,5,0,0,1,.9-3.24,2.91,2.91,0,0,1,4.56,0,4.79,4.79,0,0,1,.91,3.15,5.17,5.17,0,0,1-.9,3.33,2.91,2.91,0,0,1-4.56,0A5,5,0,0,1,616.76,546.5Zm1.18,0a4,4,0,0,0,.58,2.39,1.75,1.75,0,0,0,1.46.79,1.69,1.69,0,0,0,1.39-.79,4,4,0,0,0,.58-2.39,4,4,0,0,0-.58-2.39,1.75,1.75,0,0,0-1.46-.79,1.67,1.67,0,0,0-1.39.79A4,4,0,0,0,617.94,546.5Z"/><path class="cls-4" d="M625.75,550.65l-2.09-8.3h1.19l1.08,4.79.4,1.78.36-1.71,1.08-4.86H629l1,4.81.35,1.59.39-1.6,1.16-4.8H633l-2.12,8.3h-1.2l-1.09-5-.26-1.41L627,550.65Z"/><path class="cls-4" d="M634,550.65v-8.3h1v1.17a2.7,2.7,0,0,1,.92-1,2.33,2.33,0,0,1,1.24-.34,2.44,2.44,0,0,1,1,.22,2.05,2.05,0,0,1,.75.56,2.21,2.21,0,0,1,.42.9,7.23,7.23,0,0,1,.14,1.71v5.1h-1.14v-5a4.28,4.28,0,0,0-.16-1.34,1.3,1.3,0,0,0-.49-.65,1.27,1.27,0,0,0-.77-.23,1.6,1.6,0,0,0-1.32.61,3.46,3.46,0,0,0-.49,2.12v4.54Z"/><path class="cls-4" d="M644.91,550.65V539.2h1.14v4.1a2.93,2.93,0,0,1,.92-.85,2.29,2.29,0,0,1,1.13-.29,2.18,2.18,0,0,1,1.72.7,3.8,3.8,0,0,1,.63,2.53v5.26H649.3v-5.26a2.45,2.45,0,0,0-.39-1.55,1.27,1.27,0,0,0-1-.46,1.64,1.64,0,0,0-1.28.6,3.28,3.28,0,0,0-.53,2.13v4.54Z"/><path class="cls-4" d="M656.85,548l1.19.18a3.62,3.62,0,0,1-1.08,2,2.82,2.82,0,0,1-1.92.68,2.89,2.89,0,0,1-2.34-1.1,4.89,4.89,0,0,1-.9-3.17,5.19,5.19,0,0,1,.91-3.28,2.8,2.8,0,0,1,2.28-1.13,2.72,2.72,0,0,1,2.21,1.11,5.11,5.11,0,0,1,.88,3.21v.38H653a3.57,3.57,0,0,0,.65,2.11,1.78,1.78,0,0,0,1.41.71C655.91,549.68,656.51,549.11,656.85,548Zm-3.79-2.28h3.8a3.21,3.21,0,0,0-.46-1.61,1.69,1.69,0,0,0-1.42-.77,1.72,1.72,0,0,0-1.32.64A2.88,2.88,0,0,0,653.06,545.7Z"/><path class="cls-4" d="M659.5,540.81V539.2h1.15v1.61Zm0,9.84v-8.3h1.15v8.3Z"/><path class="cls-4" d="M662.19,551.34l1.12.2a1.43,1.43,0,0,0,.47,1,1.63,1.63,0,0,0,1.09.33,1.87,1.87,0,0,0,1.2-.36,1.92,1.92,0,0,0,.62-1.09,11.09,11.09,0,0,0,.1-1.84,2.68,2.68,0,0,1-.84.81,2.07,2.07,0,0,1-1,.27,2.49,2.49,0,0,1-2-1,5.07,5.07,0,0,1-.92-3.18,6.23,6.23,0,0,1,.41-2.34,3.24,3.24,0,0,1,1.06-1.47,2.53,2.53,0,0,1,1.48-.47,2.06,2.06,0,0,1,1.1.3,2.73,2.73,0,0,1,.88.88v-1H668v7.17a8.35,8.35,0,0,1-.31,2.73,2.62,2.62,0,0,1-1,1.29,3,3,0,0,1-1.71.48,2.72,2.72,0,0,1-2-.72A2.54,2.54,0,0,1,662.19,551.34Zm.95-5a4.16,4.16,0,0,0,.54,2.39,1.56,1.56,0,0,0,2.65,0,4,4,0,0,0,.55-2.35,3.91,3.91,0,0,0-.56-2.33,1.68,1.68,0,0,0-1.37-.76,1.59,1.59,0,0,0-1.27.76A3.94,3.94,0,0,0,663.14,546.35Z"/><path class="cls-4" d="M669.71,550.65V539.2h1.15v4.1a2.82,2.82,0,0,1,.92-.85,2.29,2.29,0,0,1,1.13-.29,2.17,2.17,0,0,1,1.71.7,3.8,3.8,0,0,1,.63,2.53v5.26H674.1v-5.26a2.52,2.52,0,0,0-.38-1.55,1.3,1.3,0,0,0-1.06-.46,1.62,1.62,0,0,0-1.27.6,3.28,3.28,0,0,0-.53,2.13v4.54Z"/><path class="cls-4" d="M679.57,549.39l.16,1.24a3.21,3.21,0,0,1-.86.13,1.74,1.74,0,0,1-1-.24,1.26,1.26,0,0,1-.51-.65,6.54,6.54,0,0,1-.13-1.65v-4.77h-.85v-1.1h.85V540.3l1.15-.85v2.9h1.16v1.1h-1.16v4.85a2.2,2.2,0,0,0,.1.86.56.56,0,0,0,.55.29A2.86,2.86,0,0,0,679.57,549.39Z"/><path class="cls-4" d="M680.21,548.16l1.15-.21a2.06,2.06,0,0,0,.55,1.3,1.94,1.94,0,0,0,2.36.06,1.23,1.23,0,0,0,.41-.94.93.93,0,0,0-.35-.77,4.64,4.64,0,0,0-1.17-.47,8.28,8.28,0,0,1-1.8-.7,1.93,1.93,0,0,1-.7-.77,2.36,2.36,0,0,1-.25-1.11,2.28,2.28,0,0,1,.68-1.72,2.58,2.58,0,0,1,1.88-.67,3,3,0,0,1,1.33.28,2.06,2.06,0,0,1,.88.73,3.3,3.3,0,0,1,.42,1.32l-1.12.19a1.35,1.35,0,0,0-1.48-1.36,1.76,1.76,0,0,0-1.12.3,1,1,0,0,0-.36.77.85.85,0,0,0,.35.72,6.55,6.55,0,0,0,1.25.5,9.4,9.4,0,0,1,1.85.72,1.89,1.89,0,0,1,.66.74,2.51,2.51,0,0,1,.23,1.1,2.58,2.58,0,0,1-.75,1.93,2.84,2.84,0,0,1-2.06.74C681.42,550.84,680.47,550,680.21,548.16Z"/><path class="cls-4" d="M687.58,550.65v-1.6h1.31v1.6Z"/><path class="cls-4" d="M738.59,278l1.18-.12a3.38,3.38,0,0,0,.42,1.47,2.46,2.46,0,0,0,.95.85,3,3,0,0,0,1.39.32,2.47,2.47,0,0,0,1.72-.55,1.79,1.79,0,0,0,.62-1.4,1.71,1.71,0,0,0-.23-.89A1.62,1.62,0,0,0,744,277a12.11,12.11,0,0,0-1.94-.68,7.09,7.09,0,0,1-1.89-.79,2.81,2.81,0,0,1-.87-1,3.26,3.26,0,0,1,.58-3.66,3.31,3.31,0,0,1,2.42-.89,3.87,3.87,0,0,1,1.84.42,2.87,2.87,0,0,1,1.21,1.18,3.93,3.93,0,0,1,.47,1.82l-1.2.11a2.46,2.46,0,0,0-.66-1.65,2.3,2.3,0,0,0-1.62-.54,2.45,2.45,0,0,0-1.61.47,1.53,1.53,0,0,0-.55,1.22,1.4,1.4,0,0,0,.4,1.08,4.8,4.8,0,0,0,1.83.78,12,12,0,0,1,2,.66,3.15,3.15,0,0,1,1.3,1.16,3.19,3.19,0,0,1,.44,1.7,3.51,3.51,0,0,1-.46,1.79,3.14,3.14,0,0,1-1.25,1.23,4,4,0,0,1-1.91.42,3.71,3.71,0,0,1-2.78-1A4,4,0,0,1,738.59,278Z"/><path class="cls-4" d="M747.6,281.65V270.2h1.15v4.1a2.82,2.82,0,0,1,.92-.85,2.29,2.29,0,0,1,1.13-.29,2.17,2.17,0,0,1,1.71.7,3.8,3.8,0,0,1,.63,2.53v5.26H752v-5.26a2.52,2.52,0,0,0-.38-1.55,1.3,1.3,0,0,0-1.06-.46,1.62,1.62,0,0,0-1.27.6,3.28,3.28,0,0,0-.53,2.13v4.54Z"/><path class="cls-4" d="M754.9,271.81V270.2h1.15v1.61Zm0,9.84v-8.3h1.15v8.3Z"/><path class="cls-4" d="M757.81,281.65v-8.3h1v1.17a2.78,2.78,0,0,1,.92-1,2.33,2.33,0,0,1,1.24-.34,2.41,2.41,0,0,1,1,.22,2.05,2.05,0,0,1,.75.56,2.36,2.36,0,0,1,.43.9,7.81,7.81,0,0,1,.14,1.71v5.1h-1.15v-5a4,4,0,0,0-.16-1.34,1.3,1.3,0,0,0-.49-.65,1.25,1.25,0,0,0-.77-.23,1.6,1.6,0,0,0-1.32.61,3.46,3.46,0,0,0-.49,2.12v4.54Z"/><path class="cls-4" d="M765.07,284.84l-.12-1.32a2,2,0,0,0,.65.13,1.13,1.13,0,0,0,.61-.15,1.06,1.06,0,0,0,.39-.46c0-.07.19-.53.46-1.38l-2.59-8.31h1.24l1.42,4.8c.18.6.34,1.24.49,1.92.13-.64.29-1.27.47-1.89l1.46-4.83h1.15l-2.58,8.44a14.86,14.86,0,0,1-.8,2.19,2.15,2.15,0,0,1-.66.79,1.54,1.54,0,0,1-.85.25A1.89,1.89,0,0,1,765.07,284.84Z"/><path class="cls-4" d="M780,279l1.19.18a3.62,3.62,0,0,1-1.08,2,2.83,2.83,0,0,1-1.92.68,2.86,2.86,0,0,1-2.34-1.1,4.89,4.89,0,0,1-.9-3.17,5.19,5.19,0,0,1,.9-3.28,2.84,2.84,0,0,1,2.29-1.13,2.71,2.71,0,0,1,2.2,1.11,5.05,5.05,0,0,1,.89,3.21v.38h-5.08a3.57,3.57,0,0,0,.65,2.11,1.75,1.75,0,0,0,1.4.71C779,280.68,779.63,280.11,780,279Zm-3.79-2.28H780a3.32,3.32,0,0,0-.46-1.61,1.69,1.69,0,0,0-2.74-.13A2.88,2.88,0,0,0,776.18,276.7Z"/><path class="cls-4" d="M782.58,284.84l-.13-1.32a2.06,2.06,0,0,0,.66.13,1.15,1.15,0,0,0,.61-.15,1.06,1.06,0,0,0,.39-.46q.06-.1.45-1.38L782,273.35h1.24l1.42,4.8c.18.6.34,1.24.49,1.92.13-.64.29-1.27.47-1.89l1.45-4.83h1.16l-2.58,8.44a16.16,16.16,0,0,1-.8,2.19,2.07,2.07,0,0,1-.67.79,1.51,1.51,0,0,1-.84.25A1.85,1.85,0,0,1,782.58,284.84Z"/><path class="cls-4" d="M793.83,279l1.19.18a3.62,3.62,0,0,1-1.08,2,2.83,2.83,0,0,1-1.92.68,2.86,2.86,0,0,1-2.34-1.1,4.89,4.89,0,0,1-.9-3.17,5.19,5.19,0,0,1,.9-3.28,2.84,2.84,0,0,1,2.29-1.13,2.71,2.71,0,0,1,2.2,1.11,5.05,5.05,0,0,1,.88,3.21v.38H790a3.57,3.57,0,0,0,.65,2.11,1.75,1.75,0,0,0,1.4.71C792.89,280.68,793.49,280.11,793.83,279ZM790,276.7h3.8a3.32,3.32,0,0,0-.46-1.61,1.69,1.69,0,0,0-2.74-.13A2.88,2.88,0,0,0,790,276.7Z"/><path class="cls-4" d="M800.88,281.65v-1a2.34,2.34,0,0,1-.8.92,1.94,1.94,0,0,1-1.06.32,2.58,2.58,0,0,1-2.09-1.14,5.16,5.16,0,0,1-.88-3.2,6.56,6.56,0,0,1,.39-2.4,3.31,3.31,0,0,1,1-1.46,2.35,2.35,0,0,1,1.44-.48,2,2,0,0,1,1.06.3,2.71,2.71,0,0,1,.81.84v-4.1H802v11.45Zm-3.65-4.14a4.15,4.15,0,0,0,.56,2.39,1.61,1.61,0,0,0,1.3.78,1.56,1.56,0,0,0,1.28-.75,3.9,3.9,0,0,0,.54-2.27,4.66,4.66,0,0,0-.54-2.54,1.6,1.6,0,0,0-1.36-.8,1.5,1.5,0,0,0-1.25.77A4.36,4.36,0,0,0,797.23,277.51Z"/><path class="cls-4" d="M811.85,280.62a4,4,0,0,1-1.2.91,3,3,0,0,1-1.3.31,2.28,2.28,0,0,1-1.69-.64,2.34,2.34,0,0,1-.64-1.73,2.62,2.62,0,0,1,.3-1.27,2.27,2.27,0,0,1,.81-.87,4.33,4.33,0,0,1,1.57-.46,9,9,0,0,0,2.06-.49V276a1.84,1.84,0,0,0-.31-1.2,1.67,1.67,0,0,0-1.32-.5,1.83,1.83,0,0,0-1.2.33,2.21,2.21,0,0,0-.59,1.26l-1.13-.19a3.18,3.18,0,0,1,1-2,3.27,3.27,0,0,1,2.11-.61,3,3,0,0,1,1.68.41,1.67,1.67,0,0,1,.77,1,7,7,0,0,1,.16,1.74v1.87a23.12,23.12,0,0,0,.08,2.48,3.58,3.58,0,0,0,.29,1h-1.2A3.63,3.63,0,0,1,811.85,280.62Zm-.09-3.14a7.34,7.34,0,0,1-1.88.54,3.33,3.33,0,0,0-1,.28,1.21,1.21,0,0,0-.45.45,1.37,1.37,0,0,0-.16.68,1.24,1.24,0,0,0,.37.95,1.37,1.37,0,0,0,1,.35,2,2,0,0,0,1.12-.32,2,2,0,0,0,.76-.85,4,4,0,0,0,.25-1.56Z"/><path class="cls-4" d="M814.72,281.65v-8.3h1v1.17a2.76,2.76,0,0,1,.91-1,2.39,2.39,0,0,1,1.25-.34,2.44,2.44,0,0,1,1,.22,2.05,2.05,0,0,1,.75.56,2.21,2.21,0,0,1,.42.9,7.23,7.23,0,0,1,.14,1.71v5.1h-1.15v-5a4.34,4.34,0,0,0-.15-1.34,1.36,1.36,0,0,0-.49-.65,1.27,1.27,0,0,0-.77-.23,1.6,1.6,0,0,0-1.32.61,3.46,3.46,0,0,0-.49,2.12v4.54Z"/><path class="cls-4" d="M826.42,281.65v-1a2.34,2.34,0,0,1-.8.92,2,2,0,0,1-1.07.32,2.58,2.58,0,0,1-2.08-1.14,5.16,5.16,0,0,1-.88-3.2,6.56,6.56,0,0,1,.39-2.4,3.23,3.23,0,0,1,1-1.46,2.35,2.35,0,0,1,1.44-.48,2,2,0,0,1,1.06.3,2.71,2.71,0,0,1,.81.84v-4.1h1.16v11.45Zm-3.65-4.14a4.15,4.15,0,0,0,.56,2.39,1.61,1.61,0,0,0,1.3.78,1.56,1.56,0,0,0,1.28-.75,3.9,3.9,0,0,0,.54-2.27,4.66,4.66,0,0,0-.54-2.54,1.61,1.61,0,0,0-1.36-.8,1.5,1.5,0,0,0-1.25.77A4.36,4.36,0,0,0,822.77,277.51Z"/><path class="cls-4" d="M834.21,281.65l-2.09-8.3h1.2l1.08,4.79.4,1.78.36-1.71,1.08-4.86h1.19l1,4.81.35,1.59.38-1.6,1.17-4.8h1.12l-2.12,8.3h-1.2l-1.09-5-.26-1.41-1.37,6.38Z"/><path class="cls-4" d="M847.08,279l1.19.18a3.62,3.62,0,0,1-1.08,2,2.83,2.83,0,0,1-1.92.68,2.86,2.86,0,0,1-2.34-1.1,4.89,4.89,0,0,1-.9-3.17,5.19,5.19,0,0,1,.9-3.28,2.84,2.84,0,0,1,2.29-1.13,2.71,2.71,0,0,1,2.2,1.11,5.05,5.05,0,0,1,.88,3.21v.38h-5.08a3.57,3.57,0,0,0,.65,2.11,1.75,1.75,0,0,0,1.4.71C846.14,280.68,846.74,280.11,847.08,279Zm-3.79-2.28h3.8a3.2,3.2,0,0,0-.47-1.61,1.68,1.68,0,0,0-2.73-.13A2.88,2.88,0,0,0,843.29,276.7Z"/><path class="cls-4" d="M852.29,280.39l.16,1.24a3.21,3.21,0,0,1-.86.13,1.72,1.72,0,0,1-1-.24,1.21,1.21,0,0,1-.51-.65,6.54,6.54,0,0,1-.13-1.65v-4.77h-.85v-1.1H850V271.3l1.14-.85v2.9h1.17v1.1h-1.17v4.85a2.14,2.14,0,0,0,.11.86.56.56,0,0,0,.55.29A2.86,2.86,0,0,0,852.29,280.39Z"/><path class="cls-4" d="M853.71,281.65v-1.6H855v1.6a3.28,3.28,0,0,1-.27,1.46,1.82,1.82,0,0,1-.8.8l-.32-.6a1.16,1.16,0,0,0,.53-.56,2.69,2.69,0,0,0,.2-1.1Z"/><path class="cls-4" d="M738.85,288.81V287.2H740v1.61Zm0,9.84v-8.3H740v8.3Z"/><path class="cls-4" d="M742.09,298.65v-7.2h-1v-1.1h1v-.88a4,4,0,0,1,.2-1.47,1.56,1.56,0,0,1,.62-.74A2,2,0,0,1,744,287a4.43,4.43,0,0,1,1.08.15l-.17,1.22a3.39,3.39,0,0,0-.68-.08.9.9,0,0,0-.74.27,1.67,1.67,0,0,0-.23,1v.76h1.33v1.1h-1.33v7.2Z"/><path class="cls-4" d="M748.62,294.5a5,5,0,0,1,.91-3.24,2.91,2.91,0,0,1,4.56,0,4.79,4.79,0,0,1,.91,3.15,5.17,5.17,0,0,1-.9,3.33,2.91,2.91,0,0,1-4.56,0A5,5,0,0,1,748.62,294.5Zm1.18,0a4,4,0,0,0,.59,2.39,1.75,1.75,0,0,0,1.45.79,1.69,1.69,0,0,0,1.4-.79,4,4,0,0,0,.58-2.39,4,4,0,0,0-.59-2.39,1.74,1.74,0,0,0-1.45-.79,1.69,1.69,0,0,0-1.4.79A4.08,4.08,0,0,0,749.8,294.5Z"/><path class="cls-4" d="M756.36,298.65v-8.3h1v1.17a2.76,2.76,0,0,1,.91-1,2.39,2.39,0,0,1,1.25-.34,2.44,2.44,0,0,1,1,.22,2.05,2.05,0,0,1,.75.56,2.21,2.21,0,0,1,.42.9,7.23,7.23,0,0,1,.14,1.71v5.1h-1.15v-5a4.34,4.34,0,0,0-.15-1.34,1.36,1.36,0,0,0-.49-.65,1.27,1.27,0,0,0-.77-.23A1.6,1.6,0,0,0,758,292a3.46,3.46,0,0,0-.49,2.12v4.54Z"/><path class="cls-4" d="M763.62,298.65V287.2h1.15v11.45Z"/><path class="cls-4" d="M766.53,301.84l-.12-1.32a2,2,0,0,0,.65.13,1.13,1.13,0,0,0,.61-.15,1.06,1.06,0,0,0,.39-.46c0-.07.19-.53.46-1.38l-2.59-8.31h1.24l1.42,4.8c.18.6.34,1.24.5,1.92.13-.64.28-1.27.46-1.89l1.46-4.83h1.15l-2.58,8.44a14.86,14.86,0,0,1-.8,2.19,2.15,2.15,0,0,1-.66.79,1.54,1.54,0,0,1-.85.25A1.93,1.93,0,0,1,766.53,301.84Z"/><path class="cls-4" d="M776.34,294.5a5,5,0,0,1,.91-3.24,2.9,2.9,0,0,1,4.55,0,4.79,4.79,0,0,1,.92,3.15,5.17,5.17,0,0,1-.9,3.33,2.92,2.92,0,0,1-4.57,0A5,5,0,0,1,776.34,294.5Zm1.18,0a4,4,0,0,0,.59,2.39,1.74,1.74,0,0,0,1.45.79,1.7,1.7,0,0,0,1.4-.79,4.11,4.11,0,0,0,.58-2.39,4,4,0,0,0-.59-2.39,1.74,1.74,0,0,0-1.45-.79,1.69,1.69,0,0,0-1.4.79A4.08,4.08,0,0,0,777.52,294.5Z"/><path class="cls-4" d="M784.08,298.65v-8.3h1v1.17a2.76,2.76,0,0,1,.91-1,2.36,2.36,0,0,1,1.25-.34,2.44,2.44,0,0,1,1,.22,2.05,2.05,0,0,1,.75.56,2.21,2.21,0,0,1,.42.9,7.81,7.81,0,0,1,.14,1.71v5.1h-1.15v-5a4.34,4.34,0,0,0-.15-1.34,1.36,1.36,0,0,0-.49-.65,1.27,1.27,0,0,0-.77-.23,1.6,1.6,0,0,0-1.32.61,3.46,3.46,0,0,0-.49,2.12v4.54Z"/><path class="cls-4" d="M796,296l1.19.18a3.61,3.61,0,0,1-1.07,2,2.84,2.84,0,0,1-1.93.68,2.89,2.89,0,0,1-2.34-1.1,4.89,4.89,0,0,1-.89-3.17,5.19,5.19,0,0,1,.9-3.28,2.8,2.8,0,0,1,2.28-1.13,2.72,2.72,0,0,1,2.21,1.11,5.05,5.05,0,0,1,.88,3.21v.38h-5.08a3.64,3.64,0,0,0,.65,2.11,1.78,1.78,0,0,0,1.41.71C795.08,297.68,795.68,297.11,796,296Zm-3.79-2.28H796a3.11,3.11,0,0,0-.46-1.61,1.68,1.68,0,0,0-2.73-.13A2.82,2.82,0,0,0,792.23,293.7Z"/><path class="cls-4" d="M806.77,295.61l1.14.18a3.79,3.79,0,0,1-1,2.26,2.58,2.58,0,0,1-1.89.79,2.7,2.7,0,0,1-2.2-1.1,5.16,5.16,0,0,1-.86-3.25,5.09,5.09,0,0,1,.87-3.24,2.72,2.72,0,0,1,2.24-1.09,2.52,2.52,0,0,1,1.77.66,3.26,3.26,0,0,1,.93,2l-1.12.2a2.39,2.39,0,0,0-.57-1.25,1.32,1.32,0,0,0-1-.42,1.71,1.71,0,0,0-1.41.75,4.13,4.13,0,0,0-.55,2.4,4.3,4.3,0,0,0,.53,2.45,1.61,1.61,0,0,0,1.37.76,1.48,1.48,0,0,0,1.12-.5A2.74,2.74,0,0,0,806.77,295.61Z"/><path class="cls-4" d="M808.45,294.5a5,5,0,0,1,.9-3.24,2.91,2.91,0,0,1,4.56,0,4.79,4.79,0,0,1,.91,3.15,5.17,5.17,0,0,1-.9,3.33,2.91,2.91,0,0,1-4.56,0A5,5,0,0,1,808.45,294.5Zm1.17,0a4,4,0,0,0,.59,2.39,1.75,1.75,0,0,0,1.45.79,1.69,1.69,0,0,0,1.4-.79,4,4,0,0,0,.58-2.39,3.92,3.92,0,0,0-.59-2.39,1.74,1.74,0,0,0-1.45-.79,1.69,1.69,0,0,0-1.4.79A4.08,4.08,0,0,0,809.62,294.5Z"/><path class="cls-4" d="M820.63,298.65v-1.22a2.93,2.93,0,0,1-.93,1.05,2.16,2.16,0,0,1-1.22.36,2.21,2.21,0,0,1-1.38-.44,2.06,2.06,0,0,1-.76-1.1,6.66,6.66,0,0,1-.19-1.81v-5.14h1.15V295a7.06,7.06,0,0,0,.13,1.72,1.3,1.3,0,0,0,1.27.95,1.63,1.63,0,0,0,1.35-.67,3.64,3.64,0,0,0,.46-2.15v-4.45h1.15v8.3Z"/><path class="cls-4" d="M823.44,298.65V287.2h1.15v11.45Z"/><path class="cls-4" d="M830.8,298.65v-1a2.36,2.36,0,0,1-.81.92,1.94,1.94,0,0,1-1.06.32,2.57,2.57,0,0,1-2.08-1.14,5.1,5.1,0,0,1-.88-3.2,6.56,6.56,0,0,1,.39-2.4,3.29,3.29,0,0,1,1-1.46,2.38,2.38,0,0,1,1.45-.48,1.94,1.94,0,0,1,1,.3,2.51,2.51,0,0,1,.81.84v-4.1h1.17v11.45Zm-3.65-4.14a4.07,4.07,0,0,0,.56,2.39,1.58,1.58,0,0,0,1.3.78,1.55,1.55,0,0,0,1.27-.75,3.9,3.9,0,0,0,.54-2.27,4.66,4.66,0,0,0-.54-2.54,1.6,1.6,0,0,0-1.36-.8,1.52,1.52,0,0,0-1.25.77A4.37,4.37,0,0,0,827.15,294.51Z"/><path class="cls-4" d="M837.34,298.65v-8.3h1v1.26a3.35,3.35,0,0,1,.73-1.16,1.12,1.12,0,0,1,.74-.29,2,2,0,0,1,1.18.46l-.39,1.3a1.46,1.46,0,0,0-.84-.3,1,1,0,0,0-.67.26,1.45,1.45,0,0,0-.43.71,6.79,6.79,0,0,0-.22,1.71v4.35Z"/><path class="cls-4" d="M846.35,296l1.19.18a3.62,3.62,0,0,1-1.08,2,2.82,2.82,0,0,1-1.92.68,2.89,2.89,0,0,1-2.34-1.1,4.89,4.89,0,0,1-.9-3.17,5.19,5.19,0,0,1,.91-3.28,2.8,2.8,0,0,1,2.28-1.13,2.72,2.72,0,0,1,2.21,1.11,5.11,5.11,0,0,1,.88,3.21v.38h-5.08a3.57,3.57,0,0,0,.65,2.11,1.78,1.78,0,0,0,1.41.71C845.41,297.68,846,297.11,846.35,296Zm-3.79-2.28h3.8a3.21,3.21,0,0,0-.46-1.61,1.69,1.69,0,0,0-1.42-.77,1.72,1.72,0,0,0-1.32.64A2.88,2.88,0,0,0,842.56,293.7Z"/><path class="cls-4" d="M853.43,297.62a4.23,4.23,0,0,1-1.2.91,3,3,0,0,1-1.3.31,2.32,2.32,0,0,1-1.7-.64,2.37,2.37,0,0,1-.63-1.73,2.62,2.62,0,0,1,.3-1.27,2.27,2.27,0,0,1,.81-.87,4.27,4.27,0,0,1,1.56-.46,9,9,0,0,0,2.07-.49V293a1.85,1.85,0,0,0-.3-1.2,1.67,1.67,0,0,0-1.32-.5,1.83,1.83,0,0,0-1.2.33,2.15,2.15,0,0,0-.59,1.26l-1.13-.19a3.18,3.18,0,0,1,1-2,3.26,3.26,0,0,1,2.11-.61,3,3,0,0,1,1.68.41,1.71,1.71,0,0,1,.77,1,7,7,0,0,1,.16,1.74v1.87a24.27,24.27,0,0,0,.07,2.48,3.6,3.6,0,0,0,.3,1h-1.21A3.64,3.64,0,0,1,853.43,297.62Zm-.09-3.14a7.44,7.44,0,0,1-1.89.54,3.33,3.33,0,0,0-1,.28,1.15,1.15,0,0,0-.45.45,1.37,1.37,0,0,0-.16.68,1.24,1.24,0,0,0,.37.95,1.37,1.37,0,0,0,1,.35,2,2,0,0,0,1.12-.32,2,2,0,0,0,.76-.85,4,4,0,0,0,.25-1.56Z"/><path class="cls-4" d="M860.75,295.61l1.13.18a3.73,3.73,0,0,1-1,2.26,2.54,2.54,0,0,1-1.88.79,2.67,2.67,0,0,1-2.2-1.1,5.16,5.16,0,0,1-.87-3.25,5.09,5.09,0,0,1,.87-3.24,2.75,2.75,0,0,1,2.24-1.09,2.53,2.53,0,0,1,1.78.66,3.26,3.26,0,0,1,.93,2l-1.12.2a2.39,2.39,0,0,0-.57-1.25,1.32,1.32,0,0,0-1-.42,1.69,1.69,0,0,0-1.41.75,4.12,4.12,0,0,0-.56,2.4,4.29,4.29,0,0,0,.54,2.45,1.59,1.59,0,0,0,1.37.76,1.48,1.48,0,0,0,1.12-.5A2.74,2.74,0,0,0,860.75,295.61Z"/><path class="cls-4" d="M862.86,298.65V287.2H864v4.1a2.73,2.73,0,0,1,.92-.85,2.25,2.25,0,0,1,1.12-.29,2.18,2.18,0,0,1,1.72.7,3.8,3.8,0,0,1,.63,2.53v5.26h-1.15v-5.26a2.52,2.52,0,0,0-.38-1.55,1.3,1.3,0,0,0-1.06-.46,1.62,1.62,0,0,0-1.27.6,3.22,3.22,0,0,0-.53,2.13v4.54Z"/><path class="cls-4" d="M739.91,315.65h-1.07V304.2H740v4.08a2.77,2.77,0,0,1,.83-.84,2,2,0,0,1,1-.28,2.4,2.4,0,0,1,1.45.48,3.26,3.26,0,0,1,1,1.45,6.28,6.28,0,0,1,.39,2.35,5.22,5.22,0,0,1-.88,3.25,2.59,2.59,0,0,1-2.07,1.15,2,2,0,0,1-1.07-.31,2.63,2.63,0,0,1-.81-.92Zm0-4.21a6.18,6.18,0,0,0,.23,1.93,2.13,2.13,0,0,0,.67,1,1.5,1.5,0,0,0,1,.34,1.56,1.56,0,0,0,1.26-.8,4.22,4.22,0,0,0,.55-2.4,4.29,4.29,0,0,0-.53-2.39,1.45,1.45,0,0,0-2.58,0A4.05,4.05,0,0,0,739.89,311.44Zm9.1,3.24c.87,0,1.47-.57,1.81-1.7l1.18.18a3.55,3.55,0,0,1-1.07,2,2.84,2.84,0,0,1-1.93.68,2.89,2.89,0,0,1-2.34-1.1,5,5,0,0,1-.89-3.17,5.19,5.19,0,0,1,.9-3.28,2.81,2.81,0,0,1,2.29-1.13,2.71,2.71,0,0,1,2.2,1.11,5.05,5.05,0,0,1,.88,3.21v.38h-5.07a3.6,3.6,0,0,0,.64,2.11,1.78,1.78,0,0,0,1.41.71Zm-2-4h3.79a3.11,3.11,0,0,0-.46-1.61,1.68,1.68,0,0,0-2.73-.13A2.76,2.76,0,0,0,747,310.7Zm7.14,8.32a1.94,1.94,0,0,1-.75-.18l-.12-1.32a2,2,0,0,0,.66.13,1.11,1.11,0,0,0,.6-.15,1.14,1.14,0,0,0,.4-.46q0-.1.45-1.38l-2.59-8.31H754l1.43,4.8c.17.6.34,1.24.49,1.92.13-.64.29-1.27.47-1.89l1.45-4.83H759l-2.58,8.44a14.54,14.54,0,0,1-.81,2.19,2,2,0,0,1-.66.79,1.53,1.53,0,0,1-.84.25Zm5.42-7.52a5,5,0,0,1,.9-3.24,2.91,2.91,0,0,1,4.56,0,4.79,4.79,0,0,1,.91,3.15,5.17,5.17,0,0,1-.9,3.33,2.91,2.91,0,0,1-4.56,0A5,5,0,0,1,759.57,311.5Zm1.18,0a4,4,0,0,0,.58,2.39,1.75,1.75,0,0,0,1.45.79,1.69,1.69,0,0,0,1.4-.79,4,4,0,0,0,.58-2.39,4,4,0,0,0-.58-2.39,1.77,1.77,0,0,0-1.46-.79,1.7,1.7,0,0,0-1.4.79A4.09,4.09,0,0,0,760.75,311.5Zm6.55,4.15v-8.3h1v1.17a2.76,2.76,0,0,1,.91-1,2.39,2.39,0,0,1,1.25-.34,2.44,2.44,0,0,1,1,.22,2.05,2.05,0,0,1,.75.56,2.21,2.21,0,0,1,.42.9,7.23,7.23,0,0,1,.14,1.71v5.1h-1.15v-5a4.34,4.34,0,0,0-.15-1.34,1.36,1.36,0,0,0-.49-.65,1.28,1.28,0,0,0-.77-.24,1.61,1.61,0,0,0-1.32.62,3.46,3.46,0,0,0-.49,2.12v4.54Zm11.7,0v-1a2.42,2.42,0,0,1-.8.92,2,2,0,0,1-1.07.32,2.58,2.58,0,0,1-2.08-1.14,5.18,5.18,0,0,1-.88-3.2,6.56,6.56,0,0,1,.39-2.4,3.29,3.29,0,0,1,1-1.46,2.4,2.4,0,0,1,1.45-.48,2,2,0,0,1,1.06.3,2.71,2.71,0,0,1,.81.84v-4.1h1.16v11.45Zm-3.65-4.14a4.15,4.15,0,0,0,.56,2.39,1.6,1.6,0,0,0,1.3.78,1.56,1.56,0,0,0,1.28-.75,3.9,3.9,0,0,0,.54-2.27,4.63,4.63,0,0,0-.54-2.54,1.61,1.61,0,0,0-1.36-.8,1.5,1.5,0,0,0-1.25.77A4.36,4.36,0,0,0,775.35,311.51Zm12.24,2.94a2.86,2.86,0,0,0,.51-.06l.16,1.24a3.21,3.21,0,0,1-.86.13,1.74,1.74,0,0,1-1-.24,1.19,1.19,0,0,1-.5-.65,6,6,0,0,1-.14-1.65v-4.77H785v-1.1h.84V305.3l1.15-.85v2.9h1.16v1.1h-1.16v4.85a2.23,2.23,0,0,0,.1.86.56.56,0,0,0,.55.29Zm1.6,1.2V304.2h1.15v4.1a2.8,2.8,0,0,1,.91-.85,2.29,2.29,0,0,1,1.13-.29,2.18,2.18,0,0,1,1.72.7,3.8,3.8,0,0,1,.63,2.53v5.26h-1.15v-5.26a2.45,2.45,0,0,0-.39-1.55,1.28,1.28,0,0,0-1.05-.47,1.65,1.65,0,0,0-1.28.61,3.28,3.28,0,0,0-.52,2.13v4.54Zm10.14-1c.86,0,1.46-.57,1.8-1.7l1.19.18a3.62,3.62,0,0,1-1.08,2,2.82,2.82,0,0,1-1.92.68,2.89,2.89,0,0,1-2.34-1.1,4.89,4.89,0,0,1-.9-3.17,5.19,5.19,0,0,1,.91-3.28,2.8,2.8,0,0,1,2.28-1.13,2.72,2.72,0,0,1,2.21,1.11,5.11,5.11,0,0,1,.88,3.21v.38h-5.08a3.6,3.6,0,0,0,.65,2.11,1.77,1.77,0,0,0,1.41.71Zm-2-4h3.8a3.21,3.21,0,0,0-.46-1.61,1.69,1.69,0,0,0-1.42-.77,1.72,1.72,0,0,0-1.32.64A2.88,2.88,0,0,0,797.34,310.7Zm12.48,5.14c-1.63,0-2.58-.89-2.84-2.68l1.15-.21a2.06,2.06,0,0,0,.55,1.3,1.94,1.94,0,0,0,2.36.06,1.23,1.23,0,0,0,.41-.94.93.93,0,0,0-.35-.77,4.64,4.64,0,0,0-1.17-.47,8.28,8.28,0,0,1-1.8-.7,1.93,1.93,0,0,1-.7-.77,2.36,2.36,0,0,1-.25-1.11,2.28,2.28,0,0,1,.68-1.72,2.58,2.58,0,0,1,1.88-.67,3.1,3.1,0,0,1,1.33.28,2.06,2.06,0,0,1,.88.73,3.3,3.3,0,0,1,.42,1.32l-1.12.19a1.35,1.35,0,0,0-1.48-1.36,1.76,1.76,0,0,0-1.12.3,1,1,0,0,0-.36.77.85.85,0,0,0,.35.72,6.55,6.55,0,0,0,1.25.5,9.4,9.4,0,0,1,1.85.72,1.89,1.89,0,0,1,.66.74,2.53,2.53,0,0,1,.23,1.11,2.57,2.57,0,0,1-.75,1.92,2.84,2.84,0,0,1-2.06.74Zm6.22-1.39a2.86,2.86,0,0,0,.51-.06l.16,1.24a3.21,3.21,0,0,1-.86.13,1.74,1.74,0,0,1-1-.24,1.21,1.21,0,0,1-.51-.65,6.54,6.54,0,0,1-.13-1.65v-4.77h-.85v-1.1h.85V305.3l1.15-.85v2.9h1.16v1.1h-1.16v4.85a2.23,2.23,0,0,0,.1.86.56.56,0,0,0,.55.29Zm6.26,1.2a3.63,3.63,0,0,1-.24-1,4,4,0,0,1-1.2.91,3,3,0,0,1-1.3.31,2.3,2.3,0,0,1-1.69-.64,2.37,2.37,0,0,1-.63-1.73,2.73,2.73,0,0,1,.29-1.27,2.22,2.22,0,0,1,.82-.87,4.2,4.2,0,0,1,1.56-.46,8.3,8.3,0,0,0,2.06-.5V310a1.78,1.78,0,0,0-.31-1.2,1.64,1.64,0,0,0-1.32-.5,1.87,1.87,0,0,0-1.2.33,2.21,2.21,0,0,0-.59,1.26l-1.13-.19a3.18,3.18,0,0,1,1-2,3.29,3.29,0,0,1,2.12-.61,3,3,0,0,1,1.68.41,1.69,1.69,0,0,1,.76,1,7,7,0,0,1,.16,1.74v1.87a23.12,23.12,0,0,0,.08,2.48,3.94,3.94,0,0,0,.29,1Zm-.33-4.17a7.34,7.34,0,0,1-1.88.54,3.33,3.33,0,0,0-1,.28,1.21,1.21,0,0,0-.45.45,1.48,1.48,0,0,0-.16.68,1.28,1.28,0,0,0,.37.95,1.38,1.38,0,0,0,1,.35,2,2,0,0,0,1.87-1.17A3.78,3.78,0,0,0,822,312Zm3,4.17v-8.3h1v1.26a3.67,3.67,0,0,1,.73-1.16,1.12,1.12,0,0,1,.75-.29,2,2,0,0,1,1.18.46l-.39,1.3a1.49,1.49,0,0,0-.84-.3,1,1,0,0,0-.67.25,1.39,1.39,0,0,0-.43.72,6.36,6.36,0,0,0-.22,1.71v4.35Zm8.33,0v-7.2h-1v-1.1h1v-.8a3.14,3.14,0,0,1,.48-1.95,1.62,1.62,0,0,1,1.33-.6,3.59,3.59,0,0,1,1.17.18l-.18,1.19a2.81,2.81,0,0,0-.62-.07,1,1,0,0,0-.81.28,2.22,2.22,0,0,0-.22,1.23v.54h1.32v1.1h-1.32v7.2Zm3.33-9.84V304.2h1.15v1.61Zm0,9.84v-8.3h1.15v8.3Zm2.88,0V304.2h1.15v11.45Zm2.91,0V304.2h1.15v11.45Zm5.79-1c.87,0,1.47-.57,1.81-1.7l1.19.18a3.62,3.62,0,0,1-1.08,2,2.83,2.83,0,0,1-1.92.68,2.86,2.86,0,0,1-2.34-1.1,4.89,4.89,0,0,1-.9-3.17,5.19,5.19,0,0,1,.9-3.28,2.84,2.84,0,0,1,2.29-1.13,2.71,2.71,0,0,1,2.2,1.11,5.05,5.05,0,0,1,.89,3.21v.38h-5.08a3.6,3.6,0,0,0,.65,2.11,1.75,1.75,0,0,0,1.4.71Zm-2-4H850a3.32,3.32,0,0,0-.46-1.61,1.69,1.69,0,0,0-2.74-.13A2.88,2.88,0,0,0,846.19,310.7ZM857,315.65v-1a2.34,2.34,0,0,1-.8.92,1.94,1.94,0,0,1-1.06.32,2.58,2.58,0,0,1-2.09-1.14,5.18,5.18,0,0,1-.88-3.2,6.56,6.56,0,0,1,.39-2.4,3.23,3.23,0,0,1,1-1.46,2.35,2.35,0,0,1,1.44-.48,2,2,0,0,1,1.06.3,2.71,2.71,0,0,1,.81.84v-4.1h1.16v11.45Zm-3.65-4.14a4.15,4.15,0,0,0,.56,2.39,1.61,1.61,0,0,0,1.31.78,1.56,1.56,0,0,0,1.27-.75,3.9,3.9,0,0,0,.54-2.27,4.63,4.63,0,0,0-.54-2.54,1.6,1.6,0,0,0-1.36-.8,1.5,1.5,0,0,0-1.25.77A4.36,4.36,0,0,0,853.38,311.51Z"/><path class="cls-4" d="M738.41,330.16l1.14-.21a2.07,2.07,0,0,0,.56,1.3,1.94,1.94,0,0,0,2.36.06,1.23,1.23,0,0,0,.41-.94.91.91,0,0,0-.36-.77,4.64,4.64,0,0,0-1.17-.47,8.74,8.74,0,0,1-1.8-.7,2,2,0,0,1-.7-.77,2.36,2.36,0,0,1-.25-1.11,2.31,2.31,0,0,1,.68-1.72,2.58,2.58,0,0,1,1.88-.67,3,3,0,0,1,1.34.28,2.13,2.13,0,0,1,.88.73,3.3,3.3,0,0,1,.42,1.32l-1.13.19a1.34,1.34,0,0,0-1.47-1.36,1.74,1.74,0,0,0-1.12.3.94.94,0,0,0-.37.77.87.87,0,0,0,.35.72,6.46,6.46,0,0,0,1.26.5,9.4,9.4,0,0,1,1.85.72,1.8,1.8,0,0,1,.65.74,2.38,2.38,0,0,1,.23,1.1,2.58,2.58,0,0,1-.75,1.93,2.82,2.82,0,0,1-2.06.74C739.61,332.84,738.67,332,738.41,330.16Z"/><path class="cls-4" d="M745.44,332.65V321.2h1.15v6.54l2.73-3.39h1.5l-2.61,3.08,2.86,5.22h-1.41l-2.26-4.25-.81,1v3.29Z"/><path class="cls-4" d="M751.94,335.84l-.13-1.32a2.06,2.06,0,0,0,.66.13,1.15,1.15,0,0,0,.61-.15,1.13,1.13,0,0,0,.39-.46q.06-.1.45-1.38l-2.58-8.31h1.24l1.42,4.8c.18.6.34,1.24.49,1.92.13-.64.29-1.27.47-1.89l1.45-4.83h1.16L755,332.79a16.16,16.16,0,0,1-.8,2.19,2.07,2.07,0,0,1-.67.79,1.53,1.53,0,0,1-.84.25A1.85,1.85,0,0,1,751.94,335.84Z"/><path class="cls-4" d="M757.93,332.65v-1.6h1.31v1.6a3.28,3.28,0,0,1-.27,1.46,1.82,1.82,0,0,1-.8.8l-.32-.6a1.16,1.16,0,0,0,.53-.56,2.69,2.69,0,0,0,.2-1.1Z"/><path class="cls-4" d="M766,332.65h-1.07V321.2H766v4.08a2.77,2.77,0,0,1,.83-.84,2,2,0,0,1,1-.28,2.4,2.4,0,0,1,1.45.48,3.26,3.26,0,0,1,1,1.45,6.28,6.28,0,0,1,.39,2.35,5.22,5.22,0,0,1-.88,3.25,2.59,2.59,0,0,1-2.07,1.15,2,2,0,0,1-1.07-.31,2.63,2.63,0,0,1-.81-.92Zm0-4.21a6.18,6.18,0,0,0,.23,1.93,2.13,2.13,0,0,0,.67,1,1.5,1.5,0,0,0,1,.34,1.56,1.56,0,0,0,1.26-.8,4.24,4.24,0,0,0,.55-2.4,4.29,4.29,0,0,0-.53-2.39,1.45,1.45,0,0,0-2.58,0A4.08,4.08,0,0,0,765.93,328.44Z"/><path class="cls-4" d="M776.84,330l1.18.18a3.55,3.55,0,0,1-1.07,2,2.84,2.84,0,0,1-1.93.68,2.89,2.89,0,0,1-2.34-1.1,5,5,0,0,1-.89-3.17,5.19,5.19,0,0,1,.9-3.28,2.82,2.82,0,0,1,2.29-1.13,2.71,2.71,0,0,1,2.2,1.11,5.05,5.05,0,0,1,.88,3.21v.38H773a3.5,3.5,0,0,0,.65,2.11,1.75,1.75,0,0,0,1.4.71C775.9,331.68,776.5,331.11,776.84,330Zm-3.79-2.28h3.79a3.11,3.11,0,0,0-.46-1.61,1.68,1.68,0,0,0-2.73-.13A2.82,2.82,0,0,0,773.05,327.7Z"/><path class="cls-4" d="M779.45,335.84l-.13-1.32a2.06,2.06,0,0,0,.66.13,1.11,1.11,0,0,0,.6-.15,1.07,1.07,0,0,0,.4-.46q.06-.1.45-1.38l-2.59-8.31h1.25l1.42,4.8c.18.6.34,1.24.49,1.92.13-.64.29-1.27.47-1.89l1.45-4.83h1.16l-2.58,8.44a16.16,16.16,0,0,1-.8,2.19,2.07,2.07,0,0,1-.67.79,1.53,1.53,0,0,1-.84.25A1.85,1.85,0,0,1,779.45,335.84Z"/><path class="cls-4" d="M785.61,328.5a5,5,0,0,1,.9-3.24,2.91,2.91,0,0,1,4.56,0,4.79,4.79,0,0,1,.92,3.15,5.17,5.17,0,0,1-.9,3.33,2.92,2.92,0,0,1-4.57,0A5,5,0,0,1,785.61,328.5Zm1.18,0a4,4,0,0,0,.59,2.39,1.74,1.74,0,0,0,1.45.79,1.67,1.67,0,0,0,1.39-.79,4,4,0,0,0,.59-2.39,4,4,0,0,0-.59-2.39,1.75,1.75,0,0,0-1.45-.79,1.68,1.68,0,0,0-1.4.79A4,4,0,0,0,786.79,328.5Z"/><path class="cls-4" d="M793.34,332.65v-8.3h1v1.17a2.78,2.78,0,0,1,.92-1,2.43,2.43,0,0,1,2.25-.12,2.05,2.05,0,0,1,.75.56,2.36,2.36,0,0,1,.43.9,7.81,7.81,0,0,1,.14,1.71v5.1h-1.15v-5a4,4,0,0,0-.16-1.34,1.27,1.27,0,0,0-1.25-.88A1.58,1.58,0,0,0,795,326a3.45,3.45,0,0,0-.5,2.12v4.54Z"/><path class="cls-4" d="M805.05,332.65v-1a2.36,2.36,0,0,1-.81.92,1.91,1.91,0,0,1-1.06.32,2.57,2.57,0,0,1-2.08-1.14,5.1,5.1,0,0,1-.88-3.2,6.56,6.56,0,0,1,.39-2.4,3.29,3.29,0,0,1,1-1.46,2.38,2.38,0,0,1,1.45-.48,1.94,1.94,0,0,1,1,.3,2.51,2.51,0,0,1,.81.84v-4.1h1.17v11.45Zm-3.65-4.14a4.15,4.15,0,0,0,.56,2.39,1.58,1.58,0,0,0,1.3.78,1.55,1.55,0,0,0,1.27-.75,3.9,3.9,0,0,0,.54-2.27,4.66,4.66,0,0,0-.54-2.54,1.6,1.6,0,0,0-1.36-.8,1.52,1.52,0,0,0-1.25.77A4.37,4.37,0,0,0,801.4,328.51Z"/><path class="cls-4" d="M812.84,332.65l-2.09-8.3h1.19l1.09,4.79.4,1.78.36-1.71,1.08-4.86h1.19l1,4.81.34,1.59.39-1.6,1.16-4.8h1.13l-2.13,8.3h-1.2l-1.08-5-.26-1.41L814,332.65Z"/><path class="cls-4" d="M821.06,332.65V321.2h1.14v4.1a2.82,2.82,0,0,1,.92-.85,2.29,2.29,0,0,1,1.13-.29,2.2,2.2,0,0,1,1.72.7,3.87,3.87,0,0,1,.62,2.53v5.26h-1.14v-5.26a2.45,2.45,0,0,0-.39-1.55,1.27,1.27,0,0,0-1-.46,1.64,1.64,0,0,0-1.28.6,3.28,3.28,0,0,0-.53,2.13v4.54Z"/><path class="cls-4" d="M828.35,322.81V321.2h1.15v1.61Zm0,9.84v-8.3h1.15v8.3Z"/><path class="cls-4" d="M835.72,329.61l1.13.18a3.73,3.73,0,0,1-1,2.26,2.54,2.54,0,0,1-1.88.79,2.67,2.67,0,0,1-2.2-1.1,5.16,5.16,0,0,1-.87-3.25,5.09,5.09,0,0,1,.87-3.24,2.75,2.75,0,0,1,2.24-1.09,2.53,2.53,0,0,1,1.78.66,3.26,3.26,0,0,1,.93,2l-1.12.2a2.39,2.39,0,0,0-.57-1.25,1.32,1.32,0,0,0-1-.42,1.69,1.69,0,0,0-1.41.75,4.12,4.12,0,0,0-.56,2.4,4.29,4.29,0,0,0,.54,2.45,1.59,1.59,0,0,0,1.37.76,1.48,1.48,0,0,0,1.12-.5A2.74,2.74,0,0,0,835.72,329.61Z"/><path class="cls-4" d="M837.83,332.65V321.2H839v4.1a2.73,2.73,0,0,1,.92-.85,2.25,2.25,0,0,1,1.12-.29,2.18,2.18,0,0,1,1.72.7,3.8,3.8,0,0,1,.63,2.53v5.26h-1.15v-5.26a2.52,2.52,0,0,0-.38-1.55,1.3,1.3,0,0,0-1.06-.46,1.66,1.66,0,0,0-1.28.6,3.28,3.28,0,0,0-.52,2.13v4.54Z"/><path class="cls-4" d="M848.78,332.65v-8.3h1v1.16a2.78,2.78,0,0,1,.88-1,2.17,2.17,0,0,1,1.18-.35,1.88,1.88,0,0,1,1.92,1.45,3.16,3.16,0,0,1,.94-1.08,2,2,0,0,1,1.17-.37,1.92,1.92,0,0,1,1.54.67A3.22,3.22,0,0,1,858,327v5.7h-1.15v-5.23a4.19,4.19,0,0,0-.13-1.27,1.17,1.17,0,0,0-.42-.57,1.07,1.07,0,0,0-.65-.2,1.47,1.47,0,0,0-1.22.59,3,3,0,0,0-.47,1.85v4.83h-1.15v-5.4a2.41,2.41,0,0,0-.32-1.45,1,1,0,0,0-.87-.42,1.45,1.45,0,0,0-1.24.63,4.2,4.2,0,0,0-.46,2.33v4.31Z"/><path class="cls-4" d="M864.16,332.65v-1.22a3,3,0,0,1-.94,1.05,2.16,2.16,0,0,1-1.22.36,2.18,2.18,0,0,1-1.37-.44,2.08,2.08,0,0,1-.77-1.1,7.09,7.09,0,0,1-.19-1.81v-5.14h1.15V329a7.06,7.06,0,0,0,.13,1.72,1.32,1.32,0,0,0,.48.69,1.23,1.23,0,0,0,.79.26,1.66,1.66,0,0,0,1.36-.67,3.73,3.73,0,0,0,.45-2.15v-4.45h1.16v8.3Z"/><path class="cls-4" d="M866.56,330.16l1.14-.21a2.07,2.07,0,0,0,.56,1.3,1.94,1.94,0,0,0,2.36.06,1.22,1.22,0,0,0,.4-.94.9.9,0,0,0-.35-.77,4.64,4.64,0,0,0-1.17-.47,8.74,8.74,0,0,1-1.8-.7,2,2,0,0,1-.7-.77,2.36,2.36,0,0,1-.25-1.11,2.31,2.31,0,0,1,.68-1.72,2.58,2.58,0,0,1,1.88-.67,3,3,0,0,1,1.34.28,2,2,0,0,1,.87.73,3.15,3.15,0,0,1,.43,1.32l-1.13.19a1.35,1.35,0,0,0-1.48-1.36,1.71,1.71,0,0,0-1.11.3.94.94,0,0,0-.37.77.87.87,0,0,0,.35.72,6.55,6.55,0,0,0,1.25.5,9.31,9.31,0,0,1,1.86.72,1.87,1.87,0,0,1,.65.74,2.38,2.38,0,0,1,.23,1.1,2.58,2.58,0,0,1-.75,1.93,2.82,2.82,0,0,1-2.06.74C867.76,332.84,866.82,332,866.56,330.16Z"/><path class="cls-4" d="M876.13,331.39l.15,1.24a3.15,3.15,0,0,1-.86.13,1.76,1.76,0,0,1-1-.24,1.24,1.24,0,0,1-.5-.65,6.39,6.39,0,0,1-.14-1.65v-4.77H873v-1.1h.84V322.3l1.15-.85v2.9h1.17v1.1H875v4.85a2.42,2.42,0,0,0,.1.86.58.58,0,0,0,.56.29A2.86,2.86,0,0,0,876.13,331.39Z"/><path class="cls-4" d="M739.91,349.65h-1.07V338.2H740v4.08a2.77,2.77,0,0,1,.83-.84,2,2,0,0,1,1-.28,2.4,2.4,0,0,1,1.45.48,3.26,3.26,0,0,1,1,1.45,6.28,6.28,0,0,1,.39,2.35,5.22,5.22,0,0,1-.88,3.25,2.59,2.59,0,0,1-2.07,1.15,2,2,0,0,1-1.07-.31,2.63,2.63,0,0,1-.81-.92Zm0-4.21a6.18,6.18,0,0,0,.23,1.93,2.13,2.13,0,0,0,.67,1,1.5,1.5,0,0,0,1,.34,1.56,1.56,0,0,0,1.26-.8,4.24,4.24,0,0,0,.55-2.4,4.29,4.29,0,0,0-.53-2.39,1.45,1.45,0,0,0-2.58,0A4.08,4.08,0,0,0,739.89,345.44Z"/><path class="cls-4" d="M750.8,347l1.18.18a3.55,3.55,0,0,1-1.07,2,2.84,2.84,0,0,1-1.93.68,2.89,2.89,0,0,1-2.34-1.1,5,5,0,0,1-.89-3.17,5.19,5.19,0,0,1,.9-3.28,2.82,2.82,0,0,1,2.29-1.13,2.71,2.71,0,0,1,2.2,1.11,5.05,5.05,0,0,1,.88,3.21v.38h-5.08a3.5,3.5,0,0,0,.65,2.11,1.75,1.75,0,0,0,1.4.71C749.86,348.68,750.46,348.11,750.8,347ZM747,344.7h3.79a3.11,3.11,0,0,0-.46-1.61,1.68,1.68,0,0,0-2.73-.13A2.82,2.82,0,0,0,747,344.7Z"/><path class="cls-4" d="M759.66,348.39l.15,1.24a3.1,3.1,0,0,1-.86.13,1.76,1.76,0,0,1-1-.24,1.24,1.24,0,0,1-.5-.65,6.39,6.39,0,0,1-.14-1.65v-4.77h-.84v-1.1h.84V339.3l1.15-.85v2.9h1.17v1.1h-1.17v4.85a2.42,2.42,0,0,0,.1.86.58.58,0,0,0,.56.29A2.86,2.86,0,0,0,759.66,348.39Z"/><path class="cls-4" d="M760.74,349.65V338.2h1.15v4.1a2.82,2.82,0,0,1,.92-.85,2.29,2.29,0,0,1,1.13-.29,2.17,2.17,0,0,1,1.71.7,3.8,3.8,0,0,1,.63,2.53v5.26h-1.15v-5.26a2.52,2.52,0,0,0-.38-1.55,1.28,1.28,0,0,0-1-.46,1.64,1.64,0,0,0-1.28.6,3.28,3.28,0,0,0-.53,2.13v4.54Z"/><path class="cls-4" d="M772.69,347l1.19.18a3.62,3.62,0,0,1-1.08,2,2.83,2.83,0,0,1-1.92.68,2.86,2.86,0,0,1-2.34-1.1,4.89,4.89,0,0,1-.9-3.17,5.19,5.19,0,0,1,.9-3.28,2.82,2.82,0,0,1,2.29-1.13,2.71,2.71,0,0,1,2.2,1.11,5.05,5.05,0,0,1,.88,3.21v.38h-5.08a3.57,3.57,0,0,0,.65,2.11,1.75,1.75,0,0,0,1.4.71C771.75,348.68,772.35,348.11,772.69,347Zm-3.79-2.28h3.8a3.2,3.2,0,0,0-.47-1.61,1.68,1.68,0,0,0-2.73-.13A2.82,2.82,0,0,0,768.9,344.7Z"/><path class="cls-4" d="M779,349.65v-8.3h1v1.26a3.67,3.67,0,0,1,.73-1.16,1.14,1.14,0,0,1,.75-.29,2,2,0,0,1,1.18.46l-.39,1.3a1.49,1.49,0,0,0-.84-.3,1,1,0,0,0-.67.26,1.38,1.38,0,0,0-.43.71,6.79,6.79,0,0,0-.22,1.71v4.35Z"/><path class="cls-4" d="M788,347l1.19.18a3.62,3.62,0,0,1-1.08,2,2.83,2.83,0,0,1-1.92.68,2.86,2.86,0,0,1-2.34-1.1,4.89,4.89,0,0,1-.9-3.17,5.13,5.13,0,0,1,.91-3.28,2.8,2.8,0,0,1,2.28-1.13,2.71,2.71,0,0,1,2.2,1.11,5.05,5.05,0,0,1,.89,3.21v.38h-5.08a3.57,3.57,0,0,0,.65,2.11,1.75,1.75,0,0,0,1.41.71C787.06,348.68,787.66,348.11,788,347Zm-3.79-2.28H788a3.21,3.21,0,0,0-.46-1.61,1.69,1.69,0,0,0-1.42-.77,1.72,1.72,0,0,0-1.32.64A2.88,2.88,0,0,0,784.21,344.7Z"/><path class="cls-4" d="M795.08,348.62a4.23,4.23,0,0,1-1.2.91,3,3,0,0,1-1.3.31,2.31,2.31,0,0,1-1.7-.64,2.37,2.37,0,0,1-.63-1.73,2.62,2.62,0,0,1,.3-1.27,2.27,2.27,0,0,1,.81-.87,4.2,4.2,0,0,1,1.56-.46,8.74,8.74,0,0,0,2.06-.49V344a1.85,1.85,0,0,0-.3-1.2,1.67,1.67,0,0,0-1.32-.5,1.88,1.88,0,0,0-1.21.33,2.21,2.21,0,0,0-.58,1.26l-1.13-.19a3.13,3.13,0,0,1,1-2,3.26,3.26,0,0,1,2.11-.61,3,3,0,0,1,1.68.41,1.75,1.75,0,0,1,.77,1,7.53,7.53,0,0,1,.16,1.74v1.87a24.27,24.27,0,0,0,.07,2.48,3.6,3.6,0,0,0,.3,1h-1.21A3.33,3.33,0,0,1,795.08,348.62Zm-.1-3.14a7.34,7.34,0,0,1-1.88.54,3.33,3.33,0,0,0-1,.28,1.08,1.08,0,0,0-.45.45,1.37,1.37,0,0,0-.16.68,1.27,1.27,0,0,0,.36.95,1.41,1.41,0,0,0,1,.35,2,2,0,0,0,1.12-.32,1.87,1.87,0,0,0,.75-.85A3.78,3.78,0,0,0,795,346Z"/><path class="cls-4" d="M797.91,349.65V338.2h1.14v11.45Z"/><path class="cls-4" d="M805.76,349.65l-2.09-8.3h1.19l1.09,4.79.4,1.78.36-1.71,1.08-4.86H809l1,4.81.34,1.59.39-1.6,1.16-4.8H813l-2.13,8.3h-1.2l-1.08-5-.26-1.41L807,349.65Z"/><path class="cls-4" d="M813.54,345.5a5,5,0,0,1,.9-3.24,2.91,2.91,0,0,1,4.56,0,4.79,4.79,0,0,1,.91,3.15,5.23,5.23,0,0,1-.89,3.33,2.92,2.92,0,0,1-4.57,0A5,5,0,0,1,813.54,345.5Zm1.18,0a4,4,0,0,0,.58,2.39,1.77,1.77,0,0,0,1.46.79,1.69,1.69,0,0,0,1.39-.79,4,4,0,0,0,.58-2.39,4,4,0,0,0-.58-2.39,1.75,1.75,0,0,0-1.45-.79,1.68,1.68,0,0,0-1.4.79A4,4,0,0,0,814.72,345.5Z"/><path class="cls-4" d="M821.27,349.65v-8.3h1v1.26a3.67,3.67,0,0,1,.73-1.16,1.12,1.12,0,0,1,.75-.29,2,2,0,0,1,1.18.46l-.39,1.3a1.49,1.49,0,0,0-.84-.3,1,1,0,0,0-.67.26,1.38,1.38,0,0,0-.43.71,6.79,6.79,0,0,0-.22,1.71v4.35Z"/><path class="cls-4" d="M825.6,349.65V338.2h1.15v11.45Z"/><path class="cls-4" d="M833,349.65v-1a2.42,2.42,0,0,1-.8.92,2,2,0,0,1-1.07.32A2.58,2.58,0,0,1,829,348.7a5.16,5.16,0,0,1-.88-3.2,6.56,6.56,0,0,1,.39-2.4,3.29,3.29,0,0,1,1-1.46,2.4,2.4,0,0,1,1.45-.48,2,2,0,0,1,1.06.3,2.71,2.71,0,0,1,.81.84v-4.1H834v11.45Zm-3.65-4.14a4.15,4.15,0,0,0,.56,2.39,1.6,1.6,0,0,0,1.3.78,1.56,1.56,0,0,0,1.28-.75,3.9,3.9,0,0,0,.54-2.27,4.66,4.66,0,0,0-.54-2.54,1.61,1.61,0,0,0-1.36-.8,1.5,1.5,0,0,0-1.25.77A4.36,4.36,0,0,0,829.31,345.51Z"/><path class="cls-4" d="M836.5,346.8l-.35-6.07V338.2h1.43v2.53l-.33,6.07Zm-.29,2.85v-1.6h1.31v1.6Z"/><path class="cls-4" d="M843.55,349.65V338.2h1.24v11.45Z"/><path class="cls-4" d="M849.36,348.39l.16,1.24a3.21,3.21,0,0,1-.86.13,1.72,1.72,0,0,1-1-.24,1.21,1.21,0,0,1-.51-.65,6.54,6.54,0,0,1-.13-1.65v-4.77h-.85v-1.1h.85V339.3l1.15-.85v2.9h1.16v1.1H848.2v4.85a2.2,2.2,0,0,0,.1.86.56.56,0,0,0,.55.29A2.86,2.86,0,0,0,849.36,348.39Z"/><path class="cls-4" d="M850.36,339.84V338.2h1.24v1.28a4,4,0,0,1-.26,1.64,1.94,1.94,0,0,1-.8.83l-.28-.55c.45-.23.69-.75.71-1.56Z"/><path class="cls-4" d="M852.71,347.16l1.14-.21a2.07,2.07,0,0,0,.56,1.3,1.94,1.94,0,0,0,2.36.06,1.22,1.22,0,0,0,.4-.94.9.9,0,0,0-.35-.77,4.64,4.64,0,0,0-1.17-.47,8.74,8.74,0,0,1-1.8-.7,2,2,0,0,1-.7-.77,2.36,2.36,0,0,1-.25-1.11,2.31,2.31,0,0,1,.68-1.72,2.58,2.58,0,0,1,1.88-.67,3,3,0,0,1,1.34.28,2,2,0,0,1,.87.73,3.15,3.15,0,0,1,.43,1.32l-1.13.19a1.34,1.34,0,0,0-1.47-1.36,1.74,1.74,0,0,0-1.12.3.94.94,0,0,0-.37.77.87.87,0,0,0,.35.72,6.46,6.46,0,0,0,1.26.5,9.4,9.4,0,0,1,1.85.72,1.87,1.87,0,0,1,.65.74,2.38,2.38,0,0,1,.23,1.1,2.58,2.58,0,0,1-.75,1.93,2.82,2.82,0,0,1-2.06.74C853.91,349.84,853,349,852.71,347.16Z"/><path class="cls-4" d="M738.62,367.34l1.13.2a1.43,1.43,0,0,0,.47,1,1.62,1.62,0,0,0,1.08.33,1.67,1.67,0,0,0,1.82-1.45,9.73,9.73,0,0,0,.11-1.84,2.6,2.6,0,0,1-.85.81,2,2,0,0,1-1,.27,2.49,2.49,0,0,1-2-1,5.07,5.07,0,0,1-.92-3.18,6.23,6.23,0,0,1,.4-2.34,3.33,3.33,0,0,1,1.07-1.47,2.51,2.51,0,0,1,1.48-.47,2.09,2.09,0,0,1,1.1.3,2.84,2.84,0,0,1,.88.88v-1h1.06v7.17a8.35,8.35,0,0,1-.31,2.73,2.59,2.59,0,0,1-1,1.29,3,3,0,0,1-1.71.48,2.73,2.73,0,0,1-2-.72A2.61,2.61,0,0,1,738.62,367.34Zm1-5a4.16,4.16,0,0,0,.54,2.39,1.59,1.59,0,0,0,1.32.75,1.61,1.61,0,0,0,1.33-.73,5.21,5.21,0,0,0,0-4.68,1.7,1.7,0,0,0-1.37-.76,1.59,1.59,0,0,0-1.27.76A3.94,3.94,0,0,0,739.58,362.35Z"/><path class="cls-4" d="M745.71,362.5a5,5,0,0,1,.9-3.24,2.91,2.91,0,0,1,4.56,0,4.79,4.79,0,0,1,.92,3.15,5.17,5.17,0,0,1-.9,3.33,2.92,2.92,0,0,1-4.57,0A5,5,0,0,1,745.71,362.5Zm1.18,0a4,4,0,0,0,.59,2.39,1.74,1.74,0,0,0,1.45.79,1.67,1.67,0,0,0,1.39-.79,4,4,0,0,0,.59-2.39,4,4,0,0,0-.59-2.39,1.74,1.74,0,0,0-1.45-.79,1.68,1.68,0,0,0-1.4.79A4,4,0,0,0,746.89,362.5Z"/><path class="cls-4" d="M756,365.39l.15,1.24a3.1,3.1,0,0,1-.86.13,1.71,1.71,0,0,1-1-.24,1.21,1.21,0,0,1-.51-.65,6.54,6.54,0,0,1-.13-1.65v-4.77h-.85v-1.1h.85V356.3l1.14-.85v2.9H756v1.1h-1.17v4.85a2.14,2.14,0,0,0,.11.86.56.56,0,0,0,.55.29A2.86,2.86,0,0,0,756,365.39Z"/><path class="cls-4" d="M759.66,365.39l.15,1.24a3.1,3.1,0,0,1-.86.13,1.76,1.76,0,0,1-1-.24,1.24,1.24,0,0,1-.5-.65,6.39,6.39,0,0,1-.14-1.65v-4.77h-.84v-1.1h.84V356.3l1.15-.85v2.9h1.17v1.1h-1.17v4.85a2.42,2.42,0,0,0,.1.86.58.58,0,0,0,.56.29A2.86,2.86,0,0,0,759.66,365.39Z"/><path class="cls-4" d="M765.17,365.62a4,4,0,0,1-1.2.91,3,3,0,0,1-1.3.31,2.28,2.28,0,0,1-1.69-.64,2.34,2.34,0,0,1-.64-1.73,2.62,2.62,0,0,1,.3-1.27,2.27,2.27,0,0,1,.81-.87,4.33,4.33,0,0,1,1.57-.46,9,9,0,0,0,2.06-.49V361a1.84,1.84,0,0,0-.31-1.2,1.65,1.65,0,0,0-1.32-.5,1.83,1.83,0,0,0-1.2.33,2.21,2.21,0,0,0-.59,1.26l-1.13-.19a3.18,3.18,0,0,1,1-2,3.27,3.27,0,0,1,2.11-.61,3,3,0,0,1,1.68.41,1.67,1.67,0,0,1,.77,1,7,7,0,0,1,.16,1.74v1.87a23.12,23.12,0,0,0,.08,2.48,3.58,3.58,0,0,0,.29,1h-1.2A3.63,3.63,0,0,1,765.17,365.62Zm-.09-3.14a7.34,7.34,0,0,1-1.88.54,3.33,3.33,0,0,0-1,.28,1.21,1.21,0,0,0-.45.45,1.37,1.37,0,0,0-.16.68,1.24,1.24,0,0,0,.37.95,1.37,1.37,0,0,0,1,.35,2,2,0,0,0,1.12-.32,2,2,0,0,0,.76-.85,3.78,3.78,0,0,0,.25-1.56Z"/><path class="cls-4" d="M772.74,366.65h-1.07V355.2h1.16v4.08a2.66,2.66,0,0,1,.83-.84,2,2,0,0,1,1-.28,2.35,2.35,0,0,1,1.44.48,3.2,3.2,0,0,1,1.05,1.45,6.28,6.28,0,0,1,.39,2.35,5.22,5.22,0,0,1-.89,3.25,2.57,2.57,0,0,1-2.06,1.15,2,2,0,0,1-1.07-.31,2.56,2.56,0,0,1-.82-.92Zm0-4.21a5.85,5.85,0,0,0,.24,1.93,2.13,2.13,0,0,0,.67,1,1.46,1.46,0,0,0,1,.34,1.56,1.56,0,0,0,1.27-.8,5.58,5.58,0,0,0,0-4.79,1.58,1.58,0,0,0-1.31-.77,1.56,1.56,0,0,0-1.27.8A4,4,0,0,0,772.72,362.44Z"/><path class="cls-4" d="M783.63,364l1.19.18a3.67,3.67,0,0,1-1.07,2,2.84,2.84,0,0,1-1.93.68,2.89,2.89,0,0,1-2.34-1.1,4.89,4.89,0,0,1-.89-3.17,5.19,5.19,0,0,1,.9-3.28,2.8,2.8,0,0,1,2.28-1.13,2.72,2.72,0,0,1,2.21,1.11,5.05,5.05,0,0,1,.88,3.21v.38h-5.08a3.64,3.64,0,0,0,.65,2.11,1.78,1.78,0,0,0,1.41.71C782.69,365.68,783.29,365.11,783.63,364Zm-3.79-2.28h3.8a3.21,3.21,0,0,0-.46-1.61,1.68,1.68,0,0,0-2.73-.13A2.82,2.82,0,0,0,779.84,361.7Z"/><path class="cls-4" d="M786.93,363.8l-.35-6.07V355.2H788v2.53l-.33,6.07Zm-.29,2.85v-1.6H788v1.6Z"/><path class="cls-4" d="M922.62,533.65h-1.16v-9a5.74,5.74,0,0,1-1.07.95,6.55,6.55,0,0,1-1.23.74V525a7.25,7.25,0,0,0,1.68-1.33,5.11,5.11,0,0,0,1-1.54h.75Z"/><path class="cls-4" d="M925.57,530.62l1.15-.19c.24,1.5.85,2.26,1.82,2.26a1.77,1.77,0,0,0,1.37-.67,2.55,2.55,0,0,0,.58-1.73,2.36,2.36,0,0,0-.53-1.62,1.68,1.68,0,0,0-1.3-.61,2.66,2.66,0,0,0-.82.16L928,527l.18,0a1.82,1.82,0,0,0,1.92-1.92,1.84,1.84,0,0,0-.45-1.29,1.46,1.46,0,0,0-2.21,0,2.7,2.7,0,0,0-.58,1.55l-1.15-.25a3.76,3.76,0,0,1,1-2.22,2.66,2.66,0,0,1,3.79.09,3,3,0,0,1,.8,2.13,2.72,2.72,0,0,1-.34,1.38,2.5,2.5,0,0,1-.94.94,2.13,2.13,0,0,1,.92.52,2.53,2.53,0,0,1,.59,1,3.8,3.8,0,0,1,.23,1.34,3.65,3.65,0,0,1-.93,2.58,2.92,2.92,0,0,1-2.23,1,2.73,2.73,0,0,1-2-.87A3.76,3.76,0,0,1,925.57,530.62Z"/><path class="cls-4" d="M937.21,533.65h-1.16v-9a5.74,5.74,0,0,1-1.07.95,6.25,6.25,0,0,1-1.23.74V525a6.85,6.85,0,0,0,1.68-1.33,5.11,5.11,0,0,0,1-1.54h.75Z"/><g class="cls-2"><path class="cls-3" d="M31.73,25.2c.09,2.16-1.45,6.4-.4,8.35,2.53,4.73,6.47,3.21,12.66,4.88-5.19,3.38-16.57,8.81-16.48,14.2S33,56.78,39.8,56.88C41.34,60.39,37,66.3,42,68.7c3.83-1.68,3.24-6.58,4.49-9.25a9.21,9.21,0,0,1-2.61,4.18,228.49,228.49,0,0,0-16.6,78.08,653.29,653.29,0,0,0-3,128.87c3.27,19.65,8.62,38.26,20.06,56.56-1-7.61-1.28-16.3,3.46-23.48.84,1.34.13,2.8.7,4.22a36.67,36.67,0,0,0,6.12.2c3.23,3.65-4,13.3-5.89,17.21,5.27-.08,10.67.12,15.87-.19,1.41-5.62,2.5-9.16,6.89-14.37,3.19-3.78,5.79-7.33,8.8-11.34q8.08-9.66,15.66-19.48,0-3.87,4.28-5.27c.1.83.5,2.43.35,1.65C82.33,327.46,70.22,378.85,59.7,430.86c27.58,3,57.53-12,78.09-22.41-3.67,3.33-12.28,7.29-18.39,8.71,2.39,6.07-4.66,20.13-6.24,24.62s-3.51,17-7.47,22.11a72.36,72.36,0,0,1-8.57-5.17c18.53-11.38,40.09-20.51,59.4-31.27l-3.18.39q-53.85,46.05-75,103L41,639q-22,49.82-5.86,98.66c19.33-36.51,37.31-83.33,92-105.67,7.76-3.17,22-10.73,32.23-10,18.14,1.36,16,19.24,19.16,27.29,8.05-1,18.66-14.32,18.62-19a15.85,15.85,0,0,0-4.67.21q7.18,8,25.32.64l85.65-31.05A2113.27,2113.27,0,0,0,521.94,491"/></g></g></svg>