<svg id="Layer_1" data-name="Layer 1" xmlns="http://www.w3.org/2000/svg" xmlns:xlink="http://www.w3.org/1999/xlink" viewBox="0 0 1080 756"><defs><style>.cls-1,.cls-3{fill:none;}.cls-2{clip-path:url(#clip-path);}.cls-3{stroke:#231f20;stroke-width:0.25px;}.cls-4{fill:#231f20;}</style><clipPath id="clip-path"><rect class="cls-1" width="1080" height="756"/></clipPath></defs><title>Untitled-3</title><g class="cls-2"><g class="cls-2"><line class="cls-3" x1="180" y1="-18.36" x2="180" y2="790.92"/><line class="cls-3" x1="720" y1="-20.88" x2="720" y2="788.4"/><line class="cls-3" x1="359.88" y1="-18.36" x2="359.88" y2="790.92"/><line class="cls-3" x1="899.87" y1="-20.88" x2="899.87" y2="788.4"/><line class="cls-3" x1="-16.92" y1="251.88" x2="1101.6" y2="251.88"/><line class="cls-3" x1="-11.52" y1="504.13" x2="1107" y2="504.13"/><line class="cls-3" x1="540" y1="-19.44" x2="540" y2="789.84"/></g><path class="cls-4" d="M378.6,284.89V273.42h1.06v1.08a2.61,2.61,0,0,1,.87-1,2,2,0,0,1,1.09-.3,2.36,2.36,0,0,1,1.45.48,3.2,3.2,0,0,1,1,1.45,6,6,0,0,1,.4,2.34,5.25,5.25,0,0,1-.89,3.26,2.58,2.58,0,0,1-2.08,1.14,1.89,1.89,0,0,1-1-.27,2.38,2.38,0,0,1-.8-.78v4Zm1-7.28a4.11,4.11,0,0,0,.54,2.37,1.46,1.46,0,0,0,2.58,0,5.62,5.62,0,0,0,0-4.85,1.42,1.42,0,0,0-2.57.06A4.33,4.33,0,0,0,379.65,277.61Z"/><path class="cls-4" d="M385.86,281.71V270.26H387v11.45Z"/><path class="cls-4" d="M393.24,280.69a4.33,4.33,0,0,1-1.2.91,3,3,0,0,1-1.3.3,2.25,2.25,0,0,1-1.69-.64,2.32,2.32,0,0,1-.64-1.73,2.62,2.62,0,0,1,.3-1.27,2.27,2.27,0,0,1,.81-.87,4.54,4.54,0,0,1,1.57-.46,9,9,0,0,0,2.06-.49v-.36a1.81,1.81,0,0,0-.31-1.19,1.62,1.62,0,0,0-1.32-.5,1.85,1.85,0,0,0-1.2.33,2.18,2.18,0,0,0-.59,1.25l-1.13-.19a3.15,3.15,0,0,1,1-1.94,3.22,3.22,0,0,1,2.11-.61,3,3,0,0,1,1.68.4,1.69,1.69,0,0,1,.77,1,6.87,6.87,0,0,1,.16,1.73v1.88a23.12,23.12,0,0,0,.08,2.48,3.51,3.51,0,0,0,.29,1h-1.2A3.48,3.48,0,0,1,393.24,280.69Zm-.09-3.14a7,7,0,0,1-1.88.53,3.27,3.27,0,0,0-1,.29,1.08,1.08,0,0,0-.45.45,1.34,1.34,0,0,0-.16.68,1.22,1.22,0,0,0,.37.94,1.37,1.37,0,0,0,1,.36,2.06,2.06,0,0,0,1.12-.32,2,2,0,0,0,.76-.86,3.7,3.7,0,0,0,.25-1.55Z"/><path class="cls-4" d="M396.07,284.91l-.12-1.32a2.2,2.2,0,0,0,.65.12,1.22,1.22,0,0,0,.61-.14,1.09,1.09,0,0,0,.39-.47c0-.07.19-.53.46-1.37l-2.59-8.31h1.24l1.42,4.8c.18.6.34,1.24.49,1.92.13-.65.29-1.28.47-1.89l1.46-4.83h1.15l-2.58,8.43a14.66,14.66,0,0,1-.8,2.2,2.23,2.23,0,0,1-.66.79,1.53,1.53,0,0,1-.85.24A2.05,2.05,0,0,1,396.07,284.91Z"/><path class="cls-4" d="M402.67,281.71V270.26h1.15v4.11a3,3,0,0,1,.92-.86,2.28,2.28,0,0,1,1.13-.28,2.2,2.2,0,0,1,1.71.69,3.84,3.84,0,0,1,.63,2.54v5.25h-1.15v-5.25a2.5,2.5,0,0,0-.38-1.55,1.31,1.31,0,0,0-1.06-.47,1.62,1.62,0,0,0-1.27.6,3.28,3.28,0,0,0-.53,2.13v4.54Z"/><path class="cls-4" d="M409.53,277.57a5,5,0,0,1,.9-3.25,2.93,2.93,0,0,1,4.56,0,4.8,4.8,0,0,1,.92,3.16,5.17,5.17,0,0,1-.9,3.33,2.93,2.93,0,0,1-4.57,0A4.94,4.94,0,0,1,409.53,277.57Zm1.18,0a4,4,0,0,0,.59,2.4,1.76,1.76,0,0,0,1.45.79,1.69,1.69,0,0,0,1.39-.8,5.14,5.14,0,0,0,0-4.78,1.75,1.75,0,0,0-1.45-.78,1.68,1.68,0,0,0-1.4.79A4,4,0,0,0,410.71,277.56Z"/><path class="cls-4" d="M421.72,281.71V280.5a3,3,0,0,1-.94,1.05,2.35,2.35,0,0,1-2.59-.08,2,2,0,0,1-.76-1.1,6.65,6.65,0,0,1-.2-1.81v-5.14h1.15V278a7.58,7.58,0,0,0,.13,1.71,1.38,1.38,0,0,0,.48.7,1.29,1.29,0,0,0,.79.26,1.66,1.66,0,0,0,1.36-.68,3.71,3.71,0,0,0,.45-2.15v-4.44h1.16v8.29Z"/><path class="cls-4" d="M424.12,279.23l1.15-.22a2,2,0,0,0,.55,1.31,1.69,1.69,0,0,0,1.2.43,1.67,1.67,0,0,0,1.16-.38,1.21,1.21,0,0,0,.41-.94.89.89,0,0,0-.36-.76,4.27,4.27,0,0,0-1.17-.47,8.94,8.94,0,0,1-1.79-.7,2,2,0,0,1-.71-.78,2.44,2.44,0,0,1-.25-1.1,2.34,2.34,0,0,1,.68-1.73,2.61,2.61,0,0,1,1.89-.66,3.13,3.13,0,0,1,1.33.27,2.22,2.22,0,0,1,.88.74,3.2,3.2,0,0,1,.42,1.32l-1.13.19a1.34,1.34,0,0,0-1.47-1.36,1.74,1.74,0,0,0-1.12.3.91.91,0,0,0-.37.76.85.85,0,0,0,.35.72,5.54,5.54,0,0,0,1.26.5,9.9,9.9,0,0,1,1.85.73,1.77,1.77,0,0,1,.65.73,2.39,2.39,0,0,1,.24,1.11,2.61,2.61,0,0,1-.76,1.93,2.82,2.82,0,0,1-2.06.73C425.32,281.9,424.38,281,424.12,279.23Z"/><path class="cls-4" d="M435.77,279l1.19.18a3.6,3.6,0,0,1-1.07,2,3.07,3.07,0,0,1-4.27-.43,4.86,4.86,0,0,1-.89-3.16,5.15,5.15,0,0,1,.9-3.28,2.8,2.8,0,0,1,2.28-1.13,2.72,2.72,0,0,1,2.21,1.11,5.05,5.05,0,0,1,.88,3.21v.37h-5.08a3.62,3.62,0,0,0,.65,2.11,1.76,1.76,0,0,0,1.41.72Q435.26,280.75,435.77,279ZM432,276.77h3.8a3.08,3.08,0,0,0-.46-1.61,1.68,1.68,0,0,0-2.73-.13A2.82,2.82,0,0,0,432,276.77Z"/><path class="cls-4" d="M438.76,281.71v-1.6h1.31v1.6a3.25,3.25,0,0,1-.27,1.46,2,2,0,0,1-.8.81l-.32-.6a1.25,1.25,0,0,0,.53-.56,2.78,2.78,0,0,0,.2-1.11Z"/><path class="cls-4" d="M198.58,276.71V275.4l6.22-3.22v1.4l-4.93,2.47,4.93,2.5V280Z"/><path class="cls-4" d="M210.84,278.67l1.14.18a3.82,3.82,0,0,1-1,2.27,2.61,2.61,0,0,1-1.89.78,2.67,2.67,0,0,1-2.2-1.1,6.52,6.52,0,0,1,0-6.49,2.75,2.75,0,0,1,2.24-1.08,2.52,2.52,0,0,1,1.77.66,3.18,3.18,0,0,1,.93,2l-1.12.21a2.47,2.47,0,0,0-.57-1.26,1.29,1.29,0,0,0-1-.41,1.69,1.69,0,0,0-1.41.75,4,4,0,0,0-.56,2.39,4.45,4.45,0,0,0,.53,2.46,1.64,1.64,0,0,0,1.37.76,1.46,1.46,0,0,0,1.12-.51A2.71,2.71,0,0,0,210.84,278.67Z"/><path class="cls-4" d="M217.38,280.69a4.33,4.33,0,0,1-1.2.91,3,3,0,0,1-1.3.3,2.25,2.25,0,0,1-1.69-.64,2.36,2.36,0,0,1-.64-1.73,2.62,2.62,0,0,1,.3-1.27,2.27,2.27,0,0,1,.81-.87,4.54,4.54,0,0,1,1.57-.46,9,9,0,0,0,2.06-.49v-.36a1.75,1.75,0,0,0-.31-1.19,1.61,1.61,0,0,0-1.32-.5,1.85,1.85,0,0,0-1.2.33,2.18,2.18,0,0,0-.59,1.25l-1.13-.19a3.15,3.15,0,0,1,1-1.94,3.22,3.22,0,0,1,2.11-.61,3,3,0,0,1,1.68.4,1.69,1.69,0,0,1,.77,1,6.87,6.87,0,0,1,.16,1.73v1.88a23.12,23.12,0,0,0,.08,2.48,3.51,3.51,0,0,0,.29,1h-1.2A3.48,3.48,0,0,1,217.38,280.69Zm-.09-3.14a7,7,0,0,1-1.88.53,3.27,3.27,0,0,0-1,.29,1.08,1.08,0,0,0-.45.45,1.34,1.34,0,0,0-.16.68,1.22,1.22,0,0,0,.37.94,1.37,1.37,0,0,0,1,.36,2.1,2.1,0,0,0,1.13-.32,2,2,0,0,0,.75-.86,3.7,3.7,0,0,0,.25-1.55Z"/><path class="cls-4" d="M220.25,281.71v-8.29h1v1.17a2.56,2.56,0,0,1,.92-1,2.24,2.24,0,0,1,1.24-.34,2.44,2.44,0,0,1,1,.21,2,2,0,0,1,1.17,1.47,7.19,7.19,0,0,1,.14,1.7v5.1h-1.15v-5a4.39,4.39,0,0,0-.15-1.34,1.41,1.41,0,0,0-.49-.65,1.34,1.34,0,0,0-.77-.23,1.61,1.61,0,0,0-1.32.62,3.46,3.46,0,0,0-.49,2.12v4.53Z"/><path class="cls-4" d="M229.45,281.71l-2.59-8.29h1.22l1.46,5c.17.56.32,1.12.44,1.67.1-.44.24-1,.42-1.58l1.52-5.06h1.19l-2.59,8.29Z"/><path class="cls-4" d="M238.54,280.69a4.64,4.64,0,0,1-1.2.91,3,3,0,0,1-1.3.3,2.28,2.28,0,0,1-1.7-.64,2.36,2.36,0,0,1-.63-1.73,2.62,2.62,0,0,1,.3-1.27,2.27,2.27,0,0,1,.81-.87,4.4,4.4,0,0,1,1.56-.46,9,9,0,0,0,2.07-.49v-.36a1.81,1.81,0,0,0-.3-1.19,1.63,1.63,0,0,0-1.32-.5,1.88,1.88,0,0,0-1.21.33A2.18,2.18,0,0,0,235,276l-1.13-.19a3.1,3.1,0,0,1,1-1.94,3.2,3.2,0,0,1,2.11-.61,3,3,0,0,1,1.68.4,1.73,1.73,0,0,1,.77,1,6.87,6.87,0,0,1,.16,1.73v1.88a24.27,24.27,0,0,0,.07,2.48,3.53,3.53,0,0,0,.3,1h-1.21A3.49,3.49,0,0,1,238.54,280.69Zm-.09-3.14a7.1,7.1,0,0,1-1.89.53,3.28,3.28,0,0,0-1,.29,1,1,0,0,0-.45.45,1.34,1.34,0,0,0-.16.68,1.25,1.25,0,0,0,.36.94,1.41,1.41,0,0,0,1,.36,2.06,2.06,0,0,0,1.12-.32,2,2,0,0,0,.76-.86,3.86,3.86,0,0,0,.25-1.55Z"/><path class="cls-4" d="M241,279.23l1.15-.22a2.09,2.09,0,0,0,.55,1.31,1.69,1.69,0,0,0,1.2.43,1.65,1.65,0,0,0,1.16-.38,1.21,1.21,0,0,0,.41-.94.91.91,0,0,0-.35-.76,4.27,4.27,0,0,0-1.17-.47,8.84,8.84,0,0,1-1.8-.7,2,2,0,0,1-.7-.78,2.54,2.54,0,0,1,.43-2.83,2.58,2.58,0,0,1,1.88-.66,3.1,3.1,0,0,1,1.33.27,2.16,2.16,0,0,1,.88.74,3.2,3.2,0,0,1,.42,1.32l-1.12.19a1.35,1.35,0,0,0-1.48-1.36,1.76,1.76,0,0,0-1.12.3.93.93,0,0,0-.36.76.82.82,0,0,0,.35.72,5.38,5.38,0,0,0,1.25.5,9.9,9.9,0,0,1,1.85.73,1.87,1.87,0,0,1,.66.73,2.53,2.53,0,0,1,.23,1.11,2.61,2.61,0,0,1-.75,1.93,2.84,2.84,0,0,1-2.06.73C242.17,281.9,241.22,281,241,279.23Z"/><path class="cls-4" d="M254,276.71,247.82,280v-1.4l4.93-2.5-4.93-2.47v-1.4L254,275.4Z"/><path class="cls-4" d="M204.5,525l-1.15.11a2.8,2.8,0,0,0-.48-1.25,1.43,1.43,0,0,0-1.11-.55,1.82,1.82,0,0,0-1.61,1.25,7.57,7.57,0,0,0-.53,3.19,2.85,2.85,0,0,1,1-1.13,2.28,2.28,0,0,1,1.27-.39,2.46,2.46,0,0,1,2,1,4.18,4.18,0,0,1,.83,2.71,5,5,0,0,1-.42,2.08,3.13,3.13,0,0,1-1.07,1.38,2.5,2.5,0,0,1-1.45.44,2.77,2.77,0,0,1-2.34-1.28,7.55,7.55,0,0,1-.92-4.27,8.86,8.86,0,0,1,.94-4.73,2.83,2.83,0,0,1,2.42-1.41,2.41,2.41,0,0,1,1.79.73A3.42,3.42,0,0,1,204.5,525Zm-4.7,5a3.14,3.14,0,0,0,.58,2,1.69,1.69,0,0,0,1.36.76A1.53,1.53,0,0,0,203,532a3.26,3.26,0,0,0,.53-2,3,3,0,0,0-.53-1.89,1.59,1.59,0,0,0-1.3-.67,1.63,1.63,0,0,0-1.3.67A2.69,2.69,0,0,0,199.8,529.94Z"/><path class="cls-4" d="M211.9,532.3v1.35h-6.21a3.88,3.88,0,0,1,.49-1.84,10.18,10.18,0,0,1,1.91-2.4,13.49,13.49,0,0,0,2.11-2.49,3.28,3.28,0,0,0,.5-1.64,2,2,0,0,0-.51-1.42,1.73,1.73,0,0,0-2.58,0,2.57,2.57,0,0,0-.52,1.71l-1.18-.15a3.85,3.85,0,0,1,.93-2.48,2.85,2.85,0,0,1,2.13-.83,2.54,2.54,0,0,1,2.17,1,3.48,3.48,0,0,1,.74,2.2,4.11,4.11,0,0,1-.58,2.1,15.13,15.13,0,0,1-2.19,2.67c-.69.71-1.13,1.19-1.33,1.44a4.12,4.12,0,0,0-.49.77Z"/><path class="cls-4" d="M558.41,279.23l1.14-.22a2.1,2.1,0,0,0,.56,1.31,1.69,1.69,0,0,0,1.2.43,1.67,1.67,0,0,0,1.16-.38,1.21,1.21,0,0,0,.41-.94.89.89,0,0,0-.36-.76,4.27,4.27,0,0,0-1.17-.47,9.38,9.38,0,0,1-1.8-.7,2.1,2.1,0,0,1-.7-.78,2.54,2.54,0,0,1,.43-2.83,2.58,2.58,0,0,1,1.88-.66,3.14,3.14,0,0,1,1.34.27,2.22,2.22,0,0,1,.88.74,3.2,3.2,0,0,1,.42,1.32l-1.13.19a1.34,1.34,0,0,0-1.47-1.36,1.74,1.74,0,0,0-1.12.3.91.91,0,0,0-.37.76.85.85,0,0,0,.35.72,5.33,5.33,0,0,0,1.26.5,9.9,9.9,0,0,1,1.85.73,1.77,1.77,0,0,1,.65.73,2.39,2.39,0,0,1,.23,1.11,2.61,2.61,0,0,1-.75,1.93,2.82,2.82,0,0,1-2.06.73C559.61,281.9,558.67,281,558.41,279.23Z"/><path class="cls-4" d="M569.84,280.69a4.33,4.33,0,0,1-1.2.91,3,3,0,0,1-1.3.3,2.26,2.26,0,0,1-1.69-.64,2.36,2.36,0,0,1-.63-1.73,2.62,2.62,0,0,1,.29-1.27,2.27,2.27,0,0,1,.81-.87,4.54,4.54,0,0,1,1.57-.46,9,9,0,0,0,2.06-.49v-.36a1.75,1.75,0,0,0-.31-1.19,1.61,1.61,0,0,0-1.32-.5,1.87,1.87,0,0,0-1.2.33,2.18,2.18,0,0,0-.59,1.25l-1.13-.19a3.15,3.15,0,0,1,1-1.94,3.22,3.22,0,0,1,2.11-.61,3,3,0,0,1,1.68.4,1.69,1.69,0,0,1,.77,1,6.87,6.87,0,0,1,.16,1.73v1.88a23.12,23.12,0,0,0,.08,2.48,3.87,3.87,0,0,0,.29,1h-1.2A3.48,3.48,0,0,1,569.84,280.69Zm-.09-3.14a7,7,0,0,1-1.88.53,3.27,3.27,0,0,0-1,.29,1.08,1.08,0,0,0-.45.45,1.45,1.45,0,0,0-.16.68,1.22,1.22,0,0,0,.37.94,1.37,1.37,0,0,0,1,.36,2.1,2.1,0,0,0,1.13-.32,2,2,0,0,0,.75-.86,3.7,3.7,0,0,0,.25-1.55Z"/><path class="cls-4" d="M572.71,281.71v-8.29h1v1.17a2.56,2.56,0,0,1,.92-1,2.24,2.24,0,0,1,1.24-.34,2.44,2.44,0,0,1,1,.21,2,2,0,0,1,1.17,1.47,7.19,7.19,0,0,1,.14,1.7v5.1h-1.14v-5a4.32,4.32,0,0,0-.16-1.34,1.3,1.3,0,0,0-1.26-.88,1.61,1.61,0,0,0-1.32.62,3.46,3.46,0,0,0-.49,2.12v4.53Z"/><path class="cls-4" d="M584.41,281.71v-1a2.23,2.23,0,0,1-.8.91,1.86,1.86,0,0,1-1.06.32,2.6,2.6,0,0,1-2.09-1.14,5.13,5.13,0,0,1-.87-3.19,6.48,6.48,0,0,1,.39-2.4,3.11,3.11,0,0,1,1-1.46,2.35,2.35,0,0,1,1.44-.48,2,2,0,0,1,1.06.3,2.33,2.33,0,0,1,.81.84v-4.11h1.16v11.45Zm-3.64-4.14a4.14,4.14,0,0,0,.55,2.39,1.62,1.62,0,0,0,1.31.79,1.55,1.55,0,0,0,1.27-.75,3.9,3.9,0,0,0,.54-2.27,4.63,4.63,0,0,0-.54-2.54,1.58,1.58,0,0,0-1.36-.8,1.49,1.49,0,0,0-1.25.77A4.33,4.33,0,0,0,580.77,277.57Z"/><path class="cls-4" d="M588.36,281.71h-1.07V270.26h1.16v4.09a2.47,2.47,0,0,1,.83-.84,1.92,1.92,0,0,1,1-.28,2.38,2.38,0,0,1,1.45.48,3.15,3.15,0,0,1,1,1.44,6.11,6.11,0,0,1,.4,2.35,5.25,5.25,0,0,1-.89,3.26,2.57,2.57,0,0,1-2.06,1.14,1.87,1.87,0,0,1-1.07-.31,2.48,2.48,0,0,1-.82-.92Zm0-4.21a5.81,5.81,0,0,0,.24,1.93,2.1,2.1,0,0,0,.66,1,1.56,1.56,0,0,0,1,.34,1.54,1.54,0,0,0,1.26-.81,5.49,5.49,0,0,0,0-4.79,1.55,1.55,0,0,0-1.31-.76,1.57,1.57,0,0,0-1.27.8A4,4,0,0,0,588.34,277.5Z"/><path class="cls-4" d="M594.16,277.57a5,5,0,0,1,.91-3.25,2.92,2.92,0,0,1,4.55,0,4.8,4.8,0,0,1,.92,3.16,5.17,5.17,0,0,1-.9,3.33,2.93,2.93,0,0,1-4.57,0A5,5,0,0,1,594.16,277.57Zm1.18,0a4,4,0,0,0,.59,2.4,1.76,1.76,0,0,0,1.45.79,1.72,1.72,0,0,0,1.4-.8,5.17,5.17,0,0,0,0-4.78,1.75,1.75,0,0,0-1.45-.78,1.69,1.69,0,0,0-1.4.79A4,4,0,0,0,595.34,277.56Z"/><path class="cls-4" d="M601.15,281.71l2.48-4.3-2.29-4h1.44l1,1.94.48.93c.19-.35.37-.65.52-.9l1.14-2h1.38L605,277.31l2.53,4.4H606.1l-1.4-2.58-.36-.69-1.79,3.27Z"/><path class="cls-4" d="M608.8,281.71v-1.6h1.31v1.6a3.25,3.25,0,0,1-.27,1.46,2,2,0,0,1-.8.81l-.32-.6a1.25,1.25,0,0,0,.53-.56,3,3,0,0,0,.2-1.11Z"/><path class="cls-4" d="M558.28,531.16l1.15-.21a2.06,2.06,0,0,0,.55,1.3,1.94,1.94,0,0,0,2.36.06,1.23,1.23,0,0,0,.41-.94.93.93,0,0,0-.35-.77,4.64,4.64,0,0,0-1.17-.47,8.28,8.28,0,0,1-1.8-.7,1.93,1.93,0,0,1-.7-.77,2.36,2.36,0,0,1-.25-1.11,2.28,2.28,0,0,1,.68-1.72,2.58,2.58,0,0,1,1.88-.67,3,3,0,0,1,1.33.28,2.06,2.06,0,0,1,.88.73,3.3,3.3,0,0,1,.42,1.32l-1.12.19a1.35,1.35,0,0,0-1.48-1.36,1.76,1.76,0,0,0-1.12.3,1,1,0,0,0-.36.77.85.85,0,0,0,.35.72,6.55,6.55,0,0,0,1.25.5,9.4,9.4,0,0,1,1.85.72,1.89,1.89,0,0,1,.66.74,2.51,2.51,0,0,1,.23,1.1,2.58,2.58,0,0,1-.75,1.93,2.84,2.84,0,0,1-2.06.74C559.49,533.84,558.54,533,558.28,531.16Z"/><path class="cls-4" d="M565.29,533.65v-8.3h1v1.17a2.76,2.76,0,0,1,.91-1,2.39,2.39,0,0,1,1.25-.34,2.44,2.44,0,0,1,1,.22,2.05,2.05,0,0,1,.75.56,2.21,2.21,0,0,1,.42.9,7.23,7.23,0,0,1,.14,1.71v5.1h-1.15v-5a4.34,4.34,0,0,0-.15-1.34,1.36,1.36,0,0,0-.49-.65,1.27,1.27,0,0,0-.77-.23,1.6,1.6,0,0,0-1.32.61,3.46,3.46,0,0,0-.49,2.12v4.54Z"/><path class="cls-4" d="M572.15,529.5a5,5,0,0,1,.9-3.24,2.91,2.91,0,0,1,4.56,0,4.79,4.79,0,0,1,.91,3.15,5.17,5.17,0,0,1-.9,3.33,2.91,2.91,0,0,1-4.56,0A5,5,0,0,1,572.15,529.5Zm1.18,0a4,4,0,0,0,.58,2.39,1.75,1.75,0,0,0,1.46.79,1.69,1.69,0,0,0,1.39-.79,4,4,0,0,0,.58-2.39,4,4,0,0,0-.58-2.39,1.75,1.75,0,0,0-1.46-.79,1.67,1.67,0,0,0-1.39.79A4,4,0,0,0,573.33,529.5Z"/><path class="cls-4" d="M581.14,533.65l-2.09-8.3h1.19l1.08,4.79.4,1.78.36-1.71,1.08-4.86h1.19l1,4.81.35,1.59.39-1.6,1.16-4.8h1.12l-2.12,8.3h-1.2l-1.09-5-.26-1.41-1.37,6.38Z"/><path class="cls-4" d="M592.77,534.34l1.13.2a1.43,1.43,0,0,0,.47,1,1.62,1.62,0,0,0,1.08.33,1.88,1.88,0,0,0,1.21-.36,1.91,1.91,0,0,0,.61-1.09,9.73,9.73,0,0,0,.11-1.84,2.81,2.81,0,0,1-.85.81,2,2,0,0,1-1,.27,2.47,2.47,0,0,1-2-1,5,5,0,0,1-.92-3.18,6.23,6.23,0,0,1,.4-2.34,3.26,3.26,0,0,1,1.07-1.47,2.51,2.51,0,0,1,1.48-.47,2.09,2.09,0,0,1,1.1.3,2.84,2.84,0,0,1,.88.88v-1h1.06v7.17a8.64,8.64,0,0,1-.31,2.73,2.59,2.59,0,0,1-1,1.29,3,3,0,0,1-1.71.48,2.72,2.72,0,0,1-2-.72A2.61,2.61,0,0,1,592.77,534.34Zm1-5a4.16,4.16,0,0,0,.54,2.39,1.59,1.59,0,0,0,1.32.75,1.61,1.61,0,0,0,1.33-.73,5.21,5.21,0,0,0,0-4.68,1.7,1.7,0,0,0-1.37-.76,1.56,1.56,0,0,0-1.27.76A3.94,3.94,0,0,0,593.73,529.35Z"/><path class="cls-4" d="M600.26,533.65V522.2h1.15v11.45Z"/><path class="cls-4" d="M602.77,529.5a5,5,0,0,1,.91-3.24,2.9,2.9,0,0,1,4.55,0,4.79,4.79,0,0,1,.92,3.15,5.17,5.17,0,0,1-.9,3.33,2.92,2.92,0,0,1-4.57,0A5,5,0,0,1,602.77,529.5Zm1.18,0a4,4,0,0,0,.59,2.39,1.74,1.74,0,0,0,1.45.79,1.7,1.7,0,0,0,1.4-.79,4.11,4.11,0,0,0,.58-2.39,4,4,0,0,0-.59-2.39,1.74,1.74,0,0,0-1.45-.79,1.69,1.69,0,0,0-1.4.79A4.08,4.08,0,0,0,604,529.5Z"/><path class="cls-4" d="M611.56,533.65h-1.07V522.2h1.16v4.08a2.66,2.66,0,0,1,.83-.84,2,2,0,0,1,1-.28,2.35,2.35,0,0,1,1.44.48,3.2,3.2,0,0,1,1,1.45,6.28,6.28,0,0,1,.39,2.35,5.22,5.22,0,0,1-.89,3.25,2.57,2.57,0,0,1-2.06,1.15,2,2,0,0,1-1.07-.31,2.56,2.56,0,0,1-.82-.92Zm0-4.21a5.85,5.85,0,0,0,.24,1.93,2.13,2.13,0,0,0,.67,1,1.46,1.46,0,0,0,.95.34,1.56,1.56,0,0,0,1.27-.8,4.24,4.24,0,0,0,.55-2.4,4.29,4.29,0,0,0-.53-2.39,1.58,1.58,0,0,0-1.31-.77,1.56,1.56,0,0,0-1.27.8A4,4,0,0,0,611.54,529.44Z"/><path class="cls-4" d="M622.45,531l1.19.18a3.67,3.67,0,0,1-1.07,2,2.84,2.84,0,0,1-1.93.68,2.89,2.89,0,0,1-2.34-1.1,4.89,4.89,0,0,1-.89-3.17,5.19,5.19,0,0,1,.9-3.28,2.8,2.8,0,0,1,2.28-1.13,2.72,2.72,0,0,1,2.21,1.11,5.05,5.05,0,0,1,.88,3.21v.38h-5.08a3.64,3.64,0,0,0,.65,2.11,1.78,1.78,0,0,0,1.41.71C621.51,532.68,622.11,532.11,622.45,531Zm-3.79-2.28h3.8a3.21,3.21,0,0,0-.46-1.61,1.68,1.68,0,0,0-2.73-.13A2.82,2.82,0,0,0,618.66,528.7Z"/><path class="cls-4" d="M625.44,533.65v-1.6h1.31v1.6a3.28,3.28,0,0,1-.27,1.46,1.87,1.87,0,0,1-.8.8l-.32-.6a1.2,1.2,0,0,0,.53-.56,2.69,2.69,0,0,0,.2-1.1Z"/><path class="cls-4" d="M636.8,533.65v-1a2.26,2.26,0,0,1-.8.92,1.94,1.94,0,0,1-1.06.32,2.57,2.57,0,0,1-2.08-1.14,5.1,5.1,0,0,1-.88-3.2,6.56,6.56,0,0,1,.39-2.4,3.22,3.22,0,0,1,1-1.46,2.35,2.35,0,0,1,1.44-.48,2,2,0,0,1,1.06.3,2.51,2.51,0,0,1,.81.84v-4.1h1.16v11.45Zm-3.64-4.14a4.16,4.16,0,0,0,.55,2.39,1.61,1.61,0,0,0,1.31.78,1.55,1.55,0,0,0,1.27-.75,3.9,3.9,0,0,0,.54-2.27,4.66,4.66,0,0,0-.54-2.54,1.6,1.6,0,0,0-1.36-.8,1.52,1.52,0,0,0-1.25.77A4.37,4.37,0,0,0,633.16,529.51Z"/><path class="cls-4" d="M639.26,529.5a5,5,0,0,1,.9-3.24,2.91,2.91,0,0,1,4.56,0,4.79,4.79,0,0,1,.91,3.15,5.17,5.17,0,0,1-.9,3.33,2.91,2.91,0,0,1-4.56,0A5,5,0,0,1,639.26,529.5Zm1.18,0a4,4,0,0,0,.58,2.39,1.75,1.75,0,0,0,1.46.79,1.69,1.69,0,0,0,1.39-.79,4,4,0,0,0,.58-2.39,4,4,0,0,0-.58-2.39,1.75,1.75,0,0,0-1.46-.79,1.67,1.67,0,0,0-1.39.79A4,4,0,0,0,640.44,529.5Z"/><path class="cls-4" d="M647,533.65v-8.3h1v1.16a2.69,2.69,0,0,1,.88-1,2.15,2.15,0,0,1,1.18-.35,2,2,0,0,1,1.21.37,2,2,0,0,1,.71,1.08,3.06,3.06,0,0,1,.94-1.08,2,2,0,0,1,1.17-.37,1.92,1.92,0,0,1,1.54.67,3.22,3.22,0,0,1,.57,2.12v5.7h-1.15v-5.23a4.19,4.19,0,0,0-.13-1.27,1.17,1.17,0,0,0-.42-.57,1.09,1.09,0,0,0-.65-.2,1.47,1.47,0,0,0-1.22.59,2.91,2.91,0,0,0-.47,1.85v4.83H651v-5.4a2.48,2.48,0,0,0-.32-1.45,1,1,0,0,0-.87-.42,1.45,1.45,0,0,0-1.24.63,4.2,4.2,0,0,0-.46,2.33v4.31Z"/><path class="cls-4" d="M662.57,531l1.19.18a3.62,3.62,0,0,1-1.08,2,2.82,2.82,0,0,1-1.92.68,2.86,2.86,0,0,1-2.34-1.1,4.89,4.89,0,0,1-.9-3.17,5.13,5.13,0,0,1,.91-3.28,2.8,2.8,0,0,1,2.28-1.13,2.69,2.69,0,0,1,2.2,1.11,5.05,5.05,0,0,1,.89,3.21v.38h-5.08a3.57,3.57,0,0,0,.65,2.11,1.77,1.77,0,0,0,1.41.71C661.63,532.68,662.23,532.11,662.57,531Zm-3.79-2.28h3.8a3.21,3.21,0,0,0-.46-1.61,1.69,1.69,0,0,0-1.42-.77,1.72,1.72,0,0,0-1.32.64A2.88,2.88,0,0,0,658.78,528.7Z"/><path class="cls-4" d="M665.58,533.65v-1.6h1.31v1.6Z"/><path class="cls-4" d="M738.64,528.51v-1.3l6.22-3.22v1.39l-4.93,2.48,4.93,2.49v1.4Z"/><path class="cls-4" d="M745.59,533.71l2.72-11.84h.94l-2.73,11.84Z"/><path class="cls-4" d="M754.55,530.48l1.13.18a3.73,3.73,0,0,1-1,2.26,2.54,2.54,0,0,1-1.88.79,2.68,2.68,0,0,1-2.2-1.1,5.16,5.16,0,0,1-.87-3.25,5,5,0,0,1,.88-3.24,2.71,2.71,0,0,1,2.23-1.09,2.53,2.53,0,0,1,1.78.66,3.26,3.26,0,0,1,.93,2l-1.12.2a2.39,2.39,0,0,0-.57-1.25,1.32,1.32,0,0,0-1-.42,1.71,1.71,0,0,0-1.41.75,4.12,4.12,0,0,0-.56,2.4,4.29,4.29,0,0,0,.54,2.45,1.61,1.61,0,0,0,1.37.76,1.48,1.48,0,0,0,1.12-.5A2.74,2.74,0,0,0,754.55,530.48Z"/><path class="cls-4" d="M761.09,532.5a4.24,4.24,0,0,1-1.2.9,3,3,0,0,1-1.3.31,2.28,2.28,0,0,1-1.69-.64,2.34,2.34,0,0,1-.64-1.73,2.62,2.62,0,0,1,.3-1.27,2.27,2.27,0,0,1,.81-.87,4.33,4.33,0,0,1,1.56-.46,9,9,0,0,0,2.07-.49v-.36a1.85,1.85,0,0,0-.3-1.2,1.67,1.67,0,0,0-1.32-.5,1.83,1.83,0,0,0-1.2.33,2.21,2.21,0,0,0-.59,1.26l-1.13-.19a3.18,3.18,0,0,1,1-2,3.26,3.26,0,0,1,2.11-.61,3,3,0,0,1,1.68.41,1.74,1.74,0,0,1,.77,1,7,7,0,0,1,.16,1.74V530a23.12,23.12,0,0,0,.08,2.48,3.58,3.58,0,0,0,.29,1h-1.2A3.64,3.64,0,0,1,761.09,532.5Zm-.09-3.15a7.31,7.31,0,0,1-1.89.54,3.33,3.33,0,0,0-1,.28,1.21,1.21,0,0,0-.45.45,1.37,1.37,0,0,0-.16.68,1.24,1.24,0,0,0,.37,1,1.37,1.37,0,0,0,1,.35,2,2,0,0,0,1.12-.32,2,2,0,0,0,.76-.85,4,4,0,0,0,.25-1.56Z"/><path class="cls-4" d="M764,533.52v-8.3h1v1.17a2.76,2.76,0,0,1,.91-1,2.36,2.36,0,0,1,1.25-.34,2.44,2.44,0,0,1,1,.22,2.05,2.05,0,0,1,.75.56,2.21,2.21,0,0,1,.42.9,7.81,7.81,0,0,1,.14,1.71v5.1h-1.15v-5a4.34,4.34,0,0,0-.15-1.34,1.36,1.36,0,0,0-.49-.65,1.27,1.27,0,0,0-.77-.23,1.6,1.6,0,0,0-1.32.61,3.46,3.46,0,0,0-.49,2.12v4.54Z"/><path class="cls-4" d="M773.16,533.52l-2.59-8.3h1.22l1.46,5c.17.56.31,1.12.44,1.67.1-.44.24-1,.42-1.58l1.52-5.06h1.19l-2.59,8.3Z"/><path class="cls-4" d="M782.25,532.5a4.27,4.27,0,0,1-1.21.9,2.92,2.92,0,0,1-1.29.31,2.31,2.31,0,0,1-1.7-.64,2.37,2.37,0,0,1-.63-1.73,2.62,2.62,0,0,1,.3-1.27,2.13,2.13,0,0,1,.81-.87,4.2,4.2,0,0,1,1.56-.46,8.74,8.74,0,0,0,2.06-.49v-.36a1.85,1.85,0,0,0-.3-1.2,1.67,1.67,0,0,0-1.32-.5,1.88,1.88,0,0,0-1.21.33,2.21,2.21,0,0,0-.58,1.26l-1.14-.19a3.23,3.23,0,0,1,1-2,3.3,3.3,0,0,1,2.12-.61,3,3,0,0,1,1.68.41,1.79,1.79,0,0,1,.77,1,7.53,7.53,0,0,1,.16,1.74V530a24.27,24.27,0,0,0,.07,2.48,3.94,3.94,0,0,0,.29,1h-1.2A3.33,3.33,0,0,1,782.25,532.5Zm-.1-3.15a7.34,7.34,0,0,1-1.88.54,3.51,3.51,0,0,0-1,.28,1.12,1.12,0,0,0-.44.45,1.37,1.37,0,0,0-.16.68,1.27,1.27,0,0,0,.36,1,1.41,1.41,0,0,0,1,.35,2,2,0,0,0,1.12-.32,1.87,1.87,0,0,0,.75-.85,3.78,3.78,0,0,0,.25-1.56Z"/><path class="cls-4" d="M784.67,531l1.15-.21a2,2,0,0,0,.55,1.3,1.94,1.94,0,0,0,2.36.06,1.23,1.23,0,0,0,.41-.94.93.93,0,0,0-.35-.77,5,5,0,0,0-1.18-.47,8.35,8.35,0,0,1-1.79-.7,2,2,0,0,1-.71-.77,2.48,2.48,0,0,1-.25-1.11,2.31,2.31,0,0,1,.68-1.72,2.61,2.61,0,0,1,1.89-.67,3,3,0,0,1,1.33.28,2.13,2.13,0,0,1,.88.73,3.3,3.3,0,0,1,.42,1.32l-1.13.19a1.34,1.34,0,0,0-1.47-1.36,1.76,1.76,0,0,0-1.12.3,1,1,0,0,0-.37.77.86.86,0,0,0,.36.72,6.25,6.25,0,0,0,1.25.5,9.4,9.4,0,0,1,1.85.72,1.8,1.8,0,0,1,.65.74,2.38,2.38,0,0,1,.24,1.1,2.55,2.55,0,0,1-.76,1.93,2.81,2.81,0,0,1-2.06.74C785.88,533.71,784.93,532.82,784.67,531Z"/><path class="cls-4" d="M797.75,528.51l-6.22,3.24v-1.4l4.93-2.49-4.93-2.48V524l6.22,3.22Z"/><path class="cls-4" d="M744.5,21l-1.15.11a2.8,2.8,0,0,0-.48-1.26,1.42,1.42,0,0,0-1.11-.54,1.82,1.82,0,0,0-1.61,1.25,7.54,7.54,0,0,0-.53,3.19,3,3,0,0,1,1-1.14,2.28,2.28,0,0,1,1.27-.39,2.45,2.45,0,0,1,2,1,4.13,4.13,0,0,1,.83,2.7,5,5,0,0,1-.42,2.08,3,3,0,0,1-1.07,1.38,2.51,2.51,0,0,1-1.45.45,2.79,2.79,0,0,1-2.34-1.28,7.59,7.59,0,0,1-.92-4.28,8.86,8.86,0,0,1,.94-4.73,2.83,2.83,0,0,1,2.42-1.41,2.44,2.44,0,0,1,1.79.73A3.45,3.45,0,0,1,744.5,21Zm-4.7,4.94a3.17,3.17,0,0,0,.58,2,1.71,1.71,0,0,0,1.36.75A1.51,1.51,0,0,0,743,28a3.2,3.2,0,0,0,.53-1.95,3,3,0,0,0-.53-1.89,1.59,1.59,0,0,0-1.3-.67,1.65,1.65,0,0,0-1.3.66A2.7,2.7,0,0,0,739.8,25.94Z"/><path class="cls-4" d="M745.82,26.62l1.15-.19c.24,1.51.85,2.26,1.82,2.26a1.74,1.74,0,0,0,1.37-.67,2.51,2.51,0,0,0,.58-1.73,2.32,2.32,0,0,0-.53-1.61,1.65,1.65,0,0,0-1.3-.61,2.93,2.93,0,0,0-.82.15l.14-1.23h.18a1.82,1.82,0,0,0,1.92-1.91,1.81,1.81,0,0,0-.45-1.29,1.41,1.41,0,0,0-1.09-.49,1.44,1.44,0,0,0-1.12.51,2.73,2.73,0,0,0-.58,1.55l-1.15-.25a3.76,3.76,0,0,1,1-2.22,2.65,2.65,0,0,1,3.79.1,3,3,0,0,1,.8,2.12,2.72,2.72,0,0,1-.34,1.38,2.52,2.52,0,0,1-.94.95,2,2,0,0,1,.92.51,2.53,2.53,0,0,1,.59,1,3.8,3.8,0,0,1,.23,1.34,3.66,3.66,0,0,1-.93,2.59,3,3,0,0,1-2.23,1,2.7,2.7,0,0,1-2-.88A3.73,3.73,0,0,1,745.82,26.62Z"/><g class="cls-2"><path class="cls-3" d="M39.77,21.38v.2l.38.31-.19.65v4.09l-.19.36L40,28.07v.52l-.43,26.87.31.67v.2L39.53,58v6.66l.31,1.7v2.26l-.31.42v.71l-.29.89v3.55l.45.17v5.26s.21,0,.21.08V81l-.21.15v.65l.46,2.06v1.5c0,.08-.25.14-.25.3v.22l-.43,14.87s.22-.12.22.07V113l-.45,2.1s-.12-.95,0,.16.43.6.43.6v3.72"/></g><polyline class="cls-3" points="271.57 20.02 275.96 23.47 273.77 34.01 275.96 59.9 284.82 102.99 284.82 110.19 284.82 113.03 284.82 114.89"/><polyline class="cls-3" points="281.72 116.67 207.42 116.81 280.69 116.92 284.82 116.93"/><polyline class="cls-3" points="274.26 20.81 274.26 41.27 278.23 48.9"/><g class="cls-2"><path class="cls-3" d="M39.68,21.16h68L202,19.93l7.2.61s5-.61,6.24-.61h58.67"/><path class="cls-3" d="M38.93,108l-1.2-47.63V52.22a3.16,3.16,0,0,1,0-2.67l-.26-8.17"/><path class="cls-3" d="M31.67,101.47a14.21,14.21,0,0,1-2.09-.07c-2.31-.39,2.16-1.1,2.91-1.24,4.74-.87,10.16-1.57,15.27-2.29,1.08-.15,11.57-1.9,12.16-1.62"/><path class="cls-3" d="M141,148.45c-3,0-6.08,0-9.12,0q-4.33,0-8.49.19c-.77.06-1.57.09-2.4.1"/><path class="cls-3" d="M56.93,126.35S77.18,125,84,126.14"/></g></g></svg>