<svg id="Layer_1" data-name="Layer 1" xmlns="http://www.w3.org/2000/svg" xmlns:xlink="http://www.w3.org/1999/xlink" viewBox="0 0 1080 756"><defs><style>.cls-1,.cls-3{fill:none;}.cls-2{clip-path:url(#clip-path);}.cls-3{stroke:#231f20;stroke-width:0.25px;}.cls-4{fill:#231f20;}</style><clipPath id="clip-path"><rect class="cls-1" width="1080" height="756"/></clipPath></defs><title>Untitled-3</title><g class="cls-2"><g class="cls-2"><line class="cls-3" x1="180" y1="-18.36" x2="180" y2="790.92"/><line class="cls-3" x1="720" y1="-20.88" x2="720" y2="788.4"/><line class="cls-3" x1="359.88" y1="-18.36" x2="359.88" y2="790.92"/><line class="cls-3" x1="899.87" y1="-20.88" x2="899.87" y2="788.4"/><line class="cls-3" x1="-16.92" y1="251.88" x2="1101.6" y2="251.88"/><line class="cls-3" x1="-11.52" y1="504.13" x2="1107" y2="504.13"/><line class="cls-3" x1="540" y1="-19.44" x2="540" y2="789.84"/></g><path class="cls-4" d="M199.88,281.65h-1.07V270.2H200v4.08a2.77,2.77,0,0,1,.83-.84,2,2,0,0,1,1-.28,2.4,2.4,0,0,1,1.45.48,3.26,3.26,0,0,1,1,1.45,6.28,6.28,0,0,1,.39,2.35,5.22,5.22,0,0,1-.88,3.25,2.59,2.59,0,0,1-2.07,1.15,2,2,0,0,1-1.07-.31,2.63,2.63,0,0,1-.81-.92Zm0-4.21a6.18,6.18,0,0,0,.23,1.93,2.13,2.13,0,0,0,.67,1,1.5,1.5,0,0,0,1,.34,1.56,1.56,0,0,0,1.27-.8,4.24,4.24,0,0,0,.55-2.4,4.29,4.29,0,0,0-.53-2.39,1.45,1.45,0,0,0-2.58,0A4.08,4.08,0,0,0,199.86,277.44Z"/><path class="cls-4" d="M206.12,271.81V270.2h1.15v1.61Zm0,9.84v-8.3h1.15v8.3Z"/><path class="cls-4" d="M208.81,282.34l1.12.2a1.43,1.43,0,0,0,.47,1,1.63,1.63,0,0,0,1.09.33,1.87,1.87,0,0,0,1.2-.36,1.92,1.92,0,0,0,.62-1.09,11.09,11.09,0,0,0,.1-1.84,2.6,2.6,0,0,1-.85.81,2,2,0,0,1-1,.27,2.49,2.49,0,0,1-2-1,5.07,5.07,0,0,1-.92-3.18,6,6,0,0,1,.41-2.34,3.24,3.24,0,0,1,1.06-1.47,2.53,2.53,0,0,1,1.48-.47,2.09,2.09,0,0,1,1.1.3,2.84,2.84,0,0,1,.88.88v-1h1.06v7.17a8.35,8.35,0,0,1-.31,2.73,2.62,2.62,0,0,1-1,1.29,3,3,0,0,1-1.72.48,2.73,2.73,0,0,1-2-.72A2.57,2.57,0,0,1,208.81,282.34Zm.95-5a4.16,4.16,0,0,0,.54,2.39,1.59,1.59,0,0,0,1.32.75,1.61,1.61,0,0,0,1.33-.73,5.21,5.21,0,0,0,0-4.68,1.7,1.7,0,0,0-1.37-.76,1.59,1.59,0,0,0-1.27.76A3.94,3.94,0,0,0,209.76,277.35Z"/><path class="cls-4" d="M216.1,282.34l1.13.2a1.43,1.43,0,0,0,.47,1,1.62,1.62,0,0,0,1.08.33,1.88,1.88,0,0,0,1.21-.36,1.91,1.91,0,0,0,.61-1.09,10,10,0,0,0,.1-1.84,2.68,2.68,0,0,1-.84.81,2,2,0,0,1-1,.27,2.47,2.47,0,0,1-2-1,5,5,0,0,1-.92-3.18,6.23,6.23,0,0,1,.4-2.34,3.26,3.26,0,0,1,1.07-1.47,2.51,2.51,0,0,1,1.48-.47,2.09,2.09,0,0,1,1.1.3,2.84,2.84,0,0,1,.88.88v-1h1.06v7.17a8.64,8.64,0,0,1-.31,2.73,2.59,2.59,0,0,1-1,1.29,3,3,0,0,1-1.71.48,2.72,2.72,0,0,1-2-.72A2.61,2.61,0,0,1,216.1,282.34Zm1-5a4.16,4.16,0,0,0,.54,2.39,1.59,1.59,0,0,0,1.32.75,1.62,1.62,0,0,0,1.33-.73,4,4,0,0,0,.55-2.35,3.9,3.9,0,0,0-.57-2.33,1.67,1.67,0,0,0-1.37-.76,1.56,1.56,0,0,0-1.26.76A3.94,3.94,0,0,0,217.06,277.35Z"/><path class="cls-4" d="M228.27,279l1.19.18a3.61,3.61,0,0,1-1.07,2,2.84,2.84,0,0,1-1.93.68,2.89,2.89,0,0,1-2.34-1.1,5,5,0,0,1-.89-3.17,5.19,5.19,0,0,1,.9-3.28,2.81,2.81,0,0,1,2.29-1.13,2.72,2.72,0,0,1,2.2,1.11,5.05,5.05,0,0,1,.88,3.21v.38h-5.07a3.57,3.57,0,0,0,.64,2.11,1.78,1.78,0,0,0,1.41.71C227.33,280.68,227.94,280.11,228.27,279Zm-3.78-2.28h3.79a3.11,3.11,0,0,0-.46-1.61,1.68,1.68,0,0,0-2.73-.13A2.76,2.76,0,0,0,224.49,276.7Z"/><path class="cls-4" d="M230.92,281.65v-8.3h1v1.26a3.67,3.67,0,0,1,.73-1.16,1.12,1.12,0,0,1,.75-.29,2,2,0,0,1,1.18.46l-.39,1.3a1.49,1.49,0,0,0-.84-.3,1,1,0,0,0-.67.26,1.38,1.38,0,0,0-.43.71,6.36,6.36,0,0,0-.22,1.71v4.35Z"/><path class="cls-4" d="M239.26,281.65v-7.2h-1v-1.1h1v-.88a4.2,4.2,0,0,1,.2-1.47,1.62,1.62,0,0,1,.62-.74,2,2,0,0,1,1.06-.26,4.37,4.37,0,0,1,1.08.15l-.17,1.22a3.39,3.39,0,0,0-.68-.08.9.9,0,0,0-.74.27,1.69,1.69,0,0,0-.22,1v.76h1.33v1.1h-1.33v7.2Z"/><path class="cls-4" d="M247,280.62a4.14,4.14,0,0,1-1.21.91,3,3,0,0,1-1.29.31,2.31,2.31,0,0,1-1.7-.64,2.37,2.37,0,0,1-.63-1.73,2.62,2.62,0,0,1,.3-1.27,2.13,2.13,0,0,1,.81-.87,4.2,4.2,0,0,1,1.56-.46,8.74,8.74,0,0,0,2.06-.49V276a1.85,1.85,0,0,0-.3-1.2,1.67,1.67,0,0,0-1.32-.5,1.88,1.88,0,0,0-1.21.33,2.21,2.21,0,0,0-.58,1.26l-1.14-.19a3.18,3.18,0,0,1,1-2,3.3,3.3,0,0,1,2.12-.61,3,3,0,0,1,1.68.41,1.75,1.75,0,0,1,.77,1,7.53,7.53,0,0,1,.16,1.74v1.87a24.27,24.27,0,0,0,.07,2.48,3.94,3.94,0,0,0,.29,1h-1.2A3.33,3.33,0,0,1,247,280.62Zm-.1-3.14A7.34,7.34,0,0,1,245,278a3.51,3.51,0,0,0-1,.28,1.12,1.12,0,0,0-.44.45,1.37,1.37,0,0,0-.16.68,1.27,1.27,0,0,0,.36.95,1.41,1.41,0,0,0,1,.35,2,2,0,0,0,1.12-.32,1.93,1.93,0,0,0,.75-.85,3.78,3.78,0,0,0,.25-1.56Z"/><path class="cls-4" d="M249.89,281.65v-8.3h1v1.16a2.78,2.78,0,0,1,.88-1,2.17,2.17,0,0,1,1.18-.35,2,2,0,0,1,1.21.37,2,2,0,0,1,.71,1.08,3.06,3.06,0,0,1,.94-1.08,2,2,0,0,1,1.17-.37,1.92,1.92,0,0,1,1.54.67,3.22,3.22,0,0,1,.57,2.12v5.7H258v-5.23a4.19,4.19,0,0,0-.13-1.27,1.17,1.17,0,0,0-.42-.57,1.07,1.07,0,0,0-.65-.2,1.47,1.47,0,0,0-1.22.59,3,3,0,0,0-.47,1.85v4.83h-1.15v-5.4a2.41,2.41,0,0,0-.32-1.45,1,1,0,0,0-.87-.42,1.45,1.45,0,0,0-1.24.63,4.2,4.2,0,0,0-.46,2.33v4.31Z"/><path class="cls-4" d="M260.81,271.81V270.2H262v1.61Zm0,9.84v-8.3H262v8.3Z"/><path class="cls-4" d="M263.69,281.65V270.2h1.15v11.45Z"/><path class="cls-4" d="M266.6,284.84l-.12-1.32a2,2,0,0,0,.65.13,1.13,1.13,0,0,0,.61-.15,1.14,1.14,0,0,0,.4-.46q0-.1.45-1.38L266,273.35h1.24l1.43,4.8c.17.6.34,1.24.49,1.92.13-.64.28-1.27.47-1.89l1.45-4.83h1.16l-2.59,8.44a13.75,13.75,0,0,1-.8,2.19,2.06,2.06,0,0,1-.66.79,1.53,1.53,0,0,1-.84.25A1.94,1.94,0,0,1,266.6,284.84Z"/><path class="cls-4" d="M276.85,271.81V270.2H278v1.61Zm0,9.84v-8.3H278v8.3Z"/><path class="cls-4" d="M279.77,281.65v-8.3h1v1.17a2.76,2.76,0,0,1,.91-1,2.36,2.36,0,0,1,1.25-.34,2.44,2.44,0,0,1,1,.22,1.94,1.94,0,0,1,.74.56,2.22,2.22,0,0,1,.43.9,7.81,7.81,0,0,1,.14,1.71v5.1h-1.15v-5a4.34,4.34,0,0,0-.15-1.34,1.36,1.36,0,0,0-.49-.65,1.27,1.27,0,0,0-.77-.23,1.6,1.6,0,0,0-1.32.61,3.46,3.46,0,0,0-.49,2.12v4.54Z"/><path class="cls-4" d="M293.27,280.39l.16,1.24a3.15,3.15,0,0,1-.86.13,1.76,1.76,0,0,1-1-.24,1.24,1.24,0,0,1-.5-.65,6.39,6.39,0,0,1-.14-1.65v-4.77h-.84v-1.1H291V271.3l1.15-.85v2.9h1.16v1.1h-1.16v4.85a2.2,2.2,0,0,0,.1.86.58.58,0,0,0,.56.29A2.67,2.67,0,0,0,293.27,280.39Z"/><path class="cls-4" d="M294.36,281.65V270.2h1.15v4.1a2.82,2.82,0,0,1,.92-.85,2.26,2.26,0,0,1,1.13-.29,2.17,2.17,0,0,1,1.71.7,3.8,3.8,0,0,1,.63,2.53v5.26h-1.15v-5.26a2.52,2.52,0,0,0-.38-1.55,1.3,1.3,0,0,0-1.06-.46,1.62,1.62,0,0,0-1.27.6,3.22,3.22,0,0,0-.53,2.13v4.54Z"/><path class="cls-4" d="M306.31,279l1.18.18a3.61,3.61,0,0,1-1.07,2,2.84,2.84,0,0,1-1.93.68,2.89,2.89,0,0,1-2.34-1.1,5,5,0,0,1-.89-3.17,5.19,5.19,0,0,1,.9-3.28,2.81,2.81,0,0,1,2.29-1.13,2.71,2.71,0,0,1,2.2,1.11,5.05,5.05,0,0,1,.88,3.21v.38h-5.07a3.57,3.57,0,0,0,.64,2.11,1.78,1.78,0,0,0,1.41.71C305.37,280.68,306,280.11,306.31,279Zm-3.79-2.28h3.79a3.11,3.11,0,0,0-.46-1.61,1.68,1.68,0,0,0-2.73-.13A2.76,2.76,0,0,0,302.52,276.7Z"/><path class="cls-4" d="M201.38,299.59l.16,1.24a3.15,3.15,0,0,1-.86.13,1.76,1.76,0,0,1-1-.24,1.24,1.24,0,0,1-.5-.65,6.39,6.39,0,0,1-.14-1.65v-4.77h-.84v-1.1h.84V290.5l1.15-.85v2.9h1.16v1.1h-1.16v4.85a2.2,2.2,0,0,0,.1.86.58.58,0,0,0,.56.29A2.67,2.67,0,0,0,201.38,299.59Z"/><path class="cls-4" d="M206.9,299.83a4.38,4.38,0,0,1-1.2.9,3,3,0,0,1-1.3.31,2.32,2.32,0,0,1-1.7-.64,2.37,2.37,0,0,1-.63-1.73,2.62,2.62,0,0,1,.3-1.27,2.27,2.27,0,0,1,.81-.87,4.2,4.2,0,0,1,1.56-.46,9,9,0,0,0,2.07-.49v-.36a1.85,1.85,0,0,0-.3-1.2,1.67,1.67,0,0,0-1.32-.5,1.83,1.83,0,0,0-1.2.33,2.15,2.15,0,0,0-.59,1.26l-1.13-.19a3.13,3.13,0,0,1,1-1.95,3.26,3.26,0,0,1,2.11-.61,3,3,0,0,1,1.68.41,1.74,1.74,0,0,1,.77,1,7,7,0,0,1,.16,1.74v1.87a24.27,24.27,0,0,0,.07,2.48,3.6,3.6,0,0,0,.3,1h-1.21A3.65,3.65,0,0,1,206.9,299.83Zm-.09-3.15a7.44,7.44,0,0,1-1.89.54,3.33,3.33,0,0,0-1,.28,1.08,1.08,0,0,0-.45.45,1.39,1.39,0,0,0-.16.68,1.24,1.24,0,0,0,.37.95,1.37,1.37,0,0,0,1,.35,2,2,0,0,0,1.12-.32,2,2,0,0,0,.76-.85,4,4,0,0,0,.25-1.56Z"/><path class="cls-4" d="M209,300.85l2.48-4.31-2.29-4h1.44l1,1.94.48.93c.19-.34.37-.64.52-.9l1.14-2h1.37l-2.34,3.9,2.52,4.4H214l-1.4-2.58-.36-.7-1.79,3.28Z"/><path class="cls-4" d="M215.89,296.7a5,5,0,0,1,.9-3.24,2.91,2.91,0,0,1,4.56,0,4.79,4.79,0,0,1,.92,3.15,5.17,5.17,0,0,1-.9,3.33,2.92,2.92,0,0,1-4.57,0A5,5,0,0,1,215.89,296.7Zm1.18,0a4,4,0,0,0,.59,2.39,1.74,1.74,0,0,0,1.45.79,1.67,1.67,0,0,0,1.39-.79,4,4,0,0,0,.59-2.39,4,4,0,0,0-.59-2.39,1.74,1.74,0,0,0-1.45-.79,1.69,1.69,0,0,0-1.4.79A4,4,0,0,0,217.07,296.7Z"/><path class="cls-4" d="M223.63,300.85v-8.3h1v1.17a2.76,2.76,0,0,1,.91-1,2.43,2.43,0,0,1,2.25-.12,2.05,2.05,0,0,1,.75.56,2.22,2.22,0,0,1,.43.9,7.81,7.81,0,0,1,.14,1.71v5.1H228V295.8a4,4,0,0,0-.16-1.34,1.27,1.27,0,0,0-1.25-.88,1.59,1.59,0,0,0-1.32.61,3.45,3.45,0,0,0-.5,2.12v4.54Z"/><path class="cls-4" d="M230.49,296.7a5,5,0,0,1,.9-3.24,2.91,2.91,0,0,1,4.56,0,4.79,4.79,0,0,1,.91,3.15,5.17,5.17,0,0,1-.9,3.33,2.91,2.91,0,0,1-4.56,0A5,5,0,0,1,230.49,296.7Zm1.18,0a4,4,0,0,0,.58,2.39,1.75,1.75,0,0,0,1.45.79,1.69,1.69,0,0,0,1.4-.79,4,4,0,0,0,.58-2.39,3.92,3.92,0,0,0-.59-2.39,1.74,1.74,0,0,0-1.45-.79,1.69,1.69,0,0,0-1.4.79A4.09,4.09,0,0,0,231.67,296.7Z"/><path class="cls-4" d="M238.23,300.85v-8.3h1v1.16a2.69,2.69,0,0,1,.88-1,2.15,2.15,0,0,1,1.18-.35,2,2,0,0,1,1.21.37,2,2,0,0,1,.71,1.08,3.14,3.14,0,0,1,.93-1.08,2,2,0,0,1,1.18-.37,1.93,1.93,0,0,1,1.54.67,3.22,3.22,0,0,1,.56,2.12v5.7h-1.14v-5.23a4.55,4.55,0,0,0-.13-1.27,1.17,1.17,0,0,0-.42-.57,1.12,1.12,0,0,0-.66-.2,1.46,1.46,0,0,0-1.21.59,2.91,2.91,0,0,0-.47,1.85v4.83h-1.15v-5.4A2.48,2.48,0,0,0,242,294a1,1,0,0,0-.87-.42,1.47,1.47,0,0,0-1.25.63,4.31,4.31,0,0,0-.45,2.33v4.31Z"/><path class="cls-4" d="M249.11,304l-.12-1.32a2,2,0,0,0,.65.13,1.13,1.13,0,0,0,.61-.15,1.06,1.06,0,0,0,.39-.46c0-.07.19-.53.46-1.38l-2.59-8.31h1.24l1.42,4.8c.18.6.34,1.24.5,1.92.12-.64.28-1.27.46-1.89l1.46-4.83h1.15L252.16,301a14.86,14.86,0,0,1-.8,2.19,2.15,2.15,0,0,1-.66.79,1.54,1.54,0,0,1-.85.25A1.89,1.89,0,0,1,249.11,304Z"/><path class="cls-4" d="M255.13,300.85v-1.6h1.31v1.6Z"/><path class="cls-4" d="M19,533.65V522.2h4.16a4.34,4.34,0,0,1,1.93.32,2.44,2.44,0,0,1,1,1.06,3.68,3.68,0,0,1,.4,1.73,3.15,3.15,0,0,1-.68,2.1,3.11,3.11,0,0,1-2,1,3.41,3.41,0,0,1,.79.64,8.28,8.28,0,0,1,1,1.46l1.64,3.12H25.73l-1.26-2.38a15.59,15.59,0,0,0-1.09-1.89,2.2,2.2,0,0,0-.72-.65,2.31,2.31,0,0,0-1-.17H20.25v5.09Zm1.24-6.4h2.67a3.29,3.29,0,0,0,1.33-.21,1.63,1.63,0,0,0,.72-.66,2.06,2.06,0,0,0,.26-1.06,1.8,1.8,0,0,0-.5-1.36,2.08,2.08,0,0,0-1.51-.5h-3Z"/><path class="cls-4" d="M33,531l1.19.18a3.62,3.62,0,0,1-1.08,2,2.83,2.83,0,0,1-1.92.68,2.86,2.86,0,0,1-2.34-1.1,4.89,4.89,0,0,1-.9-3.17,5.19,5.19,0,0,1,.9-3.28,2.84,2.84,0,0,1,2.29-1.13,2.71,2.71,0,0,1,2.2,1.11,5.05,5.05,0,0,1,.89,3.21v.38H29.11a3.57,3.57,0,0,0,.65,2.11,1.75,1.75,0,0,0,1.4.71C32,532.68,32.63,532.11,33,531Zm-3.79-2.28H33a3.32,3.32,0,0,0-.46-1.61,1.69,1.69,0,0,0-2.74-.13A2.88,2.88,0,0,0,29.18,528.7Z"/><path class="cls-4" d="M40.05,532.62a4.14,4.14,0,0,1-1.21.91,2.92,2.92,0,0,1-1.29.31,2.31,2.31,0,0,1-1.7-.64,2.37,2.37,0,0,1-.63-1.73,2.62,2.62,0,0,1,.3-1.27,2.13,2.13,0,0,1,.81-.87,4.2,4.2,0,0,1,1.56-.46,8.74,8.74,0,0,0,2.06-.49V528a1.85,1.85,0,0,0-.3-1.2,1.67,1.67,0,0,0-1.32-.5,1.88,1.88,0,0,0-1.21.33,2.21,2.21,0,0,0-.58,1.26l-1.14-.19a3.23,3.23,0,0,1,1-2,3.3,3.3,0,0,1,2.12-.61,3,3,0,0,1,1.68.41,1.75,1.75,0,0,1,.77,1,7.53,7.53,0,0,1,.16,1.74v1.87a24.27,24.27,0,0,0,.07,2.48,3.94,3.94,0,0,0,.29,1h-1.2A3.33,3.33,0,0,1,40.05,532.62Zm-.1-3.14a7.34,7.34,0,0,1-1.88.54,3.51,3.51,0,0,0-1,.28,1.12,1.12,0,0,0-.44.45,1.37,1.37,0,0,0-.16.68,1.27,1.27,0,0,0,.36,1,1.41,1.41,0,0,0,1,.35,2,2,0,0,0,1.12-.32,1.87,1.87,0,0,0,.75-.85A3.78,3.78,0,0,0,40,530Z"/><path class="cls-4" d="M47.37,530.61l1.13.18a3.79,3.79,0,0,1-1,2.26,2.55,2.55,0,0,1-1.89.79,2.7,2.7,0,0,1-2.2-1.1,5.23,5.23,0,0,1-.86-3.25,5.09,5.09,0,0,1,.87-3.24,2.73,2.73,0,0,1,2.24-1.09,2.55,2.55,0,0,1,1.78.66,3.2,3.2,0,0,1,.92,2l-1.11.2a2.39,2.39,0,0,0-.57-1.25,1.33,1.33,0,0,0-1-.42,1.69,1.69,0,0,0-1.41.75,4.12,4.12,0,0,0-.56,2.4,4.29,4.29,0,0,0,.54,2.45,1.59,1.59,0,0,0,1.37.76,1.5,1.5,0,0,0,1.12-.5A2.81,2.81,0,0,0,47.37,530.61Z"/><path class="cls-4" d="M49.48,533.65V522.2h1.14v4.1a2.93,2.93,0,0,1,.92-.85,2.29,2.29,0,0,1,1.13-.29,2.18,2.18,0,0,1,1.72.7,3.8,3.8,0,0,1,.63,2.53v5.26H53.87v-5.26a2.45,2.45,0,0,0-.39-1.55,1.27,1.27,0,0,0-1-.46,1.64,1.64,0,0,0-1.28.6,3.28,3.28,0,0,0-.53,2.13v4.54Z"/><path class="cls-4" d="M60.42,523.81V522.2h1.15v1.61Zm0,9.84v-8.3h1.15v8.3Z"/><path class="cls-4" d="M63.34,533.65v-8.3h1v1.17a2.68,2.68,0,0,1,.91-1,2.43,2.43,0,0,1,2.25-.12,2.05,2.05,0,0,1,.75.56,2.36,2.36,0,0,1,.43.9,7.81,7.81,0,0,1,.14,1.71v5.1H67.71v-5a4,4,0,0,0-.16-1.34,1.27,1.27,0,0,0-1.25-.88A1.59,1.59,0,0,0,65,527a3.45,3.45,0,0,0-.5,2.12v4.54Z"/><path class="cls-4" d="M70.2,530.21V528.8h3.53v1.41Z"/><path class="cls-4" d="M74.55,531.16,75.7,531a2.07,2.07,0,0,0,.56,1.3,1.65,1.65,0,0,0,1.2.43,1.62,1.62,0,0,0,1.15-.37,1.19,1.19,0,0,0,.41-.94.9.9,0,0,0-.35-.77,4.64,4.64,0,0,0-1.17-.47,8.28,8.28,0,0,1-1.8-.7,2,2,0,0,1-.7-.77,2.36,2.36,0,0,1-.25-1.11,2.31,2.31,0,0,1,.68-1.72,2.58,2.58,0,0,1,1.88-.67,2.93,2.93,0,0,1,1.33.28,2,2,0,0,1,.88.73,3.15,3.15,0,0,1,.43,1.32l-1.13.19a1.35,1.35,0,0,0-1.48-1.36,1.71,1.71,0,0,0-1.11.3.94.94,0,0,0-.37.77.87.87,0,0,0,.35.72,6.55,6.55,0,0,0,1.25.5,9.31,9.31,0,0,1,1.86.72,1.87,1.87,0,0,1,.65.74,2.51,2.51,0,0,1,.23,1.1,2.58,2.58,0,0,1-.75,1.93,2.82,2.82,0,0,1-2.06.74C75.76,533.84,74.82,533,74.55,531.16Z"/><path class="cls-4" d="M81.56,523.81V522.2h1.15v1.61Zm0,9.84v-8.3h1.15v8.3Z"/><path class="cls-4" d="M88.88,533.65v-1a2.34,2.34,0,0,1-.8.92,1.94,1.94,0,0,1-1.06.32,2.58,2.58,0,0,1-2.09-1.14,5.16,5.16,0,0,1-.88-3.2,6.56,6.56,0,0,1,.39-2.4,3.31,3.31,0,0,1,1-1.46,2.35,2.35,0,0,1,1.44-.48,2,2,0,0,1,1.06.3,2.71,2.71,0,0,1,.81.84v-4.1H90v11.45Zm-3.65-4.14a4.15,4.15,0,0,0,.56,2.39,1.61,1.61,0,0,0,1.3.78,1.56,1.56,0,0,0,1.28-.75,3.9,3.9,0,0,0,.54-2.27,4.66,4.66,0,0,0-.54-2.54,1.6,1.6,0,0,0-1.36-.8,1.5,1.5,0,0,0-1.25.77A4.36,4.36,0,0,0,85.23,529.51Z"/><path class="cls-4" d="M96.42,531l1.19.18a3.67,3.67,0,0,1-1.07,2,2.84,2.84,0,0,1-1.93.68,2.89,2.89,0,0,1-2.34-1.1,4.89,4.89,0,0,1-.89-3.17,5.19,5.19,0,0,1,.9-3.28,2.8,2.8,0,0,1,2.28-1.13,2.72,2.72,0,0,1,2.21,1.11,5.11,5.11,0,0,1,.88,3.21v.38H92.56a3.64,3.64,0,0,0,.65,2.11,1.78,1.78,0,0,0,1.41.71C95.48,532.68,96.08,532.11,96.42,531Zm-3.79-2.28h3.8a3.21,3.21,0,0,0-.46-1.61,1.69,1.69,0,0,0-1.42-.77,1.72,1.72,0,0,0-1.32.64A2.88,2.88,0,0,0,92.63,528.7Z"/><path class="cls-4" d="M99.41,533.65v-1.6h1.31v1.6a3.28,3.28,0,0,1-.27,1.46,1.87,1.87,0,0,1-.8.8l-.32-.6a1.2,1.2,0,0,0,.53-.56,2.72,2.72,0,0,0,.19-1.1Z"/><path class="cls-4" d="M108.93,532.39l.16,1.24a3.21,3.21,0,0,1-.86.13,1.74,1.74,0,0,1-1-.24,1.21,1.21,0,0,1-.51-.65,6.54,6.54,0,0,1-.13-1.65v-4.77h-.85v-1.1h.85V523.3l1.15-.85v2.9h1.16v1.1h-1.16v4.85a2.2,2.2,0,0,0,.1.86.56.56,0,0,0,.55.29A2.86,2.86,0,0,0,108.93,532.39Z"/><path class="cls-4" d="M114.47,533.65v-1.22a3,3,0,0,1-.94,1.05,2.13,2.13,0,0,1-1.22.36,2.2,2.2,0,0,1-1.37-.44,2,2,0,0,1-.76-1.1,6.6,6.6,0,0,1-.2-1.81v-5.14h1.15V530a7.62,7.62,0,0,0,.13,1.72,1.32,1.32,0,0,0,.48.69,1.23,1.23,0,0,0,.79.26,1.65,1.65,0,0,0,1.36-.67,3.73,3.73,0,0,0,.45-2.15v-4.45h1.16v8.3Z"/><path class="cls-4" d="M117.09,534.34l1.12.2a1.43,1.43,0,0,0,.47,1,1.63,1.63,0,0,0,1.09.33,1.87,1.87,0,0,0,1.2-.36,1.92,1.92,0,0,0,.62-1.09,11.09,11.09,0,0,0,.1-1.84,2.6,2.6,0,0,1-.85.81,2,2,0,0,1-1,.27,2.49,2.49,0,0,1-2-1,5.07,5.07,0,0,1-.92-3.18,6.23,6.23,0,0,1,.41-2.34,3.24,3.24,0,0,1,1.06-1.47,2.53,2.53,0,0,1,1.48-.47,2.09,2.09,0,0,1,1.1.3,2.84,2.84,0,0,1,.88.88v-1h1.06v7.17a8.35,8.35,0,0,1-.31,2.73,2.62,2.62,0,0,1-1,1.29,3,3,0,0,1-1.72.48,2.73,2.73,0,0,1-2-.72A2.57,2.57,0,0,1,117.09,534.34Zm1-5a4.16,4.16,0,0,0,.54,2.39,1.59,1.59,0,0,0,1.32.75,1.61,1.61,0,0,0,1.33-.73,5.21,5.21,0,0,0,0-4.68,1.7,1.7,0,0,0-1.37-.76,1.59,1.59,0,0,0-1.27.76A3.94,3.94,0,0,0,118,529.35Z"/><path class="cls-4" d="M125,533.65v-1.6h1.31v1.6Z"/><path class="cls-4" d="M203.27,26.61l1.14.18a3.82,3.82,0,0,1-1,2.27,2.61,2.61,0,0,1-1.89.78,2.7,2.7,0,0,1-2.2-1.1,5.21,5.21,0,0,1-.86-3.25,5.09,5.09,0,0,1,.87-3.24,2.75,2.75,0,0,1,2.24-1.08,2.51,2.51,0,0,1,1.77.65,3.24,3.24,0,0,1,.93,2l-1.12.2a2.43,2.43,0,0,0-.57-1.25,1.3,1.3,0,0,0-1-.42,1.67,1.67,0,0,0-1.41.76,4,4,0,0,0-.56,2.39,4.38,4.38,0,0,0,.53,2.45,1.62,1.62,0,0,0,1.37.76,1.47,1.47,0,0,0,1.12-.5A2.74,2.74,0,0,0,203.27,26.61Z"/><path class="cls-4" d="M205.34,29.65V18.2h1.15V29.65Z"/><path class="cls-4" d="M212.73,28.63a4.27,4.27,0,0,1-1.21.9,2.79,2.79,0,0,1-1.29.31,2.31,2.31,0,0,1-1.7-.64,2.37,2.37,0,0,1-.63-1.73,2.62,2.62,0,0,1,.3-1.27,2.19,2.19,0,0,1,.81-.87,4.2,4.2,0,0,1,1.56-.46,8.74,8.74,0,0,0,2.06-.49V24a1.85,1.85,0,0,0-.3-1.2,1.67,1.67,0,0,0-1.32-.5,1.82,1.82,0,0,0-1.21.34,2.18,2.18,0,0,0-.58,1.25l-1.14-.19a3.13,3.13,0,0,1,1-1.94,3.2,3.2,0,0,1,2.11-.61,3,3,0,0,1,1.68.4,1.79,1.79,0,0,1,.77,1,7.53,7.53,0,0,1,.16,1.74v1.87a24.14,24.14,0,0,0,.07,2.48,3.5,3.5,0,0,0,.3,1H213A3.33,3.33,0,0,1,212.73,28.63Zm-.1-3.14a7.84,7.84,0,0,1-1.88.53,3.66,3.66,0,0,0-1,.28,1.05,1.05,0,0,0-.45.46,1.33,1.33,0,0,0-.16.67,1.27,1.27,0,0,0,.36.95,1.41,1.41,0,0,0,1,.36,2.09,2.09,0,0,0,1.12-.32,2,2,0,0,0,.75-.86,3.78,3.78,0,0,0,.25-1.56Z"/><path class="cls-4" d="M215.15,27.17,216.3,27a2.06,2.06,0,0,0,.55,1.3,1.94,1.94,0,0,0,2.36.06,1.23,1.23,0,0,0,.41-.94.94.94,0,0,0-.35-.77,4.77,4.77,0,0,0-1.18-.47,8.35,8.35,0,0,1-1.79-.7,2,2,0,0,1-.71-.77,2.47,2.47,0,0,1-.25-1.1,2.32,2.32,0,0,1,.68-1.73,2.62,2.62,0,0,1,1.89-.66,3.1,3.1,0,0,1,1.33.27,2.14,2.14,0,0,1,.88.73,3.3,3.3,0,0,1,.42,1.32l-1.12.19a1.36,1.36,0,0,0-1.48-1.36,1.76,1.76,0,0,0-1.12.3,1,1,0,0,0-.37.77.84.84,0,0,0,.36.72,5.66,5.66,0,0,0,1.25.5,9.4,9.4,0,0,1,1.85.72,1.8,1.8,0,0,1,.65.74,2.39,2.39,0,0,1,.24,1.11A2.54,2.54,0,0,1,220,29.1a2.8,2.8,0,0,1-2,.74C216.36,29.84,215.41,29,215.15,27.17Z"/><path class="cls-4" d="M221.71,27.17l1.15-.22a2.06,2.06,0,0,0,.55,1.3,1.94,1.94,0,0,0,2.36.06,1.23,1.23,0,0,0,.41-.94.94.94,0,0,0-.35-.77,4.64,4.64,0,0,0-1.17-.47,8.28,8.28,0,0,1-1.8-.7,1.93,1.93,0,0,1-.7-.77,2.34,2.34,0,0,1-.25-1.1,2.28,2.28,0,0,1,.68-1.73,2.58,2.58,0,0,1,1.88-.66,3.1,3.1,0,0,1,1.33.27,2.14,2.14,0,0,1,.88.73,3.3,3.3,0,0,1,.42,1.32l-1.12.19a1.36,1.36,0,0,0-1.48-1.36,1.76,1.76,0,0,0-1.12.3,1,1,0,0,0-.36.77.83.83,0,0,0,.35.72,5.91,5.91,0,0,0,1.25.5,9.14,9.14,0,0,1,1.85.72,1.89,1.89,0,0,1,.66.74,2.53,2.53,0,0,1,.23,1.11,2.57,2.57,0,0,1-.75,1.92,2.84,2.84,0,0,1-2.06.74C222.92,29.84,222,29,221.71,27.17Z"/><path class="cls-4" d="M378.48,531l1.1-.12c.18,1.2.7,1.81,1.57,1.81a1.59,1.59,0,0,0,1.05-.4,3.07,3.07,0,0,0,.8-1.4,7.58,7.58,0,0,0,.33-2.35v-.28a3,3,0,0,1-1,1.1,2.24,2.24,0,0,1-1.24.41,2.49,2.49,0,0,1-2-1,4.14,4.14,0,0,1-.84-2.74,4.28,4.28,0,0,1,.87-2.84,2.62,2.62,0,0,1,3.73-.45,3.69,3.69,0,0,1,1.17,1.7,9.73,9.73,0,0,1,.41,3.24,12.07,12.07,0,0,1-.44,3.67,4,4,0,0,1-1.21,1.9,2.7,2.7,0,0,1-1.71.6,2.41,2.41,0,0,1-1.79-.73A3.41,3.41,0,0,1,378.48,531Zm4.72-5.06a3,3,0,0,0-.55-1.93,1.57,1.57,0,0,0-1.26-.71,1.65,1.65,0,0,0-1.32.76,3.15,3.15,0,0,0-.59,2,2.7,2.7,0,0,0,.56,1.79,1.66,1.66,0,0,0,1.33.67,1.61,1.61,0,0,0,1.3-.67A3,3,0,0,0,383.2,525.94Z"/><path class="cls-4" d="M389.3,533.65v-2.74h-4.07v-1.29l4.28-7.42h.94v7.42h1.28v1.29h-1.28v2.74Zm0-4v-5.17l-2.94,5.17Z"/><path class="cls-4" d="M558.7,531l1.1-.12c.18,1.2.7,1.81,1.57,1.81a1.59,1.59,0,0,0,1-.4,3.07,3.07,0,0,0,.8-1.4,7.58,7.58,0,0,0,.33-2.35v-.28a3,3,0,0,1-1,1.1,2.24,2.24,0,0,1-1.24.41,2.49,2.49,0,0,1-2-1,4.14,4.14,0,0,1-.84-2.74,4.28,4.28,0,0,1,.87-2.84,2.62,2.62,0,0,1,3.73-.45,3.69,3.69,0,0,1,1.17,1.7,9.73,9.73,0,0,1,.41,3.24,12.07,12.07,0,0,1-.44,3.67,4,4,0,0,1-1.21,1.9,2.7,2.7,0,0,1-1.71.6,2.41,2.41,0,0,1-1.79-.73A3.41,3.41,0,0,1,558.7,531Zm4.72-5.06a3,3,0,0,0-.55-1.93,1.57,1.57,0,0,0-1.26-.71,1.64,1.64,0,0,0-1.32.76,3.15,3.15,0,0,0-.59,2,2.7,2.7,0,0,0,.56,1.79,1.66,1.66,0,0,0,1.33.67,1.61,1.61,0,0,0,1.3-.67A3,3,0,0,0,563.42,525.94Z"/><path class="cls-4" d="M565.82,530.65l1.21-.13a2.85,2.85,0,0,0,.64,1.63,1.51,1.51,0,0,0,1.15.54,1.72,1.72,0,0,0,1.41-.76,3.22,3.22,0,0,0,.6-2.06,2.8,2.8,0,0,0-.58-1.9,1.78,1.78,0,0,0-1.44-.68,1.83,1.83,0,0,0-1,.29,2.13,2.13,0,0,0-.72.82l-1.09-.17.92-5.89h4.66v1.35h-3.75l-.5,3.08a2.69,2.69,0,0,1,1.77-.72,2.66,2.66,0,0,1,2.06,1,4,4,0,0,1,.87,2.71,4.77,4.77,0,0,1-.87,2.88,2.76,2.76,0,0,1-2.34,1.2,2.79,2.79,0,0,1-2.06-.84A3.64,3.64,0,0,1,565.82,530.65Z"/><g class="cls-2"><path class="cls-3" d="M742,504.26s-51.6,73.62,27,102.87"/><path class="cls-3" d="M868,511.46s-80.58,23.4-.69,115.8-41.31-36-41.31-36l47.31,31.8,8.49,13.8s-41.4-71.77-12.6-6.48"/></g></g></svg>