<svg id="Layer_1" data-name="Layer 1" xmlns="http://www.w3.org/2000/svg" xmlns:xlink="http://www.w3.org/1999/xlink" viewBox="0 0 1080 756"><defs><style>.cls-1,.cls-3{fill:none;}.cls-2{clip-path:url(#clip-path);}.cls-3{stroke:#231f20;stroke-width:0.25px;}.cls-4{fill:#231f20;}</style><clipPath id="clip-path"><rect class="cls-1" width="1080" height="756"/></clipPath></defs><title>Untitled-3</title><g class="cls-2"><g class="cls-2"><line class="cls-3" x1="180" y1="-18.36" x2="180" y2="790.92"/><line class="cls-3" x1="720" y1="-20.88" x2="720" y2="788.4"/><line class="cls-3" x1="359.88" y1="-18.36" x2="359.88" y2="790.92"/><line class="cls-3" x1="899.87" y1="-20.88" x2="899.87" y2="788.4"/><line class="cls-3" x1="-16.92" y1="251.88" x2="1101.6" y2="251.88"/><line class="cls-3" x1="-11.52" y1="504.13" x2="1107" y2="504.13"/><line class="cls-3" x1="540" y1="-19.44" x2="540" y2="789.84"/></g><path class="cls-4" d="M23.28,280.62a4,4,0,0,1-1.2.91,3,3,0,0,1-1.3.31,2.28,2.28,0,0,1-1.69-.64,2.34,2.34,0,0,1-.64-1.73,2.62,2.62,0,0,1,.3-1.27,2.27,2.27,0,0,1,.81-.87,4.33,4.33,0,0,1,1.56-.46,9,9,0,0,0,2.07-.49V276a1.84,1.84,0,0,0-.31-1.2,1.67,1.67,0,0,0-1.32-.5,1.83,1.83,0,0,0-1.2.33,2.21,2.21,0,0,0-.59,1.26l-1.13-.19a3.18,3.18,0,0,1,1-2,3.27,3.27,0,0,1,2.11-.61,3,3,0,0,1,1.68.41,1.71,1.71,0,0,1,.77,1,7,7,0,0,1,.16,1.74v1.87a23.12,23.12,0,0,0,.08,2.48,3.58,3.58,0,0,0,.29,1h-1.2A3.63,3.63,0,0,1,23.28,280.62Zm-.09-3.14a7.31,7.31,0,0,1-1.89.54,3.33,3.33,0,0,0-1,.28,1.21,1.21,0,0,0-.45.45,1.37,1.37,0,0,0-.16.68,1.24,1.24,0,0,0,.37.95,1.37,1.37,0,0,0,1,.35,2,2,0,0,0,1.12-.32,2,2,0,0,0,.76-.85,4,4,0,0,0,.25-1.56Z"/><path class="cls-4" d="M26.15,284.83V273.35h1.06v1.08a2.7,2.7,0,0,1,.87-1,2,2,0,0,1,1.09-.3,2.38,2.38,0,0,1,1.45.48,3.26,3.26,0,0,1,1,1.45,6.3,6.3,0,0,1,.39,2.34,5.23,5.23,0,0,1-.88,3.26,2.61,2.61,0,0,1-2.08,1.15,1.87,1.87,0,0,1-1-.28,2.51,2.51,0,0,1-.79-.77v4Zm1.05-7.28a4.24,4.24,0,0,0,.53,2.37,1.47,1.47,0,0,0,2.59,0,5.6,5.6,0,0,0,0-4.84,1.42,1.42,0,0,0-2.57.06A4.33,4.33,0,0,0,27.2,277.55Z"/><path class="cls-4" d="M33.45,284.83V273.35h1.06v1.08a2.77,2.77,0,0,1,.86-1,2,2,0,0,1,1.1-.3,2.4,2.4,0,0,1,1.45.48,3.26,3.26,0,0,1,1,1.45,6.3,6.3,0,0,1,.39,2.34,5.16,5.16,0,0,1-.89,3.26,2.59,2.59,0,0,1-2.08,1.15,1.86,1.86,0,0,1-1-.28,2.54,2.54,0,0,1-.8-.77v4Zm1-7.28a4.15,4.15,0,0,0,.54,2.37,1.47,1.47,0,0,0,2.59,0,5.65,5.65,0,0,0,0-4.84,1.54,1.54,0,0,0-1.3-.78,1.58,1.58,0,0,0-1.27.84A4.33,4.33,0,0,0,34.49,277.55Z"/><path class="cls-4" d="M45.39,279l1.19.18a3.62,3.62,0,0,1-1.08,2,2.82,2.82,0,0,1-1.92.68,2.86,2.86,0,0,1-2.34-1.1,4.89,4.89,0,0,1-.9-3.17,5.13,5.13,0,0,1,.91-3.28,2.8,2.8,0,0,1,2.28-1.13,2.69,2.69,0,0,1,2.2,1.11,5.05,5.05,0,0,1,.89,3.21v.38H41.53a3.57,3.57,0,0,0,.65,2.11,1.77,1.77,0,0,0,1.41.71C44.45,280.68,45.05,280.11,45.39,279ZM41.6,276.7h3.8a3.21,3.21,0,0,0-.46-1.61,1.69,1.69,0,0,0-1.42-.77,1.72,1.72,0,0,0-1.32.64A2.88,2.88,0,0,0,41.6,276.7Z"/><path class="cls-4" d="M48,281.65v-8.3h1v1.17a2.76,2.76,0,0,1,.91-1,2.39,2.39,0,0,1,1.25-.34,2.44,2.44,0,0,1,1,.22,2.05,2.05,0,0,1,.75.56,2.21,2.21,0,0,1,.42.9,7.23,7.23,0,0,1,.14,1.71v5.1H52.41v-5a4.34,4.34,0,0,0-.15-1.34,1.36,1.36,0,0,0-.49-.65,1.27,1.27,0,0,0-.77-.23,1.6,1.6,0,0,0-1.32.61,3.46,3.46,0,0,0-.49,2.12v4.54Z"/><path class="cls-4" d="M59.74,281.65v-1a2.34,2.34,0,0,1-.8.92,2,2,0,0,1-1.06.32,2.58,2.58,0,0,1-2.09-1.14,5.16,5.16,0,0,1-.88-3.2,6.56,6.56,0,0,1,.39-2.4,3.23,3.23,0,0,1,1.05-1.46,2.35,2.35,0,0,1,1.44-.48,2,2,0,0,1,1.06.3,2.71,2.71,0,0,1,.81.84v-4.1h1.16v11.45Zm-3.65-4.14a4.15,4.15,0,0,0,.56,2.39,1.61,1.61,0,0,0,1.3.78,1.56,1.56,0,0,0,1.28-.75,3.9,3.9,0,0,0,.54-2.27,4.66,4.66,0,0,0-.54-2.54,1.6,1.6,0,0,0-1.36-.8,1.5,1.5,0,0,0-1.25.77A4.36,4.36,0,0,0,56.09,277.51Z"/><path class="cls-4" d="M24.91,32.42H23.76v-9a6.46,6.46,0,0,1-1.07.95,6.83,6.83,0,0,1-1.24.74V23.79a7.1,7.1,0,0,0,1.69-1.33,5.26,5.26,0,0,0,1-1.54h.75Z"/><path class="cls-4" d="M33.94,31.07v1.35H27.73a3.9,3.9,0,0,1,.5-1.84,10.36,10.36,0,0,1,1.9-2.4,13.25,13.25,0,0,0,2.12-2.49,3.39,3.39,0,0,0,.5-1.64,2,2,0,0,0-.51-1.43A1.67,1.67,0,0,0,31,22.07a1.65,1.65,0,0,0-1.32.6,2.52,2.52,0,0,0-.52,1.71L28,24.23a3.89,3.89,0,0,1,.94-2.48A2.78,2.78,0,0,1,31,20.92a2.56,2.56,0,0,1,2.18,1,3.52,3.52,0,0,1,.74,2.2,4.07,4.07,0,0,1-.58,2.09,15.69,15.69,0,0,1-2.19,2.68c-.69.7-1.14,1.18-1.34,1.44a4.32,4.32,0,0,0-.49.77Z"/><path class="cls-4" d="M38.86,32.42V29.67H34.79V28.39L39.07,21H40v7.43h1.28v1.28H40v2.75Zm0-4V23.22l-2.94,5.17Z"/><path class="cls-4" d="M920.2,29.4l-2.09-8.3h1.19l1.08,4.79.41,1.78.35-1.71,1.08-4.86h1.2l1,4.81.34,1.59.39-1.6,1.16-4.8h1.13l-2.13,8.3h-1.2l-1.08-5L922.78,23,921.4,29.4Z"/><path class="cls-4" d="M933.06,26.73l1.19.18a3.67,3.67,0,0,1-1.07,2,2.84,2.84,0,0,1-1.93.68,2.89,2.89,0,0,1-2.34-1.1,4.89,4.89,0,0,1-.89-3.17,5.19,5.19,0,0,1,.9-3.28,2.8,2.8,0,0,1,2.28-1.13A2.72,2.72,0,0,1,933.41,22a5.05,5.05,0,0,1,.88,3.21v.38H929.2a3.64,3.64,0,0,0,.65,2.11,1.78,1.78,0,0,0,1.41.71C932.12,28.43,932.72,27.86,933.06,26.73Zm-3.79-2.28h3.8a3.21,3.21,0,0,0-.46-1.61,1.68,1.68,0,0,0-2.73-.13A2.82,2.82,0,0,0,929.27,24.45Z"/><path class="cls-4" d="M935.67,29.4V18h1.15V29.4Z"/><path class="cls-4" d="M943,29.4v-1a2.42,2.42,0,0,1-.8.92,2,2,0,0,1-1.07.32,2.58,2.58,0,0,1-2.08-1.14,5.18,5.18,0,0,1-.88-3.2,6.56,6.56,0,0,1,.39-2.4,3.29,3.29,0,0,1,1-1.46,2.4,2.4,0,0,1,1.45-.48,2,2,0,0,1,1.06.3,2.71,2.71,0,0,1,.81.84V18h1.16V29.4Zm-3.65-4.14a4.15,4.15,0,0,0,.56,2.39,1.6,1.6,0,0,0,1.3.78,1.56,1.56,0,0,0,1.28-.75,3.9,3.9,0,0,0,.54-2.27,4.66,4.66,0,0,0-.54-2.54,1.61,1.61,0,0,0-1.36-.8,1.5,1.5,0,0,0-1.25.77A4.36,4.36,0,0,0,939.38,25.26Z"/><path class="cls-4" d="M950.57,26.73l1.19.18a3.62,3.62,0,0,1-1.08,2,2.82,2.82,0,0,1-1.92.68,2.86,2.86,0,0,1-2.34-1.1,4.89,4.89,0,0,1-.9-3.17,5.13,5.13,0,0,1,.91-3.28,2.8,2.8,0,0,1,2.28-1.13,2.69,2.69,0,0,1,2.2,1.11,5.05,5.05,0,0,1,.89,3.21v.38h-5.08a3.57,3.57,0,0,0,.65,2.11,1.77,1.77,0,0,0,1.41.71C949.63,28.43,950.23,27.86,950.57,26.73Zm-3.79-2.28h3.8a3.21,3.21,0,0,0-.46-1.61,1.69,1.69,0,0,0-1.42-.77,1.72,1.72,0,0,0-1.32.64A2.88,2.88,0,0,0,946.78,24.45Z"/><path class="cls-4" d="M957.62,29.4v-1a2.26,2.26,0,0,1-.8.92,1.94,1.94,0,0,1-1.06.32,2.57,2.57,0,0,1-2.08-1.14,5.12,5.12,0,0,1-.88-3.2,6.56,6.56,0,0,1,.39-2.4,3.22,3.22,0,0,1,1-1.46,2.35,2.35,0,0,1,1.44-.48,2,2,0,0,1,1.06.3,2.51,2.51,0,0,1,.81.84V18h1.16V29.4ZM954,25.26a4.07,4.07,0,0,0,.56,2.39,1.58,1.58,0,0,0,1.3.78,1.55,1.55,0,0,0,1.27-.75,3.9,3.9,0,0,0,.54-2.27,4.66,4.66,0,0,0-.54-2.54,1.6,1.6,0,0,0-1.36-.8,1.52,1.52,0,0,0-1.25.77A4.37,4.37,0,0,0,954,25.26Z"/><path class="cls-4" d="M968.59,28.38a4.1,4.1,0,0,1-1.2.9,3,3,0,0,1-1.3.31A2.3,2.3,0,0,1,964.4,29a2.37,2.37,0,0,1-.63-1.73,2.62,2.62,0,0,1,.29-1.27,2.22,2.22,0,0,1,.82-.87,4.2,4.2,0,0,1,1.56-.46,8.3,8.3,0,0,0,2.06-.5v-.35a1.78,1.78,0,0,0-.31-1.2,1.64,1.64,0,0,0-1.32-.5,1.87,1.87,0,0,0-1.2.33,2.21,2.21,0,0,0-.59,1.26L964,23.47a3.18,3.18,0,0,1,1-1.95,3.27,3.27,0,0,1,2.11-.61,3,3,0,0,1,1.68.41,1.67,1.67,0,0,1,.77,1,7,7,0,0,1,.16,1.74v1.87a23.12,23.12,0,0,0,.08,2.48,3.94,3.94,0,0,0,.29,1h-1.2A3.64,3.64,0,0,1,968.59,28.38Zm-.09-3.15a7.34,7.34,0,0,1-1.88.54,3.33,3.33,0,0,0-1,.28,1.21,1.21,0,0,0-.45.45,1.48,1.48,0,0,0-.16.68,1.24,1.24,0,0,0,.37.95,1.38,1.38,0,0,0,1,.35,2,2,0,0,0,1.87-1.17,3.78,3.78,0,0,0,.25-1.56Z"/><path class="cls-4" d="M975.91,29.4V28.18a2.84,2.84,0,0,1-.93,1.05,2.16,2.16,0,0,1-1.22.36,2.21,2.21,0,0,1-1.38-.44,2.06,2.06,0,0,1-.76-1.1,6.66,6.66,0,0,1-.19-1.81V21.1h1.15v4.6a7.06,7.06,0,0,0,.13,1.72,1.25,1.25,0,0,0,.47.69,1.29,1.29,0,0,0,.8.27,1.67,1.67,0,0,0,1.36-.68,3.73,3.73,0,0,0,.45-2.15V21.1H977v8.3Z"/><path class="cls-4" d="M978.53,30.09l1.13.2a1.43,1.43,0,0,0,.46,1,1.67,1.67,0,0,0,1.09.33,1.88,1.88,0,0,0,1.21-.36,1.91,1.91,0,0,0,.61-1.09,10,10,0,0,0,.1-1.84,2.68,2.68,0,0,1-.84.81,2,2,0,0,1-1,.27,2.47,2.47,0,0,1-2-1,5,5,0,0,1-.93-3.18,6.23,6.23,0,0,1,.41-2.34,3.26,3.26,0,0,1,1.07-1.47,2.51,2.51,0,0,1,1.48-.47,2.12,2.12,0,0,1,1.1.3,2.71,2.71,0,0,1,.87.88v-1h1.07v7.17A8.28,8.28,0,0,1,984,31a2.57,2.57,0,0,1-1,1.29,3,3,0,0,1-1.71.48,2.72,2.72,0,0,1-2-.72A2.61,2.61,0,0,1,978.53,30.09Zm1-5a4.16,4.16,0,0,0,.54,2.39,1.57,1.57,0,0,0,2.66,0,4,4,0,0,0,.55-2.35,3.9,3.9,0,0,0-.57-2.33,1.67,1.67,0,0,0-1.37-.76,1.56,1.56,0,0,0-1.26.76A3.94,3.94,0,0,0,979.48,25.1Z"/><path class="cls-4" d="M986.06,29.4V21.1h1v1.16a2.78,2.78,0,0,1,.88-1,2.17,2.17,0,0,1,1.18-.35,1.86,1.86,0,0,1,1.92,1.45,3.16,3.16,0,0,1,.94-1.08,2,2,0,0,1,1.17-.37,1.92,1.92,0,0,1,1.54.67,3.22,3.22,0,0,1,.57,2.12v5.7h-1.15V24.17A4.19,4.19,0,0,0,994,22.9a1.17,1.17,0,0,0-.42-.57,1.07,1.07,0,0,0-.65-.21,1.49,1.49,0,0,0-1.22.6,3,3,0,0,0-.47,1.85V29.4H990.1V24a2.49,2.49,0,0,0-.31-1.45,1.07,1.07,0,0,0-.88-.43,1.46,1.46,0,0,0-1.24.64,4.2,4.2,0,0,0-.46,2.33V29.4Z"/><path class="cls-4" d="M1001.63,26.73l1.19.18a3.67,3.67,0,0,1-1.07,2,2.84,2.84,0,0,1-1.93.68,2.89,2.89,0,0,1-2.34-1.1,4.89,4.89,0,0,1-.89-3.17,5.19,5.19,0,0,1,.9-3.28,2.8,2.8,0,0,1,2.28-1.13A2.72,2.72,0,0,1,1002,22a5.05,5.05,0,0,1,.88,3.21v.38h-5.08a3.64,3.64,0,0,0,.65,2.11,1.78,1.78,0,0,0,1.41.71C1000.69,28.43,1001.29,27.86,1001.63,26.73Zm-3.79-2.28h3.8a3.21,3.21,0,0,0-.46-1.61,1.68,1.68,0,0,0-2.73-.13A2.82,2.82,0,0,0,997.84,24.45Z"/><path class="cls-4" d="M1004.28,29.4V21.1h1v1.17a2.78,2.78,0,0,1,.92-1,2.33,2.33,0,0,1,1.24-.34,2.44,2.44,0,0,1,1,.22,2.05,2.05,0,0,1,.75.56,2.21,2.21,0,0,1,.42.9,7.23,7.23,0,0,1,.14,1.71v5.1h-1.14v-5a4.28,4.28,0,0,0-.16-1.34,1.3,1.3,0,0,0-.49-.65,1.28,1.28,0,0,0-.77-.24,1.61,1.61,0,0,0-1.32.62,3.46,3.46,0,0,0-.49,2.12V29.4Z"/><path class="cls-4" d="M1014.14,28.14l.16,1.24a3.21,3.21,0,0,1-.86.13,1.74,1.74,0,0,1-1-.24,1.26,1.26,0,0,1-.51-.65,6.54,6.54,0,0,1-.13-1.65V22.2H1011V21.1h.85V19.05l1.15-.85v2.9h1.16v1.1H1013v4.85a2.2,2.2,0,0,0,.1.86.56.56,0,0,0,.55.29A2.86,2.86,0,0,0,1014.14,28.14Z"/><path class="cls-4" d="M1019.66,28.38a4.27,4.27,0,0,1-1.21.9,3,3,0,0,1-1.29.31,2.31,2.31,0,0,1-1.7-.64,2.37,2.37,0,0,1-.63-1.73,2.73,2.73,0,0,1,.29-1.27,2.22,2.22,0,0,1,.82-.87,4.2,4.2,0,0,1,1.56-.46,8.3,8.3,0,0,0,2.06-.5v-.35a1.85,1.85,0,0,0-.3-1.2,1.67,1.67,0,0,0-1.32-.5,1.88,1.88,0,0,0-1.21.33,2.21,2.21,0,0,0-.58,1.26l-1.14-.19a3.18,3.18,0,0,1,1-1.95,3.3,3.3,0,0,1,2.12-.61,3,3,0,0,1,1.68.41,1.75,1.75,0,0,1,.77,1,7.53,7.53,0,0,1,.16,1.74v1.87a24.27,24.27,0,0,0,.07,2.48,3.94,3.94,0,0,0,.29,1h-1.2A3.33,3.33,0,0,1,1019.66,28.38Zm-.1-3.15a7.34,7.34,0,0,1-1.88.54,3.51,3.51,0,0,0-1,.28,1.21,1.21,0,0,0-.45.45,1.48,1.48,0,0,0-.16.68,1.28,1.28,0,0,0,.37.95,1.39,1.39,0,0,0,1,.35,2,2,0,0,0,1.12-.32,1.93,1.93,0,0,0,.75-.85,3.78,3.78,0,0,0,.25-1.56Z"/><path class="cls-4" d="M1025.09,28.14l.15,1.24a3.15,3.15,0,0,1-.86.13,1.76,1.76,0,0,1-1-.24,1.24,1.24,0,0,1-.5-.65,6.39,6.39,0,0,1-.14-1.65V22.2h-.84V21.1h.84V19.05l1.15-.85v2.9h1.17v1.1h-1.17v4.85a2.42,2.42,0,0,0,.1.86.58.58,0,0,0,.56.29A2.86,2.86,0,0,0,1025.09,28.14Z"/><path class="cls-4" d="M1026.17,19.56V18h1.15v1.61Zm0,9.84V21.1h1.15v8.3Z"/><path class="cls-4" d="M1028.65,25.25a5,5,0,0,1,.9-3.24,2.91,2.91,0,0,1,4.56,0,4.79,4.79,0,0,1,.91,3.15,5.17,5.17,0,0,1-.9,3.33,2.91,2.91,0,0,1-4.56,0A5,5,0,0,1,1028.65,25.25Zm1.18,0a4,4,0,0,0,.58,2.39,1.75,1.75,0,0,0,1.46.79,1.69,1.69,0,0,0,1.39-.79,4,4,0,0,0,.58-2.39,4,4,0,0,0-.58-2.39,1.75,1.75,0,0,0-1.46-.79,1.67,1.67,0,0,0-1.39.79A4,4,0,0,0,1029.83,25.25Z"/><path class="cls-4" d="M1036.38,29.4V21.1h1v1.17a2.78,2.78,0,0,1,.92-1,2.33,2.33,0,0,1,1.24-.34,2.41,2.41,0,0,1,1,.22,2.05,2.05,0,0,1,.75.56,2.36,2.36,0,0,1,.43.9,7.81,7.81,0,0,1,.14,1.71v5.1h-1.15v-5a4,4,0,0,0-.16-1.34,1.3,1.3,0,0,0-.49-.65,1.26,1.26,0,0,0-.77-.24,1.61,1.61,0,0,0-1.32.62,3.53,3.53,0,0,0-.49,2.12V29.4Z"/><path class="cls-4" d="M1044,29.4V27.8h1.31v1.6a3.13,3.13,0,0,1-.28,1.46,1.8,1.8,0,0,1-.79.8l-.32-.6a1.2,1.2,0,0,0,.53-.56,2.72,2.72,0,0,0,.19-1.1Z"/><path class="cls-4" d="M918.5,43.91l1.15-.21a2.06,2.06,0,0,0,.55,1.3,1.94,1.94,0,0,0,2.36.06,1.23,1.23,0,0,0,.41-.94.93.93,0,0,0-.35-.77,4.64,4.64,0,0,0-1.17-.47,8.28,8.28,0,0,1-1.8-.7,1.93,1.93,0,0,1-.7-.77,2.36,2.36,0,0,1-.25-1.11,2.28,2.28,0,0,1,.68-1.72,2.58,2.58,0,0,1,1.88-.67,3,3,0,0,1,1.33.28,2.06,2.06,0,0,1,.88.73,3.3,3.3,0,0,1,.42,1.32l-1.12.19a1.35,1.35,0,0,0-1.48-1.36,1.76,1.76,0,0,0-1.12.3,1,1,0,0,0-.37.77.86.86,0,0,0,.36.72,6.25,6.25,0,0,0,1.25.5,9.4,9.4,0,0,1,1.85.72,1.89,1.89,0,0,1,.66.74,2.51,2.51,0,0,1,.23,1.1,2.55,2.55,0,0,1-.76,1.93,2.8,2.8,0,0,1-2,.74C919.71,46.59,918.76,45.7,918.5,43.91Z"/><path class="cls-4" d="M925.07,42.25A5,5,0,0,1,926,39a2.91,2.91,0,0,1,4.56,0,4.79,4.79,0,0,1,.92,3.15,5.17,5.17,0,0,1-.9,3.33,2.92,2.92,0,0,1-4.57,0A5,5,0,0,1,925.07,42.25Zm1.18,0a4,4,0,0,0,.59,2.39,1.74,1.74,0,0,0,1.45.79,1.67,1.67,0,0,0,1.39-.79,4,4,0,0,0,.59-2.39,4,4,0,0,0-.59-2.39,1.75,1.75,0,0,0-1.45-.79,1.68,1.68,0,0,0-1.4.79A4,4,0,0,0,926.25,42.25Z"/><path class="cls-4" d="M932.81,46.4V38.1h1v1.16a2.78,2.78,0,0,1,.88-1,2.17,2.17,0,0,1,1.18-.35,1.86,1.86,0,0,1,1.92,1.45,3.16,3.16,0,0,1,.94-1.08,2,2,0,0,1,1.17-.37,1.92,1.92,0,0,1,1.54.67A3.22,3.22,0,0,1,942,40.7v5.7h-1.15V41.17a4.19,4.19,0,0,0-.13-1.27,1.17,1.17,0,0,0-.42-.57,1.07,1.07,0,0,0-.65-.21,1.49,1.49,0,0,0-1.22.6,3,3,0,0,0-.47,1.85V46.4h-1.15V41a2.49,2.49,0,0,0-.31-1.45,1.07,1.07,0,0,0-.88-.43,1.46,1.46,0,0,0-1.24.64,4.2,4.2,0,0,0-.46,2.33V46.4Z"/><path class="cls-4" d="M948.38,43.73l1.19.18a3.67,3.67,0,0,1-1.07,2,2.84,2.84,0,0,1-1.93.68,2.89,2.89,0,0,1-2.34-1.1,4.89,4.89,0,0,1-.89-3.17,5.19,5.19,0,0,1,.9-3.28,2.8,2.8,0,0,1,2.28-1.13A2.72,2.72,0,0,1,948.73,39a5.05,5.05,0,0,1,.88,3.21v.38h-5.08a3.64,3.64,0,0,0,.65,2.11,1.78,1.78,0,0,0,1.41.71C947.44,45.43,948,44.86,948.38,43.73Zm-3.79-2.28h3.8a3.21,3.21,0,0,0-.46-1.61,1.68,1.68,0,0,0-2.73-.13A2.82,2.82,0,0,0,944.59,41.45Z"/><path class="cls-4" d="M952.29,46.4l-2.09-8.3h1.19l1.08,4.79.4,1.78.36-1.71,1.08-4.86h1.19l1,4.81.35,1.59.39-1.6,1.16-4.8h1.12l-2.12,8.3h-1.2l-1.09-5L954.86,40l-1.37,6.38Z"/><path class="cls-4" d="M960.5,46.4V35h1.15v4.1a2.82,2.82,0,0,1,.92-.85,2.26,2.26,0,0,1,1.13-.29,2.17,2.17,0,0,1,1.71.7,3.8,3.8,0,0,1,.63,2.53V46.4h-1.15V41.14a2.52,2.52,0,0,0-.38-1.55,1.31,1.31,0,0,0-1.06-.47,1.63,1.63,0,0,0-1.27.61,3.22,3.22,0,0,0-.53,2.13V46.4Z"/><path class="cls-4" d="M972.23,45.38a4.27,4.27,0,0,1-1.21.9,3,3,0,0,1-1.29.31A2.31,2.31,0,0,1,968,46a2.37,2.37,0,0,1-.63-1.73,2.62,2.62,0,0,1,.3-1.27,2.13,2.13,0,0,1,.81-.87,4.2,4.2,0,0,1,1.56-.46,8.18,8.18,0,0,0,2.06-.5v-.35a1.85,1.85,0,0,0-.3-1.2,1.67,1.67,0,0,0-1.32-.5,1.88,1.88,0,0,0-1.21.33,2.21,2.21,0,0,0-.58,1.26l-1.14-.19a3.18,3.18,0,0,1,1-1.95,3.3,3.3,0,0,1,2.12-.61,3,3,0,0,1,1.68.41,1.75,1.75,0,0,1,.77,1,7.53,7.53,0,0,1,.16,1.74v1.87a24.27,24.27,0,0,0,.07,2.48,3.94,3.94,0,0,0,.29,1h-1.2A3.33,3.33,0,0,1,972.23,45.38Zm-.1-3.15a7.34,7.34,0,0,1-1.88.54,3.51,3.51,0,0,0-1,.28,1.12,1.12,0,0,0-.44.45,1.37,1.37,0,0,0-.17.68,1.28,1.28,0,0,0,.37,1,1.41,1.41,0,0,0,1,.35,2,2,0,0,0,1.12-.32,1.93,1.93,0,0,0,.75-.85,3.78,3.78,0,0,0,.25-1.56Z"/><path class="cls-4" d="M977.66,45.14l.15,1.24a3.1,3.1,0,0,1-.86.13,1.76,1.76,0,0,1-1-.24,1.24,1.24,0,0,1-.5-.65,6.39,6.39,0,0,1-.14-1.65V39.2h-.84V38.1h.84V36.05l1.15-.85v2.9h1.17v1.1h-1.17v4.85a2.42,2.42,0,0,0,.1.86.58.58,0,0,0,.56.29A2.86,2.86,0,0,0,977.66,45.14Z"/><path class="cls-4" d="M986.84,43.36l1.14.18a3.79,3.79,0,0,1-1,2.26,2.58,2.58,0,0,1-1.89.79,2.7,2.7,0,0,1-2.2-1.1,5.16,5.16,0,0,1-.86-3.25,5.09,5.09,0,0,1,.87-3.24,2.73,2.73,0,0,1,2.24-1.09,2.52,2.52,0,0,1,1.77.66,3.21,3.21,0,0,1,.93,2l-1.12.2a2.39,2.39,0,0,0-.57-1.25,1.3,1.3,0,0,0-1-.42,1.69,1.69,0,0,0-1.41.75,4,4,0,0,0-.56,2.4,4.38,4.38,0,0,0,.53,2.45,1.62,1.62,0,0,0,1.37.76,1.48,1.48,0,0,0,1.12-.5A2.74,2.74,0,0,0,986.84,43.36Z"/><path class="cls-4" d="M988.91,46.4V35h1.15V46.4Z"/><path class="cls-4" d="M996.32,46.4V45.18a3,3,0,0,1-.94,1,2.13,2.13,0,0,1-1.22.36,2.2,2.2,0,0,1-1.37-.44,2.06,2.06,0,0,1-.76-1.1,6.66,6.66,0,0,1-.19-1.81V38.1H993v4.6a7.62,7.62,0,0,0,.13,1.72,1.32,1.32,0,0,0,.48.69,1.26,1.26,0,0,0,.79.27,1.66,1.66,0,0,0,1.36-.68,3.72,3.72,0,0,0,.46-2.15V38.1h1.15v8.3Z"/><path class="cls-4" d="M999.16,46.4V38.1h1v1.17a2.78,2.78,0,0,1,.92-1,2.35,2.35,0,0,1,1.24-.34,2.41,2.41,0,0,1,1,.22,2.05,2.05,0,0,1,.75.56,2.36,2.36,0,0,1,.43.9,7.81,7.81,0,0,1,.14,1.71v5.1h-1.15v-5a4,4,0,0,0-.16-1.34,1.25,1.25,0,0,0-.49-.65,1.26,1.26,0,0,0-.77-.24,1.61,1.61,0,0,0-1.32.62,3.53,3.53,0,0,0-.49,2.12V46.4Z"/><path class="cls-4" d="M1006.48,46.4V35h1.15v6.54l2.74-3.39h1.49l-2.6,3.08,2.86,5.22h-1.41l-2.26-4.25-.82,1V46.4Z"/><path class="cls-4" d="M1013,49.59l-.12-1.32a2,2,0,0,0,.66.13,1.11,1.11,0,0,0,.6-.15,1.14,1.14,0,0,0,.4-.46c0-.07.19-.53.45-1.38l-2.59-8.31h1.24l1.43,4.8c.17.6.34,1.24.49,1.92.13-.64.29-1.27.47-1.89l1.45-4.83h1.16L1016,46.54a14.54,14.54,0,0,1-.81,2.19,2,2,0,0,1-.66.79,1.53,1.53,0,0,1-.84.25A1.94,1.94,0,0,1,1013,49.59Z"/><path class="cls-4" d="M1019,46.4V44.8h1.31v1.6Z"/><path class="cls-4" d="M738.88,533.65V522.2h1.24v10.1h4.62v1.35Z"/><path class="cls-4" d="M750.54,533.65v-1.22a3,3,0,0,1-.94,1.05,2.13,2.13,0,0,1-1.22.36,2.2,2.2,0,0,1-1.37-.44,2,2,0,0,1-.76-1.1,6.6,6.6,0,0,1-.2-1.81v-5.14h1.15V530a7.62,7.62,0,0,0,.13,1.72,1.32,1.32,0,0,0,.48.69,1.23,1.23,0,0,0,.79.26A1.65,1.65,0,0,0,750,532a3.73,3.73,0,0,0,.45-2.15v-4.45h1.16v8.3Z"/><path class="cls-4" d="M753.39,533.65v-8.3h1v1.16a2.69,2.69,0,0,1,.88-1,2.15,2.15,0,0,1,1.18-.35,2,2,0,0,1,1.21.37,2,2,0,0,1,.71,1.08,3.06,3.06,0,0,1,.94-1.08,2,2,0,0,1,1.17-.37,1.92,1.92,0,0,1,1.54.67,3.22,3.22,0,0,1,.57,2.12v5.7h-1.15v-5.23a4.19,4.19,0,0,0-.13-1.27,1.17,1.17,0,0,0-.42-.57,1.09,1.09,0,0,0-.65-.2,1.47,1.47,0,0,0-1.22.59,3,3,0,0,0-.47,1.85v4.83h-1.15v-5.4a2.48,2.48,0,0,0-.32-1.45,1,1,0,0,0-.87-.42A1.45,1.45,0,0,0,755,527a4.2,4.2,0,0,0-.46,2.33v4.31Z"/><path class="cls-4" d="M764.31,536.83V525.35h1.07v1.08a2.59,2.59,0,0,1,.86-1,2,2,0,0,1,1.09-.3,2.36,2.36,0,0,1,1.45.48,3.35,3.35,0,0,1,1.05,1.45,6.3,6.3,0,0,1,.39,2.34,5.23,5.23,0,0,1-.89,3.26,2.59,2.59,0,0,1-2.08,1.15,1.86,1.86,0,0,1-1-.28,2.44,2.44,0,0,1-.8-.77v4Zm1.05-7.28a4.15,4.15,0,0,0,.54,2.37,1.47,1.47,0,0,0,2.59,0,4.38,4.38,0,0,0,.55-2.44,4.26,4.26,0,0,0-.54-2.4,1.42,1.42,0,0,0-2.57.06A4.33,4.33,0,0,0,765.36,529.55Z"/><path class="cls-4" d="M771.16,531.16l1.15-.21a2,2,0,0,0,.56,1.3,1.93,1.93,0,0,0,2.35.06,1.19,1.19,0,0,0,.41-.94.9.9,0,0,0-.35-.77,4.64,4.64,0,0,0-1.17-.47,8.28,8.28,0,0,1-1.8-.7,2,2,0,0,1-.7-.77,2.36,2.36,0,0,1-.25-1.11,2.31,2.31,0,0,1,.68-1.72,2.58,2.58,0,0,1,1.88-.67,2.93,2.93,0,0,1,1.33.28,2,2,0,0,1,.88.73,3,3,0,0,1,.42,1.32l-1.12.19a1.35,1.35,0,0,0-1.48-1.36,1.71,1.71,0,0,0-1.11.3.94.94,0,0,0-.37.77.87.87,0,0,0,.35.72,6.55,6.55,0,0,0,1.25.5,9.14,9.14,0,0,1,1.85.72,1.82,1.82,0,0,1,.66.74,2.51,2.51,0,0,1,.23,1.1,2.58,2.58,0,0,1-.75,1.93,2.82,2.82,0,0,1-2.06.74C772.37,533.84,771.42,533,771.16,531.16Z"/><path class="cls-4" d="M781.38,531.16l1.14-.21a2.07,2.07,0,0,0,.56,1.3,1.65,1.65,0,0,0,1.2.43,1.62,1.62,0,0,0,1.15-.37,1.19,1.19,0,0,0,.41-.94.9.9,0,0,0-.35-.77,4.64,4.64,0,0,0-1.17-.47,8.5,8.5,0,0,1-1.8-.7,2,2,0,0,1-.7-.77,2.36,2.36,0,0,1-.25-1.11,2.31,2.31,0,0,1,.68-1.72,2.58,2.58,0,0,1,1.88-.67,2.93,2.93,0,0,1,1.33.28,2,2,0,0,1,.88.73,3.15,3.15,0,0,1,.43,1.32l-1.13.19a1.35,1.35,0,0,0-1.48-1.36,1.71,1.71,0,0,0-1.11.3.94.94,0,0,0-.37.77.87.87,0,0,0,.35.72,6.55,6.55,0,0,0,1.25.5,9.31,9.31,0,0,1,1.86.72,1.87,1.87,0,0,1,.65.74,2.38,2.38,0,0,1,.23,1.1,2.58,2.58,0,0,1-.75,1.93,2.82,2.82,0,0,1-2.06.74C782.58,533.84,781.64,533,781.38,531.16Z"/><path class="cls-4" d="M792.84,533.65v-1.22a3,3,0,0,1-.94,1.05,2.16,2.16,0,0,1-1.22.36,2.21,2.21,0,0,1-1.38-.44,2.06,2.06,0,0,1-.76-1.1,7.09,7.09,0,0,1-.19-1.81v-5.14h1.15V530a7.06,7.06,0,0,0,.13,1.72,1.22,1.22,0,0,0,.48.69,1.23,1.23,0,0,0,.79.26,1.66,1.66,0,0,0,1.36-.67,3.73,3.73,0,0,0,.45-2.15v-4.45h1.16v8.3Z"/><path class="cls-4" d="M795.23,531.16l1.15-.21a2,2,0,0,0,.56,1.3,1.93,1.93,0,0,0,2.35.06,1.19,1.19,0,0,0,.41-.94.9.9,0,0,0-.35-.77,4.64,4.64,0,0,0-1.17-.47,8.28,8.28,0,0,1-1.8-.7,2,2,0,0,1-.7-.77,2.36,2.36,0,0,1-.25-1.11,2.31,2.31,0,0,1,.68-1.72,2.58,2.58,0,0,1,1.88-.67,2.93,2.93,0,0,1,1.33.28,2,2,0,0,1,.88.73,3,3,0,0,1,.42,1.32l-1.12.19a1.35,1.35,0,0,0-1.48-1.36,1.71,1.71,0,0,0-1.11.3.94.94,0,0,0-.37.77.87.87,0,0,0,.35.72,6.55,6.55,0,0,0,1.25.5,9.59,9.59,0,0,1,1.86.72,1.87,1.87,0,0,1,.65.74,2.51,2.51,0,0,1,.23,1.1,2.58,2.58,0,0,1-.75,1.93,2.82,2.82,0,0,1-2.06.74C796.44,533.84,795.5,533,795.23,531.16Z"/><path class="cls-4" d="M802.24,536.83V525.35h1.06v1.08a2.7,2.7,0,0,1,.87-1,2,2,0,0,1,1.09-.3,2.36,2.36,0,0,1,1.45.48,3.26,3.26,0,0,1,1,1.45,6.09,6.09,0,0,1,.4,2.34,5.23,5.23,0,0,1-.89,3.26,2.59,2.59,0,0,1-2.08,1.15,1.86,1.86,0,0,1-1-.28,2.44,2.44,0,0,1-.8-.77v4Zm1-7.28a4.15,4.15,0,0,0,.54,2.37,1.47,1.47,0,0,0,2.59,0,4.38,4.38,0,0,0,.55-2.44,4.26,4.26,0,0,0-.54-2.4,1.42,1.42,0,0,0-2.57.06A4.33,4.33,0,0,0,803.29,529.55Z"/><path class="cls-4" d="M814.19,531l1.19.18a3.62,3.62,0,0,1-1.08,2,2.83,2.83,0,0,1-1.92.68,2.86,2.86,0,0,1-2.34-1.1,4.89,4.89,0,0,1-.9-3.17,5.19,5.19,0,0,1,.9-3.28,2.82,2.82,0,0,1,2.29-1.13,2.71,2.71,0,0,1,2.2,1.11,5.05,5.05,0,0,1,.88,3.21v.38h-5.08A3.57,3.57,0,0,0,811,532a1.75,1.75,0,0,0,1.4.71C813.25,532.68,813.85,532.11,814.19,531Zm-3.79-2.28h3.8a3.2,3.2,0,0,0-.47-1.61A1.68,1.68,0,0,0,811,527,2.82,2.82,0,0,0,810.4,528.7Z"/><path class="cls-4" d="M816.84,533.65v-8.3h1v1.17a2.68,2.68,0,0,1,.91-1,2.43,2.43,0,0,1,2.25-.12,2.05,2.05,0,0,1,.75.56,2.36,2.36,0,0,1,.43.9,7.81,7.81,0,0,1,.14,1.71v5.1h-1.15v-5a4,4,0,0,0-.16-1.34,1.27,1.27,0,0,0-1.25-.88,1.59,1.59,0,0,0-1.32.61,3.45,3.45,0,0,0-.5,2.12v4.54Z"/><path class="cls-4" d="M828.54,533.65v-1a2.36,2.36,0,0,1-.81.92,1.91,1.91,0,0,1-1.06.32,2.58,2.58,0,0,1-2.08-1.14,5.1,5.1,0,0,1-.88-3.2,6.56,6.56,0,0,1,.39-2.4,3.29,3.29,0,0,1,1-1.46,2.4,2.4,0,0,1,1.45-.48,2,2,0,0,1,1.06.3,2.58,2.58,0,0,1,.8.84v-4.1h1.17v11.45Zm-3.65-4.14a4.15,4.15,0,0,0,.56,2.39,1.6,1.6,0,0,0,1.3.78,1.56,1.56,0,0,0,1.28-.75,4,4,0,0,0,.53-2.27,4.76,4.76,0,0,0-.53-2.54,1.61,1.61,0,0,0-1.36-.8,1.52,1.52,0,0,0-1.26.77A4.46,4.46,0,0,0,824.89,529.51Z"/><path class="cls-4" d="M836.08,531l1.19.18a3.62,3.62,0,0,1-1.08,2,2.83,2.83,0,0,1-1.92.68,2.86,2.86,0,0,1-2.34-1.1,4.89,4.89,0,0,1-.9-3.17,5.19,5.19,0,0,1,.9-3.28,2.84,2.84,0,0,1,2.29-1.13,2.71,2.71,0,0,1,2.2,1.11,5.05,5.05,0,0,1,.88,3.21v.38h-5.08a3.57,3.57,0,0,0,.65,2.11,1.75,1.75,0,0,0,1.4.71C835.14,532.68,835.74,532.11,836.08,531Zm-3.79-2.28h3.8a3.2,3.2,0,0,0-.47-1.61,1.68,1.68,0,0,0-2.73-.13A2.88,2.88,0,0,0,832.29,528.7Z"/><path class="cls-4" d="M843.13,533.65v-1a2.34,2.34,0,0,1-.8.92,1.94,1.94,0,0,1-1.06.32,2.58,2.58,0,0,1-2.09-1.14,5.16,5.16,0,0,1-.88-3.2,6.56,6.56,0,0,1,.39-2.4,3.31,3.31,0,0,1,1-1.46,2.35,2.35,0,0,1,1.44-.48,2,2,0,0,1,1.06.3,2.71,2.71,0,0,1,.81.84v-4.1h1.16v11.45Zm-3.65-4.14a4.15,4.15,0,0,0,.56,2.39,1.61,1.61,0,0,0,1.3.78,1.56,1.56,0,0,0,1.28-.75,3.9,3.9,0,0,0,.54-2.27,4.66,4.66,0,0,0-.54-2.54,1.6,1.6,0,0,0-1.36-.8,1.5,1.5,0,0,0-1.25.77A4.36,4.36,0,0,0,839.48,529.51Z"/><path class="cls-4" d="M849.67,523.81V522.2h1.15v1.61Zm0,9.84v-8.3h1.15v8.3Z"/><path class="cls-4" d="M852.59,533.65v-8.3h1v1.17a2.87,2.87,0,0,1,.92-1,2.43,2.43,0,0,1,2.25-.12,2.05,2.05,0,0,1,.75.56,2.22,2.22,0,0,1,.43.9,7.81,7.81,0,0,1,.14,1.71v5.1H857v-5a4,4,0,0,0-.16-1.34,1.27,1.27,0,0,0-1.25-.88,1.59,1.59,0,0,0-1.32.61,3.45,3.45,0,0,0-.5,2.12v4.54Z"/><path class="cls-4" d="M743.24,550.65v-1.22a2.86,2.86,0,0,1-.94,1.05,2.1,2.1,0,0,1-1.21.36,2.21,2.21,0,0,1-1.38-.44,2.06,2.06,0,0,1-.76-1.1,6.66,6.66,0,0,1-.19-1.81v-5.14h1.15V547a7.06,7.06,0,0,0,.13,1.72,1.3,1.3,0,0,0,1.26,1,1.64,1.64,0,0,0,1.36-.67,3.64,3.64,0,0,0,.46-2.15v-4.45h1.15v8.3Z"/><path class="cls-4" d="M746.09,550.65v-8.3h1v1.17a2.87,2.87,0,0,1,.92-1,2.43,2.43,0,0,1,2.25-.12,2.05,2.05,0,0,1,.75.56,2.22,2.22,0,0,1,.43.9,7.81,7.81,0,0,1,.14,1.71v5.1h-1.15v-5a4,4,0,0,0-.16-1.34,1.27,1.27,0,0,0-1.25-.88,1.59,1.59,0,0,0-1.32.61,3.45,3.45,0,0,0-.5,2.12v4.54Z"/><path class="cls-4" d="M753.41,550.65V539.2h1.14v6.54l2.74-3.39h1.5l-2.61,3.08,2.86,5.22h-1.41l-2.26-4.25-.82,1v3.29Z"/><path class="cls-4" d="M760,550.65v-8.3h1v1.17a2.78,2.78,0,0,1,.92-1,2.43,2.43,0,0,1,2.25-.12,2.05,2.05,0,0,1,.75.56,2.36,2.36,0,0,1,.43.9,7.81,7.81,0,0,1,.14,1.71v5.1h-1.15v-5a4,4,0,0,0-.16-1.34,1.27,1.27,0,0,0-1.25-.88,1.58,1.58,0,0,0-1.32.61,3.45,3.45,0,0,0-.5,2.12v4.54Z"/><path class="cls-4" d="M766.8,546.5a5,5,0,0,1,.91-3.24,2.91,2.91,0,0,1,4.56,0,4.79,4.79,0,0,1,.91,3.15,5.17,5.17,0,0,1-.9,3.33,2.92,2.92,0,0,1-4.57,0A5,5,0,0,1,766.8,546.5Zm1.18,0a4,4,0,0,0,.59,2.39,1.75,1.75,0,0,0,1.45.79,1.69,1.69,0,0,0,1.4-.79,4,4,0,0,0,.58-2.39,4,4,0,0,0-.59-2.39,1.74,1.74,0,0,0-1.45-.79,1.69,1.69,0,0,0-1.4.79A4.08,4.08,0,0,0,768,546.5Z"/><path class="cls-4" d="M775.79,550.65l-2.09-8.3h1.19l1.09,4.79.4,1.78.36-1.71,1.08-4.86H779l1,4.81.34,1.59.39-1.6,1.16-4.8H783l-2.12,8.3h-1.21l-1.08-5-.26-1.41L777,550.65Z"/><path class="cls-4" d="M784,550.65v-8.3h1v1.17a2.76,2.76,0,0,1,.91-1,2.36,2.36,0,0,1,1.25-.34,2.44,2.44,0,0,1,1,.22,2.05,2.05,0,0,1,.75.56,2.21,2.21,0,0,1,.42.9,7.81,7.81,0,0,1,.14,1.71v5.1h-1.15v-5a4.34,4.34,0,0,0-.15-1.34,1.36,1.36,0,0,0-.49-.65,1.27,1.27,0,0,0-.77-.23,1.6,1.6,0,0,0-1.32.61,3.46,3.46,0,0,0-.49,2.12v4.54Z"/><path class="cls-4" d="M795,550.65v-8.3h1v1.16a2.69,2.69,0,0,1,.88-1,2.15,2.15,0,0,1,1.18-.35,2,2,0,0,1,1.21.37,2,2,0,0,1,.71,1.08,3.06,3.06,0,0,1,.94-1.08,2,2,0,0,1,1.17-.37,1.92,1.92,0,0,1,1.54.67,3.22,3.22,0,0,1,.57,2.12v5.7H803v-5.23a4.19,4.19,0,0,0-.13-1.27,1.17,1.17,0,0,0-.42-.57,1.09,1.09,0,0,0-.65-.2,1.47,1.47,0,0,0-1.22.59,3,3,0,0,0-.47,1.85v4.83H799v-5.4a2.48,2.48,0,0,0-.32-1.45,1,1,0,0,0-.87-.42,1.45,1.45,0,0,0-1.24.63,4.2,4.2,0,0,0-.46,2.33v4.31Z"/><path class="cls-4" d="M810.53,548l1.19.18a3.62,3.62,0,0,1-1.08,2,2.82,2.82,0,0,1-1.92.68,2.88,2.88,0,0,1-2.34-1.1,4.89,4.89,0,0,1-.9-3.17,5.19,5.19,0,0,1,.91-3.28,2.8,2.8,0,0,1,2.28-1.13,2.72,2.72,0,0,1,2.21,1.11,5.11,5.11,0,0,1,.88,3.21v.38h-5.08a3.57,3.57,0,0,0,.65,2.11,1.77,1.77,0,0,0,1.41.71C809.59,549.68,810.19,549.11,810.53,548Zm-3.79-2.28h3.8a3.21,3.21,0,0,0-.46-1.61,1.69,1.69,0,0,0-1.42-.77,1.72,1.72,0,0,0-1.32.64A2.88,2.88,0,0,0,806.74,545.7Z"/><path class="cls-4" d="M817.59,550.65v-1a2.36,2.36,0,0,1-.81.92,1.94,1.94,0,0,1-1.06.32,2.57,2.57,0,0,1-2.08-1.14,5.1,5.1,0,0,1-.88-3.2,6.56,6.56,0,0,1,.39-2.4,3.22,3.22,0,0,1,1-1.46,2.38,2.38,0,0,1,1.45-.48,1.94,1.94,0,0,1,1.05.3,2.51,2.51,0,0,1,.81.84v-4.1h1.16v11.45Zm-3.65-4.14a4.07,4.07,0,0,0,.56,2.39,1.58,1.58,0,0,0,1.3.78,1.55,1.55,0,0,0,1.27-.75,3.9,3.9,0,0,0,.54-2.27,4.66,4.66,0,0,0-.54-2.54,1.6,1.6,0,0,0-1.36-.8,1.52,1.52,0,0,0-1.25.77A4.37,4.37,0,0,0,813.94,546.51Z"/><path class="cls-4" d="M820.48,540.81V539.2h1.14v1.61Zm0,9.84v-8.3h1.14v8.3Z"/><path class="cls-4" d="M827.84,550.65v-1.22a2.84,2.84,0,0,1-.93,1.05,2.16,2.16,0,0,1-1.22.36,2.21,2.21,0,0,1-1.38-.44,2.06,2.06,0,0,1-.76-1.1,6.66,6.66,0,0,1-.19-1.81v-5.14h1.15V547a7.06,7.06,0,0,0,.13,1.72,1.3,1.3,0,0,0,1.27,1,1.66,1.66,0,0,0,1.36-.67,3.73,3.73,0,0,0,.45-2.15v-4.45h1.16v8.3Z"/><path class="cls-4" d="M830.7,550.65v-8.3h1v1.16a2.69,2.69,0,0,1,.88-1,2.15,2.15,0,0,1,1.18-.35,1.86,1.86,0,0,1,1.91,1.45,3.27,3.27,0,0,1,.94-1.08,2,2,0,0,1,1.17-.37,1.94,1.94,0,0,1,1.55.67,3.28,3.28,0,0,1,.56,2.12v5.7h-1.15v-5.23a4.19,4.19,0,0,0-.13-1.27,1.11,1.11,0,0,0-1.07-.77,1.48,1.48,0,0,0-1.22.59,3,3,0,0,0-.47,1.85v4.83h-1.15v-5.4a2.49,2.49,0,0,0-.31-1.45,1,1,0,0,0-.87-.42,1.47,1.47,0,0,0-1.25.63,4.29,4.29,0,0,0-.46,2.33v4.31Z"/><path class="cls-4" d="M842,550.65v-1.6h1.31v1.6Z"/><path class="cls-4" d="M923.7,281.65h-1.15v-9a6.08,6.08,0,0,1-1.07.95,6.3,6.3,0,0,1-1.24.74V273a7.1,7.1,0,0,0,1.69-1.33,5.06,5.06,0,0,0,1-1.54h.75Z"/><path class="cls-4" d="M932.74,280.3v1.35h-6.22a3.9,3.9,0,0,1,.5-1.84,10.36,10.36,0,0,1,1.9-2.4,13.25,13.25,0,0,0,2.12-2.49,3.39,3.39,0,0,0,.5-1.64,2,2,0,0,0-.51-1.42,1.73,1.73,0,0,0-2.58,0,2.52,2.52,0,0,0-.52,1.71l-1.19-.15a3.91,3.91,0,0,1,.94-2.48,2.85,2.85,0,0,1,2.13-.83,2.55,2.55,0,0,1,2.17,1,3.54,3.54,0,0,1,.74,2.2,4.11,4.11,0,0,1-.58,2.1,15.6,15.6,0,0,1-2.19,2.67c-.69.71-1.14,1.19-1.34,1.44a4.05,4.05,0,0,0-.48.77Z"/><path class="cls-4" d="M934,278.65l1.22-.13a2.85,2.85,0,0,0,.63,1.63,1.53,1.53,0,0,0,1.15.54,1.76,1.76,0,0,0,1.42-.76,3.28,3.28,0,0,0,.59-2.06,2.85,2.85,0,0,0-.57-1.9,1.84,1.84,0,0,0-2.42-.39,2.08,2.08,0,0,0-.73.82l-1.08-.17.91-5.89h4.67v1.35H936l-.5,3.08a2.57,2.57,0,0,1,3.82.28,4,4,0,0,1,.87,2.71,4.77,4.77,0,0,1-.87,2.88,2.75,2.75,0,0,1-2.34,1.2,2.81,2.81,0,0,1-2.06-.84A3.64,3.64,0,0,1,934,278.65Z"/><g class="cls-2"><path class="cls-3" d="M92.16,31c2.69,5.91,20.5,16.63,25.42,20q20.3,13.47,41.77,24.93a36,36,0,0,0,16.33,6.9"/></g><line class="cls-3" x1="311.04" y1="87.12" x2="315" y2="87.12"/><g class="cls-2"><path class="cls-3" d="M342,164.88c3.46,10.55,17.28,17.92,25.7,22.43,31.62,16.95,70.45,25.06,106.06,23.65"/><path class="cls-3" d="M519.84,408.24c2.22,1.23,2.92,3.26,2.16,5.76"/><path class="cls-3" d="M253.44,203.76c-.14-25,3.56-61.49-23-74.88"/><path class="cls-3" d="M298.08,113a17.88,17.88,0,0,0-3-12.48C284.21,74.75,261.17,65.38,237.6,54"/><path class="cls-3" d="M633.6,730.8c-15.06,0-31.14,1.78-46.08-.25.2-2.62.12-4.32-1.48-6.48-4.43-1.39-8.9-2.69-13.38-3.92-8.73-2.43-19.07-4.33-27.32-8.15a1.26,1.26,0,0,0-.63-1.49c-.55-.23-3.85-1.4-4.12-1.53a27.66,27.66,0,0,1-7.79-3.32c-1.26-1.42-1.16-5.21-2.27-6-3.85-2.85-8.82,1.15-12.41,1.8-6.41,1.17-4.51-2.28-9.88-5.24-4.43-2.45-9.87-2.65-13.67-5.18-5.49-3.66-8.51-6-14.88-7.39,1-11-9.79-6.36-16.39-9.27-3.94-1.73-4.36-3.51-6.54-6.63a33.32,33.32,0,0,0-6.75-8,66.56,66.56,0,0,1-7.17-4.94c-1.3-1.66-.8-3.49-2.26-5-2.3-2.36-5.61-2.1-8.05-4.87-2.14-2.44-2.15-4.23-3-7.46-4.58-17.75-4.92-33.81-4.75-52.43"/><path class="cls-3" d="M198,307.44V281.52h18v-3.6h.12c9.24,0,32.28-.13,32.28-.13l41.76-.12,20.88-.13,34.56-.12c6.48-.13,42.48,9.14,42.48,9.14l64.8,5.81,38.88-15.08,30.24-.11"/><path class="cls-3" d="M502.56,175c.4-.37.8-.74,1.19-1.12,1.35,7.9-1.67,16.41-.9,24.43a59.62,59.62,0,0,0,18,34.15c2.4,2.33,16.35,9.37,17.83,13.73a38,38,0,0,1-7.49,7.39c-4.43,5.57-2.33,10.24-.87,16.34,1.22,5.08,2,9-2.17,12.67,5.73-7.88,17.72-13.94,26.18-17.85,9-4.14,10.56-3.45,10.39,6.08s-1.92,20.46,0,30a29.65,29.65,0,0,0,12.17-2.22c2.75-1.22,3.93-3.09,6.45-3.23a11.7,11.7,0,0,0-.18,5.71q-.09,17.52-.41,35a40.5,40.5,0,0,0,5.4,24.31,21.47,21.47,0,0,0,16.62,7.12,151,151,0,0,1,17.51,4.66q3,1.37,1.6,5.19c1.91,8.41-1.1,20.52,3.11,28.24,2.24,4.11,12.28,8.28,16.47,10.3,5,2.39,12.7,5.91,17.94,6.84a2.84,2.84,0,0,0,3.25,0,48.52,48.52,0,0,1,29.7,3.54q62.08,15,123,34.08l51.23,21.51q35.67,19.8,50.05,57.48"/></g></g></svg>