<svg id="Layer_1" data-name="Layer 1" xmlns="http://www.w3.org/2000/svg" xmlns:xlink="http://www.w3.org/1999/xlink" viewBox="0 0 1080 756"><defs><style>.cls-1,.cls-3{fill:none;}.cls-2{clip-path:url(#clip-path);}.cls-3{stroke:#231f20;stroke-width:0.25px;}.cls-4{fill:#231f20;}</style><clipPath id="clip-path"><rect class="cls-1" width="1080" height="756"/></clipPath></defs><title>Untitled-3</title><g class="cls-2"><g class="cls-2"><line class="cls-3" x1="180" y1="-18.36" x2="180" y2="790.92"/><line class="cls-3" x1="720" y1="-20.88" x2="720" y2="788.4"/><line class="cls-3" x1="359.88" y1="-18.36" x2="359.88" y2="790.92"/><line class="cls-3" x1="899.87" y1="-20.88" x2="899.87" y2="788.4"/><line class="cls-3" x1="-16.92" y1="251.88" x2="1101.6" y2="251.88"/><line class="cls-3" x1="-11.52" y1="504.13" x2="1107" y2="504.13"/><line class="cls-3" x1="540" y1="-19.44" x2="540" y2="789.84"/></g><path class="cls-4" d="M383.3,26.73l1.14.18a3.82,3.82,0,0,1-1,2.27,2.61,2.61,0,0,1-1.89.78,2.7,2.7,0,0,1-2.2-1.1,5.2,5.2,0,0,1-.86-3.24,5.1,5.1,0,0,1,.87-3.25,2.75,2.75,0,0,1,2.24-1.08,2.52,2.52,0,0,1,1.77.66,3.18,3.18,0,0,1,.93,2l-1.12.21a2.47,2.47,0,0,0-.57-1.26,1.29,1.29,0,0,0-1-.41,1.69,1.69,0,0,0-1.41.75,4,4,0,0,0-.56,2.39,4.45,4.45,0,0,0,.53,2.46,1.63,1.63,0,0,0,1.37.75,1.43,1.43,0,0,0,1.12-.5A2.74,2.74,0,0,0,383.3,26.73Z"/><path class="cls-4" d="M389.87,29.77V28.55a3,3,0,0,1-.94,1.06,2.23,2.23,0,0,1-1.22.35,2.18,2.18,0,0,1-1.37-.43,2.12,2.12,0,0,1-.77-1.1,7.14,7.14,0,0,1-.19-1.81V21.48h1.15v4.6a7,7,0,0,0,.13,1.71,1.38,1.38,0,0,0,.48.7,1.29,1.29,0,0,0,.79.26,1.67,1.67,0,0,0,1.36-.68,3.71,3.71,0,0,0,.45-2.15V21.48h1.16v8.29Z"/><path class="cls-4" d="M395.27,28.52l.16,1.24a3.54,3.54,0,0,1-.86.12,1.76,1.76,0,0,1-1-.24,1.17,1.17,0,0,1-.5-.65,6.29,6.29,0,0,1-.14-1.65V22.57h-.84V21.48H393V19.42l1.15-.84v2.9h1.16v1.09h-1.16v4.85a2.26,2.26,0,0,0,.1.87.57.57,0,0,0,.56.28A3.64,3.64,0,0,0,395.27,28.52Z"/><path class="cls-4" d="M396.36,19.94V18.32h1.15v1.62Zm0,9.83V21.48h1.15v8.29Z"/><path class="cls-4" d="M403.92,27.1l1.19.18a3.7,3.7,0,0,1-1.07,2,2.84,2.84,0,0,1-1.93.67,2.89,2.89,0,0,1-2.34-1.1,4.86,4.86,0,0,1-.89-3.16,5.15,5.15,0,0,1,.9-3.28,2.8,2.8,0,0,1,2.28-1.13,2.72,2.72,0,0,1,2.21,1.11,5.11,5.11,0,0,1,.88,3.21V26h-5.08a3.62,3.62,0,0,0,.65,2.11,1.75,1.75,0,0,0,1.41.71C403,28.8,403.58,28.24,403.92,27.1Zm-3.79-2.27h3.8a3.18,3.18,0,0,0-.46-1.61,1.66,1.66,0,0,0-1.42-.77,1.68,1.68,0,0,0-1.32.64A2.88,2.88,0,0,0,400.13,24.83Z"/><path class="cls-4" d="M410.18,29.77V18.32h1.15V29.77Z"/><path class="cls-4" d="M413.13,19.94V18.32h1.15v1.62Zm0,9.83V21.48h1.15v8.29Z"/><path class="cls-4" d="M418.61,28.52l.16,1.24a3.61,3.61,0,0,1-.86.12,1.72,1.72,0,0,1-1-.24,1.14,1.14,0,0,1-.51-.65,6.43,6.43,0,0,1-.13-1.65V22.57h-.85V21.48h.85V19.42l1.15-.84v2.9h1.16v1.09h-1.16v4.85a2.26,2.26,0,0,0,.1.87.56.56,0,0,0,.55.28A3.92,3.92,0,0,0,418.61,28.52Z"/><path class="cls-4" d="M422.26,28.52l.15,1.24a3.48,3.48,0,0,1-.86.12,1.71,1.71,0,0,1-1-.24,1.14,1.14,0,0,1-.51-.65,6.43,6.43,0,0,1-.13-1.65V22.57h-.85V21.48H420V19.42l1.14-.84v2.9h1.17v1.09h-1.17v4.85a2.2,2.2,0,0,0,.11.87.55.55,0,0,0,.55.28A3.92,3.92,0,0,0,422.26,28.52Z"/><path class="cls-4" d="M423.3,29.77V18.32h1.15V29.77Z"/><path class="cls-4" d="M430.91,27.1l1.18.18a3.58,3.58,0,0,1-1.07,2,2.84,2.84,0,0,1-1.93.67,2.89,2.89,0,0,1-2.34-1.1,4.92,4.92,0,0,1-.89-3.16,5.15,5.15,0,0,1,.9-3.28,2.81,2.81,0,0,1,2.29-1.13,2.71,2.71,0,0,1,2.2,1.11,5.05,5.05,0,0,1,.88,3.21V26h-5.07a3.48,3.48,0,0,0,.65,2.11,1.72,1.72,0,0,0,1.4.71C430,28.8,430.57,28.24,430.91,27.1Zm-3.79-2.27h3.79a3.08,3.08,0,0,0-.46-1.61,1.68,1.68,0,0,0-2.73-.13A2.76,2.76,0,0,0,427.12,24.83Z"/><path class="cls-4" d="M437,30.46l1.12.2a1.46,1.46,0,0,0,.47,1,1.63,1.63,0,0,0,1.09.32,1.69,1.69,0,0,0,1.82-1.44,11.18,11.18,0,0,0,.1-1.84,2.67,2.67,0,0,1-.85.8,2,2,0,0,1-1,.27,2.47,2.47,0,0,1-2-1,5.07,5.07,0,0,1-.92-3.18,6.14,6.14,0,0,1,.41-2.33,3.19,3.19,0,0,1,1.06-1.47,2.53,2.53,0,0,1,1.48-.47,2.18,2.18,0,0,1,1.1.29,2.87,2.87,0,0,1,.88.89v-1h1.06v7.17a8.43,8.43,0,0,1-.31,2.73,2.71,2.71,0,0,1-1,1.29,3.09,3.09,0,0,1-1.71.47,2.8,2.8,0,0,1-2-.71A2.58,2.58,0,0,1,437,30.46Zm.95-5a4.18,4.18,0,0,0,.54,2.39,1.59,1.59,0,0,0,1.32.75,1.62,1.62,0,0,0,1.33-.74,3.92,3.92,0,0,0,.55-2.34,4,4,0,0,0-.56-2.33,1.66,1.66,0,0,0-1.37-.76,1.56,1.56,0,0,0-1.27.76A3.92,3.92,0,0,0,437.93,25.48Z"/><path class="cls-4" d="M449.15,27.1l1.19.18a3.65,3.65,0,0,1-1.08,2,2.83,2.83,0,0,1-1.92.67,2.86,2.86,0,0,1-2.34-1.1,4.86,4.86,0,0,1-.9-3.16,5.15,5.15,0,0,1,.9-3.28,2.84,2.84,0,0,1,2.29-1.13,2.71,2.71,0,0,1,2.2,1.11,5.05,5.05,0,0,1,.89,3.21V26h-5.08a3.55,3.55,0,0,0,.65,2.11,1.72,1.72,0,0,0,1.4.71C448.21,28.8,448.81,28.24,449.15,27.1Zm-3.79-2.27h3.8a3.28,3.28,0,0,0-.46-1.61,1.69,1.69,0,0,0-2.74-.13A2.88,2.88,0,0,0,445.36,24.83Z"/><path class="cls-4" d="M456.25,26.73l1.13.18a3.76,3.76,0,0,1-1,2.27,2.57,2.57,0,0,1-1.88.78,2.67,2.67,0,0,1-2.2-1.1,5.13,5.13,0,0,1-.87-3.24,5.1,5.1,0,0,1,.87-3.25,2.77,2.77,0,0,1,2.24-1.08,2.53,2.53,0,0,1,1.78.66,3.23,3.23,0,0,1,.93,2l-1.12.21a2.47,2.47,0,0,0-.57-1.26,1.31,1.31,0,0,0-1-.41,1.69,1.69,0,0,0-1.41.75,4.06,4.06,0,0,0-.56,2.39,4.35,4.35,0,0,0,.54,2.46,1.61,1.61,0,0,0,1.37.75,1.45,1.45,0,0,0,1.12-.5A2.74,2.74,0,0,0,456.25,26.73Z"/><path class="cls-4" d="M458.38,29.77V18.32h1.15v6.54l2.74-3.38h1.49l-2.6,3.08L464,29.77h-1.41l-2.27-4.25-.81,1v3.29Z"/><path class="cls-4" d="M464.48,25.62a5,5,0,0,1,.91-3.24,2.93,2.93,0,0,1,4.56,0,4.86,4.86,0,0,1,.91,3.16,5.17,5.17,0,0,1-.9,3.33A2.83,2.83,0,0,1,467.67,30a2.86,2.86,0,0,1-2.28-1.1A5,5,0,0,1,464.48,25.62Zm1.18,0a4,4,0,0,0,.59,2.4,1.75,1.75,0,0,0,1.45.78,1.69,1.69,0,0,0,1.4-.79,4,4,0,0,0,.58-2.39,4,4,0,0,0-.59-2.39,1.75,1.75,0,0,0-1.45-.78,1.69,1.69,0,0,0-1.4.79A4,4,0,0,0,465.66,25.62Z"/><path class="cls-4" d="M472.55,29.77v-1.6h1.32v1.6a3.11,3.11,0,0,1-.28,1.46,1.87,1.87,0,0,1-.79.81l-.32-.6a1.25,1.25,0,0,0,.53-.56,2.81,2.81,0,0,0,.19-1.11Z"/><path class="cls-4" d="M20.11,29.65,18,21.35h1.19l1.08,4.79.4,1.78.36-1.71,1.08-4.86h1.19l1,4.81.35,1.59.39-1.6,1.16-4.8h1.12l-2.12,8.3H24l-1.09-5-.26-1.41-1.37,6.38Z"/><path class="cls-4" d="M27.88,25.5a5,5,0,0,1,.91-3.24,2.9,2.9,0,0,1,4.55,0,4.79,4.79,0,0,1,.92,3.15,5.17,5.17,0,0,1-.9,3.33,2.92,2.92,0,0,1-4.57,0A5,5,0,0,1,27.88,25.5Zm1.18,0a4,4,0,0,0,.59,2.39,1.74,1.74,0,0,0,1.45.79,1.7,1.7,0,0,0,1.4-.79,4.11,4.11,0,0,0,.58-2.39,4,4,0,0,0-.59-2.39A1.74,1.74,0,0,0,31,22.32a1.69,1.69,0,0,0-1.4.79A4,4,0,0,0,29.06,25.5Z"/><path class="cls-4" d="M35.62,29.65v-8.3h1v1.26a3.5,3.5,0,0,1,.73-1.16,1.12,1.12,0,0,1,.74-.29,2,2,0,0,1,1.18.46l-.39,1.3a1.43,1.43,0,0,0-.83-.3,1,1,0,0,0-.68.26,1.45,1.45,0,0,0-.43.71,6.79,6.79,0,0,0-.21,1.71v4.35Z"/><path class="cls-4" d="M44.39,29.65v-1a2.42,2.42,0,0,1-.8.92,2,2,0,0,1-1.07.32,2.58,2.58,0,0,1-2.08-1.14,5.16,5.16,0,0,1-.88-3.2A6.56,6.56,0,0,1,40,23.1a3.29,3.29,0,0,1,1-1.46,2.4,2.4,0,0,1,1.45-.48,2,2,0,0,1,1.06.3,2.58,2.58,0,0,1,.8.84V18.2h1.17V29.65Zm-3.65-4.14a4.15,4.15,0,0,0,.56,2.39,1.6,1.6,0,0,0,1.3.78,1.56,1.56,0,0,0,1.28-.75,3.9,3.9,0,0,0,.54-2.27,4.66,4.66,0,0,0-.54-2.54,1.61,1.61,0,0,0-1.36-.8,1.5,1.5,0,0,0-1.25.77A4.36,4.36,0,0,0,40.74,25.51Z"/><path class="cls-4" d="M46.84,26.21V24.8h3.54v1.41Z"/><path class="cls-4" d="M52.9,29.65l-2.09-8.3H52l1.09,4.79.4,1.78.36-1.71,1.08-4.86h1.19l1,4.81.34,1.59.39-1.6L59,21.35h1.13L58,29.65h-1.2l-1.08-5-.26-1.41-1.37,6.38Z"/><path class="cls-4" d="M61.12,29.65v-8.3h1v1.26a3.5,3.5,0,0,1,.73-1.16,1.12,1.12,0,0,1,.74-.29,2,2,0,0,1,1.18.46l-.39,1.3a1.43,1.43,0,0,0-.83-.3,1,1,0,0,0-.68.26,1.45,1.45,0,0,0-.43.71,6.79,6.79,0,0,0-.21,1.71v4.35Z"/><path class="cls-4" d="M69.91,28.62a4,4,0,0,1-1.2.91,3,3,0,0,1-1.3.31,2.3,2.3,0,0,1-1.69-.64,2.37,2.37,0,0,1-.63-1.73,2.62,2.62,0,0,1,.29-1.27,2.22,2.22,0,0,1,.82-.87,4.2,4.2,0,0,1,1.56-.46,8.87,8.87,0,0,0,2.06-.49V24a1.78,1.78,0,0,0-.31-1.2,1.64,1.64,0,0,0-1.32-.5,1.87,1.87,0,0,0-1.2.33,2.21,2.21,0,0,0-.59,1.26l-1.13-.19a3.18,3.18,0,0,1,1-1.95,3.29,3.29,0,0,1,2.12-.61,3,3,0,0,1,1.67.41,1.67,1.67,0,0,1,.77,1A7,7,0,0,1,71,24.3v1.87a23.12,23.12,0,0,0,.08,2.48,3.94,3.94,0,0,0,.29,1h-1.2A3.63,3.63,0,0,1,69.91,28.62Zm-.09-3.14a7.34,7.34,0,0,1-1.88.54,3.33,3.33,0,0,0-1,.28,1.21,1.21,0,0,0-.45.45,1.48,1.48,0,0,0-.16.68,1.24,1.24,0,0,0,.37.95,1.38,1.38,0,0,0,1,.35,2,2,0,0,0,1.87-1.17A3.78,3.78,0,0,0,69.82,26Z"/><path class="cls-4" d="M72.78,32.83V21.35h1.06v1.08a2.7,2.7,0,0,1,.87-1,2,2,0,0,1,1.09-.3,2.36,2.36,0,0,1,1.45.48,3.26,3.26,0,0,1,1,1.45,6.09,6.09,0,0,1,.4,2.34,5.23,5.23,0,0,1-.89,3.26,2.59,2.59,0,0,1-2.08,1.15,1.81,1.81,0,0,1-1-.28,2.44,2.44,0,0,1-.8-.77v4Zm1-7.28a4.15,4.15,0,0,0,.54,2.37,1.56,1.56,0,0,0,1.3.76A1.54,1.54,0,0,0,77,27.89a4.29,4.29,0,0,0,.56-2.44,4.26,4.26,0,0,0-.54-2.4,1.42,1.42,0,0,0-2.57.06A4.33,4.33,0,0,0,73.83,25.55Z"/><path class="cls-4" d="M202.87,281.77h-1.16v-9a6.13,6.13,0,0,1-1.07,1,7.84,7.84,0,0,1-1.23.74v-1.36a7.29,7.29,0,0,0,1.68-1.34,5,5,0,0,0,1-1.54h.75Z"/><path class="cls-4" d="M211.8,273.12l-1.15.11a2.8,2.8,0,0,0-.48-1.26,1.42,1.42,0,0,0-1.11-.54,1.85,1.85,0,0,0-1.62,1.25,7.86,7.86,0,0,0-.53,3.19,3,3,0,0,1,1-1.14,2.34,2.34,0,0,1,1.28-.39,2.48,2.48,0,0,1,1.95,1,4.13,4.13,0,0,1,.83,2.7,5,5,0,0,1-.42,2.08,3.15,3.15,0,0,1-1.07,1.38A2.51,2.51,0,0,1,209,282a2.78,2.78,0,0,1-2.34-1.28,7.51,7.51,0,0,1-.92-4.28,8.86,8.86,0,0,1,.94-4.73,2.83,2.83,0,0,1,2.42-1.41,2.44,2.44,0,0,1,1.79.73A3.51,3.51,0,0,1,211.8,273.12Zm-4.71,4.94a3.17,3.17,0,0,0,.59,2,1.69,1.69,0,0,0,1.36.75,1.49,1.49,0,0,0,1.21-.71,3.14,3.14,0,0,0,.54-2,3,3,0,0,0-.53-1.89,1.61,1.61,0,0,0-1.3-.67,1.67,1.67,0,0,0-1.31.66A2.76,2.76,0,0,0,207.09,278.06Z"/><path class="cls-4" d="M558.62,282.46l1.13.2a1.46,1.46,0,0,0,.47,1,1.62,1.62,0,0,0,1.08.32,1.88,1.88,0,0,0,1.21-.36,1.8,1.8,0,0,0,.61-1.08,9.8,9.8,0,0,0,.11-1.84,2.67,2.67,0,0,1-.85.8,2,2,0,0,1-1,.27,2.46,2.46,0,0,1-2-1,5.07,5.07,0,0,1-.92-3.18,6.15,6.15,0,0,1,.4-2.33,3.27,3.27,0,0,1,1.07-1.47,2.51,2.51,0,0,1,1.48-.47,2.18,2.18,0,0,1,1.1.29,2.87,2.87,0,0,1,.88.89v-1h1.06v7.17a8.43,8.43,0,0,1-.31,2.73,2.67,2.67,0,0,1-1,1.29,3,3,0,0,1-1.71.47,2.77,2.77,0,0,1-2-.71A2.62,2.62,0,0,1,558.62,282.46Zm1-5a4.18,4.18,0,0,0,.54,2.39,1.59,1.59,0,0,0,1.32.75,1.62,1.62,0,0,0,1.33-.74,3.92,3.92,0,0,0,.55-2.34,4,4,0,0,0-.56-2.33,1.67,1.67,0,0,0-1.37-.76,1.56,1.56,0,0,0-1.27.76A3.92,3.92,0,0,0,559.58,277.48Z"/><path class="cls-4" d="M570.8,279.1l1.18.18a3.58,3.58,0,0,1-1.07,2A2.84,2.84,0,0,1,569,282a2.89,2.89,0,0,1-2.34-1.1,4.92,4.92,0,0,1-.89-3.16,5.15,5.15,0,0,1,.9-3.28,2.82,2.82,0,0,1,2.29-1.13,2.71,2.71,0,0,1,2.2,1.11,5.05,5.05,0,0,1,.88,3.21V278h-5.08a3.48,3.48,0,0,0,.65,2.11,1.72,1.72,0,0,0,1.4.71C569.86,280.8,570.46,280.24,570.8,279.1ZM567,276.83h3.79a3.08,3.08,0,0,0-.46-1.61,1.68,1.68,0,0,0-2.73-.13A2.82,2.82,0,0,0,567,276.83Z"/><path class="cls-4" d="M577.9,278.73l1.13.18a3.82,3.82,0,0,1-1,2.27,2.57,2.57,0,0,1-1.89.78,2.7,2.7,0,0,1-2.2-1.1,5.2,5.2,0,0,1-.86-3.24,5.1,5.1,0,0,1,.87-3.25,2.75,2.75,0,0,1,2.24-1.08A2.55,2.55,0,0,1,578,274a3.17,3.17,0,0,1,.92,2l-1.11.21a2.47,2.47,0,0,0-.57-1.26,1.31,1.31,0,0,0-1-.41,1.69,1.69,0,0,0-1.41.75,4.06,4.06,0,0,0-.56,2.39,4.35,4.35,0,0,0,.54,2.46,1.61,1.61,0,0,0,1.37.75,1.46,1.46,0,0,0,1.12-.5A2.74,2.74,0,0,0,577.9,278.73Z"/><path class="cls-4" d="M580,281.77V270.32h1.15v6.54l2.74-3.38h1.49l-2.6,3.08,2.86,5.21h-1.42L582,277.52l-.81,1v3.29Z"/><path class="cls-4" d="M586.13,277.62a5,5,0,0,1,.91-3.24,2.92,2.92,0,0,1,4.55,0,4.8,4.8,0,0,1,.92,3.16,5.17,5.17,0,0,1-.9,3.33,2.83,2.83,0,0,1-2.29,1.09,2.86,2.86,0,0,1-2.28-1.1A5,5,0,0,1,586.13,277.62Zm1.18,0a4,4,0,0,0,.59,2.4,1.75,1.75,0,0,0,1.45.78,1.7,1.7,0,0,0,1.4-.79,4.11,4.11,0,0,0,.58-2.39,4,4,0,0,0-.59-2.39,1.75,1.75,0,0,0-1.45-.78,1.69,1.69,0,0,0-1.4.79A4,4,0,0,0,587.31,277.62Z"/><path class="cls-4" d="M597.48,281.77V270.32h1.14v11.45Z"/><path class="cls-4" d="M600,277.62a5,5,0,0,1,.9-3.24,2.93,2.93,0,0,1,4.56,0,4.8,4.8,0,0,1,.92,3.16,5.17,5.17,0,0,1-.9,3.33,2.83,2.83,0,0,1-2.29,1.09,2.86,2.86,0,0,1-2.28-1.1A5,5,0,0,1,600,277.62Zm1.18,0a4,4,0,0,0,.59,2.4,1.75,1.75,0,0,0,1.45.78,1.7,1.7,0,0,0,1.4-.79,4.11,4.11,0,0,0,.58-2.39,4,4,0,0,0-.59-2.39,1.75,1.75,0,0,0-1.45-.78,1.69,1.69,0,0,0-1.4.79A4,4,0,0,0,601.17,277.62Z"/><path class="cls-4" d="M607.28,279.29l1.15-.22a2.09,2.09,0,0,0,.55,1.31,1.69,1.69,0,0,0,1.2.42,1.65,1.65,0,0,0,1.16-.37,1.21,1.21,0,0,0,.41-.94.91.91,0,0,0-.35-.76,4.27,4.27,0,0,0-1.17-.47,8.15,8.15,0,0,1-1.8-.71,1.93,1.93,0,0,1-.7-.77,2.54,2.54,0,0,1,.43-2.83,2.58,2.58,0,0,1,1.88-.66,3.1,3.1,0,0,1,1.33.27,2.16,2.16,0,0,1,.88.74,3.2,3.2,0,0,1,.42,1.32l-1.12.18a1.35,1.35,0,0,0-1.48-1.35,1.7,1.7,0,0,0-1.12.3.93.93,0,0,0-.36.76.82.82,0,0,0,.35.72,5.91,5.91,0,0,0,1.25.5,9.9,9.9,0,0,1,1.85.73,1.87,1.87,0,0,1,.66.73,2.53,2.53,0,0,1,.23,1.11,2.61,2.61,0,0,1-.75,1.93,2.84,2.84,0,0,1-2.06.73C608.49,282,607.54,281.07,607.28,279.29Z"/><path class="cls-4" d="M618.94,279.1l1.18.18a3.58,3.58,0,0,1-1.07,2,3.06,3.06,0,0,1-4.26-.43,4.86,4.86,0,0,1-.9-3.16,5.15,5.15,0,0,1,.9-3.28,2.82,2.82,0,0,1,2.29-1.13,2.71,2.71,0,0,1,2.2,1.11,5.05,5.05,0,0,1,.88,3.21V278h-5.08a3.48,3.48,0,0,0,.65,2.11,1.72,1.72,0,0,0,1.4.71C618,280.8,618.6,280.24,618.94,279.1Zm-3.79-2.27H619a3.17,3.17,0,0,0-.47-1.61,1.68,1.68,0,0,0-2.73-.13A2.82,2.82,0,0,0,615.15,276.83Z"/><path class="cls-4" d="M621.14,279.29l1.15-.22a2.09,2.09,0,0,0,.55,1.31,1.69,1.69,0,0,0,1.2.42,1.65,1.65,0,0,0,1.16-.37,1.21,1.21,0,0,0,.41-.94.91.91,0,0,0-.35-.76,4.27,4.27,0,0,0-1.17-.47,8.15,8.15,0,0,1-1.8-.71,1.93,1.93,0,0,1-.7-.77A2.54,2.54,0,0,1,622,274a2.58,2.58,0,0,1,1.88-.66,3.1,3.1,0,0,1,1.33.27,2.16,2.16,0,0,1,.88.74,3.2,3.2,0,0,1,.42,1.32l-1.12.18a1.35,1.35,0,0,0-1.48-1.35,1.7,1.7,0,0,0-1.12.3.93.93,0,0,0-.36.76.82.82,0,0,0,.35.72,5.91,5.91,0,0,0,1.25.5,9.9,9.9,0,0,1,1.85.73,1.87,1.87,0,0,1,.66.73,2.53,2.53,0,0,1,.23,1.11,2.61,2.61,0,0,1-.75,1.93A2.84,2.84,0,0,1,624,282C622.35,282,621.4,281.07,621.14,279.29Z"/><path class="cls-4" d="M634.36,280.52l.16,1.24a3.61,3.61,0,0,1-.86.12,1.72,1.72,0,0,1-1-.24,1.14,1.14,0,0,1-.51-.65,6.43,6.43,0,0,1-.13-1.65v-4.77h-.85v-1.09h.85v-2.06l1.15-.84v2.9h1.16v1.09H633.2v4.85a2.26,2.26,0,0,0,.1.87.56.56,0,0,0,.55.28A3.92,3.92,0,0,0,634.36,280.52Z"/><path class="cls-4" d="M639.88,280.75a4.52,4.52,0,0,1-1.21.91,3,3,0,0,1-1.29.3,2.27,2.27,0,0,1-1.7-.64,2.36,2.36,0,0,1-.63-1.73,2.73,2.73,0,0,1,.29-1.27,2.22,2.22,0,0,1,.82-.87,4.4,4.4,0,0,1,1.56-.46,8.87,8.87,0,0,0,2.06-.49v-.36a1.73,1.73,0,0,0-.31-1.19,1.61,1.61,0,0,0-1.32-.5,1.87,1.87,0,0,0-1.2.33,2.18,2.18,0,0,0-.58,1.25l-1.14-.19a3.12,3.12,0,0,1,1-1.94,3.23,3.23,0,0,1,2.12-.61,3,3,0,0,1,1.68.4,1.77,1.77,0,0,1,.77,1,7.37,7.37,0,0,1,.16,1.73v1.88a24.27,24.27,0,0,0,.07,2.48,3.87,3.87,0,0,0,.29,1h-1.2A3.2,3.2,0,0,1,639.88,280.75Zm-.1-3.14a7,7,0,0,1-1.88.53,3.36,3.36,0,0,0-1,.29,1.08,1.08,0,0,0-.45.45,1.44,1.44,0,0,0-.16.67,1.26,1.26,0,0,0,.37.95,1.4,1.4,0,0,0,1,.36,2.09,2.09,0,0,0,1.12-.32,2,2,0,0,0,.75-.86,3.72,3.72,0,0,0,.25-1.56Z"/><path class="cls-4" d="M642.74,271.94v-1.62h1.15v1.62Zm0,9.83v-8.29h1.15v8.29Z"/><path class="cls-4" d="M645.62,281.77V270.32h1.15v11.45Z"/><path class="cls-4" d="M648.91,281.77v-1.6h1.31v1.6a3.25,3.25,0,0,1-.27,1.46,2,2,0,0,1-.8.81l-.32-.6a1.25,1.25,0,0,0,.53-.56,2.81,2.81,0,0,0,.19-1.11Z"/><path class="cls-4" d="M741.41,532.52l.16,1.24a3.54,3.54,0,0,1-.86.12,1.76,1.76,0,0,1-1-.24,1.17,1.17,0,0,1-.5-.65,6.29,6.29,0,0,1-.14-1.65v-4.77h-.84v-1.09h.84v-2.06l1.15-.84v2.9h1.16v1.09h-1.16v4.85a2.26,2.26,0,0,0,.1.87.57.57,0,0,0,.56.28A3.64,3.64,0,0,0,741.41,532.52Z"/><path class="cls-4" d="M746.93,532.75a4.64,4.64,0,0,1-1.2.91,3,3,0,0,1-1.3.3,2.28,2.28,0,0,1-1.7-.64,2.36,2.36,0,0,1-.63-1.73,2.62,2.62,0,0,1,.3-1.27,2.27,2.27,0,0,1,.81-.87,4.47,4.47,0,0,1,1.56-.46,9,9,0,0,0,2.07-.49v-.36a1.8,1.8,0,0,0-.3-1.19,1.63,1.63,0,0,0-1.32-.5,1.83,1.83,0,0,0-1.2.33,2.12,2.12,0,0,0-.59,1.25l-1.13-.19a3.12,3.12,0,0,1,1-1.94,3.2,3.2,0,0,1,2.11-.61,3,3,0,0,1,1.68.4,1.73,1.73,0,0,1,.77,1,6.87,6.87,0,0,1,.16,1.73v1.88a24.27,24.27,0,0,0,.07,2.48,3.53,3.53,0,0,0,.3,1h-1.21A3.49,3.49,0,0,1,746.93,532.75Zm-.09-3.14a7.1,7.1,0,0,1-1.89.53,3.28,3.28,0,0,0-1,.29,1,1,0,0,0-.45.45,1.33,1.33,0,0,0-.16.67,1.23,1.23,0,0,0,.37,1,1.37,1.37,0,0,0,1,.36,2.06,2.06,0,0,0,1.12-.32,2,2,0,0,0,.76-.86,3.88,3.88,0,0,0,.25-1.56Z"/><path class="cls-4" d="M749.8,523.94v-1.62H751v1.62Zm0,9.83v-8.29H751v8.29Z"/><path class="cls-4" d="M752.67,533.77V522.32h1.15v11.45Z"/><path class="cls-4" d="M763.68,533.77v-1a2.39,2.39,0,0,1-.8.91,1.89,1.89,0,0,1-1.07.32,2.58,2.58,0,0,1-2.08-1.14,5.08,5.08,0,0,1-.88-3.2,6.47,6.47,0,0,1,.39-2.39,3.18,3.18,0,0,1,1-1.46,2.4,2.4,0,0,1,1.45-.48,2,2,0,0,1,1.06.3,2.39,2.39,0,0,1,.8.84v-4.11h1.17v11.45ZM760,529.63a4.13,4.13,0,0,0,.56,2.39,1.6,1.6,0,0,0,1.3.78,1.56,1.56,0,0,0,1.28-.75,3.86,3.86,0,0,0,.54-2.26,4.63,4.63,0,0,0-.54-2.54,1.59,1.59,0,0,0-1.36-.8,1.51,1.51,0,0,0-1.26.76A4.48,4.48,0,0,0,760,529.63Z"/><path class="cls-4" d="M766.57,533.77v-8.29h1v1.25a3.67,3.67,0,0,1,.73-1.16,1.11,1.11,0,0,1,.75-.28,2,2,0,0,1,1.18.45l-.39,1.31a1.43,1.43,0,0,0-.84-.31,1,1,0,0,0-.67.26,1.31,1.31,0,0,0-.43.72,6.31,6.31,0,0,0-.22,1.71v4.34Z"/><path class="cls-4" d="M770.5,529.62a5,5,0,0,1,.9-3.24,2.93,2.93,0,0,1,4.56,0,4.8,4.8,0,0,1,.92,3.16,5.17,5.17,0,0,1-.9,3.33,2.93,2.93,0,0,1-4.57,0A5,5,0,0,1,770.5,529.62Zm1.18,0a4,4,0,0,0,.59,2.4,1.75,1.75,0,0,0,1.45.78,1.67,1.67,0,0,0,1.39-.79,5.14,5.14,0,0,0,0-4.78,1.76,1.76,0,0,0-1.45-.78,1.68,1.68,0,0,0-1.4.79A4,4,0,0,0,771.68,529.62Z"/><path class="cls-4" d="M778.23,537V525.48h1.07v1.07a2.73,2.73,0,0,1,.86-1,2,2,0,0,1,1.09-.3,2.41,2.41,0,0,1,1.46.48,3.3,3.3,0,0,1,1,1.44,6.3,6.3,0,0,1,.39,2.34,5.26,5.26,0,0,1-.89,3.27,2.58,2.58,0,0,1-2.08,1.14,1.94,1.94,0,0,1-1-.27,2.58,2.58,0,0,1-.8-.78v4Zm1-7.28a4.11,4.11,0,0,0,.54,2.37,1.56,1.56,0,0,0,1.3.76,1.58,1.58,0,0,0,1.29-.78,5.67,5.67,0,0,0,0-4.85,1.42,1.42,0,0,0-2.57.06A4.33,4.33,0,0,0,779.28,529.67Z"/><path class="cls-4" d="M785.09,531.29l1.14-.22a2.1,2.1,0,0,0,.56,1.31,1.69,1.69,0,0,0,1.2.42,1.67,1.67,0,0,0,1.16-.37,1.2,1.2,0,0,0,.4-.94.88.88,0,0,0-.35-.76,4.27,4.27,0,0,0-1.17-.47,8.61,8.61,0,0,1-1.8-.71,2,2,0,0,1-.7-.77A2.54,2.54,0,0,1,786,526a2.58,2.58,0,0,1,1.88-.66,3.14,3.14,0,0,1,1.34.27,2.13,2.13,0,0,1,.87.74,3,3,0,0,1,.43,1.32l-1.13.18a1.34,1.34,0,0,0-1.47-1.35,1.68,1.68,0,0,0-1.12.3.91.91,0,0,0-.37.76.85.85,0,0,0,.35.72,5.84,5.84,0,0,0,1.26.5,9.9,9.9,0,0,1,1.85.73,1.84,1.84,0,0,1,.65.73,2.39,2.39,0,0,1,.23,1.11,2.61,2.61,0,0,1-.75,1.93,2.82,2.82,0,0,1-2.06.73C786.29,534,785.35,533.07,785.09,531.29Z"/><path class="cls-4" d="M800.15,533.77v-1a2.33,2.33,0,0,1-.81.91,1.84,1.84,0,0,1-1.06.32,2.58,2.58,0,0,1-2.08-1.14,5.08,5.08,0,0,1-.88-3.2,6.47,6.47,0,0,1,.39-2.39,3.18,3.18,0,0,1,1-1.46,2.4,2.4,0,0,1,1.45-.48,1.94,1.94,0,0,1,1,.3,2.33,2.33,0,0,1,.81.84v-4.11h1.17v11.45Zm-3.65-4.14a4.13,4.13,0,0,0,.56,2.39,1.6,1.6,0,0,0,1.3.78,1.53,1.53,0,0,0,1.27-.75,3.86,3.86,0,0,0,.54-2.26,4.63,4.63,0,0,0-.54-2.54,1.57,1.57,0,0,0-1.36-.8,1.5,1.5,0,0,0-1.25.76A4.39,4.39,0,0,0,796.5,529.63Z"/><path class="cls-4" d="M802.6,529.62a5,5,0,0,1,.9-3.24,2.93,2.93,0,0,1,4.56,0,4.8,4.8,0,0,1,.92,3.16,5.17,5.17,0,0,1-.9,3.33,2.83,2.83,0,0,1-2.29,1.09,2.86,2.86,0,0,1-2.28-1.1A5,5,0,0,1,802.6,529.62Zm1.18,0a4,4,0,0,0,.59,2.4,1.75,1.75,0,0,0,1.45.78,1.67,1.67,0,0,0,1.39-.79,5.14,5.14,0,0,0,0-4.78,1.75,1.75,0,0,0-1.45-.78,1.69,1.69,0,0,0-1.4.79A4,4,0,0,0,803.78,529.62Z"/><path class="cls-4" d="M811.59,533.77l-2.09-8.29h1.19l1.09,4.79.4,1.78.36-1.71,1.08-4.86h1.19l1,4.81.34,1.59.39-1.61,1.16-4.79h1.13l-2.13,8.29h-1.2l-1.08-5-.26-1.41-1.38,6.38Z"/><path class="cls-4" d="M819.8,533.77v-8.29h1v1.17a2.63,2.63,0,0,1,.92-1,2.27,2.27,0,0,1,1.24-.34,2.37,2.37,0,0,1,1,.21,2.08,2.08,0,0,1,.75.57,2.36,2.36,0,0,1,.43.9,7.77,7.77,0,0,1,.14,1.7v5.1h-1.15v-5a4,4,0,0,0-.16-1.34,1.28,1.28,0,0,0-.48-.65,1.37,1.37,0,0,0-.77-.23,1.59,1.59,0,0,0-1.32.62,3.45,3.45,0,0,0-.5,2.12v4.53Z"/><path class="cls-4" d="M833.31,532.52l.16,1.24a3.61,3.61,0,0,1-.86.12,1.76,1.76,0,0,1-1-.24,1.17,1.17,0,0,1-.5-.65,6.29,6.29,0,0,1-.14-1.65v-4.77h-.84v-1.09H831v-2.06l1.15-.84v2.9h1.16v1.09h-1.16v4.85a2.26,2.26,0,0,0,.1.87.56.56,0,0,0,.55.28A3.92,3.92,0,0,0,833.31,532.52Z"/><path class="cls-4" d="M834,529.62a5,5,0,0,1,.9-3.24,2.93,2.93,0,0,1,4.56,0,4.8,4.8,0,0,1,.92,3.16,5.17,5.17,0,0,1-.9,3.33,2.83,2.83,0,0,1-2.29,1.09,2.86,2.86,0,0,1-2.28-1.1A5,5,0,0,1,834,529.62Zm1.18,0a4,4,0,0,0,.59,2.4,1.75,1.75,0,0,0,1.45.78,1.67,1.67,0,0,0,1.39-.79,5.14,5.14,0,0,0,0-4.78,1.75,1.75,0,0,0-1.45-.78,1.68,1.68,0,0,0-1.4.79A4,4,0,0,0,835.14,529.62Z"/><path class="cls-4" d="M845.34,533.77v-8.29h1v1.17a2.63,2.63,0,0,1,.92-1,2.27,2.27,0,0,1,1.24-.34,2.4,2.4,0,0,1,1,.21,2.08,2.08,0,0,1,.75.57,2.36,2.36,0,0,1,.43.9,7.77,7.77,0,0,1,.14,1.7v5.1h-1.15v-5a4,4,0,0,0-.16-1.34,1.25,1.25,0,0,0-.49-.65,1.32,1.32,0,0,0-.77-.23,1.61,1.61,0,0,0-1.32.62,3.53,3.53,0,0,0-.49,2.12v4.53Z"/><path class="cls-4" d="M857.29,531.1l1.19.18a3.65,3.65,0,0,1-1.08,2,2.83,2.83,0,0,1-1.92.67,2.86,2.86,0,0,1-2.34-1.1,4.86,4.86,0,0,1-.9-3.16,5.15,5.15,0,0,1,.9-3.28,2.84,2.84,0,0,1,2.29-1.13,2.71,2.71,0,0,1,2.2,1.11,5.05,5.05,0,0,1,.89,3.21V530h-5.08a3.55,3.55,0,0,0,.65,2.11,1.72,1.72,0,0,0,1.4.71C856.35,532.8,857,532.24,857.29,531.1Zm-3.79-2.27h3.8a3.18,3.18,0,0,0-.46-1.61,1.66,1.66,0,0,0-1.42-.77,1.68,1.68,0,0,0-1.32.64A2.88,2.88,0,0,0,853.5,528.83Z"/><path class="cls-4" d="M859.19,533.77l2.48-4.31-2.29-4h1.44l1,1.94.48.93c.19-.35.37-.65.52-.9l1.14-2h1.38L863,529.37l2.52,4.4h-1.41l-1.4-2.58-.36-.69-1.79,3.27Z"/><path class="cls-4" d="M869.06,532.52l.16,1.24a3.61,3.61,0,0,1-.86.12,1.76,1.76,0,0,1-1-.24,1.17,1.17,0,0,1-.5-.65,6.29,6.29,0,0,1-.14-1.65v-4.77h-.84v-1.09h.84v-2.06l1.15-.84v2.9h1.16v1.09H867.9v4.85a2.26,2.26,0,0,0,.1.87.56.56,0,0,0,.55.28A3.92,3.92,0,0,0,869.06,532.52Z"/><path class="cls-4" d="M738.81,553V541.52H740V553Z"/><path class="cls-4" d="M741.77,543.14v-1.62h1.14v1.62Zm0,9.83v-8.29h1.14V553Z"/><path class="cls-4" d="M744.68,553v-8.29h1v1.17a2.61,2.61,0,0,1,.91-1,2.3,2.3,0,0,1,1.25-.34,2.44,2.44,0,0,1,1,.21,2,2,0,0,1,1.17,1.47,7.19,7.19,0,0,1,.14,1.7V553h-1.15v-5.05a4.39,4.39,0,0,0-.15-1.34,1.36,1.36,0,0,0-.49-.65,1.34,1.34,0,0,0-.77-.23,1.61,1.61,0,0,0-1.32.62,3.46,3.46,0,0,0-.49,2.12V553Z"/><path class="cls-4" d="M756.62,550.3l1.19.18a3.6,3.6,0,0,1-1.07,2,2.84,2.84,0,0,1-1.93.67,2.89,2.89,0,0,1-2.34-1.1,4.92,4.92,0,0,1-.89-3.16,5.15,5.15,0,0,1,.9-3.28,2.81,2.81,0,0,1,2.29-1.13,2.71,2.71,0,0,1,2.2,1.11,5.05,5.05,0,0,1,.88,3.21v.37h-5.07a3.55,3.55,0,0,0,.64,2.11,1.75,1.75,0,0,0,1.41.71C755.68,552,756.29,551.44,756.62,550.3ZM752.84,548h3.79a3.08,3.08,0,0,0-.46-1.61,1.68,1.68,0,0,0-2.73-.13A2.76,2.76,0,0,0,752.84,548Z"/><path class="cls-4" d="M759.92,550.13l-.35-6.07v-2.54H761v2.54l-.33,6.07Zm-.29,2.84v-1.6H761V553Z"/><path class="cls-4" d="M742.87,281.77h-1.16v-9a6.13,6.13,0,0,1-1.07,1,7.84,7.84,0,0,1-1.23.74v-1.36a7.29,7.29,0,0,0,1.68-1.34,5,5,0,0,0,1-1.54h.75Z"/><path class="cls-4" d="M745.9,271.82v-1.35H752v1.09a17.14,17.14,0,0,0-2.39,4.6,19.71,19.71,0,0,0-1.19,5.61h-1.18a17.05,17.05,0,0,1,.46-3.35,20.24,20.24,0,0,1,1.19-3.65,16.14,16.14,0,0,1,1.62-2.95Z"/><polyline class="cls-3" points="1028.67 18.04 1033.05 31.24 1030.86 71.64 1033.05 170.87 1041.88 336.04 1041.88 363.64 1041.88 374.53 1041.88 381.64"/><polyline class="cls-3" points="1031.32 21.4 1031.32 99.88 1035.28 129.16"/><g class="cls-2"><path class="cls-3" d="M1035.91,205.19c0,1.55,0,3.1-.07,4.64-.09,10.64,1.15,20.95,2.32,31.5a357.76,357.76,0,0,1,2.55,45.69,61.36,61.36,0,0,1-.44,7.43c-.2,2-.77,4.11-.86,6.1.12,1.2.23,2.41.35,3.61q.93,10.69,1,21.43c0,3.1-.11,6.24-.07,9.34.22-15.14.16-30.23,1-45.38.55-9.89,2-19.64,2-29.52a60.45,60.45,0,0,0-1-9.49c-.37-2.39-1-4.77-1.34-7.16-.2-1.49.19-3.14-.2-4.59h-.53"/></g><polyline class="cls-3" points="974.02 75.72 978.22 163.92 978.22 236.52"/><g class="cls-2"><path class="cls-3" d="M1057.82,195.12c.46,1.26-1.43,2.76-2.13,3.54a21.47,21.47,0,0,0-3.74,6.05c-1,2.4-2.14,4.67-3.16,7-.83,2-1.07,3.08-1.78,5a7.9,7.9,0,0,0-.38,2.68c.25,1,1.43-.42,1.63-.62,1.17-1.17,1.74-3,2.81-4.29a39.9,39.9,0,0,0-4.18,9.92c-.93,3.52-2.19,6.87-2.66,10.51-.5,3.92-.17,7.85-.21,11.78"/><path class="cls-3" d="M1033.38,230.63s-5.37-1.43-6.73,23.29c0,0-4.71,6.65-6.63,19.68"/><path class="cls-3" d="M994.52,173.59s3-18.37,1.5,4.43-6,54.84-7.2,52.47,1.5-13.17,1.5-13.17l-2.7,9.6s5,3.9-10.26,69.9c0,0-5.14,22.2-15.54,27l14.4-8.19"/><path class="cls-3" d="M1009,18.11s18.7,11.09,21.68,70.09a98.45,98.45,0,0,1-1.58,23.66"/><path class="cls-3" d="M918,263.85c2.57-.79,5.47-2.35,6.71-4.7,6.31-11.47,9-20.69,10-33.5.35-4.35-2.57-8.32-3.4-12.45-.61,0-1.44-.44-.88-1.18.28-.38,1.53-.1,2-.1"/><path class="cls-3" d="M979.3,432.21s127,118.68-26-72.72l2.94,3.42s-2.7-3.84-3-3.68"/></g></g></svg>