<svg id="Layer_1" data-name="Layer 1" xmlns="http://www.w3.org/2000/svg" xmlns:xlink="http://www.w3.org/1999/xlink" viewBox="0 0 1080 756"><defs><style>.cls-1,.cls-3{fill:none;}.cls-2{clip-path:url(#clip-path);}.cls-3{stroke:#231f20;stroke-width:0.25px;}.cls-4{fill:#231f20;}</style><clipPath id="clip-path"><rect class="cls-1" width="1080" height="756"/></clipPath></defs><title>Untitled-3</title><g class="cls-2"><g class="cls-2"><line class="cls-3" x1="180" y1="-18.36" x2="180" y2="790.92"/><line class="cls-3" x1="720" y1="-20.88" x2="720" y2="788.4"/><line class="cls-3" x1="359.88" y1="-18.36" x2="359.88" y2="790.92"/><line class="cls-3" x1="899.87" y1="-20.88" x2="899.87" y2="788.4"/><line class="cls-3" x1="-16.92" y1="251.88" x2="1101.6" y2="251.88"/><line class="cls-3" x1="-11.52" y1="504.13" x2="1107" y2="504.13"/><line class="cls-3" x1="540" y1="-19.44" x2="540" y2="789.84"/></g><path class="cls-4" d="M378.85,537V525.48h1.06v1.07a2.66,2.66,0,0,1,.87-1,2,2,0,0,1,1.09-.3,2.36,2.36,0,0,1,1.45.48,3.22,3.22,0,0,1,1,1.44,6.09,6.09,0,0,1,.4,2.34,5.26,5.26,0,0,1-.89,3.27,2.58,2.58,0,0,1-2.08,1.14,1.89,1.89,0,0,1-1-.27,2.47,2.47,0,0,1-.8-.78v4Zm1-7.28a4.11,4.11,0,0,0,.54,2.37,1.47,1.47,0,0,0,2.58,0,5.62,5.62,0,0,0,0-4.85,1.42,1.42,0,0,0-2.57.06A4.33,4.33,0,0,0,379.9,529.67Z"/><path class="cls-4" d="M386.11,533.77V522.32h1.15v11.45Z"/><path class="cls-4" d="M393.71,531.1l1.19.18a3.65,3.65,0,0,1-1.08,2,2.81,2.81,0,0,1-1.92.67,2.88,2.88,0,0,1-2.34-1.1,4.86,4.86,0,0,1-.9-3.16,5.09,5.09,0,0,1,.91-3.28,2.8,2.8,0,0,1,2.28-1.13,2.69,2.69,0,0,1,2.2,1.11,5.05,5.05,0,0,1,.89,3.21V530h-5.08a3.55,3.55,0,0,0,.65,2.11,1.74,1.74,0,0,0,1.41.71C392.77,532.8,393.37,532.24,393.71,531.1Zm-3.79-2.27h3.8a3.18,3.18,0,0,0-.46-1.61,1.66,1.66,0,0,0-1.42-.77,1.68,1.68,0,0,0-1.32.64A2.88,2.88,0,0,0,389.92,528.83Z"/><path class="cls-4" d="M400.79,532.75a4.64,4.64,0,0,1-1.2.91,3,3,0,0,1-1.3.3,2.28,2.28,0,0,1-1.7-.64,2.36,2.36,0,0,1-.63-1.73,2.62,2.62,0,0,1,.3-1.27,2.27,2.27,0,0,1,.81-.87,4.4,4.4,0,0,1,1.56-.46,9,9,0,0,0,2.07-.49v-.36a1.8,1.8,0,0,0-.3-1.19,1.63,1.63,0,0,0-1.32-.5,1.83,1.83,0,0,0-1.2.33,2.12,2.12,0,0,0-.59,1.25l-1.13-.19a3.07,3.07,0,0,1,1-1.94,3.2,3.2,0,0,1,2.11-.61,3,3,0,0,1,1.68.4,1.73,1.73,0,0,1,.77,1,6.87,6.87,0,0,1,.16,1.73v1.88a24.27,24.27,0,0,0,.07,2.48,3.53,3.53,0,0,0,.3,1H401A3.49,3.49,0,0,1,400.79,532.75Zm-.09-3.14a7.1,7.1,0,0,1-1.89.53,3.28,3.28,0,0,0-1,.29,1,1,0,0,0-.45.45,1.33,1.33,0,0,0-.16.67,1.26,1.26,0,0,0,.36,1,1.41,1.41,0,0,0,1,.36,2.06,2.06,0,0,0,1.12-.32,2,2,0,0,0,.76-.86,3.88,3.88,0,0,0,.25-1.56Z"/><path class="cls-4" d="M403.21,531.29l1.15-.22a2.09,2.09,0,0,0,.55,1.31,1.69,1.69,0,0,0,1.2.42,1.65,1.65,0,0,0,1.16-.37,1.21,1.21,0,0,0,.41-.94.91.91,0,0,0-.35-.76,4.27,4.27,0,0,0-1.17-.47,8.15,8.15,0,0,1-1.8-.71,1.93,1.93,0,0,1-.7-.77,2.54,2.54,0,0,1,.43-2.83,2.58,2.58,0,0,1,1.88-.66,3.1,3.1,0,0,1,1.33.27,2.16,2.16,0,0,1,.88.74,3.2,3.2,0,0,1,.42,1.32l-1.12.18a1.35,1.35,0,0,0-1.48-1.35,1.7,1.7,0,0,0-1.12.3.93.93,0,0,0-.36.76.82.82,0,0,0,.35.72,5.91,5.91,0,0,0,1.25.5,9.9,9.9,0,0,1,1.85.73,1.87,1.87,0,0,1,.66.73,2.53,2.53,0,0,1,.23,1.11,2.61,2.61,0,0,1-.75,1.93,2.84,2.84,0,0,1-2.06.73C404.42,534,403.47,533.07,403.21,531.29Z"/><path class="cls-4" d="M414.87,531.1l1.18.18a3.58,3.58,0,0,1-1.07,2,2.84,2.84,0,0,1-1.93.67,2.89,2.89,0,0,1-2.34-1.1,4.92,4.92,0,0,1-.89-3.16,5.15,5.15,0,0,1,.9-3.28,2.82,2.82,0,0,1,2.29-1.13,2.71,2.71,0,0,1,2.2,1.11,5.05,5.05,0,0,1,.88,3.21V530H411a3.48,3.48,0,0,0,.65,2.11,1.72,1.72,0,0,0,1.4.71C413.93,532.8,414.53,532.24,414.87,531.1Zm-3.79-2.27h3.8a3.17,3.17,0,0,0-.47-1.61,1.68,1.68,0,0,0-2.73-.13A2.82,2.82,0,0,0,411.08,528.83Z"/><path class="cls-4" d="M425.62,530.73l1.13.18a3.82,3.82,0,0,1-1,2.27,2.57,2.57,0,0,1-1.89.78,2.7,2.7,0,0,1-2.2-1.1,5.2,5.2,0,0,1-.86-3.24,5.1,5.1,0,0,1,.87-3.25,2.75,2.75,0,0,1,2.24-1.08,2.55,2.55,0,0,1,1.78.66,3.17,3.17,0,0,1,.92,2l-1.11.21a2.47,2.47,0,0,0-.57-1.26,1.32,1.32,0,0,0-1-.41,1.69,1.69,0,0,0-1.41.75,4.06,4.06,0,0,0-.56,2.39,4.35,4.35,0,0,0,.54,2.46,1.61,1.61,0,0,0,1.37.75,1.46,1.46,0,0,0,1.12-.5A2.81,2.81,0,0,0,425.62,530.73Z"/><path class="cls-4" d="M427.73,533.77V522.32h1.15v4.11a2.84,2.84,0,0,1,.91-.86,2.28,2.28,0,0,1,1.13-.28,2.21,2.21,0,0,1,1.72.69,3.84,3.84,0,0,1,.63,2.54v5.25h-1.15v-5.25a2.43,2.43,0,0,0-.39-1.55,1.28,1.28,0,0,0-1.05-.47,1.64,1.64,0,0,0-1.28.6,3.28,3.28,0,0,0-.52,2.13v4.54Z"/><path class="cls-4" d="M439.67,531.1l1.19.18a3.7,3.7,0,0,1-1.07,2,2.85,2.85,0,0,1-1.93.67,2.89,2.89,0,0,1-2.34-1.1,4.86,4.86,0,0,1-.9-3.16,5.15,5.15,0,0,1,.91-3.28,2.8,2.8,0,0,1,2.28-1.13A2.72,2.72,0,0,1,440,526.4a5.11,5.11,0,0,1,.88,3.21V530h-5.08a3.62,3.62,0,0,0,.65,2.11,1.75,1.75,0,0,0,1.41.71C438.73,532.8,439.33,532.24,439.67,531.1Zm-3.79-2.27h3.8a3.18,3.18,0,0,0-.46-1.61,1.66,1.66,0,0,0-1.42-.77,1.68,1.68,0,0,0-1.32.64A2.88,2.88,0,0,0,435.88,528.83Z"/><path class="cls-4" d="M446.77,530.73l1.14.18a3.82,3.82,0,0,1-1,2.27A2.61,2.61,0,0,1,445,534a2.7,2.7,0,0,1-2.2-1.1,6.52,6.52,0,0,1,0-6.49,2.74,2.74,0,0,1,2.24-1.08,2.52,2.52,0,0,1,1.77.66,3.23,3.23,0,0,1,.93,2l-1.12.21a2.47,2.47,0,0,0-.57-1.26,1.31,1.31,0,0,0-1-.41,1.71,1.71,0,0,0-1.41.75,4.07,4.07,0,0,0-.55,2.39,4.36,4.36,0,0,0,.53,2.46,1.62,1.62,0,0,0,1.37.75,1.45,1.45,0,0,0,1.12-.5A2.74,2.74,0,0,0,446.77,530.73Z"/><path class="cls-4" d="M448.91,533.77V522.32h1.14v6.54l2.74-3.38h1.5l-2.61,3.08,2.86,5.21h-1.41l-2.26-4.25-.82,1v3.29Z"/><path class="cls-4" d="M459.09,523.94v-1.62h1.15v1.62Zm0,9.83v-8.29h1.15v8.29Z"/><path class="cls-4" d="M464.57,532.52l.16,1.24a3.61,3.61,0,0,1-.86.12,1.74,1.74,0,0,1-1-.24,1.18,1.18,0,0,1-.51-.65,6.43,6.43,0,0,1-.13-1.65v-4.77h-.85v-1.09h.85v-2.06l1.15-.84v2.9h1.16v1.09h-1.16v4.85a2.26,2.26,0,0,0,.1.87.56.56,0,0,0,.55.28A3.92,3.92,0,0,0,464.57,532.52Z"/><path class="cls-4" d="M468.87,529.62a5,5,0,0,1,.9-3.24,2.93,2.93,0,0,1,4.56,0,4.8,4.8,0,0,1,.91,3.16,5.17,5.17,0,0,1-.9,3.33,2.92,2.92,0,0,1-4.56,0A5,5,0,0,1,468.87,529.62Zm1.18,0a4,4,0,0,0,.58,2.4,1.77,1.77,0,0,0,1.46.78,1.69,1.69,0,0,0,1.39-.79,5.21,5.21,0,0,0,0-4.78,1.77,1.77,0,0,0-1.46-.78,1.7,1.7,0,0,0-1.4.79A4.05,4.05,0,0,0,470.05,529.62Z"/><path class="cls-4" d="M481.05,533.77v-1.22a2.87,2.87,0,0,1-.93,1.06,2.23,2.23,0,0,1-1.22.35,2.2,2.2,0,0,1-1.38-.43,2.1,2.1,0,0,1-.76-1.1,6.71,6.71,0,0,1-.19-1.81v-5.14h1.15v4.6a7,7,0,0,0,.13,1.71,1.31,1.31,0,0,0,.47.7,1.34,1.34,0,0,0,.8.26,1.67,1.67,0,0,0,1.36-.68,3.71,3.71,0,0,0,.45-2.15v-4.44h1.16v8.29Z"/><path class="cls-4" d="M486.46,532.52l.16,1.24a3.61,3.61,0,0,1-.86.12,1.74,1.74,0,0,1-1-.24,1.13,1.13,0,0,1-.5-.65,5.86,5.86,0,0,1-.14-1.65v-4.77h-.85v-1.09h.85v-2.06l1.15-.84v2.9h1.16v1.09H485.3v4.85a2.26,2.26,0,0,0,.1.87.56.56,0,0,0,.55.28A3.92,3.92,0,0,0,486.46,532.52Z"/><path class="cls-4" d="M487.91,533.77v-1.6h1.31v1.6Z"/><path class="cls-4" d="M202.87,281.77h-1.16v-9a6.13,6.13,0,0,1-1.07,1,7.84,7.84,0,0,1-1.23.74v-1.36a7.29,7.29,0,0,0,1.68-1.34,5,5,0,0,0,1-1.54h.75Z"/><path class="cls-4" d="M205.82,276.12a9.62,9.62,0,0,1,.78-4.36,2.47,2.47,0,0,1,2.29-1.49,2.39,2.39,0,0,1,2.12,1.21,8.88,8.88,0,0,1,.94,4.64,9.62,9.62,0,0,1-.78,4.36,2.46,2.46,0,0,1-2.29,1.49,2.55,2.55,0,0,1-2.2-1.31A8.79,8.79,0,0,1,205.82,276.12Zm1.18,0a8.58,8.58,0,0,0,.54,3.74,1.55,1.55,0,0,0,1.37.95,1.53,1.53,0,0,0,1.32-1,13.19,13.19,0,0,0,0-7.47,1.59,1.59,0,0,0-1.39-.95,1.53,1.53,0,0,0-1.31,1A8.82,8.82,0,0,0,207,276.12Z"/><path class="cls-4" d="M213.12,276.12a9.78,9.78,0,0,1,.77-4.36,2.48,2.48,0,0,1,2.3-1.49,2.38,2.38,0,0,1,2.11,1.21,8.78,8.78,0,0,1,.94,4.64,9.78,9.78,0,0,1-.77,4.36,2.47,2.47,0,0,1-2.3,1.49,2.56,2.56,0,0,1-2.2-1.31A8.81,8.81,0,0,1,213.12,276.12Zm1.18,0a8.78,8.78,0,0,0,.53,3.74,1.57,1.57,0,0,0,1.38.95,1.55,1.55,0,0,0,1.32-1,13.43,13.43,0,0,0,0-7.47,1.59,1.59,0,0,0-1.39-.95,1.52,1.52,0,0,0-1.31,1A8.66,8.66,0,0,0,214.3,276.12Z"/><path class="cls-4" d="M739.91,281.77h-1.07V270.32H740v4.09a2.56,2.56,0,0,1,.83-.84,2,2,0,0,1,1-.28,2.4,2.4,0,0,1,1.45.48,3.22,3.22,0,0,1,1,1.44,6.32,6.32,0,0,1,.39,2.35,5.25,5.25,0,0,1-.88,3.26,2.58,2.58,0,0,1-2.07,1.14,1.91,1.91,0,0,1-1.07-.31,2.55,2.55,0,0,1-.81-.92Zm0-4.21a6.14,6.14,0,0,0,.23,1.93,2.11,2.11,0,0,0,.67,1A1.45,1.45,0,0,0,743,280a4.2,4.2,0,0,0,.55-2.39,4.31,4.31,0,0,0-.53-2.4,1.46,1.46,0,0,0-2.58,0A4,4,0,0,0,739.89,277.56Z"/><path class="cls-4" d="M750.8,279.1l1.18.18a3.58,3.58,0,0,1-1.07,2A2.84,2.84,0,0,1,749,282a2.89,2.89,0,0,1-2.34-1.1,4.92,4.92,0,0,1-.89-3.16,5.15,5.15,0,0,1,.9-3.28,2.82,2.82,0,0,1,2.29-1.13,2.71,2.71,0,0,1,2.2,1.11,5.05,5.05,0,0,1,.88,3.21V278h-5.08a3.48,3.48,0,0,0,.65,2.11,1.72,1.72,0,0,0,1.4.71C749.86,280.8,750.46,280.24,750.8,279.1ZM747,276.83h3.79a3.08,3.08,0,0,0-.46-1.61,1.68,1.68,0,0,0-2.73-.13A2.82,2.82,0,0,0,747,276.83Z"/><path class="cls-4" d="M753.77,281.77v-7.2h-1v-1.09h1v-.89a3.88,3.88,0,0,1,.2-1.46,1.54,1.54,0,0,1,.62-.75,2,2,0,0,1,1.06-.26,4.5,4.5,0,0,1,1.08.15l-.18,1.22a3.22,3.22,0,0,0-.67-.08.9.9,0,0,0-.74.27,1.69,1.69,0,0,0-.23,1v.77h1.33v1.09h-1.33v7.2Z"/><path class="cls-4" d="M756.66,277.62a5,5,0,0,1,.9-3.24,2.93,2.93,0,0,1,4.56,0,4.8,4.8,0,0,1,.91,3.16,5.17,5.17,0,0,1-.9,3.33,2.92,2.92,0,0,1-4.56,0A5,5,0,0,1,756.66,277.62Zm1.18,0a4,4,0,0,0,.58,2.4,1.77,1.77,0,0,0,1.46.78,1.69,1.69,0,0,0,1.39-.79,5.21,5.21,0,0,0,0-4.78,1.77,1.77,0,0,0-1.46-.78,1.7,1.7,0,0,0-1.4.79A4.05,4.05,0,0,0,757.84,277.62Z"/><path class="cls-4" d="M764.39,281.77v-8.29h1v1.25a3.67,3.67,0,0,1,.73-1.16,1.11,1.11,0,0,1,.75-.28,2,2,0,0,1,1.18.45l-.39,1.31a1.43,1.43,0,0,0-.84-.31,1,1,0,0,0-.67.26,1.31,1.31,0,0,0-.43.72,6.31,6.31,0,0,0-.22,1.71v4.34Z"/><path class="cls-4" d="M773.41,279.1l1.18.18a3.58,3.58,0,0,1-1.07,2,2.84,2.84,0,0,1-1.93.67,2.89,2.89,0,0,1-2.34-1.1,4.92,4.92,0,0,1-.89-3.16,5.15,5.15,0,0,1,.9-3.28,2.81,2.81,0,0,1,2.29-1.13,2.71,2.71,0,0,1,2.2,1.11,5.05,5.05,0,0,1,.88,3.21V278h-5.07a3.48,3.48,0,0,0,.65,2.11,1.72,1.72,0,0,0,1.4.71C772.47,280.8,773.07,280.24,773.41,279.1Zm-3.79-2.27h3.79a3.08,3.08,0,0,0-.46-1.61,1.68,1.68,0,0,0-2.73-.13A2.76,2.76,0,0,0,769.62,276.83Z"/><path class="cls-4" d="M779.66,285l-.12-1.32a2.2,2.2,0,0,0,.66.12,1.11,1.11,0,0,0,.6-.15,1.08,1.08,0,0,0,.4-.46c0-.07.18-.53.45-1.37l-2.59-8.31h1.24l1.43,4.8c.17.6.34,1.24.49,1.92a18.64,18.64,0,0,1,.47-1.89l1.45-4.83h1.16l-2.58,8.43a14.35,14.35,0,0,1-.81,2.2,2,2,0,0,1-.66.79,1.53,1.53,0,0,1-.84.24A2.1,2.1,0,0,1,779.66,285Z"/><path class="cls-4" d="M785.83,277.62a5,5,0,0,1,.9-3.24,2.93,2.93,0,0,1,4.56,0,4.8,4.8,0,0,1,.91,3.16,5.17,5.17,0,0,1-.9,3.33,2.92,2.92,0,0,1-4.56,0A5,5,0,0,1,785.83,277.62Zm1.18,0a4,4,0,0,0,.58,2.4,1.77,1.77,0,0,0,1.46.78,1.69,1.69,0,0,0,1.39-.79,5.21,5.21,0,0,0,0-4.78,1.77,1.77,0,0,0-1.46-.78,1.67,1.67,0,0,0-1.39.79A4,4,0,0,0,787,277.62Z"/><path class="cls-4" d="M798,281.77v-1.22a3,3,0,0,1-.94,1.06,2.23,2.23,0,0,1-1.22.35,2.2,2.2,0,0,1-1.38-.43,2.1,2.1,0,0,1-.76-1.1,6.71,6.71,0,0,1-.19-1.81v-5.14h1.15v4.6a7,7,0,0,0,.13,1.71,1.27,1.27,0,0,0,.48.7,1.29,1.29,0,0,0,.79.26,1.67,1.67,0,0,0,1.36-.68,3.71,3.71,0,0,0,.45-2.15v-4.44h1.16v8.29Z"/><path class="cls-4" d="M804.47,281.77V270.32h1.15v11.45Z"/><path class="cls-4" d="M812.07,279.1l1.19.18a3.65,3.65,0,0,1-1.08,2,2.81,2.81,0,0,1-1.92.67,2.86,2.86,0,0,1-2.34-1.1,4.86,4.86,0,0,1-.9-3.16,5.09,5.09,0,0,1,.91-3.28,2.8,2.8,0,0,1,2.28-1.13,2.69,2.69,0,0,1,2.2,1.11,5.05,5.05,0,0,1,.89,3.21V278h-5.08a3.55,3.55,0,0,0,.65,2.11,1.74,1.74,0,0,0,1.41.71C811.13,280.8,811.73,280.24,812.07,279.1Zm-3.79-2.27h3.8a3.18,3.18,0,0,0-.46-1.61,1.66,1.66,0,0,0-1.42-.77,1.68,1.68,0,0,0-1.32.64A2.88,2.88,0,0,0,808.28,276.83Z"/><path class="cls-4" d="M819.15,280.75a4.64,4.64,0,0,1-1.2.91,3,3,0,0,1-1.3.3,2.28,2.28,0,0,1-1.7-.64,2.36,2.36,0,0,1-.63-1.73,2.62,2.62,0,0,1,.3-1.27,2.27,2.27,0,0,1,.81-.87A4.4,4.4,0,0,1,817,277a8.74,8.74,0,0,0,2.06-.49v-.36a1.8,1.8,0,0,0-.3-1.19,1.63,1.63,0,0,0-1.32-.5,1.88,1.88,0,0,0-1.21.33,2.18,2.18,0,0,0-.58,1.25l-1.13-.19a3.07,3.07,0,0,1,1-1.94,3.2,3.2,0,0,1,2.11-.61,3,3,0,0,1,1.68.4,1.73,1.73,0,0,1,.77,1,6.87,6.87,0,0,1,.16,1.73v1.88a24.27,24.27,0,0,0,.07,2.48,3.53,3.53,0,0,0,.3,1h-1.21A3.2,3.2,0,0,1,819.15,280.75Zm-.1-3.14a7,7,0,0,1-1.88.53,3.28,3.28,0,0,0-1,.29,1,1,0,0,0-.45.45,1.33,1.33,0,0,0-.16.67,1.26,1.26,0,0,0,.36.95,1.41,1.41,0,0,0,1,.36,2.09,2.09,0,0,0,1.12-.32,1.9,1.9,0,0,0,.75-.86,3.72,3.72,0,0,0,.25-1.56Z"/><path class="cls-4" d="M823.92,281.77l-2.59-8.29h1.22l1.46,5c.17.56.31,1.12.44,1.67.1-.44.24-1,.42-1.58l1.52-5.06h1.19L825,281.77Z"/><path class="cls-4" d="M833.23,279.1l1.18.18a3.58,3.58,0,0,1-1.07,2,2.84,2.84,0,0,1-1.93.67,2.89,2.89,0,0,1-2.34-1.1,4.92,4.92,0,0,1-.89-3.16,5.15,5.15,0,0,1,.9-3.28,2.82,2.82,0,0,1,2.29-1.13,2.71,2.71,0,0,1,2.2,1.11,5.05,5.05,0,0,1,.88,3.21V278h-5.08a3.48,3.48,0,0,0,.65,2.11,1.72,1.72,0,0,0,1.4.71C832.29,280.8,832.89,280.24,833.23,279.1Zm-3.79-2.27h3.79a3.08,3.08,0,0,0-.46-1.61,1.68,1.68,0,0,0-2.73-.13A2.76,2.76,0,0,0,829.44,276.83Z"/><path class="cls-4" d="M836.21,281.77v-1.6h1.31v1.6a3.25,3.25,0,0,1-.27,1.46,1.89,1.89,0,0,1-.8.81l-.32-.6a1.2,1.2,0,0,0,.53-.56,2.78,2.78,0,0,0,.2-1.11Z"/><path class="cls-4" d="M558.85,284.83V273.35h1.06v1.08a2.7,2.7,0,0,1,.87-1,2,2,0,0,1,1.09-.3,2.36,2.36,0,0,1,1.45.48,3.26,3.26,0,0,1,1,1.45,6.09,6.09,0,0,1,.4,2.34,5.23,5.23,0,0,1-.89,3.26,2.59,2.59,0,0,1-2.08,1.15,1.81,1.81,0,0,1-1-.28,2.44,2.44,0,0,1-.8-.77v4Zm1-7.28a4.15,4.15,0,0,0,.54,2.37,1.56,1.56,0,0,0,1.3.76,1.54,1.54,0,0,0,1.28-.79,5.6,5.6,0,0,0,0-4.84,1.42,1.42,0,0,0-2.57.06A4.33,4.33,0,0,0,559.9,277.55Z"/><path class="cls-4" d="M566.15,281.65V270.2h1.15v4.1a2.8,2.8,0,0,1,.91-.85,2.32,2.32,0,0,1,1.13-.29,2.18,2.18,0,0,1,1.72.7,3.8,3.8,0,0,1,.63,2.53v5.26h-1.15v-5.26a2.52,2.52,0,0,0-.38-1.55,1.3,1.3,0,0,0-1.06-.46,1.66,1.66,0,0,0-1.28.6,3.28,3.28,0,0,0-.52,2.13v4.54Z"/><path class="cls-4" d="M573,277.5a5,5,0,0,1,.9-3.24,2.91,2.91,0,0,1,4.56,0,4.79,4.79,0,0,1,.91,3.15,5.17,5.17,0,0,1-.9,3.33,2.91,2.91,0,0,1-4.56,0A5,5,0,0,1,573,277.5Zm1.18,0a4,4,0,0,0,.58,2.39,1.75,1.75,0,0,0,1.46.79,1.69,1.69,0,0,0,1.39-.79,4,4,0,0,0,.58-2.39,4,4,0,0,0-.58-2.39,1.75,1.75,0,0,0-1.46-.79,1.67,1.67,0,0,0-1.39.79A4,4,0,0,0,574.19,277.5Z"/><path class="cls-4" d="M580.74,281.65v-8.3h1v1.17a2.78,2.78,0,0,1,.92-1,2.33,2.33,0,0,1,1.24-.34,2.41,2.41,0,0,1,1,.22,2.05,2.05,0,0,1,.75.56,2.21,2.21,0,0,1,.42.9,7.11,7.11,0,0,1,.15,1.71v5.1h-1.15v-5a4,4,0,0,0-.16-1.34,1.3,1.3,0,0,0-.49-.65,1.25,1.25,0,0,0-.77-.23,1.6,1.6,0,0,0-1.32.61,3.46,3.46,0,0,0-.49,2.12v4.54Z"/><path class="cls-4" d="M592.69,279l1.19.18a3.62,3.62,0,0,1-1.08,2,2.83,2.83,0,0,1-1.92.68,2.86,2.86,0,0,1-2.34-1.1,4.89,4.89,0,0,1-.9-3.17,5.19,5.19,0,0,1,.9-3.28,2.82,2.82,0,0,1,2.29-1.13,2.71,2.71,0,0,1,2.2,1.11,5.05,5.05,0,0,1,.88,3.21v.38h-5.08a3.57,3.57,0,0,0,.65,2.11,1.75,1.75,0,0,0,1.4.71C591.75,280.68,592.35,280.11,592.69,279Zm-3.79-2.28h3.8a3.2,3.2,0,0,0-.47-1.61,1.68,1.68,0,0,0-2.73-.13A2.82,2.82,0,0,0,588.9,276.7Z"/><path class="cls-4" d="M599,281.65v-8.3h1v1.17a2.78,2.78,0,0,1,.92-1,2.35,2.35,0,0,1,1.24-.34,2.41,2.41,0,0,1,1,.22,2.05,2.05,0,0,1,.75.56,2.36,2.36,0,0,1,.43.9,7.81,7.81,0,0,1,.14,1.71v5.1h-1.15v-5a4,4,0,0,0-.16-1.34,1.3,1.3,0,0,0-1.25-.88,1.61,1.61,0,0,0-1.33.61,3.53,3.53,0,0,0-.49,2.12v4.54Z"/><path class="cls-4" d="M610.73,281.65v-1.22a2.84,2.84,0,0,1-.93,1.05,2.16,2.16,0,0,1-1.22.36,2.21,2.21,0,0,1-1.38-.44,2.06,2.06,0,0,1-.76-1.1,6.66,6.66,0,0,1-.19-1.81v-5.14h1.15V278a7.06,7.06,0,0,0,.13,1.72,1.25,1.25,0,0,0,.47.69,1.28,1.28,0,0,0,.8.26,1.66,1.66,0,0,0,1.36-.67,3.73,3.73,0,0,0,.45-2.15v-4.45h1.16v8.3Z"/><path class="cls-4" d="M613.59,281.65v-8.3h1v1.16a2.69,2.69,0,0,1,.88-1,2.15,2.15,0,0,1,1.18-.35,2,2,0,0,1,1.21.37,2,2,0,0,1,.7,1.08,3.27,3.27,0,0,1,.94-1.08,2,2,0,0,1,1.17-.37,1.94,1.94,0,0,1,1.55.67,3.28,3.28,0,0,1,.56,2.12v5.7h-1.15v-5.23a4.19,4.19,0,0,0-.13-1.27,1.11,1.11,0,0,0-1.07-.77,1.45,1.45,0,0,0-1.21.59,2.91,2.91,0,0,0-.48,1.85v4.83h-1.15v-5.4a2.49,2.49,0,0,0-.31-1.45,1,1,0,0,0-.87-.42,1.47,1.47,0,0,0-1.25.63,4.29,4.29,0,0,0-.46,2.33v4.31Z"/><path class="cls-4" d="M625.56,281.65h-1.07V270.2h1.16v4.08a2.66,2.66,0,0,1,.83-.84,2,2,0,0,1,1-.28,2.35,2.35,0,0,1,1.44.48,3.2,3.2,0,0,1,1,1.45,6.28,6.28,0,0,1,.39,2.35,5.22,5.22,0,0,1-.89,3.25,2.57,2.57,0,0,1-2.06,1.15,2,2,0,0,1-1.07-.31,2.56,2.56,0,0,1-.82-.92Zm0-4.21a5.85,5.85,0,0,0,.24,1.93,2.13,2.13,0,0,0,.67,1,1.46,1.46,0,0,0,.95.34,1.56,1.56,0,0,0,1.27-.8,4.24,4.24,0,0,0,.55-2.4,4.29,4.29,0,0,0-.53-2.39,1.58,1.58,0,0,0-1.31-.77,1.56,1.56,0,0,0-1.27.8A4,4,0,0,0,625.54,277.44Z"/><path class="cls-4" d="M636.45,279l1.19.18a3.67,3.67,0,0,1-1.07,2,2.84,2.84,0,0,1-1.93.68,2.89,2.89,0,0,1-2.34-1.1,4.89,4.89,0,0,1-.89-3.17,5.19,5.19,0,0,1,.9-3.28,2.8,2.8,0,0,1,2.28-1.13,2.72,2.72,0,0,1,2.21,1.11,5.05,5.05,0,0,1,.88,3.21v.38h-5.08a3.64,3.64,0,0,0,.65,2.11,1.78,1.78,0,0,0,1.41.71C635.51,280.68,636.11,280.11,636.45,279Zm-3.79-2.28h3.8a3.21,3.21,0,0,0-.46-1.61,1.68,1.68,0,0,0-2.73-.13A2.82,2.82,0,0,0,632.66,276.7Z"/><path class="cls-4" d="M639.1,281.65v-8.3h1v1.26a3.67,3.67,0,0,1,.73-1.16,1.12,1.12,0,0,1,.75-.29,2,2,0,0,1,1.18.46l-.39,1.3a1.49,1.49,0,0,0-.84-.3,1,1,0,0,0-.67.26,1.38,1.38,0,0,0-.43.71,6.36,6.36,0,0,0-.22,1.71v4.35Z"/><path class="cls-4" d="M643.1,281.65v-1.6h1.31v1.6a3.28,3.28,0,0,1-.27,1.46,1.82,1.82,0,0,1-.8.8l-.32-.6a1.16,1.16,0,0,0,.53-.56,2.69,2.69,0,0,0,.2-1.1Z"/><path class="cls-4" d="M918.56,29.19V17.74h1.15V29.19Z"/><path class="cls-4" d="M926,28.17a4.52,4.52,0,0,1-1.21.91,2.94,2.94,0,0,1-1.29.3,2.27,2.27,0,0,1-1.7-.64,2.36,2.36,0,0,1-.63-1.73,2.73,2.73,0,0,1,.29-1.27,2.22,2.22,0,0,1,.82-.87,4.2,4.2,0,0,1,1.56-.46,8.87,8.87,0,0,0,2.06-.49v-.36a1.78,1.78,0,0,0-.31-1.2,1.64,1.64,0,0,0-1.32-.5,1.87,1.87,0,0,0-1.2.34,2.18,2.18,0,0,0-.58,1.25l-1.14-.19a3.12,3.12,0,0,1,1-1.94,3.25,3.25,0,0,1,2.12-.61,3,3,0,0,1,1.68.4,1.77,1.77,0,0,1,.77,1,7.37,7.37,0,0,1,.16,1.73v1.88a24.27,24.27,0,0,0,.07,2.48,3.87,3.87,0,0,0,.29,1h-1.2A3.26,3.26,0,0,1,926,28.17Zm-.1-3.14a7.4,7.4,0,0,1-1.88.53,3.76,3.76,0,0,0-1,.28,1.17,1.17,0,0,0-.45.46,1.44,1.44,0,0,0-.16.67,1.26,1.26,0,0,0,.37,1,1.4,1.4,0,0,0,1,.36,2,2,0,0,0,1.87-1.18,3.72,3.72,0,0,0,.25-1.56Z"/><path class="cls-4" d="M928.37,26.71l1.15-.22a2,2,0,0,0,.55,1.31,1.69,1.69,0,0,0,1.2.42,1.67,1.67,0,0,0,1.16-.37,1.21,1.21,0,0,0,.41-.94.89.89,0,0,0-.36-.76,4,4,0,0,0-1.17-.47,8.23,8.23,0,0,1-1.79-.71,2,2,0,0,1-.71-.77,2.44,2.44,0,0,1-.25-1.1,2.32,2.32,0,0,1,.68-1.73,2.6,2.6,0,0,1,1.88-.66,3.14,3.14,0,0,1,1.34.27,2.15,2.15,0,0,1,.88.74,3.2,3.2,0,0,1,.42,1.32l-1.13.18a1.35,1.35,0,0,0-1.47-1.36,1.74,1.74,0,0,0-1.12.3.94.94,0,0,0-.37.77.85.85,0,0,0,.35.72,6.09,6.09,0,0,0,1.26.5,9.22,9.22,0,0,1,1.85.73,1.77,1.77,0,0,1,.65.73,2.39,2.39,0,0,1,.24,1.11,2.58,2.58,0,0,1-.76,1.92,2.82,2.82,0,0,1-2.06.74C929.57,29.38,928.63,28.49,928.37,26.71Z"/><path class="cls-4" d="M937.94,27.93l.15,1.25a3.48,3.48,0,0,1-.86.12,1.71,1.71,0,0,1-1-.24,1.18,1.18,0,0,1-.51-.65,6.34,6.34,0,0,1-.14-1.65V22h-.84V20.9h.84V18.84l1.15-.84v2.9h1.17V22h-1.17v4.85a2.2,2.2,0,0,0,.11.87.55.55,0,0,0,.55.28A2.86,2.86,0,0,0,937.94,27.93Z"/><path class="cls-4" d="M942.68,29.19V20.9h1v1.15a2.58,2.58,0,0,1,.88-1,2.07,2.07,0,0,1,1.18-.35,1.94,1.94,0,0,1,1.21.37,2,2,0,0,1,.71,1.07,3.14,3.14,0,0,1,.93-1.08,2.08,2.08,0,0,1,1.18-.36,1.91,1.91,0,0,1,1.54.66,3.23,3.23,0,0,1,.57,2.13v5.69h-1.15V24a4.47,4.47,0,0,0-.13-1.26,1.2,1.2,0,0,0-.42-.58,1.16,1.16,0,0,0-.65-.2,1.49,1.49,0,0,0-1.22.59,2.92,2.92,0,0,0-.47,1.86v4.82h-1.15V23.8a2.52,2.52,0,0,0-.32-1.46,1,1,0,0,0-.87-.42,1.42,1.42,0,0,0-1.24.64,4.16,4.16,0,0,0-.46,2.32v4.31Z"/><path class="cls-4" d="M953.6,19.36V17.74h1.15v1.62Zm0,9.83V20.9h1.15v8.29Z"/><path class="cls-4" d="M956.52,29.19V20.9h1v1.17a2.63,2.63,0,0,1,.92-1,2.27,2.27,0,0,1,1.24-.34,2.37,2.37,0,0,1,1,.21,2.08,2.08,0,0,1,.75.57,2.36,2.36,0,0,1,.43.9,7.77,7.77,0,0,1,.14,1.7v5.1h-1.15V24.14a4,4,0,0,0-.16-1.34,1.28,1.28,0,0,0-.48-.65,1.37,1.37,0,0,0-.77-.23,1.56,1.56,0,0,0-1.32.62,3.45,3.45,0,0,0-.5,2.12v4.53Z"/><path class="cls-4" d="M968.27,29.19V28a3.07,3.07,0,0,1-.94,1.06,2.23,2.23,0,0,1-1.22.35,2.2,2.2,0,0,1-1.38-.43,2.1,2.1,0,0,1-.76-1.1,6.71,6.71,0,0,1-.19-1.81V20.9h1.15v4.6a7,7,0,0,0,.13,1.71,1.27,1.27,0,0,0,.48.7,1.29,1.29,0,0,0,.79.26,1.67,1.67,0,0,0,1.36-.68,3.71,3.71,0,0,0,.45-2.15V20.9h1.16v8.29Z"/><path class="cls-4" d="M973.67,27.93l.16,1.25a3.61,3.61,0,0,1-.86.12,1.76,1.76,0,0,1-1-.24,1.16,1.16,0,0,1-.5-.65,6.34,6.34,0,0,1-.14-1.65V22h-.84V20.9h.84V18.84l1.15-.84v2.9h1.16V22h-1.16v4.85a2.26,2.26,0,0,0,.1.87.56.56,0,0,0,.55.28A2.86,2.86,0,0,0,973.67,27.93Z"/><path class="cls-4" d="M979.41,26.52l1.18.18a3.51,3.51,0,0,1-1.07,2,2.84,2.84,0,0,1-1.93.68,2.89,2.89,0,0,1-2.34-1.1,5,5,0,0,1-.89-3.17,5.14,5.14,0,0,1,.9-3.27,2.78,2.78,0,0,1,2.29-1.13,2.71,2.71,0,0,1,2.2,1.11,5.05,5.05,0,0,1,.88,3.21v.37h-5.07a3.48,3.48,0,0,0,.65,2.11,1.72,1.72,0,0,0,1.4.71C978.47,28.22,979.07,27.66,979.41,26.52Zm-3.79-2.27h3.79a3.08,3.08,0,0,0-.46-1.61,1.66,1.66,0,0,0-2.73-.13A2.76,2.76,0,0,0,975.62,24.25Z"/><path class="cls-4" d="M990.13,28.17a4.33,4.33,0,0,1-1.2.91,3,3,0,0,1-1.3.3,2.25,2.25,0,0,1-1.69-.64A2.36,2.36,0,0,1,985.3,27a2.62,2.62,0,0,1,.3-1.27,2.27,2.27,0,0,1,.81-.87,4.33,4.33,0,0,1,1.57-.46,9,9,0,0,0,2.06-.49v-.36a1.78,1.78,0,0,0-.31-1.2,1.64,1.64,0,0,0-1.32-.5,1.85,1.85,0,0,0-1.2.34,2.18,2.18,0,0,0-.59,1.25l-1.13-.19a3.12,3.12,0,0,1,1-1.94,3.22,3.22,0,0,1,2.11-.61,3,3,0,0,1,1.68.4,1.69,1.69,0,0,1,.77,1,6.87,6.87,0,0,1,.16,1.73v1.88a23.12,23.12,0,0,0,.08,2.48,3.51,3.51,0,0,0,.29,1h-1.2A3.56,3.56,0,0,1,990.13,28.17ZM990,25a7.4,7.4,0,0,1-1.88.53,3.65,3.65,0,0,0-1,.28,1.17,1.17,0,0,0-.45.46,1.33,1.33,0,0,0-.16.67,1.23,1.23,0,0,0,.37,1,1.37,1.37,0,0,0,1,.36,2,2,0,0,0,1.88-1.18,3.72,3.72,0,0,0,.25-1.56Z"/><path class="cls-4" d="M997.41,29.19v-1a2.33,2.33,0,0,1-.81.91,1.94,1.94,0,0,1-1.06.32,2.57,2.57,0,0,1-2.08-1.14,5.08,5.08,0,0,1-.88-3.2,6.47,6.47,0,0,1,.39-2.39,3.27,3.27,0,0,1,1-1.47,2.44,2.44,0,0,1,1.45-.47,1.94,1.94,0,0,1,1,.3,2.33,2.33,0,0,1,.81.84V17.74h1.16V29.19Zm-3.65-4.14a4.07,4.07,0,0,0,.56,2.39,1.58,1.58,0,0,0,1.3.78,1.55,1.55,0,0,0,1.27-.75,3.86,3.86,0,0,0,.54-2.26,4.63,4.63,0,0,0-.54-2.54,1.59,1.59,0,0,0-1.36-.81,1.52,1.52,0,0,0-1.25.77A4.39,4.39,0,0,0,993.76,25.05Z"/><path class="cls-4" d="M1004.7,29.19v-1a2.23,2.23,0,0,1-.8.91,1.94,1.94,0,0,1-1.06.32,2.58,2.58,0,0,1-2.09-1.14,5.14,5.14,0,0,1-.87-3.2,6.48,6.48,0,0,1,.38-2.39,3.28,3.28,0,0,1,1-1.47,2.41,2.41,0,0,1,1.44-.47,2,2,0,0,1,1.06.3,2.51,2.51,0,0,1,.81.84V17.74h1.16V29.19Zm-3.65-4.14a4.15,4.15,0,0,0,.56,2.39,1.61,1.61,0,0,0,1.31.78,1.55,1.55,0,0,0,1.27-.75,3.86,3.86,0,0,0,.54-2.26,4.63,4.63,0,0,0-.54-2.54,1.59,1.59,0,0,0-1.36-.81,1.5,1.5,0,0,0-1.25.77A4.38,4.38,0,0,0,1001.05,25.05Z"/><path class="cls-4" d="M1007.59,29.19V20.9h1v1.25a3.67,3.67,0,0,1,.73-1.16,1.11,1.11,0,0,1,.75-.28,2,2,0,0,1,1.18.45l-.39,1.31a1.43,1.43,0,0,0-.84-.31,1,1,0,0,0-.67.26,1.37,1.37,0,0,0-.43.72,6.67,6.67,0,0,0-.22,1.71v4.34Z"/><path class="cls-4" d="M1016.61,26.52l1.19.18a3.58,3.58,0,0,1-1.08,2,2.83,2.83,0,0,1-1.92.68,2.86,2.86,0,0,1-2.34-1.1,4.89,4.89,0,0,1-.9-3.17,5.14,5.14,0,0,1,.9-3.27,2.81,2.81,0,0,1,2.29-1.13,2.71,2.71,0,0,1,2.2,1.11,5.05,5.05,0,0,1,.89,3.21v.37h-5.08a3.55,3.55,0,0,0,.65,2.11,1.72,1.72,0,0,0,1.4.71C1015.67,28.22,1016.27,27.66,1016.61,26.52Zm-3.79-2.27h3.8a3.18,3.18,0,0,0-.46-1.61,1.67,1.67,0,0,0-1.42-.78,1.69,1.69,0,0,0-1.32.65A2.88,2.88,0,0,0,1012.82,24.25Z"/><path class="cls-4" d="M1018.81,26.71l1.15-.22a2.09,2.09,0,0,0,.55,1.31,1.72,1.72,0,0,0,1.2.42,1.65,1.65,0,0,0,1.16-.37,1.21,1.21,0,0,0,.41-.94.91.91,0,0,0-.35-.76,4,4,0,0,0-1.17-.47A8.15,8.15,0,0,1,1020,25a1.93,1.93,0,0,1-.7-.77,2.32,2.32,0,0,1-.25-1.1,2.28,2.28,0,0,1,.68-1.73,2.58,2.58,0,0,1,1.88-.66,3.07,3.07,0,0,1,1.33.27,2,2,0,0,1,.88.74,3.2,3.2,0,0,1,.42,1.32l-1.12.18a1.36,1.36,0,0,0-1.48-1.36,1.76,1.76,0,0,0-1.12.3,1,1,0,0,0-.36.77.82.82,0,0,0,.35.72,5.91,5.91,0,0,0,1.25.5,9,9,0,0,1,1.85.73,1.87,1.87,0,0,1,.66.73,2.53,2.53,0,0,1,.23,1.11,2.57,2.57,0,0,1-.75,1.92,2.84,2.84,0,0,1-2.06.74C1020,29.38,1019.07,28.49,1018.81,26.71Z"/><path class="cls-4" d="M1025.38,26.71l1.14-.22a2.1,2.1,0,0,0,.56,1.31,1.69,1.69,0,0,0,1.2.42,1.62,1.62,0,0,0,1.15-.37,1.18,1.18,0,0,0,.41-.94.88.88,0,0,0-.35-.76,4,4,0,0,0-1.17-.47,8.37,8.37,0,0,1-1.8-.71,2,2,0,0,1-.7-.77,2.54,2.54,0,0,1,.43-2.83,2.58,2.58,0,0,1,1.88-.66,3.07,3.07,0,0,1,1.33.27,2,2,0,0,1,.88.74,3,3,0,0,1,.43,1.32l-1.13.18a1.35,1.35,0,0,0-1.48-1.36,1.71,1.71,0,0,0-1.11.3.94.94,0,0,0-.37.77.85.85,0,0,0,.35.72,5.91,5.91,0,0,0,1.25.5,9.13,9.13,0,0,1,1.86.73,1.84,1.84,0,0,1,.65.73,2.39,2.39,0,0,1,.23,1.11,2.57,2.57,0,0,1-.75,1.92,2.82,2.82,0,0,1-2.06.74C1026.58,29.38,1025.64,28.49,1025.38,26.71Z"/><path class="cls-4" d="M1032.72,29.19v-1.6H1034v1.6a3.25,3.25,0,0,1-.27,1.46,1.89,1.89,0,0,1-.8.81l-.32-.6a1.25,1.25,0,0,0,.53-.56,2.78,2.78,0,0,0,.2-1.11Z"/><path class="cls-4" d="M738.7,24.18v-1.3l6.22-3.22v1.4L740,23.53l4.93,2.5v1.4Z"/><path class="cls-4" d="M746.84,29.19V22h-1V20.9h1V20a3.88,3.88,0,0,1,.2-1.46,1.54,1.54,0,0,1,.62-.75,2,2,0,0,1,1.06-.26,4.43,4.43,0,0,1,1.08.15l-.18,1.22a3.22,3.22,0,0,0-.67-.08.9.9,0,0,0-.74.27,1.67,1.67,0,0,0-.23,1v.77h1.33V22H748v7.2Z"/><path class="cls-4" d="M749.73,25a5,5,0,0,1,.9-3.24,2.93,2.93,0,0,1,4.56,0A4.8,4.8,0,0,1,756.1,25a5.17,5.17,0,0,1-.9,3.33,2.92,2.92,0,0,1-4.56,0A5,5,0,0,1,749.73,25Zm1.18,0a4,4,0,0,0,.58,2.4,1.77,1.77,0,0,0,1.46.78,1.69,1.69,0,0,0,1.39-.79,4,4,0,0,0,.58-2.39,4,4,0,0,0-.58-2.39,1.78,1.78,0,0,0-1.46-.79,1.73,1.73,0,0,0-1.4.79A4.11,4.11,0,0,0,750.91,25Z"/><path class="cls-4" d="M757,25a5,5,0,0,1,.91-3.24,2.92,2.92,0,0,1,4.55,0A4.8,4.8,0,0,1,763.4,25a5.17,5.17,0,0,1-.9,3.33,2.83,2.83,0,0,1-2.29,1.09,2.86,2.86,0,0,1-2.28-1.1A5,5,0,0,1,757,25Zm1.18,0a4,4,0,0,0,.59,2.4,1.75,1.75,0,0,0,1.45.78,1.7,1.7,0,0,0,1.4-.79,4.11,4.11,0,0,0,.58-2.39,4,4,0,0,0-.59-2.39,1.76,1.76,0,0,0-1.45-.79,1.72,1.72,0,0,0-1.4.79A4.11,4.11,0,0,0,758.2,25Z"/><path class="cls-4" d="M767.32,27.93l.16,1.25a3.61,3.61,0,0,1-.86.12,1.74,1.74,0,0,1-1-.24,1.22,1.22,0,0,1-.51-.65,6.48,6.48,0,0,1-.13-1.65V22h-.85V20.9H765V18.84l1.15-.84v2.9h1.16V22h-1.16v4.85a2.26,2.26,0,0,0,.1.87.56.56,0,0,0,.55.28A2.86,2.86,0,0,0,767.32,27.93Z"/><path class="cls-4" d="M773.05,26.52l1.19.18a3.57,3.57,0,0,1-1.07,2,2.84,2.84,0,0,1-1.93.68,2.89,2.89,0,0,1-2.34-1.1,5,5,0,0,1-.89-3.17,5.14,5.14,0,0,1,.9-3.27,2.78,2.78,0,0,1,2.29-1.13,2.71,2.71,0,0,1,2.2,1.11,5.05,5.05,0,0,1,.88,3.21v.37H769.2a3.55,3.55,0,0,0,.64,2.11,1.75,1.75,0,0,0,1.41.71C772.11,28.22,772.72,27.66,773.05,26.52Zm-3.78-2.27h3.79a3.08,3.08,0,0,0-.46-1.61,1.66,1.66,0,0,0-2.73-.13A2.76,2.76,0,0,0,769.27,24.25Z"/><path class="cls-4" d="M775.7,29.19V20.9h1v1.25a3.67,3.67,0,0,1,.73-1.16,1.11,1.11,0,0,1,.75-.28,2,2,0,0,1,1.18.45L779,22.47a1.43,1.43,0,0,0-.84-.31,1,1,0,0,0-.67.26,1.37,1.37,0,0,0-.43.72,6.26,6.26,0,0,0-.22,1.71v4.34Z"/><path class="cls-4" d="M786.14,24.18l-6.22,3.25V26l4.93-2.5-4.93-2.47v-1.4l6.22,3.22Z"/><path class="cls-4" d="M558.58,528.76v-1.3l6.22-3.22v1.4l-4.93,2.47,4.93,2.5V532Z"/><path class="cls-4" d="M565.53,534l2.72-11.84h.94L566.46,534Z"/><path class="cls-4" d="M570.36,533.77v-7.2h-1v-1.09h1v-.89a4.1,4.1,0,0,1,.2-1.46,1.56,1.56,0,0,1,.63-.75,2,2,0,0,1,1-.26,4.37,4.37,0,0,1,1.08.15l-.17,1.22a3.39,3.39,0,0,0-.68-.08.9.9,0,0,0-.74.27,1.71,1.71,0,0,0-.22,1v.77h1.33v1.09h-1.33v7.2Z"/><path class="cls-4" d="M573.25,529.62a5,5,0,0,1,.9-3.24,2.93,2.93,0,0,1,4.56,0,4.8,4.8,0,0,1,.91,3.16,5.17,5.17,0,0,1-.89,3.33,2.93,2.93,0,0,1-4.57,0A5,5,0,0,1,573.25,529.62Zm1.18,0A4,4,0,0,0,575,532a1.75,1.75,0,0,0,1.45.78,1.67,1.67,0,0,0,1.39-.79,5.14,5.14,0,0,0,0-4.78,1.76,1.76,0,0,0-1.45-.78,1.68,1.68,0,0,0-1.4.79A4,4,0,0,0,574.43,529.62Z"/><path class="cls-4" d="M580.55,529.62a5,5,0,0,1,.9-3.24,2.93,2.93,0,0,1,4.56,0,4.8,4.8,0,0,1,.91,3.16,5.17,5.17,0,0,1-.9,3.33,2.92,2.92,0,0,1-4.56,0A5,5,0,0,1,580.55,529.62Zm1.18,0a4,4,0,0,0,.58,2.4,1.77,1.77,0,0,0,1.46.78,1.69,1.69,0,0,0,1.39-.79,5.21,5.21,0,0,0,0-4.78,1.77,1.77,0,0,0-1.46-.78,1.7,1.7,0,0,0-1.4.79A4.05,4.05,0,0,0,581.73,529.62Z"/><path class="cls-4" d="M590.84,532.52l.16,1.24a3.54,3.54,0,0,1-.86.12,1.76,1.76,0,0,1-1-.24,1.17,1.17,0,0,1-.5-.65,6.29,6.29,0,0,1-.14-1.65v-4.77h-.84v-1.09h.84v-2.06l1.15-.84v2.9h1.16v1.09h-1.16v4.85a2.26,2.26,0,0,0,.1.87.57.57,0,0,0,.56.28A3.64,3.64,0,0,0,590.84,532.52Z"/><path class="cls-4" d="M596.58,531.1l1.19.18a3.65,3.65,0,0,1-1.08,2,2.83,2.83,0,0,1-1.92.67,2.86,2.86,0,0,1-2.34-1.1,4.86,4.86,0,0,1-.9-3.16,5.15,5.15,0,0,1,.9-3.28,2.84,2.84,0,0,1,2.29-1.13,2.71,2.71,0,0,1,2.2,1.11,5.05,5.05,0,0,1,.88,3.21V530h-5.08a3.55,3.55,0,0,0,.65,2.11,1.72,1.72,0,0,0,1.4.71C595.64,532.8,596.24,532.24,596.58,531.1Zm-3.79-2.27h3.8a3.17,3.17,0,0,0-.47-1.61,1.68,1.68,0,0,0-2.73-.13A2.88,2.88,0,0,0,592.79,528.83Z"/><path class="cls-4" d="M599.23,533.77v-8.29h1v1.25a3.35,3.35,0,0,1,.73-1.16,1.1,1.1,0,0,1,.74-.28,2,2,0,0,1,1.18.45l-.39,1.31a1.38,1.38,0,0,0-.83-.31,1.05,1.05,0,0,0-.68.26,1.44,1.44,0,0,0-.43.72,6.73,6.73,0,0,0-.21,1.71v4.34Z"/><path class="cls-4" d="M609.66,528.76,603.45,532v-1.4l4.93-2.5-4.93-2.47v-1.4l6.21,3.22Z"/><path class="cls-4" d="M562.87,29.65h-1.16v-9a5.74,5.74,0,0,1-1.07.95,6.55,6.55,0,0,1-1.23.74V21a7.25,7.25,0,0,0,1.68-1.33,5.11,5.11,0,0,0,1-1.54h.75Z"/><path class="cls-4" d="M565.82,24a9.67,9.67,0,0,1,.78-4.37,2.46,2.46,0,0,1,2.29-1.48,2.4,2.4,0,0,1,2.12,1.2A8.89,8.89,0,0,1,572,24a9.68,9.68,0,0,1-.78,4.36,2.45,2.45,0,0,1-2.29,1.48,2.53,2.53,0,0,1-2.2-1.31A8.72,8.72,0,0,1,565.82,24ZM567,24a8.61,8.61,0,0,0,.54,3.74,1.56,1.56,0,0,0,1.37,1,1.53,1.53,0,0,0,1.32-1,8.65,8.65,0,0,0,.54-3.73,8.6,8.6,0,0,0-.54-3.75,1.59,1.59,0,0,0-1.39-.95,1.52,1.52,0,0,0-1.31,1A8.78,8.78,0,0,0,567,24Z"/><path class="cls-4" d="M577.46,29.65H576.3v-9a5.74,5.74,0,0,1-1.07.95,6,6,0,0,1-1.23.74V21a6.85,6.85,0,0,0,1.68-1.33,5.11,5.11,0,0,0,1-1.54h.75Z"/><g class="cls-2"><path class="cls-3" d="M72.63,18c.11,11.69.93,24.23-2.71,35.18q-2,4.7-3.93,9.39c-.29.93-.42,1.71-.75,2.54"/><path class="cls-3" d="M58.78,80.57c4.7-11.19,8.89-24,17.12-31"/><path class="cls-3" d="M38.79,86.17l-1.24.48,3.23-1.89A269.38,269.38,0,0,1,102.46,71.4c21.51-2.48,42.29-2.3,63.72-1.66"/><path class="cls-3" d="M30.75,117l-.33.83a392.12,392.12,0,0,0,60.09,2.91q38.88-.62,77.75-2.07a71.68,71.68,0,0,1,23.31,2.16c1.45,1,1.92,1.57,1.92,3.78l-.23.22"/><path class="cls-3" d="M142.49,113.65c2.86-2.56,31-3.22,28.71-3.11,7.38-.33,16.47-.76,24.23-.44h-.52"/></g><line class="cls-3" x1="96.43" y1="122.61" x2="103.09" y2="122.61"/><g class="cls-2"><path class="cls-3" d="M176.45,108.41a141.24,141.24,0,0,1,47.16-1.82l52.79,4.94q20.21-3.72,36.86,9"/><path class="cls-3" d="M307.11,109.55c-7.9.37-15.84,1.27-23.74,1.06.1.44-.12.23-.24.46"/><path class="cls-3" d="M180.55,154.87l-.72.11c11.32-2.22,23.34-2.2,34.64-2.45,11.5-.25,23-.07,34.49,0"/><path class="cls-3" d="M202.79,160h47.92a4.81,4.81,0,0,1-2.46-.54"/><path class="cls-3" d="M158.8,181.5a1.27,1.27,0,0,0-.66-.44,241.09,241.09,0,0,0,27.15-.15c22.23-1,45.05-3,66.89-9.51,1.49-.45,3.12-1.27,4.68-1.2-.23.12-.44.35-.67.48.77,0,1.54,0,2.31,0"/><path class="cls-3" d="M152.64,198.37s97.24-10.77,81.85-16.71-63.39,25.6-63.39,25.6"/><path class="cls-3" d="M244.94,142.74s100.65,5.76,106.49,12.4,4-1.43,4-1.43"/><path class="cls-3" d="M366.81,178.49s-100-10.9-117.84-28.3"/><path class="cls-3" d="M298.62,222.61l-.3-.16A353.38,353.38,0,0,1,348.91,224a226.29,226.29,0,0,1,62.21,9.9"/><path class="cls-3" d="M465.91,124.31h22c2.94,0,6.94.23,10.15,0a10.21,10.21,0,0,0-2.42.45c-4.57,1-9.2-1-13.73.32,8,2.51,15.87-4.93,23.74-1.9a82.35,82.35,0,0,0,16.11,5.48q-.21-.49-.45.06"/><path class="cls-3" d="M337.59,98.62s86.77-29.29,105.23-37"/></g></g></svg>