<svg id="Layer_1" data-name="Layer 1" xmlns="http://www.w3.org/2000/svg" xmlns:xlink="http://www.w3.org/1999/xlink" viewBox="0 0 1080 756"><defs><style>.cls-1,.cls-3{fill:none;}.cls-2{clip-path:url(#clip-path);}.cls-3{stroke:#231f20;stroke-width:0.25px;}.cls-4{fill:#231f20;}</style><clipPath id="clip-path"><rect class="cls-1" width="1080" height="756"/></clipPath></defs><title>Untitled-3</title><g class="cls-2"><g class="cls-2"><line class="cls-3" x1="180" y1="-18.36" x2="180" y2="790.92"/><line class="cls-3" x1="720" y1="-20.88" x2="720" y2="788.4"/><line class="cls-3" x1="359.88" y1="-18.36" x2="359.88" y2="790.92"/><line class="cls-3" x1="899.87" y1="-20.88" x2="899.87" y2="788.4"/><line class="cls-3" x1="-16.92" y1="251.88" x2="1101.6" y2="251.88"/><line class="cls-3" x1="-11.52" y1="504.13" x2="1107" y2="504.13"/><line class="cls-3" x1="540" y1="-19.44" x2="540" y2="789.84"/></g><path class="cls-4" d="M198.85,29.4V21.1h1v1.17a2.78,2.78,0,0,1,.92-1,2.33,2.33,0,0,1,1.24-.34,2.41,2.41,0,0,1,1,.22,2.05,2.05,0,0,1,.75.56,2.21,2.21,0,0,1,.42.9,7.11,7.11,0,0,1,.15,1.71v5.1h-1.15v-5a4.28,4.28,0,0,0-.16-1.34,1.3,1.3,0,0,0-.49-.65,1.28,1.28,0,0,0-.77-.24,1.61,1.61,0,0,0-1.32.62,3.46,3.46,0,0,0-.49,2.12V29.4Z"/><path class="cls-4" d="M208.71,28.14l.16,1.24a3.21,3.21,0,0,1-.86.13,1.74,1.74,0,0,1-1-.24,1.19,1.19,0,0,1-.5-.65A6,6,0,0,1,206.4,27V22.2h-.85V21.1h.85V19.05l1.15-.85v2.9h1.16v1.1h-1.16v4.85a2.2,2.2,0,0,0,.1.86.56.56,0,0,0,.55.29A2.86,2.86,0,0,0,208.71,28.14Z"/><path class="cls-4" d="M209.8,29.4V18H211v4.1a2.8,2.8,0,0,1,.91-.85,2.29,2.29,0,0,1,1.13-.29,2.18,2.18,0,0,1,1.72.7,3.8,3.8,0,0,1,.63,2.53V29.4h-1.15V24.14a2.45,2.45,0,0,0-.39-1.55,1.28,1.28,0,0,0-1.05-.47,1.65,1.65,0,0,0-1.28.61,3.28,3.28,0,0,0-.52,2.13V29.4Z"/><path class="cls-4" d="M216.66,26V24.55h3.54V26Z"/><path class="cls-4" d="M225.91,26.36l1.14.18a3.79,3.79,0,0,1-1,2.26,2.58,2.58,0,0,1-1.89.79,2.7,2.7,0,0,1-2.2-1.1,5.23,5.23,0,0,1-.86-3.25A5.09,5.09,0,0,1,222,22a2.73,2.73,0,0,1,2.24-1.09,2.52,2.52,0,0,1,1.77.66,3.21,3.21,0,0,1,.93,2l-1.12.2a2.39,2.39,0,0,0-.57-1.25,1.3,1.3,0,0,0-1-.42,1.69,1.69,0,0,0-1.41.75,4,4,0,0,0-.56,2.4,4.38,4.38,0,0,0,.53,2.45,1.62,1.62,0,0,0,1.37.76,1.48,1.48,0,0,0,1.12-.5A2.74,2.74,0,0,0,225.91,26.36Z"/><path class="cls-4" d="M228,29.4V18h1.15v4.1a2.82,2.82,0,0,1,.92-.85,2.29,2.29,0,0,1,1.13-.29,2.17,2.17,0,0,1,1.71.7,3.8,3.8,0,0,1,.63,2.53V29.4h-1.15V24.14a2.45,2.45,0,0,0-.38-1.55,1.29,1.29,0,0,0-1.05-.47,1.65,1.65,0,0,0-1.28.61,3.28,3.28,0,0,0-.53,2.13V29.4Z"/><path class="cls-4" d="M235.32,19.56V18h1.15v1.61Zm0,9.84V21.1h1.15v8.3Z"/><path class="cls-4" d="M238.2,29.4V18h1.14V29.4Z"/><path class="cls-4" d="M245.55,29.4v-1a2.26,2.26,0,0,1-.8.92,1.94,1.94,0,0,1-1.06.32,2.57,2.57,0,0,1-2.08-1.14,5.12,5.12,0,0,1-.88-3.2,6.56,6.56,0,0,1,.39-2.4,3.22,3.22,0,0,1,1-1.46,2.35,2.35,0,0,1,1.44-.48,2,2,0,0,1,1.06.3,2.51,2.51,0,0,1,.81.84V18h1.16V29.4Zm-3.64-4.14a4.16,4.16,0,0,0,.55,2.39,1.61,1.61,0,0,0,1.31.78,1.55,1.55,0,0,0,1.27-.75,3.9,3.9,0,0,0,.54-2.27,4.66,4.66,0,0,0-.54-2.54,1.6,1.6,0,0,0-1.36-.8,1.52,1.52,0,0,0-1.25.77A4.37,4.37,0,0,0,241.91,25.26Z"/><path class="cls-4" d="M250.66,32.77a16.09,16.09,0,0,1-1.57-3.32,12.36,12.36,0,0,1-.71-4.21,14.12,14.12,0,0,1,2.28-7.49h.82a25.48,25.48,0,0,0-1.2,2.85,14.47,14.47,0,0,0-.53,2.22,16.6,16.6,0,0,0-.19,2.44,16.4,16.4,0,0,0,1.92,7.51Z"/><path class="cls-4" d="M252.81,29.4V21.1h1v1.17a2.78,2.78,0,0,1,.92-1,2.33,2.33,0,0,1,1.24-.34,2.41,2.41,0,0,1,1,.22,2.05,2.05,0,0,1,.75.56,2.36,2.36,0,0,1,.43.9,7.81,7.81,0,0,1,.14,1.71v5.1h-1.15v-5A4,4,0,0,0,257,23a1.3,1.3,0,0,0-.49-.65,1.26,1.26,0,0,0-.77-.24,1.61,1.61,0,0,0-1.32.62,3.46,3.46,0,0,0-.49,2.12V29.4Z"/><path class="cls-4" d="M260.56,32.77h-.83a16.4,16.4,0,0,0,1.92-7.51,16.6,16.6,0,0,0-.19-2.44,14.5,14.5,0,0,0-.52-2.22,24.1,24.1,0,0,0-1.21-2.85h.83a14.19,14.19,0,0,1,2.27,7.49,12.67,12.67,0,0,1-.68,4.15A15.62,15.62,0,0,1,260.56,32.77Z"/><path class="cls-4" d="M22.87,281.65H21.71v-9a5.74,5.74,0,0,1-1.07.95,6.55,6.55,0,0,1-1.23.74V273a7.25,7.25,0,0,0,1.68-1.33,5.11,5.11,0,0,0,1-1.54h.75Z"/><path class="cls-4" d="M25.82,276a9.67,9.67,0,0,1,.78-4.37,2.46,2.46,0,0,1,2.29-1.48,2.4,2.4,0,0,1,2.12,1.2A8.89,8.89,0,0,1,32,276a9.68,9.68,0,0,1-.78,4.36,2.45,2.45,0,0,1-2.29,1.48,2.53,2.53,0,0,1-2.2-1.31A8.72,8.72,0,0,1,25.82,276ZM27,276a8.61,8.61,0,0,0,.54,3.74,1.56,1.56,0,0,0,1.37.95,1.53,1.53,0,0,0,1.32-1,13.22,13.22,0,0,0,0-7.48,1.59,1.59,0,0,0-1.39-.95,1.52,1.52,0,0,0-1.31,1A8.78,8.78,0,0,0,27,276Z"/><path class="cls-4" d="M39.2,280.3v1.35H33a3.9,3.9,0,0,1,.5-1.84,10.36,10.36,0,0,1,1.9-2.4,13.25,13.25,0,0,0,2.12-2.49,3.39,3.39,0,0,0,.5-1.64,2,2,0,0,0-.51-1.42,1.73,1.73,0,0,0-2.58,0,2.52,2.52,0,0,0-.52,1.71l-1.19-.15a3.91,3.91,0,0,1,.94-2.48,2.85,2.85,0,0,1,2.13-.83,2.55,2.55,0,0,1,2.17,1,3.54,3.54,0,0,1,.74,2.2,4.11,4.11,0,0,1-.58,2.1,15.6,15.6,0,0,1-2.19,2.67c-.69.71-1.14,1.19-1.34,1.44a4.05,4.05,0,0,0-.48.77Z"/><path class="cls-4" d="M742.57,281.65V270.2h1.15v6.54l2.74-3.39H748l-2.6,3.08,2.86,5.22h-1.42l-2.26-4.25-.81,1v3.29Z"/><path class="cls-4" d="M749.11,281.65v-8.3h1v1.17a2.76,2.76,0,0,1,.91-1,2.39,2.39,0,0,1,1.25-.34,2.44,2.44,0,0,1,1,.22,2.05,2.05,0,0,1,.75.56,2.21,2.21,0,0,1,.42.9,7.23,7.23,0,0,1,.14,1.71v5.1h-1.15v-5a4.34,4.34,0,0,0-.15-1.34,1.36,1.36,0,0,0-.49-.65,1.27,1.27,0,0,0-.77-.23,1.6,1.6,0,0,0-1.32.61,3.46,3.46,0,0,0-.49,2.12v4.54Z"/><path class="cls-4" d="M756,277.5a5,5,0,0,1,.9-3.24,2.91,2.91,0,0,1,4.56,0,4.79,4.79,0,0,1,.91,3.15,5.23,5.23,0,0,1-.89,3.33,2.92,2.92,0,0,1-4.57,0A5,5,0,0,1,756,277.5Zm1.18,0a4,4,0,0,0,.58,2.39,1.75,1.75,0,0,0,1.46.79,1.69,1.69,0,0,0,1.39-.79,4,4,0,0,0,.58-2.39,4,4,0,0,0-.58-2.39,1.75,1.75,0,0,0-1.46-.79,1.67,1.67,0,0,0-1.39.79A4,4,0,0,0,757.15,277.5Z"/><path class="cls-4" d="M765,281.65l-2.09-8.3h1.19l1.08,4.79.4,1.78.36-1.71,1.08-4.86h1.19l1,4.81.35,1.59.39-1.6,1.16-4.8h1.12l-2.12,8.3h-1.2l-1.09-5-.25-1.41-1.38,6.38Z"/><path class="cls-4" d="M776.78,284.84l-.12-1.32a2,2,0,0,0,.65.13,1.13,1.13,0,0,0,.61-.15,1.06,1.06,0,0,0,.39-.46c0-.07.19-.53.46-1.38l-2.59-8.31h1.24l1.42,4.8c.18.6.34,1.24.5,1.92.13-.64.28-1.27.46-1.89l1.46-4.83h1.15l-2.58,8.44A14.86,14.86,0,0,1,779,284a2.15,2.15,0,0,1-.66.79,1.54,1.54,0,0,1-.85.25A1.93,1.93,0,0,1,776.78,284.84Z"/><path class="cls-4" d="M783,277.5a5,5,0,0,1,.9-3.24,2.91,2.91,0,0,1,4.56,0,4.79,4.79,0,0,1,.91,3.15,5.17,5.17,0,0,1-.9,3.33,2.91,2.91,0,0,1-4.56,0A5,5,0,0,1,783,277.5Zm1.17,0a4,4,0,0,0,.59,2.39,1.75,1.75,0,0,0,1.45.79,1.69,1.69,0,0,0,1.4-.79,4,4,0,0,0,.58-2.39,3.92,3.92,0,0,0-.59-2.39,1.74,1.74,0,0,0-1.45-.79,1.69,1.69,0,0,0-1.4.79A4.08,4.08,0,0,0,784.12,277.5Z"/><path class="cls-4" d="M795.13,281.65v-1.22a2.93,2.93,0,0,1-.93,1.05,2.16,2.16,0,0,1-1.22.36,2.21,2.21,0,0,1-1.38-.44,2.06,2.06,0,0,1-.76-1.1,6.66,6.66,0,0,1-.19-1.81v-5.14h1.15V278a7.06,7.06,0,0,0,.13,1.72,1.3,1.3,0,0,0,1.27.95,1.63,1.63,0,0,0,1.35-.67,3.64,3.64,0,0,0,.46-2.15v-4.45h1.15v8.3Z"/><path class="cls-4" d="M798,281.65v-8.3h1v1.26a3.35,3.35,0,0,1,.73-1.16,1.12,1.12,0,0,1,.74-.29,2,2,0,0,1,1.18.46l-.39,1.3a1.43,1.43,0,0,0-.83-.3,1,1,0,0,0-.68.26,1.45,1.45,0,0,0-.43.71,6.79,6.79,0,0,0-.22,1.71v4.35Z"/><path class="cls-4" d="M806,284.83V273.35h1.06v1.08a2.7,2.7,0,0,1,.87-1,2,2,0,0,1,1.09-.3,2.36,2.36,0,0,1,1.45.48,3.26,3.26,0,0,1,1,1.45,6.09,6.09,0,0,1,.4,2.34,5.23,5.23,0,0,1-.89,3.26,2.59,2.59,0,0,1-2.08,1.15,1.86,1.86,0,0,1-1-.28,2.44,2.44,0,0,1-.8-.77v4Zm1-7.28a4.15,4.15,0,0,0,.54,2.37,1.47,1.47,0,0,0,2.59,0,4.38,4.38,0,0,0,.55-2.44,4.26,4.26,0,0,0-.54-2.4,1.42,1.42,0,0,0-2.57.06A4.33,4.33,0,0,0,807,277.55Z"/><path class="cls-4" d="M813.25,281.65V270.2h1.15v11.45Z"/><path class="cls-4" d="M820.63,280.62a4,4,0,0,1-1.2.91,3,3,0,0,1-1.3.31,2.28,2.28,0,0,1-1.69-.64,2.38,2.38,0,0,1-.64-1.73,2.62,2.62,0,0,1,.3-1.27,2.27,2.27,0,0,1,.81-.87,4.33,4.33,0,0,1,1.57-.46,9,9,0,0,0,2.06-.49V276a1.78,1.78,0,0,0-.31-1.2,1.64,1.64,0,0,0-1.32-.5,1.85,1.85,0,0,0-1.2.33,2.21,2.21,0,0,0-.59,1.26l-1.13-.19a3.18,3.18,0,0,1,1-2,3.27,3.27,0,0,1,2.11-.61,3,3,0,0,1,1.68.41,1.67,1.67,0,0,1,.77,1,7,7,0,0,1,.16,1.74v1.87a23.12,23.12,0,0,0,.08,2.48,3.58,3.58,0,0,0,.29,1h-1.2A3.63,3.63,0,0,1,820.63,280.62Zm-.09-3.14a7.34,7.34,0,0,1-1.88.54,3.33,3.33,0,0,0-1,.28,1.21,1.21,0,0,0-.45.45,1.37,1.37,0,0,0-.16.68,1.24,1.24,0,0,0,.37.95,1.37,1.37,0,0,0,1,.35,2,2,0,0,0,1.88-1.17,3.78,3.78,0,0,0,.25-1.56Z"/><path class="cls-4" d="M828,278.61l1.14.18a3.79,3.79,0,0,1-1,2.26,2.58,2.58,0,0,1-1.89.79,2.68,2.68,0,0,1-2.2-1.1,5.16,5.16,0,0,1-.86-3.25,5.09,5.09,0,0,1,.87-3.24,2.72,2.72,0,0,1,2.24-1.09,2.52,2.52,0,0,1,1.77.66,3.26,3.26,0,0,1,.93,2l-1.12.2a2.39,2.39,0,0,0-.57-1.25,1.32,1.32,0,0,0-1-.42,1.71,1.71,0,0,0-1.41.75,4.13,4.13,0,0,0-.55,2.4,4.3,4.3,0,0,0,.53,2.45,1.61,1.61,0,0,0,1.37.76,1.48,1.48,0,0,0,1.12-.5A2.74,2.74,0,0,0,828,278.61Z"/><path class="cls-4" d="M834.71,279l1.19.18a3.62,3.62,0,0,1-1.08,2,2.82,2.82,0,0,1-1.92.68,2.88,2.88,0,0,1-2.34-1.1,4.89,4.89,0,0,1-.9-3.17,5.13,5.13,0,0,1,.91-3.28,2.8,2.8,0,0,1,2.28-1.13,2.69,2.69,0,0,1,2.2,1.11,5.05,5.05,0,0,1,.89,3.21v.38h-5.08a3.57,3.57,0,0,0,.65,2.11,1.77,1.77,0,0,0,1.41.71C833.77,280.68,834.37,280.11,834.71,279Zm-3.79-2.28h3.8a3.21,3.21,0,0,0-.46-1.61,1.69,1.69,0,0,0-1.42-.77,1.72,1.72,0,0,0-1.32.64A2.88,2.88,0,0,0,830.92,276.7Z"/><path class="cls-4" d="M837.72,281.65v-1.6H839v1.6Z"/><path class="cls-4" d="M922.66,533.52h-1.15v-9a6.52,6.52,0,0,1-1.07,1,6.72,6.72,0,0,1-1.24.73v-1.36a7.1,7.1,0,0,0,1.69-1.33,5.06,5.06,0,0,0,1-1.54h.75Z"/><path class="cls-4" d="M925.62,527.87a9.83,9.83,0,0,1,.77-4.37,2.48,2.48,0,0,1,2.3-1.48,2.39,2.39,0,0,1,2.11,1.2,8.79,8.79,0,0,1,.94,4.65,9.84,9.84,0,0,1-.77,4.36,2.47,2.47,0,0,1-2.3,1.48,2.54,2.54,0,0,1-2.2-1.31A8.74,8.74,0,0,1,925.62,527.87Zm1.18,0a8.78,8.78,0,0,0,.53,3.74,1.59,1.59,0,0,0,1.38.95,1.55,1.55,0,0,0,1.32-1,13.46,13.46,0,0,0,0-7.48,1.58,1.58,0,0,0-1.39-.94,1.52,1.52,0,0,0-1.31,1A8.62,8.62,0,0,0,926.8,527.87Z"/><path class="cls-4" d="M932.91,530.49l1.15-.19c.24,1.51.85,2.26,1.83,2.26a1.76,1.76,0,0,0,1.37-.67,2.58,2.58,0,0,0,.58-1.73,2.37,2.37,0,0,0-.54-1.62,1.66,1.66,0,0,0-1.3-.61,2.87,2.87,0,0,0-.81.16l.13-1.23h.18a2,2,0,0,0,1.48-3.21,1.49,1.49,0,0,0-2.22,0,2.8,2.8,0,0,0-.58,1.55L933,525a3.76,3.76,0,0,1,1-2.22,2.65,2.65,0,0,1,3.78.09,2.94,2.94,0,0,1,.8,2.13,2.72,2.72,0,0,1-.34,1.38,2.43,2.43,0,0,1-.94.94,2.23,2.23,0,0,1,.93.52,2.66,2.66,0,0,1,.59,1,3.81,3.81,0,0,1,.22,1.34,3.65,3.65,0,0,1-.93,2.58,2.92,2.92,0,0,1-2.22,1,2.7,2.7,0,0,1-2-.87A3.71,3.71,0,0,1,932.91,530.49Z"/><g class="cls-2"><path class="cls-3" d="M468,541.8,360,531l-81-.13s-63-.12-72-.12-73.8-.13-73.8-.13l-55.8,22,63-11H162L120.6,522,18,537.3l27,40.5L46.8,684l66.6,34.2L280.8,729l113.4-12.6,117-21.6,104.4-12.6,72-34.2,0-55.8-19.85-1.8s-23.4-9-30.6-10.8L522,550.8Z"/></g><g class="cls-2"><path class="cls-3" d="M478.8,558c24.38,0,50-2.59,74.22.27-4.78,10.29,30.45,15.48,37.68,17.77,9.68,3.05,19.2,7.67,29.18,9.41,9.53,1.65,16.19,3.37,23.69,9.35,4.77,3.81,7.27,7.81,13.2,10.28,6.59,2.73,4.13,1.5,7.43,6.48,3.58,5.42,10.71,9.19,10.56,15.75-.27,11.68-8.53,31.12-18,38.31-13.21,10-36.38,11.15-51.9,12.35-14.9,1.16-31.23-.93-45.59,4.12-24.34,8.56-45.77,25.59-69.21,36.28-23.64,10.78-48.37,11-73.81,10.74-35.54-.33-71.09-.11-106.64-.11"/><path class="cls-3" d="M347.4,540c-10.56.11-19.43-2-30.21-3.6-33.7-5-67.19-2.42-101-4.16-19.69-1-35.31,4.68-54.57,7.19-15.82,2.07-32.28.58-48.21.57"/></g></g></svg>