<svg id="Layer_1" data-name="Layer 1" xmlns="http://www.w3.org/2000/svg" xmlns:xlink="http://www.w3.org/1999/xlink" viewBox="0 0 1080 756"><defs><style>.cls-1,.cls-3{fill:none;}.cls-2{clip-path:url(#clip-path);}.cls-3{stroke:#231f20;stroke-width:0.25px;}.cls-4{fill:#231f20;}</style><clipPath id="clip-path"><rect class="cls-1" width="1080" height="756"/></clipPath></defs><title>Untitled-3</title><g class="cls-2"><g class="cls-2"><line class="cls-3" x1="180" y1="-18.36" x2="180" y2="790.92"/><line class="cls-3" x1="720" y1="-20.88" x2="720" y2="788.4"/><line class="cls-3" x1="359.88" y1="-18.36" x2="359.88" y2="790.92"/><line class="cls-3" x1="899.87" y1="-20.88" x2="899.87" y2="788.4"/><line class="cls-3" x1="-16.92" y1="251.88" x2="1101.6" y2="251.88"/><line class="cls-3" x1="-11.52" y1="504.13" x2="1107" y2="504.13"/><line class="cls-3" x1="540" y1="-19.44" x2="540" y2="789.84"/></g><path class="cls-4" d="M380.11,281.65l-2.09-8.3h1.19l1.08,4.79.4,1.78.36-1.71,1.08-4.86h1.19l1,4.81.35,1.59.39-1.6,1.16-4.8h1.12l-2.12,8.3H384l-1.09-5-.26-1.41-1.37,6.38Z"/><path class="cls-4" d="M388.32,271.81V270.2h1.15v1.61Zm0,9.84v-8.3h1.15v8.3Z"/><path class="cls-4" d="M391.23,281.65v-8.3h1v1.17a2.78,2.78,0,0,1,.92-1,2.35,2.35,0,0,1,1.24-.34,2.41,2.41,0,0,1,1,.22,2.05,2.05,0,0,1,.75.56,2.36,2.36,0,0,1,.43.9,7.81,7.81,0,0,1,.14,1.71v5.1h-1.15v-5a4,4,0,0,0-.16-1.34,1.3,1.3,0,0,0-1.25-.88,1.58,1.58,0,0,0-1.32.61,3.45,3.45,0,0,0-.5,2.12v4.54Z"/><path class="cls-4" d="M402.94,281.65v-1a2.36,2.36,0,0,1-.81.92,1.94,1.94,0,0,1-1.06.32A2.57,2.57,0,0,1,399,280.7a5.1,5.1,0,0,1-.88-3.2,6.56,6.56,0,0,1,.39-2.4,3.29,3.29,0,0,1,1-1.46,2.38,2.38,0,0,1,1.45-.48,1.94,1.94,0,0,1,1.05.3,2.51,2.51,0,0,1,.81.84v-4.1H404v11.45Zm-3.65-4.14a4.15,4.15,0,0,0,.56,2.39,1.58,1.58,0,0,0,1.3.78,1.55,1.55,0,0,0,1.27-.75,3.9,3.9,0,0,0,.54-2.27,4.66,4.66,0,0,0-.54-2.54,1.6,1.6,0,0,0-1.36-.8,1.52,1.52,0,0,0-1.25.77A4.37,4.37,0,0,0,399.29,277.51Z"/><path class="cls-4" d="M405.39,277.5a5,5,0,0,1,.9-3.24,2.91,2.91,0,0,1,4.56,0,4.79,4.79,0,0,1,.92,3.15,5.17,5.17,0,0,1-.9,3.33,2.92,2.92,0,0,1-4.57,0A5,5,0,0,1,405.39,277.5Zm1.18,0a4,4,0,0,0,.59,2.39,1.74,1.74,0,0,0,1.45.79,1.67,1.67,0,0,0,1.39-.79,4,4,0,0,0,.59-2.39,4,4,0,0,0-.59-2.39,1.75,1.75,0,0,0-1.45-.79,1.68,1.68,0,0,0-1.4.79A4,4,0,0,0,406.57,277.5Z"/><path class="cls-4" d="M414.38,281.65l-2.09-8.3h1.19l1.08,4.79.4,1.78.36-1.71,1.08-4.86h1.19l1,4.81.34,1.59.39-1.6,1.16-4.8h1.12l-2.12,8.3h-1.2l-1.09-5-.25-1.41-1.38,6.38Z"/><path class="cls-4" d="M202.87,533.65h-1.16v-9a5.74,5.74,0,0,1-1.07.95,6.55,6.55,0,0,1-1.23.74V525a7.25,7.25,0,0,0,1.68-1.33,5.11,5.11,0,0,0,1-1.54h.75Z"/><path class="cls-4" d="M211.9,532.3v1.35h-6.21a3.88,3.88,0,0,1,.49-1.84,10.18,10.18,0,0,1,1.91-2.4,13.49,13.49,0,0,0,2.11-2.49,3.28,3.28,0,0,0,.5-1.64,2,2,0,0,0-.51-1.42,1.73,1.73,0,0,0-2.58,0,2.57,2.57,0,0,0-.52,1.71l-1.18-.15a3.85,3.85,0,0,1,.93-2.48,2.85,2.85,0,0,1,2.13-.83,2.54,2.54,0,0,1,2.17,1,3.48,3.48,0,0,1,.74,2.2,4.11,4.11,0,0,1-.58,2.1,15.13,15.13,0,0,1-2.19,2.67c-.69.71-1.13,1.19-1.33,1.44a4.12,4.12,0,0,0-.49.77Z"/><path class="cls-4" d="M213.12,528a9.83,9.83,0,0,1,.77-4.37,2.48,2.48,0,0,1,2.3-1.48,2.39,2.39,0,0,1,2.11,1.2,8.79,8.79,0,0,1,.94,4.65,9.84,9.84,0,0,1-.77,4.36,2.47,2.47,0,0,1-2.3,1.48,2.54,2.54,0,0,1-2.2-1.31A8.74,8.74,0,0,1,213.12,528Zm1.18,0a8.81,8.81,0,0,0,.53,3.74,1.59,1.59,0,0,0,1.38,1,1.55,1.55,0,0,0,1.32-1,13.46,13.46,0,0,0,0-7.48,1.59,1.59,0,0,0-1.39-1,1.51,1.51,0,0,0-1.31,1A8.62,8.62,0,0,0,214.3,528Z"/><path class="cls-4" d="M559,32.83V21.35H560v1.08a2.77,2.77,0,0,1,.86-1,2,2,0,0,1,1.1-.3,2.4,2.4,0,0,1,1.45.48,3.26,3.26,0,0,1,1,1.45,6.3,6.3,0,0,1,.39,2.34,5.16,5.16,0,0,1-.89,3.26,2.59,2.59,0,0,1-2.08,1.15,1.86,1.86,0,0,1-1-.28,2.54,2.54,0,0,1-.8-.77v4Zm1-7.28a4.15,4.15,0,0,0,.54,2.37,1.47,1.47,0,0,0,2.59,0,4.3,4.3,0,0,0,.55-2.44,4.26,4.26,0,0,0-.54-2.4,1.54,1.54,0,0,0-1.3-.78,1.58,1.58,0,0,0-1.27.84A4.33,4.33,0,0,0,560,25.55Z"/><path class="cls-4" d="M566.24,19.81V18.2h1.15v1.61Zm0,9.84v-8.3h1.15v8.3Z"/><path class="cls-4" d="M573.61,26.61l1.13.18a3.73,3.73,0,0,1-1,2.26,2.54,2.54,0,0,1-1.88.79,2.67,2.67,0,0,1-2.2-1.1,5.16,5.16,0,0,1-.87-3.25,5.09,5.09,0,0,1,.87-3.24,2.73,2.73,0,0,1,2.24-1.09,2.55,2.55,0,0,1,1.78.66,3.2,3.2,0,0,1,.92,2l-1.11.2a2.39,2.39,0,0,0-.57-1.25,1.32,1.32,0,0,0-1-.42,1.69,1.69,0,0,0-1.41.75,4.12,4.12,0,0,0-.56,2.4,4.29,4.29,0,0,0,.54,2.45,1.59,1.59,0,0,0,1.37.76,1.48,1.48,0,0,0,1.12-.5A2.74,2.74,0,0,0,573.61,26.61Z"/><path class="cls-4" d="M578.28,28.39l.16,1.24a3.21,3.21,0,0,1-.86.13,1.74,1.74,0,0,1-1-.24,1.19,1.19,0,0,1-.5-.65,6,6,0,0,1-.14-1.65V22.45h-.85v-1.1H576V19.3l1.15-.85v2.9h1.16v1.1h-1.16V27.3a2.2,2.2,0,0,0,.1.86.56.56,0,0,0,.55.29A2.86,2.86,0,0,0,578.28,28.39Z"/><path class="cls-4" d="M583.82,29.65V28.43a3,3,0,0,1-.94,1.05,2.13,2.13,0,0,1-1.22.36,2.2,2.2,0,0,1-1.37-.44,2.06,2.06,0,0,1-.76-1.1,6.66,6.66,0,0,1-.19-1.81V21.35h1.14V26a7.62,7.62,0,0,0,.13,1.72,1.32,1.32,0,0,0,.48.69,1.25,1.25,0,0,0,.79.26,1.65,1.65,0,0,0,1.36-.67,3.72,3.72,0,0,0,.46-2.15V21.35h1.15v8.3Z"/><path class="cls-4" d="M586.66,29.65v-8.3h1v1.26a3.67,3.67,0,0,1,.73-1.16,1.14,1.14,0,0,1,.75-.29,2,2,0,0,1,1.18.46l-.39,1.3a1.49,1.49,0,0,0-.84-.3,1,1,0,0,0-.67.26,1.38,1.38,0,0,0-.43.71,6.79,6.79,0,0,0-.22,1.71v4.35Z"/><path class="cls-4" d="M595.68,27l1.19.18a3.62,3.62,0,0,1-1.08,2,2.83,2.83,0,0,1-1.92.68,2.86,2.86,0,0,1-2.34-1.1,4.89,4.89,0,0,1-.9-3.17,5.13,5.13,0,0,1,.91-3.28,2.8,2.8,0,0,1,2.28-1.13,2.71,2.71,0,0,1,2.2,1.11,5.05,5.05,0,0,1,.89,3.21v.38h-5.08a3.57,3.57,0,0,0,.65,2.11,1.75,1.75,0,0,0,1.41.71C594.74,28.68,595.34,28.11,595.68,27Zm-3.79-2.28h3.8a3.21,3.21,0,0,0-.46-1.61,1.69,1.69,0,0,0-1.42-.77,1.72,1.72,0,0,0-1.32.64A2.88,2.88,0,0,0,591.89,24.7Z"/><path class="cls-4" d="M602,19.81V18.2h1.14v1.61Zm0,9.84v-8.3h1.14v8.3Z"/><path class="cls-4" d="M604.89,29.65v-8.3h1v1.17a2.7,2.7,0,0,1,.92-1,2.33,2.33,0,0,1,1.24-.34,2.44,2.44,0,0,1,1,.22,2.05,2.05,0,0,1,.75.56,2.21,2.21,0,0,1,.42.9,7.23,7.23,0,0,1,.14,1.71v5.1h-1.14v-5a4.28,4.28,0,0,0-.16-1.34,1.36,1.36,0,0,0-.49-.65,1.27,1.27,0,0,0-.77-.23,1.6,1.6,0,0,0-1.32.61,3.46,3.46,0,0,0-.49,2.12v4.54Z"/><path class="cls-4" d="M615.84,32.83V21.35h1.06v1.08a2.77,2.77,0,0,1,.86-1,2,2,0,0,1,1.1-.3,2.38,2.38,0,0,1,1.45.48,3.26,3.26,0,0,1,1,1.45,6.3,6.3,0,0,1,.39,2.34,5.23,5.23,0,0,1-.88,3.26,2.62,2.62,0,0,1-2.09,1.15,1.86,1.86,0,0,1-1-.28,2.54,2.54,0,0,1-.8-.77v4Zm1-7.28a4.15,4.15,0,0,0,.54,2.37,1.47,1.47,0,0,0,2.59,0,4.3,4.3,0,0,0,.55-2.44,4.26,4.26,0,0,0-.54-2.4,1.54,1.54,0,0,0-1.3-.78,1.58,1.58,0,0,0-1.27.84A4.33,4.33,0,0,0,616.88,25.55Z"/><path class="cls-4" d="M623.13,19.81V18.2h1.15v1.61Zm0,9.84v-8.3h1.15v8.3Z"/><path class="cls-4" d="M630.5,26.61l1.13.18a3.73,3.73,0,0,1-1,2.26,2.54,2.54,0,0,1-1.88.79,2.68,2.68,0,0,1-2.2-1.1,5.16,5.16,0,0,1-.87-3.25,5.09,5.09,0,0,1,.87-3.24,2.75,2.75,0,0,1,2.24-1.09,2.53,2.53,0,0,1,1.78.66,3.26,3.26,0,0,1,.93,2l-1.12.2a2.39,2.39,0,0,0-.57-1.25,1.32,1.32,0,0,0-1-.42,1.69,1.69,0,0,0-1.41.75,4.12,4.12,0,0,0-.56,2.4,4.29,4.29,0,0,0,.54,2.45,1.59,1.59,0,0,0,1.37.76,1.48,1.48,0,0,0,1.12-.5A2.74,2.74,0,0,0,630.5,26.61Z"/><path class="cls-4" d="M635.17,28.39l.16,1.24a3.21,3.21,0,0,1-.86.13,1.76,1.76,0,0,1-1-.24,1.19,1.19,0,0,1-.5-.65,6.39,6.39,0,0,1-.14-1.65V22.45H632v-1.1h.84V19.3l1.15-.85v2.9h1.16v1.1H634V27.3a2.2,2.2,0,0,0,.1.86.56.56,0,0,0,.55.29A2.86,2.86,0,0,0,635.17,28.39Z"/><path class="cls-4" d="M640.71,29.65V28.43a2.86,2.86,0,0,1-.94,1.05,2.13,2.13,0,0,1-1.22.36,2.2,2.2,0,0,1-1.37-.44,2.06,2.06,0,0,1-.76-1.1,6.66,6.66,0,0,1-.19-1.81V21.35h1.15V26a7.82,7.82,0,0,0,.12,1.72,1.32,1.32,0,0,0,.48.69,1.25,1.25,0,0,0,.79.26,1.64,1.64,0,0,0,1.36-.67,3.72,3.72,0,0,0,.46-2.15V21.35h1.15v8.3Z"/><path class="cls-4" d="M643.55,29.65v-8.3h1v1.26a3.67,3.67,0,0,1,.73-1.16,1.14,1.14,0,0,1,.75-.29,2,2,0,0,1,1.18.46l-.39,1.3a1.49,1.49,0,0,0-.84-.3,1,1,0,0,0-.67.26,1.38,1.38,0,0,0-.43.71,6.79,6.79,0,0,0-.22,1.71v4.35Z"/><path class="cls-4" d="M652.57,27l1.19.18a3.62,3.62,0,0,1-1.08,2,2.82,2.82,0,0,1-1.92.68,2.86,2.86,0,0,1-2.34-1.1,4.89,4.89,0,0,1-.9-3.17,5.13,5.13,0,0,1,.91-3.28,2.8,2.8,0,0,1,2.28-1.13,2.69,2.69,0,0,1,2.2,1.11,5.05,5.05,0,0,1,.89,3.21v.38h-5.08a3.57,3.57,0,0,0,.65,2.11,1.77,1.77,0,0,0,1.41.71C651.63,28.68,652.23,28.11,652.57,27Zm-3.79-2.28h3.8a3.21,3.21,0,0,0-.46-1.61,1.69,1.69,0,0,0-1.42-.77,1.72,1.72,0,0,0-1.32.64A2.88,2.88,0,0,0,648.78,24.7Z"/><path class="cls-4" d="M559,36.81V35.2h1.14v1.61Zm0,9.84v-8.3h1.14v8.3Z"/><path class="cls-4" d="M561.86,46.65v-8.3h1v1.17a2.76,2.76,0,0,1,.91-1,2.39,2.39,0,0,1,1.25-.34,2.44,2.44,0,0,1,1,.22,2.05,2.05,0,0,1,.75.56,2.21,2.21,0,0,1,.42.9,7.23,7.23,0,0,1,.14,1.71v5.1h-1.15v-5a4.34,4.34,0,0,0-.15-1.34,1.36,1.36,0,0,0-.49-.65,1.27,1.27,0,0,0-.77-.23,1.6,1.6,0,0,0-1.32.61,3.46,3.46,0,0,0-.49,2.12v4.54Z"/><path class="cls-4" d="M572.8,49.83V38.35h1.07v1.08a2.77,2.77,0,0,1,.86-1,2,2,0,0,1,1.1-.3,2.4,2.4,0,0,1,1.45.48,3.34,3.34,0,0,1,1,1.45,6.3,6.3,0,0,1,.39,2.34,5.16,5.16,0,0,1-.89,3.26,2.59,2.59,0,0,1-2.08,1.15,1.86,1.86,0,0,1-1-.28,2.54,2.54,0,0,1-.8-.77v4Zm1.05-7.28a4.15,4.15,0,0,0,.54,2.37,1.47,1.47,0,0,0,2.59,0,4.3,4.3,0,0,0,.55-2.44,4.26,4.26,0,0,0-.54-2.4,1.42,1.42,0,0,0-2.57.06A4.33,4.33,0,0,0,573.85,42.55Z"/><path class="cls-4" d="M580.1,36.81V35.2h1.15v1.61Zm0,9.84v-8.3h1.15v8.3Z"/><path class="cls-4" d="M587.47,43.61l1.13.18a3.79,3.79,0,0,1-1,2.26,2.55,2.55,0,0,1-1.89.79,2.66,2.66,0,0,1-2.19-1.1,5.16,5.16,0,0,1-.87-3.25,5.09,5.09,0,0,1,.87-3.24,2.73,2.73,0,0,1,2.24-1.09,2.55,2.55,0,0,1,1.78.66,3.2,3.2,0,0,1,.92,2l-1.11.2a2.39,2.39,0,0,0-.57-1.25,1.32,1.32,0,0,0-1-.42,1.69,1.69,0,0,0-1.41.75,4.12,4.12,0,0,0-.56,2.4,4.29,4.29,0,0,0,.54,2.45,1.59,1.59,0,0,0,1.37.76,1.48,1.48,0,0,0,1.12-.5A2.74,2.74,0,0,0,587.47,43.61Z"/><path class="cls-4" d="M592.14,45.39l.16,1.24a3.21,3.21,0,0,1-.86.13,1.74,1.74,0,0,1-1-.24,1.26,1.26,0,0,1-.51-.65,6.54,6.54,0,0,1-.13-1.65V39.45H589v-1.1h.85V36.3l1.15-.85v2.9h1.16v1.1H591V44.3a2.2,2.2,0,0,0,.1.86.56.56,0,0,0,.55.29A2.86,2.86,0,0,0,592.14,45.39Z"/><path class="cls-4" d="M597.68,46.65V45.43a3,3,0,0,1-.94,1,2.13,2.13,0,0,1-1.22.36,2.2,2.2,0,0,1-1.37-.44,2,2,0,0,1-.76-1.1,6.66,6.66,0,0,1-.19-1.81V38.35h1.14V43a7.62,7.62,0,0,0,.13,1.72,1.32,1.32,0,0,0,.48.69,1.25,1.25,0,0,0,.79.26A1.65,1.65,0,0,0,597.1,45a3.73,3.73,0,0,0,.45-2.15V38.35h1.16v8.3Z"/><path class="cls-4" d="M600.52,46.65v-8.3h1v1.26a3.67,3.67,0,0,1,.73-1.16,1.12,1.12,0,0,1,.75-.29,2,2,0,0,1,1.18.46l-.39,1.3a1.49,1.49,0,0,0-.84-.3,1,1,0,0,0-.67.26,1.38,1.38,0,0,0-.43.71,6.79,6.79,0,0,0-.22,1.71v4.35Z"/><path class="cls-4" d="M609.54,44l1.19.18a3.62,3.62,0,0,1-1.08,2,2.83,2.83,0,0,1-1.92.68,2.86,2.86,0,0,1-2.34-1.1,4.89,4.89,0,0,1-.9-3.17,5.19,5.19,0,0,1,.9-3.28,2.84,2.84,0,0,1,2.29-1.13,2.71,2.71,0,0,1,2.2,1.11,5.05,5.05,0,0,1,.89,3.21v.38h-5.08a3.57,3.57,0,0,0,.65,2.11,1.75,1.75,0,0,0,1.4.71C608.6,45.68,609.2,45.11,609.54,44Zm-3.79-2.28h3.8a3.21,3.21,0,0,0-.46-1.61,1.69,1.69,0,0,0-1.42-.77,1.72,1.72,0,0,0-1.32.64A2.88,2.88,0,0,0,605.75,41.7Z"/><path class="cls-4" d="M612.52,46.65v-1.6h1.32v1.6a3.13,3.13,0,0,1-.28,1.46,1.85,1.85,0,0,1-.79.8l-.32-.6a1.2,1.2,0,0,0,.53-.56,2.72,2.72,0,0,0,.19-1.1Z"/><path class="cls-4" d="M563.3,278.61l1.14.18a3.79,3.79,0,0,1-1,2.26,2.58,2.58,0,0,1-1.89.79,2.7,2.7,0,0,1-2.2-1.1,5.23,5.23,0,0,1-.86-3.25,5.09,5.09,0,0,1,.87-3.24,2.73,2.73,0,0,1,2.24-1.09,2.52,2.52,0,0,1,1.77.66,3.21,3.21,0,0,1,.93,2l-1.12.2a2.39,2.39,0,0,0-.57-1.25,1.3,1.3,0,0,0-1-.42,1.69,1.69,0,0,0-1.41.75,4,4,0,0,0-.56,2.4,4.38,4.38,0,0,0,.53,2.45,1.62,1.62,0,0,0,1.37.76,1.47,1.47,0,0,0,1.12-.5A2.74,2.74,0,0,0,563.3,278.61Z"/><path class="cls-4" d="M565,277.5a5,5,0,0,1,.9-3.24,2.91,2.91,0,0,1,4.56,0,4.79,4.79,0,0,1,.91,3.15,5.17,5.17,0,0,1-.9,3.33,2.91,2.91,0,0,1-4.56,0A5,5,0,0,1,565,277.5Zm1.18,0a4,4,0,0,0,.58,2.39,1.75,1.75,0,0,0,1.46.79,1.69,1.69,0,0,0,1.39-.79,4,4,0,0,0,.58-2.39,4,4,0,0,0-.58-2.39,1.75,1.75,0,0,0-1.46-.79,1.7,1.7,0,0,0-1.4.79A4.09,4.09,0,0,0,566.16,277.5Z"/><path class="cls-4" d="M572.71,281.65v-8.3h1v1.17a2.7,2.7,0,0,1,.92-1,2.33,2.33,0,0,1,1.24-.34,2.44,2.44,0,0,1,1,.22,2.05,2.05,0,0,1,.75.56,2.21,2.21,0,0,1,.42.9,7.23,7.23,0,0,1,.14,1.71v5.1h-1.14v-5a4.28,4.28,0,0,0-.16-1.34,1.3,1.3,0,0,0-.49-.65,1.27,1.27,0,0,0-.77-.23,1.6,1.6,0,0,0-1.32.61,3.46,3.46,0,0,0-.49,2.12v4.54Z"/><path class="cls-4" d="M582.57,280.39l.16,1.24a3.21,3.21,0,0,1-.86.13,1.74,1.74,0,0,1-1-.24,1.26,1.26,0,0,1-.51-.65,6.54,6.54,0,0,1-.13-1.65v-4.77h-.85v-1.1h.85V271.3l1.15-.85v2.9h1.16v1.1h-1.16v4.85a2.2,2.2,0,0,0,.1.86.56.56,0,0,0,.55.29A2.86,2.86,0,0,0,582.57,280.39Z"/><path class="cls-4" d="M588.09,280.62a4.14,4.14,0,0,1-1.21.91,3,3,0,0,1-1.29.31,2.31,2.31,0,0,1-1.7-.64,2.37,2.37,0,0,1-.63-1.73,2.73,2.73,0,0,1,.29-1.27,2.22,2.22,0,0,1,.82-.87,4.2,4.2,0,0,1,1.56-.46,8.87,8.87,0,0,0,2.06-.49V276a1.85,1.85,0,0,0-.3-1.2,1.67,1.67,0,0,0-1.32-.5,1.88,1.88,0,0,0-1.21.33,2.21,2.21,0,0,0-.58,1.26l-1.14-.19a3.18,3.18,0,0,1,1-2,3.3,3.3,0,0,1,2.12-.61,3,3,0,0,1,1.68.41,1.75,1.75,0,0,1,.77,1,7.53,7.53,0,0,1,.16,1.74v1.87a24.27,24.27,0,0,0,.07,2.48,3.94,3.94,0,0,0,.29,1h-1.2A3.33,3.33,0,0,1,588.09,280.62Zm-.1-3.14a7.34,7.34,0,0,1-1.88.54,3.42,3.42,0,0,0-1,.28,1.21,1.21,0,0,0-.45.45,1.48,1.48,0,0,0-.16.68,1.28,1.28,0,0,0,.37.95,1.39,1.39,0,0,0,1,.35,2,2,0,0,0,1.12-.32,1.93,1.93,0,0,0,.75-.85A3.78,3.78,0,0,0,588,278Z"/><path class="cls-4" d="M591,271.81V270.2h1.15v1.61Zm0,9.84v-8.3h1.15v8.3Z"/><path class="cls-4" d="M593.87,281.65v-8.3h1v1.17a2.76,2.76,0,0,1,.91-1,2.36,2.36,0,0,1,1.25-.34,2.44,2.44,0,0,1,1,.22,2.05,2.05,0,0,1,.75.56,2.35,2.35,0,0,1,.42.9,7.81,7.81,0,0,1,.14,1.71v5.1h-1.15v-5a4.34,4.34,0,0,0-.15-1.34,1.36,1.36,0,0,0-.49-.65,1.27,1.27,0,0,0-.77-.23,1.6,1.6,0,0,0-1.32.61,3.46,3.46,0,0,0-.49,2.12v4.54Z"/><path class="cls-4" d="M605.81,279l1.19.18a3.67,3.67,0,0,1-1.07,2,2.84,2.84,0,0,1-1.93.68,2.89,2.89,0,0,1-2.34-1.1,4.89,4.89,0,0,1-.89-3.17,5.19,5.19,0,0,1,.9-3.28,2.8,2.8,0,0,1,2.28-1.13,2.72,2.72,0,0,1,2.21,1.11,5.05,5.05,0,0,1,.88,3.21v.38H602a3.64,3.64,0,0,0,.65,2.11,1.78,1.78,0,0,0,1.41.71C604.87,280.68,605.47,280.11,605.81,279ZM602,276.7h3.8a3.21,3.21,0,0,0-.46-1.61,1.68,1.68,0,0,0-1.41-.77,1.72,1.72,0,0,0-1.33.64A2.88,2.88,0,0,0,602,276.7Z"/><path class="cls-4" d="M608.46,281.65v-8.3h1v1.26a3.67,3.67,0,0,1,.73-1.16,1.12,1.12,0,0,1,.75-.29,2,2,0,0,1,1.18.46l-.39,1.3a1.49,1.49,0,0,0-.84-.3,1,1,0,0,0-.67.26,1.32,1.32,0,0,0-.43.71,6.36,6.36,0,0,0-.22,1.71v4.35Z"/><path class="cls-4" d="M616.48,271.81V270.2h1.14v1.61Zm0,9.84v-8.3h1.14v8.3Z"/><path class="cls-4" d="M619.39,281.65v-8.3h1v1.17a2.7,2.7,0,0,1,.92-1,2.33,2.33,0,0,1,1.24-.34,2.44,2.44,0,0,1,1,.22,2.05,2.05,0,0,1,.75.56,2.21,2.21,0,0,1,.42.9,7.23,7.23,0,0,1,.14,1.71v5.1h-1.14v-5a4.28,4.28,0,0,0-.16-1.34,1.36,1.36,0,0,0-.49-.65,1.27,1.27,0,0,0-.77-.23A1.6,1.6,0,0,0,621,275a3.46,3.46,0,0,0-.49,2.12v4.54Z"/><path class="cls-4" d="M634.79,278.61l1.13.18a3.79,3.79,0,0,1-1,2.26,2.55,2.55,0,0,1-1.89.79,2.66,2.66,0,0,1-2.19-1.1,5.16,5.16,0,0,1-.87-3.25,5.09,5.09,0,0,1,.87-3.24,2.73,2.73,0,0,1,2.24-1.09,2.55,2.55,0,0,1,1.78.66,3.2,3.2,0,0,1,.92,2l-1.11.2a2.39,2.39,0,0,0-.57-1.25,1.32,1.32,0,0,0-1-.42,1.69,1.69,0,0,0-1.41.75,4.12,4.12,0,0,0-.56,2.4,4.29,4.29,0,0,0,.54,2.45,1.59,1.59,0,0,0,1.37.76,1.48,1.48,0,0,0,1.12-.5A2.74,2.74,0,0,0,634.79,278.61Z"/><path class="cls-4" d="M636.46,277.5a5,5,0,0,1,.9-3.24,2.91,2.91,0,0,1,4.56,0,4.79,4.79,0,0,1,.92,3.15,5.17,5.17,0,0,1-.9,3.33,2.92,2.92,0,0,1-4.57,0A5,5,0,0,1,636.46,277.5Zm1.18,0a4,4,0,0,0,.59,2.39,1.74,1.74,0,0,0,1.45.79,1.67,1.67,0,0,0,1.39-.79,4,4,0,0,0,.59-2.39,4,4,0,0,0-.59-2.39,1.74,1.74,0,0,0-1.45-.79,1.68,1.68,0,0,0-1.4.79A4,4,0,0,0,637.64,277.5Z"/><path class="cls-4" d="M644.2,281.65v-8.3h1v1.17a2.78,2.78,0,0,1,.92-1,2.43,2.43,0,0,1,2.25-.12,2.05,2.05,0,0,1,.75.56,2.36,2.36,0,0,1,.43.9,7.81,7.81,0,0,1,.14,1.71v5.1h-1.15v-5a4,4,0,0,0-.16-1.34,1.27,1.27,0,0,0-1.25-.88,1.58,1.58,0,0,0-1.32.61,3.45,3.45,0,0,0-.5,2.12v4.54Z"/><path class="cls-4" d="M654.05,280.39l.16,1.24a3.15,3.15,0,0,1-.86.13,1.76,1.76,0,0,1-1-.24,1.24,1.24,0,0,1-.5-.65,6.39,6.39,0,0,1-.14-1.65v-4.77h-.84v-1.1h.84V271.3l1.15-.85v2.9h1.16v1.1h-1.16v4.85a2.2,2.2,0,0,0,.1.86.58.58,0,0,0,.56.29A2.67,2.67,0,0,0,654.05,280.39Z"/><path class="cls-4" d="M659.57,280.62a4.23,4.23,0,0,1-1.2.91,3,3,0,0,1-1.3.31,2.28,2.28,0,0,1-1.69-.64,2.34,2.34,0,0,1-.64-1.73,2.62,2.62,0,0,1,.3-1.27,2.27,2.27,0,0,1,.81-.87,4.33,4.33,0,0,1,1.56-.46,9,9,0,0,0,2.07-.49V276a1.85,1.85,0,0,0-.3-1.2,1.67,1.67,0,0,0-1.32-.5,1.83,1.83,0,0,0-1.2.33,2.21,2.21,0,0,0-.59,1.26l-1.13-.19a3.18,3.18,0,0,1,1-2,3.26,3.26,0,0,1,2.11-.61,3,3,0,0,1,1.68.41,1.71,1.71,0,0,1,.77,1,7,7,0,0,1,.16,1.74v1.87c0,1.31,0,2.14.07,2.48a3.6,3.6,0,0,0,.3,1H659.8A3.64,3.64,0,0,1,659.57,280.62Zm-.09-3.14a7.44,7.44,0,0,1-1.89.54,3.33,3.33,0,0,0-1,.28,1.21,1.21,0,0,0-.45.45,1.37,1.37,0,0,0-.16.68,1.24,1.24,0,0,0,.37.95,1.37,1.37,0,0,0,1,.35,2,2,0,0,0,1.12-.32,2,2,0,0,0,.76-.85,4,4,0,0,0,.25-1.56Z"/><path class="cls-4" d="M662.44,271.81V270.2h1.15v1.61Zm0,9.84v-8.3h1.15v8.3Z"/><path class="cls-4" d="M665.35,281.65v-8.3h1v1.17a2.78,2.78,0,0,1,.92-1,2.33,2.33,0,0,1,1.24-.34,2.41,2.41,0,0,1,1,.22,2.05,2.05,0,0,1,.75.56,2.21,2.21,0,0,1,.42.9,7.11,7.11,0,0,1,.15,1.71v5.1h-1.15v-5a4.28,4.28,0,0,0-.16-1.34,1.3,1.3,0,0,0-.49-.65,1.27,1.27,0,0,0-.77-.23A1.6,1.6,0,0,0,667,275a3.46,3.46,0,0,0-.49,2.12v4.54Z"/><path class="cls-4" d="M677.3,279l1.18.18a3.55,3.55,0,0,1-1.07,2,2.84,2.84,0,0,1-1.93.68,2.89,2.89,0,0,1-2.34-1.1,5,5,0,0,1-.89-3.17,5.19,5.19,0,0,1,.9-3.28,2.82,2.82,0,0,1,2.29-1.13,2.71,2.71,0,0,1,2.2,1.11,5.05,5.05,0,0,1,.88,3.21v.38h-5.08a3.5,3.5,0,0,0,.65,2.11,1.75,1.75,0,0,0,1.4.71C676.36,280.68,677,280.11,677.3,279Zm-3.79-2.28h3.79a3.11,3.11,0,0,0-.46-1.61,1.68,1.68,0,0,0-2.73-.13A2.82,2.82,0,0,0,673.51,276.7Z"/><path class="cls-4" d="M680,281.65v-8.3h1v1.26a3.67,3.67,0,0,1,.73-1.16,1.14,1.14,0,0,1,.75-.29,2,2,0,0,1,1.18.46l-.39,1.3a1.49,1.49,0,0,0-.84-.3,1,1,0,0,0-.67.26,1.45,1.45,0,0,0-.43.71,6.79,6.79,0,0,0-.22,1.71v4.35Z"/><path class="cls-4" d="M558.85,288.81V287.2H560v1.61Zm0,9.84v-8.3H560v8.3Z"/><path class="cls-4" d="M561.77,298.65v-8.3h1v1.17a2.78,2.78,0,0,1,.92-1,2.43,2.43,0,0,1,2.25-.12,2.05,2.05,0,0,1,.75.56,2.36,2.36,0,0,1,.43.9,7.81,7.81,0,0,1,.14,1.71v5.1h-1.15v-5a4,4,0,0,0-.16-1.34,1.27,1.27,0,0,0-1.25-.88,1.58,1.58,0,0,0-1.32.61,3.45,3.45,0,0,0-.5,2.12v4.54Z"/><path class="cls-4" d="M577.16,295.61l1.14.18a3.79,3.79,0,0,1-1,2.26,2.58,2.58,0,0,1-1.89.79,2.7,2.7,0,0,1-2.2-1.1,5.23,5.23,0,0,1-.86-3.25,5.09,5.09,0,0,1,.87-3.24,2.73,2.73,0,0,1,2.24-1.09,2.52,2.52,0,0,1,1.77.66,3.21,3.21,0,0,1,.93,2l-1.12.2a2.39,2.39,0,0,0-.57-1.25,1.3,1.3,0,0,0-1-.42,1.69,1.69,0,0,0-1.41.75,4,4,0,0,0-.56,2.4,4.38,4.38,0,0,0,.53,2.45,1.62,1.62,0,0,0,1.37.76,1.48,1.48,0,0,0,1.12-.5A2.74,2.74,0,0,0,577.16,295.61Z"/><path class="cls-4" d="M578.84,294.5a5,5,0,0,1,.9-3.24,2.91,2.91,0,0,1,4.56,0,4.79,4.79,0,0,1,.91,3.15,5.17,5.17,0,0,1-.9,3.33,2.91,2.91,0,0,1-4.56,0A5,5,0,0,1,578.84,294.5Zm1.18,0a4,4,0,0,0,.58,2.39,1.75,1.75,0,0,0,1.45.79,1.69,1.69,0,0,0,1.4-.79,4,4,0,0,0,.58-2.39,4,4,0,0,0-.58-2.39,1.77,1.77,0,0,0-1.46-.79,1.7,1.7,0,0,0-1.4.79A4.09,4.09,0,0,0,580,294.5Z"/><path class="cls-4" d="M586.57,298.65v-8.3h1v1.17a2.7,2.7,0,0,1,.92-1,2.33,2.33,0,0,1,1.24-.34,2.44,2.44,0,0,1,1,.22,2.05,2.05,0,0,1,.75.56,2.21,2.21,0,0,1,.42.9,7.23,7.23,0,0,1,.14,1.71v5.1H591v-5a4.28,4.28,0,0,0-.16-1.34,1.36,1.36,0,0,0-.49-.65,1.27,1.27,0,0,0-.77-.23,1.6,1.6,0,0,0-1.32.61,3.46,3.46,0,0,0-.49,2.12v4.54Z"/><path class="cls-4" d="M596.43,297.39l.16,1.24a3.21,3.21,0,0,1-.86.13,1.74,1.74,0,0,1-1-.24,1.21,1.21,0,0,1-.51-.65,6.54,6.54,0,0,1-.13-1.65v-4.77h-.85v-1.1h.85V288.3l1.15-.85v2.9h1.16v1.1h-1.16v4.85a2.2,2.2,0,0,0,.1.86.56.56,0,0,0,.55.29A2.86,2.86,0,0,0,596.43,297.39Z"/><path class="cls-4" d="M602,297.62a4.14,4.14,0,0,1-1.21.91,3,3,0,0,1-1.29.31,2.31,2.31,0,0,1-1.7-.64,2.37,2.37,0,0,1-.63-1.73,2.73,2.73,0,0,1,.29-1.27,2.22,2.22,0,0,1,.82-.87,4.2,4.2,0,0,1,1.56-.46,8.87,8.87,0,0,0,2.06-.49V293a1.78,1.78,0,0,0-.31-1.2,1.64,1.64,0,0,0-1.32-.5,1.87,1.87,0,0,0-1.2.33,2.21,2.21,0,0,0-.58,1.26l-1.14-.19a3.18,3.18,0,0,1,1-2,3.3,3.3,0,0,1,2.12-.61,3,3,0,0,1,1.68.41,1.75,1.75,0,0,1,.77,1,7.53,7.53,0,0,1,.16,1.74v1.87a24.27,24.27,0,0,0,.07,2.48,3.94,3.94,0,0,0,.29,1h-1.2A3.33,3.33,0,0,1,602,297.62Zm-.1-3.14A7.34,7.34,0,0,1,600,295a3.42,3.42,0,0,0-1,.28,1.21,1.21,0,0,0-.45.45,1.48,1.48,0,0,0-.16.68,1.28,1.28,0,0,0,.37.95,1.39,1.39,0,0,0,1,.35,2,2,0,0,0,1.87-1.17,3.78,3.78,0,0,0,.25-1.56Z"/><path class="cls-4" d="M604.81,288.81V287.2H606v1.61Zm0,9.84v-8.3H606v8.3Z"/><path class="cls-4" d="M607.73,298.65v-8.3h1v1.17a2.76,2.76,0,0,1,.91-1,2.36,2.36,0,0,1,1.25-.34,2.44,2.44,0,0,1,1,.22,1.94,1.94,0,0,1,.74.56,2.22,2.22,0,0,1,.43.9,7.81,7.81,0,0,1,.14,1.71v5.1H612.1v-5a4.34,4.34,0,0,0-.15-1.34,1.36,1.36,0,0,0-.49-.65,1.27,1.27,0,0,0-.77-.23,1.6,1.6,0,0,0-1.32.61,3.46,3.46,0,0,0-.49,2.12v4.54Z"/><path class="cls-4" d="M619.67,296l1.19.18a3.67,3.67,0,0,1-1.07,2,2.86,2.86,0,0,1-1.93.68,2.89,2.89,0,0,1-2.34-1.1,4.89,4.89,0,0,1-.9-3.17,5.19,5.19,0,0,1,.91-3.28,2.8,2.8,0,0,1,2.28-1.13,2.72,2.72,0,0,1,2.21,1.11,5.11,5.11,0,0,1,.88,3.21v.38h-5.08a3.64,3.64,0,0,0,.65,2.11,1.78,1.78,0,0,0,1.41.71C618.73,297.68,619.33,297.11,619.67,296Zm-3.79-2.28h3.8a3.21,3.21,0,0,0-.46-1.61,1.69,1.69,0,0,0-1.42-.77,1.72,1.72,0,0,0-1.32.64A2.88,2.88,0,0,0,615.88,293.7Z"/><path class="cls-4" d="M622.32,298.65v-8.3h1v1.26a3.5,3.5,0,0,1,.73-1.16,1.12,1.12,0,0,1,.75-.29,2,2,0,0,1,1.18.46l-.4,1.3a1.43,1.43,0,0,0-.83-.3,1,1,0,0,0-.67.26,1.32,1.32,0,0,0-.43.71,6.36,6.36,0,0,0-.22,1.71v4.35Z"/><path class="cls-4" d="M626.34,298.65v-1.6h1.32v1.6Z"/><path class="cls-4" d="M559,533.65V522.2h1.86l2.23,8.1.45,1.7c.11-.42.28-1,.5-1.84l2.25-8H568v11.45h-1.2v-9.58L564,533.65h-1.12l-2.72-9.74v9.74Z"/><path class="cls-4" d="M574.43,531l1.19.18a3.62,3.62,0,0,1-1.08,2,2.83,2.83,0,0,1-1.92.68,2.86,2.86,0,0,1-2.34-1.1,4.89,4.89,0,0,1-.9-3.17,5.13,5.13,0,0,1,.91-3.28,2.8,2.8,0,0,1,2.28-1.13,2.71,2.71,0,0,1,2.2,1.11,5.05,5.05,0,0,1,.89,3.21v.38h-5.08a3.57,3.57,0,0,0,.65,2.11,1.75,1.75,0,0,0,1.4.71C573.49,532.68,574.09,532.11,574.43,531Zm-3.79-2.28h3.8a3.21,3.21,0,0,0-.46-1.61,1.69,1.69,0,0,0-1.42-.77,1.72,1.72,0,0,0-1.32.64A2.88,2.88,0,0,0,570.64,528.7Z"/><path class="cls-4" d="M577.08,533.65v-8.3h1v1.17a2.76,2.76,0,0,1,.91-1,2.36,2.36,0,0,1,1.25-.34,2.44,2.44,0,0,1,1,.22,2.05,2.05,0,0,1,.75.56,2.21,2.21,0,0,1,.42.9,7.81,7.81,0,0,1,.14,1.71v5.1h-1.15v-5a4.34,4.34,0,0,0-.15-1.34,1.36,1.36,0,0,0-.49-.65,1.27,1.27,0,0,0-.77-.23,1.6,1.6,0,0,0-1.32.61,3.46,3.46,0,0,0-.49,2.12v4.54Z"/><path class="cls-4" d="M586.94,532.39l.15,1.24a3.1,3.1,0,0,1-.86.13,1.71,1.71,0,0,1-1-.24,1.21,1.21,0,0,1-.51-.65,6.39,6.39,0,0,1-.14-1.65v-4.77h-.84v-1.1h.84V523.3l1.15-.85v2.9h1.17v1.1h-1.17v4.85a2.14,2.14,0,0,0,.11.86.56.56,0,0,0,.55.29A2.86,2.86,0,0,0,586.94,532.39Z"/><path class="cls-4" d="M592.45,532.62a4,4,0,0,1-1.2.91,3,3,0,0,1-1.3.31,2.3,2.3,0,0,1-1.69-.64,2.38,2.38,0,0,1-.64-1.73,2.62,2.62,0,0,1,.3-1.27,2.27,2.27,0,0,1,.81-.87,4.33,4.33,0,0,1,1.57-.46,9,9,0,0,0,2.06-.49V528a1.78,1.78,0,0,0-.31-1.2,1.64,1.64,0,0,0-1.32-.5,1.85,1.85,0,0,0-1.2.33,2.21,2.21,0,0,0-.59,1.26l-1.13-.19a3.18,3.18,0,0,1,1-2,3.27,3.27,0,0,1,2.11-.61,3,3,0,0,1,1.68.41,1.67,1.67,0,0,1,.77,1,7,7,0,0,1,.16,1.74v1.87a23.12,23.12,0,0,0,.08,2.48,3.94,3.94,0,0,0,.29,1h-1.2A3.63,3.63,0,0,1,592.45,532.62Zm-.09-3.14a7.34,7.34,0,0,1-1.88.54,3.33,3.33,0,0,0-1,.28,1.21,1.21,0,0,0-.45.45,1.48,1.48,0,0,0-.16.68,1.24,1.24,0,0,0,.37,1,1.37,1.37,0,0,0,1,.35,2,2,0,0,0,1.88-1.17,3.78,3.78,0,0,0,.25-1.56Z"/><path class="cls-4" d="M595.28,533.65V522.2h1.15v11.45Z"/><path class="cls-4" d="M606.34,530.61l1.13.18a3.79,3.79,0,0,1-1,2.26,2.56,2.56,0,0,1-1.89.79,2.7,2.7,0,0,1-2.2-1.1,5.23,5.23,0,0,1-.86-3.25,5.09,5.09,0,0,1,.87-3.24,2.73,2.73,0,0,1,2.24-1.09,2.56,2.56,0,0,1,1.78.66,3.2,3.2,0,0,1,.92,2l-1.12.2a2.39,2.39,0,0,0-.57-1.25,1.3,1.3,0,0,0-1-.42,1.69,1.69,0,0,0-1.41.75,4.12,4.12,0,0,0-.56,2.4,4.38,4.38,0,0,0,.53,2.45,1.62,1.62,0,0,0,1.37.76,1.5,1.5,0,0,0,1.13-.5A2.81,2.81,0,0,0,606.34,530.61Z"/><path class="cls-4" d="M608,529.5a5,5,0,0,1,.9-3.24,2.91,2.91,0,0,1,4.56,0,4.79,4.79,0,0,1,.91,3.15,5.17,5.17,0,0,1-.9,3.33,2.91,2.91,0,0,1-4.56,0A5,5,0,0,1,608,529.5Zm1.18,0a4,4,0,0,0,.58,2.39,1.75,1.75,0,0,0,1.46.79,1.69,1.69,0,0,0,1.39-.79,4,4,0,0,0,.58-2.39,4,4,0,0,0-.58-2.39,1.75,1.75,0,0,0-1.46-.79,1.67,1.67,0,0,0-1.39.79A4,4,0,0,0,609.19,529.5Z"/><path class="cls-4" d="M615.74,533.65v-8.3h1v1.17a2.78,2.78,0,0,1,.92-1,2.33,2.33,0,0,1,1.24-.34,2.41,2.41,0,0,1,1,.22,2.05,2.05,0,0,1,.75.56,2.21,2.21,0,0,1,.42.9,7.11,7.11,0,0,1,.15,1.71v5.1h-1.15v-5a4,4,0,0,0-.16-1.34,1.3,1.3,0,0,0-.49-.65,1.25,1.25,0,0,0-.77-.23,1.6,1.6,0,0,0-1.32.61,3.46,3.46,0,0,0-.49,2.12v4.54Z"/><path class="cls-4" d="M625.6,532.39l.16,1.24a3.21,3.21,0,0,1-.86.13,1.74,1.74,0,0,1-1-.24,1.19,1.19,0,0,1-.5-.65,6,6,0,0,1-.14-1.65v-4.77h-.84v-1.1h.84V523.3l1.15-.85v2.9h1.16v1.1h-1.16v4.85a2.2,2.2,0,0,0,.1.86.56.56,0,0,0,.55.29A2.86,2.86,0,0,0,625.6,532.39Z"/><path class="cls-4" d="M631.12,532.62a4.14,4.14,0,0,1-1.21.91,2.92,2.92,0,0,1-1.29.31,2.31,2.31,0,0,1-1.7-.64,2.37,2.37,0,0,1-.63-1.73,2.62,2.62,0,0,1,.3-1.27,2.13,2.13,0,0,1,.81-.87,4.2,4.2,0,0,1,1.56-.46,8.74,8.74,0,0,0,2.06-.49V528a1.85,1.85,0,0,0-.3-1.2,1.67,1.67,0,0,0-1.32-.5,1.88,1.88,0,0,0-1.21.33,2.21,2.21,0,0,0-.58,1.26l-1.14-.19a3.23,3.23,0,0,1,1-2,3.3,3.3,0,0,1,2.12-.61,3,3,0,0,1,1.68.41,1.75,1.75,0,0,1,.77,1,7.53,7.53,0,0,1,.16,1.74v1.87a24.27,24.27,0,0,0,.07,2.48,3.94,3.94,0,0,0,.29,1h-1.2A3.33,3.33,0,0,1,631.12,532.62Zm-.1-3.14a7.34,7.34,0,0,1-1.88.54,3.51,3.51,0,0,0-1,.28,1.12,1.12,0,0,0-.44.45,1.37,1.37,0,0,0-.16.68,1.27,1.27,0,0,0,.36,1,1.41,1.41,0,0,0,1,.35,2,2,0,0,0,1.12-.32,1.87,1.87,0,0,0,.75-.85A3.78,3.78,0,0,0,631,530Z"/><path class="cls-4" d="M634,523.81V522.2h1.15v1.61Zm0,9.84v-8.3h1.15v8.3Z"/><path class="cls-4" d="M636.9,533.65v-8.3h1v1.17a2.76,2.76,0,0,1,.91-1,2.36,2.36,0,0,1,1.25-.34,2.44,2.44,0,0,1,1,.22,2.05,2.05,0,0,1,.75.56,2.21,2.21,0,0,1,.42.9,7.23,7.23,0,0,1,.14,1.71v5.1h-1.15v-5a4.34,4.34,0,0,0-.15-1.34,1.36,1.36,0,0,0-.49-.65,1.27,1.27,0,0,0-.77-.23,1.6,1.6,0,0,0-1.32.61,3.46,3.46,0,0,0-.49,2.12v4.54Z"/><path class="cls-4" d="M648.84,531l1.19.18a3.61,3.61,0,0,1-1.07,2,2.84,2.84,0,0,1-1.93.68,2.89,2.89,0,0,1-2.34-1.1,4.89,4.89,0,0,1-.89-3.17,5.19,5.19,0,0,1,.9-3.28,2.8,2.8,0,0,1,2.28-1.13,2.72,2.72,0,0,1,2.21,1.11,5.05,5.05,0,0,1,.88,3.21v.38H645a3.64,3.64,0,0,0,.65,2.11,1.78,1.78,0,0,0,1.41.71C647.9,532.68,648.5,532.11,648.84,531Zm-3.79-2.28h3.8a3.11,3.11,0,0,0-.46-1.61,1.68,1.68,0,0,0-2.73-.13A2.82,2.82,0,0,0,645.05,528.7Z"/><path class="cls-4" d="M651.49,533.65v-8.3h1v1.26a3.67,3.67,0,0,1,.73-1.16,1.12,1.12,0,0,1,.75-.29,2,2,0,0,1,1.18.46l-.39,1.3a1.49,1.49,0,0,0-.84-.3,1,1,0,0,0-.67.26,1.38,1.38,0,0,0-.43.71,6.36,6.36,0,0,0-.22,1.71v4.35Z"/><path class="cls-4" d="M655.51,533.65v-1.6h1.31v1.6a3.28,3.28,0,0,1-.27,1.46,1.87,1.87,0,0,1-.8.8l-.32-.6a1.2,1.2,0,0,0,.53-.56,2.87,2.87,0,0,0,.2-1.1Z"/><path class="cls-4" d="M743.3,530.61l1.14.18a3.79,3.79,0,0,1-1,2.26,2.58,2.58,0,0,1-1.89.79,2.7,2.7,0,0,1-2.2-1.1,5.23,5.23,0,0,1-.86-3.25,5.09,5.09,0,0,1,.87-3.24,2.73,2.73,0,0,1,2.24-1.09,2.52,2.52,0,0,1,1.77.66,3.21,3.21,0,0,1,.93,2l-1.12.2a2.39,2.39,0,0,0-.57-1.25,1.3,1.3,0,0,0-1-.42,1.69,1.69,0,0,0-1.41.75,4,4,0,0,0-.56,2.4,4.38,4.38,0,0,0,.53,2.45,1.62,1.62,0,0,0,1.37.76,1.47,1.47,0,0,0,1.12-.5A2.74,2.74,0,0,0,743.3,530.61Z"/><path class="cls-4" d="M745,529.5a5,5,0,0,1,.9-3.24,2.91,2.91,0,0,1,4.56,0,4.79,4.79,0,0,1,.91,3.15,5.17,5.17,0,0,1-.9,3.33,2.91,2.91,0,0,1-4.56,0A5,5,0,0,1,745,529.5Zm1.18,0a4,4,0,0,0,.58,2.39,1.75,1.75,0,0,0,1.46.79,1.69,1.69,0,0,0,1.39-.79,4,4,0,0,0,.58-2.39,4,4,0,0,0-.58-2.39,1.75,1.75,0,0,0-1.46-.79,1.7,1.7,0,0,0-1.4.79A4.09,4.09,0,0,0,746.16,529.5Z"/><path class="cls-4" d="M752.71,533.65v-8.3h1v1.17a2.7,2.7,0,0,1,.92-1,2.33,2.33,0,0,1,1.24-.34,2.44,2.44,0,0,1,1,.22,2.05,2.05,0,0,1,.75.56,2.21,2.21,0,0,1,.42.9,7.23,7.23,0,0,1,.14,1.71v5.1h-1.14v-5a4.28,4.28,0,0,0-.16-1.34,1.3,1.3,0,0,0-.49-.65,1.27,1.27,0,0,0-.77-.23,1.6,1.6,0,0,0-1.32.61,3.46,3.46,0,0,0-.49,2.12v4.54Z"/><path class="cls-4" d="M764.46,530.61l1.13.18a3.73,3.73,0,0,1-1,2.26,2.54,2.54,0,0,1-1.88.79,2.68,2.68,0,0,1-2.2-1.1,5.16,5.16,0,0,1-.87-3.25,5,5,0,0,1,.88-3.24,2.71,2.71,0,0,1,2.23-1.09,2.53,2.53,0,0,1,1.78.66,3.26,3.26,0,0,1,.93,2l-1.12.2a2.39,2.39,0,0,0-.57-1.25,1.32,1.32,0,0,0-1-.42,1.7,1.7,0,0,0-1.41.75,4.12,4.12,0,0,0-.56,2.4,4.29,4.29,0,0,0,.54,2.45,1.61,1.61,0,0,0,1.37.76,1.48,1.48,0,0,0,1.12-.5A2.74,2.74,0,0,0,764.46,530.61Z"/><path class="cls-4" d="M771.22,531l1.19.18a3.62,3.62,0,0,1-1.08,2,2.83,2.83,0,0,1-1.92.68,2.86,2.86,0,0,1-2.34-1.1,4.89,4.89,0,0,1-.9-3.17,5.19,5.19,0,0,1,.9-3.28,2.84,2.84,0,0,1,2.29-1.13,2.71,2.71,0,0,1,2.2,1.11,5.05,5.05,0,0,1,.89,3.21v.38h-5.08A3.57,3.57,0,0,0,768,532a1.75,1.75,0,0,0,1.4.71C770.28,532.68,770.88,532.11,771.22,531Zm-3.79-2.28h3.8a3.32,3.32,0,0,0-.46-1.61A1.69,1.69,0,0,0,768,527,2.88,2.88,0,0,0,767.43,528.7Z"/><path class="cls-4" d="M773.87,536.83V525.35h1.06v1.08a2.77,2.77,0,0,1,.86-1,2,2,0,0,1,1.1-.3,2.38,2.38,0,0,1,1.45.48,3.26,3.26,0,0,1,1,1.45,6.3,6.3,0,0,1,.39,2.34,5.23,5.23,0,0,1-.88,3.26,2.61,2.61,0,0,1-2.09,1.15,1.86,1.86,0,0,1-1-.28,2.41,2.41,0,0,1-.79-.77v4Zm1-7.28a4.16,4.16,0,0,0,.53,2.37,1.47,1.47,0,0,0,2.59,0,4.3,4.3,0,0,0,.55-2.44,4.35,4.35,0,0,0-.53-2.4,1.43,1.43,0,0,0-2.58.06A4.42,4.42,0,0,0,774.92,529.55Z"/><path class="cls-4" d="M783.73,532.39l.15,1.24a3.1,3.1,0,0,1-.86.13,1.76,1.76,0,0,1-1-.24,1.24,1.24,0,0,1-.5-.65,6.39,6.39,0,0,1-.14-1.65v-4.77h-.84v-1.1h.84V523.3l1.15-.85v2.9h1.17v1.1h-1.17v4.85a2.42,2.42,0,0,0,.1.86.58.58,0,0,0,.56.29A2.86,2.86,0,0,0,783.73,532.39Z"/><path class="cls-4" d="M789.27,533.65v-1.22a3,3,0,0,1-.94,1.05,2.16,2.16,0,0,1-1.22.36,2.21,2.21,0,0,1-1.38-.44,2.06,2.06,0,0,1-.76-1.1,6.66,6.66,0,0,1-.19-1.81v-5.14h1.15V530a7.06,7.06,0,0,0,.13,1.72,1.22,1.22,0,0,0,.48.69,1.23,1.23,0,0,0,.79.26,1.66,1.66,0,0,0,1.36-.67,3.73,3.73,0,0,0,.45-2.15v-4.45h1.16v8.3Z"/><path class="cls-4" d="M796.54,532.62a4.23,4.23,0,0,1-1.2.91,3,3,0,0,1-1.3.31,2.32,2.32,0,0,1-1.7-.64,2.37,2.37,0,0,1-.63-1.73,2.62,2.62,0,0,1,.3-1.27,2.27,2.27,0,0,1,.81-.87,4.2,4.2,0,0,1,1.56-.46,9,9,0,0,0,2.07-.49V528a1.85,1.85,0,0,0-.3-1.2,1.67,1.67,0,0,0-1.32-.5,1.88,1.88,0,0,0-1.21.33,2.21,2.21,0,0,0-.58,1.26l-1.13-.19a3.13,3.13,0,0,1,1-2,3.26,3.26,0,0,1,2.11-.61,3,3,0,0,1,1.68.41,1.71,1.71,0,0,1,.77,1,7,7,0,0,1,.16,1.74v1.87a24.27,24.27,0,0,0,.07,2.48,3.6,3.6,0,0,0,.3,1h-1.21A3.64,3.64,0,0,1,796.54,532.62Zm-.09-3.14a7.44,7.44,0,0,1-1.89.54,3.33,3.33,0,0,0-1,.28,1.08,1.08,0,0,0-.45.45,1.37,1.37,0,0,0-.16.68,1.27,1.27,0,0,0,.36,1,1.41,1.41,0,0,0,1,.35,2,2,0,0,0,1.12-.32,2,2,0,0,0,.76-.85,4,4,0,0,0,.25-1.56Z"/><path class="cls-4" d="M799.37,533.65V522.2h1.15v11.45Z"/><path class="cls-4" d="M810.42,530.61l1.13.18a3.73,3.73,0,0,1-1,2.26,2.54,2.54,0,0,1-1.88.79,2.68,2.68,0,0,1-2.2-1.1,5.16,5.16,0,0,1-.87-3.25,5.09,5.09,0,0,1,.88-3.24,2.71,2.71,0,0,1,2.23-1.09,2.53,2.53,0,0,1,1.78.66,3.26,3.26,0,0,1,.93,2l-1.12.2a2.39,2.39,0,0,0-.57-1.25,1.32,1.32,0,0,0-1-.42,1.71,1.71,0,0,0-1.41.75,4.12,4.12,0,0,0-.56,2.4,4.29,4.29,0,0,0,.54,2.45,1.61,1.61,0,0,0,1.37.76,1.48,1.48,0,0,0,1.12-.5A2.74,2.74,0,0,0,810.42,530.61Z"/><path class="cls-4" d="M812.09,529.5a5,5,0,0,1,.91-3.24,2.9,2.9,0,0,1,4.55,0,4.79,4.79,0,0,1,.92,3.15,5.17,5.17,0,0,1-.9,3.33,2.92,2.92,0,0,1-4.57,0A5,5,0,0,1,812.09,529.5Zm1.18,0a4,4,0,0,0,.59,2.39,1.74,1.74,0,0,0,1.45.79,1.7,1.7,0,0,0,1.4-.79,4.11,4.11,0,0,0,.58-2.39,4,4,0,0,0-.59-2.39,1.74,1.74,0,0,0-1.45-.79,1.69,1.69,0,0,0-1.4.79A4.08,4.08,0,0,0,813.27,529.5Z"/><path class="cls-4" d="M819.83,533.65v-8.3h1v1.17a2.76,2.76,0,0,1,.91-1,2.36,2.36,0,0,1,1.25-.34,2.44,2.44,0,0,1,1,.22,2.05,2.05,0,0,1,.75.56,2.21,2.21,0,0,1,.42.9,7.81,7.81,0,0,1,.14,1.71v5.1H824.2v-5a4.34,4.34,0,0,0-.15-1.34,1.36,1.36,0,0,0-.49-.65,1.27,1.27,0,0,0-.77-.23,1.6,1.6,0,0,0-1.32.61,3.46,3.46,0,0,0-.49,2.12v4.54Z"/><path class="cls-4" d="M829.69,532.39l.15,1.24a3.1,3.1,0,0,1-.86.13,1.71,1.71,0,0,1-1-.24,1.21,1.21,0,0,1-.51-.65,6.54,6.54,0,0,1-.13-1.65v-4.77h-.85v-1.1h.85V523.3l1.14-.85v2.9h1.17v1.1h-1.17v4.85a2.42,2.42,0,0,0,.1.86.58.58,0,0,0,.56.29A2.86,2.86,0,0,0,829.69,532.39Z"/><path class="cls-4" d="M835.2,532.62a4,4,0,0,1-1.2.91,3,3,0,0,1-1.3.31,2.3,2.3,0,0,1-1.69-.64,2.37,2.37,0,0,1-.63-1.73,2.62,2.62,0,0,1,.29-1.27,2.27,2.27,0,0,1,.81-.87,4.33,4.33,0,0,1,1.57-.46,9,9,0,0,0,2.06-.49V528a1.78,1.78,0,0,0-.31-1.2,1.64,1.64,0,0,0-1.32-.5,1.85,1.85,0,0,0-1.2.33,2.21,2.21,0,0,0-.59,1.26l-1.13-.19a3.18,3.18,0,0,1,1-2,3.27,3.27,0,0,1,2.11-.61,3,3,0,0,1,1.68.41,1.67,1.67,0,0,1,.77,1,7,7,0,0,1,.16,1.74v1.87a23.12,23.12,0,0,0,.08,2.48,3.94,3.94,0,0,0,.29,1h-1.2A3.63,3.63,0,0,1,835.2,532.62Zm-.09-3.14a7.34,7.34,0,0,1-1.88.54,3.33,3.33,0,0,0-1,.28,1.21,1.21,0,0,0-.45.45,1.48,1.48,0,0,0-.16.68,1.24,1.24,0,0,0,.37,1,1.37,1.37,0,0,0,1,.35,2,2,0,0,0,1.88-1.17,3.78,3.78,0,0,0,.25-1.56Z"/><path class="cls-4" d="M838.07,523.81V522.2h1.15v1.61Zm0,9.84v-8.3h1.15v8.3Z"/><path class="cls-4" d="M841,533.65v-8.3h1v1.17a2.78,2.78,0,0,1,.92-1,2.35,2.35,0,0,1,1.24-.34,2.41,2.41,0,0,1,1,.22,2.05,2.05,0,0,1,.75.56,2.36,2.36,0,0,1,.43.9,7.81,7.81,0,0,1,.14,1.71v5.1h-1.15v-5a4,4,0,0,0-.16-1.34,1.3,1.3,0,0,0-1.25-.88,1.61,1.61,0,0,0-1.33.61,3.53,3.53,0,0,0-.49,2.12v4.54Z"/><path class="cls-4" d="M852.93,531l1.19.18a3.62,3.62,0,0,1-1.08,2,2.83,2.83,0,0,1-1.92.68,2.86,2.86,0,0,1-2.34-1.1,4.89,4.89,0,0,1-.9-3.17,5.13,5.13,0,0,1,.91-3.28,2.8,2.8,0,0,1,2.28-1.13,2.71,2.71,0,0,1,2.2,1.11,5.05,5.05,0,0,1,.89,3.21v.38h-5.08a3.57,3.57,0,0,0,.65,2.11,1.75,1.75,0,0,0,1.4.71C852,532.68,852.59,532.11,852.93,531Zm-3.79-2.28h3.8a3.21,3.21,0,0,0-.46-1.61,1.69,1.69,0,0,0-1.42-.77,1.72,1.72,0,0,0-1.32.64A2.88,2.88,0,0,0,849.14,528.7Z"/><path class="cls-4" d="M855.58,533.65v-8.3h1v1.26a3.5,3.5,0,0,1,.73-1.16,1.12,1.12,0,0,1,.74-.29,2,2,0,0,1,1.18.46l-.39,1.3a1.43,1.43,0,0,0-.83-.3,1,1,0,0,0-.67.26,1.32,1.32,0,0,0-.43.71,6.36,6.36,0,0,0-.22,1.71v4.35Z"/><path class="cls-4" d="M859.59,533.65v-1.6h1.32v1.6a3.27,3.27,0,0,1-.28,1.46,1.82,1.82,0,0,1-.8.8l-.32-.6a1.18,1.18,0,0,0,.54-.56,2.72,2.72,0,0,0,.19-1.1Z"/><path class="cls-4" d="M918.85,533.65v-8.3h1v1.17a2.78,2.78,0,0,1,.92-1,2.33,2.33,0,0,1,1.24-.34,2.41,2.41,0,0,1,1,.22,2.05,2.05,0,0,1,.75.56,2.21,2.21,0,0,1,.42.9,7.11,7.11,0,0,1,.15,1.71v5.1h-1.15v-5a4.28,4.28,0,0,0-.16-1.34,1.3,1.3,0,0,0-.49-.65,1.27,1.27,0,0,0-.77-.23,1.6,1.6,0,0,0-1.32.61,3.46,3.46,0,0,0-.49,2.12v4.54Z"/><path class="cls-4" d="M930.8,531l1.18.18a3.55,3.55,0,0,1-1.07,2,2.84,2.84,0,0,1-1.93.68,2.89,2.89,0,0,1-2.34-1.1,5,5,0,0,1-.89-3.17,5.19,5.19,0,0,1,.9-3.28,2.82,2.82,0,0,1,2.29-1.13,2.71,2.71,0,0,1,2.2,1.11,5.05,5.05,0,0,1,.88,3.21v.38h-5.08a3.5,3.5,0,0,0,.65,2.11,1.75,1.75,0,0,0,1.4.71C929.86,532.68,930.46,532.11,930.8,531ZM927,528.7h3.79a3.11,3.11,0,0,0-.46-1.61,1.68,1.68,0,0,0-2.73-.13A2.82,2.82,0,0,0,927,528.7Z"/><path class="cls-4" d="M935.35,533.65l-2.59-8.3H934l1.46,5c.17.56.31,1.12.44,1.67.1-.44.24-1,.42-1.58l1.52-5.06H939l-2.59,8.3Z"/><path class="cls-4" d="M944.66,531l1.18.18a3.55,3.55,0,0,1-1.07,2,2.84,2.84,0,0,1-1.93.68,2.89,2.89,0,0,1-2.34-1.1,5,5,0,0,1-.89-3.17,5.19,5.19,0,0,1,.9-3.28,2.82,2.82,0,0,1,2.29-1.13,2.71,2.71,0,0,1,2.2,1.11,5.05,5.05,0,0,1,.88,3.21v.38H940.8a3.5,3.5,0,0,0,.65,2.11,1.75,1.75,0,0,0,1.4.71C943.72,532.68,944.32,532.11,944.66,531Zm-3.79-2.28h3.79a3.11,3.11,0,0,0-.46-1.61,1.68,1.68,0,0,0-2.73-.13A2.76,2.76,0,0,0,940.87,528.7Z"/><path class="cls-4" d="M947.3,533.65v-8.3h1v1.26a3.67,3.67,0,0,1,.73-1.16,1.14,1.14,0,0,1,.75-.29,2,2,0,0,1,1.18.46l-.39,1.3a1.49,1.49,0,0,0-.84-.3,1,1,0,0,0-.67.26,1.38,1.38,0,0,0-.43.71,6.79,6.79,0,0,0-.22,1.71v4.35Z"/><path class="cls-4" d="M954.88,531.16,956,531a2.07,2.07,0,0,0,.56,1.3,1.65,1.65,0,0,0,1.2.43,1.62,1.62,0,0,0,1.15-.37,1.19,1.19,0,0,0,.41-.94.9.9,0,0,0-.35-.77,4.64,4.64,0,0,0-1.17-.47,8.5,8.5,0,0,1-1.8-.7,2,2,0,0,1-.7-.77,2.36,2.36,0,0,1-.25-1.11,2.31,2.31,0,0,1,.68-1.72,2.58,2.58,0,0,1,1.88-.67,2.93,2.93,0,0,1,1.33.28,2,2,0,0,1,.88.73,3.15,3.15,0,0,1,.43,1.32l-1.13.19a1.35,1.35,0,0,0-1.48-1.36,1.71,1.71,0,0,0-1.11.3.94.94,0,0,0-.37.77.87.87,0,0,0,.35.72,6.55,6.55,0,0,0,1.25.5,9.31,9.31,0,0,1,1.86.72,1.87,1.87,0,0,1,.65.74,2.38,2.38,0,0,1,.23,1.1,2.58,2.58,0,0,1-.75,1.93,2.82,2.82,0,0,1-2.06.74C956.08,533.84,955.14,533,954.88,531.16Z"/><path class="cls-4" d="M966.53,531l1.19.18a3.62,3.62,0,0,1-1.08,2,2.82,2.82,0,0,1-1.92.68,2.88,2.88,0,0,1-2.34-1.1,4.89,4.89,0,0,1-.9-3.17,5.19,5.19,0,0,1,.91-3.28,2.8,2.8,0,0,1,2.28-1.13,2.72,2.72,0,0,1,2.21,1.11,5.11,5.11,0,0,1,.88,3.21v.38h-5.08a3.57,3.57,0,0,0,.65,2.11,1.77,1.77,0,0,0,1.41.71C965.59,532.68,966.19,532.11,966.53,531Zm-3.79-2.28h3.8a3.21,3.21,0,0,0-.46-1.61,1.69,1.69,0,0,0-1.42-.77,1.72,1.72,0,0,0-1.32.64A2.88,2.88,0,0,0,962.74,528.7Z"/><path class="cls-4" d="M973.83,531l1.19.18a3.62,3.62,0,0,1-1.08,2,2.83,2.83,0,0,1-1.92.68,2.86,2.86,0,0,1-2.34-1.1,4.89,4.89,0,0,1-.9-3.17,5.19,5.19,0,0,1,.9-3.28,2.84,2.84,0,0,1,2.29-1.13,2.71,2.71,0,0,1,2.2,1.11,5.05,5.05,0,0,1,.88,3.21v.38H970a3.57,3.57,0,0,0,.65,2.11,1.75,1.75,0,0,0,1.4.71C972.89,532.68,973.49,532.11,973.83,531ZM970,528.7h3.8a3.32,3.32,0,0,0-.46-1.61,1.69,1.69,0,0,0-2.74-.13A2.88,2.88,0,0,0,970,528.7Z"/><path class="cls-4" d="M976.48,533.65v-8.3h1v1.17a2.76,2.76,0,0,1,.91-1,2.36,2.36,0,0,1,1.25-.34,2.44,2.44,0,0,1,1,.22,1.94,1.94,0,0,1,.74.56,2.22,2.22,0,0,1,.43.9,7.81,7.81,0,0,1,.14,1.71v5.1h-1.15v-5a4.34,4.34,0,0,0-.15-1.34,1.36,1.36,0,0,0-.49-.65,1.27,1.27,0,0,0-.77-.23,1.6,1.6,0,0,0-1.32.61,3.45,3.45,0,0,0-.5,2.12v4.54Z"/><path class="cls-4" d="M918.85,550.65v-8.3h1v1.17a2.78,2.78,0,0,1,.92-1,2.33,2.33,0,0,1,1.24-.34,2.41,2.41,0,0,1,1,.22,2.05,2.05,0,0,1,.75.56,2.21,2.21,0,0,1,.42.9,7.11,7.11,0,0,1,.15,1.71v5.1h-1.15v-5a4.28,4.28,0,0,0-.16-1.34,1.3,1.3,0,0,0-.49-.65,1.27,1.27,0,0,0-.77-.23,1.6,1.6,0,0,0-1.32.61,3.46,3.46,0,0,0-.49,2.12v4.54Z"/><path class="cls-4" d="M925.71,546.5a5,5,0,0,1,.9-3.24,2.91,2.91,0,0,1,4.56,0,4.79,4.79,0,0,1,.92,3.15,5.17,5.17,0,0,1-.9,3.33,2.92,2.92,0,0,1-4.57,0A5,5,0,0,1,925.71,546.5Zm1.18,0a4,4,0,0,0,.59,2.39,1.74,1.74,0,0,0,1.45.79,1.67,1.67,0,0,0,1.39-.79,4,4,0,0,0,.59-2.39,4,4,0,0,0-.59-2.39,1.74,1.74,0,0,0-1.45-.79,1.68,1.68,0,0,0-1.4.79A4,4,0,0,0,926.89,546.5Z"/><path class="cls-4" d="M933.45,550.65v-8.3h1v1.26a3.67,3.67,0,0,1,.73-1.16,1.14,1.14,0,0,1,.75-.29,2,2,0,0,1,1.18.46l-.39,1.3a1.49,1.49,0,0,0-.84-.3,1,1,0,0,0-.67.26,1.45,1.45,0,0,0-.43.71,6.79,6.79,0,0,0-.22,1.71v4.35Z"/><path class="cls-4" d="M941.46,550.65V539.2h1.15v4.1a2.82,2.82,0,0,1,.92-.85,2.29,2.29,0,0,1,1.13-.29,2.17,2.17,0,0,1,1.71.7,3.8,3.8,0,0,1,.63,2.53v5.26h-1.15v-5.26a2.52,2.52,0,0,0-.38-1.55,1.3,1.3,0,0,0-1.06-.46,1.62,1.62,0,0,0-1.27.6,3.28,3.28,0,0,0-.53,2.13v4.54Z"/><path class="cls-4" d="M953.41,548l1.18.18a3.55,3.55,0,0,1-1.07,2,2.84,2.84,0,0,1-1.93.68,2.89,2.89,0,0,1-2.34-1.1,5,5,0,0,1-.89-3.17,5.19,5.19,0,0,1,.9-3.28,2.81,2.81,0,0,1,2.29-1.13,2.71,2.71,0,0,1,2.2,1.11,5.05,5.05,0,0,1,.88,3.21v.38h-5.07a3.5,3.5,0,0,0,.65,2.11,1.75,1.75,0,0,0,1.4.71C952.47,549.68,953.07,549.11,953.41,548Zm-3.79-2.28h3.79a3.11,3.11,0,0,0-.46-1.61,1.68,1.68,0,0,0-2.73-.13A2.76,2.76,0,0,0,949.62,545.7Z"/><path class="cls-4" d="M960.48,549.62a4,4,0,0,1-1.2.91,3,3,0,0,1-1.3.31,2.3,2.3,0,0,1-1.69-.64,2.37,2.37,0,0,1-.63-1.73,2.62,2.62,0,0,1,.29-1.27,2.22,2.22,0,0,1,.82-.87,4.2,4.2,0,0,1,1.56-.46,8.87,8.87,0,0,0,2.06-.49V545a1.78,1.78,0,0,0-.31-1.2,1.64,1.64,0,0,0-1.32-.5,1.87,1.87,0,0,0-1.2.33,2.21,2.21,0,0,0-.59,1.26l-1.13-.19a3.18,3.18,0,0,1,1-2,3.29,3.29,0,0,1,2.12-.61,3,3,0,0,1,1.67.41,1.67,1.67,0,0,1,.77,1,7,7,0,0,1,.16,1.74v1.87a23.12,23.12,0,0,0,.08,2.48,3.94,3.94,0,0,0,.29,1h-1.2A3.63,3.63,0,0,1,960.48,549.62Zm-.09-3.14a7.34,7.34,0,0,1-1.88.54,3.33,3.33,0,0,0-1,.28,1.21,1.21,0,0,0-.45.45,1.48,1.48,0,0,0-.16.68,1.24,1.24,0,0,0,.37,1,1.39,1.39,0,0,0,1,.35,2,2,0,0,0,1.87-1.17,3.78,3.78,0,0,0,.25-1.56Z"/><path class="cls-4" d="M963.35,550.65v-8.3h1v1.26a3.67,3.67,0,0,1,.73-1.16,1.12,1.12,0,0,1,.75-.29,2,2,0,0,1,1.18.46l-.39,1.3a1.49,1.49,0,0,0-.84-.3,1,1,0,0,0-.67.26,1.38,1.38,0,0,0-.43.71,6.36,6.36,0,0,0-.22,1.71v4.35Z"/><path class="cls-4" d="M972.12,550.65v-1a2.26,2.26,0,0,1-.8.92,1.94,1.94,0,0,1-1.06.32,2.57,2.57,0,0,1-2.08-1.14,5.1,5.1,0,0,1-.88-3.2,6.56,6.56,0,0,1,.39-2.4,3.22,3.22,0,0,1,1-1.46,2.35,2.35,0,0,1,1.44-.48,2,2,0,0,1,1.06.3,2.51,2.51,0,0,1,.81.84v-4.1h1.16v11.45Zm-3.64-4.14a4.07,4.07,0,0,0,.56,2.39,1.58,1.58,0,0,0,1.3.78,1.55,1.55,0,0,0,1.27-.75,3.9,3.9,0,0,0,.54-2.27,4.66,4.66,0,0,0-.54-2.54,1.6,1.6,0,0,0-1.36-.8,1.52,1.52,0,0,0-1.25.77A4.37,4.37,0,0,0,968.48,546.51Z"/><path class="cls-4" d="M918.85,567.65v-8.3h1v1.17a2.78,2.78,0,0,1,.92-1,2.33,2.33,0,0,1,1.24-.34,2.41,2.41,0,0,1,1,.22,2.05,2.05,0,0,1,.75.56,2.21,2.21,0,0,1,.42.9,7.11,7.11,0,0,1,.15,1.71v5.1h-1.15v-5a4.28,4.28,0,0,0-.16-1.34,1.3,1.3,0,0,0-.49-.65,1.27,1.27,0,0,0-.77-.23,1.6,1.6,0,0,0-1.32.61,3.46,3.46,0,0,0-.49,2.12v4.54Z"/><path class="cls-4" d="M925.71,563.5a5,5,0,0,1,.9-3.24,2.91,2.91,0,0,1,4.56,0,4.79,4.79,0,0,1,.92,3.15,5.17,5.17,0,0,1-.9,3.33,2.92,2.92,0,0,1-4.57,0A5,5,0,0,1,925.71,563.5Zm1.18,0a4,4,0,0,0,.59,2.39,1.74,1.74,0,0,0,1.45.79,1.67,1.67,0,0,0,1.39-.79,4,4,0,0,0,.59-2.39,4,4,0,0,0-.59-2.39,1.74,1.74,0,0,0-1.45-.79,1.68,1.68,0,0,0-1.4.79A4,4,0,0,0,926.89,563.5Z"/><path class="cls-4" d="M933.45,567.65v-8.3h1v1.26a3.67,3.67,0,0,1,.73-1.16,1.14,1.14,0,0,1,.75-.29,2,2,0,0,1,1.18.46l-.39,1.3a1.49,1.49,0,0,0-.84-.3,1,1,0,0,0-.67.26,1.45,1.45,0,0,0-.43.71,6.79,6.79,0,0,0-.22,1.71v4.35Z"/><path class="cls-4" d="M941.78,567.65v-7.2h-1v-1.1h1v-.88A4.2,4.2,0,0,1,942,557a1.58,1.58,0,0,1,.63-.74,2,2,0,0,1,1-.26,4.37,4.37,0,0,1,1.08.15l-.17,1.22a3.39,3.39,0,0,0-.68-.08.92.92,0,0,0-.74.27,1.69,1.69,0,0,0-.22,1v.76h1.33v1.1h-1.33v7.2Z"/><path class="cls-4" d="M949.76,565l1.19.18a3.62,3.62,0,0,1-1.08,2,2.83,2.83,0,0,1-1.92.68,2.86,2.86,0,0,1-2.34-1.1,4.89,4.89,0,0,1-.9-3.17,5.19,5.19,0,0,1,.9-3.28,2.82,2.82,0,0,1,2.29-1.13,2.71,2.71,0,0,1,2.2,1.11,5.05,5.05,0,0,1,.88,3.21v.38H945.9a3.57,3.57,0,0,0,.65,2.11,1.75,1.75,0,0,0,1.4.71C948.82,566.68,949.42,566.11,949.76,565ZM946,562.7h3.8a3.2,3.2,0,0,0-.47-1.61,1.68,1.68,0,0,0-2.73-.13A2.82,2.82,0,0,0,946,562.7Z"/><path class="cls-4" d="M952.37,567.65V556.2h1.15v11.45Z"/><path class="cls-4" d="M957.88,566.39l.16,1.24a3.21,3.21,0,0,1-.86.13,1.76,1.76,0,0,1-1-.24,1.24,1.24,0,0,1-.5-.65,6.39,6.39,0,0,1-.14-1.65v-4.77h-.84v-1.1h.84V557.3l1.15-.85v2.9h1.16v1.1h-1.16v4.85a2.2,2.2,0,0,0,.1.86.57.57,0,0,0,.56.29A2.86,2.86,0,0,0,957.88,566.39Z"/><path class="cls-4" d="M959.33,567.65v-1.6h1.31v1.6Z"/><path class="cls-4" d="M922.87,281.65h-1.16v-9a5.74,5.74,0,0,1-1.07.95,6.55,6.55,0,0,1-1.23.74V273a7.25,7.25,0,0,0,1.68-1.33,5.11,5.11,0,0,0,1-1.54h.75Z"/><path class="cls-4" d="M931.9,280.3v1.35h-6.21a3.88,3.88,0,0,1,.49-1.84,10.18,10.18,0,0,1,1.91-2.4,13.49,13.49,0,0,0,2.11-2.49,3.28,3.28,0,0,0,.5-1.64,2,2,0,0,0-.51-1.42,1.73,1.73,0,0,0-2.58,0,2.57,2.57,0,0,0-.52,1.71l-1.18-.15a3.85,3.85,0,0,1,.93-2.48,2.85,2.85,0,0,1,2.13-.83,2.54,2.54,0,0,1,2.17,1,3.48,3.48,0,0,1,.74,2.2,4.11,4.11,0,0,1-.58,2.1,15.13,15.13,0,0,1-2.19,2.67c-.69.71-1.13,1.19-1.33,1.44a4.12,4.12,0,0,0-.49.77Z"/><path class="cls-4" d="M937.46,281.65H936.3v-9a5.74,5.74,0,0,1-1.07.95,6,6,0,0,1-1.23.74V273a6.85,6.85,0,0,0,1.68-1.33,5.11,5.11,0,0,0,1-1.54h.75Z"/><g class="cls-2"><path class="cls-3" d="M333,279s-15.46.12-26.63,0-11.17,0-11.17,0c-7.2-.18-55.8-.18-55.8-.18s-48.72-.12-54-.12-57.6-.13-57.6-.13L66.6,270,18,274.53,39.6,216,36,295.2l-10.8,72L27,437.4V477l1.8,63,3.6,81,1.8,45v36L99,721.8l25.2.12,10.8.13,12.6.12s45,.13,50.4.13,5.4.12,5.4.12l5.4.06,10.8.13,5.4.12"/><path class="cls-3" d="M507.6,68.4c0-6.27.48-12.64.33-18.9-.27-11.28-10-16.87-20.49-18.66-2.69-.45-6.35.72-8.83-.11-4-1.33-2.83-3.19-8.2-3.77-37.87-4.05-76.33,3.64-114.22,3.64-7.51,0-12.77-.05-19.81,2.69-14.36,5.61-26.3-.64-41-1-13.82-.35-4.82,7.16,2.4,9.66,6.58,2.28,15.58,4.48,22.51,2.79,2.2-6.17-1.9-6.39-6.84-7.06-9.18-1.25-23.39-1-31.47,1.44a53.41,53.41,0,0,1-13.16,2.69c-8.56.63-17.26,2.28-25.88,1.57-5.59-.46-7.42-2.16-12.34-3.86-20.19-7-42.29,5.55-63,5.48-2.5,0-10.92-1.51-12.79.19-6.59,6,15.93,8.65,18,8.85-.21,4.17-1.31,8.25-1.64,12.47a129.85,129.85,0,0,1-17.31.25,120.54,120.54,0,0,1-25.32-1.65c-4-5.22,3.14-11.66,2.85-17.8-12.89-3.19-27.8,1.06-41.15-.9-1.52-.22-3.61-1.3-5.91-1.58-7.83-.94-15.63,2.33-23.15,3.78"/><path class="cls-3" d="M734.4,39.6c0-5.21-.62-10.63-.08-15.79,4.75-1.25,9.92,2.13,14.57,2.89a24.48,24.48,0,0,0,13-1.06c7.11-2.52,14.84-7.27,22.52-7.82,8.35-.59,17,3.51,25.46,3.82,11.36.41,21.91-.77,32.87-.08,11.15.71,22.59.42,33.51,3.24,5.09,1.31,6.74,2,12.32,2.24,19.16.68,38.49-.05,57.67,0a294.8,294.8,0,0,1,43,3.19,46,46,0,0,0,9.52.69c8.18-.62,16.16-6.19,24-5.56,5.48.44,12.49,5.8,16.79,8.09s12.62,3.77,15.45,7.81c2.18,3.12-.24,20.45-.24,23.74v22q0,22.17,0,44.35c0,3.44.45,7.52.18,11-.61,7.57-5.7,13.59-5.9,21.24-.2,7.47,3.26,14.34,2.16,22-.45,3.16-1.55,5.91-2,9.17-.71,5.41,1.92,9.29,2.25,14.29.42,6.24-5.44,12-6,18.29-.61,7.06,4.16,11.7,5.44,18,1.18,5.78-1.67,10.29-1.59,15.79"/><path class="cls-3" d="M1038.6,182.6l7.2,86.4.12,45,.13,43.2.12,30.6.13,16.2.12,25.2,9.66,30.6L1031.4,476l-21.6,10.8-91.8.11L819,487,797.4,463.4l-30.6,23.76-32.82.1V411.2l-.13-23.4-.12-11.52L734,335h0V299.6l4-48.6V129.32C738,116,747,98,747,98V44l-1.8-14.4"/></g></g></svg>