<svg id="Layer_1" data-name="Layer 1" xmlns="http://www.w3.org/2000/svg" xmlns:xlink="http://www.w3.org/1999/xlink" viewBox="0 0 1080 756"><defs><style>.cls-1,.cls-3{fill:none;}.cls-2{clip-path:url(#clip-path);}.cls-3{stroke:#231f20;stroke-width:0.25px;}.cls-4{fill:#231f20;}</style><clipPath id="clip-path"><rect class="cls-1" width="1080" height="756"/></clipPath></defs><title>Untitled-3</title><g class="cls-2"><g class="cls-2"><line class="cls-3" x1="180" y1="-18.36" x2="180" y2="790.92"/><line class="cls-3" x1="720" y1="-20.88" x2="720" y2="788.4"/><line class="cls-3" x1="359.88" y1="-18.36" x2="359.88" y2="790.92"/><line class="cls-3" x1="899.87" y1="-20.88" x2="899.87" y2="788.4"/><line class="cls-3" x1="-16.92" y1="251.88" x2="1101.6" y2="251.88"/><line class="cls-3" x1="-11.52" y1="504.13" x2="1107" y2="504.13"/><line class="cls-3" x1="540" y1="-19.44" x2="540" y2="789.84"/></g><path class="cls-4" d="M203.37,26.61l1.13.18a3.79,3.79,0,0,1-1,2.26,2.55,2.55,0,0,1-1.89.79,2.7,2.7,0,0,1-2.2-1.1,5.23,5.23,0,0,1-.86-3.25,5.09,5.09,0,0,1,.87-3.24,2.73,2.73,0,0,1,2.24-1.09,2.55,2.55,0,0,1,1.78.66,3.2,3.2,0,0,1,.92,2l-1.11.2a2.39,2.39,0,0,0-.57-1.25,1.33,1.33,0,0,0-1-.42,1.69,1.69,0,0,0-1.41.75,4.12,4.12,0,0,0-.56,2.4,4.29,4.29,0,0,0,.54,2.45,1.59,1.59,0,0,0,1.37.76,1.5,1.5,0,0,0,1.12-.5A2.81,2.81,0,0,0,203.37,26.61Z"/><path class="cls-4" d="M205.48,29.65V18.2h1.14v4.1a2.93,2.93,0,0,1,.92-.85,2.29,2.29,0,0,1,1.13-.29,2.18,2.18,0,0,1,1.72.7,3.8,3.8,0,0,1,.63,2.53v5.26h-1.15V24.39a2.45,2.45,0,0,0-.39-1.55,1.27,1.27,0,0,0-1-.46,1.64,1.64,0,0,0-1.28.6,3.28,3.28,0,0,0-.53,2.13v4.54Z"/><path class="cls-4" d="M217.2,28.62a4,4,0,0,1-1.2.91,3,3,0,0,1-1.3.31A2.3,2.3,0,0,1,213,29.2a2.37,2.37,0,0,1-.63-1.73,2.62,2.62,0,0,1,.29-1.27,2.27,2.27,0,0,1,.81-.87,4.33,4.33,0,0,1,1.57-.46,9,9,0,0,0,2.06-.49V24a1.78,1.78,0,0,0-.31-1.2,1.64,1.64,0,0,0-1.32-.5,1.85,1.85,0,0,0-1.2.33,2.21,2.21,0,0,0-.59,1.26l-1.13-.19a3.18,3.18,0,0,1,1-1.95,3.27,3.27,0,0,1,2.11-.61,3,3,0,0,1,1.68.41,1.67,1.67,0,0,1,.77,1,7,7,0,0,1,.16,1.74v1.87a23.12,23.12,0,0,0,.08,2.48,3.94,3.94,0,0,0,.29,1h-1.2A3.63,3.63,0,0,1,217.2,28.62Zm-.09-3.14a7.34,7.34,0,0,1-1.88.54,3.33,3.33,0,0,0-1,.28,1.21,1.21,0,0,0-.45.45,1.48,1.48,0,0,0-.16.68,1.24,1.24,0,0,0,.37.95,1.37,1.37,0,0,0,1,.35,2,2,0,0,0,1.88-1.17,3.78,3.78,0,0,0,.25-1.56Z"/><path class="cls-4" d="M220.07,19.81V18.2h1.15v1.61Zm0,9.84v-8.3h1.15v8.3Z"/><path class="cls-4" d="M223,29.65v-8.3h1v1.17a2.78,2.78,0,0,1,.92-1,2.35,2.35,0,0,1,1.24-.34,2.41,2.41,0,0,1,1,.22,2.05,2.05,0,0,1,.75.56,2.36,2.36,0,0,1,.43.9,7.81,7.81,0,0,1,.14,1.71v5.1h-1.15v-5a4,4,0,0,0-.16-1.34,1.3,1.3,0,0,0-1.25-.88,1.61,1.61,0,0,0-1.33.61,3.53,3.53,0,0,0-.49,2.12v4.54Z"/><path class="cls-4" d="M229.84,27.16,231,27a2.07,2.07,0,0,0,.56,1.3,1.94,1.94,0,0,0,2.36.06,1.22,1.22,0,0,0,.4-.94.9.9,0,0,0-.35-.77,4.64,4.64,0,0,0-1.17-.47,8.74,8.74,0,0,1-1.8-.7,2,2,0,0,1-.7-.77,2.36,2.36,0,0,1-.25-1.11,2.31,2.31,0,0,1,.68-1.72,2.58,2.58,0,0,1,1.88-.67,3,3,0,0,1,1.34.28,2,2,0,0,1,.87.73,3.15,3.15,0,0,1,.43,1.32l-1.13.19a1.35,1.35,0,0,0-1.48-1.36,1.71,1.71,0,0,0-1.11.3.94.94,0,0,0-.37.77.87.87,0,0,0,.35.72,6.46,6.46,0,0,0,1.26.5,9.4,9.4,0,0,1,1.85.72,1.87,1.87,0,0,1,.65.74,2.38,2.38,0,0,1,.23,1.1,2.58,2.58,0,0,1-.75,1.93,2.82,2.82,0,0,1-2.06.74C231,29.84,230.1,29,229.84,27.16Z"/><path class="cls-4" d="M240.05,25.5a5,5,0,0,1,.91-3.24,2.91,2.91,0,0,1,4.56,0,4.85,4.85,0,0,1,.91,3.15,5.17,5.17,0,0,1-.9,3.33,2.92,2.92,0,0,1-4.57,0A5,5,0,0,1,240.05,25.5Zm1.18,0a4,4,0,0,0,.59,2.39,1.75,1.75,0,0,0,1.45.79,1.69,1.69,0,0,0,1.4-.79,4,4,0,0,0,.58-2.39,4,4,0,0,0-.59-2.39,1.74,1.74,0,0,0-1.45-.79,1.69,1.69,0,0,0-1.4.79A4.08,4.08,0,0,0,241.23,25.5Z"/><path class="cls-4" d="M248.11,29.65v-7.2h-1v-1.1h1v-.88a4.2,4.2,0,0,1,.2-1.47,1.58,1.58,0,0,1,.63-.74A2,2,0,0,1,250,18a4.37,4.37,0,0,1,1.08.15l-.17,1.22a3.39,3.39,0,0,0-.68-.08.92.92,0,0,0-.74.27,1.69,1.69,0,0,0-.22,1v.76h1.33v1.1h-1.33v7.2Z"/><path class="cls-4" d="M259.73,27l1.19.18a3.61,3.61,0,0,1-1.07,2,2.84,2.84,0,0,1-1.93.68,2.89,2.89,0,0,1-2.34-1.1,5,5,0,0,1-.89-3.17,5.19,5.19,0,0,1,.9-3.28,2.81,2.81,0,0,1,2.29-1.13,2.72,2.72,0,0,1,2.2,1.11,5.05,5.05,0,0,1,.88,3.21v.38h-5.07a3.57,3.57,0,0,0,.64,2.11,1.78,1.78,0,0,0,1.41.71C258.79,28.68,259.4,28.11,259.73,27ZM256,24.7h3.79a3.11,3.11,0,0,0-.46-1.61,1.68,1.68,0,0,0-2.73-.13A2.76,2.76,0,0,0,256,24.7Z"/><path class="cls-4" d="M262.34,29.65V18.2h1.15V29.65Z"/><path class="cls-4" d="M270,27l1.18.18a3.61,3.61,0,0,1-1.07,2,2.84,2.84,0,0,1-1.93.68,2.89,2.89,0,0,1-2.34-1.1,5,5,0,0,1-.89-3.17,5.19,5.19,0,0,1,.9-3.28,2.81,2.81,0,0,1,2.29-1.13,2.71,2.71,0,0,1,2.2,1.11,5.05,5.05,0,0,1,.88,3.21v.38h-5.07a3.57,3.57,0,0,0,.64,2.11,1.78,1.78,0,0,0,1.41.71C269,28.68,269.61,28.11,270,27Zm-3.79-2.28H270a3.11,3.11,0,0,0-.46-1.61,1.68,1.68,0,0,0-2.73-.13A2.76,2.76,0,0,0,266.16,24.7Z"/><path class="cls-4" d="M272.6,29.65v-8.3h1v1.16a2.78,2.78,0,0,1,.88-1,2.17,2.17,0,0,1,1.18-.35,2,2,0,0,1,1.21.37,2,2,0,0,1,.71,1.08,3.06,3.06,0,0,1,.94-1.08,2,2,0,0,1,1.17-.37,1.92,1.92,0,0,1,1.54.67,3.22,3.22,0,0,1,.57,2.12v5.7h-1.15V24.42a4.19,4.19,0,0,0-.13-1.27,1.17,1.17,0,0,0-.42-.57,1.07,1.07,0,0,0-.65-.2,1.47,1.47,0,0,0-1.22.59,3,3,0,0,0-.47,1.85v4.83h-1.15v-5.4a2.41,2.41,0,0,0-.32-1.45,1,1,0,0,0-.87-.42,1.45,1.45,0,0,0-1.24.63,4.2,4.2,0,0,0-.46,2.33v4.31Z"/><path class="cls-4" d="M288.17,27l1.19.18a3.67,3.67,0,0,1-1.07,2,2.86,2.86,0,0,1-1.93.68,2.89,2.89,0,0,1-2.34-1.1,4.89,4.89,0,0,1-.9-3.17,5.19,5.19,0,0,1,.91-3.28,2.8,2.8,0,0,1,2.28-1.13,2.72,2.72,0,0,1,2.21,1.11,5.11,5.11,0,0,1,.88,3.21v.38h-5.08A3.64,3.64,0,0,0,285,28a1.78,1.78,0,0,0,1.41.71C287.23,28.68,287.83,28.11,288.17,27Zm-3.79-2.28h3.8a3.21,3.21,0,0,0-.46-1.61,1.69,1.69,0,0,0-1.42-.77A1.72,1.72,0,0,0,285,23,2.88,2.88,0,0,0,284.38,24.7Z"/><path class="cls-4" d="M290.82,29.65v-8.3h1v1.17a2.7,2.7,0,0,1,.92-1,2.33,2.33,0,0,1,1.24-.34,2.44,2.44,0,0,1,1,.22,2.05,2.05,0,0,1,.75.56,2.21,2.21,0,0,1,.42.9,7.23,7.23,0,0,1,.14,1.71v5.1H295.2v-5a4.28,4.28,0,0,0-.16-1.34,1.36,1.36,0,0,0-.49-.65,1.27,1.27,0,0,0-.77-.23,1.6,1.6,0,0,0-1.32.61,3.46,3.46,0,0,0-.49,2.12v4.54Z"/><path class="cls-4" d="M300.68,28.39l.16,1.24a3.21,3.21,0,0,1-.86.13,1.74,1.74,0,0,1-1-.24,1.21,1.21,0,0,1-.51-.65,6.54,6.54,0,0,1-.13-1.65V22.45h-.85v-1.1h.85V19.3l1.15-.85v2.9h1.16v1.1h-1.16V27.3a2.2,2.2,0,0,0,.1.86.56.56,0,0,0,.55.29A2.86,2.86,0,0,0,300.68,28.39Z"/><path class="cls-4" d="M301.32,27.16l1.15-.21a2.06,2.06,0,0,0,.55,1.3,1.94,1.94,0,0,0,2.36.06,1.23,1.23,0,0,0,.41-.94.93.93,0,0,0-.35-.77,4.64,4.64,0,0,0-1.17-.47,8.28,8.28,0,0,1-1.8-.7,1.93,1.93,0,0,1-.7-.77,2.36,2.36,0,0,1-.25-1.11,2.28,2.28,0,0,1,.68-1.72,2.58,2.58,0,0,1,1.88-.67,3,3,0,0,1,1.33.28,2.06,2.06,0,0,1,.88.73,3.3,3.3,0,0,1,.42,1.32l-1.12.19a1.35,1.35,0,0,0-1.48-1.36,1.76,1.76,0,0,0-1.12.3,1,1,0,0,0-.37.77.86.86,0,0,0,.36.72,6.55,6.55,0,0,0,1.25.5,9.4,9.4,0,0,1,1.85.72,1.89,1.89,0,0,1,.66.74,2.51,2.51,0,0,1,.23,1.1,2.55,2.55,0,0,1-.76,1.93,2.8,2.8,0,0,1-2,.74C302.53,29.84,301.58,29,301.32,27.16Z"/><path class="cls-4" d="M308.66,29.65v-1.6H310v1.6a3.13,3.13,0,0,1-.28,1.46,1.85,1.85,0,0,1-.79.8l-.32-.6a1.2,1.2,0,0,0,.53-.56,2.72,2.72,0,0,0,.19-1.1Z"/><path class="cls-4" d="M198.47,279.16l1.15-.21a2,2,0,0,0,.55,1.3,1.94,1.94,0,0,0,2.36.06,1.23,1.23,0,0,0,.41-.94.93.93,0,0,0-.35-.77,5,5,0,0,0-1.18-.47,8.35,8.35,0,0,1-1.79-.7,2,2,0,0,1-.71-.77,2.48,2.48,0,0,1-.25-1.11,2.31,2.31,0,0,1,.68-1.72,2.61,2.61,0,0,1,1.89-.67,3,3,0,0,1,1.33.28,2.13,2.13,0,0,1,.88.73,3.3,3.3,0,0,1,.42,1.32l-1.13.19a1.34,1.34,0,0,0-1.47-1.36,1.76,1.76,0,0,0-1.12.3,1,1,0,0,0-.37.77.86.86,0,0,0,.36.72,6.25,6.25,0,0,0,1.25.5,9.4,9.4,0,0,1,1.85.72,1.8,1.8,0,0,1,.65.74,2.38,2.38,0,0,1,.24,1.1,2.55,2.55,0,0,1-.76,1.93,2.82,2.82,0,0,1-2.06.74C199.67,281.84,198.73,281,198.47,279.16Z"/><path class="cls-4" d="M205,277.5a5,5,0,0,1,.9-3.24,2.91,2.91,0,0,1,4.56,0,4.79,4.79,0,0,1,.91,3.15,5.23,5.23,0,0,1-.89,3.33,2.92,2.92,0,0,1-4.57,0A5,5,0,0,1,205,277.5Zm1.18,0a4,4,0,0,0,.58,2.39,1.77,1.77,0,0,0,1.46.79,1.69,1.69,0,0,0,1.39-.79,4,4,0,0,0,.58-2.39,4,4,0,0,0-.58-2.39,1.75,1.75,0,0,0-1.45-.79,1.68,1.68,0,0,0-1.4.79A4,4,0,0,0,206.22,277.5Z"/><path class="cls-4" d="M212.73,281.65V270.2h1.15v11.45Z"/><path class="cls-4" d="M215.69,271.81V270.2h1.15v1.61Zm0,9.84v-8.3h1.15v8.3Z"/><path class="cls-4" d="M223,281.65v-1a2.36,2.36,0,0,1-.81.92,1.91,1.91,0,0,1-1.06.32,2.57,2.57,0,0,1-2.08-1.14,5.1,5.1,0,0,1-.88-3.2,6.56,6.56,0,0,1,.39-2.4,3.29,3.29,0,0,1,1-1.46,2.38,2.38,0,0,1,1.45-.48,1.94,1.94,0,0,1,1.05.3,2.51,2.51,0,0,1,.81.84v-4.1h1.17v11.45Zm-3.65-4.14a4.15,4.15,0,0,0,.56,2.39,1.58,1.58,0,0,0,1.3.78,1.55,1.55,0,0,0,1.27-.75,3.9,3.9,0,0,0,.54-2.27,4.66,4.66,0,0,0-.54-2.54,1.6,1.6,0,0,0-1.36-.8,1.52,1.52,0,0,0-1.25.77A4.37,4.37,0,0,0,219.36,277.51Z"/><path class="cls-4" d="M226.23,281.65v-1.6h1.32v1.6a3.13,3.13,0,0,1-.28,1.46,1.8,1.8,0,0,1-.79.8l-.32-.6a1.2,1.2,0,0,0,.53-.56,2.72,2.72,0,0,0,.19-1.1Z"/><path class="cls-4" d="M378.85,533.65V522.2H380v4.1a2.82,2.82,0,0,1,.92-.85,2.29,2.29,0,0,1,1.13-.29,2.17,2.17,0,0,1,1.71.7,3.8,3.8,0,0,1,.63,2.53v5.26h-1.15v-5.26a2.52,2.52,0,0,0-.38-1.55,1.3,1.3,0,0,0-1.06-.46,1.62,1.62,0,0,0-1.27.6,3.28,3.28,0,0,0-.53,2.13v4.54Z"/><path class="cls-4" d="M390.8,531l1.18.18a3.55,3.55,0,0,1-1.07,2,2.84,2.84,0,0,1-1.93.68,2.89,2.89,0,0,1-2.34-1.1,5,5,0,0,1-.89-3.17,5.19,5.19,0,0,1,.9-3.28,2.82,2.82,0,0,1,2.29-1.13,2.71,2.71,0,0,1,2.2,1.11,5.05,5.05,0,0,1,.88,3.21v.38h-5.08a3.5,3.5,0,0,0,.65,2.11,1.75,1.75,0,0,0,1.4.71C389.86,532.68,390.46,532.11,390.8,531ZM387,528.7h3.79a3.11,3.11,0,0,0-.46-1.61,1.68,1.68,0,0,0-2.73-.13A2.82,2.82,0,0,0,387,528.7Z"/><path class="cls-4" d="M393.41,533.65V522.2h1.14v11.45Z"/><path class="cls-4" d="M400.77,533.65v-1a2.36,2.36,0,0,1-.81.92,1.94,1.94,0,0,1-1.06.32,2.57,2.57,0,0,1-2.08-1.14,5.1,5.1,0,0,1-.88-3.2,6.56,6.56,0,0,1,.39-2.4,3.22,3.22,0,0,1,1-1.46,2.38,2.38,0,0,1,1.45-.48,1.94,1.94,0,0,1,1.05.3,2.51,2.51,0,0,1,.81.84v-4.1h1.16v11.45Zm-3.65-4.14a4.07,4.07,0,0,0,.56,2.39,1.58,1.58,0,0,0,1.3.78,1.55,1.55,0,0,0,1.27-.75,3.9,3.9,0,0,0,.54-2.27,4.66,4.66,0,0,0-.54-2.54,1.6,1.6,0,0,0-1.36-.8,1.52,1.52,0,0,0-1.25.77A4.37,4.37,0,0,0,397.12,529.51Z"/><path class="cls-4" d="M409.87,532.39l.15,1.24a3.1,3.1,0,0,1-.86.13,1.71,1.71,0,0,1-1-.24,1.21,1.21,0,0,1-.51-.65,6.39,6.39,0,0,1-.14-1.65v-4.77h-.84v-1.1h.84V523.3l1.15-.85v2.9h1.17v1.1H408.7v4.85a2.42,2.42,0,0,0,.1.86.58.58,0,0,0,.56.29A2.86,2.86,0,0,0,409.87,532.39Z"/><path class="cls-4" d="M410.52,529.5a5,5,0,0,1,.9-3.24,2.91,2.91,0,0,1,4.56,0,4.79,4.79,0,0,1,.91,3.15,5.17,5.17,0,0,1-.9,3.33,2.91,2.91,0,0,1-4.56,0A5,5,0,0,1,410.52,529.5Zm1.18,0a4,4,0,0,0,.58,2.39,1.75,1.75,0,0,0,1.45.79,1.69,1.69,0,0,0,1.4-.79,4,4,0,0,0,.58-2.39,3.92,3.92,0,0,0-.59-2.39,1.74,1.74,0,0,0-1.45-.79,1.69,1.69,0,0,0-1.4.79A4.09,4.09,0,0,0,411.7,529.5Z"/><path class="cls-4" d="M418,534.34l1.13.2a1.43,1.43,0,0,0,.47,1,1.62,1.62,0,0,0,1.08.33,1.88,1.88,0,0,0,1.21-.36,1.91,1.91,0,0,0,.61-1.09,10,10,0,0,0,.1-1.84,2.58,2.58,0,0,1-.84.81,2,2,0,0,1-1,.27,2.47,2.47,0,0,1-2-1,5,5,0,0,1-.92-3.18,6.23,6.23,0,0,1,.4-2.34,3.26,3.26,0,0,1,1.07-1.47,2.51,2.51,0,0,1,1.48-.47,2.09,2.09,0,0,1,1.1.3,2.84,2.84,0,0,1,.88.88v-1h1.06v7.17a8.64,8.64,0,0,1-.31,2.73,2.59,2.59,0,0,1-1,1.29,3,3,0,0,1-1.71.48,2.72,2.72,0,0,1-2-.72A2.61,2.61,0,0,1,418,534.34Zm1-5a4.16,4.16,0,0,0,.54,2.39,1.59,1.59,0,0,0,1.32.75,1.61,1.61,0,0,0,1.33-.73,5.21,5.21,0,0,0,0-4.68,1.7,1.7,0,0,0-1.37-.76,1.56,1.56,0,0,0-1.27.76A3.94,3.94,0,0,0,419,529.35Z"/><path class="cls-4" d="M430.2,531l1.18.18a3.61,3.61,0,0,1-1.07,2,2.84,2.84,0,0,1-1.93.68,2.89,2.89,0,0,1-2.34-1.1,5,5,0,0,1-.89-3.17,5.19,5.19,0,0,1,.9-3.28,2.81,2.81,0,0,1,2.29-1.13,2.71,2.71,0,0,1,2.2,1.11,5.05,5.05,0,0,1,.88,3.21v.38h-5.07A3.57,3.57,0,0,0,427,532a1.78,1.78,0,0,0,1.41.71C429.25,532.68,429.86,532.11,430.2,531Zm-3.79-2.28h3.79a3.11,3.11,0,0,0-.46-1.61A1.68,1.68,0,0,0,427,527,2.76,2.76,0,0,0,426.41,528.7Z"/><path class="cls-4" d="M435.41,532.39l.15,1.24a3.1,3.1,0,0,1-.86.13,1.76,1.76,0,0,1-1-.24,1.24,1.24,0,0,1-.5-.65,6.39,6.39,0,0,1-.14-1.65v-4.77h-.84v-1.1h.84V523.3l1.15-.85v2.9h1.17v1.1h-1.17v4.85a2.42,2.42,0,0,0,.1.86.58.58,0,0,0,.56.29A2.86,2.86,0,0,0,435.41,532.39Z"/><path class="cls-4" d="M436.49,533.65V522.2h1.15v4.1a2.82,2.82,0,0,1,.92-.85,2.29,2.29,0,0,1,1.13-.29,2.17,2.17,0,0,1,1.71.7,3.8,3.8,0,0,1,.63,2.53v5.26h-1.15v-5.26a2.52,2.52,0,0,0-.38-1.55,1.28,1.28,0,0,0-1.05-.46,1.64,1.64,0,0,0-1.28.6,3.28,3.28,0,0,0-.53,2.13v4.54Z"/><path class="cls-4" d="M448.44,531l1.18.18a3.55,3.55,0,0,1-1.07,2,3,3,0,0,1-4.26-.42,4.89,4.89,0,0,1-.9-3.17,5.19,5.19,0,0,1,.9-3.28,2.82,2.82,0,0,1,2.29-1.13,2.71,2.71,0,0,1,2.2,1.11,5.05,5.05,0,0,1,.88,3.21v.38h-5.08a3.5,3.5,0,0,0,.65,2.11,1.75,1.75,0,0,0,1.4.71C447.5,532.68,448.1,532.11,448.44,531Zm-3.79-2.28h3.8a3.2,3.2,0,0,0-.47-1.61,1.68,1.68,0,0,0-2.73-.13A2.82,2.82,0,0,0,444.65,528.7Z"/><path class="cls-4" d="M451.09,533.65v-8.3h1v1.26a3.49,3.49,0,0,1,.74-1.16,1.12,1.12,0,0,1,.74-.29,2,2,0,0,1,1.18.46l-.39,1.3a1.46,1.46,0,0,0-.84-.3,1,1,0,0,0-.67.26,1.45,1.45,0,0,0-.43.71,6.79,6.79,0,0,0-.22,1.71v4.35Z"/><path class="cls-4" d="M460.16,533.65h-1.07V522.2h1.15v4.08a2.77,2.77,0,0,1,.83-.84,2,2,0,0,1,1-.28,2.4,2.4,0,0,1,1.45.48,3.26,3.26,0,0,1,1,1.45,6.28,6.28,0,0,1,.39,2.35,5.22,5.22,0,0,1-.88,3.25,2.59,2.59,0,0,1-2.07,1.15,2,2,0,0,1-1.07-.31,2.63,2.63,0,0,1-.81-.92Zm0-4.21a6.18,6.18,0,0,0,.23,1.93,2.13,2.13,0,0,0,.67,1,1.5,1.5,0,0,0,1,.34,1.56,1.56,0,0,0,1.26-.8,4.24,4.24,0,0,0,.55-2.4,4.29,4.29,0,0,0-.53-2.39,1.45,1.45,0,0,0-2.58,0A4.08,4.08,0,0,0,460.14,529.44Z"/><path class="cls-4" d="M466.36,536.84l-.13-1.32a2.06,2.06,0,0,0,.66.13,1.13,1.13,0,0,0,.61-.15,1.06,1.06,0,0,0,.39-.46c0-.07.19-.53.46-1.38l-2.59-8.31H467l1.42,4.8c.18.6.34,1.24.49,1.92.13-.64.29-1.27.47-1.89l1.46-4.83H472l-2.58,8.44a16.16,16.16,0,0,1-.8,2.19,2.07,2.07,0,0,1-.67.79,1.49,1.49,0,0,1-.84.25A1.89,1.89,0,0,1,466.36,536.84Z"/><path class="cls-4" d="M476.61,523.81V522.2h1.15v1.61Zm0,9.84v-8.3h1.15v8.3Z"/><path class="cls-4" d="M479.52,533.65v-8.3h1v1.17a2.78,2.78,0,0,1,.92-1,2.33,2.33,0,0,1,1.24-.34,2.41,2.41,0,0,1,1,.22,2.05,2.05,0,0,1,.75.56,2.36,2.36,0,0,1,.43.9,7.81,7.81,0,0,1,.14,1.71v5.1H483.9v-5a4,4,0,0,0-.16-1.34,1.3,1.3,0,0,0-1.26-.88,1.6,1.6,0,0,0-1.32.61,3.53,3.53,0,0,0-.49,2.12v4.54Z"/><path class="cls-4" d="M489.38,532.39l.16,1.24a3.21,3.21,0,0,1-.86.13,1.76,1.76,0,0,1-1-.24,1.24,1.24,0,0,1-.5-.65,6.39,6.39,0,0,1-.14-1.65v-4.77h-.84v-1.1h.84V523.3l1.15-.85v2.9h1.16v1.1h-1.16v4.85a2.2,2.2,0,0,0,.1.86.57.57,0,0,0,.56.29A2.86,2.86,0,0,0,489.38,532.39Z"/><path class="cls-4" d="M490.47,533.65v-8.3h1v1.26a3.5,3.5,0,0,1,.73-1.16,1.12,1.12,0,0,1,.74-.29,2,2,0,0,1,1.18.46l-.39,1.3a1.43,1.43,0,0,0-.83-.3,1,1,0,0,0-.67.26,1.32,1.32,0,0,0-.43.71,6.36,6.36,0,0,0-.22,1.71v4.35Z"/><path class="cls-4" d="M494.84,523.81V522.2H496v1.61Zm0,9.84v-8.3H496v8.3Z"/><path class="cls-4" d="M502.2,530.61l1.14.18a3.79,3.79,0,0,1-1,2.26,2.58,2.58,0,0,1-1.89.79,2.68,2.68,0,0,1-2.2-1.1,5.16,5.16,0,0,1-.86-3.25,5.09,5.09,0,0,1,.87-3.24,2.72,2.72,0,0,1,2.24-1.09,2.52,2.52,0,0,1,1.77.66,3.26,3.26,0,0,1,.93,2l-1.12.2a2.39,2.39,0,0,0-.57-1.25,1.32,1.32,0,0,0-1-.42,1.71,1.71,0,0,0-1.41.75,4.13,4.13,0,0,0-.55,2.4,4.3,4.3,0,0,0,.53,2.45,1.61,1.61,0,0,0,1.37.76,1.48,1.48,0,0,0,1.12-.5A2.74,2.74,0,0,0,502.2,530.61Z"/><path class="cls-4" d="M508.74,532.62a4,4,0,0,1-1.2.91,3,3,0,0,1-1.3.31,2.28,2.28,0,0,1-1.69-.64,2.34,2.34,0,0,1-.64-1.73,2.62,2.62,0,0,1,.3-1.27,2.27,2.27,0,0,1,.81-.87,4.33,4.33,0,0,1,1.57-.46,9,9,0,0,0,2.06-.49V528a1.84,1.84,0,0,0-.31-1.2,1.65,1.65,0,0,0-1.32-.5,1.85,1.85,0,0,0-1.2.33,2.21,2.21,0,0,0-.59,1.26l-1.13-.19a3.18,3.18,0,0,1,1-2,3.27,3.27,0,0,1,2.11-.61,3,3,0,0,1,1.68.41,1.67,1.67,0,0,1,.77,1,7,7,0,0,1,.16,1.74v1.87a23.12,23.12,0,0,0,.08,2.48,3.58,3.58,0,0,0,.29,1H509A3.63,3.63,0,0,1,508.74,532.62Zm-.09-3.14a7.34,7.34,0,0,1-1.88.54,3.33,3.33,0,0,0-1,.28,1.21,1.21,0,0,0-.45.45,1.37,1.37,0,0,0-.16.68,1.24,1.24,0,0,0,.37,1,1.37,1.37,0,0,0,1,.35,2,2,0,0,0,1.12-.32,2,2,0,0,0,.76-.85,3.78,3.78,0,0,0,.25-1.56Z"/><path class="cls-4" d="M514.17,532.39l.16,1.24a3.21,3.21,0,0,1-.86.13,1.76,1.76,0,0,1-1-.24,1.19,1.19,0,0,1-.5-.65,6.39,6.39,0,0,1-.14-1.65v-4.77H511v-1.1h.84V523.3l1.15-.85v2.9h1.16v1.1H513v4.85a2.2,2.2,0,0,0,.1.86.56.56,0,0,0,.55.29A2.86,2.86,0,0,0,514.17,532.39Z"/><path class="cls-4" d="M519.91,531l1.18.18a3.55,3.55,0,0,1-1.07,2,2.84,2.84,0,0,1-1.93.68,2.89,2.89,0,0,1-2.34-1.1,5,5,0,0,1-.89-3.17,5.19,5.19,0,0,1,.9-3.28,2.81,2.81,0,0,1,2.29-1.13,2.71,2.71,0,0,1,2.2,1.11,5.05,5.05,0,0,1,.88,3.21v.38h-5.07a3.5,3.5,0,0,0,.65,2.11,1.75,1.75,0,0,0,1.4.71C519,532.68,519.57,532.11,519.91,531Zm-3.79-2.28h3.79a3.11,3.11,0,0,0-.46-1.61,1.68,1.68,0,0,0-2.73-.13A2.76,2.76,0,0,0,516.12,528.7Z"/><path class="cls-4" d="M379.17,552.85v-7.2h-1v-1.1h1v-.88a3.94,3.94,0,0,1,.21-1.47,1.51,1.51,0,0,1,.62-.74,2,2,0,0,1,1.05-.26,4.37,4.37,0,0,1,1.08.15l-.17,1.22a3.31,3.31,0,0,0-.68-.08.92.92,0,0,0-.74.27,1.69,1.69,0,0,0-.22,1v.76h1.33v1.1h-1.33v7.2Z"/><path class="cls-4" d="M382.06,548.7a5,5,0,0,1,.9-3.24,2.91,2.91,0,0,1,4.56,0,4.79,4.79,0,0,1,.92,3.15,5.17,5.17,0,0,1-.9,3.33,2.92,2.92,0,0,1-4.57,0A5,5,0,0,1,382.06,548.7Zm1.18,0a4,4,0,0,0,.59,2.39,1.74,1.74,0,0,0,1.45.79,1.7,1.7,0,0,0,1.4-.79,4.11,4.11,0,0,0,.58-2.39,4,4,0,0,0-.59-2.39,1.74,1.74,0,0,0-1.45-.79,1.69,1.69,0,0,0-1.4.79A4,4,0,0,0,383.24,548.7Z"/><path class="cls-4" d="M389.8,552.85v-8.3h1v1.26a3.35,3.35,0,0,1,.73-1.16,1.12,1.12,0,0,1,.74-.29,2,2,0,0,1,1.18.46l-.39,1.3a1.43,1.43,0,0,0-.83-.3,1,1,0,0,0-.68.26,1.45,1.45,0,0,0-.43.71,6.79,6.79,0,0,0-.21,1.71v4.35Z"/><path class="cls-4" d="M393.94,553.54l1.12.2a1.43,1.43,0,0,0,.47,1,1.63,1.63,0,0,0,1.09.33,1.87,1.87,0,0,0,1.2-.36,1.92,1.92,0,0,0,.62-1.09,11.09,11.09,0,0,0,.1-1.84,2.68,2.68,0,0,1-.84.81,2.07,2.07,0,0,1-1,.27,2.49,2.49,0,0,1-2-1,5.07,5.07,0,0,1-.92-3.18,6.23,6.23,0,0,1,.41-2.34,3.24,3.24,0,0,1,1.06-1.47,2.53,2.53,0,0,1,1.48-.47,2.06,2.06,0,0,1,1.1.3,2.73,2.73,0,0,1,.88.88v-1h1.06v7.17a8.35,8.35,0,0,1-.31,2.73,2.62,2.62,0,0,1-1,1.29,3,3,0,0,1-1.71.48,2.76,2.76,0,0,1-2-.72A2.55,2.55,0,0,1,393.94,553.54Zm.95-5a4.16,4.16,0,0,0,.54,2.39,1.56,1.56,0,0,0,2.65,0,4,4,0,0,0,.55-2.35,3.91,3.91,0,0,0-.56-2.33,1.68,1.68,0,0,0-1.37-.76,1.59,1.59,0,0,0-1.27.76A3.94,3.94,0,0,0,394.89,548.55Z"/><path class="cls-4" d="M401.46,543V541.4h1.15V543Zm0,9.84v-8.3h1.15v8.3Z"/><path class="cls-4" d="M404.38,552.85v-8.3h1v1.17a2.78,2.78,0,0,1,.92-1,2.43,2.43,0,0,1,2.25-.12,2.05,2.05,0,0,1,.75.56,2.36,2.36,0,0,1,.43.9,7.81,7.81,0,0,1,.14,1.71v5.1h-1.15V547.8a4,4,0,0,0-.16-1.34,1.27,1.27,0,0,0-1.25-.88,1.58,1.58,0,0,0-1.32.61,3.45,3.45,0,0,0-.5,2.12v4.54Z"/><path class="cls-4" d="M411.45,553.54l1.12.2a1.43,1.43,0,0,0,.47,1,1.62,1.62,0,0,0,1.08.33,1.88,1.88,0,0,0,1.21-.36,1.92,1.92,0,0,0,.62-1.09,11.09,11.09,0,0,0,.1-1.84,2.6,2.6,0,0,1-.85.81,2,2,0,0,1-1,.27,2.49,2.49,0,0,1-2-1,5.07,5.07,0,0,1-.92-3.18,6.23,6.23,0,0,1,.4-2.34,3.33,3.33,0,0,1,1.07-1.47,2.51,2.51,0,0,1,1.48-.47,2.09,2.09,0,0,1,1.1.3,2.84,2.84,0,0,1,.88.88v-1h1.06v7.17a8.35,8.35,0,0,1-.31,2.73,2.62,2.62,0,0,1-1,1.29,3,3,0,0,1-1.72.48,2.73,2.73,0,0,1-2-.72A2.55,2.55,0,0,1,411.45,553.54Zm.95-5a4.16,4.16,0,0,0,.54,2.39,1.59,1.59,0,0,0,1.32.75,1.61,1.61,0,0,0,1.33-.73,5.21,5.21,0,0,0,0-4.68,1.7,1.7,0,0,0-1.37-.76,1.59,1.59,0,0,0-1.27.76A3.94,3.94,0,0,0,412.4,548.55Z"/><path class="cls-4" d="M419.3,552.85v-1.6h1.32v1.6a3.13,3.13,0,0,1-.28,1.46,1.8,1.8,0,0,1-.79.8l-.32-.6a1.2,1.2,0,0,0,.53-.56,2.72,2.72,0,0,0,.19-1.1Z"/><path class="cls-4" d="M18.92,29.52V18.07h1.15v4.11a2.84,2.84,0,0,1,.91-.86A2.28,2.28,0,0,1,22.11,21a2.21,2.21,0,0,1,1.72.69,3.84,3.84,0,0,1,.63,2.54v5.25H23.31V24.27a2.43,2.43,0,0,0-.39-1.55,1.28,1.28,0,0,0-1.05-.47,1.64,1.64,0,0,0-1.28.6A3.28,3.28,0,0,0,20.07,25v4.54Z"/><path class="cls-4" d="M26.21,29.52V21.23h1v1.25A3.67,3.67,0,0,1,28,21.32a1.13,1.13,0,0,1,.75-.28,2,2,0,0,1,1.18.45l-.39,1.31a1.43,1.43,0,0,0-.84-.31,1,1,0,0,0-.67.26,1.37,1.37,0,0,0-.43.72,6.73,6.73,0,0,0-.22,1.71v4.34Z"/><path class="cls-4" d="M35.23,26.85l1.19.18a3.65,3.65,0,0,1-1.08,2,2.83,2.83,0,0,1-1.92.67,2.86,2.86,0,0,1-2.34-1.1,4.86,4.86,0,0,1-.9-3.16,5.15,5.15,0,0,1,.9-3.28A2.84,2.84,0,0,1,33.37,21a2.71,2.71,0,0,1,2.2,1.11,5.05,5.05,0,0,1,.89,3.21v.37H31.37A3.55,3.55,0,0,0,32,27.84a1.72,1.72,0,0,0,1.4.71C34.29,28.55,34.89,28,35.23,26.85Zm-3.79-2.27h3.8A3.18,3.18,0,0,0,34.78,23a1.66,1.66,0,0,0-1.42-.77,1.68,1.68,0,0,0-1.32.64A2.88,2.88,0,0,0,31.44,24.58Z"/><path class="cls-4" d="M38.2,29.52v-7.2h-1V21.23h1v-.89a4.1,4.1,0,0,1,.2-1.46,1.6,1.6,0,0,1,.62-.75,2,2,0,0,1,1.06-.25,4.33,4.33,0,0,1,1.08.14L41,19.24a3.39,3.39,0,0,0-.68-.08.9.9,0,0,0-.74.27,1.71,1.71,0,0,0-.22,1v.77h1.32v1.09H39.35v7.2Z"/><path class="cls-4" d="M382.87,29.65h-1.16v-9a5.74,5.74,0,0,1-1.07.95,6.55,6.55,0,0,1-1.23.74V21a7.25,7.25,0,0,0,1.68-1.33,5.11,5.11,0,0,0,1-1.54h.75Z"/><path class="cls-4" d="M389.2,29.65h-1.15v-9a6.08,6.08,0,0,1-1.07.95,6.3,6.3,0,0,1-1.24.74V21a7.1,7.1,0,0,0,1.69-1.33,5.06,5.06,0,0,0,1-1.54h.75Z"/><path class="cls-4" d="M392.16,24a9.83,9.83,0,0,1,.77-4.37,2.48,2.48,0,0,1,2.3-1.48,2.39,2.39,0,0,1,2.11,1.2,8.79,8.79,0,0,1,.94,4.65,9.84,9.84,0,0,1-.77,4.36,2.47,2.47,0,0,1-2.3,1.48,2.54,2.54,0,0,1-2.2-1.31A8.74,8.74,0,0,1,392.16,24Zm1.18,0a8.81,8.81,0,0,0,.53,3.74,1.59,1.59,0,0,0,1.38,1,1.55,1.55,0,0,0,1.32-1A8.85,8.85,0,0,0,397.1,24a8.8,8.8,0,0,0-.53-3.75,1.59,1.59,0,0,0-1.39-.95,1.51,1.51,0,0,0-1.31,1A8.62,8.62,0,0,0,393.34,24Z"/><path class="cls-4" d="M739.91,281.77h-1.07V270.32H740v4.09a2.56,2.56,0,0,1,.83-.84,2,2,0,0,1,1-.28,2.4,2.4,0,0,1,1.45.48,3.22,3.22,0,0,1,1,1.44,6.32,6.32,0,0,1,.39,2.35,5.25,5.25,0,0,1-.88,3.26,2.58,2.58,0,0,1-2.07,1.14,1.91,1.91,0,0,1-1.07-.31,2.55,2.55,0,0,1-.81-.92Zm0-4.21a6.14,6.14,0,0,0,.23,1.93,2.11,2.11,0,0,0,.67,1A1.45,1.45,0,0,0,743,280a4.2,4.2,0,0,0,.55-2.39,4.31,4.31,0,0,0-.53-2.4,1.46,1.46,0,0,0-2.58,0A4,4,0,0,0,739.89,277.56Z"/><path class="cls-4" d="M746.15,281.77v-8.29h1v1.25a3.5,3.5,0,0,1,.73-1.16,1.1,1.1,0,0,1,.74-.28,2,2,0,0,1,1.18.45l-.39,1.31a1.38,1.38,0,0,0-.83-.31,1,1,0,0,0-.67.26,1.31,1.31,0,0,0-.43.72,6.31,6.31,0,0,0-.22,1.71v4.34Z"/><path class="cls-4" d="M750.08,277.62a5,5,0,0,1,.9-3.24,2.93,2.93,0,0,1,4.56,0,4.8,4.8,0,0,1,.91,3.16,5.17,5.17,0,0,1-.9,3.33,2.92,2.92,0,0,1-4.56,0A5,5,0,0,1,750.08,277.62Zm1.18,0a4,4,0,0,0,.58,2.4,1.77,1.77,0,0,0,1.46.78,1.69,1.69,0,0,0,1.39-.79,5.21,5.21,0,0,0,0-4.78,1.77,1.77,0,0,0-1.46-.78,1.67,1.67,0,0,0-1.39.79A4,4,0,0,0,751.26,277.62Z"/><path class="cls-4" d="M757.84,281.77V270.32H759v6.54l2.74-3.38h1.49l-2.6,3.08,2.86,5.21h-1.41l-2.26-4.25-.82,1v3.29Z"/><path class="cls-4" d="M769,279.1l1.19.18a3.64,3.64,0,0,1-1.07,2,2.84,2.84,0,0,1-1.93.67,2.89,2.89,0,0,1-2.34-1.1,4.86,4.86,0,0,1-.89-3.16,5.15,5.15,0,0,1,.9-3.28,2.8,2.8,0,0,1,2.28-1.13,2.72,2.72,0,0,1,2.21,1.11,5.05,5.05,0,0,1,.88,3.21V278h-5.08a3.62,3.62,0,0,0,.65,2.11,1.75,1.75,0,0,0,1.41.71C768.08,280.8,768.68,280.24,769,279.1Zm-3.79-2.27H769a3.08,3.08,0,0,0-.46-1.61,1.68,1.68,0,0,0-2.73-.13A2.82,2.82,0,0,0,765.23,276.83Z"/><path class="cls-4" d="M771.67,281.77v-8.29h1v1.17a2.63,2.63,0,0,1,.92-1,2.24,2.24,0,0,1,1.24-.34,2.4,2.4,0,0,1,1,.21,2.08,2.08,0,0,1,.75.57,2.21,2.21,0,0,1,.42.9,7.08,7.08,0,0,1,.15,1.7v5.1h-1.15v-5a4,4,0,0,0-.16-1.34,1.3,1.3,0,0,0-.49-.65,1.34,1.34,0,0,0-.77-.23,1.61,1.61,0,0,0-1.32.62,3.46,3.46,0,0,0-.49,2.12v4.53Z"/><path class="cls-4" d="M787.27,279.1l1.18.18a3.64,3.64,0,0,1-1.07,2,2.84,2.84,0,0,1-1.93.67,2.89,2.89,0,0,1-2.34-1.1,4.92,4.92,0,0,1-.89-3.16,5.15,5.15,0,0,1,.9-3.28,2.81,2.81,0,0,1,2.29-1.13,2.71,2.71,0,0,1,2.2,1.11,5.05,5.05,0,0,1,.88,3.21V278h-5.07a3.55,3.55,0,0,0,.64,2.11,1.75,1.75,0,0,0,1.41.71C786.33,280.8,786.93,280.24,787.27,279.1Zm-3.79-2.27h3.79a3.08,3.08,0,0,0-.46-1.61,1.68,1.68,0,0,0-2.73-.13A2.76,2.76,0,0,0,783.48,276.83Z"/><path class="cls-4" d="M794.34,280.75a4.33,4.33,0,0,1-1.2.91,3,3,0,0,1-1.3.3,2.26,2.26,0,0,1-1.69-.64,2.36,2.36,0,0,1-.63-1.73,2.62,2.62,0,0,1,.29-1.27,2.27,2.27,0,0,1,.81-.87,4.54,4.54,0,0,1,1.57-.46,9,9,0,0,0,2.06-.49v-.36A1.73,1.73,0,0,0,794,275a1.61,1.61,0,0,0-1.32-.5,1.87,1.87,0,0,0-1.2.33,2.18,2.18,0,0,0-.59,1.25l-1.13-.19a3.12,3.12,0,0,1,1-1.94,3.22,3.22,0,0,1,2.11-.61,3,3,0,0,1,1.68.4,1.69,1.69,0,0,1,.77,1,6.87,6.87,0,0,1,.16,1.73v1.88a23.12,23.12,0,0,0,.08,2.48,3.87,3.87,0,0,0,.29,1h-1.2A3.48,3.48,0,0,1,794.34,280.75Zm-.09-3.14a7,7,0,0,1-1.88.53,3.27,3.27,0,0,0-1,.29,1.08,1.08,0,0,0-.45.45,1.44,1.44,0,0,0-.16.67,1.23,1.23,0,0,0,.37.95,1.37,1.37,0,0,0,1,.36,2.1,2.1,0,0,0,1.13-.32,2,2,0,0,0,.75-.86,3.72,3.72,0,0,0,.25-1.56Z"/><path class="cls-4" d="M796.77,279.29l1.14-.22a2.1,2.1,0,0,0,.56,1.31,1.69,1.69,0,0,0,1.2.42,1.67,1.67,0,0,0,1.16-.37,1.2,1.2,0,0,0,.4-.94.88.88,0,0,0-.35-.76,4.27,4.27,0,0,0-1.17-.47,8.61,8.61,0,0,1-1.8-.71,2,2,0,0,1-.7-.77,2.54,2.54,0,0,1,.43-2.83,2.58,2.58,0,0,1,1.88-.66,3.14,3.14,0,0,1,1.34.27,2.13,2.13,0,0,1,.87.74,3,3,0,0,1,.43,1.32l-1.13.18a1.35,1.35,0,0,0-1.48-1.35,1.65,1.65,0,0,0-1.11.3.91.91,0,0,0-.37.76.85.85,0,0,0,.35.72,5.91,5.91,0,0,0,1.25.5,9.79,9.79,0,0,1,1.86.73,1.84,1.84,0,0,1,.65.73,2.39,2.39,0,0,1,.23,1.11,2.61,2.61,0,0,1-.75,1.93,2.82,2.82,0,0,1-2.06.73C798,282,797,281.07,796.77,279.29Z"/><path class="cls-4" d="M803.77,271.94v-1.62h1.15v1.62Zm0,9.83v-8.29h1.15v8.29Z"/><path class="cls-4" d="M806.65,281.77V270.32h1.15v11.45Z"/><path class="cls-4" d="M809.56,285l-.12-1.32a2.2,2.2,0,0,0,.65.12,1.13,1.13,0,0,0,.61-.15,1.08,1.08,0,0,0,.4-.46c0-.07.18-.53.45-1.37L809,273.48h1.24l1.42,4.8c.18.6.35,1.24.5,1.92a18.64,18.64,0,0,1,.47-1.89l1.45-4.83h1.16l-2.59,8.43a13.59,13.59,0,0,1-.8,2.2,2.14,2.14,0,0,1-.66.79,1.53,1.53,0,0,1-.84.24A2.1,2.1,0,0,1,809.56,285Z"/><path class="cls-4" d="M820.87,281.77H819.8V270.32H821v4.09a2.58,2.58,0,0,1,.84-.84,1.9,1.9,0,0,1,1-.28,2.4,2.4,0,0,1,1.45.48,3.22,3.22,0,0,1,1,1.44,6.32,6.32,0,0,1,.39,2.35,5.25,5.25,0,0,1-.88,3.26,2.58,2.58,0,0,1-2.07,1.14,1.91,1.91,0,0,1-1.07-.31,2.55,2.55,0,0,1-.81-.92Zm0-4.21a6.14,6.14,0,0,0,.23,1.93,2.11,2.11,0,0,0,.67,1A1.45,1.45,0,0,0,824,280a5.58,5.58,0,0,0,0-4.79,1.46,1.46,0,0,0-2.58,0A4,4,0,0,0,820.85,277.56Z"/><path class="cls-4" d="M831.56,281.77v-1.22a2.89,2.89,0,0,1-.94,1.06,2.17,2.17,0,0,1-1.21.35,2.2,2.2,0,0,1-1.38-.43,2.1,2.1,0,0,1-.76-1.1,6.71,6.71,0,0,1-.19-1.81v-5.14h1.15v4.6a7,7,0,0,0,.13,1.71,1.29,1.29,0,0,0,1.26,1,1.65,1.65,0,0,0,1.36-.68,3.62,3.62,0,0,0,.46-2.15v-4.44h1.15v8.29Z"/><path class="cls-4" d="M837,280.52l.15,1.24a3.47,3.47,0,0,1-.85.12,1.72,1.72,0,0,1-1-.24,1.14,1.14,0,0,1-.51-.65,6.43,6.43,0,0,1-.13-1.65v-4.77h-.85v-1.09h.85v-2.06l1.14-.84v2.9H837v1.09H835.8v4.85a2.2,2.2,0,0,0,.11.87.55.55,0,0,0,.55.28A3.92,3.92,0,0,0,837,280.52Z"/><path class="cls-4" d="M841.7,281.77v-8.29h1v1.17a2.63,2.63,0,0,1,.92-1,2.24,2.24,0,0,1,1.24-.34,2.4,2.4,0,0,1,1,.21,2.08,2.08,0,0,1,.75.57,2.36,2.36,0,0,1,.43.9,7.77,7.77,0,0,1,.14,1.7v5.1h-1.15v-5a4,4,0,0,0-.16-1.34,1.25,1.25,0,0,0-.49-.65,1.32,1.32,0,0,0-.77-.23,1.61,1.61,0,0,0-1.32.62,3.53,3.53,0,0,0-.49,2.12v4.53Z"/><path class="cls-4" d="M853.65,279.1l1.19.18a3.65,3.65,0,0,1-1.08,2,2.83,2.83,0,0,1-1.92.67,2.86,2.86,0,0,1-2.34-1.1,4.86,4.86,0,0,1-.9-3.16,5.15,5.15,0,0,1,.9-3.28,2.84,2.84,0,0,1,2.29-1.13,2.71,2.71,0,0,1,2.2,1.11,5.05,5.05,0,0,1,.89,3.21V278h-5.08a3.55,3.55,0,0,0,.65,2.11,1.72,1.72,0,0,0,1.4.71C852.71,280.8,853.31,280.24,853.65,279.1Zm-3.79-2.27h3.8a3.28,3.28,0,0,0-.46-1.61,1.69,1.69,0,0,0-2.74-.13A2.88,2.88,0,0,0,849.86,276.83Z"/><path class="cls-4" d="M858.2,281.77l-2.59-8.29h1.22l1.46,5c.17.56.32,1.12.44,1.67.1-.44.24-1,.42-1.58l1.52-5.06h1.19l-2.59,8.29Z"/><path class="cls-4" d="M867.51,279.1l1.19.18a3.65,3.65,0,0,1-1.08,2,2.83,2.83,0,0,1-1.92.67,2.86,2.86,0,0,1-2.34-1.1,4.86,4.86,0,0,1-.9-3.16,5.15,5.15,0,0,1,.9-3.28,2.82,2.82,0,0,1,2.29-1.13,2.71,2.71,0,0,1,2.2,1.11,5.05,5.05,0,0,1,.88,3.21V278h-5.08a3.55,3.55,0,0,0,.65,2.11,1.72,1.72,0,0,0,1.4.71C866.57,280.8,867.17,280.24,867.51,279.1Zm-3.79-2.27h3.8a3.17,3.17,0,0,0-.47-1.61,1.68,1.68,0,0,0-2.73-.13A2.82,2.82,0,0,0,863.72,276.83Z"/><path class="cls-4" d="M870.16,281.77v-8.29h1v1.25a3.35,3.35,0,0,1,.73-1.16,1.1,1.1,0,0,1,.74-.28,2,2,0,0,1,1.18.45l-.39,1.31a1.41,1.41,0,0,0-.84-.31,1,1,0,0,0-.67.26,1.44,1.44,0,0,0-.43.72,6.73,6.73,0,0,0-.22,1.71v4.34Z"/><path class="cls-4" d="M739.17,301v-7.2h-1v-1.09h1v-.89a3.85,3.85,0,0,1,.21-1.46,1.49,1.49,0,0,1,.62-.75,2,2,0,0,1,1-.25,4.85,4.85,0,0,1,1.08.14l-.17,1.22a3.31,3.31,0,0,0-.68-.08.92.92,0,0,0-.74.27,1.71,1.71,0,0,0-.22,1v.77h1.33v1.09h-1.33V301Z"/><path class="cls-4" d="M742.06,296.83a5,5,0,0,1,.9-3.25,2.93,2.93,0,0,1,4.56,0,4.8,4.8,0,0,1,.92,3.16,5.17,5.17,0,0,1-.9,3.33,2.83,2.83,0,0,1-2.29,1.09,2.86,2.86,0,0,1-2.28-1.1A5,5,0,0,1,742.06,296.83Zm1.18,0a4,4,0,0,0,.59,2.4,1.75,1.75,0,0,0,1.45.78,1.7,1.7,0,0,0,1.4-.79,4.11,4.11,0,0,0,.58-2.39,4,4,0,0,0-.59-2.39,1.75,1.75,0,0,0-1.45-.78,1.69,1.69,0,0,0-1.4.79A4,4,0,0,0,743.24,296.82Z"/><path class="cls-4" d="M749.8,301v-8.29h1v1.25a3.35,3.35,0,0,1,.73-1.16,1.1,1.1,0,0,1,.74-.28,2,2,0,0,1,1.18.45l-.39,1.31a1.38,1.38,0,0,0-.83-.31,1.05,1.05,0,0,0-.68.26,1.44,1.44,0,0,0-.43.72,6.79,6.79,0,0,0-.21,1.71V301Z"/><path class="cls-4" d="M758.81,298.3l1.19.18a3.67,3.67,0,0,1-1.07,2,2.84,2.84,0,0,1-1.93.67,2.89,2.89,0,0,1-2.34-1.1,4.86,4.86,0,0,1-.89-3.16,5.15,5.15,0,0,1,.9-3.28,2.8,2.8,0,0,1,2.28-1.13,2.72,2.72,0,0,1,2.21,1.11,5.05,5.05,0,0,1,.88,3.21v.37H755a3.62,3.62,0,0,0,.65,2.11A1.75,1.75,0,0,0,757,300C757.87,300,758.47,299.44,758.81,298.3ZM755,296h3.8a3.18,3.18,0,0,0-.46-1.61,1.66,1.66,0,0,0-1.41-.77,1.69,1.69,0,0,0-1.33.64A2.88,2.88,0,0,0,755,296Z"/><path class="cls-4" d="M763.36,301l-2.59-8.29H762l1.47,5c.16.56.31,1.12.43,1.67.1-.44.24-1,.43-1.58l1.52-5.06H767L764.44,301Z"/><path class="cls-4" d="M772.67,298.3l1.19.18a3.67,3.67,0,0,1-1.07,2,2.85,2.85,0,0,1-1.93.67,2.89,2.89,0,0,1-2.34-1.1,4.86,4.86,0,0,1-.9-3.16,5.15,5.15,0,0,1,.91-3.28,2.8,2.8,0,0,1,2.28-1.13A2.72,2.72,0,0,1,773,293.6a5.11,5.11,0,0,1,.88,3.21v.37h-5.08a3.62,3.62,0,0,0,.65,2.11,1.75,1.75,0,0,0,1.41.71C771.73,300,772.33,299.44,772.67,298.3ZM768.88,296h3.8a3.18,3.18,0,0,0-.46-1.61,1.66,1.66,0,0,0-1.42-.77,1.68,1.68,0,0,0-1.32.64A2.88,2.88,0,0,0,768.88,296Z"/><path class="cls-4" d="M775.32,301v-8.29h1v1.25a3.5,3.5,0,0,1,.73-1.16,1.11,1.11,0,0,1,.75-.28,2,2,0,0,1,1.18.45l-.4,1.31a1.38,1.38,0,0,0-.83-.31,1,1,0,0,0-.67.26,1.31,1.31,0,0,0-.43.72,6.36,6.36,0,0,0-.22,1.71V301Z"/><path class="cls-4" d="M782.48,301.16l2.72-11.83h.94l-2.73,11.83Z"/><path class="cls-4" d="M923.3,26.61l1.14.18a3.79,3.79,0,0,1-1,2.26,2.58,2.58,0,0,1-1.89.79,2.7,2.7,0,0,1-2.2-1.1,5.23,5.23,0,0,1-.86-3.25,5.09,5.09,0,0,1,.87-3.24,2.73,2.73,0,0,1,2.24-1.09,2.52,2.52,0,0,1,1.77.66,3.21,3.21,0,0,1,.93,2l-1.12.2a2.39,2.39,0,0,0-.57-1.25,1.3,1.3,0,0,0-1-.42,1.69,1.69,0,0,0-1.41.75,4,4,0,0,0-.56,2.4,4.38,4.38,0,0,0,.53,2.45,1.62,1.62,0,0,0,1.37.76,1.48,1.48,0,0,0,1.12-.5A2.74,2.74,0,0,0,923.3,26.61Zm6.78,3a3.63,3.63,0,0,1-.24-1,4.1,4.1,0,0,1-1.2.91,3,3,0,0,1-1.3.31,2.28,2.28,0,0,1-1.69-.64,2.34,2.34,0,0,1-.64-1.73,2.62,2.62,0,0,1,.3-1.27,2.27,2.27,0,0,1,.81-.87,4.33,4.33,0,0,1,1.57-.46,8.42,8.42,0,0,0,2.06-.5V24a1.84,1.84,0,0,0-.31-1.2,1.67,1.67,0,0,0-1.32-.5,1.83,1.83,0,0,0-1.2.33,2.21,2.21,0,0,0-.59,1.26l-1.13-.19a3.18,3.18,0,0,1,1-1.95,3.27,3.27,0,0,1,2.11-.61,3,3,0,0,1,1.68.41,1.71,1.71,0,0,1,.77,1,7,7,0,0,1,.16,1.74v1.87a23.12,23.12,0,0,0,.08,2.48,3.58,3.58,0,0,0,.29,1Zm-.33-4.17a7.31,7.31,0,0,1-1.89.54,3.33,3.33,0,0,0-1,.28,1.21,1.21,0,0,0-.45.45,1.37,1.37,0,0,0-.16.68,1.24,1.24,0,0,0,.37.95,1.37,1.37,0,0,0,1,.35,2,2,0,0,0,1.12-.32,2,2,0,0,0,.76-.85,4,4,0,0,0,.25-1.56Zm3,4.17v-8.3h1v1.17a2.76,2.76,0,0,1,.91-1,2.36,2.36,0,0,1,1.25-.34,2.44,2.44,0,0,1,1,.22,2.05,2.05,0,0,1,.75.56,2.21,2.21,0,0,1,.42.9,7.81,7.81,0,0,1,.14,1.71v5.1h-1.15v-5a4.34,4.34,0,0,0-.15-1.34,1.36,1.36,0,0,0-.49-.65,1.28,1.28,0,0,0-.77-.24,1.61,1.61,0,0,0-1.32.62,3.46,3.46,0,0,0-.49,2.12v4.54Zm15.61,0a3.63,3.63,0,0,1-.24-1,4.1,4.1,0,0,1-1.2.91,3,3,0,0,1-1.3.31,2.28,2.28,0,0,1-1.69-.64,2.34,2.34,0,0,1-.64-1.73,2.62,2.62,0,0,1,.3-1.27,2.27,2.27,0,0,1,.81-.87,4.33,4.33,0,0,1,1.56-.46,8.4,8.4,0,0,0,2.07-.5V24a1.84,1.84,0,0,0-.31-1.2,1.67,1.67,0,0,0-1.32-.5,1.83,1.83,0,0,0-1.2.33,2.21,2.21,0,0,0-.59,1.26l-1.13-.19a3.18,3.18,0,0,1,1-1.95,3.27,3.27,0,0,1,2.11-.61,3,3,0,0,1,1.68.41,1.71,1.71,0,0,1,.77,1,7,7,0,0,1,.16,1.74v1.87a23.12,23.12,0,0,0,.08,2.48,3.58,3.58,0,0,0,.29,1ZM948,25.48a7.31,7.31,0,0,1-1.89.54,3.33,3.33,0,0,0-1,.28,1.21,1.21,0,0,0-.45.45,1.37,1.37,0,0,0-.16.68,1.24,1.24,0,0,0,.37.95,1.37,1.37,0,0,0,1,.35,2,2,0,0,0,1.12-.32,2,2,0,0,0,.76-.85A4,4,0,0,0,948,26Zm2.92,4.17V18.2h1.15V29.65Zm4.2,0L953,21.35h1.2l1.08,4.79.4,1.78.36-1.71,1.08-4.86h1.19l1,4.81.34,1.59.39-1.6,1.16-4.8h1.13l-2.12,8.3H959l-1.09-5-.26-1.41-1.37,6.38Zm12.89,0a3.63,3.63,0,0,1-.24-1,4.1,4.1,0,0,1-1.2.91,3,3,0,0,1-1.3.31,2.28,2.28,0,0,1-1.69-.64,2.34,2.34,0,0,1-.64-1.73,2.62,2.62,0,0,1,.3-1.27,2.27,2.27,0,0,1,.81-.87,4.33,4.33,0,0,1,1.56-.46,8.4,8.4,0,0,0,2.07-.5V24a1.84,1.84,0,0,0-.31-1.2,1.67,1.67,0,0,0-1.32-.5,1.83,1.83,0,0,0-1.2.33,2.21,2.21,0,0,0-.59,1.26l-1.13-.19a3.18,3.18,0,0,1,1-1.95,3.27,3.27,0,0,1,2.11-.61,3,3,0,0,1,1.68.41,1.71,1.71,0,0,1,.77,1,7,7,0,0,1,.16,1.74v1.87a23.12,23.12,0,0,0,.08,2.48,3.27,3.27,0,0,0,.29,1Zm-.33-4.17a7.31,7.31,0,0,1-1.89.54,3.33,3.33,0,0,0-1,.28,1.21,1.21,0,0,0-.45.45,1.37,1.37,0,0,0-.16.68,1.24,1.24,0,0,0,.37.95,1.37,1.37,0,0,0,1,.35,2,2,0,0,0,1.12-.32,2,2,0,0,0,.76-.85,4,4,0,0,0,.25-1.56ZM971.33,33a1.85,1.85,0,0,1-.74-.18l-.13-1.32a2.06,2.06,0,0,0,.66.13,1.15,1.15,0,0,0,.61-.15,1.13,1.13,0,0,0,.39-.46q.06-.11.45-1.38L970,21.35h1.24l1.42,4.8c.18.6.34,1.24.49,1.92.13-.64.29-1.27.47-1.89l1.45-4.83h1.16l-2.58,8.44a16.16,16.16,0,0,1-.8,2.19,2.07,2.07,0,0,1-.67.79,1.53,1.53,0,0,1-.84.25Zm8.25-3.18c-1.63,0-2.58-.89-2.84-2.68l1.15-.21a2.06,2.06,0,0,0,.55,1.3,1.68,1.68,0,0,0,1.2.43,1.65,1.65,0,0,0,1.16-.37,1.23,1.23,0,0,0,.41-.94.93.93,0,0,0-.35-.77,4.64,4.64,0,0,0-1.17-.47,8.28,8.28,0,0,1-1.8-.7,1.93,1.93,0,0,1-.7-.77,2.36,2.36,0,0,1-.25-1.11,2.28,2.28,0,0,1,.68-1.72,2.58,2.58,0,0,1,1.88-.67,3.1,3.1,0,0,1,1.33.28,2.06,2.06,0,0,1,.88.73,3.3,3.3,0,0,1,.42,1.32l-1.12.19a1.35,1.35,0,0,0-1.48-1.36,1.76,1.76,0,0,0-1.12.3,1,1,0,0,0-.36.77.85.85,0,0,0,.35.72,6.55,6.55,0,0,0,1.25.5,9.14,9.14,0,0,1,1.85.72,1.89,1.89,0,0,1,.66.74,2.51,2.51,0,0,1,.23,1.1,2.58,2.58,0,0,1-.75,1.93,2.84,2.84,0,0,1-2.06.74Zm8.87-.19h-1.07V18.2h1.16v4.08a2.66,2.66,0,0,1,.83-.84,2,2,0,0,1,1-.28,2.38,2.38,0,0,1,1.45.48,3.27,3.27,0,0,1,1,1.45,6.28,6.28,0,0,1,.39,2.35,5.22,5.22,0,0,1-.89,3.25,2.59,2.59,0,0,1-2.06,1.15,1.94,1.94,0,0,1-1.07-.31,2.56,2.56,0,0,1-.82-.92Zm0-4.21a5.85,5.85,0,0,0,.24,1.93,2.12,2.12,0,0,0,.66,1,1.5,1.5,0,0,0,1,.34,1.55,1.55,0,0,0,1.26-.8,4.21,4.21,0,0,0,.56-2.4,4.2,4.2,0,0,0-.54-2.39,1.56,1.56,0,0,0-1.3-.77,1.59,1.59,0,0,0-1.28.8A4.05,4.05,0,0,0,988.43,25.44Zm9.1,3.24c.87,0,1.47-.57,1.81-1.7l1.19.18a3.62,3.62,0,0,1-1.08,2,2.83,2.83,0,0,1-1.92.68,2.86,2.86,0,0,1-2.34-1.1,4.89,4.89,0,0,1-.9-3.17,5.13,5.13,0,0,1,.91-3.28,2.8,2.8,0,0,1,2.28-1.13,2.71,2.71,0,0,1,2.2,1.11,5.05,5.05,0,0,1,.89,3.21v.38h-5.08a3.6,3.6,0,0,0,.65,2.11,1.75,1.75,0,0,0,1.4.71Zm-2-4h3.8a3.21,3.21,0,0,0-.46-1.61,1.69,1.69,0,0,0-1.42-.77,1.72,1.72,0,0,0-1.32.64A2.88,2.88,0,0,0,995.55,24.7Zm10.4,4.95v-7.2h-1v-1.1h1v-.8a3.14,3.14,0,0,1,.48-1.95,1.62,1.62,0,0,1,1.33-.6,3.68,3.68,0,0,1,1.17.18l-.18,1.19a2.81,2.81,0,0,0-.62-.07,1,1,0,0,0-.81.28,2.22,2.22,0,0,0-.22,1.23v.54h1.32v1.1h-1.32v7.2Zm3.33-9.84V18.2h1.15v1.61Zm0,9.84v-8.3h1.15v8.3Zm2.17,0,2.48-4.31-2.29-4h1.44l1,1.94c.19.36.35.67.47.93.2-.34.37-.64.53-.9l1.14-2h1.37l-2.35,3.9,2.53,4.4h-1.41l-1.4-2.58-.36-.7-1.8,3.28Zm10.15-1c.86,0,1.46-.57,1.8-1.7l1.19.18a3.61,3.61,0,0,1-1.07,2,2.84,2.84,0,0,1-1.93.68,2.89,2.89,0,0,1-2.34-1.1,4.89,4.89,0,0,1-.89-3.17,5.19,5.19,0,0,1,.9-3.28,2.8,2.8,0,0,1,2.28-1.13,2.72,2.72,0,0,1,2.21,1.11,5.05,5.05,0,0,1,.88,3.21v.38h-5.08a3.67,3.67,0,0,0,.65,2.11,1.78,1.78,0,0,0,1.41.71Zm-2-4h3.8a3.11,3.11,0,0,0-.46-1.61,1.68,1.68,0,0,0-2.73-.13A2.82,2.82,0,0,0,1019.61,24.7Zm10.85,4.95v-1a2.36,2.36,0,0,1-.81.92,1.94,1.94,0,0,1-1.06.32,2.57,2.57,0,0,1-2.08-1.14,5.12,5.12,0,0,1-.88-3.2,6.56,6.56,0,0,1,.39-2.4,3.29,3.29,0,0,1,1-1.46,2.38,2.38,0,0,1,1.45-.48,1.94,1.94,0,0,1,1,.3,2.51,2.51,0,0,1,.81.84V18.2h1.17V29.65Zm-3.65-4.14a4.15,4.15,0,0,0,.56,2.39,1.58,1.58,0,0,0,1.3.78,1.55,1.55,0,0,0,1.27-.75,3.9,3.9,0,0,0,.54-2.27,4.63,4.63,0,0,0-.54-2.54,1.6,1.6,0,0,0-1.36-.8,1.52,1.52,0,0,0-1.25.77A4.37,4.37,0,0,0,1026.81,25.51Zm6.87,4.14v-1.6H1035v1.6a3.27,3.27,0,0,1-.28,1.46,1.85,1.85,0,0,1-.79.8l-.33-.6a1.18,1.18,0,0,0,.54-.56,2.72,2.72,0,0,0,.19-1.1Z"/><path class="cls-4" d="M923.5,46.18l1.19.18a3.62,3.62,0,0,1-1.08,2,2.83,2.83,0,0,1-1.92.68,2.86,2.86,0,0,1-2.34-1.1,4.89,4.89,0,0,1-.9-3.17,5.13,5.13,0,0,1,.91-3.28,2.8,2.8,0,0,1,2.28-1.13,2.71,2.71,0,0,1,2.2,1.11,5.05,5.05,0,0,1,.89,3.21v.38h-5.08a3.57,3.57,0,0,0,.65,2.11,1.75,1.75,0,0,0,1.41.71C922.56,47.88,923.16,47.31,923.5,46.18Zm-3.79-2.28h3.8a3.21,3.21,0,0,0-.46-1.61,1.68,1.68,0,0,0-2.74-.12A2.83,2.83,0,0,0,919.71,43.9Z"/><path class="cls-4" d="M928.05,48.85l-2.59-8.3h1.22l1.46,5c.17.56.32,1.12.44,1.67.1-.44.24-1,.42-1.58l1.52-5.06h1.19l-2.59,8.3Z"/><path class="cls-4" d="M937.36,46.18l1.19.18a3.62,3.62,0,0,1-1.08,2,2.83,2.83,0,0,1-1.92.68,2.86,2.86,0,0,1-2.34-1.1,4.89,4.89,0,0,1-.9-3.17,5.19,5.19,0,0,1,.9-3.28,2.84,2.84,0,0,1,2.29-1.13,2.71,2.71,0,0,1,2.2,1.11,5.05,5.05,0,0,1,.89,3.21v.38H933.5a3.57,3.57,0,0,0,.65,2.11,1.75,1.75,0,0,0,1.4.71C936.42,47.88,937,47.31,937.36,46.18Zm-3.79-2.28h3.8a3.21,3.21,0,0,0-.46-1.61,1.68,1.68,0,0,0-2.74-.12A2.83,2.83,0,0,0,933.57,43.9Z"/><path class="cls-4" d="M940,48.85v-8.3h1v1.17a2.76,2.76,0,0,1,.91-1,2.36,2.36,0,0,1,1.25-.34,2.44,2.44,0,0,1,1,.22,2.05,2.05,0,0,1,.75.56,2.21,2.21,0,0,1,.42.9,7.81,7.81,0,0,1,.14,1.71v5.1h-1.15V43.8a4.34,4.34,0,0,0-.15-1.34,1.36,1.36,0,0,0-.49-.65,1.27,1.27,0,0,0-.77-.23,1.6,1.6,0,0,0-1.32.61,3.46,3.46,0,0,0-.49,2.12v4.54Z"/><path class="cls-4" d="M952.21,48.85l-2.09-8.3h1.19l1.08,4.79.4,1.78.36-1.71,1.08-4.86h1.19l1,4.81.35,1.59.39-1.6,1.16-4.8h1.12l-2.12,8.3h-1.2l-1.09-5-.25-1.41-1.38,6.38Z"/><path class="cls-4" d="M960.42,48.85V37.4h1.15v4.1a2.82,2.82,0,0,1,.92-.85,2.29,2.29,0,0,1,1.13-.29,2.17,2.17,0,0,1,1.71.7,3.8,3.8,0,0,1,.63,2.53v5.26h-1.15V43.59a2.52,2.52,0,0,0-.38-1.55,1.3,1.3,0,0,0-1-.46,1.64,1.64,0,0,0-1.28.6,3.28,3.28,0,0,0-.53,2.13v4.54Z"/><path class="cls-4" d="M972.37,46.18l1.18.18a3.55,3.55,0,0,1-1.07,2,2.84,2.84,0,0,1-1.93.68,2.89,2.89,0,0,1-2.34-1.1,5,5,0,0,1-.89-3.17,5.19,5.19,0,0,1,.9-3.28,2.82,2.82,0,0,1,2.29-1.13,2.71,2.71,0,0,1,2.2,1.11,5.05,5.05,0,0,1,.88,3.21v.38h-5.08a3.5,3.5,0,0,0,.65,2.11,1.75,1.75,0,0,0,1.4.71C971.43,47.88,972,47.31,972.37,46.18Zm-3.79-2.28h3.8a3.2,3.2,0,0,0-.47-1.61,1.68,1.68,0,0,0-1.41-.77,1.67,1.67,0,0,0-1.32.65A2.77,2.77,0,0,0,968.58,43.9Z"/><path class="cls-4" d="M975,48.85v-8.3h1v1.17a2.78,2.78,0,0,1,.92-1,2.43,2.43,0,0,1,2.25-.12,2.05,2.05,0,0,1,.75.56,2.36,2.36,0,0,1,.43.9,7.81,7.81,0,0,1,.14,1.71v5.1h-1.15V43.8a4,4,0,0,0-.16-1.34,1.27,1.27,0,0,0-1.25-.88,1.58,1.58,0,0,0-1.32.61,3.45,3.45,0,0,0-.5,2.12v4.54Z"/><path class="cls-4" d="M985.52,44.7a5,5,0,0,1,.91-3.24,2.9,2.9,0,0,1,4.55,0,4.79,4.79,0,0,1,.92,3.15,5.17,5.17,0,0,1-.9,3.33,2.92,2.92,0,0,1-4.57,0A5,5,0,0,1,985.52,44.7Zm1.18,0a4,4,0,0,0,.59,2.39,1.74,1.74,0,0,0,1.45.79,1.7,1.7,0,0,0,1.4-.79,4.11,4.11,0,0,0,.58-2.39,4,4,0,0,0-.59-2.39,1.74,1.74,0,0,0-1.45-.79,1.69,1.69,0,0,0-1.4.79A4.08,4.08,0,0,0,986.7,44.7Z"/><path class="cls-4" d="M993.26,48.85v-8.3h1v1.17a2.76,2.76,0,0,1,.91-1,2.36,2.36,0,0,1,1.25-.34,2.44,2.44,0,0,1,1,.22,2.05,2.05,0,0,1,.75.56,2.21,2.21,0,0,1,.42.9,7.81,7.81,0,0,1,.14,1.71v5.1h-1.15V43.8a4.34,4.34,0,0,0-.15-1.34,1.36,1.36,0,0,0-.49-.65,1.27,1.27,0,0,0-.77-.23,1.6,1.6,0,0,0-1.32.61,3.46,3.46,0,0,0-.49,2.12v4.54Z"/><path class="cls-4" d="M1005.2,46.18l1.19.18a3.67,3.67,0,0,1-1.07,2,2.84,2.84,0,0,1-1.93.68,2.89,2.89,0,0,1-2.34-1.1,4.89,4.89,0,0,1-.89-3.17,5.19,5.19,0,0,1,.9-3.28,2.8,2.8,0,0,1,2.28-1.13,2.72,2.72,0,0,1,2.21,1.11,5.05,5.05,0,0,1,.88,3.21v.38h-5.08a3.64,3.64,0,0,0,.65,2.11,1.78,1.78,0,0,0,1.41.71C1004.26,47.88,1004.86,47.31,1005.2,46.18Zm-3.79-2.28h3.8a3.21,3.21,0,0,0-.46-1.61,1.68,1.68,0,0,0-1.41-.77,1.67,1.67,0,0,0-1.32.65A2.77,2.77,0,0,0,1001.41,43.9Z"/><path class="cls-4" d="M1011.06,44.7a5,5,0,0,1,.9-3.24,2.91,2.91,0,0,1,4.56,0,4.79,4.79,0,0,1,.92,3.15,5.17,5.17,0,0,1-.9,3.33,2.92,2.92,0,0,1-4.57,0A5,5,0,0,1,1011.06,44.7Zm1.18,0a4,4,0,0,0,.59,2.39,1.74,1.74,0,0,0,1.45.79,1.7,1.7,0,0,0,1.4-.79,4.11,4.11,0,0,0,.58-2.39,4,4,0,0,0-.59-2.39,1.74,1.74,0,0,0-1.45-.79,1.69,1.69,0,0,0-1.4.79A4,4,0,0,0,1012.24,44.7Z"/><path class="cls-4" d="M1019.12,48.85v-7.2h-1v-1.1h1v-.88a4.2,4.2,0,0,1,.2-1.47,1.56,1.56,0,0,1,.62-.74,2,2,0,0,1,1.06-.26,4.37,4.37,0,0,1,1.08.15l-.17,1.22a3.39,3.39,0,0,0-.68-.08.9.9,0,0,0-.74.27,1.69,1.69,0,0,0-.22,1v.76h1.32v1.1h-1.32v7.2Z"/><path class="cls-4" d="M1028.66,47.59l.15,1.24a3.1,3.1,0,0,1-.86.13,1.76,1.76,0,0,1-1-.24,1.24,1.24,0,0,1-.5-.65,6.39,6.39,0,0,1-.14-1.65V41.65h-.84v-1.1h.84v-2l1.15-.85v2.9h1.17v1.1h-1.17V46.5a2.42,2.42,0,0,0,.1.86.58.58,0,0,0,.56.29A2.86,2.86,0,0,0,1028.66,47.59Z"/><path class="cls-4" d="M1029.74,48.85V37.4h1.15v4.1a2.82,2.82,0,0,1,.92-.85,2.29,2.29,0,0,1,1.13-.29,2.17,2.17,0,0,1,1.71.7,3.8,3.8,0,0,1,.63,2.53v5.26h-1.15V43.59a2.52,2.52,0,0,0-.38-1.55,1.28,1.28,0,0,0-1-.46,1.64,1.64,0,0,0-1.28.6,3.28,3.28,0,0,0-.53,2.13v4.54Z"/><path class="cls-4" d="M1041.69,46.18l1.19.18a3.62,3.62,0,0,1-1.08,2,2.83,2.83,0,0,1-1.92.68,2.86,2.86,0,0,1-2.34-1.1,4.89,4.89,0,0,1-.9-3.17,5.19,5.19,0,0,1,.9-3.28,2.82,2.82,0,0,1,2.29-1.13,2.71,2.71,0,0,1,2.2,1.11,5.05,5.05,0,0,1,.88,3.21v.38h-5.08a3.57,3.57,0,0,0,.65,2.11,1.75,1.75,0,0,0,1.4.71C1040.75,47.88,1041.35,47.31,1041.69,46.18Zm-3.79-2.28h3.8a3.2,3.2,0,0,0-.47-1.61,1.68,1.68,0,0,0-1.41-.77,1.67,1.67,0,0,0-1.32.65A2.77,2.77,0,0,0,1037.9,43.9Z"/><path class="cls-4" d="M918.81,68.05V56.6H920V68.05Z"/><path class="cls-4" d="M921.77,58.21V56.6h1.14v1.61Zm0,9.84v-8.3h1.14v8.3Z"/><path class="cls-4" d="M924.68,68.05v-8.3h1v1.17a2.76,2.76,0,0,1,.91-1,2.39,2.39,0,0,1,1.25-.34,2.44,2.44,0,0,1,1,.22,2.05,2.05,0,0,1,.75.56,2.21,2.21,0,0,1,.42.9A7.23,7.23,0,0,1,930.2,63v5.1h-1.15V63a4.34,4.34,0,0,0-.15-1.34,1.36,1.36,0,0,0-.49-.65,1.27,1.27,0,0,0-.77-.23,1.6,1.6,0,0,0-1.32.61,3.46,3.46,0,0,0-.49,2.12v4.54Z"/><path class="cls-4" d="M932,68.05V56.6h1.15v6.54l2.74-3.39h1.49l-2.6,3.08,2.86,5.22h-1.42L934,63.8l-.81,1v3.29Z"/><path class="cls-4" d="M938.09,65.56l1.15-.21a2,2,0,0,0,.56,1.3,1.93,1.93,0,0,0,2.35.06,1.19,1.19,0,0,0,.41-.94.9.9,0,0,0-.35-.77,4.64,4.64,0,0,0-1.17-.47,8.28,8.28,0,0,1-1.8-.7,2,2,0,0,1-.7-.77,2.34,2.34,0,0,1-.25-1.1,2.32,2.32,0,0,1,.68-1.73,2.58,2.58,0,0,1,1.88-.67,3.07,3.07,0,0,1,1.33.28,2,2,0,0,1,.88.73,3,3,0,0,1,.42,1.32l-1.12.19a1.35,1.35,0,0,0-1.48-1.36,1.71,1.71,0,0,0-1.11.3.94.94,0,0,0-.37.77.87.87,0,0,0,.35.72A6.55,6.55,0,0,0,941,63a9.14,9.14,0,0,1,1.85.72,1.89,1.89,0,0,1,.66.74,2.53,2.53,0,0,1,.23,1.11A2.57,2.57,0,0,1,943,67.5a2.82,2.82,0,0,1-2.06.74C939.3,68.24,938.35,67.35,938.09,65.56Z"/><path class="cls-4" d="M948.75,68.05V56.6h1.15v4.11a2.86,2.86,0,0,1,.92-.86,2.26,2.26,0,0,1,1.13-.29,2.17,2.17,0,0,1,1.71.7,3.8,3.8,0,0,1,.63,2.53v5.26h-1.15V62.79a2.52,2.52,0,0,0-.38-1.55,1.3,1.3,0,0,0-1.06-.46,1.62,1.62,0,0,0-1.27.6,3.22,3.22,0,0,0-.53,2.13v4.54Z"/><path class="cls-4" d="M960.48,67a4.27,4.27,0,0,1-1.21.9,3,3,0,0,1-1.29.31,2.31,2.31,0,0,1-1.7-.64,2.37,2.37,0,0,1-.63-1.73,2.62,2.62,0,0,1,.3-1.27,2.13,2.13,0,0,1,.81-.87,4.2,4.2,0,0,1,1.56-.46,8.74,8.74,0,0,0,2.06-.49v-.36a1.85,1.85,0,0,0-.3-1.2,1.67,1.67,0,0,0-1.32-.5,1.88,1.88,0,0,0-1.21.33,2.21,2.21,0,0,0-.58,1.26l-1.14-.19a3.18,3.18,0,0,1,1-1.95,3.3,3.3,0,0,1,2.12-.61,3,3,0,0,1,1.68.41,1.79,1.79,0,0,1,.77,1,7.53,7.53,0,0,1,.16,1.74v1.87a24.27,24.27,0,0,0,.07,2.48,3.94,3.94,0,0,0,.29,1h-1.2A3.33,3.33,0,0,1,960.48,67Zm-.1-3.15a7.34,7.34,0,0,1-1.88.54,3.51,3.51,0,0,0-1,.28,1.12,1.12,0,0,0-.44.45,1.39,1.39,0,0,0-.16.68,1.27,1.27,0,0,0,.36,1,1.41,1.41,0,0,0,1,.35,2,2,0,0,0,1.12-.32,1.93,1.93,0,0,0,.75-.85,3.78,3.78,0,0,0,.25-1.56Z"/><path class="cls-4" d="M962.9,65.56l1.15-.21a2,2,0,0,0,.55,1.3,1.94,1.94,0,0,0,2.36.06,1.23,1.23,0,0,0,.41-.94A.93.93,0,0,0,967,65a5,5,0,0,0-1.18-.47,8.35,8.35,0,0,1-1.79-.7,2,2,0,0,1-.71-.77,2.47,2.47,0,0,1-.25-1.1,2.32,2.32,0,0,1,.68-1.73,2.61,2.61,0,0,1,1.89-.67,3.1,3.1,0,0,1,1.33.28,2.13,2.13,0,0,1,.88.73,3.3,3.3,0,0,1,.42,1.32l-1.13.19a1.34,1.34,0,0,0-1.47-1.36,1.76,1.76,0,0,0-1.12.3,1,1,0,0,0-.37.77.86.86,0,0,0,.36.72,6.25,6.25,0,0,0,1.25.5,9.4,9.4,0,0,1,1.85.72,1.8,1.8,0,0,1,.65.74,2.39,2.39,0,0,1,.24,1.11,2.54,2.54,0,0,1-.76,1.92,2.82,2.82,0,0,1-2.06.74C964.1,68.24,963.16,67.35,962.9,65.56Z"/><path class="cls-4" d="M973.33,68.74l1.12.2a1.43,1.43,0,0,0,.47,1,1.63,1.63,0,0,0,1.09.33,1.85,1.85,0,0,0,1.2-.36,1.92,1.92,0,0,0,.62-1.09,10,10,0,0,0,.1-1.84,2.68,2.68,0,0,1-.84.81,2.07,2.07,0,0,1-1,.27,2.47,2.47,0,0,1-2-1,5.07,5.07,0,0,1-.92-3.18,6.23,6.23,0,0,1,.41-2.34A3.24,3.24,0,0,1,974.57,60a2.53,2.53,0,0,1,1.48-.47,2.06,2.06,0,0,1,1.1.3,2.73,2.73,0,0,1,.88.88v-1h1.06v7.17a8.35,8.35,0,0,1-.31,2.73,2.62,2.62,0,0,1-1,1.29,3,3,0,0,1-1.71.48,2.76,2.76,0,0,1-2-.71A2.56,2.56,0,0,1,973.33,68.74Zm.95-5a4.16,4.16,0,0,0,.54,2.39,1.59,1.59,0,0,0,1.32.75,1.62,1.62,0,0,0,1.34-.73,4,4,0,0,0,.54-2.35,3.91,3.91,0,0,0-.56-2.33,1.68,1.68,0,0,0-1.37-.76,1.56,1.56,0,0,0-1.26.76A3.86,3.86,0,0,0,974.28,63.75Z"/><path class="cls-4" d="M980.41,63.9a5,5,0,0,1,.91-3.24,2.91,2.91,0,0,1,4.56,0,4.85,4.85,0,0,1,.91,3.15,5.17,5.17,0,0,1-.9,3.33,2.92,2.92,0,0,1-4.57,0A5,5,0,0,1,980.41,63.9Zm1.18,0a4,4,0,0,0,.59,2.39,1.74,1.74,0,0,0,1.45.79,1.7,1.7,0,0,0,1.4-.79,4,4,0,0,0,.58-2.39,4,4,0,0,0-.59-2.39,1.74,1.74,0,0,0-1.45-.79,1.69,1.69,0,0,0-1.4.79A4.08,4.08,0,0,0,981.59,63.9Z"/><path class="cls-4" d="M988.15,68.05v-8.3h1v1.17a2.76,2.76,0,0,1,.91-1,2.36,2.36,0,0,1,1.25-.34,2.44,2.44,0,0,1,1,.22,2.05,2.05,0,0,1,.75.56,2.21,2.21,0,0,1,.42.9,7.81,7.81,0,0,1,.14,1.71v5.1h-1.15V63a4.34,4.34,0,0,0-.15-1.34,1.36,1.36,0,0,0-.49-.65,1.27,1.27,0,0,0-.77-.23,1.6,1.6,0,0,0-1.32.61,3.46,3.46,0,0,0-.49,2.12v4.54Z"/><path class="cls-4" d="M1000.09,65.38l1.19.18a3.61,3.61,0,0,1-1.07,2,2.84,2.84,0,0,1-1.93.68,2.89,2.89,0,0,1-2.34-1.1,4.89,4.89,0,0,1-.89-3.17,5.19,5.19,0,0,1,.9-3.28,2.8,2.8,0,0,1,2.28-1.13,2.72,2.72,0,0,1,2.21,1.11,5.05,5.05,0,0,1,.88,3.21v.38h-5.08a3.64,3.64,0,0,0,.65,2.11,1.78,1.78,0,0,0,1.41.71C999.15,67.08,999.75,66.51,1000.09,65.38ZM996.3,63.1h3.8a3.11,3.11,0,0,0-.46-1.61,1.68,1.68,0,0,0-1.41-.77,1.67,1.67,0,0,0-1.32.65A2.77,2.77,0,0,0,996.3,63.1Z"/><path class="cls-4" d="M1006.4,68.05v-8.3h1v1.16a2.69,2.69,0,0,1,.88-1,2.15,2.15,0,0,1,1.18-.35,2,2,0,0,1,1.21.37,2,2,0,0,1,.71,1.08,3.14,3.14,0,0,1,.93-1.08,2,2,0,0,1,1.18-.37,1.93,1.93,0,0,1,1.54.67,3.22,3.22,0,0,1,.56,2.12v5.7h-1.14V62.82a4.55,4.55,0,0,0-.13-1.27,1.17,1.17,0,0,0-.42-.57,1.1,1.1,0,0,0-.66-.2,1.46,1.46,0,0,0-1.21.59,2.91,2.91,0,0,0-.47,1.85v4.83h-1.15v-5.4a2.48,2.48,0,0,0-.32-1.45,1,1,0,0,0-.87-.42,1.47,1.47,0,0,0-1.25.63,4.31,4.31,0,0,0-.45,2.33v4.31Z"/><path class="cls-4" d="M1017.32,58.21V56.6h1.15v1.61Zm0,9.84v-8.3h1.15v8.3Z"/><path class="cls-4" d="M1019.79,65.56l1.15-.21a2,2,0,0,0,.55,1.3,1.94,1.94,0,0,0,2.36.06,1.23,1.23,0,0,0,.41-.94.93.93,0,0,0-.35-.77,4.77,4.77,0,0,0-1.18-.47,8.35,8.35,0,0,1-1.79-.7,2,2,0,0,1-.71-.77A2.47,2.47,0,0,1,1020,62a2.32,2.32,0,0,1,.68-1.73,2.63,2.63,0,0,1,1.89-.67,3.1,3.1,0,0,1,1.33.28,2.13,2.13,0,0,1,.88.73,3.3,3.3,0,0,1,.42,1.32l-1.13.19a1.34,1.34,0,0,0-1.47-1.36,1.76,1.76,0,0,0-1.12.3,1,1,0,0,0-.37.77.86.86,0,0,0,.36.72,6.25,6.25,0,0,0,1.25.5,9.4,9.4,0,0,1,1.85.72,1.8,1.8,0,0,1,.65.74,2.39,2.39,0,0,1,.24,1.11,2.54,2.54,0,0,1-.76,1.92,2.81,2.81,0,0,1-2.06.74C1021,68.24,1020.05,67.35,1019.79,65.56Z"/><path class="cls-4" d="M1026.35,65.56l1.15-.21a2.06,2.06,0,0,0,.55,1.3,1.94,1.94,0,0,0,2.36.06,1.23,1.23,0,0,0,.41-.94.93.93,0,0,0-.35-.77,4.64,4.64,0,0,0-1.17-.47,8.28,8.28,0,0,1-1.8-.7,1.93,1.93,0,0,1-.7-.77,2.34,2.34,0,0,1-.25-1.1,2.28,2.28,0,0,1,.68-1.73,2.58,2.58,0,0,1,1.88-.67,3.1,3.1,0,0,1,1.33.28,2.06,2.06,0,0,1,.88.73,3.3,3.3,0,0,1,.42,1.32l-1.12.19a1.35,1.35,0,0,0-1.48-1.36,1.76,1.76,0,0,0-1.12.3,1,1,0,0,0-.36.77.85.85,0,0,0,.35.72,6.55,6.55,0,0,0,1.25.5,9.4,9.4,0,0,1,1.85.72,1.89,1.89,0,0,1,.66.74,2.53,2.53,0,0,1,.23,1.11,2.57,2.57,0,0,1-.75,1.92,2.84,2.84,0,0,1-2.06.74C1027.56,68.24,1026.61,67.35,1026.35,65.56Z"/><path class="cls-4" d="M1033.36,58.21V56.6h1.15v1.61Zm0,9.84v-8.3h1.15v8.3Z"/><path class="cls-4" d="M1036.27,68.05v-8.3h1v1.17a2.78,2.78,0,0,1,.92-1,2.33,2.33,0,0,1,1.24-.34,2.41,2.41,0,0,1,1,.22,2.05,2.05,0,0,1,.75.56,2.36,2.36,0,0,1,.43.9,7.81,7.81,0,0,1,.14,1.71v5.1h-1.15V63a4,4,0,0,0-.16-1.34,1.3,1.3,0,0,0-1.26-.88,1.6,1.6,0,0,0-1.32.61,3.53,3.53,0,0,0-.49,2.12v4.54Z"/><path class="cls-4" d="M1043.34,68.74l1.13.2a1.43,1.43,0,0,0,.47,1,1.62,1.62,0,0,0,1.08.33,1.88,1.88,0,0,0,1.21-.36,1.91,1.91,0,0,0,.61-1.09A9.73,9.73,0,0,0,1048,67a2.7,2.7,0,0,1-.85.81,2,2,0,0,1-1,.27,2.46,2.46,0,0,1-2-1,5,5,0,0,1-.92-3.18,6.23,6.23,0,0,1,.4-2.34,3.26,3.26,0,0,1,1.07-1.47,2.51,2.51,0,0,1,1.48-.47,2.09,2.09,0,0,1,1.1.3,2.84,2.84,0,0,1,.88.88v-1h1.06v7.17a8.64,8.64,0,0,1-.31,2.73,2.59,2.59,0,0,1-1,1.29,3,3,0,0,1-1.71.48,2.76,2.76,0,0,1-2-.71A2.64,2.64,0,0,1,1043.34,68.74Zm1-5a4.16,4.16,0,0,0,.54,2.39,1.59,1.59,0,0,0,1.32.75,1.61,1.61,0,0,0,1.33-.73,5.21,5.21,0,0,0,0-4.68,1.7,1.7,0,0,0-1.37-.76,1.56,1.56,0,0,0-1.27.76A3.94,3.94,0,0,0,1044.3,63.75Z"/><path class="cls-4" d="M1051.23,68.05v-1.6h1.31v1.6Z"/><path class="cls-4" d="M562.87,29.9h-1.16v-9a5.74,5.74,0,0,1-1.07.95,6.55,6.55,0,0,1-1.23.74V21.27a7.25,7.25,0,0,0,1.68-1.33,5.11,5.11,0,0,0,1-1.54h.75Z"/><path class="cls-4" d="M569.2,29.9h-1.15v-9a6.08,6.08,0,0,1-1.07.95,6.3,6.3,0,0,1-1.24.74V21.27a7.1,7.1,0,0,0,1.69-1.33,5.06,5.06,0,0,0,1-1.54h.75Z"/><path class="cls-4" d="M575.54,29.9h-1.16v-9a5.74,5.74,0,0,1-1.07.95,6,6,0,0,1-1.23.74V21.27a6.85,6.85,0,0,0,1.68-1.33,5.11,5.11,0,0,0,1-1.54h.75Z"/><polyline class="cls-3" points="659.1 261.85 649.39 260.73 646.1 260.17 635.1 259.21 620.11 257.05 615.1 256.57 590.83 253.73 582.91 252.49 579.1 251.73 577.39 262.09 577.39 264.49 577.39 268.69 567.79 341.29 567.79 350.29 553.1 458.89 555.1 458.89 564.19 460.69 585.1 462.49 625.39 467.73 696.19 475.73 705.07 476.73 710.11 477.37"/><g class="cls-2"><path class="cls-3" d="M586.75,389.29s29.28,46.08,39.84,52.08c0,0,3.6,5,7.68,6.36"/></g></g></svg>