<svg xmlns="http://www.w3.org/2000/svg" viewBox="0 0 186.87 199.51"><title>Asset 1</title><g id="Layer_2" data-name="Layer 2"><g id="Layer_1-2" data-name="Layer 1"><path d="M0,191.65H22.48l11.24-12.09V19.67L22.48,7.87H0V0H97.79c42.71,0,66.6,20,66.6,52.27,0,24.73-20.23,47.77-59.29,53.11v.56l16.58,7.59,45.8,69.12,19.39,11.81v5H141.06L93.58,124.2C88,115.21,81.21,109,72.5,109H62.66v70.53L73.9,191.65h26.42v7.86H0ZM86.27,97.79c22.76,0,46.36-13.49,46.36-41.59,0-30.63-19.95-45-43.55-45a87.31,87.31,0,0,0-18.27,2.25l-8.15,2.25V97.79Z"/></g></g></svg>